%TF.GenerationSoftware,KiCad,Pcbnew,8.0.1-8.0.1-1~ubuntu22.04.1*%
%TF.CreationDate,2024-03-20T19:07:05+03:00*%
%TF.ProjectId,SpaceCadet,53706163-6543-4616-9465-742e6b696361,rev?*%
%TF.SameCoordinates,Original*%
%TF.FileFunction,Other,User*%
%FSLAX46Y46*%
G04 Gerber Fmt 4.6, Leading zero omitted, Abs format (unit mm)*
G04 Created by KiCad (PCBNEW 8.0.1-8.0.1-1~ubuntu22.04.1) date 2024-03-20 19:07:05*
%MOMM*%
%LPD*%
G01*
G04 APERTURE LIST*
%ADD10C,0.050000*%
%TA.AperFunction,Profile*%
%ADD11C,0.100000*%
%TD*%
G04 APERTURE END LIST*
D10*
X249648780Y-123560000D02*
X262848780Y-123560000D01*
X249648780Y-136760000D02*
X249648780Y-123560000D01*
X262848780Y-123560000D02*
X262848780Y-136760000D01*
X262848780Y-136760000D02*
X249648780Y-136760000D01*
X273438780Y-123560000D02*
X286638780Y-123560000D01*
X273438780Y-136760000D02*
X273438780Y-123560000D01*
X286638780Y-123560000D02*
X286638780Y-136760000D01*
X286638780Y-136760000D02*
X273438780Y-136760000D01*
X259177430Y-104510000D02*
X272377430Y-104510000D01*
X259177430Y-117710000D02*
X259177430Y-104510000D01*
X272377430Y-104510000D02*
X272377430Y-117710000D01*
X272377430Y-117710000D02*
X259177430Y-117710000D01*
X287752400Y-85460000D02*
X300952400Y-85460000D01*
X287752400Y-98660000D02*
X287752400Y-85460000D01*
X300952400Y-85460000D02*
X300952400Y-98660000D01*
X300952400Y-98660000D02*
X287752400Y-98660000D01*
X178214970Y-47360000D02*
X191414970Y-47360000D01*
X178214970Y-60560000D02*
X178214970Y-47360000D01*
X191414970Y-47360000D02*
X191414970Y-60560000D01*
X191414970Y-60560000D02*
X178214970Y-60560000D01*
X225839940Y-66410000D02*
X239039940Y-66410000D01*
X225839940Y-79610000D02*
X225839940Y-66410000D01*
X239039940Y-66410000D02*
X239039940Y-79610000D01*
X239039940Y-79610000D02*
X225839940Y-79610000D01*
X102015010Y-47360000D02*
X115215010Y-47360000D01*
X102015010Y-60560000D02*
X102015010Y-47360000D01*
X115215010Y-47360000D02*
X115215010Y-60560000D01*
X115215010Y-60560000D02*
X102015010Y-60560000D01*
X197264950Y-47360000D02*
X210464950Y-47360000D01*
X197264950Y-60560000D02*
X197264950Y-47360000D01*
X210464950Y-47360000D02*
X210464950Y-60560000D01*
X210464950Y-60560000D02*
X197264950Y-60560000D01*
X454439900Y-28310000D02*
X467639900Y-28310000D01*
X454439900Y-41510000D02*
X454439900Y-28310000D01*
X467639900Y-28310000D02*
X467639900Y-41510000D01*
X467639900Y-41510000D02*
X454439900Y-41510000D01*
X221077440Y-104510000D02*
X234277440Y-104510000D01*
X221077440Y-117710000D02*
X221077440Y-104510000D01*
X234277440Y-104510000D02*
X234277440Y-117710000D01*
X234277440Y-117710000D02*
X221077440Y-117710000D01*
X416339940Y-28310000D02*
X429539940Y-28310000D01*
X416339940Y-41510000D02*
X416339940Y-28310000D01*
X429539940Y-28310000D02*
X429539940Y-41510000D01*
X429539940Y-41510000D02*
X416339940Y-41510000D01*
X416339840Y-66410000D02*
X429539840Y-66410000D01*
X416339840Y-79610000D02*
X416339840Y-66410000D01*
X429539840Y-66410000D02*
X429539840Y-79610000D01*
X429539840Y-79610000D02*
X416339840Y-79610000D01*
X249652440Y-85460000D02*
X262852440Y-85460000D01*
X249652440Y-98660000D02*
X249652440Y-85460000D01*
X262852440Y-85460000D02*
X262852440Y-98660000D01*
X262852440Y-98660000D02*
X249652440Y-98660000D01*
X168689970Y-66410000D02*
X181889970Y-66410000D01*
X168689970Y-79610000D02*
X168689970Y-66410000D01*
X181889970Y-66410000D02*
X181889970Y-79610000D01*
X181889970Y-79610000D02*
X168689970Y-79610000D01*
X202027450Y-104510000D02*
X215227450Y-104510000D01*
X202027450Y-117710000D02*
X202027450Y-104510000D01*
X215227450Y-104510000D02*
X215227450Y-117710000D01*
X215227450Y-117710000D02*
X202027450Y-117710000D01*
X263939900Y-66410000D02*
X277139900Y-66410000D01*
X263939900Y-79610000D02*
X263939900Y-66410000D01*
X277139900Y-66410000D02*
X277139900Y-79610000D01*
X277139900Y-79610000D02*
X263939900Y-79610000D01*
X463964800Y-66410000D02*
X477164800Y-66410000D01*
X463964800Y-79610000D02*
X463964800Y-66410000D01*
X477164800Y-66410000D02*
X477164800Y-79610000D01*
X477164800Y-79610000D02*
X463964800Y-79610000D01*
X311564880Y-47360000D02*
X324764880Y-47360000D01*
X311564880Y-60560000D02*
X311564880Y-47360000D01*
X324764880Y-47360000D02*
X324764880Y-60560000D01*
X324764880Y-60560000D02*
X311564880Y-60560000D01*
X25815000Y-47360000D02*
X39015000Y-47360000D01*
X25815000Y-60560000D02*
X25815000Y-47360000D01*
X39015000Y-47360000D02*
X39015000Y-60560000D01*
X39015000Y-60560000D02*
X25815000Y-60560000D01*
X430627560Y-123560000D02*
X443827560Y-123560000D01*
X430627560Y-136760000D02*
X430627560Y-123560000D01*
X443827560Y-123560000D02*
X443827560Y-136760000D01*
X443827560Y-136760000D02*
X430627560Y-136760000D01*
X459202580Y-123560000D02*
X472402580Y-123560000D01*
X459202580Y-136760000D02*
X459202580Y-123560000D01*
X472402580Y-123560000D02*
X472402580Y-136760000D01*
X472402580Y-136760000D02*
X459202580Y-136760000D01*
X321089880Y-66410000D02*
X334289880Y-66410000D01*
X321089880Y-79610000D02*
X321089880Y-66410000D01*
X334289880Y-66410000D02*
X334289880Y-79610000D01*
X334289880Y-79610000D02*
X321089880Y-79610000D01*
X140114990Y-47360000D02*
X153314990Y-47360000D01*
X140114990Y-60560000D02*
X140114990Y-47360000D01*
X153314990Y-47360000D02*
X153314990Y-60560000D01*
X153314990Y-60560000D02*
X140114990Y-60560000D01*
X294896270Y-123560000D02*
X308096270Y-123560000D01*
X294896270Y-136760000D02*
X294896270Y-123560000D01*
X308096270Y-123560000D02*
X308096270Y-136760000D01*
X308096270Y-136760000D02*
X294896270Y-136760000D01*
X111540010Y-28310000D02*
X124740010Y-28310000D01*
X111540010Y-41510000D02*
X111540010Y-28310000D01*
X124740010Y-28310000D02*
X124740010Y-41510000D01*
X124740010Y-41510000D02*
X111540010Y-41510000D01*
X154402480Y-85460000D02*
X167602480Y-85460000D01*
X154402480Y-98660000D02*
X154402480Y-85460000D01*
X167602480Y-85460000D02*
X167602480Y-98660000D01*
X167602480Y-98660000D02*
X154402480Y-98660000D01*
X106777505Y-66410000D02*
X119977505Y-66410000D01*
X106777505Y-79610000D02*
X106777505Y-66410000D01*
X119977505Y-66410000D02*
X119977505Y-79610000D01*
X119977505Y-79610000D02*
X106777505Y-79610000D01*
X359189850Y-66410000D02*
X372389850Y-66410000D01*
X359189850Y-79610000D02*
X359189850Y-66410000D01*
X372389850Y-66410000D02*
X372389850Y-79610000D01*
X372389850Y-79610000D02*
X359189850Y-79610000D01*
X216314940Y-47360000D02*
X229514940Y-47360000D01*
X216314940Y-60560000D02*
X216314940Y-47360000D01*
X229514940Y-47360000D02*
X229514940Y-60560000D01*
X229514940Y-60560000D02*
X216314940Y-60560000D01*
X44865000Y-47360000D02*
X58065000Y-47360000D01*
X44865000Y-60560000D02*
X44865000Y-47360000D01*
X58065000Y-47360000D02*
X58065000Y-60560000D01*
X58065000Y-60560000D02*
X44865000Y-60560000D01*
X263940030Y-28310000D02*
X277140030Y-28310000D01*
X263940030Y-41510000D02*
X263940030Y-28310000D01*
X277140030Y-28310000D02*
X277140030Y-41510000D01*
X277140030Y-41510000D02*
X263940030Y-41510000D01*
X278227420Y-104510000D02*
X291427420Y-104510000D01*
X278227420Y-117710000D02*
X278227420Y-104510000D01*
X291427420Y-104510000D02*
X291427420Y-117710000D01*
X291427420Y-117710000D02*
X278227420Y-117710000D01*
X340136140Y-104480000D02*
X353336140Y-104510000D01*
X340136140Y-117680000D02*
X340136140Y-104480000D01*
X353336140Y-104480000D02*
X353336140Y-117680000D01*
X353336140Y-117680000D02*
X340136140Y-117680000D01*
X363956140Y-104500000D02*
X377156140Y-104510000D01*
X363956140Y-117700000D02*
X363956140Y-104500000D01*
X377156140Y-104500000D02*
X377156140Y-117700000D01*
X377156140Y-117710000D02*
X363956140Y-117700000D01*
X454439820Y-85460000D02*
X467639820Y-85460000D01*
X454439820Y-98660000D02*
X454439820Y-85460000D01*
X467639820Y-85460000D02*
X467639820Y-98660000D01*
X467639820Y-98660000D02*
X454439820Y-98660000D01*
X292514900Y-47360000D02*
X305714900Y-47360000D01*
X292514900Y-60560000D02*
X292514900Y-47360000D01*
X305714900Y-47360000D02*
X305714900Y-60560000D01*
X305714900Y-60560000D02*
X292514900Y-60560000D01*
X444914800Y-47360000D02*
X458114800Y-47360000D01*
X444914800Y-60560000D02*
X444914800Y-47360000D01*
X458114800Y-47360000D02*
X458114800Y-60560000D01*
X458114800Y-60560000D02*
X444914800Y-60560000D01*
X316327400Y-104510000D02*
X329527400Y-104510000D01*
X316327400Y-117710000D02*
X316327400Y-104510000D01*
X329527400Y-104510000D02*
X329527400Y-117710000D01*
X329527400Y-117710000D02*
X316327400Y-117710000D01*
X463964780Y-47360000D02*
X477164780Y-47360000D01*
X463964780Y-60560000D02*
X463964780Y-47360000D01*
X477164780Y-47360000D02*
X477164780Y-60560000D01*
X477164780Y-60560000D02*
X463964780Y-60560000D01*
X340140000Y-28310000D02*
X353340000Y-28310000D01*
X340140000Y-41510000D02*
X340140000Y-28310000D01*
X353340000Y-28310000D02*
X353340000Y-41510000D01*
X353340000Y-41510000D02*
X340140000Y-41510000D01*
X149640020Y-28310000D02*
X162840020Y-28310000D01*
X149640020Y-41510000D02*
X149640020Y-28310000D01*
X162840020Y-28310000D02*
X162840020Y-41510000D01*
X162840020Y-41510000D02*
X149640020Y-41510000D01*
X363958474Y-155039948D02*
X377158475Y-155039948D01*
X363958474Y-168239948D02*
X363958474Y-155039948D01*
X377158475Y-155039948D02*
X377158475Y-168239948D01*
X377158475Y-168239948D02*
X363958474Y-168239948D01*
X413964100Y-155040000D02*
X427164100Y-155040000D01*
X413964100Y-168240000D02*
X413964100Y-155040000D01*
X427164100Y-155040000D02*
X427164100Y-168240000D01*
X427164100Y-168240000D02*
X413964100Y-168240000D01*
X463969983Y-155040052D02*
X477169984Y-155040052D01*
X463969983Y-168240052D02*
X463969983Y-155040052D01*
X477169984Y-155040052D02*
X477169984Y-168240052D01*
X477169984Y-168240052D02*
X463969983Y-168240052D01*
X211552450Y-85460000D02*
X224752450Y-85460000D01*
X211552450Y-98660000D02*
X211552450Y-85460000D01*
X224752450Y-85460000D02*
X224752450Y-98660000D01*
X224752450Y-98660000D02*
X211552450Y-98660000D01*
X344902530Y-123560000D02*
X358102530Y-123560000D01*
X344902530Y-136760000D02*
X344902530Y-123560000D01*
X358102530Y-123560000D02*
X358102530Y-136760000D01*
X358102530Y-136760000D02*
X344902530Y-136760000D01*
X192502460Y-85460000D02*
X205702460Y-85460000D01*
X192502460Y-98660000D02*
X192502460Y-85460000D01*
X205702460Y-85460000D02*
X205702460Y-98660000D01*
X205702460Y-98660000D02*
X192502460Y-98660000D01*
X59152500Y-123560000D02*
X72352500Y-123560000D01*
X59152500Y-136760000D02*
X59152500Y-123560000D01*
X72352500Y-123560000D02*
X72352500Y-136760000D01*
X72352500Y-136760000D02*
X59152500Y-136760000D01*
X402052550Y-123560000D02*
X415252550Y-123560000D01*
X402052550Y-136760000D02*
X402052550Y-123560000D01*
X415252550Y-123560000D02*
X415252550Y-136760000D01*
X415252550Y-136760000D02*
X402052550Y-136760000D01*
X383002350Y-66410000D02*
X396202350Y-66410000D01*
X383002350Y-79610000D02*
X383002350Y-66410000D01*
X396202350Y-66410000D02*
X396202350Y-79610000D01*
X396202350Y-79610000D02*
X383002350Y-79610000D01*
X73440000Y-28310000D02*
X86640000Y-28310000D01*
X73440000Y-41510000D02*
X73440000Y-28310000D01*
X86640000Y-28310000D02*
X86640000Y-41510000D01*
X86640000Y-41510000D02*
X73440000Y-41510000D01*
X282989900Y-66410000D02*
X296189900Y-66410000D01*
X282989900Y-79610000D02*
X282989900Y-66410000D01*
X296189900Y-66410000D02*
X296189900Y-79610000D01*
X296189900Y-79610000D02*
X282989900Y-79610000D01*
X202023780Y-123530000D02*
X215223780Y-123560000D01*
X202023780Y-136730000D02*
X202023780Y-123530000D01*
X215223780Y-123530000D02*
X215223780Y-136730000D01*
X215223780Y-136730000D02*
X202023780Y-136730000D01*
X225843780Y-123550000D02*
X239043780Y-123560000D01*
X225843780Y-136750000D02*
X225843780Y-123550000D01*
X239043780Y-123550000D02*
X239043780Y-136750000D01*
X239043780Y-136760000D02*
X225843780Y-136750000D01*
X73440000Y-47360000D02*
X86640000Y-47360000D01*
X73440000Y-60560000D02*
X73440000Y-47360000D01*
X86640000Y-47360000D02*
X86640000Y-60560000D01*
X86640000Y-60560000D02*
X73440000Y-60560000D01*
X318708770Y-123560000D02*
X331908770Y-123560000D01*
X318708770Y-136760000D02*
X318708770Y-123560000D01*
X331908770Y-123560000D02*
X331908770Y-136760000D01*
X331908770Y-136760000D02*
X318708770Y-136760000D01*
X206789950Y-66410000D02*
X219989950Y-66410000D01*
X206789950Y-79610000D02*
X206789950Y-66410000D01*
X219989950Y-66410000D02*
X219989950Y-79610000D01*
X219989950Y-79610000D02*
X206789950Y-79610000D01*
X273464900Y-47360000D02*
X286664900Y-47360000D01*
X273464900Y-60560000D02*
X273464900Y-47360000D01*
X286664900Y-47360000D02*
X286664900Y-60560000D01*
X286664900Y-60560000D02*
X273464900Y-60560000D01*
X244889920Y-66410000D02*
X258089920Y-66410000D01*
X244889920Y-79610000D02*
X244889920Y-66410000D01*
X258089920Y-66410000D02*
X258089920Y-79610000D01*
X258089920Y-79610000D02*
X244889920Y-79610000D01*
X416339840Y-85460000D02*
X429539840Y-85460000D01*
X416339840Y-98660000D02*
X416339840Y-85460000D01*
X429539840Y-85460000D02*
X429539840Y-98660000D01*
X429539840Y-98660000D02*
X416339840Y-98660000D01*
X440152400Y-104510000D02*
X453352400Y-104510000D01*
X440152400Y-117710000D02*
X440152400Y-104510000D01*
X453352400Y-104510000D02*
X453352400Y-117710000D01*
X453352400Y-117710000D02*
X440152400Y-117710000D01*
X411577400Y-104510000D02*
X424777400Y-104510000D01*
X411577400Y-117710000D02*
X411577400Y-104510000D01*
X424777400Y-104510000D02*
X424777400Y-117710000D01*
X424777400Y-117710000D02*
X411577400Y-117710000D01*
X116302490Y-123560000D02*
X129502490Y-123560000D01*
X116302490Y-136760000D02*
X116302490Y-123560000D01*
X129502490Y-123560000D02*
X129502490Y-136760000D01*
X129502490Y-136760000D02*
X116302490Y-136760000D01*
X44865000Y-66410000D02*
X58065000Y-66410000D01*
X44865000Y-79610000D02*
X44865000Y-66410000D01*
X58065000Y-66410000D02*
X58065000Y-79610000D01*
X58065000Y-79610000D02*
X44865000Y-79610000D01*
X235364930Y-47360000D02*
X248564930Y-47360000D01*
X235364930Y-60560000D02*
X235364930Y-47360000D01*
X248564930Y-47360000D02*
X248564930Y-60560000D01*
X248564930Y-60560000D02*
X235364930Y-60560000D01*
X349664860Y-47360000D02*
X362864860Y-47360000D01*
X349664860Y-60560000D02*
X349664860Y-47360000D01*
X362864860Y-47360000D02*
X362864860Y-60560000D01*
X362864860Y-60560000D02*
X349664860Y-60560000D01*
X35340000Y-85460000D02*
X48540000Y-85460000D01*
X35340000Y-98660000D02*
X35340000Y-85460000D01*
X48540000Y-85460000D02*
X48540000Y-98660000D01*
X48540000Y-98660000D02*
X35340000Y-98660000D01*
X182977460Y-104510000D02*
X196177460Y-104510000D01*
X182977460Y-117710000D02*
X182977460Y-104510000D01*
X196177460Y-104510000D02*
X196177460Y-117710000D01*
X196177460Y-117710000D02*
X182977460Y-117710000D01*
X135352500Y-85460000D02*
X148552500Y-85460000D01*
X135352500Y-98660000D02*
X135352500Y-85460000D01*
X148552500Y-85460000D02*
X148552500Y-98660000D01*
X148552500Y-98660000D02*
X135352500Y-98660000D01*
X144877490Y-104510000D02*
X158077490Y-104510000D01*
X144877490Y-117710000D02*
X144877490Y-104510000D01*
X158077490Y-104510000D02*
X158077490Y-117710000D01*
X158077490Y-117710000D02*
X144877490Y-117710000D01*
X268702420Y-85460000D02*
X281902420Y-85460000D01*
X268702420Y-98660000D02*
X268702420Y-85460000D01*
X281902420Y-85460000D02*
X281902420Y-98660000D01*
X281902420Y-98660000D02*
X268702420Y-98660000D01*
X159164980Y-47360000D02*
X172364980Y-47360000D01*
X159164980Y-60560000D02*
X159164980Y-47360000D01*
X172364980Y-47360000D02*
X172364980Y-60560000D01*
X172364980Y-60560000D02*
X159164980Y-60560000D01*
X73440000Y-66410000D02*
X86640000Y-66410000D01*
X73440000Y-79610000D02*
X73440000Y-66410000D01*
X86640000Y-66410000D02*
X86640000Y-79610000D01*
X86640000Y-79610000D02*
X73440000Y-79610000D01*
X25815000Y-104510000D02*
X39015000Y-104510000D01*
X25815000Y-117710000D02*
X25815000Y-104510000D01*
X39015000Y-104510000D02*
X39015000Y-117710000D01*
X39015000Y-117710000D02*
X25815000Y-117710000D01*
X354427370Y-85460000D02*
X367627370Y-85460000D01*
X354427370Y-98660000D02*
X354427370Y-85460000D01*
X367627370Y-85460000D02*
X367627370Y-98660000D01*
X367627370Y-98660000D02*
X354427370Y-98660000D01*
X130590000Y-66410000D02*
X143790000Y-66410000D01*
X130590000Y-79610000D02*
X130590000Y-66410000D01*
X143790000Y-66410000D02*
X143790000Y-79610000D01*
X143790000Y-79610000D02*
X130590000Y-79610000D01*
X254414920Y-47360000D02*
X267614920Y-47360000D01*
X254414920Y-60560000D02*
X254414920Y-47360000D01*
X267614920Y-47360000D02*
X267614920Y-60560000D01*
X267614920Y-60560000D02*
X254414920Y-60560000D01*
X30577500Y-123560000D02*
X43777500Y-123560000D01*
X30577500Y-136760000D02*
X30577500Y-123560000D01*
X43777500Y-123560000D02*
X43777500Y-136760000D01*
X43777500Y-136760000D02*
X30577500Y-136760000D01*
X121065000Y-47360000D02*
X134265000Y-47360000D01*
X121065000Y-60560000D02*
X121065000Y-47360000D01*
X134265000Y-47360000D02*
X134265000Y-60560000D01*
X134265000Y-60560000D02*
X121065000Y-60560000D01*
X378239840Y-47360000D02*
X391439840Y-47360000D01*
X378239840Y-60560000D02*
X378239840Y-47360000D01*
X391439840Y-47360000D02*
X391439840Y-60560000D01*
X391439840Y-60560000D02*
X378239840Y-60560000D01*
X240127430Y-104510000D02*
X253327430Y-104510000D01*
X240127430Y-117710000D02*
X240127430Y-104510000D01*
X253327430Y-104510000D02*
X253327430Y-117710000D01*
X253327430Y-117710000D02*
X240127430Y-117710000D01*
X325852400Y-85460000D02*
X339052400Y-85460000D01*
X325852400Y-98660000D02*
X325852400Y-85460000D01*
X339052400Y-85460000D02*
X339052400Y-98660000D01*
X339052400Y-98660000D02*
X325852400Y-98660000D01*
X444914830Y-66410000D02*
X458114830Y-66410000D01*
X444914830Y-79610000D02*
X444914830Y-66410000D01*
X458114830Y-66410000D02*
X458114830Y-79610000D01*
X458114830Y-79610000D02*
X444914830Y-79610000D01*
X387764900Y-104510000D02*
X400964900Y-104510000D01*
X387764900Y-117710000D02*
X387764900Y-104510000D01*
X400964900Y-104510000D02*
X400964900Y-117710000D01*
X400964900Y-117710000D02*
X387764900Y-117710000D01*
X378239960Y-28310000D02*
X391439960Y-28310000D01*
X378239960Y-41510000D02*
X378239960Y-28310000D01*
X391439960Y-28310000D02*
X391439960Y-41510000D01*
X391439960Y-41510000D02*
X378239960Y-41510000D01*
X416339800Y-47360000D02*
X429539800Y-47360000D01*
X416339800Y-60560000D02*
X416339800Y-47360000D01*
X429539800Y-47360000D02*
X429539800Y-60560000D01*
X429539800Y-60560000D02*
X416339800Y-60560000D01*
X373477540Y-123560000D02*
X386677540Y-123560000D01*
X373477540Y-136760000D02*
X373477540Y-123560000D01*
X386677540Y-123560000D02*
X386677540Y-136760000D01*
X386677540Y-136760000D02*
X373477540Y-136760000D01*
X297277400Y-104510000D02*
X310477400Y-104510000D01*
X297277400Y-117710000D02*
X297277400Y-104510000D01*
X310477400Y-104510000D02*
X310477400Y-117710000D01*
X310477400Y-117710000D02*
X297277400Y-117710000D01*
X25814374Y-155039948D02*
X39014375Y-155039948D01*
X25814374Y-168239948D02*
X25814374Y-155039948D01*
X39014375Y-155039948D02*
X39014375Y-168239948D01*
X39014375Y-168239948D02*
X25814374Y-168239948D01*
X75820000Y-155040000D02*
X89020000Y-155040000D01*
X75820000Y-168240000D02*
X75820000Y-155040000D01*
X89020000Y-155040000D02*
X89020000Y-168240000D01*
X89020000Y-168240000D02*
X75820000Y-168240000D01*
X125825883Y-155040052D02*
X139025884Y-155040052D01*
X125825883Y-168240052D02*
X125825883Y-155040052D01*
X139025884Y-155040052D02*
X139025884Y-168240052D01*
X139025884Y-168240052D02*
X125825883Y-168240052D01*
X302040000Y-28310000D02*
X315240000Y-28310000D01*
X302040000Y-41510000D02*
X302040000Y-28310000D01*
X315240000Y-28310000D02*
X315240000Y-41510000D01*
X315240000Y-41510000D02*
X302040000Y-41510000D01*
X340139860Y-66410000D02*
X353339860Y-66410000D01*
X340139860Y-79610000D02*
X340139860Y-66410000D01*
X353339860Y-66410000D02*
X353339860Y-79610000D01*
X353339860Y-79610000D02*
X340139860Y-79610000D01*
X35340000Y-28310000D02*
X48540000Y-28310000D01*
X35340000Y-41510000D02*
X35340000Y-28310000D01*
X48540000Y-28310000D02*
X48540000Y-41510000D01*
X48540000Y-41510000D02*
X35340000Y-41510000D01*
X144877500Y-123560000D02*
X158077500Y-123560000D01*
X144877500Y-136760000D02*
X144877500Y-123560000D01*
X158077500Y-123560000D02*
X158077500Y-136760000D01*
X158077500Y-136760000D02*
X144877500Y-136760000D01*
X87727495Y-123560000D02*
X100927495Y-123560000D01*
X87727495Y-136760000D02*
X87727495Y-123560000D01*
X100927495Y-123560000D02*
X100927495Y-136760000D01*
X100927495Y-136760000D02*
X87727495Y-136760000D01*
X173452470Y-85460000D02*
X186652470Y-85460000D01*
X173452470Y-98660000D02*
X173452470Y-85460000D01*
X186652470Y-85460000D02*
X186652470Y-98660000D01*
X186652470Y-98660000D02*
X173452470Y-98660000D01*
X187740020Y-28310000D02*
X200940020Y-28310000D01*
X187740020Y-41510000D02*
X187740020Y-28310000D01*
X200940020Y-28310000D02*
X200940020Y-41510000D01*
X200940020Y-41510000D02*
X187740020Y-41510000D01*
X463964900Y-104510000D02*
X477164900Y-104510000D01*
X463964900Y-117710000D02*
X463964900Y-104510000D01*
X477164900Y-104510000D02*
X477164900Y-117710000D01*
X477164900Y-117710000D02*
X463964900Y-117710000D01*
X78202490Y-104510000D02*
X91402490Y-104510000D01*
X78202490Y-117710000D02*
X78202490Y-104510000D01*
X91402490Y-104510000D02*
X91402490Y-117710000D01*
X91402490Y-117710000D02*
X78202490Y-117710000D01*
X330614870Y-47360000D02*
X343814870Y-47360000D01*
X330614870Y-60560000D02*
X330614870Y-47360000D01*
X343814870Y-47360000D02*
X343814870Y-60560000D01*
X343814870Y-60560000D02*
X330614870Y-60560000D01*
X149639990Y-66410000D02*
X162839990Y-66410000D01*
X149639990Y-79610000D02*
X149639990Y-66410000D01*
X162839990Y-66410000D02*
X162839990Y-79610000D01*
X162839990Y-79610000D02*
X149639990Y-79610000D01*
X385383600Y-85460000D02*
X398583600Y-85460000D01*
X385383600Y-98660000D02*
X385383600Y-85460000D01*
X398583600Y-85460000D02*
X398583600Y-98660000D01*
X398583600Y-98660000D02*
X385383600Y-98660000D01*
X109158750Y-85460000D02*
X122358750Y-85460000D01*
X109158750Y-98660000D02*
X109158750Y-85460000D01*
X122358750Y-85460000D02*
X122358750Y-98660000D01*
X122358750Y-98660000D02*
X109158750Y-98660000D01*
X25815000Y-66410000D02*
X39015000Y-66410000D01*
X25815000Y-79610000D02*
X25815000Y-66410000D01*
X39015000Y-66410000D02*
X39015000Y-79610000D01*
X39015000Y-79610000D02*
X25815000Y-79610000D01*
X173452520Y-123560000D02*
X186652520Y-123560000D01*
X173452520Y-136760000D02*
X173452520Y-123560000D01*
X186652520Y-123560000D02*
X186652520Y-136760000D01*
X186652520Y-136760000D02*
X173452520Y-136760000D01*
X102011240Y-104510000D02*
X115211240Y-104510000D01*
X102011240Y-117710000D02*
X102011240Y-104510000D01*
X115211240Y-104510000D02*
X115211240Y-117710000D01*
X115211240Y-117710000D02*
X102011240Y-117710000D01*
X125801240Y-104510000D02*
X139001240Y-104510000D01*
X125801240Y-117710000D02*
X125801240Y-104510000D01*
X139001240Y-104510000D02*
X139001240Y-117710000D01*
X139001240Y-117710000D02*
X125801240Y-117710000D01*
X302039900Y-66410000D02*
X315239900Y-66410000D01*
X302039900Y-79610000D02*
X302039900Y-66410000D01*
X315239900Y-66410000D02*
X315239900Y-79610000D01*
X315239900Y-79610000D02*
X302039900Y-79610000D01*
X49627496Y-104510000D02*
X62827496Y-104510000D01*
X49627496Y-117710000D02*
X49627496Y-104510000D01*
X62827496Y-104510000D02*
X62827496Y-117710000D01*
X62827496Y-117710000D02*
X49627496Y-117710000D01*
X225840030Y-28310000D02*
X239040030Y-28310000D01*
X225840030Y-41510000D02*
X225840030Y-28310000D01*
X239040030Y-28310000D02*
X239040030Y-41510000D01*
X239040030Y-41510000D02*
X225840030Y-41510000D01*
X163927480Y-104510000D02*
X177127480Y-104510000D01*
X163927480Y-117710000D02*
X163927480Y-104510000D01*
X177127480Y-104510000D02*
X177127480Y-117710000D01*
X177127480Y-117710000D02*
X163927480Y-117710000D01*
X73440000Y-85460000D02*
X86640000Y-85460000D01*
X73440000Y-98660000D02*
X73440000Y-85460000D01*
X86640000Y-85460000D02*
X86640000Y-98660000D01*
X86640000Y-98660000D02*
X73440000Y-98660000D01*
X187739960Y-66410000D02*
X200939960Y-66410000D01*
X187739960Y-79610000D02*
X187739960Y-66410000D01*
X200939960Y-66410000D02*
X200939960Y-79610000D01*
X200939960Y-79610000D02*
X187739960Y-79610000D01*
X306802400Y-85460000D02*
X320002400Y-85460000D01*
X306802400Y-98660000D02*
X306802400Y-85460000D01*
X320002400Y-85460000D02*
X320002400Y-98660000D01*
X320002400Y-98660000D02*
X306802400Y-98660000D01*
X230602430Y-85460000D02*
X243802430Y-85460000D01*
X230602430Y-98660000D02*
X230602430Y-85460000D01*
X243802430Y-85460000D02*
X243802430Y-98660000D01*
X243802430Y-98660000D02*
X230602430Y-98660000D01*
D11*
X15299980Y-16280000D02*
X489240000Y-16280000D01*
X489240000Y-181230000D01*
X15299980Y-181230000D01*
X15299980Y-16280000D01*
M02*
