%TF.GenerationSoftware,KiCad,Pcbnew,8.0.1-8.0.1-1~ubuntu22.04.1*%
%TF.CreationDate,2024-03-20T17:05:29+03:00*%
%TF.ProjectId,SpaceCadet,53706163-6543-4616-9465-742e6b696361,rev?*%
%TF.SameCoordinates,Original*%
%TF.FileFunction,Other,User*%
%FSLAX46Y46*%
G04 Gerber Fmt 4.6, Leading zero omitted, Abs format (unit mm)*
G04 Created by KiCad (PCBNEW 8.0.1-8.0.1-1~ubuntu22.04.1) date 2024-03-20 17:05:29*
%MOMM*%
%LPD*%
G01*
G04 APERTURE LIST*
%ADD10C,0.050000*%
%TA.AperFunction,Profile*%
%ADD11C,0.100000*%
%TD*%
G04 APERTURE END LIST*
D10*
X168369970Y-78050000D02*
X168369970Y-64850000D01*
X181569970Y-78050000D02*
X168369970Y-78050000D01*
X181569970Y-64850000D02*
X181569970Y-78050000D01*
X168369970Y-64850000D02*
X181569970Y-64850000D01*
X387444880Y-116150000D02*
X387444880Y-102950000D01*
X400644880Y-116150000D02*
X387444880Y-116150000D01*
X400644880Y-102950000D02*
X400644880Y-116150000D01*
X387444880Y-102950000D02*
X400644880Y-102950000D01*
X382682370Y-78050000D02*
X382682370Y-64850000D01*
X395882370Y-78050000D02*
X382682370Y-78050000D01*
X395882370Y-64850000D02*
X395882370Y-78050000D01*
X382682370Y-64850000D02*
X395882370Y-64850000D01*
X106457506Y-78050000D02*
X106457506Y-64850000D01*
X119657506Y-78050000D02*
X106457506Y-78050000D01*
X119657506Y-64850000D02*
X119657506Y-78050000D01*
X106457506Y-64850000D02*
X119657506Y-64850000D01*
X349344870Y-59000000D02*
X349344870Y-45800000D01*
X362544870Y-59000000D02*
X349344870Y-59000000D01*
X362544870Y-45800000D02*
X362544870Y-59000000D01*
X349344870Y-45800000D02*
X362544870Y-45800000D01*
X277907400Y-116150000D02*
X277907400Y-102950000D01*
X291107400Y-116150000D02*
X277907400Y-116150000D01*
X291107400Y-102950000D02*
X291107400Y-116150000D01*
X277907400Y-102950000D02*
X291107400Y-102950000D01*
X273144920Y-59000000D02*
X273144920Y-45800000D01*
X286344920Y-59000000D02*
X273144920Y-59000000D01*
X286344920Y-45800000D02*
X286344920Y-59000000D01*
X273144920Y-45800000D02*
X286344920Y-45800000D01*
X292194900Y-59000000D02*
X292194900Y-45800000D01*
X305394900Y-59000000D02*
X292194900Y-59000000D01*
X305394900Y-45800000D02*
X305394900Y-59000000D01*
X292194900Y-45800000D02*
X305394900Y-45800000D01*
X49307497Y-116150000D02*
X49307497Y-102950000D01*
X62507497Y-116150000D02*
X49307497Y-116150000D01*
X62507497Y-102950000D02*
X62507497Y-116150000D01*
X49307497Y-102950000D02*
X62507497Y-102950000D01*
X444594800Y-59000000D02*
X444594800Y-45800000D01*
X457794800Y-59000000D02*
X444594800Y-59000000D01*
X457794800Y-45800000D02*
X457794800Y-59000000D01*
X444594800Y-45800000D02*
X457794800Y-45800000D01*
X387444850Y-59000000D02*
X387444850Y-45800000D01*
X400644850Y-59000000D02*
X387444850Y-59000000D01*
X400644850Y-45800000D02*
X400644850Y-59000000D01*
X387444850Y-45800000D02*
X400644850Y-45800000D01*
X258857420Y-116150000D02*
X258857420Y-102950000D01*
X272057420Y-116150000D02*
X258857420Y-116150000D01*
X272057420Y-102950000D02*
X272057420Y-116150000D01*
X258857420Y-102950000D02*
X272057420Y-102950000D01*
X58832500Y-135200000D02*
X58832500Y-122000000D01*
X72032500Y-135200000D02*
X58832500Y-135200000D01*
X72032500Y-122000000D02*
X72032500Y-135200000D01*
X58832500Y-122000000D02*
X72032500Y-122000000D01*
X135032500Y-97100000D02*
X135032500Y-83900000D01*
X148232500Y-97100000D02*
X135032500Y-97100000D01*
X148232500Y-83900000D02*
X148232500Y-97100000D01*
X135032500Y-83900000D02*
X148232500Y-83900000D01*
X139794990Y-59000000D02*
X139794990Y-45800000D01*
X152994990Y-59000000D02*
X139794990Y-59000000D01*
X152994990Y-45800000D02*
X152994990Y-59000000D01*
X139794990Y-45800000D02*
X152994990Y-45800000D01*
X130270000Y-78050000D02*
X130270000Y-64850000D01*
X143470000Y-78050000D02*
X130270000Y-78050000D01*
X143470000Y-64850000D02*
X143470000Y-78050000D01*
X130270000Y-64850000D02*
X143470000Y-64850000D01*
X215994940Y-59000000D02*
X215994940Y-45800000D01*
X229194940Y-59000000D02*
X215994940Y-59000000D01*
X229194940Y-45800000D02*
X229194940Y-59000000D01*
X215994940Y-45800000D02*
X229194940Y-45800000D01*
X454119900Y-39950000D02*
X454119900Y-26750000D01*
X467319900Y-39950000D02*
X454119900Y-39950000D01*
X467319900Y-26750000D02*
X467319900Y-39950000D01*
X454119900Y-26750000D02*
X467319900Y-26750000D01*
X318388760Y-135200000D02*
X318388760Y-122000000D01*
X331588760Y-135200000D02*
X318388760Y-135200000D01*
X331588760Y-122000000D02*
X331588760Y-135200000D01*
X318388760Y-122000000D02*
X331588760Y-122000000D01*
X358869870Y-78050000D02*
X358869870Y-64850000D01*
X372069870Y-78050000D02*
X358869870Y-78050000D01*
X372069870Y-64850000D02*
X372069870Y-78050000D01*
X358869870Y-64850000D02*
X372069870Y-64850000D01*
X154082480Y-97100000D02*
X154082480Y-83900000D01*
X167282480Y-97100000D02*
X154082480Y-97100000D01*
X167282480Y-83900000D02*
X167282480Y-97100000D01*
X154082480Y-83900000D02*
X167282480Y-83900000D01*
X149319990Y-78050000D02*
X149319990Y-64850000D01*
X162519990Y-78050000D02*
X149319990Y-78050000D01*
X162519990Y-64850000D02*
X162519990Y-78050000D01*
X149319990Y-64850000D02*
X162519990Y-64850000D01*
X144557500Y-135200000D02*
X144557500Y-122000000D01*
X157757500Y-135200000D02*
X144557500Y-135200000D01*
X157757500Y-122000000D02*
X157757500Y-135200000D01*
X144557500Y-122000000D02*
X157757500Y-122000000D01*
X120745000Y-59000000D02*
X120745000Y-45800000D01*
X133945000Y-59000000D02*
X120745000Y-59000000D01*
X133945000Y-45800000D02*
X133945000Y-59000000D01*
X120745000Y-45800000D02*
X133945000Y-45800000D01*
X416019830Y-59000000D02*
X416019830Y-45800000D01*
X429219830Y-59000000D02*
X416019830Y-59000000D01*
X429219830Y-45800000D02*
X429219830Y-59000000D01*
X416019830Y-45800000D02*
X429219830Y-45800000D01*
X30257500Y-135200000D02*
X30257500Y-122000000D01*
X43457500Y-135200000D02*
X30257500Y-135200000D01*
X43457500Y-122000000D02*
X43457500Y-135200000D01*
X30257500Y-122000000D02*
X43457500Y-122000000D01*
X320769900Y-78050000D02*
X320769900Y-64850000D01*
X333969900Y-78050000D02*
X320769900Y-78050000D01*
X333969900Y-64850000D02*
X333969900Y-78050000D01*
X320769900Y-64850000D02*
X333969900Y-64850000D01*
X177894970Y-59000000D02*
X177894970Y-45800000D01*
X191094970Y-59000000D02*
X177894970Y-59000000D01*
X191094970Y-45800000D02*
X191094970Y-59000000D01*
X177894970Y-45800000D02*
X191094970Y-45800000D01*
X263619930Y-78050000D02*
X263619930Y-64850000D01*
X276819930Y-78050000D02*
X263619930Y-78050000D01*
X276819930Y-64850000D02*
X276819930Y-78050000D01*
X263619930Y-64850000D02*
X276819930Y-64850000D01*
X325532370Y-97100000D02*
X325532370Y-83900000D01*
X338732370Y-97100000D02*
X325532370Y-97100000D01*
X338732370Y-83900000D02*
X338732370Y-97100000D01*
X325532370Y-83900000D02*
X338732370Y-83900000D01*
X77882490Y-116150000D02*
X77882490Y-102950000D01*
X91082490Y-116150000D02*
X77882490Y-116150000D01*
X91082490Y-102950000D02*
X91082490Y-116150000D01*
X77882490Y-102950000D02*
X91082490Y-102950000D01*
X287432400Y-97100000D02*
X287432400Y-83900000D01*
X300632400Y-97100000D02*
X287432400Y-97100000D01*
X300632400Y-83900000D02*
X300632400Y-97100000D01*
X287432400Y-83900000D02*
X300632400Y-83900000D01*
X73120004Y-97100000D02*
X73120004Y-83900000D01*
X86320004Y-97100000D02*
X73120004Y-97100000D01*
X86320004Y-83900000D02*
X86320004Y-97100000D01*
X73120004Y-83900000D02*
X86320004Y-83900000D01*
X35020000Y-39950000D02*
X35020000Y-26750000D01*
X48220000Y-39950000D02*
X35020000Y-39950000D01*
X48220000Y-26750000D02*
X48220000Y-39950000D01*
X35020000Y-26750000D02*
X48220000Y-26750000D01*
X463644800Y-59000000D02*
X463644800Y-45800000D01*
X476844800Y-59000000D02*
X463644800Y-59000000D01*
X476844800Y-45800000D02*
X476844800Y-59000000D01*
X463644800Y-45800000D02*
X476844800Y-45800000D01*
X201707450Y-116150000D02*
X201707450Y-102950000D01*
X214907450Y-116150000D02*
X201707450Y-116150000D01*
X214907450Y-102950000D02*
X214907450Y-116150000D01*
X201707450Y-102950000D02*
X214907450Y-102950000D01*
X196944960Y-59000000D02*
X196944960Y-45800000D01*
X210144960Y-59000000D02*
X196944960Y-59000000D01*
X210144960Y-45800000D02*
X210144960Y-59000000D01*
X196944960Y-45800000D02*
X210144960Y-45800000D01*
X225519940Y-78050000D02*
X225519940Y-64850000D01*
X238719940Y-78050000D02*
X225519940Y-78050000D01*
X238719940Y-64850000D02*
X238719940Y-78050000D01*
X225519940Y-64850000D02*
X238719940Y-64850000D01*
X244569920Y-78050000D02*
X244569920Y-64850000D01*
X257769920Y-78050000D02*
X244569920Y-78050000D01*
X257769920Y-64850000D02*
X257769920Y-78050000D01*
X244569920Y-64850000D02*
X257769920Y-64850000D01*
X108838754Y-97100000D02*
X108838754Y-83900000D01*
X122038754Y-97100000D02*
X108838754Y-97100000D01*
X122038754Y-83900000D02*
X122038754Y-97100000D01*
X108838754Y-83900000D02*
X122038754Y-83900000D01*
X416019920Y-39950000D02*
X416019920Y-26750000D01*
X429219920Y-39950000D02*
X416019920Y-39950000D01*
X429219920Y-26750000D02*
X429219920Y-39950000D01*
X416019920Y-26750000D02*
X429219920Y-26750000D01*
X294576260Y-135200000D02*
X294576260Y-122000000D01*
X307776260Y-135200000D02*
X294576260Y-135200000D01*
X307776260Y-122000000D02*
X307776260Y-135200000D01*
X294576260Y-122000000D02*
X307776260Y-122000000D01*
X316007380Y-116150000D02*
X316007380Y-102950000D01*
X329207380Y-116150000D02*
X316007380Y-116150000D01*
X329207380Y-102950000D02*
X329207380Y-116150000D01*
X316007380Y-102950000D02*
X329207380Y-102950000D01*
X339819880Y-78050000D02*
X339819880Y-64850000D01*
X353019880Y-78050000D02*
X339819880Y-78050000D01*
X353019880Y-64850000D02*
X353019880Y-78050000D01*
X339819880Y-64850000D02*
X353019880Y-64850000D01*
X235044930Y-59000000D02*
X235044930Y-45800000D01*
X248244930Y-59000000D02*
X235044930Y-59000000D01*
X248244930Y-45800000D02*
X248244930Y-59000000D01*
X235044930Y-45800000D02*
X248244930Y-45800000D01*
X163607480Y-116150000D02*
X163607480Y-102950000D01*
X176807480Y-116150000D02*
X163607480Y-116150000D01*
X176807480Y-102950000D02*
X176807480Y-116150000D01*
X163607480Y-102950000D02*
X176807480Y-102950000D01*
X416019860Y-78050000D02*
X416019860Y-64850000D01*
X429219860Y-78050000D02*
X416019860Y-78050000D01*
X429219860Y-64850000D02*
X429219860Y-78050000D01*
X416019860Y-64850000D02*
X429219860Y-64850000D01*
X263620020Y-39950000D02*
X263620020Y-26750000D01*
X276820020Y-39950000D02*
X263620020Y-39950000D01*
X276820020Y-26750000D02*
X276820020Y-39950000D01*
X263620020Y-26750000D02*
X276820020Y-26750000D01*
X182657460Y-116150000D02*
X182657460Y-102950000D01*
X195857460Y-116150000D02*
X182657460Y-116150000D01*
X195857460Y-102950000D02*
X195857460Y-116150000D01*
X182657460Y-102950000D02*
X195857460Y-102950000D01*
X44545000Y-78050000D02*
X44545000Y-64850000D01*
X57745000Y-78050000D02*
X44545000Y-78050000D01*
X57745000Y-64850000D02*
X57745000Y-78050000D01*
X44545000Y-64850000D02*
X57745000Y-64850000D01*
X249332420Y-97100000D02*
X249332420Y-83900000D01*
X262532420Y-97100000D02*
X249332420Y-97100000D01*
X262532420Y-83900000D02*
X262532420Y-97100000D01*
X249332420Y-83900000D02*
X262532420Y-83900000D01*
X25494375Y-153479948D02*
X38694375Y-153479948D01*
X25494375Y-166679948D02*
X25494375Y-153479948D01*
X38694375Y-153479948D02*
X38694375Y-166679948D01*
X38694375Y-166679948D02*
X25494375Y-166679948D01*
X75500000Y-153480000D02*
X88700000Y-153480000D01*
X75500000Y-166680000D02*
X75500000Y-153480000D01*
X88700000Y-153480000D02*
X88700000Y-166680000D01*
X88700000Y-166680000D02*
X75500000Y-166680000D01*
X125505883Y-153480052D02*
X138705883Y-153480052D01*
X125505883Y-166680052D02*
X125505883Y-153480052D01*
X138705883Y-153480052D02*
X138705883Y-166680052D01*
X138705883Y-166680052D02*
X125505883Y-166680052D01*
X187419960Y-78050000D02*
X187419960Y-64850000D01*
X200619960Y-78050000D02*
X187419960Y-78050000D01*
X200619960Y-64850000D02*
X200619960Y-78050000D01*
X187419960Y-64850000D02*
X200619960Y-64850000D01*
X306482400Y-97100000D02*
X306482400Y-83900000D01*
X319682400Y-97100000D02*
X306482400Y-97100000D01*
X319682400Y-83900000D02*
X319682400Y-97100000D01*
X306482400Y-83900000D02*
X319682400Y-83900000D01*
X463644830Y-78050000D02*
X463644830Y-64850000D01*
X476844830Y-78050000D02*
X463644830Y-78050000D01*
X476844830Y-64850000D02*
X476844830Y-78050000D01*
X463644830Y-64850000D02*
X476844830Y-64850000D01*
X73120004Y-59000000D02*
X73120004Y-45800000D01*
X86320004Y-59000000D02*
X73120004Y-59000000D01*
X86320004Y-45800000D02*
X86320004Y-59000000D01*
X73120004Y-45800000D02*
X86320004Y-45800000D01*
X149320020Y-39950000D02*
X149320020Y-26750000D01*
X162520020Y-39950000D02*
X149320020Y-39950000D01*
X162520020Y-26750000D02*
X162520020Y-39950000D01*
X149320020Y-26750000D02*
X162520020Y-26750000D01*
X101691240Y-102950000D02*
X114891240Y-102950000D01*
X101691240Y-116150000D02*
X101691240Y-102950000D01*
X114891240Y-102950000D02*
X114891240Y-116150000D01*
X114891240Y-116150000D02*
X101691240Y-116150000D01*
X125481240Y-102950000D02*
X138681240Y-102950000D01*
X125481240Y-116150000D02*
X125481240Y-102950000D01*
X138681240Y-102950000D02*
X138681240Y-116150000D01*
X138681240Y-116150000D02*
X125481240Y-116150000D01*
X87407495Y-135200000D02*
X87407495Y-122000000D01*
X100607495Y-135200000D02*
X87407495Y-135200000D01*
X100607495Y-122000000D02*
X100607495Y-135200000D01*
X87407495Y-122000000D02*
X100607495Y-122000000D01*
X361384375Y-153479948D02*
X374584375Y-153479948D01*
X361384375Y-166679948D02*
X361384375Y-153479948D01*
X374584375Y-153479948D02*
X374584375Y-166679948D01*
X374584375Y-166679948D02*
X361384375Y-166679948D01*
X411390000Y-153480000D02*
X424590000Y-153480000D01*
X411390000Y-166680000D02*
X411390000Y-153480000D01*
X424590000Y-153480000D02*
X424590000Y-166680000D01*
X424590000Y-166680000D02*
X411390000Y-166680000D01*
X461395883Y-153480052D02*
X474595883Y-153480052D01*
X461395883Y-166680052D02*
X461395883Y-153480052D01*
X474595883Y-153480052D02*
X474595883Y-166680052D01*
X474595883Y-166680052D02*
X461395883Y-166680052D01*
X401734980Y-135200000D02*
X401734980Y-122000000D01*
X414934980Y-135200000D02*
X401734980Y-135200000D01*
X414934980Y-122000000D02*
X414934980Y-135200000D01*
X401734980Y-122000000D02*
X414934980Y-122000000D01*
X339819970Y-39950000D02*
X339819970Y-26750000D01*
X353019970Y-39950000D02*
X339819970Y-39950000D01*
X353019970Y-26750000D02*
X353019970Y-39950000D01*
X339819970Y-26750000D02*
X353019970Y-26750000D01*
X344584950Y-135200000D02*
X344584950Y-122000000D01*
X357784950Y-135200000D02*
X344584950Y-135200000D01*
X357784950Y-122000000D02*
X357784950Y-135200000D01*
X344584950Y-122000000D02*
X357784950Y-122000000D01*
X230282430Y-97100000D02*
X230282430Y-83900000D01*
X243482430Y-97100000D02*
X230282430Y-97100000D01*
X243482430Y-83900000D02*
X243482430Y-97100000D01*
X230282430Y-83900000D02*
X243482430Y-83900000D01*
X354107350Y-97100000D02*
X354107350Y-83900000D01*
X367307350Y-97100000D02*
X354107350Y-97100000D01*
X367307350Y-83900000D02*
X367307350Y-97100000D01*
X354107350Y-83900000D02*
X367307350Y-83900000D01*
X377919950Y-39950000D02*
X377919950Y-26750000D01*
X391119950Y-39950000D02*
X377919950Y-39950000D01*
X391119950Y-26750000D02*
X391119950Y-39950000D01*
X377919950Y-26750000D02*
X391119950Y-26750000D01*
X35020000Y-97100000D02*
X35020000Y-83900000D01*
X48220000Y-97100000D02*
X35020000Y-97100000D01*
X48220000Y-83900000D02*
X48220000Y-97100000D01*
X35020000Y-83900000D02*
X48220000Y-83900000D01*
X192182460Y-97100000D02*
X192182460Y-83900000D01*
X205382460Y-97100000D02*
X192182460Y-97100000D01*
X205382460Y-83900000D02*
X205382460Y-97100000D01*
X192182460Y-83900000D02*
X205382460Y-83900000D01*
X249328760Y-122000000D02*
X262528760Y-122000000D01*
X249328760Y-135200000D02*
X249328760Y-122000000D01*
X262528760Y-122000000D02*
X262528760Y-135200000D01*
X262528760Y-135200000D02*
X249328760Y-135200000D01*
X273118760Y-122000000D02*
X286318760Y-122000000D01*
X273118760Y-135200000D02*
X273118760Y-122000000D01*
X286318760Y-122000000D02*
X286318760Y-135200000D01*
X286318760Y-135200000D02*
X273118760Y-135200000D01*
X411257380Y-116150000D02*
X411257380Y-102950000D01*
X424457380Y-116150000D02*
X411257380Y-116150000D01*
X424457380Y-102950000D02*
X424457380Y-116150000D01*
X411257380Y-102950000D02*
X424457380Y-102950000D01*
X330294900Y-59000000D02*
X330294900Y-45800000D01*
X343494900Y-59000000D02*
X330294900Y-59000000D01*
X343494900Y-45800000D02*
X343494900Y-59000000D01*
X330294900Y-45800000D02*
X343494900Y-45800000D01*
X187420020Y-39950000D02*
X187420020Y-26750000D01*
X200620020Y-39950000D02*
X187420020Y-39950000D01*
X200620020Y-26750000D02*
X200620020Y-39950000D01*
X187420020Y-26750000D02*
X200620020Y-26750000D01*
X282669920Y-78050000D02*
X282669920Y-64850000D01*
X295869920Y-78050000D02*
X282669920Y-78050000D01*
X295869920Y-64850000D02*
X295869920Y-78050000D01*
X282669920Y-64850000D02*
X295869920Y-64850000D01*
X206469950Y-78050000D02*
X206469950Y-64850000D01*
X219669950Y-78050000D02*
X206469950Y-78050000D01*
X219669950Y-64850000D02*
X219669950Y-78050000D01*
X206469950Y-64850000D02*
X219669950Y-64850000D01*
X25495000Y-59000000D02*
X25495000Y-45800000D01*
X38695000Y-59000000D02*
X25495000Y-59000000D01*
X38695000Y-45800000D02*
X38695000Y-59000000D01*
X25495000Y-45800000D02*
X38695000Y-45800000D01*
X25495000Y-116150000D02*
X25495000Y-102950000D01*
X38695000Y-116150000D02*
X25495000Y-116150000D01*
X38695000Y-102950000D02*
X38695000Y-116150000D01*
X25495000Y-102950000D02*
X38695000Y-102950000D01*
X158844980Y-59000000D02*
X158844980Y-45800000D01*
X172044980Y-59000000D02*
X158844980Y-59000000D01*
X172044980Y-45800000D02*
X172044980Y-59000000D01*
X158844980Y-45800000D02*
X172044980Y-45800000D01*
X458885000Y-135200000D02*
X458885000Y-122000000D01*
X472085000Y-135200000D02*
X458885000Y-135200000D01*
X472085000Y-122000000D02*
X472085000Y-135200000D01*
X458885000Y-122000000D02*
X472085000Y-122000000D01*
X73120004Y-78050000D02*
X73120004Y-64850000D01*
X86320004Y-78050000D02*
X73120004Y-78050000D01*
X86320004Y-64850000D02*
X86320004Y-78050000D01*
X73120004Y-64850000D02*
X86320004Y-64850000D01*
X201703760Y-121970000D02*
X214903760Y-122000000D01*
X201703760Y-135170000D02*
X201703760Y-121970000D01*
X214903760Y-121970000D02*
X214903760Y-135170000D01*
X214903760Y-135170000D02*
X201703760Y-135170000D01*
X225523760Y-121990000D02*
X238723760Y-122000000D01*
X225523760Y-135190000D02*
X225523760Y-121990000D01*
X238723760Y-121990000D02*
X238723760Y-135190000D01*
X238723760Y-135200000D02*
X225523760Y-135190000D01*
X301720000Y-39950000D02*
X301720000Y-26750000D01*
X314920000Y-39950000D02*
X301720000Y-39950000D01*
X314920000Y-26750000D02*
X314920000Y-39950000D01*
X301720000Y-26750000D02*
X314920000Y-26750000D01*
X220757440Y-116150000D02*
X220757440Y-102950000D01*
X233957440Y-116150000D02*
X220757440Y-116150000D01*
X233957440Y-102950000D02*
X233957440Y-116150000D01*
X220757440Y-102950000D02*
X233957440Y-102950000D01*
X211232450Y-97100000D02*
X211232450Y-83900000D01*
X224432450Y-97100000D02*
X211232450Y-97100000D01*
X224432450Y-83900000D02*
X224432450Y-97100000D01*
X211232450Y-83900000D02*
X224432450Y-83900000D01*
X385063600Y-97100000D02*
X385063600Y-83900000D01*
X398263600Y-97100000D02*
X385063600Y-97100000D01*
X398263600Y-83900000D02*
X398263600Y-97100000D01*
X385063600Y-83900000D02*
X398263600Y-83900000D01*
X25495000Y-78050000D02*
X25495000Y-64850000D01*
X38695000Y-78050000D02*
X25495000Y-78050000D01*
X38695000Y-64850000D02*
X38695000Y-78050000D01*
X25495000Y-64850000D02*
X38695000Y-64850000D01*
X416019830Y-97100000D02*
X416019830Y-83900000D01*
X429219830Y-97100000D02*
X416019830Y-97100000D01*
X429219830Y-83900000D02*
X429219830Y-97100000D01*
X416019830Y-83900000D02*
X429219830Y-83900000D01*
X225520030Y-39950000D02*
X225520030Y-26750000D01*
X238720030Y-39950000D02*
X225520030Y-39950000D01*
X238720030Y-26750000D02*
X238720030Y-39950000D01*
X225520030Y-26750000D02*
X238720030Y-26750000D01*
X73120004Y-39950000D02*
X73120004Y-26750000D01*
X86320004Y-39950000D02*
X73120004Y-39950000D01*
X86320004Y-26750000D02*
X86320004Y-39950000D01*
X73120004Y-26750000D02*
X86320004Y-26750000D01*
X296957400Y-116150000D02*
X296957400Y-102950000D01*
X310157400Y-116150000D02*
X296957400Y-116150000D01*
X310157400Y-102950000D02*
X310157400Y-116150000D01*
X296957400Y-102950000D02*
X310157400Y-102950000D01*
X368394860Y-59000000D02*
X368394860Y-45800000D01*
X381594860Y-59000000D02*
X368394860Y-59000000D01*
X381594860Y-45800000D02*
X381594860Y-59000000D01*
X368394860Y-45800000D02*
X381594860Y-45800000D01*
X339816130Y-102920000D02*
X353016130Y-102950000D01*
X339816130Y-116120000D02*
X339816130Y-102920000D01*
X353016130Y-102920000D02*
X353016130Y-116120000D01*
X353016130Y-116120000D02*
X339816130Y-116120000D01*
X363636130Y-102940000D02*
X376836130Y-102950000D01*
X363636130Y-116140000D02*
X363636130Y-102940000D01*
X376836130Y-102940000D02*
X376836130Y-116140000D01*
X376836130Y-116150000D02*
X363636130Y-116140000D01*
X173132470Y-97100000D02*
X173132470Y-83900000D01*
X186332470Y-97100000D02*
X173132470Y-97100000D01*
X186332470Y-83900000D02*
X186332470Y-97100000D01*
X173132470Y-83900000D02*
X186332470Y-83900000D01*
X268382400Y-97100000D02*
X268382400Y-83900000D01*
X281582400Y-97100000D02*
X268382400Y-97100000D01*
X281582400Y-83900000D02*
X281582400Y-97100000D01*
X268382400Y-83900000D02*
X281582400Y-83900000D01*
X144557490Y-116150000D02*
X144557490Y-102950000D01*
X157757490Y-116150000D02*
X144557490Y-116150000D01*
X157757490Y-102950000D02*
X157757490Y-116150000D01*
X144557490Y-102950000D02*
X157757490Y-102950000D01*
X439832400Y-116150000D02*
X439832400Y-102950000D01*
X453032400Y-116150000D02*
X439832400Y-116150000D01*
X453032400Y-102950000D02*
X453032400Y-116150000D01*
X439832400Y-102950000D02*
X453032400Y-102950000D01*
X444594840Y-78050000D02*
X444594840Y-64850000D01*
X457794840Y-78050000D02*
X444594840Y-78050000D01*
X457794840Y-64850000D02*
X457794840Y-78050000D01*
X444594840Y-64850000D02*
X457794840Y-64850000D01*
X101695010Y-59000000D02*
X101695010Y-45800000D01*
X114895010Y-59000000D02*
X101695010Y-59000000D01*
X114895010Y-45800000D02*
X114895010Y-59000000D01*
X101695010Y-45800000D02*
X114895010Y-45800000D01*
X373159970Y-135200000D02*
X373159970Y-122000000D01*
X386359970Y-135200000D02*
X373159970Y-135200000D01*
X386359970Y-122000000D02*
X386359970Y-135200000D01*
X373159970Y-122000000D02*
X386359970Y-122000000D01*
X44545000Y-59000000D02*
X44545000Y-45800000D01*
X57745000Y-59000000D02*
X44545000Y-59000000D01*
X57745000Y-45800000D02*
X57745000Y-59000000D01*
X44545000Y-45800000D02*
X57745000Y-45800000D01*
X173132520Y-135200000D02*
X173132520Y-122000000D01*
X186332520Y-135200000D02*
X173132520Y-135200000D01*
X186332520Y-122000000D02*
X186332520Y-135200000D01*
X173132520Y-122000000D02*
X186332520Y-122000000D01*
X111220010Y-39950000D02*
X111220010Y-26750000D01*
X124420010Y-39950000D02*
X111220010Y-39950000D01*
X124420010Y-26750000D02*
X124420010Y-39950000D01*
X111220010Y-26750000D02*
X124420010Y-26750000D01*
X311244900Y-59000000D02*
X311244900Y-45800000D01*
X324444900Y-59000000D02*
X311244900Y-59000000D01*
X324444900Y-45800000D02*
X324444900Y-59000000D01*
X311244900Y-45800000D02*
X324444900Y-45800000D01*
X301719900Y-78050000D02*
X301719900Y-64850000D01*
X314919900Y-78050000D02*
X301719900Y-78050000D01*
X314919900Y-64850000D02*
X314919900Y-78050000D01*
X301719900Y-64850000D02*
X314919900Y-64850000D01*
X239807430Y-116150000D02*
X239807430Y-102950000D01*
X253007430Y-116150000D02*
X239807430Y-116150000D01*
X253007430Y-102950000D02*
X253007430Y-116150000D01*
X239807430Y-102950000D02*
X253007430Y-102950000D01*
X254094930Y-59000000D02*
X254094930Y-45800000D01*
X267294930Y-59000000D02*
X254094930Y-59000000D01*
X267294930Y-45800000D02*
X267294930Y-59000000D01*
X254094930Y-45800000D02*
X267294930Y-45800000D01*
X430310000Y-135200000D02*
X430310000Y-122000000D01*
X443510000Y-135200000D02*
X430310000Y-135200000D01*
X443510000Y-122000000D02*
X443510000Y-135200000D01*
X430310000Y-122000000D02*
X443510000Y-122000000D01*
X115982490Y-135200000D02*
X115982490Y-122000000D01*
X129182490Y-135200000D02*
X115982490Y-135200000D01*
X129182490Y-122000000D02*
X129182490Y-135200000D01*
X115982490Y-122000000D02*
X129182490Y-122000000D01*
X454119800Y-97100000D02*
X454119800Y-83900000D01*
X467319800Y-97100000D02*
X454119800Y-97100000D01*
X467319800Y-83900000D02*
X467319800Y-97100000D01*
X454119800Y-83900000D02*
X467319800Y-83900000D01*
X463644900Y-116150000D02*
X463644900Y-102950000D01*
X476844900Y-116150000D02*
X463644900Y-116150000D01*
X476844900Y-102950000D02*
X476844900Y-116150000D01*
X463644900Y-102950000D02*
X476844900Y-102950000D01*
D11*
X14979980Y-14720000D02*
X488920000Y-14720000D01*
X488920000Y-179670000D01*
X14979980Y-179670000D01*
X14979980Y-14720000D01*
M02*
