%TF.GenerationSoftware,KiCad,Pcbnew,8.0.1-8.0.1-1~ubuntu22.04.1*%
%TF.CreationDate,2024-03-18T07:10:50+03:00*%
%TF.ProjectId,SpaceCadet,53706163-6543-4616-9465-742e6b696361,rev?*%
%TF.SameCoordinates,Original*%
%TF.FileFunction,Legend,Top*%
%TF.FilePolarity,Positive*%
%FSLAX46Y46*%
G04 Gerber Fmt 4.6, Leading zero omitted, Abs format (unit mm)*
G04 Created by KiCad (PCBNEW 8.0.1-8.0.1-1~ubuntu22.04.1) date 2024-03-18 07:10:50*
%MOMM*%
%LPD*%
G01*
G04 APERTURE LIST*
%ADD10C,0.150000*%
%TA.AperFunction,Profile*%
%ADD11C,0.100000*%
%TD*%
G04 APERTURE END LIST*
D10*
X293545080Y-58390000D02*
X307545080Y-58390000D01*
X293545080Y-72390000D02*
X293545080Y-58390000D01*
X307545080Y-58390000D02*
X307545080Y-72390000D01*
X307545080Y-72390000D02*
X293545080Y-72390000D01*
X464995030Y-58390000D02*
X478995030Y-58390000D01*
X464995030Y-72390000D02*
X464995030Y-58390000D01*
X478995030Y-58390000D02*
X478995030Y-72390000D01*
X478995030Y-72390000D02*
X464995030Y-72390000D01*
X145717640Y-115430000D02*
X159717640Y-115430000D01*
X145717640Y-129430000D02*
X145717640Y-115430000D01*
X159717640Y-115430000D02*
X159717640Y-129430000D01*
X159717640Y-129430000D02*
X145717640Y-129430000D01*
X212507580Y-96390000D02*
X226507580Y-96390000D01*
X212507580Y-110390000D02*
X212507580Y-96390000D01*
X226507580Y-96390000D02*
X226507580Y-110390000D01*
X226507580Y-110390000D02*
X212507580Y-110390000D01*
X279075080Y-134460000D02*
X293075080Y-134460000D01*
X279075080Y-148460000D02*
X279075080Y-134460000D01*
X293075080Y-134460000D02*
X293075080Y-148460000D01*
X293075080Y-148460000D02*
X279075080Y-148460000D01*
X369745090Y-58390000D02*
X383745090Y-58390000D01*
X369745090Y-72390000D02*
X369745090Y-58390000D01*
X383745090Y-58390000D02*
X383745090Y-72390000D01*
X383745090Y-72390000D02*
X369745090Y-72390000D01*
X198295120Y-58390000D02*
X212295120Y-58390000D01*
X198295120Y-72390000D02*
X198295120Y-58390000D01*
X212295120Y-58390000D02*
X212295120Y-72390000D01*
X212295120Y-72390000D02*
X198295120Y-72390000D01*
X284020050Y-77390000D02*
X298020050Y-77390000D01*
X284020050Y-91390000D02*
X284020050Y-77390000D01*
X298020050Y-77390000D02*
X298020050Y-91390000D01*
X298020050Y-91390000D02*
X284020050Y-91390000D01*
X269657550Y-96390000D02*
X283657550Y-96390000D01*
X269657550Y-110390000D02*
X269657550Y-96390000D01*
X283657550Y-96390000D02*
X283657550Y-110390000D01*
X283657550Y-110390000D02*
X269657550Y-110390000D01*
X236395100Y-58390000D02*
X250395100Y-58390000D01*
X236395100Y-72390000D02*
X236395100Y-58390000D01*
X250395100Y-58390000D02*
X250395100Y-72390000D01*
X250395100Y-72390000D02*
X236395100Y-72390000D01*
X250607560Y-96390000D02*
X264607560Y-96390000D01*
X250607560Y-110390000D02*
X250607560Y-96390000D01*
X264607560Y-96390000D02*
X264607560Y-110390000D01*
X264607560Y-110390000D02*
X250607560Y-110390000D01*
X386348750Y-96365000D02*
X400348750Y-96365000D01*
X386348750Y-110365000D02*
X386348750Y-96365000D01*
X400348750Y-96365000D02*
X400348750Y-110365000D01*
X400348750Y-110365000D02*
X386348750Y-110365000D01*
X345942590Y-58390000D02*
X359942590Y-58390000D01*
X345942590Y-72390000D02*
X345942590Y-58390000D01*
X359942590Y-58390000D02*
X359942590Y-72390000D01*
X359942590Y-72390000D02*
X345942590Y-72390000D01*
X110123890Y-96390000D02*
X124123890Y-96390000D01*
X110123890Y-110390000D02*
X110123890Y-96390000D01*
X124123890Y-96390000D02*
X124123890Y-110390000D01*
X124123890Y-110390000D02*
X110123890Y-110390000D01*
X303070050Y-77390000D02*
X317070050Y-77390000D01*
X303070050Y-91390000D02*
X303070050Y-77390000D01*
X317070050Y-77390000D02*
X317070050Y-91390000D01*
X317070050Y-91390000D02*
X303070050Y-91390000D01*
X445944980Y-77390000D02*
X459944980Y-77390000D01*
X445944980Y-91390000D02*
X445944980Y-77390000D01*
X459944980Y-77390000D02*
X459944980Y-91390000D01*
X459944980Y-91390000D02*
X445944980Y-91390000D01*
X274495090Y-58390000D02*
X288495090Y-58390000D01*
X274495090Y-72390000D02*
X274495090Y-58390000D01*
X288495090Y-58390000D02*
X288495090Y-72390000D01*
X288495090Y-72390000D02*
X274495090Y-72390000D01*
X74480155Y-77375000D02*
X88480155Y-77375000D01*
X74480155Y-91375000D02*
X74480155Y-77375000D01*
X88480155Y-77375000D02*
X88480155Y-91375000D01*
X88480155Y-91375000D02*
X74480155Y-91375000D01*
X417265070Y-39389997D02*
X431265070Y-39389997D01*
X417265070Y-53389997D02*
X417265070Y-39389997D01*
X431265070Y-39389997D02*
X431265070Y-53389997D01*
X431265070Y-53389997D02*
X417265070Y-53389997D01*
X302965150Y-39389997D02*
X316965150Y-39389997D01*
X302965150Y-53389997D02*
X302965150Y-39389997D01*
X316965150Y-39389997D02*
X316965150Y-53389997D01*
X316965150Y-53389997D02*
X302965150Y-53389997D01*
X26845150Y-77390000D02*
X40845150Y-77390000D01*
X26845150Y-91390000D02*
X26845150Y-77390000D01*
X40845150Y-77390000D02*
X40845150Y-91390000D01*
X40845150Y-91390000D02*
X26845150Y-91390000D01*
X221917590Y-115430000D02*
X235917590Y-115430000D01*
X221917590Y-129430000D02*
X221917590Y-115430000D01*
X235917590Y-115430000D02*
X235917590Y-129430000D01*
X235917590Y-129430000D02*
X221917590Y-129430000D01*
X464805050Y-115430000D02*
X478805050Y-115430000D01*
X464805050Y-129430000D02*
X464805050Y-115430000D01*
X478805050Y-115430000D02*
X478805050Y-129430000D01*
X478805050Y-129430000D02*
X464805050Y-129430000D01*
X74405140Y-96375000D02*
X88405140Y-96375000D01*
X74405140Y-110375000D02*
X74405140Y-96375000D01*
X88405140Y-96375000D02*
X88405140Y-110375000D01*
X88405140Y-110375000D02*
X74405140Y-110375000D01*
X317367580Y-58390000D02*
X331367580Y-58390000D01*
X317367580Y-72390000D02*
X317367580Y-58390000D01*
X331367580Y-58390000D02*
X331367580Y-72390000D01*
X331367580Y-72390000D02*
X317367580Y-72390000D01*
X322120030Y-77390000D02*
X336120030Y-77390000D01*
X322120030Y-91390000D02*
X322120030Y-77390000D01*
X336120030Y-77390000D02*
X336120030Y-91390000D01*
X336120030Y-91390000D02*
X322120030Y-91390000D01*
X319556340Y-134450000D02*
X333556340Y-134450000D01*
X319556340Y-148450000D02*
X319556340Y-134450000D01*
X333556340Y-134450000D02*
X333556340Y-148450000D01*
X333556340Y-148450000D02*
X319556340Y-148450000D01*
X202867600Y-115430000D02*
X216867600Y-115430000D01*
X202867600Y-129430000D02*
X202867600Y-115430000D01*
X216867600Y-115430000D02*
X216867600Y-129430000D01*
X216867600Y-129430000D02*
X202867600Y-129430000D01*
X45895150Y-77390000D02*
X59895150Y-77390000D01*
X45895150Y-91390000D02*
X45895150Y-77390000D01*
X59895150Y-77390000D02*
X59895150Y-91390000D01*
X59895150Y-91390000D02*
X45895150Y-91390000D01*
X114771390Y-115415000D02*
X128771390Y-115415000D01*
X114771390Y-129415000D02*
X114771390Y-115415000D01*
X128771390Y-115415000D02*
X128771390Y-129415000D01*
X128771390Y-129415000D02*
X114771390Y-129415000D01*
X74480155Y-58375000D02*
X88480155Y-58375000D01*
X74480155Y-72375000D02*
X74480155Y-58375000D01*
X88480155Y-58375000D02*
X88480155Y-72375000D01*
X88480155Y-72375000D02*
X74480155Y-72375000D01*
X431475140Y-134475000D02*
X445475140Y-134475000D01*
X431475140Y-148475000D02*
X431475140Y-134475000D01*
X445475140Y-134475000D02*
X445475140Y-148475000D01*
X445475140Y-148475000D02*
X431475140Y-148475000D01*
X264970050Y-77390000D02*
X278970050Y-77390000D01*
X264970050Y-91390000D02*
X264970050Y-77390000D01*
X278970050Y-77390000D02*
X278970050Y-91390000D01*
X278970050Y-91390000D02*
X264970050Y-91390000D01*
X50477645Y-115430000D02*
X64477645Y-115430000D01*
X50477645Y-129430000D02*
X50477645Y-115430000D01*
X64477645Y-115430000D02*
X64477645Y-129430000D01*
X64477645Y-129430000D02*
X50477645Y-129430000D01*
X36305148Y-96375000D02*
X50305148Y-96375000D01*
X36305148Y-110375000D02*
X36305148Y-96375000D01*
X50305148Y-96375000D02*
X50305148Y-110375000D01*
X50305148Y-110375000D02*
X36305148Y-110375000D01*
X188770110Y-77390000D02*
X202770110Y-77390000D01*
X188770110Y-91390000D02*
X188770110Y-77390000D01*
X202770110Y-77390000D02*
X202770110Y-91390000D01*
X202770110Y-91390000D02*
X188770110Y-91390000D01*
X360220000Y-77390000D02*
X374220000Y-77390000D01*
X360220000Y-91390000D02*
X360220000Y-77390000D01*
X374220000Y-77390000D02*
X374220000Y-91390000D01*
X374220000Y-91390000D02*
X360220000Y-91390000D01*
X417380000Y-77375000D02*
X431380000Y-77375000D01*
X417380000Y-91375000D02*
X417380000Y-77375000D01*
X431380000Y-77375000D02*
X431380000Y-91375000D01*
X431380000Y-91375000D02*
X417380000Y-91375000D01*
X474050150Y-148475000D02*
X460050150Y-148475000D01*
X474050150Y-134475000D02*
X474050150Y-148475000D01*
X460050150Y-148475000D02*
X460050150Y-134475000D01*
X460050150Y-134475000D02*
X474050150Y-134475000D01*
X245920080Y-77390000D02*
X259920080Y-77390000D01*
X245920080Y-91390000D02*
X245920080Y-77390000D01*
X259920080Y-77390000D02*
X259920080Y-91390000D01*
X259920080Y-91390000D02*
X245920080Y-91390000D01*
X169720120Y-77390000D02*
X183720120Y-77390000D01*
X169720120Y-91390000D02*
X169720120Y-77390000D01*
X183720120Y-77390000D02*
X183720120Y-91390000D01*
X183720120Y-91390000D02*
X169720120Y-91390000D01*
X264865150Y-39389997D02*
X278865150Y-39389997D01*
X264865150Y-53389997D02*
X264865150Y-39389997D01*
X278865150Y-39389997D02*
X278865150Y-53389997D01*
X278865150Y-53389997D02*
X264865150Y-53389997D01*
X112465155Y-39389997D02*
X126465155Y-39389997D01*
X112465155Y-53389997D02*
X112465155Y-39389997D01*
X126465155Y-39389997D02*
X126465155Y-53389997D01*
X126465155Y-53389997D02*
X112465155Y-53389997D01*
X141145160Y-58390000D02*
X155145160Y-58390000D01*
X141145160Y-72390000D02*
X141145160Y-58390000D01*
X155145160Y-58390000D02*
X155145160Y-72390000D01*
X155145160Y-72390000D02*
X141145160Y-72390000D01*
X255445100Y-58390000D02*
X269445100Y-58390000D01*
X255445100Y-72390000D02*
X255445100Y-58390000D01*
X269445100Y-58390000D02*
X269445100Y-72390000D01*
X269445100Y-72390000D02*
X255445100Y-72390000D01*
X74365150Y-39389997D02*
X88365150Y-39389997D01*
X74365150Y-53389997D02*
X74365150Y-39389997D01*
X88365150Y-39389997D02*
X88365150Y-53389997D01*
X88365150Y-53389997D02*
X74365150Y-53389997D01*
X107817660Y-77390000D02*
X121817660Y-77390000D01*
X107817660Y-91390000D02*
X107817660Y-77390000D01*
X121817660Y-77390000D02*
X121817660Y-91390000D01*
X121817660Y-91390000D02*
X107817660Y-91390000D01*
X345750100Y-134475000D02*
X359750100Y-134475000D01*
X345750100Y-148475000D02*
X345750100Y-134475000D01*
X359750100Y-134475000D02*
X359750100Y-148475000D01*
X359750100Y-148475000D02*
X345750100Y-148475000D01*
X150670140Y-77390000D02*
X164670140Y-77390000D01*
X150670140Y-91390000D02*
X150670140Y-77390000D01*
X164670140Y-77390000D02*
X164670140Y-91390000D01*
X164670140Y-91390000D02*
X150670140Y-91390000D01*
X207640150Y-134440000D02*
X221640150Y-134440000D01*
X207640150Y-148440000D02*
X207640150Y-134440000D01*
X221640150Y-134440000D02*
X221640150Y-148440000D01*
X221640150Y-148440000D02*
X207640150Y-148440000D01*
X183817610Y-115430000D02*
X197817610Y-115430000D01*
X183817610Y-129430000D02*
X183817610Y-115430000D01*
X197817610Y-115430000D02*
X197817610Y-129430000D01*
X197817610Y-129430000D02*
X183817610Y-129430000D01*
X226870090Y-77390000D02*
X240870090Y-77390000D01*
X226870090Y-91390000D02*
X226870090Y-77390000D01*
X240870090Y-77390000D02*
X240870090Y-91390000D01*
X240870090Y-91390000D02*
X226870090Y-91390000D01*
X341170010Y-77390000D02*
X355170010Y-77390000D01*
X341170010Y-91390000D02*
X341170010Y-77390000D01*
X355170010Y-77390000D02*
X355170010Y-91390000D01*
X355170010Y-91390000D02*
X341170010Y-91390000D01*
X260017580Y-115430000D02*
X274017580Y-115430000D01*
X260017580Y-129430000D02*
X260017580Y-115430000D01*
X274017580Y-115430000D02*
X274017580Y-129430000D01*
X274017580Y-129430000D02*
X260017580Y-129430000D01*
X317167550Y-115430000D02*
X331167550Y-115430000D01*
X317167550Y-129430000D02*
X317167550Y-115430000D01*
X331167550Y-115430000D02*
X331167550Y-129430000D01*
X331167550Y-129430000D02*
X317167550Y-129430000D01*
X298117550Y-115430000D02*
X312117550Y-115430000D01*
X298117550Y-129430000D02*
X298117550Y-115430000D01*
X312117550Y-115430000D02*
X312117550Y-129430000D01*
X312117550Y-129430000D02*
X298117550Y-129430000D01*
X36265147Y-39389997D02*
X50265147Y-39389997D01*
X36265147Y-53389997D02*
X36265147Y-39389997D01*
X50265147Y-39389997D02*
X50265147Y-53389997D01*
X50265147Y-53389997D02*
X36265147Y-53389997D01*
X441002550Y-115430000D02*
X455002550Y-115430000D01*
X441002550Y-129430000D02*
X441002550Y-115430000D01*
X455002550Y-115430000D02*
X455002550Y-129430000D01*
X455002550Y-129430000D02*
X441002550Y-129430000D01*
X402900130Y-134475000D02*
X416900130Y-134475000D01*
X402900130Y-148475000D02*
X402900130Y-134475000D01*
X416900130Y-134475000D02*
X416900130Y-148475000D01*
X416900130Y-148475000D02*
X402900130Y-148475000D01*
X145727650Y-134455000D02*
X159727650Y-134455000D01*
X145727650Y-148455000D02*
X145727650Y-134455000D01*
X159727650Y-134455000D02*
X159727650Y-148455000D01*
X159727650Y-148455000D02*
X145727650Y-148455000D01*
X288707550Y-96390000D02*
X302707550Y-96390000D01*
X288707550Y-110390000D02*
X288707550Y-96390000D01*
X302707550Y-96390000D02*
X302707550Y-110390000D01*
X302707550Y-110390000D02*
X288707550Y-110390000D01*
X455404950Y-96375000D02*
X469404950Y-96375000D01*
X455404950Y-110375000D02*
X455404950Y-96375000D01*
X469404950Y-96375000D02*
X469404950Y-110375000D01*
X469404950Y-110375000D02*
X455404950Y-110375000D01*
X445945050Y-58390000D02*
X459945050Y-58390000D01*
X445945050Y-72390000D02*
X445945050Y-58390000D01*
X459945050Y-58390000D02*
X459945050Y-72390000D01*
X459945050Y-72390000D02*
X445945050Y-72390000D01*
X379165090Y-39389997D02*
X393165090Y-39389997D01*
X379165090Y-53389997D02*
X379165090Y-39389997D01*
X393165090Y-39389997D02*
X393165090Y-53389997D01*
X393165090Y-53389997D02*
X379165090Y-53389997D01*
X117152640Y-134455000D02*
X131152640Y-134455000D01*
X117152640Y-148455000D02*
X117152640Y-134455000D01*
X131152640Y-134455000D02*
X131152640Y-148455000D01*
X131152640Y-148455000D02*
X117152640Y-148455000D01*
X164767620Y-115430000D02*
X178767620Y-115430000D01*
X164767620Y-129430000D02*
X164767620Y-115430000D01*
X178767620Y-115430000D02*
X178767620Y-129430000D01*
X178767620Y-129430000D02*
X164767620Y-129430000D01*
X169530150Y-134455000D02*
X183530150Y-134455000D01*
X169530150Y-148455000D02*
X169530150Y-134455000D01*
X183530150Y-134455000D02*
X183530150Y-148455000D01*
X183530150Y-148455000D02*
X169530150Y-148455000D01*
X341065120Y-39389997D02*
X355065120Y-39389997D01*
X341065120Y-53389997D02*
X341065120Y-39389997D01*
X355065120Y-39389997D02*
X355065120Y-53389997D01*
X355065120Y-53389997D02*
X341065120Y-53389997D01*
X464994970Y-77390000D02*
X478994970Y-77390000D01*
X464994970Y-91390000D02*
X464994970Y-77390000D01*
X478994970Y-77390000D02*
X478994970Y-91390000D01*
X478994970Y-91390000D02*
X464994970Y-91390000D01*
X122095160Y-58390000D02*
X136095160Y-58390000D01*
X122095160Y-72390000D02*
X122095160Y-58390000D01*
X136095160Y-58390000D02*
X136095160Y-72390000D01*
X136095160Y-72390000D02*
X122095160Y-72390000D01*
X374325110Y-134475000D02*
X388325110Y-134475000D01*
X374325110Y-148475000D02*
X374325110Y-134475000D01*
X388325110Y-134475000D02*
X388325110Y-148475000D01*
X388325110Y-148475000D02*
X374325110Y-148475000D01*
X326807530Y-96390000D02*
X340807530Y-96390000D01*
X326807530Y-110390000D02*
X326807530Y-96390000D01*
X340807530Y-96390000D02*
X340807530Y-110390000D01*
X340807530Y-110390000D02*
X326807530Y-110390000D01*
X307757550Y-96390000D02*
X321757550Y-96390000D01*
X307757550Y-110390000D02*
X307757550Y-96390000D01*
X321757550Y-96390000D02*
X321757550Y-110390000D01*
X321757550Y-110390000D02*
X307757550Y-110390000D01*
X188665170Y-39389997D02*
X202665170Y-39389997D01*
X188665170Y-53389997D02*
X188665170Y-39389997D01*
X202665170Y-39389997D02*
X202665170Y-53389997D01*
X202665170Y-53389997D02*
X188665170Y-53389997D01*
X417380050Y-58375000D02*
X431380050Y-58375000D01*
X417380050Y-72375000D02*
X417380050Y-58375000D01*
X431380050Y-58375000D02*
X431380050Y-72375000D01*
X431380050Y-72375000D02*
X417380050Y-72375000D01*
X207820100Y-77390000D02*
X221820100Y-77390000D01*
X207820100Y-91390000D02*
X207820100Y-77390000D01*
X221820100Y-77390000D02*
X221820100Y-91390000D01*
X221820100Y-91390000D02*
X207820100Y-91390000D01*
X174407610Y-96390000D02*
X188407610Y-96390000D01*
X174407610Y-110390000D02*
X174407610Y-96390000D01*
X188407610Y-96390000D02*
X188407610Y-110390000D01*
X188407610Y-110390000D02*
X174407610Y-110390000D01*
X348133780Y-115415000D02*
X362133780Y-115415000D01*
X348133780Y-129415000D02*
X348133780Y-115415000D01*
X362133780Y-115415000D02*
X362133780Y-129415000D01*
X362133780Y-129415000D02*
X348133780Y-129415000D01*
X150565160Y-39389997D02*
X164565160Y-39389997D01*
X150565160Y-53389997D02*
X150565160Y-39389997D01*
X164565160Y-39389997D02*
X164565160Y-53389997D01*
X164565160Y-53389997D02*
X150565160Y-53389997D01*
X193457600Y-96390000D02*
X207457600Y-96390000D01*
X193457600Y-110390000D02*
X193457600Y-96390000D01*
X207457600Y-96390000D02*
X207457600Y-110390000D01*
X207457600Y-110390000D02*
X193457600Y-110390000D01*
X155357620Y-96390000D02*
X169357620Y-96390000D01*
X155357620Y-110390000D02*
X155357620Y-96390000D01*
X169357620Y-96390000D02*
X169357620Y-110390000D01*
X169357620Y-110390000D02*
X155357620Y-110390000D01*
X355392510Y-96375000D02*
X369392510Y-96375000D01*
X355392510Y-110375000D02*
X355392510Y-96375000D01*
X369392510Y-96375000D02*
X369392510Y-110375000D01*
X369392510Y-110375000D02*
X355392510Y-110375000D01*
X103045160Y-58390000D02*
X117045160Y-58390000D01*
X103045160Y-72390000D02*
X103045160Y-58390000D01*
X117045160Y-58390000D02*
X117045160Y-72390000D01*
X117045160Y-72390000D02*
X103045160Y-72390000D01*
X60002646Y-134455000D02*
X74002646Y-134455000D01*
X60002646Y-148455000D02*
X60002646Y-134455000D01*
X74002646Y-134455000D02*
X74002646Y-148455000D01*
X74002646Y-148455000D02*
X60002646Y-148455000D01*
X160195150Y-58390000D02*
X174195150Y-58390000D01*
X160195150Y-72390000D02*
X160195150Y-58390000D01*
X174195150Y-58390000D02*
X174195150Y-72390000D01*
X174195150Y-72390000D02*
X160195150Y-72390000D01*
X31427650Y-134455000D02*
X45427650Y-134455000D01*
X31427650Y-148455000D02*
X31427650Y-134455000D01*
X45427650Y-134455000D02*
X45427650Y-148455000D01*
X45427650Y-148455000D02*
X31427650Y-148455000D01*
X231557570Y-96390000D02*
X245557570Y-96390000D01*
X231557570Y-110390000D02*
X231557570Y-96390000D01*
X245557570Y-96390000D02*
X245557570Y-110390000D01*
X245557570Y-110390000D02*
X231557570Y-110390000D01*
X26655149Y-115430000D02*
X40655149Y-115430000D01*
X26655149Y-129430000D02*
X26655149Y-115430000D01*
X40655149Y-115430000D02*
X40655149Y-129430000D01*
X40655149Y-129430000D02*
X26655149Y-129430000D01*
X417304980Y-96375000D02*
X431304980Y-96375000D01*
X417304980Y-110375000D02*
X417304980Y-96375000D01*
X431304980Y-96375000D02*
X431304980Y-110375000D01*
X431304980Y-110375000D02*
X417304980Y-110375000D01*
X79052640Y-115430000D02*
X93052640Y-115430000D01*
X79052640Y-129430000D02*
X79052640Y-115430000D01*
X93052640Y-115430000D02*
X93052640Y-129430000D01*
X93052640Y-129430000D02*
X79052640Y-129430000D01*
X217345110Y-58390000D02*
X231345110Y-58390000D01*
X217345110Y-72390000D02*
X217345110Y-58390000D01*
X231345110Y-58390000D02*
X231345110Y-72390000D01*
X231345110Y-72390000D02*
X217345110Y-72390000D01*
X388795080Y-58390000D02*
X402795080Y-58390000D01*
X388795080Y-72390000D02*
X388795080Y-58390000D01*
X402795080Y-58390000D02*
X402795080Y-72390000D01*
X402795080Y-72390000D02*
X388795080Y-72390000D01*
X240967580Y-115430000D02*
X254967580Y-115430000D01*
X240967580Y-129430000D02*
X240967580Y-115430000D01*
X254967580Y-115430000D02*
X254967580Y-129430000D01*
X254967580Y-129430000D02*
X240967580Y-129430000D01*
X136307630Y-96390000D02*
X150307630Y-96390000D01*
X136307630Y-110390000D02*
X136307630Y-96390000D01*
X150307630Y-96390000D02*
X150307630Y-110390000D01*
X150307630Y-110390000D02*
X136307630Y-110390000D01*
X88577640Y-134455000D02*
X102577640Y-134455000D01*
X88577640Y-148455000D02*
X88577640Y-134455000D01*
X102577640Y-134455000D02*
X102577640Y-148455000D01*
X102577640Y-148455000D02*
X88577640Y-148455000D01*
X412427550Y-115430000D02*
X426427550Y-115430000D01*
X412427550Y-129430000D02*
X412427550Y-115430000D01*
X426427550Y-115430000D02*
X426427550Y-129430000D01*
X426427550Y-129430000D02*
X412427550Y-129430000D01*
X226765170Y-39389997D02*
X240765170Y-39389997D01*
X226765170Y-53389997D02*
X226765170Y-39389997D01*
X240765170Y-39389997D02*
X240765170Y-53389997D01*
X240765170Y-53389997D02*
X226765170Y-53389997D01*
X26845150Y-58390000D02*
X40845150Y-58390000D01*
X26845150Y-72390000D02*
X26845150Y-58390000D01*
X40845150Y-58390000D02*
X40845150Y-72390000D01*
X40845150Y-72390000D02*
X26845150Y-72390000D01*
X179245130Y-58390000D02*
X193245130Y-58390000D01*
X179245130Y-72390000D02*
X179245130Y-58390000D01*
X193245130Y-58390000D02*
X193245130Y-72390000D01*
X193245130Y-72390000D02*
X179245130Y-72390000D01*
X131620150Y-77390000D02*
X145620150Y-77390000D01*
X131620150Y-91390000D02*
X131620150Y-77390000D01*
X145620150Y-77390000D02*
X145620150Y-91390000D01*
X145620150Y-91390000D02*
X131620150Y-91390000D01*
X45895150Y-58390000D02*
X59895150Y-58390000D01*
X45895150Y-72390000D02*
X45895150Y-58390000D01*
X59895150Y-58390000D02*
X59895150Y-72390000D01*
X59895150Y-72390000D02*
X45895150Y-72390000D01*
X279067570Y-115430000D02*
X293067570Y-115430000D01*
X279067570Y-129430000D02*
X279067570Y-115430000D01*
X293067570Y-115430000D02*
X293067570Y-129430000D01*
X293067570Y-129430000D02*
X279067570Y-129430000D01*
X383852530Y-115430000D02*
X397852530Y-115430000D01*
X383852530Y-129430000D02*
X383852530Y-115430000D01*
X397852530Y-115430000D02*
X397852530Y-129430000D01*
X397852530Y-129430000D02*
X383852530Y-129430000D01*
X455365050Y-39389997D02*
X469365050Y-39389997D01*
X455365050Y-53389997D02*
X455365050Y-39389997D01*
X469365050Y-39389997D02*
X469365050Y-53389997D01*
X469365050Y-53389997D02*
X455365050Y-53389997D01*
X384042500Y-77390000D02*
X398042500Y-77390000D01*
X384042500Y-91390000D02*
X384042500Y-77390000D01*
X398042500Y-77390000D02*
X398042500Y-91390000D01*
X398042500Y-91390000D02*
X384042500Y-91390000D01*
D11*
X18764999Y-25584998D02*
X487765000Y-25584998D01*
X487765000Y-158285000D01*
X18764999Y-158285000D01*
X18764999Y-25584998D01*
M02*
