0
SECTION
2
HEADER
9
$ACADVER
1
AC1009
9
$INSUNITS
70
4
9
$EXTMIN
10
0.000000
20
0.000000
30
0.000000
9
$EXTMAX
10
486.000000
20
184.755600
30
0.000000
0
ENDSEC
0
SECTION
2
TABLES
0
TABLE
2
LAYER
0
LAYER
2
PCL_Layer
62
7
70
0
6
CONTINUOUS
0
ENDTAB
0
TABLE
2
VPORT
5
0
100
AcDbSymbolTable
70
3
0
VPORT
5
1
100
AcDbSymbolTableRecord
100
AcDbViewportTableRecord
2
*ACTIVE
70
0
10
0.0
20
0.0
11
1.0
21
1.0
12
243.000000
22
92.377800
13
0.0
23
0.0
14
10.0
24
10.0
15
10.0
25
10.0
16
0.0
26
0.0
36
1.0
17
0.0
27
0.0
37
0.0
40
221.706720
41
2.107632093933463
42
50.0
43
0.0
44
0.0
50
0.0
51
0.0
71
0
72
100
73
1
74
3
75
0
76
0
77
0
78
0
0
ENDTAB
0
ENDSEC
0
SECTION
2
BLOCKS
0
ENDSEC
0
SECTION
2
ENTITIES
0
LINE
100
AcDbEntity
100
AcDbLine
8
PCL_Layer
5
1000
10
221.541500
20
111.083600
30
0.000000
11
235.530200
21
111.083600
31
0.000000
62
7
0
LINE
100
AcDbEntity
100
AcDbLine
8
PCL_Layer
5
1001
10
221.541500
20
97.119900
30
0.000000
11
221.541500
21
111.083600
31
0.000000
62
7
0
LINE
100
AcDbEntity
100
AcDbLine
8
PCL_Layer
5
1002
10
235.530200
20
111.083600
30
0.000000
11
235.530200
21
97.119900
31
0.000000
62
7
0
LINE
100
AcDbEntity
100
AcDbLine
8
PCL_Layer
5
1003
10
235.530200
20
97.119900
30
0.000000
11
221.541500
21
97.119900
31
0.000000
62
7
0
LINE
100
AcDbEntity
100
AcDbLine
8
PCL_Layer
5
1004
10
192.938600
20
92.014900
30
0.000000
11
206.927200
21
92.014900
31
0.000000
62
7
0
LINE
100
AcDbEntity
100
AcDbLine
8
PCL_Layer
5
1005
10
192.938600
20
78.051300
30
0.000000
11
192.938600
21
92.014900
31
0.000000
62
7
0
LINE
100
AcDbEntity
100
AcDbLine
8
PCL_Layer
5
1006
10
206.927200
20
92.014900
30
0.000000
11
206.927200
21
78.051300
31
0.000000
62
7
0
LINE
100
AcDbEntity
100
AcDbLine
8
PCL_Layer
5
1007
10
206.927200
20
78.051300
30
0.000000
11
192.938600
21
78.051300
31
0.000000
62
7
0
LINE
100
AcDbEntity
100
AcDbLine
8
PCL_Layer
5
1008
10
374.090600
20
130.152200
30
0.000000
11
388.079300
21
130.152200
31
0.000000
62
7
0
LINE
100
AcDbEntity
100
AcDbLine
8
PCL_Layer
5
1009
10
374.090600
20
116.188600
30
0.000000
11
374.090600
21
130.152200
31
0.000000
62
7
0
LINE
100
AcDbEntity
100
AcDbLine
8
PCL_Layer
5
100A
10
388.079300
20
130.152200
30
0.000000
11
388.079300
21
116.188600
31
0.000000
62
7
0
LINE
100
AcDbEntity
100
AcDbLine
8
PCL_Layer
5
100B
10
388.079300
20
116.188600
30
0.000000
11
374.090600
21
116.188600
31
0.000000
62
7
0
LINE
100
AcDbEntity
100
AcDbLine
8
PCL_Layer
5
100C
10
407.448200
20
168.289500
30
0.000000
11
421.436900
21
168.289500
31
0.000000
62
7
0
LINE
100
AcDbEntity
100
AcDbLine
8
PCL_Layer
5
100D
10
407.448200
20
154.325800
30
0.000000
11
407.448200
21
168.289500
31
0.000000
62
7
0
LINE
100
AcDbEntity
100
AcDbLine
8
PCL_Layer
5
100E
10
421.436900
20
168.289500
30
0.000000
11
421.436900
21
154.325800
31
0.000000
62
7
0
LINE
100
AcDbEntity
100
AcDbLine
8
PCL_Layer
5
100F
10
421.436900
20
154.325800
30
0.000000
11
407.448200
21
154.325800
31
0.000000
62
7
0
LINE
100
AcDbEntity
100
AcDbLine
8
PCL_Layer
5
1010
10
350.242300
20
130.152200
30
0.000000
11
364.231000
21
130.152200
31
0.000000
62
7
0
LINE
100
AcDbEntity
100
AcDbLine
8
PCL_Layer
5
1011
10
350.242300
20
116.188600
30
0.000000
11
350.242300
21
130.152200
31
0.000000
62
7
0
LINE
100
AcDbEntity
100
AcDbLine
8
PCL_Layer
5
1012
10
364.231000
20
130.152200
30
0.000000
11
364.231000
21
116.188600
31
0.000000
62
7
0
LINE
100
AcDbEntity
100
AcDbLine
8
PCL_Layer
5
1013
10
364.231000
20
116.188600
30
0.000000
11
350.242300
21
116.188600
31
0.000000
62
7
0
LINE
100
AcDbEntity
100
AcDbLine
8
PCL_Layer
5
1014
10
293.036400
20
130.152200
30
0.000000
11
307.025100
21
130.152200
31
0.000000
62
7
0
LINE
100
AcDbEntity
100
AcDbLine
8
PCL_Layer
5
1015
10
293.036400
20
116.188600
30
0.000000
11
293.036400
21
130.152200
31
0.000000
62
7
0
LINE
100
AcDbEntity
100
AcDbLine
8
PCL_Layer
5
1016
10
307.025100
20
130.152200
30
0.000000
11
307.025100
21
116.188600
31
0.000000
62
7
0
LINE
100
AcDbEntity
100
AcDbLine
8
PCL_Layer
5
1017
10
307.025100
20
116.188600
30
0.000000
11
293.036400
21
116.188600
31
0.000000
62
7
0
LINE
100
AcDbEntity
100
AcDbLine
8
PCL_Layer
5
1018
10
180.701600
20
22.446900
30
0.000000
11
166.712900
21
22.446900
31
0.000000
62
7
0
LINE
100
AcDbEntity
100
AcDbLine
8
PCL_Layer
5
1019
10
180.701600
20
36.435600
30
0.000000
11
180.701600
21
22.446900
31
0.000000
62
7
0
LINE
100
AcDbEntity
100
AcDbLine
8
PCL_Layer
5
101A
10
166.712900
20
22.446900
30
0.000000
11
166.712900
21
36.435600
31
0.000000
62
7
0
LINE
100
AcDbEntity
100
AcDbLine
8
PCL_Layer
5
101B
10
166.712900
20
36.435600
30
0.000000
11
180.701600
21
36.435600
31
0.000000
62
7
0
LINE
100
AcDbEntity
100
AcDbLine
8
PCL_Layer
5
101C
10
130.652700
20
22.446900
30
0.000000
11
116.664000
21
22.446900
31
0.000000
62
7
0
LINE
100
AcDbEntity
100
AcDbLine
8
PCL_Layer
5
101D
10
130.652700
20
36.435600
30
0.000000
11
130.652700
21
22.446900
31
0.000000
62
7
0
LINE
100
AcDbEntity
100
AcDbLine
8
PCL_Layer
5
101E
10
116.664000
20
22.446900
30
0.000000
11
116.664000
21
36.435600
31
0.000000
62
7
0
LINE
100
AcDbEntity
100
AcDbLine
8
PCL_Layer
5
101F
10
116.664000
20
36.435600
30
0.000000
11
130.652700
21
36.435600
31
0.000000
62
7
0
LINE
100
AcDbEntity
100
AcDbLine
8
PCL_Layer
5
1020
10
80.578800
20
22.446900
30
0.000000
11
66.590100
21
22.446900
31
0.000000
62
7
0
LINE
100
AcDbEntity
100
AcDbLine
8
PCL_Layer
5
1021
10
80.578800
20
36.435600
30
0.000000
11
80.578800
21
22.446900
31
0.000000
62
7
0
LINE
100
AcDbEntity
100
AcDbLine
8
PCL_Layer
5
1022
10
66.590100
20
22.446900
30
0.000000
11
66.590100
21
36.435600
31
0.000000
62
7
0
LINE
100
AcDbEntity
100
AcDbLine
8
PCL_Layer
5
1023
10
66.590100
20
36.435600
30
0.000000
11
80.578800
21
36.435600
31
0.000000
62
7
0
LINE
100
AcDbEntity
100
AcDbLine
8
PCL_Layer
5
1024
10
183.404300
20
111.083600
30
0.000000
11
197.392900
21
111.083600
31
0.000000
62
7
0
LINE
100
AcDbEntity
100
AcDbLine
8
PCL_Layer
5
1025
10
183.404300
20
97.119900
30
0.000000
11
183.404300
21
111.083600
31
0.000000
62
7
0
LINE
100
AcDbEntity
100
AcDbLine
8
PCL_Layer
5
1026
10
197.392900
20
111.083600
30
0.000000
11
197.392900
21
97.119900
31
0.000000
62
7
0
LINE
100
AcDbEntity
100
AcDbLine
8
PCL_Layer
5
1027
10
197.392900
20
97.119900
30
0.000000
11
183.404300
21
97.119900
31
0.000000
62
7
0
LINE
100
AcDbEntity
100
AcDbLine
8
PCL_Layer
5
1028
10
97.595400
20
130.152200
30
0.000000
11
111.584100
21
130.152200
31
0.000000
62
7
0
LINE
100
AcDbEntity
100
AcDbLine
8
PCL_Layer
5
1029
10
97.595400
20
116.188600
30
0.000000
11
97.595400
21
130.152200
31
0.000000
62
7
0
LINE
100
AcDbEntity
100
AcDbLine
8
PCL_Layer
5
102A
10
111.584100
20
130.152200
30
0.000000
11
111.584100
21
116.188600
31
0.000000
62
7
0
LINE
100
AcDbEntity
100
AcDbLine
8
PCL_Layer
5
102B
10
111.584100
20
116.188600
30
0.000000
11
97.595400
21
116.188600
31
0.000000
62
7
0
LINE
100
AcDbEntity
100
AcDbLine
8
PCL_Layer
5
102C
10
278.747400
20
111.083600
30
0.000000
11
292.736100
21
111.083600
31
0.000000
62
7
0
LINE
100
AcDbEntity
100
AcDbLine
8
PCL_Layer
5
102D
10
278.747400
20
97.119900
30
0.000000
11
278.747400
21
111.083600
31
0.000000
62
7
0
LINE
100
AcDbEntity
100
AcDbLine
8
PCL_Layer
5
102E
10
292.736100
20
111.083600
30
0.000000
11
292.736100
21
97.119900
31
0.000000
62
7
0
LINE
100
AcDbEntity
100
AcDbLine
8
PCL_Layer
5
102F
10
292.736100
20
97.119900
30
0.000000
11
278.747400
21
97.119900
31
0.000000
62
7
0
LINE
100
AcDbEntity
100
AcDbLine
8
PCL_Layer
5
1030
10
49.923800
20
72.946300
30
0.000000
11
63.912500
21
72.946300
31
0.000000
62
7
0
LINE
100
AcDbEntity
100
AcDbLine
8
PCL_Layer
5
1031
10
49.923800
20
58.982700
30
0.000000
11
49.923800
21
72.946300
31
0.000000
62
7
0
LINE
100
AcDbEntity
100
AcDbLine
8
PCL_Layer
5
1032
10
63.912500
20
72.946300
30
0.000000
11
63.912500
21
58.982700
31
0.000000
62
7
0
LINE
100
AcDbEntity
100
AcDbLine
8
PCL_Layer
5
1033
10
63.912500
20
58.982700
30
0.000000
11
49.923800
21
58.982700
31
0.000000
62
7
0
LINE
100
AcDbEntity
100
AcDbLine
8
PCL_Layer
5
1034
10
111.884400
20
149.220900
30
0.000000
11
125.873000
21
149.220900
31
0.000000
62
7
0
LINE
100
AcDbEntity
100
AcDbLine
8
PCL_Layer
5
1035
10
111.884400
20
135.257200
30
0.000000
11
111.884400
21
149.220900
31
0.000000
62
7
0
LINE
100
AcDbEntity
100
AcDbLine
8
PCL_Layer
5
1036
10
125.873000
20
149.220900
30
0.000000
11
125.873000
21
135.257200
31
0.000000
62
7
0
LINE
100
AcDbEntity
100
AcDbLine
8
PCL_Layer
5
1037
10
125.873000
20
135.257200
30
0.000000
11
111.884400
21
135.257200
31
0.000000
62
7
0
LINE
100
AcDbEntity
100
AcDbLine
8
PCL_Layer
5
1038
10
16.566200
20
92.014900
30
0.000000
11
30.529800
21
92.014900
31
0.000000
62
7
0
LINE
100
AcDbEntity
100
AcDbLine
8
PCL_Layer
5
1039
10
16.566200
20
78.051300
30
0.000000
11
16.566200
21
92.014900
31
0.000000
62
7
0
LINE
100
AcDbEntity
100
AcDbLine
8
PCL_Layer
5
103A
10
30.529800
20
92.014900
30
0.000000
11
30.529800
21
78.051300
31
0.000000
62
7
0
LINE
100
AcDbEntity
100
AcDbLine
8
PCL_Layer
5
103B
10
30.529800
20
78.051300
30
0.000000
11
16.566200
21
78.051300
31
0.000000
62
7
0
LINE
100
AcDbEntity
100
AcDbLine
8
PCL_Layer
5
103C
10
26.100500
20
111.083600
30
0.000000
11
40.064200
21
111.083600
31
0.000000
62
7
0
LINE
100
AcDbEntity
100
AcDbLine
8
PCL_Layer
5
103D
10
26.100500
20
97.119900
30
0.000000
11
26.100500
21
111.083600
31
0.000000
62
7
0
LINE
100
AcDbEntity
100
AcDbLine
8
PCL_Layer
5
103E
10
40.064200
20
111.083600
30
0.000000
11
40.064200
21
97.119900
31
0.000000
62
7
0
LINE
100
AcDbEntity
100
AcDbLine
8
PCL_Layer
5
103F
10
40.064200
20
97.119900
30
0.000000
11
26.100500
21
97.119900
31
0.000000
62
7
0
LINE
100
AcDbEntity
100
AcDbLine
8
PCL_Layer
5
1040
10
407.448200
20
149.220900
30
0.000000
11
421.436900
21
149.220900
31
0.000000
62
7
0
LINE
100
AcDbEntity
100
AcDbLine
8
PCL_Layer
5
1041
10
407.448200
20
135.257200
30
0.000000
11
407.448200
21
149.220900
31
0.000000
62
7
0
LINE
100
AcDbEntity
100
AcDbLine
8
PCL_Layer
5
1042
10
421.436900
20
149.220900
30
0.000000
11
421.436900
21
135.257200
31
0.000000
62
7
0
LINE
100
AcDbEntity
100
AcDbLine
8
PCL_Layer
5
1043
10
421.436900
20
135.257200
30
0.000000
11
407.448200
21
135.257200
31
0.000000
62
7
0
LINE
100
AcDbEntity
100
AcDbLine
8
PCL_Layer
5
1044
10
35.634800
20
130.152200
30
0.000000
11
49.598500
21
130.152200
31
0.000000
62
7
0
LINE
100
AcDbEntity
100
AcDbLine
8
PCL_Layer
5
1045
10
35.634800
20
116.188600
30
0.000000
11
35.634800
21
130.152200
31
0.000000
62
7
0
LINE
100
AcDbEntity
100
AcDbLine
8
PCL_Layer
5
1046
10
49.598500
20
130.152200
30
0.000000
11
49.598500
21
116.188600
31
0.000000
62
7
0
LINE
100
AcDbEntity
100
AcDbLine
8
PCL_Layer
5
1047
10
49.598500
20
116.188600
30
0.000000
11
35.634800
21
116.188600
31
0.000000
62
7
0
LINE
100
AcDbEntity
100
AcDbLine
8
PCL_Layer
5
1048
10
340.708000
20
149.220900
30
0.000000
11
354.696700
21
149.220900
31
0.000000
62
7
0
LINE
100
AcDbEntity
100
AcDbLine
8
PCL_Layer
5
1049
10
340.708000
20
135.257200
30
0.000000
11
340.708000
21
149.220900
31
0.000000
62
7
0
LINE
100
AcDbEntity
100
AcDbLine
8
PCL_Layer
5
104A
10
354.696700
20
149.220900
30
0.000000
11
354.696700
21
135.257200
31
0.000000
62
7
0
LINE
100
AcDbEntity
100
AcDbLine
8
PCL_Layer
5
104B
10
354.696700
20
135.257200
30
0.000000
11
340.708000
21
135.257200
31
0.000000
62
7
0
LINE
100
AcDbEntity
100
AcDbLine
8
PCL_Layer
5
104C
10
369.310900
20
168.289500
30
0.000000
11
383.299600
21
168.289500
31
0.000000
62
7
0
LINE
100
AcDbEntity
100
AcDbLine
8
PCL_Layer
5
104D
10
369.310900
20
154.325800
30
0.000000
11
369.310900
21
168.289500
31
0.000000
62
7
0
LINE
100
AcDbEntity
100
AcDbLine
8
PCL_Layer
5
104E
10
383.299600
20
168.289500
30
0.000000
11
383.299600
21
154.325800
31
0.000000
62
7
0
LINE
100
AcDbEntity
100
AcDbLine
8
PCL_Layer
5
104F
10
383.299600
20
154.325800
30
0.000000
11
369.310900
21
154.325800
31
0.000000
62
7
0
LINE
100
AcDbEntity
100
AcDbLine
8
PCL_Layer
5
1050
10
307.350400
20
92.014900
30
0.000000
11
321.339100
21
92.014900
31
0.000000
62
7
0
LINE
100
AcDbEntity
100
AcDbLine
8
PCL_Layer
5
1051
10
307.350400
20
78.051300
30
0.000000
11
307.350400
21
92.014900
31
0.000000
62
7
0
LINE
100
AcDbEntity
100
AcDbLine
8
PCL_Layer
5
1052
10
321.339100
20
92.014900
30
0.000000
11
321.339100
21
78.051300
31
0.000000
62
7
0
LINE
100
AcDbEntity
100
AcDbLine
8
PCL_Layer
5
1053
10
321.339100
20
78.051300
30
0.000000
11
307.350400
21
78.051300
31
0.000000
62
7
0
LINE
100
AcDbEntity
100
AcDbLine
8
PCL_Layer
5
1054
10
288.281800
20
92.014900
30
0.000000
11
302.270400
21
92.014900
31
0.000000
62
7
0
LINE
100
AcDbEntity
100
AcDbLine
8
PCL_Layer
5
1055
10
288.281800
20
78.051300
30
0.000000
11
288.281800
21
92.014900
31
0.000000
62
7
0
LINE
100
AcDbEntity
100
AcDbLine
8
PCL_Layer
5
1056
10
302.270400
20
92.014900
30
0.000000
11
302.270400
21
78.051300
31
0.000000
62
7
0
LINE
100
AcDbEntity
100
AcDbLine
8
PCL_Layer
5
1057
10
302.270400
20
78.051300
30
0.000000
11
288.281800
21
78.051300
31
0.000000
62
7
0
LINE
100
AcDbEntity
100
AcDbLine
8
PCL_Layer
5
1058
10
436.051200
20
149.220900
30
0.000000
11
450.039900
21
149.220900
31
0.000000
62
7
0
LINE
100
AcDbEntity
100
AcDbLine
8
PCL_Layer
5
1059
10
436.051200
20
135.257200
30
0.000000
11
436.051200
21
149.220900
31
0.000000
62
7
0
LINE
100
AcDbEntity
100
AcDbLine
8
PCL_Layer
5
105A
10
450.039900
20
149.220900
30
0.000000
11
450.039900
21
135.257200
31
0.000000
62
7
0
LINE
100
AcDbEntity
100
AcDbLine
8
PCL_Layer
5
105B
10
450.039900
20
135.257200
30
0.000000
11
436.051200
21
135.257200
31
0.000000
62
7
0
LINE
100
AcDbEntity
100
AcDbLine
8
PCL_Layer
5
105C
10
240.610200
20
72.946300
30
0.000000
11
254.598800
21
72.946300
31
0.000000
62
7
0
LINE
100
AcDbEntity
100
AcDbLine
8
PCL_Layer
5
105D
10
240.610200
20
58.982700
30
0.000000
11
240.610200
21
72.946300
31
0.000000
62
7
0
LINE
100
AcDbEntity
100
AcDbLine
8
PCL_Layer
5
105E
10
254.598800
20
72.946300
30
0.000000
11
254.598800
21
58.982700
31
0.000000
62
7
0
LINE
100
AcDbEntity
100
AcDbLine
8
PCL_Layer
5
105F
10
254.598800
20
58.982700
30
0.000000
11
240.610200
21
58.982700
31
0.000000
62
7
0
LINE
100
AcDbEntity
100
AcDbLine
8
PCL_Layer
5
1060
10
264.408400
20
72.946300
30
0.000000
11
278.397100
21
72.946300
31
0.000000
62
7
0
LINE
100
AcDbEntity
100
AcDbLine
8
PCL_Layer
5
1061
10
264.408400
20
58.982700
30
0.000000
11
264.408400
21
72.946300
31
0.000000
62
7
0
LINE
100
AcDbEntity
100
AcDbLine
8
PCL_Layer
5
1062
10
278.397100
20
72.946300
30
0.000000
11
278.397100
21
58.982700
31
0.000000
62
7
0
LINE
100
AcDbEntity
100
AcDbLine
8
PCL_Layer
5
1063
10
278.397100
20
58.982700
30
0.000000
11
264.408400
21
58.982700
31
0.000000
62
7
0
LINE
100
AcDbEntity
100
AcDbLine
8
PCL_Layer
5
1064
10
121.418700
20
130.152200
30
0.000000
11
135.407300
21
130.152200
31
0.000000
62
7
0
LINE
100
AcDbEntity
100
AcDbLine
8
PCL_Layer
5
1065
10
121.418700
20
116.188600
30
0.000000
11
121.418700
21
130.152200
31
0.000000
62
7
0
LINE
100
AcDbEntity
100
AcDbLine
8
PCL_Layer
5
1066
10
135.407300
20
130.152200
30
0.000000
11
135.407300
21
116.188600
31
0.000000
62
7
0
LINE
100
AcDbEntity
100
AcDbLine
8
PCL_Layer
5
1067
10
135.407300
20
116.188600
30
0.000000
11
121.418700
21
116.188600
31
0.000000
62
7
0
LINE
100
AcDbEntity
100
AcDbLine
8
PCL_Layer
5
1068
10
216.761900
20
130.152200
30
0.000000
11
230.750500
21
130.152200
31
0.000000
62
7
0
LINE
100
AcDbEntity
100
AcDbLine
8
PCL_Layer
5
1069
10
216.761900
20
116.188600
30
0.000000
11
216.761900
21
130.152200
31
0.000000
62
7
0
LINE
100
AcDbEntity
100
AcDbLine
8
PCL_Layer
5
106A
10
230.750500
20
130.152200
30
0.000000
11
230.750500
21
116.188600
31
0.000000
62
7
0
LINE
100
AcDbEntity
100
AcDbLine
8
PCL_Layer
5
106B
10
230.750500
20
116.188600
30
0.000000
11
216.761900
21
116.188600
31
0.000000
62
7
0
LINE
100
AcDbEntity
100
AcDbLine
8
PCL_Layer
5
106C
10
316.884700
20
111.083600
30
0.000000
11
330.873400
21
111.083600
31
0.000000
62
7
0
LINE
100
AcDbEntity
100
AcDbLine
8
PCL_Layer
5
106D
10
316.884700
20
97.119900
30
0.000000
11
316.884700
21
111.083600
31
0.000000
62
7
0
LINE
100
AcDbEntity
100
AcDbLine
8
PCL_Layer
5
106E
10
330.873400
20
111.083600
30
0.000000
11
330.873400
21
97.119900
31
0.000000
62
7
0
LINE
100
AcDbEntity
100
AcDbLine
8
PCL_Layer
5
106F
10
330.873400
20
97.119900
30
0.000000
11
316.884700
21
97.119900
31
0.000000
62
7
0
LINE
100
AcDbEntity
100
AcDbLine
8
PCL_Layer
5
1070
10
309.727700
20
72.946300
30
0.000000
11
323.716400
21
72.946300
31
0.000000
62
7
0
LINE
100
AcDbEntity
100
AcDbLine
8
PCL_Layer
5
1071
10
309.727700
20
58.982700
30
0.000000
11
309.727700
21
72.946300
31
0.000000
62
7
0
LINE
100
AcDbEntity
100
AcDbLine
8
PCL_Layer
5
1072
10
323.716400
20
72.946300
30
0.000000
11
323.716400
21
58.982700
31
0.000000
62
7
0
LINE
100
AcDbEntity
100
AcDbLine
8
PCL_Layer
5
1073
10
323.716400
20
58.982700
30
0.000000
11
309.727700
21
58.982700
31
0.000000
62
7
0
LINE
100
AcDbEntity
100
AcDbLine
8
PCL_Layer
5
1074
10
402.693600
20
92.014900
30
0.000000
11
416.682300
21
92.014900
31
0.000000
62
7
0
LINE
100
AcDbEntity
100
AcDbLine
8
PCL_Layer
5
1075
10
402.693600
20
78.051300
30
0.000000
11
402.693600
21
92.014900
31
0.000000
62
7
0
LINE
100
AcDbEntity
100
AcDbLine
8
PCL_Layer
5
1076
10
416.682300
20
92.014900
30
0.000000
11
416.682300
21
78.051300
31
0.000000
62
7
0
LINE
100
AcDbEntity
100
AcDbLine
8
PCL_Layer
5
1077
10
416.682300
20
78.051300
30
0.000000
11
402.693600
21
78.051300
31
0.000000
62
7
0
LINE
100
AcDbEntity
100
AcDbLine
8
PCL_Layer
5
1078
10
455.119800
20
149.220900
30
0.000000
11
469.108500
21
149.220900
31
0.000000
62
7
0
LINE
100
AcDbEntity
100
AcDbLine
8
PCL_Layer
5
1079
10
455.119800
20
135.257200
30
0.000000
11
455.119800
21
149.220900
31
0.000000
62
7
0
LINE
100
AcDbEntity
100
AcDbLine
8
PCL_Layer
5
107A
10
469.108500
20
149.220900
30
0.000000
11
469.108500
21
135.257200
31
0.000000
62
7
0
LINE
100
AcDbEntity
100
AcDbLine
8
PCL_Layer
5
107B
10
469.108500
20
135.257200
30
0.000000
11
455.119800
21
135.257200
31
0.000000
62
7
0
LINE
100
AcDbEntity
100
AcDbLine
8
PCL_Layer
5
107C
10
159.556000
20
130.152200
30
0.000000
11
173.544600
21
130.152200
31
0.000000
62
7
0
LINE
100
AcDbEntity
100
AcDbLine
8
PCL_Layer
5
107D
10
159.556000
20
116.188600
30
0.000000
11
159.556000
21
130.152200
31
0.000000
62
7
0
LINE
100
AcDbEntity
100
AcDbLine
8
PCL_Layer
5
107E
10
173.544600
20
130.152200
30
0.000000
11
173.544600
21
116.188600
31
0.000000
62
7
0
LINE
100
AcDbEntity
100
AcDbLine
8
PCL_Layer
5
107F
10
173.544600
20
116.188600
30
0.000000
11
159.556000
21
116.188600
31
0.000000
62
7
0
LINE
100
AcDbEntity
100
AcDbLine
8
PCL_Layer
5
1080
10
140.487300
20
130.152200
30
0.000000
11
154.476000
21
130.152200
31
0.000000
62
7
0
LINE
100
AcDbEntity
100
AcDbLine
8
PCL_Layer
5
1081
10
140.487300
20
116.188600
30
0.000000
11
140.487300
21
130.152200
31
0.000000
62
7
0
LINE
100
AcDbEntity
100
AcDbLine
8
PCL_Layer
5
1082
10
154.476000
20
130.152200
30
0.000000
11
154.476000
21
116.188600
31
0.000000
62
7
0
LINE
100
AcDbEntity
100
AcDbLine
8
PCL_Layer
5
1083
10
154.476000
20
116.188600
30
0.000000
11
140.487300
21
116.188600
31
0.000000
62
7
0
LINE
100
AcDbEntity
100
AcDbLine
8
PCL_Layer
5
1084
10
393.159300
20
72.946300
30
0.000000
11
407.147900
21
72.946300
31
0.000000
62
7
0
LINE
100
AcDbEntity
100
AcDbLine
8
PCL_Layer
5
1085
10
393.159300
20
58.982700
30
0.000000
11
393.159300
21
72.946300
31
0.000000
62
7
0
LINE
100
AcDbEntity
100
AcDbLine
8
PCL_Layer
5
1086
10
407.147900
20
72.946300
30
0.000000
11
407.147900
21
58.982700
31
0.000000
62
7
0
LINE
100
AcDbEntity
100
AcDbLine
8
PCL_Layer
5
1087
10
407.147900
20
58.982700
30
0.000000
11
393.159300
21
58.982700
31
0.000000
62
7
0
LINE
100
AcDbEntity
100
AcDbLine
8
PCL_Layer
5
1088
10
16.566200
20
130.152200
30
0.000000
11
30.529800
21
130.152200
31
0.000000
62
7
0
LINE
100
AcDbEntity
100
AcDbLine
8
PCL_Layer
5
1089
10
16.566200
20
116.188600
30
0.000000
11
16.566200
21
130.152200
31
0.000000
62
7
0
LINE
100
AcDbEntity
100
AcDbLine
8
PCL_Layer
5
108A
10
30.529800
20
130.152200
30
0.000000
11
30.529800
21
116.188600
31
0.000000
62
7
0
LINE
100
AcDbEntity
100
AcDbLine
8
PCL_Layer
5
108B
10
30.529800
20
116.188600
30
0.000000
11
16.566200
21
116.188600
31
0.000000
62
7
0
LINE
100
AcDbEntity
100
AcDbLine
8
PCL_Layer
5
108C
10
216.786900
20
168.289500
30
0.000000
11
230.750500
21
168.289500
31
0.000000
62
7
0
LINE
100
AcDbEntity
100
AcDbLine
8
PCL_Layer
5
108D
10
216.786900
20
154.325800
30
0.000000
11
216.786900
21
168.289500
31
0.000000
62
7
0
LINE
100
AcDbEntity
100
AcDbLine
8
PCL_Layer
5
108E
10
230.750500
20
168.289500
30
0.000000
11
230.750500
21
154.325800
31
0.000000
62
7
0
LINE
100
AcDbEntity
100
AcDbLine
8
PCL_Layer
5
108F
10
230.750500
20
154.325800
30
0.000000
11
216.786900
21
154.325800
31
0.000000
62
7
0
LINE
100
AcDbEntity
100
AcDbLine
8
PCL_Layer
5
1090
10
150.021600
20
149.220900
30
0.000000
11
164.010300
21
149.220900
31
0.000000
62
7
0
LINE
100
AcDbEntity
100
AcDbLine
8
PCL_Layer
5
1091
10
150.021600
20
135.257200
30
0.000000
11
150.021600
21
149.220900
31
0.000000
62
7
0
LINE
100
AcDbEntity
100
AcDbLine
8
PCL_Layer
5
1092
10
164.010300
20
149.220900
30
0.000000
11
164.010300
21
135.257200
31
0.000000
62
7
0
LINE
100
AcDbEntity
100
AcDbLine
8
PCL_Layer
5
1093
10
164.010300
20
135.257200
30
0.000000
11
150.021600
21
135.257200
31
0.000000
62
7
0
LINE
100
AcDbEntity
100
AcDbLine
8
PCL_Layer
5
1094
10
192.938600
20
72.996300
30
0.000000
11
206.927200
21
72.946300
31
0.000000
62
7
0
LINE
100
AcDbEntity
100
AcDbLine
8
PCL_Layer
5
1095
10
192.938600
20
59.007700
30
0.000000
11
192.938600
21
72.996300
31
0.000000
62
7
0
LINE
100
AcDbEntity
100
AcDbLine
8
PCL_Layer
5
1096
10
206.927200
20
58.982700
30
0.000000
11
192.938600
21
59.007700
31
0.000000
62
7
0
LINE
100
AcDbEntity
100
AcDbLine
8
PCL_Layer
5
1097
10
206.927200
20
58.982700
30
0.000000
11
206.927200
21
72.946300
31
0.000000
62
7
0
LINE
100
AcDbEntity
100
AcDbLine
8
PCL_Layer
5
1098
10
216.786900
20
72.971300
30
0.000000
11
230.750500
21
72.946300
31
0.000000
62
7
0
LINE
100
AcDbEntity
100
AcDbLine
8
PCL_Layer
5
1099
10
216.786900
20
58.982700
30
0.000000
11
216.786900
21
72.971300
31
0.000000
62
7
0
LINE
100
AcDbEntity
100
AcDbLine
8
PCL_Layer
5
109A
10
230.750500
20
72.971300
30
0.000000
11
230.750500
21
58.982700
31
0.000000
62
7
0
LINE
100
AcDbEntity
100
AcDbLine
8
PCL_Layer
5
109B
10
230.750500
20
58.982700
30
0.000000
11
216.786900
21
58.982700
31
0.000000
62
7
0
LINE
100
AcDbEntity
100
AcDbLine
8
PCL_Layer
5
109C
10
335.953300
20
72.946300
30
0.000000
11
349.942000
21
72.946300
31
0.000000
62
7
0
LINE
100
AcDbEntity
100
AcDbLine
8
PCL_Layer
5
109D
10
335.953300
20
58.982700
30
0.000000
11
335.953300
21
72.946300
31
0.000000
62
7
0
LINE
100
AcDbEntity
100
AcDbLine
8
PCL_Layer
5
109E
10
349.942000
20
72.946300
30
0.000000
11
349.942000
21
58.982700
31
0.000000
62
7
0
LINE
100
AcDbEntity
100
AcDbLine
8
PCL_Layer
5
109F
10
349.942000
20
58.982700
30
0.000000
11
335.953300
21
58.982700
31
0.000000
62
7
0
LINE
100
AcDbEntity
100
AcDbLine
8
PCL_Layer
5
10A0
10
445.585500
20
168.289500
30
0.000000
11
459.574200
21
168.289500
31
0.000000
62
7
0
LINE
100
AcDbEntity
100
AcDbLine
8
PCL_Layer
5
10A1
10
445.585500
20
154.325800
30
0.000000
11
445.585500
21
168.289500
31
0.000000
62
7
0
LINE
100
AcDbEntity
100
AcDbLine
8
PCL_Layer
5
10A2
10
459.574200
20
168.289500
30
0.000000
11
459.574200
21
154.325800
31
0.000000
62
7
0
LINE
100
AcDbEntity
100
AcDbLine
8
PCL_Layer
5
10A3
10
459.574200
20
154.325800
30
0.000000
11
445.585500
21
154.325800
31
0.000000
62
7
0
LINE
100
AcDbEntity
100
AcDbLine
8
PCL_Layer
5
10A4
10
407.448200
20
130.152200
30
0.000000
11
421.436900
21
130.152200
31
0.000000
62
7
0
LINE
100
AcDbEntity
100
AcDbLine
8
PCL_Layer
5
10A5
10
407.448200
20
116.188600
30
0.000000
11
407.448200
21
130.152200
31
0.000000
62
7
0
LINE
100
AcDbEntity
100
AcDbLine
8
PCL_Layer
5
10A6
10
421.436900
20
130.152200
30
0.000000
11
421.436900
21
116.188600
31
0.000000
62
7
0
LINE
100
AcDbEntity
100
AcDbLine
8
PCL_Layer
5
10A7
10
421.436900
20
116.188600
30
0.000000
11
407.448200
21
116.188600
31
0.000000
62
7
0
LINE
100
AcDbEntity
100
AcDbLine
8
PCL_Layer
5
10A8
10
259.678800
20
111.083600
30
0.000000
11
273.667500
21
111.083600
31
0.000000
62
7
0
LINE
100
AcDbEntity
100
AcDbLine
8
PCL_Layer
5
10A9
10
259.678800
20
97.119900
30
0.000000
11
259.678800
21
111.083600
31
0.000000
62
7
0
LINE
100
AcDbEntity
100
AcDbLine
8
PCL_Layer
5
10AA
10
273.667500
20
111.083600
30
0.000000
11
273.667500
21
97.119900
31
0.000000
62
7
0
LINE
100
AcDbEntity
100
AcDbLine
8
PCL_Layer
5
10AB
10
273.667500
20
97.119900
30
0.000000
11
259.678800
21
97.119900
31
0.000000
62
7
0
LINE
100
AcDbEntity
100
AcDbLine
8
PCL_Layer
5
10AC
10
16.566200
20
149.220900
30
0.000000
11
30.529800
21
149.220900
31
0.000000
62
7
0
LINE
100
AcDbEntity
100
AcDbLine
8
PCL_Layer
5
10AD
10
16.566200
20
135.257200
30
0.000000
11
16.566200
21
149.220900
31
0.000000
62
7
0
LINE
100
AcDbEntity
100
AcDbLine
8
PCL_Layer
5
10AE
10
30.529800
20
149.220900
30
0.000000
11
30.529800
21
135.257200
31
0.000000
62
7
0
LINE
100
AcDbEntity
100
AcDbLine
8
PCL_Layer
5
10AF
10
30.529800
20
135.257200
30
0.000000
11
16.566200
21
135.257200
31
0.000000
62
7
0
LINE
100
AcDbEntity
100
AcDbLine
8
PCL_Layer
5
10B0
10
331.173700
20
130.152200
30
0.000000
11
345.162400
21
130.152200
31
0.000000
62
7
0
LINE
100
AcDbEntity
100
AcDbLine
8
PCL_Layer
5
10B1
10
331.173700
20
116.188600
30
0.000000
11
331.173700
21
130.152200
31
0.000000
62
7
0
LINE
100
AcDbEntity
100
AcDbLine
8
PCL_Layer
5
10B2
10
345.162400
20
130.152200
30
0.000000
11
345.162400
21
116.188600
31
0.000000
62
7
0
LINE
100
AcDbEntity
100
AcDbLine
8
PCL_Layer
5
10B3
10
345.162400
20
116.188600
30
0.000000
11
331.173700
21
116.188600
31
0.000000
62
7
0
LINE
100
AcDbEntity
100
AcDbLine
8
PCL_Layer
5
10B4
10
254.924200
20
168.289500
30
0.000000
11
268.887800
21
168.289500
31
0.000000
62
7
0
LINE
100
AcDbEntity
100
AcDbLine
8
PCL_Layer
5
10B5
10
254.924200
20
154.325800
30
0.000000
11
254.924200
21
168.289500
31
0.000000
62
7
0
LINE
100
AcDbEntity
100
AcDbLine
8
PCL_Layer
5
10B6
10
268.887800
20
168.289500
30
0.000000
11
268.887800
21
154.325800
31
0.000000
62
7
0
LINE
100
AcDbEntity
100
AcDbLine
8
PCL_Layer
5
10B7
10
268.887800
20
154.325800
30
0.000000
11
254.924200
21
154.325800
31
0.000000
62
7
0
LINE
100
AcDbEntity
100
AcDbLine
8
PCL_Layer
5
10B8
10
169.090300
20
149.220900
30
0.000000
11
183.078900
21
149.220900
31
0.000000
62
7
0
LINE
100
AcDbEntity
100
AcDbLine
8
PCL_Layer
5
10B9
10
169.090300
20
135.257200
30
0.000000
11
169.090300
21
149.220900
31
0.000000
62
7
0
LINE
100
AcDbEntity
100
AcDbLine
8
PCL_Layer
5
10BA
10
183.078900
20
149.220900
30
0.000000
11
183.078900
21
135.257200
31
0.000000
62
7
0
LINE
100
AcDbEntity
100
AcDbLine
8
PCL_Layer
5
10BB
10
183.078900
20
135.257200
30
0.000000
11
169.090300
21
135.257200
31
0.000000
62
7
0
LINE
100
AcDbEntity
100
AcDbLine
8
PCL_Layer
5
10BC
10
254.899100
20
130.152200
30
0.000000
11
268.887800
21
130.152200
31
0.000000
62
7
0
LINE
100
AcDbEntity
100
AcDbLine
8
PCL_Layer
5
10BD
10
254.899100
20
116.188600
30
0.000000
11
254.899100
21
130.152200
31
0.000000
62
7
0
LINE
100
AcDbEntity
100
AcDbLine
8
PCL_Layer
5
10BE
10
268.887800
20
130.152200
30
0.000000
11
268.887800
21
116.188600
31
0.000000
62
7
0
LINE
100
AcDbEntity
100
AcDbLine
8
PCL_Layer
5
10BF
10
268.887800
20
116.188600
30
0.000000
11
254.899100
21
116.188600
31
0.000000
62
7
0
LINE
100
AcDbEntity
100
AcDbLine
8
PCL_Layer
5
10C0
10
235.830500
20
130.152200
30
0.000000
11
249.819200
21
130.152200
31
0.000000
62
7
0
LINE
100
AcDbEntity
100
AcDbLine
8
PCL_Layer
5
10C1
10
235.830500
20
116.188600
30
0.000000
11
235.830500
21
130.152200
31
0.000000
62
7
0
LINE
100
AcDbEntity
100
AcDbLine
8
PCL_Layer
5
10C2
10
249.819200
20
130.152200
30
0.000000
11
249.819200
21
116.188600
31
0.000000
62
7
0
LINE
100
AcDbEntity
100
AcDbLine
8
PCL_Layer
5
10C3
10
249.819200
20
116.188600
30
0.000000
11
235.830500
21
116.188600
31
0.000000
62
7
0
LINE
100
AcDbEntity
100
AcDbLine
8
PCL_Layer
5
10C4
10
297.816100
20
111.083600
30
0.000000
11
311.804700
21
111.083600
31
0.000000
62
7
0
LINE
100
AcDbEntity
100
AcDbLine
8
PCL_Layer
5
10C5
10
297.816100
20
97.119900
30
0.000000
11
297.816100
21
111.083600
31
0.000000
62
7
0
LINE
100
AcDbEntity
100
AcDbLine
8
PCL_Layer
5
10C6
10
311.804700
20
111.083600
30
0.000000
11
311.804700
21
97.119900
31
0.000000
62
7
0
LINE
100
AcDbEntity
100
AcDbLine
8
PCL_Layer
5
10C7
10
311.804700
20
97.119900
30
0.000000
11
297.816100
21
97.119900
31
0.000000
62
7
0
LINE
100
AcDbEntity
100
AcDbLine
8
PCL_Layer
5
10C8
10
40.389500
20
92.014900
30
0.000000
11
54.378100
21
92.014900
31
0.000000
62
7
0
LINE
100
AcDbEntity
100
AcDbLine
8
PCL_Layer
5
10C9
10
40.389500
20
78.051300
30
0.000000
11
40.389500
21
92.014900
31
0.000000
62
7
0
LINE
100
AcDbEntity
100
AcDbLine
8
PCL_Layer
5
10CA
10
54.378100
20
92.014900
30
0.000000
11
54.378100
21
78.051300
31
0.000000
62
7
0
LINE
100
AcDbEntity
100
AcDbLine
8
PCL_Layer
5
10CB
10
54.378100
20
78.051300
30
0.000000
11
40.389500
21
78.051300
31
0.000000
62
7
0
LINE
100
AcDbEntity
100
AcDbLine
8
PCL_Layer
5
10CC
10
64.237800
20
130.152200
30
0.000000
11
78.201400
21
130.152200
31
0.000000
62
7
0
LINE
100
AcDbEntity
100
AcDbLine
8
PCL_Layer
5
10CD
10
64.237800
20
116.188600
30
0.000000
11
64.237800
21
130.152200
31
0.000000
62
7
0
LINE
100
AcDbEntity
100
AcDbLine
8
PCL_Layer
5
10CE
10
78.201400
20
130.152200
30
0.000000
11
78.201400
21
116.188600
31
0.000000
62
7
0
LINE
100
AcDbEntity
100
AcDbLine
8
PCL_Layer
5
10CF
10
78.201400
20
116.188600
30
0.000000
11
64.237800
21
116.188600
31
0.000000
62
7
0
LINE
100
AcDbEntity
100
AcDbLine
8
PCL_Layer
5
10D0
10
455.119800
20
92.014900
30
0.000000
11
469.108500
21
92.014900
31
0.000000
62
7
0
LINE
100
AcDbEntity
100
AcDbLine
8
PCL_Layer
5
10D1
10
455.119800
20
78.051300
30
0.000000
11
455.119800
21
92.014900
31
0.000000
62
7
0
LINE
100
AcDbEntity
100
AcDbLine
8
PCL_Layer
5
10D2
10
469.108500
20
92.014900
30
0.000000
11
469.108500
21
78.051300
31
0.000000
62
7
0
LINE
100
AcDbEntity
100
AcDbLine
8
PCL_Layer
5
10D3
10
469.108500
20
78.051300
30
0.000000
11
455.119800
21
78.051300
31
0.000000
62
7
0
LINE
100
AcDbEntity
100
AcDbLine
8
PCL_Layer
5
10D4
10
364.556300
20
72.946300
30
0.000000
11
378.545000
21
72.946300
31
0.000000
62
7
0
LINE
100
AcDbEntity
100
AcDbLine
8
PCL_Layer
5
10D5
10
364.556300
20
58.982700
30
0.000000
11
364.556300
21
72.946300
31
0.000000
62
7
0
LINE
100
AcDbEntity
100
AcDbLine
8
PCL_Layer
5
10D6
10
378.545000
20
72.946300
30
0.000000
11
378.545000
21
58.982700
31
0.000000
62
7
0
LINE
100
AcDbEntity
100
AcDbLine
8
PCL_Layer
5
10D7
10
378.545000
20
58.982700
30
0.000000
11
364.556300
21
58.982700
31
0.000000
62
7
0
LINE
100
AcDbEntity
100
AcDbLine
8
PCL_Layer
5
10D8
10
212.007200
20
92.014900
30
0.000000
11
225.995900
21
92.014900
31
0.000000
62
7
0
LINE
100
AcDbEntity
100
AcDbLine
8
PCL_Layer
5
10D9
10
212.007200
20
78.051300
30
0.000000
11
212.007200
21
92.014900
31
0.000000
62
7
0
LINE
100
AcDbEntity
100
AcDbLine
8
PCL_Layer
5
10DA
10
225.995900
20
92.014900
30
0.000000
11
225.995900
21
78.051300
31
0.000000
62
7
0
LINE
100
AcDbEntity
100
AcDbLine
8
PCL_Layer
5
10DB
10
225.995900
20
78.051300
30
0.000000
11
212.007200
21
78.051300
31
0.000000
62
7
0
LINE
100
AcDbEntity
100
AcDbLine
8
PCL_Layer
5
10DC
10
202.472900
20
111.083600
30
0.000000
11
216.461600
21
111.083600
31
0.000000
62
7
0
LINE
100
AcDbEntity
100
AcDbLine
8
PCL_Layer
5
10DD
10
202.472900
20
97.119900
30
0.000000
11
202.472900
21
111.083600
31
0.000000
62
7
0
LINE
100
AcDbEntity
100
AcDbLine
8
PCL_Layer
5
10DE
10
216.461600
20
111.083600
30
0.000000
11
216.461600
21
97.119900
31
0.000000
62
7
0
LINE
100
AcDbEntity
100
AcDbLine
8
PCL_Layer
5
10DF
10
216.461600
20
97.119900
30
0.000000
11
202.472900
21
97.119900
31
0.000000
62
7
0
LINE
100
AcDbEntity
100
AcDbLine
8
PCL_Layer
5
10E0
10
331.173700
20
92.065000
30
0.000000
11
345.162400
21
92.014900
31
0.000000
62
7
0
LINE
100
AcDbEntity
100
AcDbLine
8
PCL_Layer
5
10E1
10
331.173700
20
78.076300
30
0.000000
11
331.173700
21
92.065000
31
0.000000
62
7
0
LINE
100
AcDbEntity
100
AcDbLine
8
PCL_Layer
5
10E2
10
345.162400
20
78.051300
30
0.000000
11
331.173700
21
78.076300
31
0.000000
62
7
0
LINE
100
AcDbEntity
100
AcDbLine
8
PCL_Layer
5
10E3
10
345.162400
20
78.051300
30
0.000000
11
345.162400
21
92.014900
31
0.000000
62
7
0
LINE
100
AcDbEntity
100
AcDbLine
8
PCL_Layer
5
10E4
10
355.022000
20
92.040000
30
0.000000
11
369.010700
21
92.014900
31
0.000000
62
7
0
LINE
100
AcDbEntity
100
AcDbLine
8
PCL_Layer
5
10E5
10
355.022000
20
78.051300
30
0.000000
11
355.022000
21
92.040000
31
0.000000
62
7
0
LINE
100
AcDbEntity
100
AcDbLine
8
PCL_Layer
5
10E6
10
369.010700
20
92.040000
30
0.000000
11
369.010700
21
78.051300
31
0.000000
62
7
0
LINE
100
AcDbEntity
100
AcDbLine
8
PCL_Layer
5
10E7
10
369.010700
20
78.051300
30
0.000000
11
355.022000
21
78.051300
31
0.000000
62
7
0
LINE
100
AcDbEntity
100
AcDbLine
8
PCL_Layer
5
10E8
10
378.845200
20
92.014900
30
0.000000
11
392.834000
21
92.014900
31
0.000000
62
7
0
LINE
100
AcDbEntity
100
AcDbLine
8
PCL_Layer
5
10E9
10
378.845200
20
78.051300
30
0.000000
11
378.845200
21
92.014900
31
0.000000
62
7
0
LINE
100
AcDbEntity
100
AcDbLine
8
PCL_Layer
5
10EA
10
392.834000
20
92.014900
30
0.000000
11
392.834000
21
78.051300
31
0.000000
62
7
0
LINE
100
AcDbEntity
100
AcDbLine
8
PCL_Layer
5
10EB
10
392.834000
20
78.051300
30
0.000000
11
378.845200
21
78.051300
31
0.000000
62
7
0
LINE
100
AcDbEntity
100
AcDbLine
8
PCL_Layer
5
10EC
10
445.585500
20
111.083600
30
0.000000
11
459.574200
21
111.083600
31
0.000000
62
7
0
LINE
100
AcDbEntity
100
AcDbLine
8
PCL_Layer
5
10ED
10
445.585500
20
97.119900
30
0.000000
11
445.585500
21
111.083600
31
0.000000
62
7
0
LINE
100
AcDbEntity
100
AcDbLine
8
PCL_Layer
5
10EE
10
459.574200
20
111.083600
30
0.000000
11
459.574200
21
97.119900
31
0.000000
62
7
0
LINE
100
AcDbEntity
100
AcDbLine
8
PCL_Layer
5
10EF
10
459.574200
20
97.119900
30
0.000000
11
445.585500
21
97.119900
31
0.000000
62
7
0
LINE
100
AcDbEntity
100
AcDbLine
8
PCL_Layer
5
10F0
10
64.237800
20
111.083600
30
0.000000
11
78.201400
21
111.083600
31
0.000000
62
7
0
LINE
100
AcDbEntity
100
AcDbLine
8
PCL_Layer
5
10F1
10
64.237800
20
97.119900
30
0.000000
11
64.237800
21
111.083600
31
0.000000
62
7
0
LINE
100
AcDbEntity
100
AcDbLine
8
PCL_Layer
5
10F2
10
78.201400
20
111.083600
30
0.000000
11
78.201400
21
97.119900
31
0.000000
62
7
0
LINE
100
AcDbEntity
100
AcDbLine
8
PCL_Layer
5
10F3
10
78.201400
20
97.119900
30
0.000000
11
64.237800
21
97.119900
31
0.000000
62
7
0
LINE
100
AcDbEntity
100
AcDbLine
8
PCL_Layer
5
10F4
10
26.100500
20
168.289500
30
0.000000
11
40.064200
21
168.289500
31
0.000000
62
7
0
LINE
100
AcDbEntity
100
AcDbLine
8
PCL_Layer
5
10F5
10
26.100500
20
154.325800
30
0.000000
11
26.100500
21
168.289500
31
0.000000
62
7
0
LINE
100
AcDbEntity
100
AcDbLine
8
PCL_Layer
5
10F6
10
40.064200
20
168.289500
30
0.000000
11
40.064200
21
154.325800
31
0.000000
62
7
0
LINE
100
AcDbEntity
100
AcDbLine
8
PCL_Layer
5
10F7
10
40.064200
20
154.325800
30
0.000000
11
26.100500
21
154.325800
31
0.000000
62
7
0
LINE
100
AcDbEntity
100
AcDbLine
8
PCL_Layer
5
10F8
10
78.526700
20
72.946300
30
0.000000
11
92.515400
21
72.946300
31
0.000000
62
7
0
LINE
100
AcDbEntity
100
AcDbLine
8
PCL_Layer
5
10F9
10
78.526700
20
58.982700
30
0.000000
11
78.526700
21
72.946300
31
0.000000
62
7
0
LINE
100
AcDbEntity
100
AcDbLine
8
PCL_Layer
5
10FA
10
92.515400
20
72.946300
30
0.000000
11
92.515400
21
58.982700
31
0.000000
62
7
0
LINE
100
AcDbEntity
100
AcDbLine
8
PCL_Layer
5
10FB
10
92.515400
20
58.982700
30
0.000000
11
78.526700
21
58.982700
31
0.000000
62
7
0
LINE
100
AcDbEntity
100
AcDbLine
8
PCL_Layer
5
10FC
10
245.364800
20
149.220900
30
0.000000
11
259.353500
21
149.220900
31
0.000000
62
7
0
LINE
100
AcDbEntity
100
AcDbLine
8
PCL_Layer
5
10FD
10
245.364800
20
135.257200
30
0.000000
11
245.364800
21
149.220900
31
0.000000
62
7
0
LINE
100
AcDbEntity
100
AcDbLine
8
PCL_Layer
5
10FE
10
259.353500
20
149.220900
30
0.000000
11
259.353500
21
135.257200
31
0.000000
62
7
0
LINE
100
AcDbEntity
100
AcDbLine
8
PCL_Layer
5
10FF
10
259.353500
20
135.257200
30
0.000000
11
245.364800
21
135.257200
31
0.000000
62
7
0
LINE
100
AcDbEntity
100
AcDbLine
8
PCL_Layer
5
1100
10
102.375100
20
168.289500
30
0.000000
11
116.338700
21
168.289500
31
0.000000
62
7
0
LINE
100
AcDbEntity
100
AcDbLine
8
PCL_Layer
5
1101
10
102.375100
20
154.325800
30
0.000000
11
102.375100
21
168.289500
31
0.000000
62
7
0
LINE
100
AcDbEntity
100
AcDbLine
8
PCL_Layer
5
1102
10
116.338700
20
168.289500
30
0.000000
11
116.338700
21
154.325800
31
0.000000
62
7
0
LINE
100
AcDbEntity
100
AcDbLine
8
PCL_Layer
5
1103
10
116.338700
20
154.325800
30
0.000000
11
102.375100
21
154.325800
31
0.000000
62
7
0
LINE
100
AcDbEntity
100
AcDbLine
8
PCL_Layer
5
1104
10
302.570700
20
149.220900
30
0.000000
11
316.559400
21
149.220900
31
0.000000
62
7
0
LINE
100
AcDbEntity
100
AcDbLine
8
PCL_Layer
5
1105
10
302.570700
20
135.257200
30
0.000000
11
302.570700
21
149.220900
31
0.000000
62
7
0
LINE
100
AcDbEntity
100
AcDbLine
8
PCL_Layer
5
1106
10
316.559400
20
149.220900
30
0.000000
11
316.559400
21
135.257200
31
0.000000
62
7
0
LINE
100
AcDbEntity
100
AcDbLine
8
PCL_Layer
5
1107
10
316.559400
20
135.257200
30
0.000000
11
302.570700
21
135.257200
31
0.000000
62
7
0
LINE
100
AcDbEntity
100
AcDbLine
8
PCL_Layer
5
1108
10
164.335600
20
72.946300
30
0.000000
11
178.324300
21
72.946300
31
0.000000
62
7
0
LINE
100
AcDbEntity
100
AcDbLine
8
PCL_Layer
5
1109
10
164.335600
20
58.982700
30
0.000000
11
164.335600
21
72.946300
31
0.000000
62
7
0
LINE
100
AcDbEntity
100
AcDbLine
8
PCL_Layer
5
110A
10
178.324300
20
72.946300
30
0.000000
11
178.324300
21
58.982700
31
0.000000
62
7
0
LINE
100
AcDbEntity
100
AcDbLine
8
PCL_Layer
5
110B
10
178.324300
20
58.982700
30
0.000000
11
164.335600
21
58.982700
31
0.000000
62
7
0
LINE
100
AcDbEntity
100
AcDbLine
8
PCL_Layer
5
110C
10
21.320800
20
72.946300
30
0.000000
11
35.309500
21
72.946300
31
0.000000
62
7
0
LINE
100
AcDbEntity
100
AcDbLine
8
PCL_Layer
5
110D
10
21.320800
20
58.982700
30
0.000000
11
21.320800
21
72.946300
31
0.000000
62
7
0
LINE
100
AcDbEntity
100
AcDbLine
8
PCL_Layer
5
110E
10
35.309500
20
72.946300
30
0.000000
11
35.309500
21
58.982700
31
0.000000
62
7
0
LINE
100
AcDbEntity
100
AcDbLine
8
PCL_Layer
5
110F
10
35.309500
20
58.982700
30
0.000000
11
21.320800
21
58.982700
31
0.000000
62
7
0
LINE
100
AcDbEntity
100
AcDbLine
8
PCL_Layer
5
1110
10
154.801300
20
92.014900
30
0.000000
11
168.790000
21
92.014900
31
0.000000
62
7
0
LINE
100
AcDbEntity
100
AcDbLine
8
PCL_Layer
5
1111
10
154.801300
20
78.051300
30
0.000000
11
154.801300
21
92.014900
31
0.000000
62
7
0
LINE
100
AcDbEntity
100
AcDbLine
8
PCL_Layer
5
1112
10
168.790000
20
92.014900
30
0.000000
11
168.790000
21
78.051300
31
0.000000
62
7
0
LINE
100
AcDbEntity
100
AcDbLine
8
PCL_Layer
5
1113
10
168.790000
20
78.051300
30
0.000000
11
154.801300
21
78.051300
31
0.000000
62
7
0
LINE
100
AcDbEntity
100
AcDbLine
8
PCL_Layer
5
1114
10
145.267000
20
111.083600
30
0.000000
11
159.255600
21
111.083600
31
0.000000
62
7
0
LINE
100
AcDbEntity
100
AcDbLine
8
PCL_Layer
5
1115
10
145.267000
20
97.119900
30
0.000000
11
145.267000
21
111.083600
31
0.000000
62
7
0
LINE
100
AcDbEntity
100
AcDbLine
8
PCL_Layer
5
1116
10
159.255600
20
111.083600
30
0.000000
11
159.255600
21
97.119900
31
0.000000
62
7
0
LINE
100
AcDbEntity
100
AcDbLine
8
PCL_Layer
5
1117
10
159.255600
20
97.119900
30
0.000000
11
145.267000
21
97.119900
31
0.000000
62
7
0
LINE
100
AcDbEntity
100
AcDbLine
8
PCL_Layer
5
1118
10
436.051200
20
130.152200
30
0.000000
11
450.039900
21
130.152200
31
0.000000
62
7
0
LINE
100
AcDbEntity
100
AcDbLine
8
PCL_Layer
5
1119
10
436.051200
20
116.188600
30
0.000000
11
436.051200
21
130.152200
31
0.000000
62
7
0
LINE
100
AcDbEntity
100
AcDbLine
8
PCL_Layer
5
111A
10
450.039900
20
130.152200
30
0.000000
11
450.039900
21
116.188600
31
0.000000
62
7
0
LINE
100
AcDbEntity
100
AcDbLine
8
PCL_Layer
5
111B
10
450.039900
20
116.188600
30
0.000000
11
436.051200
21
116.188600
31
0.000000
62
7
0
LINE
100
AcDbEntity
100
AcDbLine
8
PCL_Layer
5
111C
10
92.840700
20
149.220900
30
0.000000
11
106.804400
21
149.220900
31
0.000000
62
7
0
LINE
100
AcDbEntity
100
AcDbLine
8
PCL_Layer
5
111D
10
92.840700
20
135.257200
30
0.000000
11
92.840700
21
149.220900
31
0.000000
62
7
0
LINE
100
AcDbEntity
100
AcDbLine
8
PCL_Layer
5
111E
10
106.804400
20
149.220900
30
0.000000
11
106.804400
21
135.257200
31
0.000000
62
7
0
LINE
100
AcDbEntity
100
AcDbLine
8
PCL_Layer
5
111F
10
106.804400
20
135.257200
30
0.000000
11
92.840700
21
135.257200
31
0.000000
62
7
0
LINE
100
AcDbEntity
100
AcDbLine
8
PCL_Layer
5
1120
10
407.448200
20
111.083600
30
0.000000
11
421.436900
21
111.083600
31
0.000000
62
7
0
LINE
100
AcDbEntity
100
AcDbLine
8
PCL_Layer
5
1121
10
407.448200
20
97.119900
30
0.000000
11
407.448200
21
111.083600
31
0.000000
62
7
0
LINE
100
AcDbEntity
100
AcDbLine
8
PCL_Layer
5
1122
10
421.436900
20
111.083600
30
0.000000
11
421.436900
21
97.119900
31
0.000000
62
7
0
LINE
100
AcDbEntity
100
AcDbLine
8
PCL_Layer
5
1123
10
421.436900
20
97.119900
30
0.000000
11
407.448200
21
97.119900
31
0.000000
62
7
0
LINE
100
AcDbEntity
100
AcDbLine
8
PCL_Layer
5
1124
10
269.213100
20
92.014900
30
0.000000
11
283.201800
21
92.014900
31
0.000000
62
7
0
LINE
100
AcDbEntity
100
AcDbLine
8
PCL_Layer
5
1125
10
269.213100
20
78.051300
30
0.000000
11
269.213100
21
92.014900
31
0.000000
62
7
0
LINE
100
AcDbEntity
100
AcDbLine
8
PCL_Layer
5
1126
10
283.201800
20
92.014900
30
0.000000
11
283.201800
21
78.051300
31
0.000000
62
7
0
LINE
100
AcDbEntity
100
AcDbLine
8
PCL_Layer
5
1127
10
283.201800
20
78.051300
30
0.000000
11
269.213100
21
78.051300
31
0.000000
62
7
0
LINE
100
AcDbEntity
100
AcDbLine
8
PCL_Layer
5
1128
10
285.904400
20
72.946300
30
0.000000
11
299.893100
21
72.946300
31
0.000000
62
7
0
LINE
100
AcDbEntity
100
AcDbLine
8
PCL_Layer
5
1129
10
285.904400
20
58.982700
30
0.000000
11
285.904400
21
72.946300
31
0.000000
62
7
0
LINE
100
AcDbEntity
100
AcDbLine
8
PCL_Layer
5
112A
10
299.893100
20
72.946300
30
0.000000
11
299.893100
21
58.982700
31
0.000000
62
7
0
LINE
100
AcDbEntity
100
AcDbLine
8
PCL_Layer
5
112B
10
299.893100
20
58.982700
30
0.000000
11
285.904400
21
58.982700
31
0.000000
62
7
0
LINE
100
AcDbEntity
100
AcDbLine
8
PCL_Layer
5
112C
10
64.237800
20
168.289500
30
0.000000
11
78.201400
21
168.289500
31
0.000000
62
7
0
LINE
100
AcDbEntity
100
AcDbLine
8
PCL_Layer
5
112D
10
64.237800
20
154.325800
30
0.000000
11
64.237800
21
168.289500
31
0.000000
62
7
0
LINE
100
AcDbEntity
100
AcDbLine
8
PCL_Layer
5
112E
10
78.201400
20
168.289500
30
0.000000
11
78.201400
21
154.325800
31
0.000000
62
7
0
LINE
100
AcDbEntity
100
AcDbLine
8
PCL_Layer
5
112F
10
78.201400
20
154.325800
30
0.000000
11
64.237800
21
154.325800
31
0.000000
62
7
0
LINE
100
AcDbEntity
100
AcDbLine
8
PCL_Layer
5
1130
10
107.129700
20
72.946300
30
0.000000
11
121.118400
21
72.946300
31
0.000000
62
7
0
LINE
100
AcDbEntity
100
AcDbLine
8
PCL_Layer
5
1131
10
107.129700
20
58.982700
30
0.000000
11
107.129700
21
72.946300
31
0.000000
62
7
0
LINE
100
AcDbEntity
100
AcDbLine
8
PCL_Layer
5
1132
10
121.118400
20
72.946300
30
0.000000
11
121.118400
21
58.982700
31
0.000000
62
7
0
LINE
100
AcDbEntity
100
AcDbLine
8
PCL_Layer
5
1133
10
121.118400
20
58.982700
30
0.000000
11
107.129700
21
58.982700
31
0.000000
62
7
0
LINE
100
AcDbEntity
100
AcDbLine
8
PCL_Layer
5
1134
10
178.624600
20
130.152200
30
0.000000
11
192.613300
21
130.152200
31
0.000000
62
7
0
LINE
100
AcDbEntity
100
AcDbLine
8
PCL_Layer
5
1135
10
178.624600
20
116.188600
30
0.000000
11
178.624600
21
130.152200
31
0.000000
62
7
0
LINE
100
AcDbEntity
100
AcDbLine
8
PCL_Layer
5
1136
10
192.613300
20
130.152200
30
0.000000
11
192.613300
21
116.188600
31
0.000000
62
7
0
LINE
100
AcDbEntity
100
AcDbLine
8
PCL_Layer
5
1137
10
192.613300
20
116.188600
30
0.000000
11
178.624600
21
116.188600
31
0.000000
62
7
0
LINE
100
AcDbEntity
100
AcDbLine
8
PCL_Layer
5
1138
10
421.762200
20
72.946300
30
0.000000
11
435.750900
21
72.946300
31
0.000000
62
7
0
LINE
100
AcDbEntity
100
AcDbLine
8
PCL_Layer
5
1139
10
421.762200
20
58.982700
30
0.000000
11
421.762200
21
72.946300
31
0.000000
62
7
0
LINE
100
AcDbEntity
100
AcDbLine
8
PCL_Layer
5
113A
10
435.750900
20
72.946300
30
0.000000
11
435.750900
21
58.982700
31
0.000000
62
7
0
LINE
100
AcDbEntity
100
AcDbLine
8
PCL_Layer
5
113B
10
435.750900
20
58.982700
30
0.000000
11
421.762200
21
58.982700
31
0.000000
62
7
0
LINE
100
AcDbEntity
100
AcDbLine
8
PCL_Layer
5
113C
10
164.335600
20
111.083600
30
0.000000
11
178.324300
21
111.083600
31
0.000000
62
7
0
LINE
100
AcDbEntity
100
AcDbLine
8
PCL_Layer
5
113D
10
164.335600
20
97.119900
30
0.000000
11
164.335600
21
111.083600
31
0.000000
62
7
0
LINE
100
AcDbEntity
100
AcDbLine
8
PCL_Layer
5
113E
10
178.324300
20
111.083600
30
0.000000
11
178.324300
21
97.119900
31
0.000000
62
7
0
LINE
100
AcDbEntity
100
AcDbLine
8
PCL_Layer
5
113F
10
178.324300
20
97.119900
30
0.000000
11
164.335600
21
97.119900
31
0.000000
62
7
0
LINE
100
AcDbEntity
100
AcDbLine
8
PCL_Layer
5
1140
10
178.649600
20
168.289500
30
0.000000
11
192.613300
21
168.289500
31
0.000000
62
7
0
LINE
100
AcDbEntity
100
AcDbLine
8
PCL_Layer
5
1141
10
178.649600
20
154.325800
30
0.000000
11
178.649600
21
168.289500
31
0.000000
62
7
0
LINE
100
AcDbEntity
100
AcDbLine
8
PCL_Layer
5
1142
10
192.613300
20
168.289500
30
0.000000
11
192.613300
21
154.325800
31
0.000000
62
7
0
LINE
100
AcDbEntity
100
AcDbLine
8
PCL_Layer
5
1143
10
192.613300
20
154.325800
30
0.000000
11
178.649600
21
154.325800
31
0.000000
62
7
0
LINE
100
AcDbEntity
100
AcDbLine
8
PCL_Layer
5
1144
10
345.487700
20
111.083600
30
0.000000
11
359.476300
21
111.083600
31
0.000000
62
7
0
LINE
100
AcDbEntity
100
AcDbLine
8
PCL_Layer
5
1145
10
345.487700
20
97.119900
30
0.000000
11
345.487700
21
111.083600
31
0.000000
62
7
0
LINE
100
AcDbEntity
100
AcDbLine
8
PCL_Layer
5
1146
10
359.476300
20
111.083600
30
0.000000
11
359.476300
21
97.119900
31
0.000000
62
7
0
LINE
100
AcDbEntity
100
AcDbLine
8
PCL_Layer
5
1147
10
359.476300
20
97.119900
30
0.000000
11
345.487700
21
97.119900
31
0.000000
62
7
0
LINE
100
AcDbEntity
100
AcDbLine
8
PCL_Layer
5
1148
10
293.061400
20
168.289500
30
0.000000
11
307.025100
21
168.289500
31
0.000000
62
7
0
LINE
100
AcDbEntity
100
AcDbLine
8
PCL_Layer
5
1149
10
293.061400
20
154.325800
30
0.000000
11
293.061400
21
168.289500
31
0.000000
62
7
0
LINE
100
AcDbEntity
100
AcDbLine
8
PCL_Layer
5
114A
10
307.025100
20
168.289500
30
0.000000
11
307.025100
21
154.325800
31
0.000000
62
7
0
LINE
100
AcDbEntity
100
AcDbLine
8
PCL_Layer
5
114B
10
307.025100
20
154.325800
30
0.000000
11
293.061400
21
154.325800
31
0.000000
62
7
0
LINE
100
AcDbEntity
100
AcDbLine
8
PCL_Layer
5
114C
10
321.639300
20
149.220900
30
0.000000
11
335.628000
21
149.220900
31
0.000000
62
7
0
LINE
100
AcDbEntity
100
AcDbLine
8
PCL_Layer
5
114D
10
321.639300
20
135.257200
30
0.000000
11
321.639300
21
149.220900
31
0.000000
62
7
0
LINE
100
AcDbEntity
100
AcDbLine
8
PCL_Layer
5
114E
10
335.628000
20
149.220900
30
0.000000
11
335.628000
21
135.257200
31
0.000000
62
7
0
LINE
100
AcDbEntity
100
AcDbLine
8
PCL_Layer
5
114F
10
335.628000
20
135.257200
30
0.000000
11
321.639300
21
135.257200
31
0.000000
62
7
0
LINE
100
AcDbEntity
100
AcDbLine
8
PCL_Layer
5
1150
10
312.105000
20
130.152200
30
0.000000
11
326.093700
21
130.152200
31
0.000000
62
7
0
LINE
100
AcDbEntity
100
AcDbLine
8
PCL_Layer
5
1151
10
312.105000
20
116.188600
30
0.000000
11
312.105000
21
130.152200
31
0.000000
62
7
0
LINE
100
AcDbEntity
100
AcDbLine
8
PCL_Layer
5
1152
10
326.093700
20
130.152200
30
0.000000
11
326.093700
21
116.188600
31
0.000000
62
7
0
LINE
100
AcDbEntity
100
AcDbLine
8
PCL_Layer
5
1153
10
326.093700
20
116.188600
30
0.000000
11
312.105000
21
116.188600
31
0.000000
62
7
0
LINE
100
AcDbEntity
100
AcDbLine
8
PCL_Layer
5
1154
10
99.972700
20
111.083600
30
0.000000
11
113.961400
21
111.083600
31
0.000000
62
7
0
LINE
100
AcDbEntity
100
AcDbLine
8
PCL_Layer
5
1155
10
99.972700
20
97.119900
30
0.000000
11
99.972700
21
111.083600
31
0.000000
62
7
0
LINE
100
AcDbEntity
100
AcDbLine
8
PCL_Layer
5
1156
10
113.961400
20
111.083600
30
0.000000
11
113.961400
21
97.119900
31
0.000000
62
7
0
LINE
100
AcDbEntity
100
AcDbLine
8
PCL_Layer
5
1157
10
113.961400
20
97.119900
30
0.000000
11
99.972700
21
97.119900
31
0.000000
62
7
0
LINE
100
AcDbEntity
100
AcDbLine
8
PCL_Layer
5
1158
10
314.982900
20
36.435600
30
0.000000
11
328.971500
21
36.435600
31
0.000000
62
7
0
LINE
100
AcDbEntity
100
AcDbLine
8
PCL_Layer
5
1159
10
314.982900
20
22.446900
30
0.000000
11
314.982900
21
36.435600
31
0.000000
62
7
0
LINE
100
AcDbEntity
100
AcDbLine
8
PCL_Layer
5
115A
10
328.971500
20
36.435600
30
0.000000
11
328.971500
21
22.446900
31
0.000000
62
7
0
LINE
100
AcDbEntity
100
AcDbLine
8
PCL_Layer
5
115B
10
328.971500
20
22.446900
30
0.000000
11
314.982900
21
22.446900
31
0.000000
62
7
0
LINE
100
AcDbEntity
100
AcDbLine
8
PCL_Layer
5
115C
10
365.031800
20
36.435600
30
0.000000
11
379.020400
21
36.435600
31
0.000000
62
7
0
LINE
100
AcDbEntity
100
AcDbLine
8
PCL_Layer
5
115D
10
365.031800
20
22.446900
30
0.000000
11
365.031800
21
36.435600
31
0.000000
62
7
0
LINE
100
AcDbEntity
100
AcDbLine
8
PCL_Layer
5
115E
10
379.020400
20
36.435600
30
0.000000
11
379.020400
21
22.446900
31
0.000000
62
7
0
LINE
100
AcDbEntity
100
AcDbLine
8
PCL_Layer
5
115F
10
379.020400
20
22.446900
30
0.000000
11
365.031800
21
22.446900
31
0.000000
62
7
0
LINE
100
AcDbEntity
100
AcDbLine
8
PCL_Layer
5
1160
10
415.105700
20
36.435600
30
0.000000
11
429.069400
21
36.435600
31
0.000000
62
7
0
LINE
100
AcDbEntity
100
AcDbLine
8
PCL_Layer
5
1161
10
415.105700
20
22.446900
30
0.000000
11
415.105700
21
36.435600
31
0.000000
62
7
0
LINE
100
AcDbEntity
100
AcDbLine
8
PCL_Layer
5
1162
10
429.069400
20
36.435600
30
0.000000
11
429.069400
21
22.446900
31
0.000000
62
7
0
LINE
100
AcDbEntity
100
AcDbLine
8
PCL_Layer
5
1163
10
429.069400
20
22.446900
30
0.000000
11
415.105700
21
22.446900
31
0.000000
62
7
0
LINE
100
AcDbEntity
100
AcDbLine
8
PCL_Layer
5
1164
10
240.610200
20
111.083600
30
0.000000
11
254.598800
21
111.083600
31
0.000000
62
7
0
LINE
100
AcDbEntity
100
AcDbLine
8
PCL_Layer
5
1165
10
240.610200
20
97.119900
30
0.000000
11
240.610200
21
111.083600
31
0.000000
62
7
0
LINE
100
AcDbEntity
100
AcDbLine
8
PCL_Layer
5
1166
10
254.598800
20
111.083600
30
0.000000
11
254.598800
21
97.119900
31
0.000000
62
7
0
LINE
100
AcDbEntity
100
AcDbLine
8
PCL_Layer
5
1167
10
254.598800
20
97.119900
30
0.000000
11
240.610200
21
97.119900
31
0.000000
62
7
0
LINE
100
AcDbEntity
100
AcDbLine
8
PCL_Layer
5
1168
10
376.467900
20
111.083600
30
0.000000
11
390.456600
21
111.083600
31
0.000000
62
7
0
LINE
100
AcDbEntity
100
AcDbLine
8
PCL_Layer
5
1169
10
376.467900
20
97.119900
30
0.000000
11
376.467900
21
111.083600
31
0.000000
62
7
0
LINE
100
AcDbEntity
100
AcDbLine
8
PCL_Layer
5
116A
10
390.456600
20
111.083600
30
0.000000
11
390.456600
21
97.119900
31
0.000000
62
7
0
LINE
100
AcDbEntity
100
AcDbLine
8
PCL_Layer
5
116B
10
390.456600
20
97.119900
30
0.000000
11
376.467900
21
97.119900
31
0.000000
62
7
0
LINE
100
AcDbEntity
100
AcDbLine
8
PCL_Layer
5
116C
10
207.227600
20
149.220900
30
0.000000
11
221.216200
21
149.220900
31
0.000000
62
7
0
LINE
100
AcDbEntity
100
AcDbLine
8
PCL_Layer
5
116D
10
207.227600
20
135.257200
30
0.000000
11
207.227600
21
149.220900
31
0.000000
62
7
0
LINE
100
AcDbEntity
100
AcDbLine
8
PCL_Layer
5
116E
10
221.216200
20
149.220900
30
0.000000
11
221.216200
21
135.257200
31
0.000000
62
7
0
LINE
100
AcDbEntity
100
AcDbLine
8
PCL_Layer
5
116F
10
221.216200
20
135.257200
30
0.000000
11
207.227600
21
135.257200
31
0.000000
62
7
0
LINE
100
AcDbEntity
100
AcDbLine
8
PCL_Layer
5
1170
10
130.953000
20
149.220900
30
0.000000
11
144.941700
21
149.220900
31
0.000000
62
7
0
LINE
100
AcDbEntity
100
AcDbLine
8
PCL_Layer
5
1171
10
130.953000
20
135.257200
30
0.000000
11
130.953000
21
149.220900
31
0.000000
62
7
0
LINE
100
AcDbEntity
100
AcDbLine
8
PCL_Layer
5
1172
10
144.941700
20
149.220900
30
0.000000
11
144.941700
21
135.257200
31
0.000000
62
7
0
LINE
100
AcDbEntity
100
AcDbLine
8
PCL_Layer
5
1173
10
144.941700
20
135.257200
30
0.000000
11
130.953000
21
135.257200
31
0.000000
62
7
0
LINE
100
AcDbEntity
100
AcDbLine
8
PCL_Layer
5
1174
10
250.144500
20
92.014900
30
0.000000
11
264.133100
21
92.014900
31
0.000000
62
7
0
LINE
100
AcDbEntity
100
AcDbLine
8
PCL_Layer
5
1175
10
250.144500
20
78.051300
30
0.000000
11
250.144500
21
92.014900
31
0.000000
62
7
0
LINE
100
AcDbEntity
100
AcDbLine
8
PCL_Layer
5
1176
10
264.133100
20
92.014900
30
0.000000
11
264.133100
21
78.051300
31
0.000000
62
7
0
LINE
100
AcDbEntity
100
AcDbLine
8
PCL_Layer
5
1177
10
264.133100
20
78.051300
30
0.000000
11
250.144500
21
78.051300
31
0.000000
62
7
0
LINE
100
AcDbEntity
100
AcDbLine
8
PCL_Layer
5
1178
10
264.433400
20
149.220900
30
0.000000
11
278.422100
21
149.220900
31
0.000000
62
7
0
LINE
100
AcDbEntity
100
AcDbLine
8
PCL_Layer
5
1179
10
264.433400
20
135.257200
30
0.000000
11
264.433400
21
149.220900
31
0.000000
62
7
0
LINE
100
AcDbEntity
100
AcDbLine
8
PCL_Layer
5
117A
10
278.422100
20
149.220900
30
0.000000
11
278.422100
21
135.257200
31
0.000000
62
7
0
LINE
100
AcDbEntity
100
AcDbLine
8
PCL_Layer
5
117B
10
278.422100
20
135.257200
30
0.000000
11
264.433400
21
135.257200
31
0.000000
62
7
0
LINE
100
AcDbEntity
100
AcDbLine
8
PCL_Layer
5
117C
10
231.075800
20
92.014900
30
0.000000
11
245.064500
21
92.014900
31
0.000000
62
7
0
LINE
100
AcDbEntity
100
AcDbLine
8
PCL_Layer
5
117D
10
231.075800
20
78.051300
30
0.000000
11
231.075800
21
92.014900
31
0.000000
62
7
0
LINE
100
AcDbEntity
100
AcDbLine
8
PCL_Layer
5
117E
10
245.064500
20
92.014900
30
0.000000
11
245.064500
21
78.051300
31
0.000000
62
7
0
LINE
100
AcDbEntity
100
AcDbLine
8
PCL_Layer
5
117F
10
245.064500
20
78.051300
30
0.000000
11
231.075800
21
78.051300
31
0.000000
62
7
0
LINE
100
AcDbEntity
100
AcDbLine
8
PCL_Layer
5
1180
10
35.634800
20
149.220900
30
0.000000
11
49.598500
21
149.220900
31
0.000000
62
7
0
LINE
100
AcDbEntity
100
AcDbLine
8
PCL_Layer
5
1181
10
35.634800
20
135.257200
30
0.000000
11
35.634800
21
149.220900
31
0.000000
62
7
0
LINE
100
AcDbEntity
100
AcDbLine
8
PCL_Layer
5
1182
10
49.598500
20
149.220900
30
0.000000
11
49.598500
21
135.257200
31
0.000000
62
7
0
LINE
100
AcDbEntity
100
AcDbLine
8
PCL_Layer
5
1183
10
49.598500
20
135.257200
30
0.000000
11
35.634800
21
135.257200
31
0.000000
62
7
0
LINE
100
AcDbEntity
100
AcDbLine
8
PCL_Layer
5
1184
10
226.296200
20
149.220900
30
0.000000
11
240.284900
21
149.220900
31
0.000000
62
7
0
LINE
100
AcDbEntity
100
AcDbLine
8
PCL_Layer
5
1185
10
226.296200
20
135.257200
30
0.000000
11
226.296200
21
149.220900
31
0.000000
62
7
0
LINE
100
AcDbEntity
100
AcDbLine
8
PCL_Layer
5
1186
10
240.284900
20
149.220900
30
0.000000
11
240.284900
21
135.257200
31
0.000000
62
7
0
LINE
100
AcDbEntity
100
AcDbLine
8
PCL_Layer
5
1187
10
240.284900
20
135.257200
30
0.000000
11
226.296200
21
135.257200
31
0.000000
62
7
0
LINE
100
AcDbEntity
100
AcDbLine
8
PCL_Layer
5
1188
10
140.512300
20
168.289500
30
0.000000
11
154.476000
21
168.289500
31
0.000000
62
7
0
LINE
100
AcDbEntity
100
AcDbLine
8
PCL_Layer
5
1189
10
140.512300
20
154.325800
30
0.000000
11
140.512300
21
168.289500
31
0.000000
62
7
0
LINE
100
AcDbEntity
100
AcDbLine
8
PCL_Layer
5
118A
10
154.476000
20
168.289500
30
0.000000
11
154.476000
21
154.325800
31
0.000000
62
7
0
LINE
100
AcDbEntity
100
AcDbLine
8
PCL_Layer
5
118B
10
154.476000
20
154.325800
30
0.000000
11
140.512300
21
154.325800
31
0.000000
62
7
0
LINE
100
AcDbEntity
100
AcDbLine
8
PCL_Layer
5
118C
10
188.158900
20
149.220900
30
0.000000
11
202.147600
21
149.220900
31
0.000000
62
7
0
LINE
100
AcDbEntity
100
AcDbLine
8
PCL_Layer
5
118D
10
188.158900
20
135.257200
30
0.000000
11
188.158900
21
149.220900
31
0.000000
62
7
0
LINE
100
AcDbEntity
100
AcDbLine
8
PCL_Layer
5
118E
10
202.147600
20
149.220900
30
0.000000
11
202.147600
21
135.257200
31
0.000000
62
7
0
LINE
100
AcDbEntity
100
AcDbLine
8
PCL_Layer
5
118F
10
202.147600
20
135.257200
30
0.000000
11
188.158900
21
135.257200
31
0.000000
62
7
0
LINE
100
AcDbEntity
100
AcDbLine
8
PCL_Layer
5
1190
10
197.693200
20
130.152200
30
0.000000
11
211.681900
21
130.152200
31
0.000000
62
7
0
LINE
100
AcDbEntity
100
AcDbLine
8
PCL_Layer
5
1191
10
197.693200
20
116.188600
30
0.000000
11
197.693200
21
130.152200
31
0.000000
62
7
0
LINE
100
AcDbEntity
100
AcDbLine
8
PCL_Layer
5
1192
10
211.681900
20
130.152200
30
0.000000
11
211.681900
21
116.188600
31
0.000000
62
7
0
LINE
100
AcDbEntity
100
AcDbLine
8
PCL_Layer
5
1193
10
211.681900
20
116.188600
30
0.000000
11
197.693200
21
116.188600
31
0.000000
62
7
0
LINE
100
AcDbEntity
100
AcDbLine
8
PCL_Layer
5
1194
10
68.992400
20
92.014900
30
0.000000
11
82.981100
21
92.014900
31
0.000000
62
7
0
LINE
100
AcDbEntity
100
AcDbLine
8
PCL_Layer
5
1195
10
68.992400
20
78.051300
30
0.000000
11
68.992400
21
92.014900
31
0.000000
62
7
0
LINE
100
AcDbEntity
100
AcDbLine
8
PCL_Layer
5
1196
10
82.981100
20
92.014900
30
0.000000
11
82.981100
21
78.051300
31
0.000000
62
7
0
LINE
100
AcDbEntity
100
AcDbLine
8
PCL_Layer
5
1197
10
82.981100
20
78.051300
30
0.000000
11
68.992400
21
78.051300
31
0.000000
62
7
0
LINE
100
AcDbEntity
100
AcDbLine
8
PCL_Layer
5
1198
10
369.310900
20
149.220900
30
0.000000
11
383.299600
21
149.220900
31
0.000000
62
7
0
LINE
100
AcDbEntity
100
AcDbLine
8
PCL_Layer
5
1199
10
369.310900
20
135.257200
30
0.000000
11
369.310900
21
149.220900
31
0.000000
62
7
0
LINE
100
AcDbEntity
100
AcDbLine
8
PCL_Layer
5
119A
10
383.299600
20
149.220900
30
0.000000
11
383.299600
21
135.257200
31
0.000000
62
7
0
LINE
100
AcDbEntity
100
AcDbLine
8
PCL_Layer
5
119B
10
383.299600
20
135.257200
30
0.000000
11
369.310900
21
135.257200
31
0.000000
62
7
0
LINE
100
AcDbEntity
100
AcDbLine
8
PCL_Layer
5
119C
10
64.237800
20
149.220900
30
0.000000
11
78.201400
21
149.220900
31
0.000000
62
7
0
LINE
100
AcDbEntity
100
AcDbLine
8
PCL_Layer
5
119D
10
64.237800
20
135.257200
30
0.000000
11
64.237800
21
149.220900
31
0.000000
62
7
0
LINE
100
AcDbEntity
100
AcDbLine
8
PCL_Layer
5
119E
10
78.201400
20
149.220900
30
0.000000
11
78.201400
21
135.257200
31
0.000000
62
7
0
LINE
100
AcDbEntity
100
AcDbLine
8
PCL_Layer
5
119F
10
78.201400
20
135.257200
30
0.000000
11
64.237800
21
135.257200
31
0.000000
62
7
0
LINE
100
AcDbEntity
100
AcDbLine
8
PCL_Layer
5
11A0
10
126.198300
20
111.083600
30
0.000000
11
140.187000
21
111.083600
31
0.000000
62
7
0
LINE
100
AcDbEntity
100
AcDbLine
8
PCL_Layer
5
11A1
10
126.198300
20
97.119900
30
0.000000
11
126.198300
21
111.083600
31
0.000000
62
7
0
LINE
100
AcDbEntity
100
AcDbLine
8
PCL_Layer
5
11A2
10
140.187000
20
111.083600
30
0.000000
11
140.187000
21
97.119900
31
0.000000
62
7
0
LINE
100
AcDbEntity
100
AcDbLine
8
PCL_Layer
5
11A3
10
140.187000
20
97.119900
30
0.000000
11
126.198300
21
97.119900
31
0.000000
62
7
0
LINE
100
AcDbEntity
100
AcDbLine
8
PCL_Layer
5
11A4
10
331.173700
20
168.289500
30
0.000000
11
345.162400
21
168.289500
31
0.000000
62
7
0
LINE
100
AcDbEntity
100
AcDbLine
8
PCL_Layer
5
11A5
10
331.173700
20
154.325800
30
0.000000
11
331.173700
21
168.289500
31
0.000000
62
7
0
LINE
100
AcDbEntity
100
AcDbLine
8
PCL_Layer
5
11A6
10
345.162400
20
168.289500
30
0.000000
11
345.162400
21
154.325800
31
0.000000
62
7
0
LINE
100
AcDbEntity
100
AcDbLine
8
PCL_Layer
5
11A7
10
345.162400
20
154.325800
30
0.000000
11
331.173700
21
154.325800
31
0.000000
62
7
0
LINE
100
AcDbEntity
100
AcDbLine
8
PCL_Layer
5
11A8
10
135.732700
20
72.946300
30
0.000000
11
149.721300
21
72.946300
31
0.000000
62
7
0
LINE
100
AcDbEntity
100
AcDbLine
8
PCL_Layer
5
11A9
10
135.732700
20
58.982700
30
0.000000
11
135.732700
21
72.946300
31
0.000000
62
7
0
LINE
100
AcDbEntity
100
AcDbLine
8
PCL_Layer
5
11AA
10
149.721300
20
72.946300
30
0.000000
11
149.721300
21
58.982700
31
0.000000
62
7
0
LINE
100
AcDbEntity
100
AcDbLine
8
PCL_Layer
5
11AB
10
149.721300
20
58.982700
30
0.000000
11
135.732700
21
58.982700
31
0.000000
62
7
0
LINE
100
AcDbEntity
100
AcDbLine
8
PCL_Layer
5
11AC
10
431.296500
20
92.014900
30
0.000000
11
445.285200
21
92.014900
31
0.000000
62
7
0
LINE
100
AcDbEntity
100
AcDbLine
8
PCL_Layer
5
11AD
10
431.296500
20
78.051300
30
0.000000
11
431.296500
21
92.014900
31
0.000000
62
7
0
LINE
100
AcDbEntity
100
AcDbLine
8
PCL_Layer
5
11AE
10
445.285200
20
92.014900
30
0.000000
11
445.285200
21
78.051300
31
0.000000
62
7
0
LINE
100
AcDbEntity
100
AcDbLine
8
PCL_Layer
5
11AF
10
445.285200
20
78.051300
30
0.000000
11
431.296500
21
78.051300
31
0.000000
62
7
0
LINE
100
AcDbEntity
100
AcDbLine
8
PCL_Layer
5
11B0
10
455.119800
20
130.152200
30
0.000000
11
469.108500
21
130.152200
31
0.000000
62
7
0
LINE
100
AcDbEntity
100
AcDbLine
8
PCL_Layer
5
11B1
10
455.119800
20
116.188600
30
0.000000
11
455.119800
21
130.152200
31
0.000000
62
7
0
LINE
100
AcDbEntity
100
AcDbLine
8
PCL_Layer
5
11B2
10
469.108500
20
130.152200
30
0.000000
11
469.108500
21
116.188600
31
0.000000
62
7
0
LINE
100
AcDbEntity
100
AcDbLine
8
PCL_Layer
5
11B3
10
469.108500
20
116.188600
30
0.000000
11
455.119800
21
116.188600
31
0.000000
62
7
0
LINE
100
AcDbEntity
100
AcDbLine
8
PCL_Layer
5
11B4
10
450.365200
20
72.946300
30
0.000000
11
464.353800
21
72.946300
31
0.000000
62
7
0
LINE
100
AcDbEntity
100
AcDbLine
8
PCL_Layer
5
11B5
10
450.365200
20
58.982700
30
0.000000
11
450.365200
21
72.946300
31
0.000000
62
7
0
LINE
100
AcDbEntity
100
AcDbLine
8
PCL_Layer
5
11B6
10
464.353800
20
72.946300
30
0.000000
11
464.353800
21
58.982700
31
0.000000
62
7
0
LINE
100
AcDbEntity
100
AcDbLine
8
PCL_Layer
5
11B7
10
464.353800
20
58.982700
30
0.000000
11
450.365200
21
58.982700
31
0.000000
62
7
0
LINE
100
AcDbEntity
100
AcDbLine
8
PCL_Layer
5
11B8
10
92.815700
20
92.014900
30
0.000000
11
106.804400
21
92.014900
31
0.000000
62
7
0
LINE
100
AcDbEntity
100
AcDbLine
8
PCL_Layer
5
11B9
10
92.815700
20
78.051300
30
0.000000
11
92.815700
21
92.014900
31
0.000000
62
7
0
LINE
100
AcDbEntity
100
AcDbLine
8
PCL_Layer
5
11BA
10
106.804400
20
92.014900
30
0.000000
11
106.804400
21
78.051300
31
0.000000
62
7
0
LINE
100
AcDbEntity
100
AcDbLine
8
PCL_Layer
5
11BB
10
106.804400
20
78.051300
30
0.000000
11
92.815700
21
78.051300
31
0.000000
62
7
0
LINE
100
AcDbEntity
100
AcDbLine
8
PCL_Layer
5
11BC
10
116.639000
20
92.014900
30
0.000000
11
130.627700
21
92.014900
31
0.000000
62
7
0
LINE
100
AcDbEntity
100
AcDbLine
8
PCL_Layer
5
11BD
10
116.639000
20
78.051300
30
0.000000
11
116.639000
21
92.014900
31
0.000000
62
7
0
LINE
100
AcDbEntity
100
AcDbLine
8
PCL_Layer
5
11BE
10
130.627700
20
92.014900
30
0.000000
11
130.627700
21
78.051300
31
0.000000
62
7
0
LINE
100
AcDbEntity
100
AcDbLine
8
PCL_Layer
5
11BF
10
130.627700
20
78.051300
30
0.000000
11
116.639000
21
78.051300
31
0.000000
62
7
0
LINE
100
AcDbEntity
100
AcDbLine
8
PCL_Layer
5
11C0
10
283.502100
20
149.220900
30
0.000000
11
297.490800
21
149.220900
31
0.000000
62
7
0
LINE
100
AcDbEntity
100
AcDbLine
8
PCL_Layer
5
11C1
10
283.502100
20
135.257200
30
0.000000
11
283.502100
21
149.220900
31
0.000000
62
7
0
LINE
100
AcDbEntity
100
AcDbLine
8
PCL_Layer
5
11C2
10
297.490800
20
149.220900
30
0.000000
11
297.490800
21
135.257200
31
0.000000
62
7
0
LINE
100
AcDbEntity
100
AcDbLine
8
PCL_Layer
5
11C3
10
297.490800
20
135.257200
30
0.000000
11
283.502100
21
135.257200
31
0.000000
62
7
0
LINE
100
AcDbEntity
100
AcDbLine
8
PCL_Layer
5
11C4
10
135.732700
20
92.014900
30
0.000000
11
149.721300
21
92.014900
31
0.000000
62
7
0
LINE
100
AcDbEntity
100
AcDbLine
8
PCL_Layer
5
11C5
10
135.732700
20
78.051300
30
0.000000
11
135.732700
21
92.014900
31
0.000000
62
7
0
LINE
100
AcDbEntity
100
AcDbLine
8
PCL_Layer
5
11C6
10
149.721300
20
92.014900
30
0.000000
11
149.721300
21
78.051300
31
0.000000
62
7
0
LINE
100
AcDbEntity
100
AcDbLine
8
PCL_Layer
5
11C7
10
149.721300
20
78.051300
30
0.000000
11
135.732700
21
78.051300
31
0.000000
62
7
0
LINE
100
AcDbEntity
100
AcDbLine
8
PCL_Layer
5
11C8
10
273.967800
20
130.152200
30
0.000000
11
287.956500
21
130.152200
31
0.000000
62
7
0
LINE
100
AcDbEntity
100
AcDbLine
8
PCL_Layer
5
11C9
10
273.967800
20
116.188600
30
0.000000
11
273.967800
21
130.152200
31
0.000000
62
7
0
LINE
100
AcDbEntity
100
AcDbLine
8
PCL_Layer
5
11CA
10
287.956500
20
130.152200
30
0.000000
11
287.956500
21
116.188600
31
0.000000
62
7
0
LINE
100
AcDbEntity
100
AcDbLine
8
PCL_Layer
5
11CB
10
287.956500
20
116.188600
30
0.000000
11
273.967800
21
116.188600
31
0.000000
62
7
0
LINE
100
AcDbEntity
100
AcDbLine
8
PCL_Layer
5
11CC
10
173.869900
20
92.014900
30
0.000000
11
187.858600
21
92.014900
31
0.000000
62
7
0
LINE
100
AcDbEntity
100
AcDbLine
8
PCL_Layer
5
11CD
10
173.869900
20
78.051300
30
0.000000
11
173.869900
21
92.014900
31
0.000000
62
7
0
LINE
100
AcDbEntity
100
AcDbLine
8
PCL_Layer
5
11CE
10
187.858600
20
92.014900
30
0.000000
11
187.858600
21
78.051300
31
0.000000
62
7
0
LINE
100
AcDbEntity
100
AcDbLine
8
PCL_Layer
5
11CF
10
187.858600
20
78.051300
30
0.000000
11
173.869900
21
78.051300
31
0.000000
62
7
0
LINE
100
AcDbEntity
100
AcDbLine
8
PCL_Layer
5
11D0
10
0.000000
20
184.755600
30
0.000000
11
486.000000
21
184.755600
31
0.000000
62
7
0
LINE
100
AcDbEntity
100
AcDbLine
8
PCL_Layer
5
11D1
10
486.000000
20
184.755600
30
0.000000
11
486.000000
21
0.000000
31
0.000000
62
7
0
LINE
100
AcDbEntity
100
AcDbLine
8
PCL_Layer
5
11D2
10
486.000000
20
0.000000
30
0.000000
11
0.000000
21
0.000000
31
0.000000
62
7
0
LINE
100
AcDbEntity
100
AcDbLine
8
PCL_Layer
5
11D3
10
0.000000
20
0.000000
30
0.000000
11
0.000000
21
184.755600
31
0.000000
62
7
0
ENDSEC
0
EOF
