0
SECTION
2
HEADER
9
$ACADVER
1
AC1009
9
$INSUNITS
70
4
9
$EXTMIN
10
0.000000
20
0.000000
30
0.000000
9
$EXTMAX
10
474.000000
20
164.976100
30
0.000000
0
ENDSEC
0
SECTION
2
TABLES
0
TABLE
2
LAYER
0
LAYER
2
PCL_Layer
62
7
70
0
6
CONTINUOUS
0
ENDTAB
0
TABLE
2
VPORT
5
0
100
AcDbSymbolTable
70
3
0
VPORT
5
1
100
AcDbSymbolTableRecord
100
AcDbViewportTableRecord
2
*ACTIVE
70
0
10
0.0
20
0.0
11
1.0
21
1.0
12
237.000000
22
82.488050
13
0.0
23
0.0
14
10.0
24
10.0
15
10.0
25
10.0
16
0.0
26
0.0
36
1.0
17
0.0
27
0.0
37
0.0
40
197.971320
41
2.107632093933463
42
50.0
43
0.0
44
0.0
50
0.0
51
0.0
71
0
72
100
73
1
74
3
75
0
76
0
77
0
78
0
0
ENDTAB
0
ENDSEC
0
SECTION
2
BLOCKS
0
ENDSEC
0
SECTION
2
ENTITIES
0
LINE
100
AcDbEntity
100
AcDbLine
8
PCL_Layer
5
1000
10
153.399300
20
101.616100
30
0.000000
11
153.399300
21
114.818200
31
0.000000
62
7
0
LINE
100
AcDbEntity
100
AcDbLine
8
PCL_Layer
5
1001
10
166.601300
20
101.616100
30
0.000000
11
153.399300
21
101.616100
31
0.000000
62
7
0
LINE
100
AcDbEntity
100
AcDbLine
8
PCL_Layer
5
1002
10
166.601300
20
114.818200
30
0.000000
11
166.601300
21
101.616100
31
0.000000
62
7
0
LINE
100
AcDbEntity
100
AcDbLine
8
PCL_Layer
5
1003
10
153.399300
20
114.818200
30
0.000000
11
166.601300
21
114.818200
31
0.000000
62
7
0
LINE
100
AcDbEntity
100
AcDbLine
8
PCL_Layer
5
1004
10
372.508900
20
63.510000
30
0.000000
11
372.508900
21
76.712100
31
0.000000
62
7
0
LINE
100
AcDbEntity
100
AcDbLine
8
PCL_Layer
5
1005
10
385.711000
20
63.510000
30
0.000000
11
372.508900
21
63.510000
31
0.000000
62
7
0
LINE
100
AcDbEntity
100
AcDbLine
8
PCL_Layer
5
1006
10
385.711000
20
76.712100
30
0.000000
11
385.711000
21
63.510000
31
0.000000
62
7
0
LINE
100
AcDbEntity
100
AcDbLine
8
PCL_Layer
5
1007
10
372.508900
20
76.712100
30
0.000000
11
385.711000
21
76.712100
31
0.000000
62
7
0
LINE
100
AcDbEntity
100
AcDbLine
8
PCL_Layer
5
1008
10
367.758200
20
101.616100
30
0.000000
11
367.758200
21
114.818200
31
0.000000
62
7
0
LINE
100
AcDbEntity
100
AcDbLine
8
PCL_Layer
5
1009
10
380.960200
20
101.616100
30
0.000000
11
367.758200
21
101.616100
31
0.000000
62
7
0
LINE
100
AcDbEntity
100
AcDbLine
8
PCL_Layer
5
100A
10
380.960200
20
114.818200
30
0.000000
11
380.960200
21
101.616100
31
0.000000
62
7
0
LINE
100
AcDbEntity
100
AcDbLine
8
PCL_Layer
5
100B
10
367.758200
20
114.818200
30
0.000000
11
380.960200
21
114.818200
31
0.000000
62
7
0
LINE
100
AcDbEntity
100
AcDbLine
8
PCL_Layer
5
100C
10
91.489500
20
101.616100
30
0.000000
11
91.489500
21
114.818200
31
0.000000
62
7
0
LINE
100
AcDbEntity
100
AcDbLine
8
PCL_Layer
5
100D
10
104.691600
20
101.616100
30
0.000000
11
91.489500
21
101.616100
31
0.000000
62
7
0
LINE
100
AcDbEntity
100
AcDbLine
8
PCL_Layer
5
100E
10
104.691600
20
114.818200
30
0.000000
11
104.691600
21
101.616100
31
0.000000
62
7
0
LINE
100
AcDbEntity
100
AcDbLine
8
PCL_Layer
5
100F
10
91.489500
20
114.818200
30
0.000000
11
104.691600
21
114.818200
31
0.000000
62
7
0
LINE
100
AcDbEntity
100
AcDbLine
8
PCL_Layer
5
1010
10
334.402900
20
120.669100
30
0.000000
11
334.402900
21
133.871200
31
0.000000
62
7
0
LINE
100
AcDbEntity
100
AcDbLine
8
PCL_Layer
5
1011
10
347.605000
20
120.669100
30
0.000000
11
334.402900
21
120.669100
31
0.000000
62
7
0
LINE
100
AcDbEntity
100
AcDbLine
8
PCL_Layer
5
1012
10
347.605000
20
133.871200
30
0.000000
11
347.605000
21
120.669100
31
0.000000
62
7
0
LINE
100
AcDbEntity
100
AcDbLine
8
PCL_Layer
5
1013
10
334.402900
20
133.871200
30
0.000000
11
347.605000
21
133.871200
31
0.000000
62
7
0
LINE
100
AcDbEntity
100
AcDbLine
8
PCL_Layer
5
1014
10
262.966600
20
63.510000
30
0.000000
11
262.966600
21
76.712100
31
0.000000
62
7
0
LINE
100
AcDbEntity
100
AcDbLine
8
PCL_Layer
5
1015
10
276.168700
20
63.510000
30
0.000000
11
262.966600
21
63.510000
31
0.000000
62
7
0
LINE
100
AcDbEntity
100
AcDbLine
8
PCL_Layer
5
1016
10
276.168700
20
76.712100
30
0.000000
11
276.168700
21
63.510000
31
0.000000
62
7
0
LINE
100
AcDbEntity
100
AcDbLine
8
PCL_Layer
5
1017
10
262.966600
20
76.712100
30
0.000000
11
276.168700
21
76.712100
31
0.000000
62
7
0
LINE
100
AcDbEntity
100
AcDbLine
8
PCL_Layer
5
1018
10
258.190800
20
120.669100
30
0.000000
11
258.190800
21
133.871200
31
0.000000
62
7
0
LINE
100
AcDbEntity
100
AcDbLine
8
PCL_Layer
5
1019
10
271.392900
20
120.669100
30
0.000000
11
258.190800
21
120.669100
31
0.000000
62
7
0
LINE
100
AcDbEntity
100
AcDbLine
8
PCL_Layer
5
101A
10
271.392900
20
133.871200
30
0.000000
11
271.392900
21
120.669100
31
0.000000
62
7
0
LINE
100
AcDbEntity
100
AcDbLine
8
PCL_Layer
5
101B
10
258.190800
20
133.871200
30
0.000000
11
271.392900
21
133.871200
31
0.000000
62
7
0
LINE
100
AcDbEntity
100
AcDbLine
8
PCL_Layer
5
101C
10
277.243900
20
120.669100
30
0.000000
11
277.243900
21
133.871200
31
0.000000
62
7
0
LINE
100
AcDbEntity
100
AcDbLine
8
PCL_Layer
5
101D
10
290.446000
20
120.669100
30
0.000000
11
277.243900
21
120.669100
31
0.000000
62
7
0
LINE
100
AcDbEntity
100
AcDbLine
8
PCL_Layer
5
101E
10
290.446000
20
133.871200
30
0.000000
11
290.446000
21
120.669100
31
0.000000
62
7
0
LINE
100
AcDbEntity
100
AcDbLine
8
PCL_Layer
5
101F
10
277.243900
20
133.871200
30
0.000000
11
290.446000
21
133.871200
31
0.000000
62
7
0
LINE
100
AcDbEntity
100
AcDbLine
8
PCL_Layer
5
1020
10
34.330400
20
63.510000
30
0.000000
11
34.330400
21
76.712100
31
0.000000
62
7
0
LINE
100
AcDbEntity
100
AcDbLine
8
PCL_Layer
5
1021
10
47.532500
20
63.510000
30
0.000000
11
34.330400
21
63.510000
31
0.000000
62
7
0
LINE
100
AcDbEntity
100
AcDbLine
8
PCL_Layer
5
1022
10
47.532500
20
76.712100
30
0.000000
11
47.532500
21
63.510000
31
0.000000
62
7
0
LINE
100
AcDbEntity
100
AcDbLine
8
PCL_Layer
5
1023
10
34.330400
20
76.712100
30
0.000000
11
47.532500
21
76.712100
31
0.000000
62
7
0
LINE
100
AcDbEntity
100
AcDbLine
8
PCL_Layer
5
1024
10
429.667900
20
120.669100
30
0.000000
11
429.667900
21
133.871200
31
0.000000
62
7
0
LINE
100
AcDbEntity
100
AcDbLine
8
PCL_Layer
5
1025
10
442.870100
20
120.669100
30
0.000000
11
429.667900
21
120.669100
31
0.000000
62
7
0
LINE
100
AcDbEntity
100
AcDbLine
8
PCL_Layer
5
1026
10
442.870100
20
133.871200
30
0.000000
11
442.870100
21
120.669100
31
0.000000
62
7
0
LINE
100
AcDbEntity
100
AcDbLine
8
PCL_Layer
5
1027
10
429.667900
20
133.871200
30
0.000000
11
442.870100
21
133.871200
31
0.000000
62
7
0
LINE
100
AcDbEntity
100
AcDbLine
8
PCL_Layer
5
1028
10
372.508900
20
120.669100
30
0.000000
11
372.508900
21
133.871200
31
0.000000
62
7
0
LINE
100
AcDbEntity
100
AcDbLine
8
PCL_Layer
5
1029
10
385.711000
20
120.669100
30
0.000000
11
372.508900
21
120.669100
31
0.000000
62
7
0
LINE
100
AcDbEntity
100
AcDbLine
8
PCL_Layer
5
102A
10
385.711000
20
133.871200
30
0.000000
11
385.711000
21
120.669100
31
0.000000
62
7
0
LINE
100
AcDbEntity
100
AcDbLine
8
PCL_Layer
5
102B
10
372.508900
20
133.871200
30
0.000000
11
385.711000
21
133.871200
31
0.000000
62
7
0
LINE
100
AcDbEntity
100
AcDbLine
8
PCL_Layer
5
102C
10
243.913600
20
63.510000
30
0.000000
11
243.913600
21
76.712100
31
0.000000
62
7
0
LINE
100
AcDbEntity
100
AcDbLine
8
PCL_Layer
5
102D
10
257.115700
20
63.510000
30
0.000000
11
243.913600
21
63.510000
31
0.000000
62
7
0
LINE
100
AcDbEntity
100
AcDbLine
8
PCL_Layer
5
102E
10
257.115700
20
76.712100
30
0.000000
11
257.115700
21
63.510000
31
0.000000
62
7
0
LINE
100
AcDbEntity
100
AcDbLine
8
PCL_Layer
5
102F
10
243.913600
20
76.712100
30
0.000000
11
257.115700
21
76.712100
31
0.000000
62
7
0
LINE
100
AcDbEntity
100
AcDbLine
8
PCL_Layer
5
1030
10
43.856900
20
44.457000
30
0.000000
11
43.856900
21
57.659100
31
0.000000
62
7
0
LINE
100
AcDbEntity
100
AcDbLine
8
PCL_Layer
5
1031
10
57.059000
20
44.457000
30
0.000000
11
43.856900
21
44.457000
31
0.000000
62
7
0
LINE
100
AcDbEntity
100
AcDbLine
8
PCL_Layer
5
1032
10
57.059000
20
57.659100
30
0.000000
11
57.059000
21
44.457000
31
0.000000
62
7
0
LINE
100
AcDbEntity
100
AcDbLine
8
PCL_Layer
5
1033
10
43.856900
20
57.659100
30
0.000000
11
57.059000
21
57.659100
31
0.000000
62
7
0
LINE
100
AcDbEntity
100
AcDbLine
8
PCL_Layer
5
1034
10
120.069000
20
82.563100
30
0.000000
11
120.069000
21
95.765100
31
0.000000
62
7
0
LINE
100
AcDbEntity
100
AcDbLine
8
PCL_Layer
5
1035
10
133.271100
20
82.563100
30
0.000000
11
120.069000
21
82.563100
31
0.000000
62
7
0
LINE
100
AcDbEntity
100
AcDbLine
8
PCL_Layer
5
1036
10
133.271100
20
95.765100
30
0.000000
11
133.271100
21
82.563100
31
0.000000
62
7
0
LINE
100
AcDbEntity
100
AcDbLine
8
PCL_Layer
5
1037
10
120.069000
20
95.765100
30
0.000000
11
133.271100
21
95.765100
31
0.000000
62
7
0
LINE
100
AcDbEntity
100
AcDbLine
8
PCL_Layer
5
1038
10
124.819700
20
120.669100
30
0.000000
11
124.819700
21
133.871200
31
0.000000
62
7
0
LINE
100
AcDbEntity
100
AcDbLine
8
PCL_Layer
5
1039
10
138.021800
20
120.669100
30
0.000000
11
124.819700
21
120.669100
31
0.000000
62
7
0
LINE
100
AcDbEntity
100
AcDbLine
8
PCL_Layer
5
103A
10
138.021800
20
133.871200
30
0.000000
11
138.021800
21
120.669100
31
0.000000
62
7
0
LINE
100
AcDbEntity
100
AcDbLine
8
PCL_Layer
5
103B
10
124.819700
20
133.871200
30
0.000000
11
138.021800
21
133.871200
31
0.000000
62
7
0
LINE
100
AcDbEntity
100
AcDbLine
8
PCL_Layer
5
103C
10
115.293200
20
101.616100
30
0.000000
11
115.293200
21
114.818200
31
0.000000
62
7
0
LINE
100
AcDbEntity
100
AcDbLine
8
PCL_Layer
5
103D
10
128.495300
20
101.616100
30
0.000000
11
115.293200
21
101.616100
31
0.000000
62
7
0
LINE
100
AcDbEntity
100
AcDbLine
8
PCL_Layer
5
103E
10
128.495300
20
114.818200
30
0.000000
11
128.495300
21
101.616100
31
0.000000
62
7
0
LINE
100
AcDbEntity
100
AcDbLine
8
PCL_Layer
5
103F
10
115.293200
20
114.818200
30
0.000000
11
128.495300
21
114.818200
31
0.000000
62
7
0
LINE
100
AcDbEntity
100
AcDbLine
8
PCL_Layer
5
1040
10
201.031800
20
120.669100
30
0.000000
11
201.031800
21
133.871200
31
0.000000
62
7
0
LINE
100
AcDbEntity
100
AcDbLine
8
PCL_Layer
5
1041
10
214.233900
20
120.669100
30
0.000000
11
201.031800
21
120.669100
31
0.000000
62
7
0
LINE
100
AcDbEntity
100
AcDbLine
8
PCL_Layer
5
1042
10
214.233900
20
133.871200
30
0.000000
11
214.233900
21
120.669100
31
0.000000
62
7
0
LINE
100
AcDbEntity
100
AcDbLine
8
PCL_Layer
5
1043
10
201.031800
20
133.871200
30
0.000000
11
214.233900
21
133.871200
31
0.000000
62
7
0
LINE
100
AcDbEntity
100
AcDbLine
8
PCL_Layer
5
1044
10
439.194500
20
139.722100
30
0.000000
11
439.194500
21
152.924200
31
0.000000
62
7
0
LINE
100
AcDbEntity
100
AcDbLine
8
PCL_Layer
5
1045
10
452.396500
20
139.722100
30
0.000000
11
439.194500
21
139.722100
31
0.000000
62
7
0
LINE
100
AcDbEntity
100
AcDbLine
8
PCL_Layer
5
1046
10
452.396500
20
152.924200
30
0.000000
11
452.396500
21
139.722100
31
0.000000
62
7
0
LINE
100
AcDbEntity
100
AcDbLine
8
PCL_Layer
5
1047
10
439.194500
20
152.924200
30
0.000000
11
452.396500
21
152.924200
31
0.000000
62
7
0
LINE
100
AcDbEntity
100
AcDbLine
8
PCL_Layer
5
1048
10
303.448000
20
44.457000
30
0.000000
11
303.448000
21
57.659100
31
0.000000
62
7
0
LINE
100
AcDbEntity
100
AcDbLine
8
PCL_Layer
5
1049
10
316.650100
20
44.457000
30
0.000000
11
303.448000
21
44.457000
31
0.000000
62
7
0
LINE
100
AcDbEntity
100
AcDbLine
8
PCL_Layer
5
104A
10
316.650100
20
57.659100
30
0.000000
11
316.650100
21
44.457000
31
0.000000
62
7
0
LINE
100
AcDbEntity
100
AcDbLine
8
PCL_Layer
5
104B
10
303.448000
20
57.659100
30
0.000000
11
316.650100
21
57.659100
31
0.000000
62
7
0
LINE
100
AcDbEntity
100
AcDbLine
8
PCL_Layer
5
104C
10
343.929400
20
101.616100
30
0.000000
11
343.929400
21
114.818200
31
0.000000
62
7
0
LINE
100
AcDbEntity
100
AcDbLine
8
PCL_Layer
5
104D
10
357.131500
20
101.616100
30
0.000000
11
343.929400
21
101.616100
31
0.000000
62
7
0
LINE
100
AcDbEntity
100
AcDbLine
8
PCL_Layer
5
104E
10
357.131500
20
114.818200
30
0.000000
11
357.131500
21
101.616100
31
0.000000
62
7
0
LINE
100
AcDbEntity
100
AcDbLine
8
PCL_Layer
5
104F
10
343.929400
20
114.818200
30
0.000000
11
357.131500
21
114.818200
31
0.000000
62
7
0
LINE
100
AcDbEntity
100
AcDbLine
8
PCL_Layer
5
1050
10
139.122000
20
82.563100
30
0.000000
11
139.122000
21
95.765100
31
0.000000
62
7
0
LINE
100
AcDbEntity
100
AcDbLine
8
PCL_Layer
5
1051
10
152.324100
20
82.563100
30
0.000000
11
139.122000
21
82.563100
31
0.000000
62
7
0
LINE
100
AcDbEntity
100
AcDbLine
8
PCL_Layer
5
1052
10
152.324100
20
95.765100
30
0.000000
11
152.324100
21
82.563100
31
0.000000
62
7
0
LINE
100
AcDbEntity
100
AcDbLine
8
PCL_Layer
5
1053
10
139.122000
20
95.765100
30
0.000000
11
152.324100
21
95.765100
31
0.000000
62
7
0
LINE
100
AcDbEntity
100
AcDbLine
8
PCL_Layer
5
1054
10
134.346300
20
101.616100
30
0.000000
11
134.346300
21
114.818200
31
0.000000
62
7
0
LINE
100
AcDbEntity
100
AcDbLine
8
PCL_Layer
5
1055
10
147.548300
20
101.616100
30
0.000000
11
134.346300
21
101.616100
31
0.000000
62
7
0
LINE
100
AcDbEntity
100
AcDbLine
8
PCL_Layer
5
1056
10
147.548300
20
114.818200
30
0.000000
11
147.548300
21
101.616100
31
0.000000
62
7
0
LINE
100
AcDbEntity
100
AcDbLine
8
PCL_Layer
5
1057
10
134.346300
20
114.818200
30
0.000000
11
147.548300
21
114.818200
31
0.000000
62
7
0
LINE
100
AcDbEntity
100
AcDbLine
8
PCL_Layer
5
1058
10
129.595500
20
44.457000
30
0.000000
11
129.595500
21
57.659100
31
0.000000
62
7
0
LINE
100
AcDbEntity
100
AcDbLine
8
PCL_Layer
5
1059
10
142.797600
20
44.457000
30
0.000000
11
129.595500
21
44.457000
31
0.000000
62
7
0
LINE
100
AcDbEntity
100
AcDbLine
8
PCL_Layer
5
105A
10
142.797600
20
57.659100
30
0.000000
11
142.797600
21
44.457000
31
0.000000
62
7
0
LINE
100
AcDbEntity
100
AcDbLine
8
PCL_Layer
5
105B
10
129.595500
20
57.659100
30
0.000000
11
142.797600
21
57.659100
31
0.000000
62
7
0
LINE
100
AcDbEntity
100
AcDbLine
8
PCL_Layer
5
105C
10
105.766700
20
120.669100
30
0.000000
11
105.766700
21
133.871200
31
0.000000
62
7
0
LINE
100
AcDbEntity
100
AcDbLine
8
PCL_Layer
5
105D
10
118.968800
20
120.669100
30
0.000000
11
105.766700
21
120.669100
31
0.000000
62
7
0
LINE
100
AcDbEntity
100
AcDbLine
8
PCL_Layer
5
105E
10
118.968800
20
133.871200
30
0.000000
11
118.968800
21
120.669100
31
0.000000
62
7
0
LINE
100
AcDbEntity
100
AcDbLine
8
PCL_Layer
5
105F
10
105.766700
20
133.871200
30
0.000000
11
118.968800
21
133.871200
31
0.000000
62
7
0
LINE
100
AcDbEntity
100
AcDbLine
8
PCL_Layer
5
1060
10
401.088400
20
120.669100
30
0.000000
11
401.088400
21
133.871200
31
0.000000
62
7
0
LINE
100
AcDbEntity
100
AcDbLine
8
PCL_Layer
5
1061
10
414.290600
20
120.669100
30
0.000000
11
401.088400
21
120.669100
31
0.000000
62
7
0
LINE
100
AcDbEntity
100
AcDbLine
8
PCL_Layer
5
1062
10
414.290600
20
133.871200
30
0.000000
11
414.290600
21
120.669100
31
0.000000
62
7
0
LINE
100
AcDbEntity
100
AcDbLine
8
PCL_Layer
5
1063
10
401.088400
20
133.871200
30
0.000000
11
414.290600
21
133.871200
31
0.000000
62
7
0
LINE
100
AcDbEntity
100
AcDbLine
8
PCL_Layer
5
1064
10
15.277400
20
44.457000
30
0.000000
11
15.277400
21
57.659100
31
0.000000
62
7
0
LINE
100
AcDbEntity
100
AcDbLine
8
PCL_Layer
5
1065
10
28.479500
20
44.457000
30
0.000000
11
15.277400
21
44.457000
31
0.000000
62
7
0
LINE
100
AcDbEntity
100
AcDbLine
8
PCL_Layer
5
1066
10
28.479500
20
57.659100
30
0.000000
11
28.479500
21
44.457000
31
0.000000
62
7
0
LINE
100
AcDbEntity
100
AcDbLine
8
PCL_Layer
5
1067
10
15.277400
20
57.659100
30
0.000000
11
28.479500
21
57.659100
31
0.000000
62
7
0
LINE
100
AcDbEntity
100
AcDbLine
8
PCL_Layer
5
1068
10
305.823400
20
101.616100
30
0.000000
11
305.823400
21
114.818200
31
0.000000
62
7
0
LINE
100
AcDbEntity
100
AcDbLine
8
PCL_Layer
5
1069
10
319.025500
20
101.616100
30
0.000000
11
305.823400
21
101.616100
31
0.000000
62
7
0
LINE
100
AcDbEntity
100
AcDbLine
8
PCL_Layer
5
106A
10
319.025500
20
114.818200
30
0.000000
11
319.025500
21
101.616100
31
0.000000
62
7
0
LINE
100
AcDbEntity
100
AcDbLine
8
PCL_Layer
5
106B
10
305.823400
20
114.818200
30
0.000000
11
319.025500
21
114.818200
31
0.000000
62
7
0
LINE
100
AcDbEntity
100
AcDbLine
8
PCL_Layer
5
106C
10
162.925800
20
120.669100
30
0.000000
11
162.925800
21
133.871200
31
0.000000
62
7
0
LINE
100
AcDbEntity
100
AcDbLine
8
PCL_Layer
5
106D
10
176.127900
20
120.669100
30
0.000000
11
162.925800
21
120.669100
31
0.000000
62
7
0
LINE
100
AcDbEntity
100
AcDbLine
8
PCL_Layer
5
106E
10
176.127900
20
133.871200
30
0.000000
11
176.127900
21
120.669100
31
0.000000
62
7
0
LINE
100
AcDbEntity
100
AcDbLine
8
PCL_Layer
5
106F
10
162.925800
20
133.871200
30
0.000000
11
176.127900
21
133.871200
31
0.000000
62
7
0
LINE
100
AcDbEntity
100
AcDbLine
8
PCL_Layer
5
1070
10
248.664300
20
101.616100
30
0.000000
11
248.664300
21
114.818200
31
0.000000
62
7
0
LINE
100
AcDbEntity
100
AcDbLine
8
PCL_Layer
5
1071
10
261.866400
20
101.616100
30
0.000000
11
248.664300
21
101.616100
31
0.000000
62
7
0
LINE
100
AcDbEntity
100
AcDbLine
8
PCL_Layer
5
1072
10
261.866400
20
114.818200
30
0.000000
11
261.866400
21
101.616100
31
0.000000
62
7
0
LINE
100
AcDbEntity
100
AcDbLine
8
PCL_Layer
5
1073
10
248.664300
20
114.818200
30
0.000000
11
261.866400
21
114.818200
31
0.000000
62
7
0
LINE
100
AcDbEntity
100
AcDbLine
8
PCL_Layer
5
1074
10
310.599100
20
82.563100
30
0.000000
11
310.599100
21
95.765100
31
0.000000
62
7
0
LINE
100
AcDbEntity
100
AcDbLine
8
PCL_Layer
5
1075
10
323.801200
20
82.563100
30
0.000000
11
310.599100
21
82.563100
31
0.000000
62
7
0
LINE
100
AcDbEntity
100
AcDbLine
8
PCL_Layer
5
1076
10
323.801200
20
95.765100
30
0.000000
11
323.801200
21
82.563100
31
0.000000
62
7
0
LINE
100
AcDbEntity
100
AcDbLine
8
PCL_Layer
5
1077
10
310.599100
20
95.765100
30
0.000000
11
323.801200
21
95.765100
31
0.000000
62
7
0
LINE
100
AcDbEntity
100
AcDbLine
8
PCL_Layer
5
1078
10
62.909900
20
63.510000
30
0.000000
11
62.909900
21
76.712100
31
0.000000
62
7
0
LINE
100
AcDbEntity
100
AcDbLine
8
PCL_Layer
5
1079
10
76.112000
20
63.510000
30
0.000000
11
62.909900
21
63.510000
31
0.000000
62
7
0
LINE
100
AcDbEntity
100
AcDbLine
8
PCL_Layer
5
107A
10
76.112000
20
76.712100
30
0.000000
11
76.112000
21
63.510000
31
0.000000
62
7
0
LINE
100
AcDbEntity
100
AcDbLine
8
PCL_Layer
5
107B
10
62.909900
20
76.712100
30
0.000000
11
76.112000
21
76.712100
31
0.000000
62
7
0
LINE
100
AcDbEntity
100
AcDbLine
8
PCL_Layer
5
107C
10
272.493100
20
82.563100
30
0.000000
11
272.493100
21
95.765100
31
0.000000
62
7
0
LINE
100
AcDbEntity
100
AcDbLine
8
PCL_Layer
5
107D
10
285.695200
20
82.563100
30
0.000000
11
272.493100
21
82.563100
31
0.000000
62
7
0
LINE
100
AcDbEntity
100
AcDbLine
8
PCL_Layer
5
107E
10
285.695200
20
95.765100
30
0.000000
11
285.695200
21
82.563100
31
0.000000
62
7
0
LINE
100
AcDbEntity
100
AcDbLine
8
PCL_Layer
5
107F
10
272.493100
20
95.765100
30
0.000000
11
285.695200
21
95.765100
31
0.000000
62
7
0
LINE
100
AcDbEntity
100
AcDbLine
8
PCL_Layer
5
1080
10
58.134200
20
82.563100
30
0.000000
11
58.134200
21
95.765100
31
0.000000
62
7
0
LINE
100
AcDbEntity
100
AcDbLine
8
PCL_Layer
5
1081
10
71.336300
20
82.563100
30
0.000000
11
58.134200
21
82.563100
31
0.000000
62
7
0
LINE
100
AcDbEntity
100
AcDbLine
8
PCL_Layer
5
1082
10
71.336300
20
95.765100
30
0.000000
11
71.336300
21
82.563100
31
0.000000
62
7
0
LINE
100
AcDbEntity
100
AcDbLine
8
PCL_Layer
5
1083
10
58.134200
20
95.765100
30
0.000000
11
71.336300
21
95.765100
31
0.000000
62
7
0
LINE
100
AcDbEntity
100
AcDbLine
8
PCL_Layer
5
1084
10
20.028200
20
139.722100
30
0.000000
11
20.028200
21
152.924200
31
0.000000
62
7
0
LINE
100
AcDbEntity
100
AcDbLine
8
PCL_Layer
5
1085
10
33.230300
20
139.722100
30
0.000000
11
20.028200
21
139.722100
31
0.000000
62
7
0
LINE
100
AcDbEntity
100
AcDbLine
8
PCL_Layer
5
1086
10
33.230300
20
152.924200
30
0.000000
11
33.230300
21
139.722100
31
0.000000
62
7
0
LINE
100
AcDbEntity
100
AcDbLine
8
PCL_Layer
5
1087
10
20.028200
20
152.924200
30
0.000000
11
33.230300
21
152.924200
31
0.000000
62
7
0
LINE
100
AcDbEntity
100
AcDbLine
8
PCL_Layer
5
1088
10
448.721000
20
120.669100
30
0.000000
11
448.721000
21
133.871200
31
0.000000
62
7
0
LINE
100
AcDbEntity
100
AcDbLine
8
PCL_Layer
5
1089
10
461.923000
20
120.669100
30
0.000000
11
448.721000
21
120.669100
31
0.000000
62
7
0
LINE
100
AcDbEntity
100
AcDbLine
8
PCL_Layer
5
108A
10
461.923000
20
133.871200
30
0.000000
11
461.923000
21
120.669100
31
0.000000
62
7
0
LINE
100
AcDbEntity
100
AcDbLine
8
PCL_Layer
5
108B
10
448.721000
20
133.871200
30
0.000000
11
461.923000
21
133.871200
31
0.000000
62
7
0
LINE
100
AcDbEntity
100
AcDbLine
8
PCL_Layer
5
108C
10
186.754500
20
63.510000
30
0.000000
11
186.754500
21
76.712100
31
0.000000
62
7
0
LINE
100
AcDbEntity
100
AcDbLine
8
PCL_Layer
5
108D
10
199.956600
20
63.510000
30
0.000000
11
186.754500
21
63.510000
31
0.000000
62
7
0
LINE
100
AcDbEntity
100
AcDbLine
8
PCL_Layer
5
108E
10
199.956600
20
76.712100
30
0.000000
11
199.956600
21
63.510000
31
0.000000
62
7
0
LINE
100
AcDbEntity
100
AcDbLine
8
PCL_Layer
5
108F
10
186.754500
20
76.712100
30
0.000000
11
199.956600
21
76.712100
31
0.000000
62
7
0
LINE
100
AcDbEntity
100
AcDbLine
8
PCL_Layer
5
1090
10
181.978800
20
120.669100
30
0.000000
11
181.978800
21
133.871200
31
0.000000
62
7
0
LINE
100
AcDbEntity
100
AcDbLine
8
PCL_Layer
5
1091
10
195.180900
20
120.669100
30
0.000000
11
181.978800
21
120.669100
31
0.000000
62
7
0
LINE
100
AcDbEntity
100
AcDbLine
8
PCL_Layer
5
1092
10
195.180900
20
133.871200
30
0.000000
11
195.180900
21
120.669100
31
0.000000
62
7
0
LINE
100
AcDbEntity
100
AcDbLine
8
PCL_Layer
5
1093
10
181.978800
20
133.871200
30
0.000000
11
195.180900
21
133.871200
31
0.000000
62
7
0
LINE
100
AcDbEntity
100
AcDbLine
8
PCL_Layer
5
1094
10
210.558300
20
101.616100
30
0.000000
11
210.558300
21
114.818200
31
0.000000
62
7
0
LINE
100
AcDbEntity
100
AcDbLine
8
PCL_Layer
5
1095
10
223.760400
20
101.616100
30
0.000000
11
210.558300
21
101.616100
31
0.000000
62
7
0
LINE
100
AcDbEntity
100
AcDbLine
8
PCL_Layer
5
1096
10
223.760400
20
114.818200
30
0.000000
11
223.760400
21
101.616100
31
0.000000
62
7
0
LINE
100
AcDbEntity
100
AcDbLine
8
PCL_Layer
5
1097
10
210.558300
20
114.818200
30
0.000000
11
223.760400
21
114.818200
31
0.000000
62
7
0
LINE
100
AcDbEntity
100
AcDbLine
8
PCL_Layer
5
1098
10
229.611300
20
101.616100
30
0.000000
11
229.611300
21
114.818200
31
0.000000
62
7
0
LINE
100
AcDbEntity
100
AcDbLine
8
PCL_Layer
5
1099
10
242.813400
20
101.616100
30
0.000000
11
229.611300
21
101.616100
31
0.000000
62
7
0
LINE
100
AcDbEntity
100
AcDbLine
8
PCL_Layer
5
109A
10
242.813400
20
114.818200
30
0.000000
11
242.813400
21
101.616100
31
0.000000
62
7
0
LINE
100
AcDbEntity
100
AcDbLine
8
PCL_Layer
5
109B
10
229.611300
20
114.818200
30
0.000000
11
242.813400
21
114.818200
31
0.000000
62
7
0
LINE
100
AcDbEntity
100
AcDbLine
8
PCL_Layer
5
109C
10
93.864900
20
82.563100
30
0.000000
11
93.864900
21
95.765100
31
0.000000
62
7
0
LINE
100
AcDbEntity
100
AcDbLine
8
PCL_Layer
5
109D
10
107.066900
20
82.563100
30
0.000000
11
93.864900
21
82.563100
31
0.000000
62
7
0
LINE
100
AcDbEntity
100
AcDbLine
8
PCL_Layer
5
109E
10
107.066900
20
95.765100
30
0.000000
11
107.066900
21
82.563100
31
0.000000
62
7
0
LINE
100
AcDbEntity
100
AcDbLine
8
PCL_Layer
5
109F
10
93.864900
20
95.765100
30
0.000000
11
107.066900
21
95.765100
31
0.000000
62
7
0
LINE
100
AcDbEntity
100
AcDbLine
8
PCL_Layer
5
10A0
10
401.088400
20
139.722100
30
0.000000
11
401.088400
21
152.924200
31
0.000000
62
7
0
LINE
100
AcDbEntity
100
AcDbLine
8
PCL_Layer
5
10A1
10
414.290600
20
139.722100
30
0.000000
11
401.088400
21
139.722100
31
0.000000
62
7
0
LINE
100
AcDbEntity
100
AcDbLine
8
PCL_Layer
5
10A2
10
414.290600
20
152.924200
30
0.000000
11
414.290600
21
139.722100
31
0.000000
62
7
0
LINE
100
AcDbEntity
100
AcDbLine
8
PCL_Layer
5
10A3
10
401.088400
20
152.924200
30
0.000000
11
414.290600
21
152.924200
31
0.000000
62
7
0
LINE
100
AcDbEntity
100
AcDbLine
8
PCL_Layer
5
10A4
10
279.619200
20
44.457000
30
0.000000
11
279.619200
21
57.659100
31
0.000000
62
7
0
LINE
100
AcDbEntity
100
AcDbLine
8
PCL_Layer
5
10A5
10
292.821300
20
44.457000
30
0.000000
11
279.619200
21
44.457000
31
0.000000
62
7
0
LINE
100
AcDbEntity
100
AcDbLine
8
PCL_Layer
5
10A6
10
292.821300
20
57.659100
30
0.000000
11
292.821300
21
44.457000
31
0.000000
62
7
0
LINE
100
AcDbEntity
100
AcDbLine
8
PCL_Layer
5
10A7
10
279.619200
20
57.659100
30
0.000000
11
292.821300
21
57.659100
31
0.000000
62
7
0
LINE
100
AcDbEntity
100
AcDbLine
8
PCL_Layer
5
10A8
10
301.072600
20
63.510000
30
0.000000
11
301.072600
21
76.712100
31
0.000000
62
7
0
LINE
100
AcDbEntity
100
AcDbLine
8
PCL_Layer
5
10A9
10
314.274700
20
63.510000
30
0.000000
11
301.072600
21
63.510000
31
0.000000
62
7
0
LINE
100
AcDbEntity
100
AcDbLine
8
PCL_Layer
5
10AA
10
314.274700
20
76.712100
30
0.000000
11
314.274700
21
63.510000
31
0.000000
62
7
0
LINE
100
AcDbEntity
100
AcDbLine
8
PCL_Layer
5
10AB
10
301.072600
20
76.712100
30
0.000000
11
314.274700
21
76.712100
31
0.000000
62
7
0
LINE
100
AcDbEntity
100
AcDbLine
8
PCL_Layer
5
10AC
10
324.876400
20
101.616100
30
0.000000
11
324.876400
21
114.818200
31
0.000000
62
7
0
LINE
100
AcDbEntity
100
AcDbLine
8
PCL_Layer
5
10AD
10
338.078500
20
101.616100
30
0.000000
11
324.876400
21
101.616100
31
0.000000
62
7
0
LINE
100
AcDbEntity
100
AcDbLine
8
PCL_Layer
5
10AE
10
338.078500
20
114.818200
30
0.000000
11
338.078500
21
101.616100
31
0.000000
62
7
0
LINE
100
AcDbEntity
100
AcDbLine
8
PCL_Layer
5
10AF
10
324.876400
20
114.818200
30
0.000000
11
338.078500
21
114.818200
31
0.000000
62
7
0
LINE
100
AcDbEntity
100
AcDbLine
8
PCL_Layer
5
10B0
10
220.084800
20
120.669100
30
0.000000
11
220.084800
21
133.871200
31
0.000000
62
7
0
LINE
100
AcDbEntity
100
AcDbLine
8
PCL_Layer
5
10B1
10
233.286900
20
120.669100
30
0.000000
11
220.084800
21
120.669100
31
0.000000
62
7
0
LINE
100
AcDbEntity
100
AcDbLine
8
PCL_Layer
5
10B2
10
233.286900
20
133.871200
30
0.000000
11
233.286900
21
120.669100
31
0.000000
62
7
0
LINE
100
AcDbEntity
100
AcDbLine
8
PCL_Layer
5
10B3
10
220.084800
20
133.871200
30
0.000000
11
233.286900
21
133.871200
31
0.000000
62
7
0
LINE
100
AcDbEntity
100
AcDbLine
8
PCL_Layer
5
10B4
10
148.648500
20
63.510000
30
0.000000
11
148.648500
21
76.712100
31
0.000000
62
7
0
LINE
100
AcDbEntity
100
AcDbLine
8
PCL_Layer
5
10B5
10
161.850600
20
63.510000
30
0.000000
11
148.648500
21
63.510000
31
0.000000
62
7
0
LINE
100
AcDbEntity
100
AcDbLine
8
PCL_Layer
5
10B6
10
161.850600
20
76.712100
30
0.000000
11
161.850600
21
63.510000
31
0.000000
62
7
0
LINE
100
AcDbEntity
100
AcDbLine
8
PCL_Layer
5
10B7
10
148.648500
20
76.712100
30
0.000000
11
161.850600
21
76.712100
31
0.000000
62
7
0
LINE
100
AcDbEntity
100
AcDbLine
8
PCL_Layer
5
10B8
10
401.088400
20
101.616100
30
0.000000
11
401.088400
21
114.818200
31
0.000000
62
7
0
LINE
100
AcDbEntity
100
AcDbLine
8
PCL_Layer
5
10B9
10
414.290600
20
101.616100
30
0.000000
11
401.088400
21
101.616100
31
0.000000
62
7
0
LINE
100
AcDbEntity
100
AcDbLine
8
PCL_Layer
5
10BA
10
414.290600
20
114.818200
30
0.000000
11
414.290600
21
101.616100
31
0.000000
62
7
0
LINE
100
AcDbEntity
100
AcDbLine
8
PCL_Layer
5
10BB
10
401.088400
20
114.818200
30
0.000000
11
414.290600
21
114.818200
31
0.000000
62
7
0
LINE
100
AcDbEntity
100
AcDbLine
8
PCL_Layer
5
10BC
10
248.664300
20
139.722100
30
0.000000
11
248.664300
21
152.924200
31
0.000000
62
7
0
LINE
100
AcDbEntity
100
AcDbLine
8
PCL_Layer
5
10BD
10
261.866400
20
139.722100
30
0.000000
11
248.664300
21
139.722100
31
0.000000
62
7
0
LINE
100
AcDbEntity
100
AcDbLine
8
PCL_Layer
5
10BE
10
261.866400
20
152.924200
30
0.000000
11
261.866400
21
139.722100
31
0.000000
62
7
0
LINE
100
AcDbEntity
100
AcDbLine
8
PCL_Layer
5
10BF
10
248.664300
20
152.924200
30
0.000000
11
261.866400
21
152.924200
31
0.000000
62
7
0
LINE
100
AcDbEntity
100
AcDbLine
8
PCL_Layer
5
10C0
10
167.701500
20
63.510000
30
0.000000
11
167.701500
21
76.712100
31
0.000000
62
7
0
LINE
100
AcDbEntity
100
AcDbLine
8
PCL_Layer
5
10C1
10
180.903600
20
63.510000
30
0.000000
11
167.701500
21
63.510000
31
0.000000
62
7
0
LINE
100
AcDbEntity
100
AcDbLine
8
PCL_Layer
5
10C2
10
180.903600
20
76.712100
30
0.000000
11
180.903600
21
63.510000
31
0.000000
62
7
0
LINE
100
AcDbEntity
100
AcDbLine
8
PCL_Layer
5
10C3
10
167.701500
20
76.712100
30
0.000000
11
180.903600
21
76.712100
31
0.000000
62
7
0
LINE
100
AcDbEntity
100
AcDbLine
8
PCL_Layer
5
10C4
10
29.554700
20
101.616100
30
0.000000
11
29.554700
21
114.818200
31
0.000000
62
7
0
LINE
100
AcDbEntity
100
AcDbLine
8
PCL_Layer
5
10C5
10
42.756800
20
101.616100
30
0.000000
11
29.554700
21
101.616100
31
0.000000
62
7
0
LINE
100
AcDbEntity
100
AcDbLine
8
PCL_Layer
5
10C6
10
42.756800
20
114.818200
30
0.000000
11
42.756800
21
101.616100
31
0.000000
62
7
0
LINE
100
AcDbEntity
100
AcDbLine
8
PCL_Layer
5
10C7
10
29.554700
20
114.818200
30
0.000000
11
42.756800
21
114.818200
31
0.000000
62
7
0
LINE
100
AcDbEntity
100
AcDbLine
8
PCL_Layer
5
10C8
10
234.387100
20
82.563100
30
0.000000
11
234.387100
21
95.765100
31
0.000000
62
7
0
LINE
100
AcDbEntity
100
AcDbLine
8
PCL_Layer
5
10C9
10
247.589200
20
82.563100
30
0.000000
11
234.387100
21
82.563100
31
0.000000
62
7
0
LINE
100
AcDbEntity
100
AcDbLine
8
PCL_Layer
5
10CA
10
247.589200
20
95.765100
30
0.000000
11
247.589200
21
82.563100
31
0.000000
62
7
0
LINE
100
AcDbEntity
100
AcDbLine
8
PCL_Layer
5
10CB
10
234.387100
20
95.765100
30
0.000000
11
247.589200
21
95.765100
31
0.000000
62
7
0
LINE
100
AcDbEntity
100
AcDbLine
8
PCL_Layer
5
10CC
10
10.501700
20
26.179100
30
0.000000
11
23.703800
21
26.179100
31
0.000000
62
7
0
LINE
100
AcDbEntity
100
AcDbLine
8
PCL_Layer
5
10CD
10
10.501700
20
12.977100
30
0.000000
11
10.501700
21
26.179100
31
0.000000
62
7
0
LINE
100
AcDbEntity
100
AcDbLine
8
PCL_Layer
5
10CE
10
23.703800
20
26.179100
30
0.000000
11
23.703800
21
12.977100
31
0.000000
62
7
0
LINE
100
AcDbEntity
100
AcDbLine
8
PCL_Layer
5
10CF
10
23.703800
20
12.977100
30
0.000000
11
10.501700
21
12.977100
31
0.000000
62
7
0
LINE
100
AcDbEntity
100
AcDbLine
8
PCL_Layer
5
10D0
10
60.509600
20
26.179100
30
0.000000
11
73.711700
21
26.179100
31
0.000000
62
7
0
LINE
100
AcDbEntity
100
AcDbLine
8
PCL_Layer
5
10D1
10
60.509600
20
12.977100
30
0.000000
11
60.509600
21
26.179100
31
0.000000
62
7
0
LINE
100
AcDbEntity
100
AcDbLine
8
PCL_Layer
5
10D2
10
73.711700
20
26.179100
30
0.000000
11
73.711700
21
12.977100
31
0.000000
62
7
0
LINE
100
AcDbEntity
100
AcDbLine
8
PCL_Layer
5
10D3
10
73.711700
20
12.977100
30
0.000000
11
60.509600
21
12.977100
31
0.000000
62
7
0
LINE
100
AcDbEntity
100
AcDbLine
8
PCL_Layer
5
10D4
10
110.542500
20
26.179100
30
0.000000
11
123.744600
21
26.179100
31
0.000000
62
7
0
LINE
100
AcDbEntity
100
AcDbLine
8
PCL_Layer
5
10D5
10
110.542500
20
12.977100
30
0.000000
11
110.542500
21
26.179100
31
0.000000
62
7
0
LINE
100
AcDbEntity
100
AcDbLine
8
PCL_Layer
5
10D6
10
123.744600
20
26.179100
30
0.000000
11
123.744600
21
12.977100
31
0.000000
62
7
0
LINE
100
AcDbEntity
100
AcDbLine
8
PCL_Layer
5
10D7
10
123.744600
20
12.977100
30
0.000000
11
110.542500
21
12.977100
31
0.000000
62
7
0
LINE
100
AcDbEntity
100
AcDbLine
8
PCL_Layer
5
10D8
10
172.452300
20
101.616100
30
0.000000
11
172.452300
21
114.818200
31
0.000000
62
7
0
LINE
100
AcDbEntity
100
AcDbLine
8
PCL_Layer
5
10D9
10
185.654400
20
101.616100
30
0.000000
11
172.452300
21
101.616100
31
0.000000
62
7
0
LINE
100
AcDbEntity
100
AcDbLine
8
PCL_Layer
5
10DA
10
185.654400
20
114.818200
30
0.000000
11
185.654400
21
101.616100
31
0.000000
62
7
0
LINE
100
AcDbEntity
100
AcDbLine
8
PCL_Layer
5
10DB
10
172.452300
20
114.818200
30
0.000000
11
185.654400
21
114.818200
31
0.000000
62
7
0
LINE
100
AcDbEntity
100
AcDbLine
8
PCL_Layer
5
10DC
10
291.546100
20
82.563100
30
0.000000
11
291.546100
21
95.765100
31
0.000000
62
7
0
LINE
100
AcDbEntity
100
AcDbLine
8
PCL_Layer
5
10DD
10
304.748200
20
82.563100
30
0.000000
11
291.546100
21
82.563100
31
0.000000
62
7
0
LINE
100
AcDbEntity
100
AcDbLine
8
PCL_Layer
5
10DE
10
304.748200
20
95.765100
30
0.000000
11
304.748200
21
82.563100
31
0.000000
62
7
0
LINE
100
AcDbEntity
100
AcDbLine
8
PCL_Layer
5
10DF
10
291.546100
20
95.765100
30
0.000000
11
304.748200
21
95.765100
31
0.000000
62
7
0
LINE
100
AcDbEntity
100
AcDbLine
8
PCL_Layer
5
10E0
10
448.721000
20
101.616100
30
0.000000
11
448.721000
21
114.818200
31
0.000000
62
7
0
LINE
100
AcDbEntity
100
AcDbLine
8
PCL_Layer
5
10E1
10
461.923000
20
101.616100
30
0.000000
11
448.721000
21
101.616100
31
0.000000
62
7
0
LINE
100
AcDbEntity
100
AcDbLine
8
PCL_Layer
5
10E2
10
461.923000
20
114.818200
30
0.000000
11
461.923000
21
101.616100
31
0.000000
62
7
0
LINE
100
AcDbEntity
100
AcDbLine
8
PCL_Layer
5
10E3
10
448.721000
20
114.818200
30
0.000000
11
461.923000
21
114.818200
31
0.000000
62
7
0
LINE
100
AcDbEntity
100
AcDbLine
8
PCL_Layer
5
10E4
10
58.134200
20
120.669100
30
0.000000
11
58.134200
21
133.871200
31
0.000000
62
7
0
LINE
100
AcDbEntity
100
AcDbLine
8
PCL_Layer
5
10E5
10
71.336300
20
120.669100
30
0.000000
11
58.134200
21
120.669100
31
0.000000
62
7
0
LINE
100
AcDbEntity
100
AcDbLine
8
PCL_Layer
5
10E6
10
71.336300
20
133.871200
30
0.000000
11
71.336300
21
120.669100
31
0.000000
62
7
0
LINE
100
AcDbEntity
100
AcDbLine
8
PCL_Layer
5
10E7
10
58.134200
20
133.871200
30
0.000000
11
71.336300
21
133.871200
31
0.000000
62
7
0
LINE
100
AcDbEntity
100
AcDbLine
8
PCL_Layer
5
10E8
10
134.346300
20
139.722100
30
0.000000
11
134.346300
21
152.924200
31
0.000000
62
7
0
LINE
100
AcDbEntity
100
AcDbLine
8
PCL_Layer
5
10E9
10
147.548300
20
139.722100
30
0.000000
11
134.346300
21
139.722100
31
0.000000
62
7
0
LINE
100
AcDbEntity
100
AcDbLine
8
PCL_Layer
5
10EA
10
147.548300
20
152.924200
30
0.000000
11
147.548300
21
139.722100
31
0.000000
62
7
0
LINE
100
AcDbEntity
100
AcDbLine
8
PCL_Layer
5
10EB
10
134.346300
20
152.924200
30
0.000000
11
147.548300
21
152.924200
31
0.000000
62
7
0
LINE
100
AcDbEntity
100
AcDbLine
8
PCL_Layer
5
10EC
10
86.713700
20
76.712100
30
0.000000
11
99.915800
21
76.712100
31
0.000000
62
7
0
LINE
100
AcDbEntity
100
AcDbLine
8
PCL_Layer
5
10ED
10
86.713700
20
63.510000
30
0.000000
11
86.713700
21
76.712100
31
0.000000
62
7
0
LINE
100
AcDbEntity
100
AcDbLine
8
PCL_Layer
5
10EE
10
99.915800
20
76.712100
30
0.000000
11
99.915800
21
63.510000
31
0.000000
62
7
0
LINE
100
AcDbEntity
100
AcDbLine
8
PCL_Layer
5
10EF
10
99.915800
20
63.510000
30
0.000000
11
86.713700
21
63.510000
31
0.000000
62
7
0
LINE
100
AcDbEntity
100
AcDbLine
8
PCL_Layer
5
10F0
10
110.517500
20
76.712100
30
0.000000
11
123.719600
21
76.712100
31
0.000000
62
7
0
LINE
100
AcDbEntity
100
AcDbLine
8
PCL_Layer
5
10F1
10
110.517500
20
63.510000
30
0.000000
11
110.517500
21
76.712100
31
0.000000
62
7
0
LINE
100
AcDbEntity
100
AcDbLine
8
PCL_Layer
5
10F2
10
123.719600
20
76.712100
30
0.000000
11
123.719600
21
63.510000
31
0.000000
62
7
0
LINE
100
AcDbEntity
100
AcDbLine
8
PCL_Layer
5
10F3
10
123.719600
20
63.510000
30
0.000000
11
110.517500
21
63.510000
31
0.000000
62
7
0
LINE
100
AcDbEntity
100
AcDbLine
8
PCL_Layer
5
10F4
10
72.436500
20
44.457000
30
0.000000
11
72.436500
21
57.659100
31
0.000000
62
7
0
LINE
100
AcDbEntity
100
AcDbLine
8
PCL_Layer
5
10F5
10
85.638500
20
44.457000
30
0.000000
11
72.436500
21
44.457000
31
0.000000
62
7
0
LINE
100
AcDbEntity
100
AcDbLine
8
PCL_Layer
5
10F6
10
85.638500
20
57.659100
30
0.000000
11
85.638500
21
44.457000
31
0.000000
62
7
0
LINE
100
AcDbEntity
100
AcDbLine
8
PCL_Layer
5
10F7
10
72.436500
20
57.659100
30
0.000000
11
85.638500
21
57.659100
31
0.000000
62
7
0
LINE
100
AcDbEntity
100
AcDbLine
8
PCL_Layer
5
10F8
10
346.454800
20
26.179100
30
0.000000
11
359.656900
21
26.179100
31
0.000000
62
7
0
LINE
100
AcDbEntity
100
AcDbLine
8
PCL_Layer
5
10F9
10
346.454800
20
12.977100
30
0.000000
11
346.454800
21
26.179100
31
0.000000
62
7
0
LINE
100
AcDbEntity
100
AcDbLine
8
PCL_Layer
5
10FA
10
359.656900
20
26.179100
30
0.000000
11
359.656900
21
12.977100
31
0.000000
62
7
0
LINE
100
AcDbEntity
100
AcDbLine
8
PCL_Layer
5
10FB
10
359.656900
20
12.977100
30
0.000000
11
346.454800
21
12.977100
31
0.000000
62
7
0
LINE
100
AcDbEntity
100
AcDbLine
8
PCL_Layer
5
10FC
10
396.462700
20
26.179100
30
0.000000
11
409.664800
21
26.179100
31
0.000000
62
7
0
LINE
100
AcDbEntity
100
AcDbLine
8
PCL_Layer
5
10FD
10
396.462700
20
12.977100
30
0.000000
11
396.462700
21
26.179100
31
0.000000
62
7
0
LINE
100
AcDbEntity
100
AcDbLine
8
PCL_Layer
5
10FE
10
409.664800
20
26.179100
30
0.000000
11
409.664800
21
12.977100
31
0.000000
62
7
0
LINE
100
AcDbEntity
100
AcDbLine
8
PCL_Layer
5
10FF
10
409.664800
20
12.977100
30
0.000000
11
396.462700
21
12.977100
31
0.000000
62
7
0
LINE
100
AcDbEntity
100
AcDbLine
8
PCL_Layer
5
1100
10
446.470600
20
26.179100
30
0.000000
11
459.672700
21
26.179100
31
0.000000
62
7
0
LINE
100
AcDbEntity
100
AcDbLine
8
PCL_Layer
5
1101
10
446.470600
20
12.977100
30
0.000000
11
446.470600
21
26.179100
31
0.000000
62
7
0
LINE
100
AcDbEntity
100
AcDbLine
8
PCL_Layer
5
1102
10
459.672700
20
26.179100
30
0.000000
11
459.672700
21
12.977100
31
0.000000
62
7
0
LINE
100
AcDbEntity
100
AcDbLine
8
PCL_Layer
5
1103
10
459.672700
20
12.977100
30
0.000000
11
446.470600
21
12.977100
31
0.000000
62
7
0
LINE
100
AcDbEntity
100
AcDbLine
8
PCL_Layer
5
1104
10
386.811200
20
44.457000
30
0.000000
11
386.811200
21
57.659100
31
0.000000
62
7
0
LINE
100
AcDbEntity
100
AcDbLine
8
PCL_Layer
5
1105
10
400.013300
20
44.457000
30
0.000000
11
386.811200
21
44.457000
31
0.000000
62
7
0
LINE
100
AcDbEntity
100
AcDbLine
8
PCL_Layer
5
1106
10
400.013300
20
57.659100
30
0.000000
11
400.013300
21
44.457000
31
0.000000
62
7
0
LINE
100
AcDbEntity
100
AcDbLine
8
PCL_Layer
5
1107
10
386.811200
20
57.659100
30
0.000000
11
400.013300
21
57.659100
31
0.000000
62
7
0
LINE
100
AcDbEntity
100
AcDbLine
8
PCL_Layer
5
1108
10
324.876400
20
139.722100
30
0.000000
11
324.876400
21
152.924200
31
0.000000
62
7
0
LINE
100
AcDbEntity
100
AcDbLine
8
PCL_Layer
5
1109
10
338.078500
20
139.722100
30
0.000000
11
324.876400
21
139.722100
31
0.000000
62
7
0
LINE
100
AcDbEntity
100
AcDbLine
8
PCL_Layer
5
110A
10
338.078500
20
152.924200
30
0.000000
11
338.078500
21
139.722100
31
0.000000
62
7
0
LINE
100
AcDbEntity
100
AcDbLine
8
PCL_Layer
5
110B
10
324.876400
20
152.924200
30
0.000000
11
338.078500
21
152.924200
31
0.000000
62
7
0
LINE
100
AcDbEntity
100
AcDbLine
8
PCL_Layer
5
110C
10
329.652200
20
44.457000
30
0.000000
11
329.652200
21
57.659100
31
0.000000
62
7
0
LINE
100
AcDbEntity
100
AcDbLine
8
PCL_Layer
5
110D
10
342.854200
20
44.457000
30
0.000000
11
329.652200
21
44.457000
31
0.000000
62
7
0
LINE
100
AcDbEntity
100
AcDbLine
8
PCL_Layer
5
110E
10
342.854200
20
57.659100
30
0.000000
11
342.854200
21
44.457000
31
0.000000
62
7
0
LINE
100
AcDbEntity
100
AcDbLine
8
PCL_Layer
5
110F
10
329.652200
20
57.659100
30
0.000000
11
342.854200
21
57.659100
31
0.000000
62
7
0
LINE
100
AcDbEntity
100
AcDbLine
8
PCL_Layer
5
1110
10
215.334100
20
82.563100
30
0.000000
11
215.334100
21
95.765100
31
0.000000
62
7
0
LINE
100
AcDbEntity
100
AcDbLine
8
PCL_Layer
5
1111
10
228.536100
20
82.563100
30
0.000000
11
215.334100
21
82.563100
31
0.000000
62
7
0
LINE
100
AcDbEntity
100
AcDbLine
8
PCL_Layer
5
1112
10
228.536100
20
95.765100
30
0.000000
11
228.536100
21
82.563100
31
0.000000
62
7
0
LINE
100
AcDbEntity
100
AcDbLine
8
PCL_Layer
5
1113
10
215.334100
20
95.765100
30
0.000000
11
228.536100
21
95.765100
31
0.000000
62
7
0
LINE
100
AcDbEntity
100
AcDbLine
8
PCL_Layer
5
1114
10
339.178600
20
82.563100
30
0.000000
11
339.178600
21
95.765100
31
0.000000
62
7
0
LINE
100
AcDbEntity
100
AcDbLine
8
PCL_Layer
5
1115
10
352.380700
20
82.563100
30
0.000000
11
339.178600
21
82.563100
31
0.000000
62
7
0
LINE
100
AcDbEntity
100
AcDbLine
8
PCL_Layer
5
1116
10
352.380700
20
95.765100
30
0.000000
11
352.380700
21
82.563100
31
0.000000
62
7
0
LINE
100
AcDbEntity
100
AcDbLine
8
PCL_Layer
5
1117
10
339.178600
20
95.765100
30
0.000000
11
352.380700
21
95.765100
31
0.000000
62
7
0
LINE
100
AcDbEntity
100
AcDbLine
8
PCL_Layer
5
1118
10
362.982400
20
139.722100
30
0.000000
11
362.982400
21
152.924200
31
0.000000
62
7
0
LINE
100
AcDbEntity
100
AcDbLine
8
PCL_Layer
5
1119
10
376.184500
20
139.722100
30
0.000000
11
362.982400
21
139.722100
31
0.000000
62
7
0
LINE
100
AcDbEntity
100
AcDbLine
8
PCL_Layer
5
111A
10
376.184500
20
152.924200
30
0.000000
11
376.184500
21
139.722100
31
0.000000
62
7
0
LINE
100
AcDbEntity
100
AcDbLine
8
PCL_Layer
5
111B
10
362.982400
20
152.924200
30
0.000000
11
376.184500
21
152.924200
31
0.000000
62
7
0
LINE
100
AcDbEntity
100
AcDbLine
8
PCL_Layer
5
111C
10
20.028200
20
82.563100
30
0.000000
11
20.028200
21
95.765100
31
0.000000
62
7
0
LINE
100
AcDbEntity
100
AcDbLine
8
PCL_Layer
5
111D
10
33.230300
20
82.563100
30
0.000000
11
20.028200
21
82.563100
31
0.000000
62
7
0
LINE
100
AcDbEntity
100
AcDbLine
8
PCL_Layer
5
111E
10
33.230300
20
95.765100
30
0.000000
11
33.230300
21
82.563100
31
0.000000
62
7
0
LINE
100
AcDbEntity
100
AcDbLine
8
PCL_Layer
5
111F
10
20.028200
20
95.765100
30
0.000000
11
33.230300
21
95.765100
31
0.000000
62
7
0
LINE
100
AcDbEntity
100
AcDbLine
8
PCL_Layer
5
1120
10
177.228000
20
82.563100
30
0.000000
11
177.228000
21
95.765100
31
0.000000
62
7
0
LINE
100
AcDbEntity
100
AcDbLine
8
PCL_Layer
5
1121
10
190.430100
20
82.563100
30
0.000000
11
177.228000
21
82.563100
31
0.000000
62
7
0
LINE
100
AcDbEntity
100
AcDbLine
8
PCL_Layer
5
1122
10
190.430100
20
95.765100
30
0.000000
11
190.430100
21
82.563100
31
0.000000
62
7
0
LINE
100
AcDbEntity
100
AcDbLine
8
PCL_Layer
5
1123
10
177.228000
20
95.765100
30
0.000000
11
190.430100
21
95.765100
31
0.000000
62
7
0
LINE
100
AcDbEntity
100
AcDbLine
8
PCL_Layer
5
1124
10
234.362100
20
57.659100
30
0.000000
11
247.564100
21
57.659100
31
0.000000
62
7
0
LINE
100
AcDbEntity
100
AcDbLine
8
PCL_Layer
5
1125
10
234.362100
20
44.457000
30
0.000000
11
234.362100
21
57.659100
31
0.000000
62
7
0
LINE
100
AcDbEntity
100
AcDbLine
8
PCL_Layer
5
1126
10
247.564100
20
57.659100
30
0.000000
11
247.564100
21
44.457000
31
0.000000
62
7
0
LINE
100
AcDbEntity
100
AcDbLine
8
PCL_Layer
5
1127
10
247.564100
20
44.457000
30
0.000000
11
234.362100
21
44.457000
31
0.000000
62
7
0
LINE
100
AcDbEntity
100
AcDbLine
8
PCL_Layer
5
1128
10
258.165800
20
57.659100
30
0.000000
11
271.367900
21
57.659100
31
0.000000
62
7
0
LINE
100
AcDbEntity
100
AcDbLine
8
PCL_Layer
5
1129
10
258.165800
20
44.457000
30
0.000000
11
258.165800
21
57.659100
31
0.000000
62
7
0
LINE
100
AcDbEntity
100
AcDbLine
8
PCL_Layer
5
112A
10
271.367900
20
57.659100
30
0.000000
11
271.367900
21
44.457000
31
0.000000
62
7
0
LINE
100
AcDbEntity
100
AcDbLine
8
PCL_Layer
5
112B
10
271.367900
20
44.457000
30
0.000000
11
258.165800
21
44.457000
31
0.000000
62
7
0
LINE
100
AcDbEntity
100
AcDbLine
8
PCL_Layer
5
112C
10
396.337700
20
63.510000
30
0.000000
11
396.337700
21
76.712100
31
0.000000
62
7
0
LINE
100
AcDbEntity
100
AcDbLine
8
PCL_Layer
5
112D
10
409.539800
20
63.510000
30
0.000000
11
396.337700
21
63.510000
31
0.000000
62
7
0
LINE
100
AcDbEntity
100
AcDbLine
8
PCL_Layer
5
112E
10
409.539800
20
76.712100
30
0.000000
11
409.539800
21
63.510000
31
0.000000
62
7
0
LINE
100
AcDbEntity
100
AcDbLine
8
PCL_Layer
5
112F
10
396.337700
20
76.712100
30
0.000000
11
409.539800
21
76.712100
31
0.000000
62
7
0
LINE
100
AcDbEntity
100
AcDbLine
8
PCL_Layer
5
1130
10
315.349900
20
120.669100
30
0.000000
11
315.349900
21
133.871200
31
0.000000
62
7
0
LINE
100
AcDbEntity
100
AcDbLine
8
PCL_Layer
5
1131
10
328.552000
20
120.669100
30
0.000000
11
315.349900
21
120.669100
31
0.000000
62
7
0
LINE
100
AcDbEntity
100
AcDbLine
8
PCL_Layer
5
1132
10
328.552000
20
133.871200
30
0.000000
11
328.552000
21
120.669100
31
0.000000
62
7
0
LINE
100
AcDbEntity
100
AcDbLine
8
PCL_Layer
5
1133
10
315.349900
20
133.871200
30
0.000000
11
328.552000
21
133.871200
31
0.000000
62
7
0
LINE
100
AcDbEntity
100
AcDbLine
8
PCL_Layer
5
1134
10
172.452300
20
139.722100
30
0.000000
11
172.452300
21
152.924200
31
0.000000
62
7
0
LINE
100
AcDbEntity
100
AcDbLine
8
PCL_Layer
5
1135
10
185.654400
20
139.722100
30
0.000000
11
172.452300
21
139.722100
31
0.000000
62
7
0
LINE
100
AcDbEntity
100
AcDbLine
8
PCL_Layer
5
1136
10
185.654400
20
152.924200
30
0.000000
11
185.654400
21
139.722100
31
0.000000
62
7
0
LINE
100
AcDbEntity
100
AcDbLine
8
PCL_Layer
5
1137
10
172.452300
20
152.924200
30
0.000000
11
185.654400
21
152.924200
31
0.000000
62
7
0
LINE
100
AcDbEntity
100
AcDbLine
8
PCL_Layer
5
1138
10
267.717300
20
101.616100
30
0.000000
11
267.717300
21
114.818200
31
0.000000
62
7
0
LINE
100
AcDbEntity
100
AcDbLine
8
PCL_Layer
5
1139
10
280.919400
20
101.616100
30
0.000000
11
267.717300
21
101.616100
31
0.000000
62
7
0
LINE
100
AcDbEntity
100
AcDbLine
8
PCL_Layer
5
113A
10
280.919400
20
114.818200
30
0.000000
11
280.919400
21
101.616100
31
0.000000
62
7
0
LINE
100
AcDbEntity
100
AcDbLine
8
PCL_Layer
5
113B
10
267.717300
20
114.818200
30
0.000000
11
280.919400
21
114.818200
31
0.000000
62
7
0
LINE
100
AcDbEntity
100
AcDbLine
8
PCL_Layer
5
113C
10
191.505300
20
101.616100
30
0.000000
11
191.505300
21
114.818200
31
0.000000
62
7
0
LINE
100
AcDbEntity
100
AcDbLine
8
PCL_Layer
5
113D
10
204.707400
20
101.616100
30
0.000000
11
191.505300
21
101.616100
31
0.000000
62
7
0
LINE
100
AcDbEntity
100
AcDbLine
8
PCL_Layer
5
113E
10
204.707400
20
114.818200
30
0.000000
11
204.707400
21
101.616100
31
0.000000
62
7
0
LINE
100
AcDbEntity
100
AcDbLine
8
PCL_Layer
5
113F
10
191.505300
20
114.818200
30
0.000000
11
204.707400
21
114.818200
31
0.000000
62
7
0
LINE
100
AcDbEntity
100
AcDbLine
8
PCL_Layer
5
1140
10
10.501700
20
120.669100
30
0.000000
11
10.501700
21
133.871200
31
0.000000
62
7
0
LINE
100
AcDbEntity
100
AcDbLine
8
PCL_Layer
5
1141
10
23.703800
20
120.669100
30
0.000000
11
10.501700
21
120.669100
31
0.000000
62
7
0
LINE
100
AcDbEntity
100
AcDbLine
8
PCL_Layer
5
1142
10
23.703800
20
133.871200
30
0.000000
11
23.703800
21
120.669100
31
0.000000
62
7
0
LINE
100
AcDbEntity
100
AcDbLine
8
PCL_Layer
5
1143
10
10.501700
20
133.871200
30
0.000000
11
23.703800
21
133.871200
31
0.000000
62
7
0
LINE
100
AcDbEntity
100
AcDbLine
8
PCL_Layer
5
1144
10
10.501700
20
63.510000
30
0.000000
11
10.501700
21
76.712100
31
0.000000
62
7
0
LINE
100
AcDbEntity
100
AcDbLine
8
PCL_Layer
5
1145
10
23.703800
20
63.510000
30
0.000000
11
10.501700
21
63.510000
31
0.000000
62
7
0
LINE
100
AcDbEntity
100
AcDbLine
8
PCL_Layer
5
1146
10
23.703800
20
76.712100
30
0.000000
11
23.703800
21
63.510000
31
0.000000
62
7
0
LINE
100
AcDbEntity
100
AcDbLine
8
PCL_Layer
5
1147
10
10.501700
20
76.712100
30
0.000000
11
23.703800
21
76.712100
31
0.000000
62
7
0
LINE
100
AcDbEntity
100
AcDbLine
8
PCL_Layer
5
1148
10
143.872800
20
120.669100
30
0.000000
11
143.872800
21
133.871200
31
0.000000
62
7
0
LINE
100
AcDbEntity
100
AcDbLine
8
PCL_Layer
5
1149
10
157.074800
20
120.669100
30
0.000000
11
143.872800
21
120.669100
31
0.000000
62
7
0
LINE
100
AcDbEntity
100
AcDbLine
8
PCL_Layer
5
114A
10
157.074800
20
133.871200
30
0.000000
11
157.074800
21
120.669100
31
0.000000
62
7
0
LINE
100
AcDbEntity
100
AcDbLine
8
PCL_Layer
5
114B
10
143.872800
20
133.871200
30
0.000000
11
157.074800
21
133.871200
31
0.000000
62
7
0
LINE
100
AcDbEntity
100
AcDbLine
8
PCL_Layer
5
114C
10
443.970200
20
44.457000
30
0.000000
11
443.970200
21
57.659100
31
0.000000
62
7
0
LINE
100
AcDbEntity
100
AcDbLine
8
PCL_Layer
5
114D
10
457.172300
20
44.457000
30
0.000000
11
443.970200
21
44.457000
31
0.000000
62
7
0
LINE
100
AcDbEntity
100
AcDbLine
8
PCL_Layer
5
114E
10
457.172300
20
57.659100
30
0.000000
11
457.172300
21
44.457000
31
0.000000
62
7
0
LINE
100
AcDbEntity
100
AcDbLine
8
PCL_Layer
5
114F
10
443.970200
20
57.659100
30
0.000000
11
457.172300
21
57.659100
31
0.000000
62
7
0
LINE
100
AcDbEntity
100
AcDbLine
8
PCL_Layer
5
1150
10
58.134200
20
101.616100
30
0.000000
11
58.134200
21
114.818200
31
0.000000
62
7
0
LINE
100
AcDbEntity
100
AcDbLine
8
PCL_Layer
5
1151
10
71.336300
20
101.616100
30
0.000000
11
58.134200
21
101.616100
31
0.000000
62
7
0
LINE
100
AcDbEntity
100
AcDbLine
8
PCL_Layer
5
1152
10
71.336300
20
114.818200
30
0.000000
11
71.336300
21
101.616100
31
0.000000
62
7
0
LINE
100
AcDbEntity
100
AcDbLine
8
PCL_Layer
5
1153
10
58.134200
20
114.818200
30
0.000000
11
71.336300
21
114.818200
31
0.000000
62
7
0
LINE
100
AcDbEntity
100
AcDbLine
8
PCL_Layer
5
1154
10
186.729500
20
57.709100
30
0.000000
11
199.931600
21
57.659100
31
0.000000
62
7
0
LINE
100
AcDbEntity
100
AcDbLine
8
PCL_Layer
5
1155
10
186.729500
20
44.507000
30
0.000000
11
186.729500
21
57.709100
31
0.000000
62
7
0
LINE
100
AcDbEntity
100
AcDbLine
8
PCL_Layer
5
1156
10
199.931600
20
57.709100
30
0.000000
11
199.931600
21
44.507000
31
0.000000
62
7
0
LINE
100
AcDbEntity
100
AcDbLine
8
PCL_Layer
5
1157
10
199.931600
20
44.507000
30
0.000000
11
186.729500
21
44.507000
31
0.000000
62
7
0
LINE
100
AcDbEntity
100
AcDbLine
8
PCL_Layer
5
1158
10
210.558300
20
57.684100
30
0.000000
11
223.760400
21
57.659100
31
0.000000
62
7
0
LINE
100
AcDbEntity
100
AcDbLine
8
PCL_Layer
5
1159
10
210.558300
20
44.482000
30
0.000000
11
210.558300
21
57.684100
31
0.000000
62
7
0
LINE
100
AcDbEntity
100
AcDbLine
8
PCL_Layer
5
115A
10
223.760400
20
57.684100
30
0.000000
11
223.760400
21
44.482000
31
0.000000
62
7
0
LINE
100
AcDbEntity
100
AcDbLine
8
PCL_Layer
5
115B
10
223.760400
20
44.457000
30
0.000000
11
210.558300
21
44.482000
31
0.000000
62
7
0
LINE
100
AcDbEntity
100
AcDbLine
8
PCL_Layer
5
115C
10
286.770400
20
139.722100
30
0.000000
11
286.770400
21
152.924200
31
0.000000
62
7
0
LINE
100
AcDbEntity
100
AcDbLine
8
PCL_Layer
5
115D
10
299.972400
20
139.722100
30
0.000000
11
286.770400
21
139.722100
31
0.000000
62
7
0
LINE
100
AcDbEntity
100
AcDbLine
8
PCL_Layer
5
115E
10
299.972400
20
152.924200
30
0.000000
11
299.972400
21
139.722100
31
0.000000
62
7
0
LINE
100
AcDbEntity
100
AcDbLine
8
PCL_Layer
5
115F
10
286.770400
20
152.924200
30
0.000000
11
299.972400
21
152.924200
31
0.000000
62
7
0
LINE
100
AcDbEntity
100
AcDbLine
8
PCL_Layer
5
1160
10
205.807500
20
63.510000
30
0.000000
11
205.807500
21
76.712100
31
0.000000
62
7
0
LINE
100
AcDbEntity
100
AcDbLine
8
PCL_Layer
5
1161
10
219.009600
20
63.510000
30
0.000000
11
205.807500
21
63.510000
31
0.000000
62
7
0
LINE
100
AcDbEntity
100
AcDbLine
8
PCL_Layer
5
1162
10
219.009600
20
76.712100
30
0.000000
11
219.009600
21
63.510000
31
0.000000
62
7
0
LINE
100
AcDbEntity
100
AcDbLine
8
PCL_Layer
5
1163
10
205.807500
20
76.712100
30
0.000000
11
219.009600
21
76.712100
31
0.000000
62
7
0
LINE
100
AcDbEntity
100
AcDbLine
8
PCL_Layer
5
1164
10
196.281100
20
82.563100
30
0.000000
11
196.281100
21
95.765100
31
0.000000
62
7
0
LINE
100
AcDbEntity
100
AcDbLine
8
PCL_Layer
5
1165
10
209.483100
20
82.563100
30
0.000000
11
196.281100
21
82.563100
31
0.000000
62
7
0
LINE
100
AcDbEntity
100
AcDbLine
8
PCL_Layer
5
1166
10
209.483100
20
95.765100
30
0.000000
11
209.483100
21
82.563100
31
0.000000
62
7
0
LINE
100
AcDbEntity
100
AcDbLine
8
PCL_Layer
5
1167
10
196.281100
20
95.765100
30
0.000000
11
209.483100
21
95.765100
31
0.000000
62
7
0
LINE
100
AcDbEntity
100
AcDbLine
8
PCL_Layer
5
1168
10
370.133500
20
82.563100
30
0.000000
11
370.133500
21
95.765100
31
0.000000
62
7
0
LINE
100
AcDbEntity
100
AcDbLine
8
PCL_Layer
5
1169
10
383.335600
20
82.563100
30
0.000000
11
370.133500
21
82.563100
31
0.000000
62
7
0
LINE
100
AcDbEntity
100
AcDbLine
8
PCL_Layer
5
116A
10
383.335600
20
95.765100
30
0.000000
11
383.335600
21
82.563100
31
0.000000
62
7
0
LINE
100
AcDbEntity
100
AcDbLine
8
PCL_Layer
5
116B
10
370.133500
20
95.765100
30
0.000000
11
383.335600
21
95.765100
31
0.000000
62
7
0
LINE
100
AcDbEntity
100
AcDbLine
8
PCL_Layer
5
116C
10
10.501700
20
101.616100
30
0.000000
11
10.501700
21
114.818200
31
0.000000
62
7
0
LINE
100
AcDbEntity
100
AcDbLine
8
PCL_Layer
5
116D
10
23.703800
20
101.616100
30
0.000000
11
10.501700
21
101.616100
31
0.000000
62
7
0
LINE
100
AcDbEntity
100
AcDbLine
8
PCL_Layer
5
116E
10
23.703800
20
114.818200
30
0.000000
11
23.703800
21
101.616100
31
0.000000
62
7
0
LINE
100
AcDbEntity
100
AcDbLine
8
PCL_Layer
5
116F
10
10.501700
20
114.818200
30
0.000000
11
23.703800
21
114.818200
31
0.000000
62
7
0
LINE
100
AcDbEntity
100
AcDbLine
8
PCL_Layer
5
1170
10
401.088400
20
82.563100
30
0.000000
11
401.088400
21
95.765100
31
0.000000
62
7
0
LINE
100
AcDbEntity
100
AcDbLine
8
PCL_Layer
5
1171
10
414.290600
20
82.563100
30
0.000000
11
401.088400
21
82.563100
31
0.000000
62
7
0
LINE
100
AcDbEntity
100
AcDbLine
8
PCL_Layer
5
1172
10
414.290600
20
95.765100
30
0.000000
11
414.290600
21
82.563100
31
0.000000
62
7
0
LINE
100
AcDbEntity
100
AcDbLine
8
PCL_Layer
5
1173
10
401.088400
20
95.765100
30
0.000000
11
414.290600
21
95.765100
31
0.000000
62
7
0
LINE
100
AcDbEntity
100
AcDbLine
8
PCL_Layer
5
1174
10
210.558300
20
139.722100
30
0.000000
11
210.558300
21
152.924200
31
0.000000
62
7
0
LINE
100
AcDbEntity
100
AcDbLine
8
PCL_Layer
5
1175
10
223.760400
20
139.722100
30
0.000000
11
210.558300
21
139.722100
31
0.000000
62
7
0
LINE
100
AcDbEntity
100
AcDbLine
8
PCL_Layer
5
1176
10
223.760400
20
152.924200
30
0.000000
11
223.760400
21
139.722100
31
0.000000
62
7
0
LINE
100
AcDbEntity
100
AcDbLine
8
PCL_Layer
5
1177
10
210.558300
20
152.924200
30
0.000000
11
223.760400
21
152.924200
31
0.000000
62
7
0
LINE
100
AcDbEntity
100
AcDbLine
8
PCL_Layer
5
1178
10
58.134200
20
139.722100
30
0.000000
11
58.134200
21
152.924200
31
0.000000
62
7
0
LINE
100
AcDbEntity
100
AcDbLine
8
PCL_Layer
5
1179
10
71.336300
20
139.722100
30
0.000000
11
58.134200
21
139.722100
31
0.000000
62
7
0
LINE
100
AcDbEntity
100
AcDbLine
8
PCL_Layer
5
117A
10
71.336300
20
152.924200
30
0.000000
11
71.336300
21
139.722100
31
0.000000
62
7
0
LINE
100
AcDbEntity
100
AcDbLine
8
PCL_Layer
5
117B
10
58.134200
20
152.924200
30
0.000000
11
71.336300
21
152.924200
31
0.000000
62
7
0
LINE
100
AcDbEntity
100
AcDbLine
8
PCL_Layer
5
117C
10
282.019600
20
63.510000
30
0.000000
11
282.019600
21
76.712100
31
0.000000
62
7
0
LINE
100
AcDbEntity
100
AcDbLine
8
PCL_Layer
5
117D
10
295.221700
20
63.510000
30
0.000000
11
282.019600
21
63.510000
31
0.000000
62
7
0
LINE
100
AcDbEntity
100
AcDbLine
8
PCL_Layer
5
117E
10
295.221700
20
76.712100
30
0.000000
11
295.221700
21
63.510000
31
0.000000
62
7
0
LINE
100
AcDbEntity
100
AcDbLine
8
PCL_Layer
5
117F
10
282.019600
20
76.712100
30
0.000000
11
295.221700
21
76.712100
31
0.000000
62
7
0
LINE
100
AcDbEntity
100
AcDbLine
8
PCL_Layer
5
1180
10
353.455900
20
120.669100
30
0.000000
11
353.455900
21
133.871200
31
0.000000
62
7
0
LINE
100
AcDbEntity
100
AcDbLine
8
PCL_Layer
5
1181
10
366.658000
20
120.669100
30
0.000000
11
353.455900
21
120.669100
31
0.000000
62
7
0
LINE
100
AcDbEntity
100
AcDbLine
8
PCL_Layer
5
1182
10
366.658000
20
133.871200
30
0.000000
11
366.658000
21
120.669100
31
0.000000
62
7
0
LINE
100
AcDbEntity
100
AcDbLine
8
PCL_Layer
5
1183
10
353.455900
20
133.871200
30
0.000000
11
366.658000
21
133.871200
31
0.000000
62
7
0
LINE
100
AcDbEntity
100
AcDbLine
8
PCL_Layer
5
1184
10
324.876400
20
76.762100
30
0.000000
11
338.078500
21
76.712100
31
0.000000
62
7
0
LINE
100
AcDbEntity
100
AcDbLine
8
PCL_Layer
5
1185
10
324.876400
20
63.560100
30
0.000000
11
324.876400
21
76.762100
31
0.000000
62
7
0
LINE
100
AcDbEntity
100
AcDbLine
8
PCL_Layer
5
1186
10
338.078500
20
76.762100
30
0.000000
11
338.078500
21
63.560100
31
0.000000
62
7
0
LINE
100
AcDbEntity
100
AcDbLine
8
PCL_Layer
5
1187
10
338.078500
20
63.560100
30
0.000000
11
324.876400
21
63.560100
31
0.000000
62
7
0
LINE
100
AcDbEntity
100
AcDbLine
8
PCL_Layer
5
1188
10
348.705100
20
76.737100
30
0.000000
11
361.907200
21
76.712100
31
0.000000
62
7
0
LINE
100
AcDbEntity
100
AcDbLine
8
PCL_Layer
5
1189
10
348.705100
20
63.535000
30
0.000000
11
348.705100
21
76.737100
31
0.000000
62
7
0
LINE
100
AcDbEntity
100
AcDbLine
8
PCL_Layer
5
118A
10
361.907200
20
76.737100
30
0.000000
11
361.907200
21
63.535000
31
0.000000
62
7
0
LINE
100
AcDbEntity
100
AcDbLine
8
PCL_Layer
5
118B
10
361.907200
20
63.510000
30
0.000000
11
348.705100
21
63.535000
31
0.000000
62
7
0
LINE
100
AcDbEntity
100
AcDbLine
8
PCL_Layer
5
118C
10
158.175000
20
82.563100
30
0.000000
11
158.175000
21
95.765100
31
0.000000
62
7
0
LINE
100
AcDbEntity
100
AcDbLine
8
PCL_Layer
5
118D
10
171.377100
20
82.563100
30
0.000000
11
158.175000
21
82.563100
31
0.000000
62
7
0
LINE
100
AcDbEntity
100
AcDbLine
8
PCL_Layer
5
118E
10
171.377100
20
95.765100
30
0.000000
11
171.377100
21
82.563100
31
0.000000
62
7
0
LINE
100
AcDbEntity
100
AcDbLine
8
PCL_Layer
5
118F
10
158.175000
20
95.765100
30
0.000000
11
171.377100
21
95.765100
31
0.000000
62
7
0
LINE
100
AcDbEntity
100
AcDbLine
8
PCL_Layer
5
1190
10
253.440100
20
82.563100
30
0.000000
11
253.440100
21
95.765100
31
0.000000
62
7
0
LINE
100
AcDbEntity
100
AcDbLine
8
PCL_Layer
5
1191
10
266.642200
20
82.563100
30
0.000000
11
253.440100
21
82.563100
31
0.000000
62
7
0
LINE
100
AcDbEntity
100
AcDbLine
8
PCL_Layer
5
1192
10
266.642200
20
95.765100
30
0.000000
11
266.642200
21
82.563100
31
0.000000
62
7
0
LINE
100
AcDbEntity
100
AcDbLine
8
PCL_Layer
5
1193
10
253.440100
20
95.765100
30
0.000000
11
266.642200
21
95.765100
31
0.000000
62
7
0
LINE
100
AcDbEntity
100
AcDbLine
8
PCL_Layer
5
1194
10
129.595500
20
63.510000
30
0.000000
11
129.595500
21
76.712100
31
0.000000
62
7
0
LINE
100
AcDbEntity
100
AcDbLine
8
PCL_Layer
5
1195
10
142.797600
20
63.510000
30
0.000000
11
129.595500
21
63.510000
31
0.000000
62
7
0
LINE
100
AcDbEntity
100
AcDbLine
8
PCL_Layer
5
1196
10
142.797600
20
76.712100
30
0.000000
11
142.797600
21
63.510000
31
0.000000
62
7
0
LINE
100
AcDbEntity
100
AcDbLine
8
PCL_Layer
5
1197
10
129.595500
20
76.712100
30
0.000000
11
142.797600
21
76.712100
31
0.000000
62
7
0
LINE
100
AcDbEntity
100
AcDbLine
8
PCL_Layer
5
1198
10
424.917200
20
63.510000
30
0.000000
11
424.917200
21
76.712100
31
0.000000
62
7
0
LINE
100
AcDbEntity
100
AcDbLine
8
PCL_Layer
5
1199
10
438.119300
20
63.510000
30
0.000000
11
424.917200
21
63.510000
31
0.000000
62
7
0
LINE
100
AcDbEntity
100
AcDbLine
8
PCL_Layer
5
119A
10
438.119300
20
76.712100
30
0.000000
11
438.119300
21
63.510000
31
0.000000
62
7
0
LINE
100
AcDbEntity
100
AcDbLine
8
PCL_Layer
5
119B
10
424.917200
20
76.712100
30
0.000000
11
438.119300
21
76.712100
31
0.000000
62
7
0
LINE
100
AcDbEntity
100
AcDbLine
8
PCL_Layer
5
119C
10
429.667900
20
101.616100
30
0.000000
11
429.667900
21
114.818200
31
0.000000
62
7
0
LINE
100
AcDbEntity
100
AcDbLine
8
PCL_Layer
5
119D
10
442.870100
20
101.616100
30
0.000000
11
429.667900
21
101.616100
31
0.000000
62
7
0
LINE
100
AcDbEntity
100
AcDbLine
8
PCL_Layer
5
119E
10
442.870100
20
114.818200
30
0.000000
11
442.870100
21
101.616100
31
0.000000
62
7
0
LINE
100
AcDbEntity
100
AcDbLine
8
PCL_Layer
5
119F
10
429.667900
20
114.818200
30
0.000000
11
442.870100
21
114.818200
31
0.000000
62
7
0
LINE
100
AcDbEntity
100
AcDbLine
8
PCL_Layer
5
11A0
10
86.713700
20
120.669100
30
0.000000
11
86.713700
21
133.871200
31
0.000000
62
7
0
LINE
100
AcDbEntity
100
AcDbLine
8
PCL_Layer
5
11A1
10
99.915800
20
120.669100
30
0.000000
11
86.713700
21
120.669100
31
0.000000
62
7
0
LINE
100
AcDbEntity
100
AcDbLine
8
PCL_Layer
5
11A2
10
99.915800
20
133.871200
30
0.000000
11
99.915800
21
120.669100
31
0.000000
62
7
0
LINE
100
AcDbEntity
100
AcDbLine
8
PCL_Layer
5
11A3
10
86.713700
20
133.871200
30
0.000000
11
99.915800
21
133.871200
31
0.000000
62
7
0
LINE
100
AcDbEntity
100
AcDbLine
8
PCL_Layer
5
11A4
10
358.231600
20
44.457000
30
0.000000
11
358.231600
21
57.659100
31
0.000000
62
7
0
LINE
100
AcDbEntity
100
AcDbLine
8
PCL_Layer
5
11A5
10
371.433700
20
44.457000
30
0.000000
11
358.231600
21
44.457000
31
0.000000
62
7
0
LINE
100
AcDbEntity
100
AcDbLine
8
PCL_Layer
5
11A6
10
371.433700
20
57.659100
30
0.000000
11
371.433700
21
44.457000
31
0.000000
62
7
0
LINE
100
AcDbEntity
100
AcDbLine
8
PCL_Layer
5
11A7
10
358.231600
20
57.659100
30
0.000000
11
371.433700
21
57.659100
31
0.000000
62
7
0
LINE
100
AcDbEntity
100
AcDbLine
8
PCL_Layer
5
11A8
10
29.554700
20
120.669100
30
0.000000
11
29.554700
21
133.871200
31
0.000000
62
7
0
LINE
100
AcDbEntity
100
AcDbLine
8
PCL_Layer
5
11A9
10
42.756800
20
120.669100
30
0.000000
11
29.554700
21
120.669100
31
0.000000
62
7
0
LINE
100
AcDbEntity
100
AcDbLine
8
PCL_Layer
5
11AA
10
42.756800
20
133.871200
30
0.000000
11
42.756800
21
120.669100
31
0.000000
62
7
0
LINE
100
AcDbEntity
100
AcDbLine
8
PCL_Layer
5
11AB
10
29.554700
20
133.871200
30
0.000000
11
42.756800
21
133.871200
31
0.000000
62
7
0
LINE
100
AcDbEntity
100
AcDbLine
8
PCL_Layer
5
11AC
10
158.175000
20
44.457000
30
0.000000
11
158.175000
21
57.659100
31
0.000000
62
7
0
LINE
100
AcDbEntity
100
AcDbLine
8
PCL_Layer
5
11AD
10
171.377100
20
44.457000
30
0.000000
11
158.175000
21
44.457000
31
0.000000
62
7
0
LINE
100
AcDbEntity
100
AcDbLine
8
PCL_Layer
5
11AE
10
171.377100
20
57.659100
30
0.000000
11
171.377100
21
44.457000
31
0.000000
62
7
0
LINE
100
AcDbEntity
100
AcDbLine
8
PCL_Layer
5
11AF
10
158.175000
20
57.659100
30
0.000000
11
171.377100
21
57.659100
31
0.000000
62
7
0
LINE
100
AcDbEntity
100
AcDbLine
8
PCL_Layer
5
11B0
10
96.240200
20
139.722100
30
0.000000
11
96.240200
21
152.924200
31
0.000000
62
7
0
LINE
100
AcDbEntity
100
AcDbLine
8
PCL_Layer
5
11B1
10
109.442300
20
139.722100
30
0.000000
11
96.240200
21
139.722100
31
0.000000
62
7
0
LINE
100
AcDbEntity
100
AcDbLine
8
PCL_Layer
5
11B2
10
109.442300
20
152.924200
30
0.000000
11
109.442300
21
139.722100
31
0.000000
62
7
0
LINE
100
AcDbEntity
100
AcDbLine
8
PCL_Layer
5
11B3
10
96.240200
20
152.924200
30
0.000000
11
109.442300
21
152.924200
31
0.000000
62
7
0
LINE
100
AcDbEntity
100
AcDbLine
8
PCL_Layer
5
11B4
10
296.296800
20
120.669100
30
0.000000
11
296.296800
21
133.871200
31
0.000000
62
7
0
LINE
100
AcDbEntity
100
AcDbLine
8
PCL_Layer
5
11B5
10
309.499000
20
120.669100
30
0.000000
11
296.296800
21
120.669100
31
0.000000
62
7
0
LINE
100
AcDbEntity
100
AcDbLine
8
PCL_Layer
5
11B6
10
309.499000
20
133.871200
30
0.000000
11
309.499000
21
120.669100
31
0.000000
62
7
0
LINE
100
AcDbEntity
100
AcDbLine
8
PCL_Layer
5
11B7
10
296.296800
20
133.871200
30
0.000000
11
309.499000
21
133.871200
31
0.000000
62
7
0
LINE
100
AcDbEntity
100
AcDbLine
8
PCL_Layer
5
11B8
10
286.770400
20
101.616100
30
0.000000
11
286.770400
21
114.818200
31
0.000000
62
7
0
LINE
100
AcDbEntity
100
AcDbLine
8
PCL_Layer
5
11B9
10
299.972400
20
101.616100
30
0.000000
11
286.770400
21
101.616100
31
0.000000
62
7
0
LINE
100
AcDbEntity
100
AcDbLine
8
PCL_Layer
5
11BA
10
299.972400
20
114.818200
30
0.000000
11
299.972400
21
101.616100
31
0.000000
62
7
0
LINE
100
AcDbEntity
100
AcDbLine
8
PCL_Layer
5
11BB
10
286.770400
20
114.818200
30
0.000000
11
299.972400
21
114.818200
31
0.000000
62
7
0
LINE
100
AcDbEntity
100
AcDbLine
8
PCL_Layer
5
11BC
10
224.860600
20
63.510000
30
0.000000
11
224.860600
21
76.712100
31
0.000000
62
7
0
LINE
100
AcDbEntity
100
AcDbLine
8
PCL_Layer
5
11BD
10
238.062700
20
63.510000
30
0.000000
11
224.860600
21
63.510000
31
0.000000
62
7
0
LINE
100
AcDbEntity
100
AcDbLine
8
PCL_Layer
5
11BE
10
238.062700
20
76.712100
30
0.000000
11
238.062700
21
63.510000
31
0.000000
62
7
0
LINE
100
AcDbEntity
100
AcDbLine
8
PCL_Layer
5
11BF
10
224.860600
20
76.712100
30
0.000000
11
238.062700
21
76.712100
31
0.000000
62
7
0
LINE
100
AcDbEntity
100
AcDbLine
8
PCL_Layer
5
11C0
10
239.137800
20
120.669100
30
0.000000
11
239.137800
21
133.871200
31
0.000000
62
7
0
LINE
100
AcDbEntity
100
AcDbLine
8
PCL_Layer
5
11C1
10
252.339900
20
120.669100
30
0.000000
11
239.137800
21
120.669100
31
0.000000
62
7
0
LINE
100
AcDbEntity
100
AcDbLine
8
PCL_Layer
5
11C2
10
252.339900
20
133.871200
30
0.000000
11
252.339900
21
120.669100
31
0.000000
62
7
0
LINE
100
AcDbEntity
100
AcDbLine
8
PCL_Layer
5
11C3
10
239.137800
20
133.871200
30
0.000000
11
252.339900
21
133.871200
31
0.000000
62
7
0
LINE
100
AcDbEntity
100
AcDbLine
8
PCL_Layer
5
11C4
10
415.390700
20
44.457000
30
0.000000
11
415.390700
21
57.659100
31
0.000000
62
7
0
LINE
100
AcDbEntity
100
AcDbLine
8
PCL_Layer
5
11C5
10
428.592800
20
44.457000
30
0.000000
11
415.390700
21
44.457000
31
0.000000
62
7
0
LINE
100
AcDbEntity
100
AcDbLine
8
PCL_Layer
5
11C6
10
428.592800
20
57.659100
30
0.000000
11
428.592800
21
44.457000
31
0.000000
62
7
0
LINE
100
AcDbEntity
100
AcDbLine
8
PCL_Layer
5
11C7
10
415.390700
20
57.659100
30
0.000000
11
428.592800
21
57.659100
31
0.000000
62
7
0
LINE
100
AcDbEntity
100
AcDbLine
8
PCL_Layer
5
11C8
10
101.016000
20
44.457000
30
0.000000
11
101.016000
21
57.659100
31
0.000000
62
7
0
LINE
100
AcDbEntity
100
AcDbLine
8
PCL_Layer
5
11C9
10
114.218100
20
44.457000
30
0.000000
11
101.016000
21
44.457000
31
0.000000
62
7
0
LINE
100
AcDbEntity
100
AcDbLine
8
PCL_Layer
5
11CA
10
114.218100
20
57.659100
30
0.000000
11
114.218100
21
44.457000
31
0.000000
62
7
0
LINE
100
AcDbEntity
100
AcDbLine
8
PCL_Layer
5
11CB
10
101.016000
20
57.659100
30
0.000000
11
114.218100
21
57.659100
31
0.000000
62
7
0
LINE
100
AcDbEntity
100
AcDbLine
8
PCL_Layer
5
11CC
10
439.194500
20
82.563100
30
0.000000
11
439.194500
21
95.765100
31
0.000000
62
7
0
LINE
100
AcDbEntity
100
AcDbLine
8
PCL_Layer
5
11CD
10
452.396500
20
82.563100
30
0.000000
11
439.194500
21
82.563100
31
0.000000
62
7
0
LINE
100
AcDbEntity
100
AcDbLine
8
PCL_Layer
5
11CE
10
452.396500
20
95.765100
30
0.000000
11
452.396500
21
82.563100
31
0.000000
62
7
0
LINE
100
AcDbEntity
100
AcDbLine
8
PCL_Layer
5
11CF
10
439.194500
20
95.765100
30
0.000000
11
452.396500
21
95.765100
31
0.000000
62
7
0
LINE
100
AcDbEntity
100
AcDbLine
8
PCL_Layer
5
11D0
10
448.721000
20
63.510000
30
0.000000
11
448.721000
21
76.712100
31
0.000000
62
7
0
LINE
100
AcDbEntity
100
AcDbLine
8
PCL_Layer
5
11D1
10
461.923000
20
63.510000
30
0.000000
11
448.721000
21
63.510000
31
0.000000
62
7
0
LINE
100
AcDbEntity
100
AcDbLine
8
PCL_Layer
5
11D2
10
461.923000
20
76.712100
30
0.000000
11
461.923000
21
63.510000
31
0.000000
62
7
0
LINE
100
AcDbEntity
100
AcDbLine
8
PCL_Layer
5
11D3
10
448.721000
20
76.712100
30
0.000000
11
461.923000
21
76.712100
31
0.000000
62
7
0
LINE
100
AcDbEntity
100
AcDbLine
8
PCL_Layer
5
11D4
10
0.000000
20
164.976100
30
0.000000
11
474.000000
21
164.976100
31
0.000000
62
7
0
LINE
100
AcDbEntity
100
AcDbLine
8
PCL_Layer
5
11D5
10
474.000000
20
164.976100
30
0.000000
11
474.000000
21
0.000000
31
0.000000
62
7
0
LINE
100
AcDbEntity
100
AcDbLine
8
PCL_Layer
5
11D6
10
474.000000
20
0.000000
30
0.000000
11
0.000000
21
0.000000
31
0.000000
62
7
0
LINE
100
AcDbEntity
100
AcDbLine
8
PCL_Layer
5
11D7
10
0.000000
20
0.000000
30
0.000000
11
0.000000
21
164.976100
31
0.000000
62
7
0
ENDSEC
0
EOF
