%TF.GenerationSoftware,KiCad,Pcbnew,8.0.1-8.0.1-1~ubuntu22.04.1*%
%TF.CreationDate,2024-04-12T16:39:56+03:00*%
%TF.ProjectId,SpaceCadet,53706163-6543-4616-9465-742e6b696361,rev?*%
%TF.SameCoordinates,Original*%
%TF.FileFunction,Profile,NP*%
%FSLAX46Y46*%
G04 Gerber Fmt 4.6, Leading zero omitted, Abs format (unit mm)*
G04 Created by KiCad (PCBNEW 8.0.1-8.0.1-1~ubuntu22.04.1) date 2024-04-12 16:39:56*
%MOMM*%
%LPD*%
G01*
G04 APERTURE LIST*
%TA.AperFunction,Profile*%
%ADD10C,0.100000*%
%TD*%
%ADD11C,0.100000*%
%ADD12C,0.120000*%
%ADD13C,0.150000*%
%ADD14C,0.381000*%
G04 APERTURE END LIST*
D10*
X12000000Y-9271000D02*
X505626600Y-9271000D01*
X505626600Y-206300000D01*
X12000000Y-206300000D01*
X12000000Y-9271000D01*
D11*
X285348480Y-98404999D02*
X298918480Y-98404999D01*
X298918480Y-111974999D01*
X285348480Y-111974999D01*
X285348480Y-98404999D01*
X375835970Y-41254997D02*
X389405970Y-41254997D01*
X389405970Y-54824997D01*
X375835970Y-54824997D01*
X375835970Y-41254997D01*
X452035890Y-60305004D02*
X465605890Y-60305004D01*
X465605890Y-73875004D01*
X452035890Y-73875004D01*
X452035890Y-60305004D01*
X190098530Y-98404999D02*
X203668530Y-98404999D01*
X203668530Y-111974999D01*
X190098530Y-111974999D01*
X190098530Y-98404999D01*
X137711060Y-60305004D02*
X151281060Y-60305004D01*
X151281060Y-73875004D01*
X137711060Y-73875004D01*
X137711060Y-60305004D01*
X199623510Y-79354994D02*
X213193510Y-79354994D01*
X213193510Y-92924994D01*
X199623510Y-92924994D01*
X199623510Y-79354994D01*
X390123440Y-98404999D02*
X403693440Y-98404999D01*
X403693440Y-111974999D01*
X390123440Y-111974999D01*
X390123440Y-98404999D01*
X321067290Y-117455004D02*
X334637290Y-117455004D01*
X334637290Y-131025004D01*
X321067290Y-131025004D01*
X321067290Y-117455004D01*
X118661060Y-22205000D02*
X132231060Y-22205000D01*
X132231060Y-35775000D01*
X118661060Y-35775000D01*
X118661060Y-22205000D01*
X128186070Y-41254997D02*
X141756070Y-41254997D01*
X141756070Y-54824997D01*
X128186070Y-54824997D01*
X128186070Y-41254997D01*
X409173590Y-117455004D02*
X422743590Y-117455004D01*
X422743590Y-131025004D01*
X409173590Y-131025004D01*
X409173590Y-117455004D01*
X423460910Y-60305004D02*
X437030910Y-60305004D01*
X437030910Y-73875004D01*
X423460910Y-73875004D01*
X423460910Y-60305004D01*
X349642310Y-117455004D02*
X363212310Y-117455004D01*
X363212310Y-131025004D01*
X349642310Y-131025004D01*
X349642310Y-117455004D01*
X32936060Y-60305004D02*
X46506060Y-60305004D01*
X46506060Y-73875004D01*
X32936060Y-73875004D01*
X32936060Y-60305004D01*
X437748600Y-117455004D02*
X451318600Y-117455004D01*
X451318600Y-131025004D01*
X437748600Y-131025004D01*
X437748600Y-117455004D01*
X85323560Y-98404999D02*
X98893560Y-98404999D01*
X98893560Y-111974999D01*
X85323560Y-111974999D01*
X85323560Y-98404999D01*
X299635960Y-41254997D02*
X313205960Y-41254997D01*
X313205960Y-54824997D01*
X299635960Y-54824997D01*
X299635960Y-41254997D01*
X51986063Y-60305004D02*
X65556063Y-60305004D01*
X65556063Y-73875004D01*
X51986063Y-73875004D01*
X51986063Y-60305004D01*
X290110960Y-60305004D02*
X303680960Y-60305004D01*
X303680960Y-73875004D01*
X290110960Y-73875004D01*
X290110960Y-60305004D01*
X271060980Y-60305004D02*
X284630980Y-60305004D01*
X284630980Y-73875004D01*
X271060980Y-73875004D01*
X271060980Y-60305004D01*
D12*
X210184670Y-150679999D02*
X306184670Y-150679999D01*
X306184670Y-189679999D01*
X210184670Y-189679999D01*
X210184670Y-150679999D01*
D11*
X56748560Y-98404999D02*
X70318560Y-98404999D01*
X70318560Y-111974999D01*
X56748560Y-111974999D01*
X56748560Y-98404999D01*
X80561070Y-60305004D02*
X94131070Y-60305004D01*
X94131070Y-73875004D01*
X80561070Y-73875004D01*
X80561070Y-60305004D01*
X471085880Y-60305004D02*
X484655880Y-60305004D01*
X484655880Y-73875004D01*
X471085880Y-73875004D01*
X471085880Y-60305004D01*
X471085910Y-41254997D02*
X484655910Y-41254997D01*
X484655910Y-54824997D01*
X471085910Y-54824997D01*
X471085910Y-41254997D01*
X209148520Y-98404999D02*
X222718520Y-98404999D01*
X222718520Y-111974999D01*
X209148520Y-111974999D01*
X209148520Y-98404999D01*
X423460940Y-41254997D02*
X437030940Y-41254997D01*
X437030940Y-54824997D01*
X423460940Y-54824997D01*
X423460940Y-41254997D01*
X242485990Y-41254997D02*
X256055990Y-41254997D01*
X256055990Y-54824997D01*
X242485990Y-54824997D01*
X242485990Y-41254997D01*
X323448460Y-98404999D02*
X337018460Y-98404999D01*
X337018460Y-111974999D01*
X323448460Y-111974999D01*
X323448460Y-98404999D01*
X116279800Y-79354994D02*
X129849800Y-79354994D01*
X129849800Y-92924994D01*
X116279800Y-92924994D01*
X116279800Y-79354994D01*
X109132310Y-98404999D02*
X122702310Y-98404999D01*
X122702310Y-111974999D01*
X109132310Y-111974999D01*
X109132310Y-98404999D01*
X132922310Y-98404999D02*
X146492310Y-98404999D01*
X146492310Y-111974999D01*
X132922310Y-111974999D01*
X132922310Y-98404999D01*
X361548400Y-79354994D02*
X375118400Y-79354994D01*
X375118400Y-92924994D01*
X361548400Y-92924994D01*
X361548400Y-79354994D01*
X271061070Y-22205000D02*
X284631070Y-22205000D01*
X284631070Y-35775000D01*
X271061070Y-35775000D01*
X271061070Y-22205000D01*
X313923440Y-79354994D02*
X327493440Y-79354994D01*
X327493440Y-92924994D01*
X313923440Y-92924994D01*
X313923440Y-79354994D01*
X166286040Y-41254997D02*
X179856040Y-41254997D01*
X179856040Y-54824997D01*
X166286040Y-54824997D01*
X166286040Y-41254997D01*
X385360990Y-22205000D02*
X398930990Y-22205000D01*
X398930990Y-35775000D01*
X385360990Y-35775000D01*
X385360990Y-22205000D01*
X423460880Y-79354994D02*
X437030880Y-79354994D01*
X437030880Y-92924994D01*
X423460880Y-92924994D01*
X423460880Y-79354994D01*
X32936060Y-98404999D02*
X46506060Y-98404999D01*
X46506060Y-111974999D01*
X32936060Y-111974999D01*
X32936060Y-98404999D01*
X125804810Y-117455004D02*
X139374810Y-117455004D01*
X139374810Y-131025004D01*
X125804810Y-131025004D01*
X125804810Y-117455004D01*
X323448460Y-41254997D02*
X337018460Y-41254997D01*
X337018460Y-54824997D01*
X323448460Y-54824997D01*
X323448460Y-41254997D01*
X80561070Y-41254997D02*
X94131070Y-41254997D01*
X94131070Y-54824997D01*
X80561070Y-54824997D01*
X80561070Y-41254997D01*
X80561050Y-22205000D02*
X94131050Y-22205000D01*
X94131050Y-35775000D01*
X80561050Y-35775000D01*
X80561050Y-22205000D01*
X347261020Y-22205000D02*
X360831020Y-22205000D01*
X360831020Y-35775000D01*
X347261020Y-35775000D01*
X347261020Y-22205000D01*
X156761060Y-22205000D02*
X170331060Y-22205000D01*
X170331060Y-35775000D01*
X156761060Y-35775000D01*
X156761060Y-22205000D01*
X294873440Y-79354994D02*
X308443440Y-79354994D01*
X308443440Y-92924994D01*
X294873440Y-92924994D01*
X294873440Y-79354994D01*
X280585970Y-41254997D02*
X294155970Y-41254997D01*
X294155970Y-54824997D01*
X280585970Y-54824997D01*
X280585970Y-41254997D01*
X461560940Y-22205000D02*
X475130940Y-22205000D01*
X475130940Y-35775000D01*
X461560940Y-35775000D01*
X461560940Y-22205000D01*
X366310910Y-60305004D02*
X379880910Y-60305004D01*
X379880910Y-73875004D01*
X366310910Y-73875004D01*
X366310910Y-60305004D01*
X247248490Y-98404999D02*
X260818490Y-98404999D01*
X260818490Y-111974999D01*
X247248490Y-111974999D01*
X247248490Y-98404999D01*
X178192310Y-117455004D02*
X191762310Y-117455004D01*
X191762310Y-131025004D01*
X178192310Y-131025004D01*
X178192310Y-117455004D01*
X151998550Y-98404999D02*
X165568550Y-98404999D01*
X165568550Y-111974999D01*
X151998550Y-111974999D01*
X151998550Y-98404999D01*
X392504640Y-79354994D02*
X406074640Y-79354994D01*
X406074640Y-92924994D01*
X392504640Y-92924994D01*
X392504640Y-79354994D01*
X213911010Y-60305004D02*
X227481010Y-60305004D01*
X227481010Y-73875004D01*
X213911010Y-73875004D01*
X213911010Y-60305004D01*
X309161040Y-22205000D02*
X322731040Y-22205000D01*
X322731040Y-35775000D01*
X309161040Y-35775000D01*
X309161040Y-22205000D01*
X471085970Y-98404999D02*
X484655970Y-98404999D01*
X484655970Y-111974999D01*
X471085970Y-111974999D01*
X471085970Y-98404999D01*
X390123410Y-60305004D02*
X403693410Y-60305004D01*
X403693410Y-73875004D01*
X390123410Y-73875004D01*
X390123410Y-60305004D01*
X328210940Y-60305004D02*
X341780940Y-60305004D01*
X341780940Y-73875004D01*
X328210940Y-73875004D01*
X328210940Y-60305004D01*
X42461058Y-79354994D02*
X56031058Y-79354994D01*
X56031058Y-92924994D01*
X42461058Y-92924994D01*
X42461058Y-79354994D01*
X380598570Y-117455004D02*
X394168570Y-117455004D01*
X394168570Y-131025004D01*
X380598570Y-131025004D01*
X380598570Y-117455004D01*
X180573520Y-79354994D02*
X194143520Y-79354994D01*
X194143520Y-92924994D01*
X180573520Y-92924994D01*
X180573520Y-79354994D01*
X156761050Y-60305004D02*
X170331050Y-60305004D01*
X170331050Y-73875004D01*
X156761050Y-73875004D01*
X156761050Y-60305004D01*
X232961000Y-60305004D02*
X246531000Y-60305004D01*
X246531000Y-73875004D01*
X232961000Y-73875004D01*
X232961000Y-60305004D01*
X252010990Y-60305004D02*
X265580990Y-60305004D01*
X265580990Y-73875004D01*
X252010990Y-73875004D01*
X252010990Y-60305004D01*
X342494700Y-98404999D02*
X356064700Y-98404999D01*
X356064700Y-111974999D01*
X342494700Y-111974999D01*
X342494700Y-98404999D01*
X366284700Y-98404999D02*
X379854700Y-98404999D01*
X379854700Y-111974999D01*
X366284700Y-111974999D01*
X366284700Y-98404999D01*
X32936060Y-41254997D02*
X46506060Y-41254997D01*
X46506060Y-54824997D01*
X32936060Y-54824997D01*
X32936060Y-41254997D01*
X218673490Y-79354994D02*
X232243490Y-79354994D01*
X232243490Y-92924994D01*
X218673490Y-92924994D01*
X218673490Y-79354994D01*
X171048540Y-98404999D02*
X184618540Y-98404999D01*
X184618540Y-111974999D01*
X171048540Y-111974999D01*
X171048540Y-98404999D01*
X109136070Y-41254997D02*
X122706070Y-41254997D01*
X122706070Y-54824997D01*
X109136070Y-54824997D01*
X109136070Y-41254997D01*
X80561050Y-79354994D02*
X94131050Y-79354994D01*
X94131050Y-92924994D01*
X80561050Y-92924994D01*
X80561050Y-79354994D01*
X228198500Y-98404999D02*
X241768500Y-98404999D01*
X241768500Y-111974999D01*
X228198500Y-111974999D01*
X228198500Y-98404999D01*
X452035920Y-41254997D02*
X465605920Y-41254997D01*
X465605920Y-54824997D01*
X452035920Y-54824997D01*
X452035920Y-41254997D01*
X275823460Y-79354994D02*
X289393460Y-79354994D01*
X289393460Y-92924994D01*
X275823460Y-92924994D01*
X275823460Y-79354994D01*
X461560840Y-79354994D02*
X475130840Y-79354994D01*
X475130840Y-92924994D01*
X461560840Y-92924994D01*
X461560840Y-79354994D01*
X113898570Y-60305004D02*
X127468570Y-60305004D01*
X127468570Y-73875004D01*
X113898570Y-73875004D01*
X113898570Y-60305004D01*
X266298490Y-98404999D02*
X279868490Y-98404999D01*
X279868490Y-111974999D01*
X266298490Y-111974999D01*
X266298490Y-98404999D01*
X252007300Y-117455004D02*
X265577300Y-117455004D01*
X265577300Y-131025004D01*
X252007300Y-131025004D01*
X252007300Y-117455004D01*
X275797300Y-117455004D02*
X289367300Y-117455004D01*
X289367300Y-131025004D01*
X275797300Y-131025004D01*
X275797300Y-117455004D01*
X204382300Y-117425004D02*
X217952300Y-117425004D01*
X217952300Y-131025004D01*
X204382300Y-131025004D01*
X204382300Y-117425004D01*
X228202300Y-117445004D02*
X241772300Y-117445004D01*
X241772300Y-131025004D01*
X228202300Y-131025004D01*
X228202300Y-117445004D01*
X394885960Y-41254997D02*
X408455960Y-41254997D01*
X408455960Y-54824997D01*
X394885960Y-54824997D01*
X394885960Y-41254997D01*
X94848560Y-117455004D02*
X108418560Y-117455004D01*
X108418560Y-131025004D01*
X94848560Y-131025004D01*
X94848560Y-117455004D01*
X423460970Y-22205000D02*
X437030970Y-22205000D01*
X437030970Y-35775000D01*
X423460970Y-35775000D01*
X423460970Y-22205000D01*
X261535980Y-41254997D02*
X275105980Y-41254997D01*
X275105980Y-54824997D01*
X261535980Y-54824997D01*
X261535980Y-41254997D01*
X237723480Y-79354994D02*
X251293480Y-79354994D01*
X251293480Y-92924994D01*
X237723480Y-92924994D01*
X237723480Y-79354994D01*
X256773470Y-79354994D02*
X270343470Y-79354994D01*
X270343470Y-92924994D01*
X256773470Y-92924994D01*
X256773470Y-79354994D01*
X232961080Y-22205000D02*
X246531080Y-22205000D01*
X246531080Y-35775000D01*
X232961080Y-35775000D01*
X232961080Y-22205000D01*
X194861020Y-60305004D02*
X208431020Y-60305004D01*
X208431020Y-73875004D01*
X194861020Y-73875004D01*
X194861020Y-60305004D01*
X418698460Y-98404999D02*
X432268460Y-98404999D01*
X432268460Y-111974999D01*
X418698460Y-111974999D01*
X418698460Y-98404999D01*
X185336030Y-41254997D02*
X198906030Y-41254997D01*
X198906030Y-54824997D01*
X185336030Y-54824997D01*
X185336030Y-41254997D01*
X297254790Y-117455004D02*
X310824790Y-117455004D01*
X310824790Y-131025004D01*
X297254790Y-131025004D01*
X297254790Y-117455004D01*
X142473540Y-79354994D02*
X156043540Y-79354994D01*
X156043540Y-92924994D01*
X142473540Y-92924994D01*
X142473540Y-79354994D01*
X332973420Y-79354994D02*
X346543420Y-79354994D01*
X346543420Y-92924994D01*
X332973420Y-92924994D01*
X332973420Y-79354994D01*
X309160940Y-60305004D02*
X322730940Y-60305004D01*
X322730940Y-73875004D01*
X309160940Y-73875004D01*
X309160940Y-60305004D01*
X161523530Y-79354994D02*
X175093530Y-79354994D01*
X175093530Y-92924994D01*
X161523530Y-92924994D01*
X161523530Y-79354994D01*
X66273560Y-117455004D02*
X79843560Y-117455004D01*
X79843560Y-131025004D01*
X66273560Y-131025004D01*
X66273560Y-117455004D01*
X51986063Y-41254997D02*
X65556063Y-41254997D01*
X65556063Y-54824997D01*
X51986063Y-54824997D01*
X51986063Y-41254997D01*
X447273470Y-98404999D02*
X460843470Y-98404999D01*
X460843470Y-111974999D01*
X447273470Y-111974999D01*
X447273470Y-98404999D01*
X223436010Y-41254997D02*
X237006010Y-41254997D01*
X237006010Y-54824997D01*
X223436010Y-54824997D01*
X223436010Y-41254997D01*
X352023470Y-41254997D02*
X365593470Y-41254997D01*
X365593470Y-54824997D01*
X352023470Y-54824997D01*
X352023470Y-41254997D01*
X175811040Y-60305004D02*
X189381040Y-60305004D01*
X189381040Y-73875004D01*
X175811040Y-73875004D01*
X175811040Y-60305004D01*
X204386020Y-41254997D02*
X217956020Y-41254997D01*
X217956020Y-54824997D01*
X204386020Y-54824997D01*
X204386020Y-41254997D01*
X347260940Y-60305004D02*
X360830940Y-60305004D01*
X360830940Y-73875004D01*
X347260940Y-73875004D01*
X347260940Y-60305004D01*
X466323610Y-117455004D02*
X479893610Y-117455004D01*
X479893610Y-131025004D01*
X466323610Y-131025004D01*
X466323610Y-117455004D01*
X154379810Y-117455004D02*
X167949810Y-117455004D01*
X167949810Y-131025004D01*
X154379810Y-131025004D01*
X154379810Y-117455004D01*
X304398470Y-98404999D02*
X317968470Y-98404999D01*
X317968470Y-111974999D01*
X304398470Y-111974999D01*
X304398470Y-98404999D01*
X42461058Y-22205000D02*
X56031058Y-22205000D01*
X56031058Y-35775000D01*
X42461058Y-35775000D01*
X42461058Y-22205000D01*
X194861070Y-22205000D02*
X208431070Y-22205000D01*
X208431070Y-35775000D01*
X194861070Y-35775000D01*
X194861070Y-22205000D01*
X147236060Y-41254997D02*
X160806060Y-41254997D01*
X160806060Y-54824997D01*
X147236060Y-54824997D01*
X147236060Y-41254997D01*
X37698560Y-117455004D02*
X51268560Y-117455004D01*
X51268560Y-131025004D01*
X37698560Y-131025004D01*
X37698560Y-117455004D01*
D13*
X265488014Y-116773204D02*
X265630871Y-116820823D01*
X265630871Y-116820823D02*
X265868966Y-116820823D01*
X265868966Y-116820823D02*
X265964204Y-116773204D01*
X265964204Y-116773204D02*
X266011823Y-116725584D01*
X266011823Y-116725584D02*
X266059442Y-116630346D01*
X266059442Y-116630346D02*
X266059442Y-116535108D01*
X266059442Y-116535108D02*
X266011823Y-116439870D01*
X266011823Y-116439870D02*
X265964204Y-116392251D01*
X265964204Y-116392251D02*
X265868966Y-116344632D01*
X265868966Y-116344632D02*
X265678490Y-116297013D01*
X265678490Y-116297013D02*
X265583252Y-116249394D01*
X265583252Y-116249394D02*
X265535633Y-116201775D01*
X265535633Y-116201775D02*
X265488014Y-116106537D01*
X265488014Y-116106537D02*
X265488014Y-116011299D01*
X265488014Y-116011299D02*
X265535633Y-115916061D01*
X265535633Y-115916061D02*
X265583252Y-115868442D01*
X265583252Y-115868442D02*
X265678490Y-115820823D01*
X265678490Y-115820823D02*
X265916585Y-115820823D01*
X265916585Y-115820823D02*
X266059442Y-115868442D01*
X265773728Y-115677965D02*
X265773728Y-116963680D01*
X266773728Y-117201775D02*
X266726109Y-117201775D01*
X266726109Y-117201775D02*
X266630871Y-117154156D01*
X266630871Y-117154156D02*
X266583252Y-117058918D01*
X266583252Y-117058918D02*
X266583252Y-116582727D01*
X266583252Y-116582727D02*
X266535633Y-116487489D01*
X266535633Y-116487489D02*
X266440395Y-116439870D01*
X266440395Y-116439870D02*
X266535633Y-116392251D01*
X266535633Y-116392251D02*
X266583252Y-116297013D01*
X266583252Y-116297013D02*
X266583252Y-115820823D01*
X266583252Y-115820823D02*
X266630871Y-115725584D01*
X266630871Y-115725584D02*
X266726109Y-115677965D01*
X266726109Y-115677965D02*
X266773728Y-115677965D01*
X267726109Y-116820823D02*
X267392776Y-116344632D01*
X267154681Y-116820823D02*
X267154681Y-115820823D01*
X267154681Y-115820823D02*
X267535633Y-115820823D01*
X267535633Y-115820823D02*
X267630871Y-115868442D01*
X267630871Y-115868442D02*
X267678490Y-115916061D01*
X267678490Y-115916061D02*
X267726109Y-116011299D01*
X267726109Y-116011299D02*
X267726109Y-116154156D01*
X267726109Y-116154156D02*
X267678490Y-116249394D01*
X267678490Y-116249394D02*
X267630871Y-116297013D01*
X267630871Y-116297013D02*
X267535633Y-116344632D01*
X267535633Y-116344632D02*
X267154681Y-116344632D01*
X268154681Y-116297013D02*
X268488014Y-116297013D01*
X268630871Y-116820823D02*
X268154681Y-116820823D01*
X268154681Y-116820823D02*
X268154681Y-115820823D01*
X268154681Y-115820823D02*
X268630871Y-115820823D01*
X269392776Y-116297013D02*
X269059443Y-116297013D01*
X269059443Y-116820823D02*
X269059443Y-115820823D01*
X269059443Y-115820823D02*
X269535633Y-115820823D01*
X269916586Y-116297013D02*
X270249919Y-116297013D01*
X270392776Y-116820823D02*
X269916586Y-116820823D01*
X269916586Y-116820823D02*
X269916586Y-115820823D01*
X269916586Y-115820823D02*
X270392776Y-115820823D01*
X271392776Y-116820823D02*
X271059443Y-116344632D01*
X270821348Y-116820823D02*
X270821348Y-115820823D01*
X270821348Y-115820823D02*
X271202300Y-115820823D01*
X271202300Y-115820823D02*
X271297538Y-115868442D01*
X271297538Y-115868442D02*
X271345157Y-115916061D01*
X271345157Y-115916061D02*
X271392776Y-116011299D01*
X271392776Y-116011299D02*
X271392776Y-116154156D01*
X271392776Y-116154156D02*
X271345157Y-116249394D01*
X271345157Y-116249394D02*
X271297538Y-116297013D01*
X271297538Y-116297013D02*
X271202300Y-116344632D01*
X271202300Y-116344632D02*
X270821348Y-116344632D01*
X271821348Y-116297013D02*
X272154681Y-116297013D01*
X272297538Y-116820823D02*
X271821348Y-116820823D01*
X271821348Y-116820823D02*
X271821348Y-115820823D01*
X271821348Y-115820823D02*
X272297538Y-115820823D01*
X272726110Y-116820823D02*
X272726110Y-115820823D01*
X272726110Y-115820823D02*
X273297538Y-116820823D01*
X273297538Y-116820823D02*
X273297538Y-115820823D01*
X274345157Y-116725584D02*
X274297538Y-116773204D01*
X274297538Y-116773204D02*
X274154681Y-116820823D01*
X274154681Y-116820823D02*
X274059443Y-116820823D01*
X274059443Y-116820823D02*
X273916586Y-116773204D01*
X273916586Y-116773204D02*
X273821348Y-116677965D01*
X273821348Y-116677965D02*
X273773729Y-116582727D01*
X273773729Y-116582727D02*
X273726110Y-116392251D01*
X273726110Y-116392251D02*
X273726110Y-116249394D01*
X273726110Y-116249394D02*
X273773729Y-116058918D01*
X273773729Y-116058918D02*
X273821348Y-115963680D01*
X273821348Y-115963680D02*
X273916586Y-115868442D01*
X273916586Y-115868442D02*
X274059443Y-115820823D01*
X274059443Y-115820823D02*
X274154681Y-115820823D01*
X274154681Y-115820823D02*
X274297538Y-115868442D01*
X274297538Y-115868442D02*
X274345157Y-115916061D01*
X274773729Y-116297013D02*
X275107062Y-116297013D01*
X275249919Y-116820823D02*
X274773729Y-116820823D01*
X274773729Y-116820823D02*
X274773729Y-115820823D01*
X274773729Y-115820823D02*
X275249919Y-115820823D01*
X275583253Y-117201775D02*
X275630872Y-117201775D01*
X275630872Y-117201775D02*
X275726110Y-117154156D01*
X275726110Y-117154156D02*
X275773729Y-117058918D01*
X275773729Y-117058918D02*
X275773729Y-116582727D01*
X275773729Y-116582727D02*
X275821348Y-116487489D01*
X275821348Y-116487489D02*
X275916586Y-116439870D01*
X275916586Y-116439870D02*
X275821348Y-116392251D01*
X275821348Y-116392251D02*
X275773729Y-116297013D01*
X275773729Y-116297013D02*
X275773729Y-115820823D01*
X275773729Y-115820823D02*
X275726110Y-115725584D01*
X275726110Y-115725584D02*
X275630872Y-115677965D01*
X275630872Y-115677965D02*
X275583253Y-115677965D01*
X217863014Y-116773204D02*
X218005871Y-116820823D01*
X218005871Y-116820823D02*
X218243966Y-116820823D01*
X218243966Y-116820823D02*
X218339204Y-116773204D01*
X218339204Y-116773204D02*
X218386823Y-116725584D01*
X218386823Y-116725584D02*
X218434442Y-116630346D01*
X218434442Y-116630346D02*
X218434442Y-116535108D01*
X218434442Y-116535108D02*
X218386823Y-116439870D01*
X218386823Y-116439870D02*
X218339204Y-116392251D01*
X218339204Y-116392251D02*
X218243966Y-116344632D01*
X218243966Y-116344632D02*
X218053490Y-116297013D01*
X218053490Y-116297013D02*
X217958252Y-116249394D01*
X217958252Y-116249394D02*
X217910633Y-116201775D01*
X217910633Y-116201775D02*
X217863014Y-116106537D01*
X217863014Y-116106537D02*
X217863014Y-116011299D01*
X217863014Y-116011299D02*
X217910633Y-115916061D01*
X217910633Y-115916061D02*
X217958252Y-115868442D01*
X217958252Y-115868442D02*
X218053490Y-115820823D01*
X218053490Y-115820823D02*
X218291585Y-115820823D01*
X218291585Y-115820823D02*
X218434442Y-115868442D01*
X218148728Y-115677965D02*
X218148728Y-116963680D01*
X219148728Y-117201775D02*
X219101109Y-117201775D01*
X219101109Y-117201775D02*
X219005871Y-117154156D01*
X219005871Y-117154156D02*
X218958252Y-117058918D01*
X218958252Y-117058918D02*
X218958252Y-116582727D01*
X218958252Y-116582727D02*
X218910633Y-116487489D01*
X218910633Y-116487489D02*
X218815395Y-116439870D01*
X218815395Y-116439870D02*
X218910633Y-116392251D01*
X218910633Y-116392251D02*
X218958252Y-116297013D01*
X218958252Y-116297013D02*
X218958252Y-115820823D01*
X218958252Y-115820823D02*
X219005871Y-115725584D01*
X219005871Y-115725584D02*
X219101109Y-115677965D01*
X219101109Y-115677965D02*
X219148728Y-115677965D01*
X220101109Y-116820823D02*
X219767776Y-116344632D01*
X219529681Y-116820823D02*
X219529681Y-115820823D01*
X219529681Y-115820823D02*
X219910633Y-115820823D01*
X219910633Y-115820823D02*
X220005871Y-115868442D01*
X220005871Y-115868442D02*
X220053490Y-115916061D01*
X220053490Y-115916061D02*
X220101109Y-116011299D01*
X220101109Y-116011299D02*
X220101109Y-116154156D01*
X220101109Y-116154156D02*
X220053490Y-116249394D01*
X220053490Y-116249394D02*
X220005871Y-116297013D01*
X220005871Y-116297013D02*
X219910633Y-116344632D01*
X219910633Y-116344632D02*
X219529681Y-116344632D01*
X220529681Y-116297013D02*
X220863014Y-116297013D01*
X221005871Y-116820823D02*
X220529681Y-116820823D01*
X220529681Y-116820823D02*
X220529681Y-115820823D01*
X220529681Y-115820823D02*
X221005871Y-115820823D01*
X221767776Y-116297013D02*
X221434443Y-116297013D01*
X221434443Y-116820823D02*
X221434443Y-115820823D01*
X221434443Y-115820823D02*
X221910633Y-115820823D01*
X222291586Y-116297013D02*
X222624919Y-116297013D01*
X222767776Y-116820823D02*
X222291586Y-116820823D01*
X222291586Y-116820823D02*
X222291586Y-115820823D01*
X222291586Y-115820823D02*
X222767776Y-115820823D01*
X223767776Y-116820823D02*
X223434443Y-116344632D01*
X223196348Y-116820823D02*
X223196348Y-115820823D01*
X223196348Y-115820823D02*
X223577300Y-115820823D01*
X223577300Y-115820823D02*
X223672538Y-115868442D01*
X223672538Y-115868442D02*
X223720157Y-115916061D01*
X223720157Y-115916061D02*
X223767776Y-116011299D01*
X223767776Y-116011299D02*
X223767776Y-116154156D01*
X223767776Y-116154156D02*
X223720157Y-116249394D01*
X223720157Y-116249394D02*
X223672538Y-116297013D01*
X223672538Y-116297013D02*
X223577300Y-116344632D01*
X223577300Y-116344632D02*
X223196348Y-116344632D01*
X224196348Y-116297013D02*
X224529681Y-116297013D01*
X224672538Y-116820823D02*
X224196348Y-116820823D01*
X224196348Y-116820823D02*
X224196348Y-115820823D01*
X224196348Y-115820823D02*
X224672538Y-115820823D01*
X225101110Y-116820823D02*
X225101110Y-115820823D01*
X225101110Y-115820823D02*
X225672538Y-116820823D01*
X225672538Y-116820823D02*
X225672538Y-115820823D01*
X226720157Y-116725584D02*
X226672538Y-116773204D01*
X226672538Y-116773204D02*
X226529681Y-116820823D01*
X226529681Y-116820823D02*
X226434443Y-116820823D01*
X226434443Y-116820823D02*
X226291586Y-116773204D01*
X226291586Y-116773204D02*
X226196348Y-116677965D01*
X226196348Y-116677965D02*
X226148729Y-116582727D01*
X226148729Y-116582727D02*
X226101110Y-116392251D01*
X226101110Y-116392251D02*
X226101110Y-116249394D01*
X226101110Y-116249394D02*
X226148729Y-116058918D01*
X226148729Y-116058918D02*
X226196348Y-115963680D01*
X226196348Y-115963680D02*
X226291586Y-115868442D01*
X226291586Y-115868442D02*
X226434443Y-115820823D01*
X226434443Y-115820823D02*
X226529681Y-115820823D01*
X226529681Y-115820823D02*
X226672538Y-115868442D01*
X226672538Y-115868442D02*
X226720157Y-115916061D01*
X227148729Y-116297013D02*
X227482062Y-116297013D01*
X227624919Y-116820823D02*
X227148729Y-116820823D01*
X227148729Y-116820823D02*
X227148729Y-115820823D01*
X227148729Y-115820823D02*
X227624919Y-115820823D01*
X227958253Y-117201775D02*
X228005872Y-117201775D01*
X228005872Y-117201775D02*
X228101110Y-117154156D01*
X228101110Y-117154156D02*
X228148729Y-117058918D01*
X228148729Y-117058918D02*
X228148729Y-116582727D01*
X228148729Y-116582727D02*
X228196348Y-116487489D01*
X228196348Y-116487489D02*
X228291586Y-116439870D01*
X228291586Y-116439870D02*
X228196348Y-116392251D01*
X228196348Y-116392251D02*
X228148729Y-116297013D01*
X228148729Y-116297013D02*
X228148729Y-115820823D01*
X228148729Y-115820823D02*
X228101110Y-115725584D01*
X228101110Y-115725584D02*
X228005872Y-115677965D01*
X228005872Y-115677965D02*
X227958253Y-115677965D01*
X253581704Y-59623204D02*
X253724561Y-59670823D01*
X253724561Y-59670823D02*
X253962656Y-59670823D01*
X253962656Y-59670823D02*
X254057894Y-59623204D01*
X254057894Y-59623204D02*
X254105513Y-59575584D01*
X254105513Y-59575584D02*
X254153132Y-59480346D01*
X254153132Y-59480346D02*
X254153132Y-59385108D01*
X254153132Y-59385108D02*
X254105513Y-59289870D01*
X254105513Y-59289870D02*
X254057894Y-59242251D01*
X254057894Y-59242251D02*
X253962656Y-59194632D01*
X253962656Y-59194632D02*
X253772180Y-59147013D01*
X253772180Y-59147013D02*
X253676942Y-59099394D01*
X253676942Y-59099394D02*
X253629323Y-59051775D01*
X253629323Y-59051775D02*
X253581704Y-58956537D01*
X253581704Y-58956537D02*
X253581704Y-58861299D01*
X253581704Y-58861299D02*
X253629323Y-58766061D01*
X253629323Y-58766061D02*
X253676942Y-58718442D01*
X253676942Y-58718442D02*
X253772180Y-58670823D01*
X253772180Y-58670823D02*
X254010275Y-58670823D01*
X254010275Y-58670823D02*
X254153132Y-58718442D01*
X253867418Y-58527965D02*
X253867418Y-59813680D01*
X254867418Y-60051775D02*
X254819799Y-60051775D01*
X254819799Y-60051775D02*
X254724561Y-60004156D01*
X254724561Y-60004156D02*
X254676942Y-59908918D01*
X254676942Y-59908918D02*
X254676942Y-59432727D01*
X254676942Y-59432727D02*
X254629323Y-59337489D01*
X254629323Y-59337489D02*
X254534085Y-59289870D01*
X254534085Y-59289870D02*
X254629323Y-59242251D01*
X254629323Y-59242251D02*
X254676942Y-59147013D01*
X254676942Y-59147013D02*
X254676942Y-58670823D01*
X254676942Y-58670823D02*
X254724561Y-58575584D01*
X254724561Y-58575584D02*
X254819799Y-58527965D01*
X254819799Y-58527965D02*
X254867418Y-58527965D01*
X255819799Y-59670823D02*
X255486466Y-59194632D01*
X255248371Y-59670823D02*
X255248371Y-58670823D01*
X255248371Y-58670823D02*
X255629323Y-58670823D01*
X255629323Y-58670823D02*
X255724561Y-58718442D01*
X255724561Y-58718442D02*
X255772180Y-58766061D01*
X255772180Y-58766061D02*
X255819799Y-58861299D01*
X255819799Y-58861299D02*
X255819799Y-59004156D01*
X255819799Y-59004156D02*
X255772180Y-59099394D01*
X255772180Y-59099394D02*
X255724561Y-59147013D01*
X255724561Y-59147013D02*
X255629323Y-59194632D01*
X255629323Y-59194632D02*
X255248371Y-59194632D01*
X256248371Y-59147013D02*
X256581704Y-59147013D01*
X256724561Y-59670823D02*
X256248371Y-59670823D01*
X256248371Y-59670823D02*
X256248371Y-58670823D01*
X256248371Y-58670823D02*
X256724561Y-58670823D01*
X257486466Y-59147013D02*
X257153133Y-59147013D01*
X257153133Y-59670823D02*
X257153133Y-58670823D01*
X257153133Y-58670823D02*
X257629323Y-58670823D01*
X258010276Y-59147013D02*
X258343609Y-59147013D01*
X258486466Y-59670823D02*
X258010276Y-59670823D01*
X258010276Y-59670823D02*
X258010276Y-58670823D01*
X258010276Y-58670823D02*
X258486466Y-58670823D01*
X259486466Y-59670823D02*
X259153133Y-59194632D01*
X258915038Y-59670823D02*
X258915038Y-58670823D01*
X258915038Y-58670823D02*
X259295990Y-58670823D01*
X259295990Y-58670823D02*
X259391228Y-58718442D01*
X259391228Y-58718442D02*
X259438847Y-58766061D01*
X259438847Y-58766061D02*
X259486466Y-58861299D01*
X259486466Y-58861299D02*
X259486466Y-59004156D01*
X259486466Y-59004156D02*
X259438847Y-59099394D01*
X259438847Y-59099394D02*
X259391228Y-59147013D01*
X259391228Y-59147013D02*
X259295990Y-59194632D01*
X259295990Y-59194632D02*
X258915038Y-59194632D01*
X259915038Y-59147013D02*
X260248371Y-59147013D01*
X260391228Y-59670823D02*
X259915038Y-59670823D01*
X259915038Y-59670823D02*
X259915038Y-58670823D01*
X259915038Y-58670823D02*
X260391228Y-58670823D01*
X260819800Y-59670823D02*
X260819800Y-58670823D01*
X260819800Y-58670823D02*
X261391228Y-59670823D01*
X261391228Y-59670823D02*
X261391228Y-58670823D01*
X262438847Y-59575584D02*
X262391228Y-59623204D01*
X262391228Y-59623204D02*
X262248371Y-59670823D01*
X262248371Y-59670823D02*
X262153133Y-59670823D01*
X262153133Y-59670823D02*
X262010276Y-59623204D01*
X262010276Y-59623204D02*
X261915038Y-59527965D01*
X261915038Y-59527965D02*
X261867419Y-59432727D01*
X261867419Y-59432727D02*
X261819800Y-59242251D01*
X261819800Y-59242251D02*
X261819800Y-59099394D01*
X261819800Y-59099394D02*
X261867419Y-58908918D01*
X261867419Y-58908918D02*
X261915038Y-58813680D01*
X261915038Y-58813680D02*
X262010276Y-58718442D01*
X262010276Y-58718442D02*
X262153133Y-58670823D01*
X262153133Y-58670823D02*
X262248371Y-58670823D01*
X262248371Y-58670823D02*
X262391228Y-58718442D01*
X262391228Y-58718442D02*
X262438847Y-58766061D01*
X262867419Y-59147013D02*
X263200752Y-59147013D01*
X263343609Y-59670823D02*
X262867419Y-59670823D01*
X262867419Y-59670823D02*
X262867419Y-58670823D01*
X262867419Y-58670823D02*
X263343609Y-58670823D01*
X263676943Y-60051775D02*
X263724562Y-60051775D01*
X263724562Y-60051775D02*
X263819800Y-60004156D01*
X263819800Y-60004156D02*
X263867419Y-59908918D01*
X263867419Y-59908918D02*
X263867419Y-59432727D01*
X263867419Y-59432727D02*
X263915038Y-59337489D01*
X263915038Y-59337489D02*
X264010276Y-59289870D01*
X264010276Y-59289870D02*
X263915038Y-59242251D01*
X263915038Y-59242251D02*
X263867419Y-59147013D01*
X263867419Y-59147013D02*
X263867419Y-58670823D01*
X263867419Y-58670823D02*
X263819800Y-58575584D01*
X263819800Y-58575584D02*
X263724562Y-58527965D01*
X263724562Y-58527965D02*
X263676943Y-58527965D01*
X215481724Y-59623204D02*
X215624581Y-59670823D01*
X215624581Y-59670823D02*
X215862676Y-59670823D01*
X215862676Y-59670823D02*
X215957914Y-59623204D01*
X215957914Y-59623204D02*
X216005533Y-59575584D01*
X216005533Y-59575584D02*
X216053152Y-59480346D01*
X216053152Y-59480346D02*
X216053152Y-59385108D01*
X216053152Y-59385108D02*
X216005533Y-59289870D01*
X216005533Y-59289870D02*
X215957914Y-59242251D01*
X215957914Y-59242251D02*
X215862676Y-59194632D01*
X215862676Y-59194632D02*
X215672200Y-59147013D01*
X215672200Y-59147013D02*
X215576962Y-59099394D01*
X215576962Y-59099394D02*
X215529343Y-59051775D01*
X215529343Y-59051775D02*
X215481724Y-58956537D01*
X215481724Y-58956537D02*
X215481724Y-58861299D01*
X215481724Y-58861299D02*
X215529343Y-58766061D01*
X215529343Y-58766061D02*
X215576962Y-58718442D01*
X215576962Y-58718442D02*
X215672200Y-58670823D01*
X215672200Y-58670823D02*
X215910295Y-58670823D01*
X215910295Y-58670823D02*
X216053152Y-58718442D01*
X215767438Y-58527965D02*
X215767438Y-59813680D01*
X216767438Y-60051775D02*
X216719819Y-60051775D01*
X216719819Y-60051775D02*
X216624581Y-60004156D01*
X216624581Y-60004156D02*
X216576962Y-59908918D01*
X216576962Y-59908918D02*
X216576962Y-59432727D01*
X216576962Y-59432727D02*
X216529343Y-59337489D01*
X216529343Y-59337489D02*
X216434105Y-59289870D01*
X216434105Y-59289870D02*
X216529343Y-59242251D01*
X216529343Y-59242251D02*
X216576962Y-59147013D01*
X216576962Y-59147013D02*
X216576962Y-58670823D01*
X216576962Y-58670823D02*
X216624581Y-58575584D01*
X216624581Y-58575584D02*
X216719819Y-58527965D01*
X216719819Y-58527965D02*
X216767438Y-58527965D01*
X217719819Y-59670823D02*
X217386486Y-59194632D01*
X217148391Y-59670823D02*
X217148391Y-58670823D01*
X217148391Y-58670823D02*
X217529343Y-58670823D01*
X217529343Y-58670823D02*
X217624581Y-58718442D01*
X217624581Y-58718442D02*
X217672200Y-58766061D01*
X217672200Y-58766061D02*
X217719819Y-58861299D01*
X217719819Y-58861299D02*
X217719819Y-59004156D01*
X217719819Y-59004156D02*
X217672200Y-59099394D01*
X217672200Y-59099394D02*
X217624581Y-59147013D01*
X217624581Y-59147013D02*
X217529343Y-59194632D01*
X217529343Y-59194632D02*
X217148391Y-59194632D01*
X218148391Y-59147013D02*
X218481724Y-59147013D01*
X218624581Y-59670823D02*
X218148391Y-59670823D01*
X218148391Y-59670823D02*
X218148391Y-58670823D01*
X218148391Y-58670823D02*
X218624581Y-58670823D01*
X219386486Y-59147013D02*
X219053153Y-59147013D01*
X219053153Y-59670823D02*
X219053153Y-58670823D01*
X219053153Y-58670823D02*
X219529343Y-58670823D01*
X219910296Y-59147013D02*
X220243629Y-59147013D01*
X220386486Y-59670823D02*
X219910296Y-59670823D01*
X219910296Y-59670823D02*
X219910296Y-58670823D01*
X219910296Y-58670823D02*
X220386486Y-58670823D01*
X221386486Y-59670823D02*
X221053153Y-59194632D01*
X220815058Y-59670823D02*
X220815058Y-58670823D01*
X220815058Y-58670823D02*
X221196010Y-58670823D01*
X221196010Y-58670823D02*
X221291248Y-58718442D01*
X221291248Y-58718442D02*
X221338867Y-58766061D01*
X221338867Y-58766061D02*
X221386486Y-58861299D01*
X221386486Y-58861299D02*
X221386486Y-59004156D01*
X221386486Y-59004156D02*
X221338867Y-59099394D01*
X221338867Y-59099394D02*
X221291248Y-59147013D01*
X221291248Y-59147013D02*
X221196010Y-59194632D01*
X221196010Y-59194632D02*
X220815058Y-59194632D01*
X221815058Y-59147013D02*
X222148391Y-59147013D01*
X222291248Y-59670823D02*
X221815058Y-59670823D01*
X221815058Y-59670823D02*
X221815058Y-58670823D01*
X221815058Y-58670823D02*
X222291248Y-58670823D01*
X222719820Y-59670823D02*
X222719820Y-58670823D01*
X222719820Y-58670823D02*
X223291248Y-59670823D01*
X223291248Y-59670823D02*
X223291248Y-58670823D01*
X224338867Y-59575584D02*
X224291248Y-59623204D01*
X224291248Y-59623204D02*
X224148391Y-59670823D01*
X224148391Y-59670823D02*
X224053153Y-59670823D01*
X224053153Y-59670823D02*
X223910296Y-59623204D01*
X223910296Y-59623204D02*
X223815058Y-59527965D01*
X223815058Y-59527965D02*
X223767439Y-59432727D01*
X223767439Y-59432727D02*
X223719820Y-59242251D01*
X223719820Y-59242251D02*
X223719820Y-59099394D01*
X223719820Y-59099394D02*
X223767439Y-58908918D01*
X223767439Y-58908918D02*
X223815058Y-58813680D01*
X223815058Y-58813680D02*
X223910296Y-58718442D01*
X223910296Y-58718442D02*
X224053153Y-58670823D01*
X224053153Y-58670823D02*
X224148391Y-58670823D01*
X224148391Y-58670823D02*
X224291248Y-58718442D01*
X224291248Y-58718442D02*
X224338867Y-58766061D01*
X224767439Y-59147013D02*
X225100772Y-59147013D01*
X225243629Y-59670823D02*
X224767439Y-59670823D01*
X224767439Y-59670823D02*
X224767439Y-58670823D01*
X224767439Y-58670823D02*
X225243629Y-58670823D01*
X225576963Y-60051775D02*
X225624582Y-60051775D01*
X225624582Y-60051775D02*
X225719820Y-60004156D01*
X225719820Y-60004156D02*
X225767439Y-59908918D01*
X225767439Y-59908918D02*
X225767439Y-59432727D01*
X225767439Y-59432727D02*
X225815058Y-59337489D01*
X225815058Y-59337489D02*
X225910296Y-59289870D01*
X225910296Y-59289870D02*
X225815058Y-59242251D01*
X225815058Y-59242251D02*
X225767439Y-59147013D01*
X225767439Y-59147013D02*
X225767439Y-58670823D01*
X225767439Y-58670823D02*
X225719820Y-58575584D01*
X225719820Y-58575584D02*
X225624582Y-58527965D01*
X225624582Y-58527965D02*
X225576963Y-58527965D01*
X391694154Y-97723199D02*
X391837011Y-97770818D01*
X391837011Y-97770818D02*
X392075106Y-97770818D01*
X392075106Y-97770818D02*
X392170344Y-97723199D01*
X392170344Y-97723199D02*
X392217963Y-97675579D01*
X392217963Y-97675579D02*
X392265582Y-97580341D01*
X392265582Y-97580341D02*
X392265582Y-97485103D01*
X392265582Y-97485103D02*
X392217963Y-97389865D01*
X392217963Y-97389865D02*
X392170344Y-97342246D01*
X392170344Y-97342246D02*
X392075106Y-97294627D01*
X392075106Y-97294627D02*
X391884630Y-97247008D01*
X391884630Y-97247008D02*
X391789392Y-97199389D01*
X391789392Y-97199389D02*
X391741773Y-97151770D01*
X391741773Y-97151770D02*
X391694154Y-97056532D01*
X391694154Y-97056532D02*
X391694154Y-96961294D01*
X391694154Y-96961294D02*
X391741773Y-96866056D01*
X391741773Y-96866056D02*
X391789392Y-96818437D01*
X391789392Y-96818437D02*
X391884630Y-96770818D01*
X391884630Y-96770818D02*
X392122725Y-96770818D01*
X392122725Y-96770818D02*
X392265582Y-96818437D01*
X391979868Y-96627960D02*
X391979868Y-97913675D01*
X392979868Y-98151770D02*
X392932249Y-98151770D01*
X392932249Y-98151770D02*
X392837011Y-98104151D01*
X392837011Y-98104151D02*
X392789392Y-98008913D01*
X392789392Y-98008913D02*
X392789392Y-97532722D01*
X392789392Y-97532722D02*
X392741773Y-97437484D01*
X392741773Y-97437484D02*
X392646535Y-97389865D01*
X392646535Y-97389865D02*
X392741773Y-97342246D01*
X392741773Y-97342246D02*
X392789392Y-97247008D01*
X392789392Y-97247008D02*
X392789392Y-96770818D01*
X392789392Y-96770818D02*
X392837011Y-96675579D01*
X392837011Y-96675579D02*
X392932249Y-96627960D01*
X392932249Y-96627960D02*
X392979868Y-96627960D01*
X393932249Y-97770818D02*
X393598916Y-97294627D01*
X393360821Y-97770818D02*
X393360821Y-96770818D01*
X393360821Y-96770818D02*
X393741773Y-96770818D01*
X393741773Y-96770818D02*
X393837011Y-96818437D01*
X393837011Y-96818437D02*
X393884630Y-96866056D01*
X393884630Y-96866056D02*
X393932249Y-96961294D01*
X393932249Y-96961294D02*
X393932249Y-97104151D01*
X393932249Y-97104151D02*
X393884630Y-97199389D01*
X393884630Y-97199389D02*
X393837011Y-97247008D01*
X393837011Y-97247008D02*
X393741773Y-97294627D01*
X393741773Y-97294627D02*
X393360821Y-97294627D01*
X394360821Y-97247008D02*
X394694154Y-97247008D01*
X394837011Y-97770818D02*
X394360821Y-97770818D01*
X394360821Y-97770818D02*
X394360821Y-96770818D01*
X394360821Y-96770818D02*
X394837011Y-96770818D01*
X395598916Y-97247008D02*
X395265583Y-97247008D01*
X395265583Y-97770818D02*
X395265583Y-96770818D01*
X395265583Y-96770818D02*
X395741773Y-96770818D01*
X396122726Y-97247008D02*
X396456059Y-97247008D01*
X396598916Y-97770818D02*
X396122726Y-97770818D01*
X396122726Y-97770818D02*
X396122726Y-96770818D01*
X396122726Y-96770818D02*
X396598916Y-96770818D01*
X397598916Y-97770818D02*
X397265583Y-97294627D01*
X397027488Y-97770818D02*
X397027488Y-96770818D01*
X397027488Y-96770818D02*
X397408440Y-96770818D01*
X397408440Y-96770818D02*
X397503678Y-96818437D01*
X397503678Y-96818437D02*
X397551297Y-96866056D01*
X397551297Y-96866056D02*
X397598916Y-96961294D01*
X397598916Y-96961294D02*
X397598916Y-97104151D01*
X397598916Y-97104151D02*
X397551297Y-97199389D01*
X397551297Y-97199389D02*
X397503678Y-97247008D01*
X397503678Y-97247008D02*
X397408440Y-97294627D01*
X397408440Y-97294627D02*
X397027488Y-97294627D01*
X398027488Y-97247008D02*
X398360821Y-97247008D01*
X398503678Y-97770818D02*
X398027488Y-97770818D01*
X398027488Y-97770818D02*
X398027488Y-96770818D01*
X398027488Y-96770818D02*
X398503678Y-96770818D01*
X398932250Y-97770818D02*
X398932250Y-96770818D01*
X398932250Y-96770818D02*
X399503678Y-97770818D01*
X399503678Y-97770818D02*
X399503678Y-96770818D01*
X400551297Y-97675579D02*
X400503678Y-97723199D01*
X400503678Y-97723199D02*
X400360821Y-97770818D01*
X400360821Y-97770818D02*
X400265583Y-97770818D01*
X400265583Y-97770818D02*
X400122726Y-97723199D01*
X400122726Y-97723199D02*
X400027488Y-97627960D01*
X400027488Y-97627960D02*
X399979869Y-97532722D01*
X399979869Y-97532722D02*
X399932250Y-97342246D01*
X399932250Y-97342246D02*
X399932250Y-97199389D01*
X399932250Y-97199389D02*
X399979869Y-97008913D01*
X399979869Y-97008913D02*
X400027488Y-96913675D01*
X400027488Y-96913675D02*
X400122726Y-96818437D01*
X400122726Y-96818437D02*
X400265583Y-96770818D01*
X400265583Y-96770818D02*
X400360821Y-96770818D01*
X400360821Y-96770818D02*
X400503678Y-96818437D01*
X400503678Y-96818437D02*
X400551297Y-96866056D01*
X400979869Y-97247008D02*
X401313202Y-97247008D01*
X401456059Y-97770818D02*
X400979869Y-97770818D01*
X400979869Y-97770818D02*
X400979869Y-96770818D01*
X400979869Y-96770818D02*
X401456059Y-96770818D01*
X401789393Y-98151770D02*
X401837012Y-98151770D01*
X401837012Y-98151770D02*
X401932250Y-98104151D01*
X401932250Y-98104151D02*
X401979869Y-98008913D01*
X401979869Y-98008913D02*
X401979869Y-97532722D01*
X401979869Y-97532722D02*
X402027488Y-97437484D01*
X402027488Y-97437484D02*
X402122726Y-97389865D01*
X402122726Y-97389865D02*
X402027488Y-97342246D01*
X402027488Y-97342246D02*
X401979869Y-97247008D01*
X401979869Y-97247008D02*
X401979869Y-96770818D01*
X401979869Y-96770818D02*
X401932250Y-96675579D01*
X401932250Y-96675579D02*
X401837012Y-96627960D01*
X401837012Y-96627960D02*
X401789393Y-96627960D01*
D11*
X285783480Y-98839999D02*
X298483480Y-98839999D01*
X285783480Y-111539999D02*
X285783480Y-98839999D01*
X298483480Y-98839999D02*
X298483480Y-111539999D01*
X298483480Y-111539999D02*
X285783480Y-111539999D01*
X376270970Y-41689997D02*
X388970970Y-41689997D01*
X376270970Y-54389997D02*
X376270970Y-41689997D01*
X388970970Y-41689997D02*
X388970970Y-54389997D01*
X388970970Y-54389997D02*
X376270970Y-54389997D01*
X452470890Y-60740004D02*
X465170890Y-60740004D01*
X452470890Y-73440004D02*
X452470890Y-60740004D01*
X465170890Y-60740004D02*
X465170890Y-73440004D01*
X465170890Y-73440004D02*
X452470890Y-73440004D01*
X190533530Y-98839999D02*
X203233530Y-98839999D01*
X190533530Y-111539999D02*
X190533530Y-98839999D01*
X203233530Y-98839999D02*
X203233530Y-111539999D01*
X203233530Y-111539999D02*
X190533530Y-111539999D01*
X138146060Y-60740004D02*
X150846060Y-60740004D01*
X138146060Y-73440004D02*
X138146060Y-60740004D01*
X150846060Y-60740004D02*
X150846060Y-73440004D01*
X150846060Y-73440004D02*
X138146060Y-73440004D01*
X200058510Y-79789994D02*
X212758510Y-79789994D01*
X200058510Y-92489994D02*
X200058510Y-79789994D01*
X212758510Y-79789994D02*
X212758510Y-92489994D01*
X212758510Y-92489994D02*
X200058510Y-92489994D01*
X390558440Y-98839999D02*
X403258440Y-98839999D01*
X390558440Y-111539999D02*
X390558440Y-98839999D01*
X403258440Y-98839999D02*
X403258440Y-111539999D01*
X403258440Y-111539999D02*
X390558440Y-111539999D01*
X321502290Y-117890004D02*
X334202290Y-117890004D01*
X321502290Y-130590004D02*
X321502290Y-117890004D01*
X334202290Y-117890004D02*
X334202290Y-130590004D01*
X334202290Y-130590004D02*
X321502290Y-130590004D01*
X110508060Y-23001000D02*
X110508060Y-35701000D01*
X110508060Y-23001000D02*
X116508060Y-23001000D01*
X110508060Y-35701000D02*
X116508060Y-35701000D01*
X116508060Y-23001000D02*
X116508060Y-35701000D01*
X119096060Y-22640000D02*
X131796060Y-22640000D01*
X119096060Y-22640000D02*
X131796060Y-22640000D01*
X119096060Y-35340000D02*
X119096060Y-22640000D01*
X131796060Y-22640000D02*
X131796060Y-35340000D01*
X131796060Y-35340000D02*
X119096060Y-35340000D01*
X134384060Y-23001000D02*
X134384060Y-35701000D01*
X134384060Y-23001000D02*
X140384060Y-23001000D01*
X134384060Y-35701000D02*
X140384060Y-35701000D01*
X140384060Y-23001000D02*
X140384060Y-35701000D01*
X128621070Y-41689997D02*
X141321070Y-41689997D01*
X128621070Y-54389997D02*
X128621070Y-41689997D01*
X141321070Y-41689997D02*
X141321070Y-54389997D01*
X141321070Y-54389997D02*
X128621070Y-54389997D01*
X409608590Y-117890004D02*
X422308590Y-117890004D01*
X409608590Y-130590004D02*
X409608590Y-117890004D01*
X422308590Y-117890004D02*
X422308590Y-130590004D01*
X422308590Y-130590004D02*
X409608590Y-130590004D01*
X415307910Y-61101004D02*
X415307910Y-73801004D01*
X415307910Y-61101004D02*
X421307910Y-61101004D01*
X415307910Y-73801004D02*
X421307910Y-73801004D01*
X421307910Y-61101004D02*
X421307910Y-73801004D01*
X423895910Y-60740004D02*
X436595910Y-60740004D01*
X423895910Y-60740004D02*
X436595910Y-60740004D01*
X423895910Y-73440004D02*
X423895910Y-60740004D01*
X436595910Y-60740004D02*
X436595910Y-73440004D01*
X436595910Y-73440004D02*
X423895910Y-73440004D01*
X439183910Y-61101004D02*
X439183910Y-73801004D01*
X439183910Y-61101004D02*
X445183910Y-61101004D01*
X439183910Y-73801004D02*
X445183910Y-73801004D01*
X445183910Y-61101004D02*
X445183910Y-73801004D01*
X350077310Y-117890004D02*
X362777310Y-117890004D01*
X350077310Y-130590004D02*
X350077310Y-117890004D01*
X362777310Y-117890004D02*
X362777310Y-130590004D01*
X362777310Y-130590004D02*
X350077310Y-130590004D01*
X33371060Y-60740004D02*
X46071060Y-60740004D01*
X33371060Y-73440004D02*
X33371060Y-60740004D01*
X46071060Y-60740004D02*
X46071060Y-73440004D01*
X46071060Y-73440004D02*
X33371060Y-73440004D01*
X438183600Y-117890004D02*
X450883600Y-117890004D01*
X438183600Y-130590004D02*
X438183600Y-117890004D01*
X450883600Y-117890004D02*
X450883600Y-130590004D01*
X450883600Y-130590004D02*
X438183600Y-130590004D01*
X85758560Y-98839999D02*
X98458560Y-98839999D01*
X85758560Y-111539999D02*
X85758560Y-98839999D01*
X98458560Y-98839999D02*
X98458560Y-111539999D01*
X98458560Y-111539999D02*
X85758560Y-111539999D01*
X300070960Y-41689997D02*
X312770960Y-41689997D01*
X300070960Y-54389997D02*
X300070960Y-41689997D01*
X312770960Y-41689997D02*
X312770960Y-54389997D01*
X312770960Y-54389997D02*
X300070960Y-54389997D01*
X52421063Y-60740004D02*
X65121063Y-60740004D01*
X52421063Y-73440004D02*
X52421063Y-60740004D01*
X65121063Y-60740004D02*
X65121063Y-73440004D01*
X65121063Y-73440004D02*
X52421063Y-73440004D01*
X290545960Y-60740004D02*
X303245960Y-60740004D01*
X290545960Y-73440004D02*
X290545960Y-60740004D01*
X303245960Y-60740004D02*
X303245960Y-73440004D01*
X303245960Y-73440004D02*
X290545960Y-73440004D01*
X271495980Y-60740004D02*
X284195980Y-60740004D01*
X271495980Y-73440004D02*
X271495980Y-60740004D01*
X284195980Y-60740004D02*
X284195980Y-73440004D01*
X284195980Y-73440004D02*
X271495980Y-73440004D01*
D14*
X209185530Y-140180059D02*
X307183810Y-140180059D01*
X209185530Y-200179939D02*
X209185530Y-140180059D01*
X307183810Y-140180059D02*
X307183810Y-200179939D01*
X307183810Y-200179939D02*
X209185530Y-200179939D01*
X211710290Y-142679419D02*
G75*
G02*
X211659490Y-142679419I-25400J0D01*
G01*
X211659490Y-142679419D02*
G75*
G02*
X211710290Y-142679419I25400J0D01*
G01*
X211720811Y-197680579D02*
G75*
G02*
X211648969Y-197680579I-35921J0D01*
G01*
X211648969Y-197680579D02*
G75*
G02*
X211720811Y-197680579I35921J0D01*
G01*
X304709850Y-142679419D02*
G75*
G02*
X304659050Y-142679419I-25400J0D01*
G01*
X304659050Y-142679419D02*
G75*
G02*
X304709850Y-142679419I25400J0D01*
G01*
X304709850Y-197680579D02*
G75*
G02*
X304659050Y-197680579I-25400J0D01*
G01*
X304659050Y-197680579D02*
G75*
G02*
X304709850Y-197680579I25400J0D01*
G01*
D11*
X57183560Y-98839999D02*
X69883560Y-98839999D01*
X57183560Y-111539999D02*
X57183560Y-98839999D01*
X69883560Y-98839999D02*
X69883560Y-111539999D01*
X69883560Y-111539999D02*
X57183560Y-111539999D01*
X72408070Y-61101004D02*
X72408070Y-73801004D01*
X72408070Y-61101004D02*
X78408070Y-61101004D01*
X72408070Y-73801004D02*
X78408070Y-73801004D01*
X78408070Y-61101004D02*
X78408070Y-73801004D01*
X80996070Y-60740004D02*
X93696070Y-60740004D01*
X80996070Y-60740004D02*
X93696070Y-60740004D01*
X80996070Y-73440004D02*
X80996070Y-60740004D01*
X93696070Y-60740004D02*
X93696070Y-73440004D01*
X93696070Y-73440004D02*
X80996070Y-73440004D01*
X96284070Y-61101004D02*
X96284070Y-73801004D01*
X96284070Y-61101004D02*
X102284070Y-61101004D01*
X96284070Y-73801004D02*
X102284070Y-73801004D01*
X102284070Y-61101004D02*
X102284070Y-73801004D01*
X471520880Y-60740004D02*
X484220880Y-60740004D01*
X471520880Y-73440004D02*
X471520880Y-60740004D01*
X484220880Y-60740004D02*
X484220880Y-73440004D01*
X484220880Y-73440004D02*
X471520880Y-73440004D01*
X471520910Y-41689997D02*
X484220910Y-41689997D01*
X471520910Y-54389997D02*
X471520910Y-41689997D01*
X484220910Y-41689997D02*
X484220910Y-54389997D01*
X484220910Y-54389997D02*
X471520910Y-54389997D01*
X209583520Y-98839999D02*
X222283520Y-98839999D01*
X209583520Y-111539999D02*
X209583520Y-98839999D01*
X222283520Y-98839999D02*
X222283520Y-111539999D01*
X222283520Y-111539999D02*
X209583520Y-111539999D01*
X415307940Y-42050997D02*
X415307940Y-54750997D01*
X415307940Y-42050997D02*
X421307940Y-42050997D01*
X415307940Y-54750997D02*
X421307940Y-54750997D01*
X421307940Y-42050997D02*
X421307940Y-54750997D01*
X423895940Y-41689997D02*
X436595940Y-41689997D01*
X423895940Y-41689997D02*
X436595940Y-41689997D01*
X423895940Y-54389997D02*
X423895940Y-41689997D01*
X436595940Y-41689997D02*
X436595940Y-54389997D01*
X436595940Y-54389997D02*
X423895940Y-54389997D01*
X439183940Y-42050997D02*
X439183940Y-54750997D01*
X439183940Y-42050997D02*
X445183940Y-42050997D01*
X439183940Y-54750997D02*
X445183940Y-54750997D01*
X445183940Y-42050997D02*
X445183940Y-54750997D01*
X242920990Y-41689997D02*
X255620990Y-41689997D01*
X242920990Y-54389997D02*
X242920990Y-41689997D01*
X255620990Y-41689997D02*
X255620990Y-54389997D01*
X255620990Y-54389997D02*
X242920990Y-54389997D01*
X323883460Y-98839999D02*
X336583460Y-98839999D01*
X323883460Y-111539999D02*
X323883460Y-98839999D01*
X336583460Y-98839999D02*
X336583460Y-111539999D01*
X336583460Y-111539999D02*
X323883460Y-111539999D01*
X116714800Y-79789994D02*
X129414800Y-79789994D01*
X116714800Y-92489994D02*
X116714800Y-79789994D01*
X129414800Y-79789994D02*
X129414800Y-92489994D01*
X129414800Y-92489994D02*
X116714800Y-92489994D01*
X109567310Y-98839999D02*
X122267310Y-98839999D01*
X109567310Y-111539999D02*
X109567310Y-98839999D01*
X122267310Y-98839999D02*
X122267310Y-111539999D01*
X122267310Y-111539999D02*
X109567310Y-111539999D01*
X133357310Y-98839999D02*
X146057310Y-98839999D01*
X133357310Y-111539999D02*
X133357310Y-98839999D01*
X146057310Y-98839999D02*
X146057310Y-111539999D01*
X146057310Y-111539999D02*
X133357310Y-111539999D01*
X353395400Y-80150994D02*
X353395400Y-92850994D01*
X353395400Y-80150994D02*
X359395400Y-80150994D01*
X353395400Y-92850994D02*
X359395400Y-92850994D01*
X359395400Y-80150994D02*
X359395400Y-92850994D01*
X361983400Y-79789994D02*
X374683400Y-79789994D01*
X361983400Y-79789994D02*
X374683400Y-79789994D01*
X361983400Y-92489994D02*
X361983400Y-79789994D01*
X374683400Y-79789994D02*
X374683400Y-92489994D01*
X374683400Y-92489994D02*
X361983400Y-92489994D01*
X377271400Y-80150994D02*
X377271400Y-92850994D01*
X377271400Y-80150994D02*
X383271400Y-80150994D01*
X377271400Y-92850994D02*
X383271400Y-92850994D01*
X383271400Y-80150994D02*
X383271400Y-92850994D01*
X262908070Y-23001000D02*
X262908070Y-35701000D01*
X262908070Y-23001000D02*
X268908070Y-23001000D01*
X262908070Y-35701000D02*
X268908070Y-35701000D01*
X268908070Y-23001000D02*
X268908070Y-35701000D01*
X271496070Y-22640000D02*
X284196070Y-22640000D01*
X271496070Y-22640000D02*
X284196070Y-22640000D01*
X271496070Y-35340000D02*
X271496070Y-22640000D01*
X284196070Y-22640000D02*
X284196070Y-35340000D01*
X284196070Y-35340000D02*
X271496070Y-35340000D01*
X286784070Y-23001000D02*
X286784070Y-35701000D01*
X286784070Y-23001000D02*
X292784070Y-23001000D01*
X286784070Y-35701000D02*
X292784070Y-35701000D01*
X292784070Y-23001000D02*
X292784070Y-35701000D01*
X314358440Y-79789994D02*
X327058440Y-79789994D01*
X314358440Y-92489994D02*
X314358440Y-79789994D01*
X327058440Y-79789994D02*
X327058440Y-92489994D01*
X327058440Y-92489994D02*
X314358440Y-92489994D01*
X166721040Y-41689997D02*
X179421040Y-41689997D01*
X166721040Y-54389997D02*
X166721040Y-41689997D01*
X179421040Y-41689997D02*
X179421040Y-54389997D01*
X179421040Y-54389997D02*
X166721040Y-54389997D01*
X377207990Y-23001000D02*
X377207990Y-35701000D01*
X377207990Y-23001000D02*
X383207990Y-23001000D01*
X377207990Y-35701000D02*
X383207990Y-35701000D01*
X383207990Y-23001000D02*
X383207990Y-35701000D01*
X385795990Y-22640000D02*
X398495990Y-22640000D01*
X385795990Y-22640000D02*
X398495990Y-22640000D01*
X385795990Y-35340000D02*
X385795990Y-22640000D01*
X398495990Y-22640000D02*
X398495990Y-35340000D01*
X398495990Y-35340000D02*
X385795990Y-35340000D01*
X401083990Y-23001000D02*
X401083990Y-35701000D01*
X401083990Y-23001000D02*
X407083990Y-23001000D01*
X401083990Y-35701000D02*
X407083990Y-35701000D01*
X407083990Y-23001000D02*
X407083990Y-35701000D01*
X423895880Y-79789994D02*
X436595880Y-79789994D01*
X423895880Y-92489994D02*
X423895880Y-79789994D01*
X436595880Y-79789994D02*
X436595880Y-92489994D01*
X436595880Y-92489994D02*
X423895880Y-92489994D01*
X33371060Y-98839999D02*
X46071060Y-98839999D01*
X33371060Y-111539999D02*
X33371060Y-98839999D01*
X46071060Y-98839999D02*
X46071060Y-111539999D01*
X46071060Y-111539999D02*
X33371060Y-111539999D01*
X126239810Y-117890004D02*
X138939810Y-117890004D01*
X126239810Y-130590004D02*
X126239810Y-117890004D01*
X138939810Y-117890004D02*
X138939810Y-130590004D01*
X138939810Y-130590004D02*
X126239810Y-130590004D01*
X323883460Y-41689997D02*
X336583460Y-41689997D01*
X323883460Y-54389997D02*
X323883460Y-41689997D01*
X336583460Y-41689997D02*
X336583460Y-54389997D01*
X336583460Y-54389997D02*
X323883460Y-54389997D01*
X72408070Y-42050997D02*
X72408070Y-54750997D01*
X72408070Y-42050997D02*
X78408070Y-42050997D01*
X72408070Y-54750997D02*
X78408070Y-54750997D01*
X78408070Y-42050997D02*
X78408070Y-54750997D01*
X80996070Y-41689997D02*
X93696070Y-41689997D01*
X80996070Y-41689997D02*
X93696070Y-41689997D01*
X80996070Y-54389997D02*
X80996070Y-41689997D01*
X93696070Y-41689997D02*
X93696070Y-54389997D01*
X93696070Y-54389997D02*
X80996070Y-54389997D01*
X96284070Y-42050997D02*
X96284070Y-54750997D01*
X96284070Y-42050997D02*
X102284070Y-42050997D01*
X96284070Y-54750997D02*
X102284070Y-54750997D01*
X102284070Y-42050997D02*
X102284070Y-54750997D01*
X72408050Y-23001000D02*
X72408050Y-35701000D01*
X72408050Y-23001000D02*
X78408050Y-23001000D01*
X72408050Y-35701000D02*
X78408050Y-35701000D01*
X78408050Y-23001000D02*
X78408050Y-35701000D01*
X80996050Y-22640000D02*
X93696050Y-22640000D01*
X80996050Y-22640000D02*
X93696050Y-22640000D01*
X80996050Y-35340000D02*
X80996050Y-22640000D01*
X93696050Y-22640000D02*
X93696050Y-35340000D01*
X93696050Y-35340000D02*
X80996050Y-35340000D01*
X96284050Y-23001000D02*
X96284050Y-35701000D01*
X96284050Y-23001000D02*
X102284050Y-23001000D01*
X96284050Y-35701000D02*
X102284050Y-35701000D01*
X102284050Y-23001000D02*
X102284050Y-35701000D01*
X339108020Y-23001000D02*
X339108020Y-35701000D01*
X339108020Y-23001000D02*
X345108020Y-23001000D01*
X339108020Y-35701000D02*
X345108020Y-35701000D01*
X345108020Y-23001000D02*
X345108020Y-35701000D01*
X347696020Y-22640000D02*
X360396020Y-22640000D01*
X347696020Y-22640000D02*
X360396020Y-22640000D01*
X347696020Y-35340000D02*
X347696020Y-22640000D01*
X360396020Y-22640000D02*
X360396020Y-35340000D01*
X360396020Y-35340000D02*
X347696020Y-35340000D01*
X362984020Y-23001000D02*
X362984020Y-35701000D01*
X362984020Y-23001000D02*
X368984020Y-23001000D01*
X362984020Y-35701000D02*
X368984020Y-35701000D01*
X368984020Y-23001000D02*
X368984020Y-35701000D01*
X148608060Y-23001000D02*
X148608060Y-35701000D01*
X148608060Y-23001000D02*
X154608060Y-23001000D01*
X148608060Y-35701000D02*
X154608060Y-35701000D01*
X154608060Y-23001000D02*
X154608060Y-35701000D01*
X157196060Y-22640000D02*
X169896060Y-22640000D01*
X157196060Y-22640000D02*
X169896060Y-22640000D01*
X157196060Y-35340000D02*
X157196060Y-22640000D01*
X169896060Y-22640000D02*
X169896060Y-35340000D01*
X169896060Y-35340000D02*
X157196060Y-35340000D01*
X172484060Y-23001000D02*
X172484060Y-35701000D01*
X172484060Y-23001000D02*
X178484060Y-23001000D01*
X172484060Y-35701000D02*
X178484060Y-35701000D01*
X178484060Y-23001000D02*
X178484060Y-35701000D01*
X295308440Y-79789994D02*
X308008440Y-79789994D01*
X295308440Y-92489994D02*
X295308440Y-79789994D01*
X308008440Y-79789994D02*
X308008440Y-92489994D01*
X308008440Y-92489994D02*
X295308440Y-92489994D01*
X281020970Y-41689997D02*
X293720970Y-41689997D01*
X281020970Y-54389997D02*
X281020970Y-41689997D01*
X293720970Y-41689997D02*
X293720970Y-54389997D01*
X293720970Y-54389997D02*
X281020970Y-54389997D01*
X453407940Y-23001000D02*
X453407940Y-35701000D01*
X453407940Y-23001000D02*
X459407940Y-23001000D01*
X453407940Y-35701000D02*
X459407940Y-35701000D01*
X459407940Y-23001000D02*
X459407940Y-35701000D01*
X461995940Y-22640000D02*
X474695940Y-22640000D01*
X461995940Y-22640000D02*
X474695940Y-22640000D01*
X461995940Y-35340000D02*
X461995940Y-22640000D01*
X474695940Y-22640000D02*
X474695940Y-35340000D01*
X474695940Y-35340000D02*
X461995940Y-35340000D01*
X477283940Y-23001000D02*
X477283940Y-35701000D01*
X477283940Y-23001000D02*
X483283940Y-23001000D01*
X477283940Y-35701000D02*
X483283940Y-35701000D01*
X483283940Y-23001000D02*
X483283940Y-35701000D01*
X366745910Y-60740004D02*
X379445910Y-60740004D01*
X366745910Y-73440004D02*
X366745910Y-60740004D01*
X379445910Y-60740004D02*
X379445910Y-73440004D01*
X379445910Y-73440004D02*
X366745910Y-73440004D01*
X247683490Y-98839999D02*
X260383490Y-98839999D01*
X247683490Y-111539999D02*
X247683490Y-98839999D01*
X260383490Y-98839999D02*
X260383490Y-111539999D01*
X260383490Y-111539999D02*
X247683490Y-111539999D01*
X178627310Y-117890004D02*
X191327310Y-117890004D01*
X178627310Y-130590004D02*
X178627310Y-117890004D01*
X191327310Y-117890004D02*
X191327310Y-130590004D01*
X191327310Y-130590004D02*
X178627310Y-130590004D01*
X152433550Y-98839999D02*
X165133550Y-98839999D01*
X152433550Y-111539999D02*
X152433550Y-98839999D01*
X165133550Y-98839999D02*
X165133550Y-111539999D01*
X165133550Y-111539999D02*
X152433550Y-111539999D01*
X392939640Y-79789994D02*
X405639640Y-79789994D01*
X392939640Y-92489994D02*
X392939640Y-79789994D01*
X405639640Y-79789994D02*
X405639640Y-92489994D01*
X405639640Y-92489994D02*
X392939640Y-92489994D01*
X214346010Y-60740004D02*
X227046010Y-60740004D01*
X214346010Y-73440004D02*
X214346010Y-60740004D01*
X227046010Y-60740004D02*
X227046010Y-73440004D01*
X227046010Y-73440004D02*
X214346010Y-73440004D01*
X301008040Y-23001000D02*
X301008040Y-35701000D01*
X301008040Y-23001000D02*
X307008040Y-23001000D01*
X301008040Y-35701000D02*
X307008040Y-35701000D01*
X307008040Y-23001000D02*
X307008040Y-35701000D01*
X309596040Y-22640000D02*
X322296040Y-22640000D01*
X309596040Y-22640000D02*
X322296040Y-22640000D01*
X309596040Y-35340000D02*
X309596040Y-22640000D01*
X322296040Y-22640000D02*
X322296040Y-35340000D01*
X322296040Y-35340000D02*
X309596040Y-35340000D01*
X324884040Y-23001000D02*
X324884040Y-35701000D01*
X324884040Y-23001000D02*
X330884040Y-23001000D01*
X324884040Y-35701000D02*
X330884040Y-35701000D01*
X330884040Y-23001000D02*
X330884040Y-35701000D01*
X471520970Y-98839999D02*
X484220970Y-98839999D01*
X471520970Y-111539999D02*
X471520970Y-98839999D01*
X484220970Y-98839999D02*
X484220970Y-111539999D01*
X484220970Y-111539999D02*
X471520970Y-111539999D01*
X390558410Y-60740004D02*
X403258410Y-60740004D01*
X390558410Y-73440004D02*
X390558410Y-60740004D01*
X403258410Y-60740004D02*
X403258410Y-73440004D01*
X403258410Y-73440004D02*
X390558410Y-73440004D01*
X328645940Y-60740004D02*
X341345940Y-60740004D01*
X328645940Y-73440004D02*
X328645940Y-60740004D01*
X341345940Y-60740004D02*
X341345940Y-73440004D01*
X341345940Y-73440004D02*
X328645940Y-73440004D01*
X34308058Y-80150994D02*
X34308058Y-92850994D01*
X34308058Y-80150994D02*
X40308058Y-80150994D01*
X34308058Y-92850994D02*
X40308058Y-92850994D01*
X40308058Y-80150994D02*
X40308058Y-92850994D01*
X42896058Y-79789994D02*
X55596058Y-79789994D01*
X42896058Y-79789994D02*
X55596058Y-79789994D01*
X42896058Y-92489994D02*
X42896058Y-79789994D01*
X55596058Y-79789994D02*
X55596058Y-92489994D01*
X55596058Y-92489994D02*
X42896058Y-92489994D01*
X58184058Y-80150994D02*
X58184058Y-92850994D01*
X58184058Y-80150994D02*
X64184058Y-80150994D01*
X58184058Y-92850994D02*
X64184058Y-92850994D01*
X64184058Y-80150994D02*
X64184058Y-92850994D01*
X381033570Y-117890004D02*
X393733570Y-117890004D01*
X381033570Y-130590004D02*
X381033570Y-117890004D01*
X393733570Y-117890004D02*
X393733570Y-130590004D01*
X393733570Y-130590004D02*
X381033570Y-130590004D01*
X181008520Y-79789994D02*
X193708520Y-79789994D01*
X181008520Y-92489994D02*
X181008520Y-79789994D01*
X193708520Y-79789994D02*
X193708520Y-92489994D01*
X193708520Y-92489994D02*
X181008520Y-92489994D01*
X157196050Y-60740004D02*
X169896050Y-60740004D01*
X157196050Y-73440004D02*
X157196050Y-60740004D01*
X169896050Y-60740004D02*
X169896050Y-73440004D01*
X169896050Y-73440004D02*
X157196050Y-73440004D01*
X233396000Y-60740004D02*
X246096000Y-60740004D01*
X233396000Y-73440004D02*
X233396000Y-60740004D01*
X246096000Y-60740004D02*
X246096000Y-73440004D01*
X246096000Y-73440004D02*
X233396000Y-73440004D01*
X252445990Y-60740004D02*
X265145990Y-60740004D01*
X252445990Y-73440004D02*
X252445990Y-60740004D01*
X265145990Y-60740004D02*
X265145990Y-73440004D01*
X265145990Y-73440004D02*
X252445990Y-73440004D01*
X342929700Y-98839999D02*
X355629700Y-98839999D01*
X342929700Y-111539999D02*
X342929700Y-98839999D01*
X355629700Y-98839999D02*
X355629700Y-111539999D01*
X355629700Y-111539999D02*
X342929700Y-111539999D01*
X366719700Y-98839999D02*
X379419700Y-98839999D01*
X366719700Y-111539999D02*
X366719700Y-98839999D01*
X379419700Y-98839999D02*
X379419700Y-111539999D01*
X379419700Y-111539999D02*
X366719700Y-111539999D01*
X33371060Y-41689997D02*
X46071060Y-41689997D01*
X33371060Y-54389997D02*
X33371060Y-41689997D01*
X46071060Y-41689997D02*
X46071060Y-54389997D01*
X46071060Y-54389997D02*
X33371060Y-54389997D01*
X219108490Y-79789994D02*
X231808490Y-79789994D01*
X219108490Y-92489994D02*
X219108490Y-79789994D01*
X231808490Y-79789994D02*
X231808490Y-92489994D01*
X231808490Y-92489994D02*
X219108490Y-92489994D01*
X171483540Y-98839999D02*
X184183540Y-98839999D01*
X171483540Y-111539999D02*
X171483540Y-98839999D01*
X184183540Y-98839999D02*
X184183540Y-111539999D01*
X184183540Y-111539999D02*
X171483540Y-111539999D01*
X109571070Y-41689997D02*
X122271070Y-41689997D01*
X109571070Y-54389997D02*
X109571070Y-41689997D01*
X122271070Y-41689997D02*
X122271070Y-54389997D01*
X122271070Y-54389997D02*
X109571070Y-54389997D01*
X72408050Y-80150994D02*
X72408050Y-92850994D01*
X72408050Y-80150994D02*
X78408050Y-80150994D01*
X72408050Y-92850994D02*
X78408050Y-92850994D01*
X78408050Y-80150994D02*
X78408050Y-92850994D01*
X80996050Y-79789994D02*
X93696050Y-79789994D01*
X80996050Y-79789994D02*
X93696050Y-79789994D01*
X80996050Y-92489994D02*
X80996050Y-79789994D01*
X93696050Y-79789994D02*
X93696050Y-92489994D01*
X93696050Y-92489994D02*
X80996050Y-92489994D01*
X96284050Y-80150994D02*
X96284050Y-92850994D01*
X96284050Y-80150994D02*
X102284050Y-80150994D01*
X96284050Y-92850994D02*
X102284050Y-92850994D01*
X102284050Y-80150994D02*
X102284050Y-92850994D01*
X228633500Y-98839999D02*
X241333500Y-98839999D01*
X228633500Y-111539999D02*
X228633500Y-98839999D01*
X241333500Y-98839999D02*
X241333500Y-111539999D01*
X241333500Y-111539999D02*
X228633500Y-111539999D01*
X452470920Y-41689997D02*
X465170920Y-41689997D01*
X452470920Y-54389997D02*
X452470920Y-41689997D01*
X465170920Y-41689997D02*
X465170920Y-54389997D01*
X465170920Y-54389997D02*
X452470920Y-54389997D01*
X276258460Y-79789994D02*
X288958460Y-79789994D01*
X276258460Y-92489994D02*
X276258460Y-79789994D01*
X288958460Y-79789994D02*
X288958460Y-92489994D01*
X288958460Y-92489994D02*
X276258460Y-92489994D01*
X453407840Y-80150994D02*
X453407840Y-92850994D01*
X453407840Y-80150994D02*
X459407840Y-80150994D01*
X453407840Y-92850994D02*
X459407840Y-92850994D01*
X459407840Y-80150994D02*
X459407840Y-92850994D01*
X461995840Y-79789994D02*
X474695840Y-79789994D01*
X461995840Y-79789994D02*
X474695840Y-79789994D01*
X461995840Y-92489994D02*
X461995840Y-79789994D01*
X474695840Y-79789994D02*
X474695840Y-92489994D01*
X474695840Y-92489994D02*
X461995840Y-92489994D01*
X477283840Y-80150994D02*
X477283840Y-92850994D01*
X477283840Y-80150994D02*
X483283840Y-80150994D01*
X477283840Y-92850994D02*
X483283840Y-92850994D01*
X483283840Y-80150994D02*
X483283840Y-92850994D01*
X114333570Y-60740004D02*
X127033570Y-60740004D01*
X114333570Y-73440004D02*
X114333570Y-60740004D01*
X127033570Y-60740004D02*
X127033570Y-73440004D01*
X127033570Y-73440004D02*
X114333570Y-73440004D01*
X266733490Y-98839999D02*
X279433490Y-98839999D01*
X266733490Y-111539999D02*
X266733490Y-98839999D01*
X279433490Y-98839999D02*
X279433490Y-111539999D01*
X279433490Y-111539999D02*
X266733490Y-111539999D01*
X252442300Y-117890004D02*
X265142300Y-117890004D01*
X252442300Y-130590004D02*
X252442300Y-117890004D01*
X265142300Y-117890004D02*
X265142300Y-130590004D01*
X265142300Y-130590004D02*
X252442300Y-130590004D01*
X276232300Y-117890004D02*
X288932300Y-117890004D01*
X276232300Y-130590004D02*
X276232300Y-117890004D01*
X288932300Y-117890004D02*
X288932300Y-130590004D01*
X288932300Y-130590004D02*
X276232300Y-130590004D01*
X204817300Y-117860004D02*
X217517300Y-117890004D01*
X204817300Y-130560004D02*
X204817300Y-117860004D01*
X217517300Y-117910004D02*
X217517300Y-130560004D01*
X217517300Y-130560004D02*
X204817300Y-130560004D01*
X228637300Y-117880004D02*
X241337300Y-117880004D01*
X228637300Y-130580004D02*
X228637300Y-117880004D01*
X241337300Y-117880004D02*
X241337300Y-130580004D01*
X241337300Y-130580004D02*
X228637300Y-130580004D01*
X395320960Y-41689997D02*
X408020960Y-41689997D01*
X395320960Y-54389997D02*
X395320960Y-41689997D01*
X408020960Y-41689997D02*
X408020960Y-54389997D01*
X408020960Y-54389997D02*
X395320960Y-54389997D01*
X95283560Y-117890004D02*
X107983560Y-117890004D01*
X95283560Y-130590004D02*
X95283560Y-117890004D01*
X107983560Y-117890004D02*
X107983560Y-130590004D01*
X107983560Y-130590004D02*
X95283560Y-130590004D01*
X415307970Y-23001000D02*
X415307970Y-35701000D01*
X415307970Y-23001000D02*
X421307970Y-23001000D01*
X415307970Y-35701000D02*
X421307970Y-35701000D01*
X421307970Y-23001000D02*
X421307970Y-35701000D01*
X423895970Y-22640000D02*
X436595970Y-22640000D01*
X423895970Y-22640000D02*
X436595970Y-22640000D01*
X423895970Y-35340000D02*
X423895970Y-22640000D01*
X436595970Y-22640000D02*
X436595970Y-35340000D01*
X436595970Y-35340000D02*
X423895970Y-35340000D01*
X439183970Y-23001000D02*
X439183970Y-35701000D01*
X439183970Y-23001000D02*
X445183970Y-23001000D01*
X439183970Y-35701000D02*
X445183970Y-35701000D01*
X445183970Y-23001000D02*
X445183970Y-35701000D01*
X261970980Y-41689997D02*
X274670980Y-41689997D01*
X261970980Y-54389997D02*
X261970980Y-41689997D01*
X274670980Y-41689997D02*
X274670980Y-54389997D01*
X274670980Y-54389997D02*
X261970980Y-54389997D01*
X238158480Y-79789994D02*
X250858480Y-79789994D01*
X238158480Y-92489994D02*
X238158480Y-79789994D01*
X250858480Y-79789994D02*
X250858480Y-92489994D01*
X250858480Y-92489994D02*
X238158480Y-92489994D01*
X257208470Y-79789994D02*
X269908470Y-79789994D01*
X257208470Y-92489994D02*
X257208470Y-79789994D01*
X269908470Y-79789994D02*
X269908470Y-92489994D01*
X269908470Y-92489994D02*
X257208470Y-92489994D01*
X224808080Y-23001000D02*
X224808080Y-35701000D01*
X224808080Y-23001000D02*
X230808080Y-23001000D01*
X224808080Y-35701000D02*
X230808080Y-35701000D01*
X230808080Y-23001000D02*
X230808080Y-35701000D01*
X233396080Y-22640000D02*
X246096080Y-22640000D01*
X233396080Y-22640000D02*
X246096080Y-22640000D01*
X233396080Y-35340000D02*
X233396080Y-22640000D01*
X246096080Y-22640000D02*
X246096080Y-35340000D01*
X246096080Y-35340000D02*
X233396080Y-35340000D01*
X248684080Y-23001000D02*
X248684080Y-35701000D01*
X248684080Y-23001000D02*
X254684080Y-23001000D01*
X248684080Y-35701000D02*
X254684080Y-35701000D01*
X254684080Y-23001000D02*
X254684080Y-35701000D01*
X195296020Y-60740004D02*
X207996020Y-60740004D01*
X195296020Y-73440004D02*
X195296020Y-60740004D01*
X207996020Y-60740004D02*
X207996020Y-73440004D01*
X207996020Y-73440004D02*
X195296020Y-73440004D01*
X419133460Y-98839999D02*
X431833460Y-98839999D01*
X419133460Y-111539999D02*
X419133460Y-98839999D01*
X431833460Y-98839999D02*
X431833460Y-111539999D01*
X431833460Y-111539999D02*
X419133460Y-111539999D01*
X185771030Y-41689997D02*
X198471030Y-41689997D01*
X185771030Y-54389997D02*
X185771030Y-41689997D01*
X198471030Y-41689997D02*
X198471030Y-54389997D01*
X198471030Y-54389997D02*
X185771030Y-54389997D01*
X297689790Y-117890004D02*
X310389790Y-117890004D01*
X297689790Y-130590004D02*
X297689790Y-117890004D01*
X310389790Y-117890004D02*
X310389790Y-130590004D01*
X310389790Y-130590004D02*
X297689790Y-130590004D01*
X142908540Y-79789994D02*
X155608540Y-79789994D01*
X142908540Y-92489994D02*
X142908540Y-79789994D01*
X155608540Y-79789994D02*
X155608540Y-92489994D01*
X155608540Y-92489994D02*
X142908540Y-92489994D01*
X333408420Y-79789994D02*
X346108420Y-79789994D01*
X333408420Y-92489994D02*
X333408420Y-79789994D01*
X346108420Y-79789994D02*
X346108420Y-92489994D01*
X346108420Y-92489994D02*
X333408420Y-92489994D01*
X309595940Y-60740004D02*
X322295940Y-60740004D01*
X309595940Y-73440004D02*
X309595940Y-60740004D01*
X322295940Y-60740004D02*
X322295940Y-73440004D01*
X322295940Y-73440004D02*
X309595940Y-73440004D01*
X161958530Y-79789994D02*
X174658530Y-79789994D01*
X161958530Y-92489994D02*
X161958530Y-79789994D01*
X174658530Y-79789994D02*
X174658530Y-92489994D01*
X174658530Y-92489994D02*
X161958530Y-92489994D01*
X66708560Y-117890004D02*
X79408560Y-117890004D01*
X66708560Y-130590004D02*
X66708560Y-117890004D01*
X79408560Y-117890004D02*
X79408560Y-130590004D01*
X79408560Y-130590004D02*
X66708560Y-130590004D01*
X52421063Y-41689997D02*
X65121063Y-41689997D01*
X52421063Y-54389997D02*
X52421063Y-41689997D01*
X65121063Y-41689997D02*
X65121063Y-54389997D01*
X65121063Y-54389997D02*
X52421063Y-54389997D01*
X447708470Y-98839999D02*
X460408470Y-98839999D01*
X447708470Y-111539999D02*
X447708470Y-98839999D01*
X460408470Y-98839999D02*
X460408470Y-111539999D01*
X460408470Y-111539999D02*
X447708470Y-111539999D01*
X223871010Y-41689997D02*
X236571010Y-41689997D01*
X223871010Y-54389997D02*
X223871010Y-41689997D01*
X236571010Y-41689997D02*
X236571010Y-54389997D01*
X236571010Y-54389997D02*
X223871010Y-54389997D01*
X352458470Y-41689997D02*
X365158470Y-41689997D01*
X352458470Y-54389997D02*
X352458470Y-41689997D01*
X365158470Y-41689997D02*
X365158470Y-54389997D01*
X365158470Y-54389997D02*
X352458470Y-54389997D01*
X176246040Y-60740004D02*
X188946040Y-60740004D01*
X176246040Y-73440004D02*
X176246040Y-60740004D01*
X188946040Y-60740004D02*
X188946040Y-73440004D01*
X188946040Y-73440004D02*
X176246040Y-73440004D01*
X204821020Y-41689997D02*
X217521020Y-41689997D01*
X204821020Y-54389997D02*
X204821020Y-41689997D01*
X217521020Y-41689997D02*
X217521020Y-54389997D01*
X217521020Y-54389997D02*
X204821020Y-54389997D01*
X347695940Y-60740004D02*
X360395940Y-60740004D01*
X347695940Y-73440004D02*
X347695940Y-60740004D01*
X360395940Y-60740004D02*
X360395940Y-73440004D01*
X360395940Y-73440004D02*
X347695940Y-73440004D01*
X466758610Y-117890004D02*
X479458610Y-117890004D01*
X466758610Y-130590004D02*
X466758610Y-117890004D01*
X479458610Y-117890004D02*
X479458610Y-130590004D01*
X479458610Y-130590004D02*
X466758610Y-130590004D01*
X154814810Y-117890004D02*
X167514810Y-117890004D01*
X154814810Y-130590004D02*
X154814810Y-117890004D01*
X167514810Y-117890004D02*
X167514810Y-130590004D01*
X167514810Y-130590004D02*
X154814810Y-130590004D01*
X304833470Y-98839999D02*
X317533470Y-98839999D01*
X304833470Y-111539999D02*
X304833470Y-98839999D01*
X317533470Y-98839999D02*
X317533470Y-111539999D01*
X317533470Y-111539999D02*
X304833470Y-111539999D01*
X34308058Y-23001000D02*
X34308058Y-35701000D01*
X34308058Y-23001000D02*
X40308058Y-23001000D01*
X34308058Y-35701000D02*
X40308058Y-35701000D01*
X40308058Y-23001000D02*
X40308058Y-35701000D01*
X42896058Y-22640000D02*
X55596058Y-22640000D01*
X42896058Y-22640000D02*
X55596058Y-22640000D01*
X42896058Y-35340000D02*
X42896058Y-22640000D01*
X55596058Y-22640000D02*
X55596058Y-35340000D01*
X55596058Y-35340000D02*
X42896058Y-35340000D01*
X58184058Y-23001000D02*
X58184058Y-35701000D01*
X58184058Y-23001000D02*
X64184058Y-23001000D01*
X58184058Y-35701000D02*
X64184058Y-35701000D01*
X64184058Y-23001000D02*
X64184058Y-35701000D01*
X186708070Y-23001000D02*
X186708070Y-35701000D01*
X186708070Y-23001000D02*
X192708070Y-23001000D01*
X186708070Y-35701000D02*
X192708070Y-35701000D01*
X192708070Y-23001000D02*
X192708070Y-35701000D01*
X195296070Y-22640000D02*
X207996070Y-22640000D01*
X195296070Y-22640000D02*
X207996070Y-22640000D01*
X195296070Y-35340000D02*
X195296070Y-22640000D01*
X207996070Y-22640000D02*
X207996070Y-35340000D01*
X207996070Y-35340000D02*
X195296070Y-35340000D01*
X210584070Y-23001000D02*
X210584070Y-35701000D01*
X210584070Y-23001000D02*
X216584070Y-23001000D01*
X210584070Y-35701000D02*
X216584070Y-35701000D01*
X216584070Y-23001000D02*
X216584070Y-35701000D01*
D12*
X48426058Y-145188000D02*
X69426058Y-145188000D01*
X48426058Y-196188000D02*
X48426058Y-145188000D01*
X69426058Y-145188000D02*
X69426058Y-196188000D01*
X69426058Y-194888000D02*
X68126058Y-196188000D01*
X69426058Y-196188000D02*
X48426058Y-196188000D01*
D11*
X147671060Y-41689997D02*
X160371060Y-41689997D01*
X147671060Y-54389997D02*
X147671060Y-41689997D01*
X160371060Y-41689997D02*
X160371060Y-54389997D01*
X160371060Y-54389997D02*
X147671060Y-54389997D01*
X38133560Y-117890004D02*
X50833560Y-117890004D01*
X38133560Y-130590004D02*
X38133560Y-117890004D01*
X50833560Y-117890004D02*
X50833560Y-130590004D01*
X50833560Y-130590004D02*
X38133560Y-130590004D01*
M02*
