0
SECTION
2
HEADER
9
$ACADVER
1
AC1009
9
$INSUNITS
70
4
9
$EXTMIN
10
0.000000
20
0.000000
30
0.000000
9
$EXTMAX
10
469.000000
20
132.700000
30
0.000000
0
ENDSEC
0
SECTION
2
TABLES
0
TABLE
2
LAYER
0
LAYER
2
PCL_Layer
62
7
70
0
6
CONTINUOUS
0
ENDTAB
0
TABLE
2
VPORT
5
0
100
AcDbSymbolTable
70
3
0
VPORT
5
1
100
AcDbSymbolTableRecord
100
AcDbViewportTableRecord
2
*ACTIVE
70
0
10
0.0
20
0.0
11
1.0
21
1.0
12
234.500000
22
66.350000
13
0.0
23
0.0
14
10.0
24
10.0
15
10.0
25
10.0
16
0.0
26
0.0
36
1.0
17
0.0
27
0.0
37
0.0
40
159.240000
41
2.107632093933463
42
50.0
43
0.0
44
0.0
50
0.0
51
0.0
71
0
72
100
73
1
74
3
75
0
76
0
77
0
78
0
0
ENDTAB
0
ENDSEC
0
SECTION
2
BLOCKS
0
ENDSEC
0
SECTION
2
ENTITIES
0
LINE
100
AcDbEntity
100
AcDbLine
8
PCL_Layer
5
1000
10
274.775000
20
99.875000
30
0.000000
11
288.775000
21
99.875000
31
0.000000
62
7
0
LINE
100
AcDbEntity
100
AcDbLine
8
PCL_Layer
5
1001
10
274.775000
20
85.875000
30
0.000000
11
274.775000
21
99.875000
31
0.000000
62
7
0
LINE
100
AcDbEntity
100
AcDbLine
8
PCL_Layer
5
1002
10
288.775000
20
99.875000
30
0.000000
11
288.775000
21
85.875000
31
0.000000
62
7
0
LINE
100
AcDbEntity
100
AcDbLine
8
PCL_Layer
5
1003
10
288.775000
20
85.875000
30
0.000000
11
274.775000
21
85.875000
31
0.000000
62
7
0
LINE
100
AcDbEntity
100
AcDbLine
8
PCL_Layer
5
1004
10
446.225000
20
99.875000
30
0.000000
11
460.224900
21
99.875000
31
0.000000
62
7
0
LINE
100
AcDbEntity
100
AcDbLine
8
PCL_Layer
5
1005
10
446.225000
20
85.875000
30
0.000000
11
446.225000
21
99.875000
31
0.000000
62
7
0
LINE
100
AcDbEntity
100
AcDbLine
8
PCL_Layer
5
1006
10
460.224900
20
99.875000
30
0.000000
11
460.224900
21
85.875000
31
0.000000
62
7
0
LINE
100
AcDbEntity
100
AcDbLine
8
PCL_Layer
5
1007
10
460.224900
20
85.875000
30
0.000000
11
446.225000
21
85.875000
31
0.000000
62
7
0
LINE
100
AcDbEntity
100
AcDbLine
8
PCL_Layer
5
1008
10
126.950000
20
42.850000
30
0.000000
11
140.950000
21
42.850000
31
0.000000
62
7
0
LINE
100
AcDbEntity
100
AcDbLine
8
PCL_Layer
5
1009
10
126.950000
20
28.850000
30
0.000000
11
126.950000
21
42.850000
31
0.000000
62
7
0
LINE
100
AcDbEntity
100
AcDbLine
8
PCL_Layer
5
100A
10
140.950000
20
42.850000
30
0.000000
11
140.950000
21
28.850000
31
0.000000
62
7
0
LINE
100
AcDbEntity
100
AcDbLine
8
PCL_Layer
5
100B
10
140.950000
20
28.850000
30
0.000000
11
126.950000
21
28.850000
31
0.000000
62
7
0
LINE
100
AcDbEntity
100
AcDbLine
8
PCL_Layer
5
100C
10
193.725000
20
61.875000
30
0.000000
11
207.725000
21
61.875000
31
0.000000
62
7
0
LINE
100
AcDbEntity
100
AcDbLine
8
PCL_Layer
5
100D
10
193.725000
20
47.875000
30
0.000000
11
193.725000
21
61.875000
31
0.000000
62
7
0
LINE
100
AcDbEntity
100
AcDbLine
8
PCL_Layer
5
100E
10
207.725000
20
61.875000
30
0.000000
11
207.725000
21
47.875000
31
0.000000
62
7
0
LINE
100
AcDbEntity
100
AcDbLine
8
PCL_Layer
5
100F
10
207.725000
20
47.875000
30
0.000000
11
193.725000
21
47.875000
31
0.000000
62
7
0
LINE
100
AcDbEntity
100
AcDbLine
8
PCL_Layer
5
1010
10
260.300000
20
23.825000
30
0.000000
11
274.300000
21
23.825000
31
0.000000
62
7
0
LINE
100
AcDbEntity
100
AcDbLine
8
PCL_Layer
5
1011
10
260.300000
20
9.825000
30
0.000000
11
260.300000
21
23.825000
31
0.000000
62
7
0
LINE
100
AcDbEntity
100
AcDbLine
8
PCL_Layer
5
1012
10
274.300000
20
23.825000
30
0.000000
11
274.300000
21
9.825000
31
0.000000
62
7
0
LINE
100
AcDbEntity
100
AcDbLine
8
PCL_Layer
5
1013
10
274.300000
20
9.825000
30
0.000000
11
260.300000
21
9.825000
31
0.000000
62
7
0
LINE
100
AcDbEntity
100
AcDbLine
8
PCL_Layer
5
1014
10
350.975000
20
99.875000
30
0.000000
11
364.975000
21
99.875000
31
0.000000
62
7
0
LINE
100
AcDbEntity
100
AcDbLine
8
PCL_Layer
5
1015
10
350.975000
20
85.875000
30
0.000000
11
350.975000
21
99.875000
31
0.000000
62
7
0
LINE
100
AcDbEntity
100
AcDbLine
8
PCL_Layer
5
1016
10
364.975000
20
99.875000
30
0.000000
11
364.975000
21
85.875000
31
0.000000
62
7
0
LINE
100
AcDbEntity
100
AcDbLine
8
PCL_Layer
5
1017
10
364.975000
20
85.875000
30
0.000000
11
350.975000
21
85.875000
31
0.000000
62
7
0
LINE
100
AcDbEntity
100
AcDbLine
8
PCL_Layer
5
1018
10
179.525000
20
99.875000
30
0.000000
11
193.525000
21
99.875000
31
0.000000
62
7
0
LINE
100
AcDbEntity
100
AcDbLine
8
PCL_Layer
5
1019
10
179.525000
20
85.875000
30
0.000000
11
179.525000
21
99.875000
31
0.000000
62
7
0
LINE
100
AcDbEntity
100
AcDbLine
8
PCL_Layer
5
101A
10
193.525000
20
99.875000
30
0.000000
11
193.525000
21
85.875000
31
0.000000
62
7
0
LINE
100
AcDbEntity
100
AcDbLine
8
PCL_Layer
5
101B
10
193.525000
20
85.875000
30
0.000000
11
179.525000
21
85.875000
31
0.000000
62
7
0
LINE
100
AcDbEntity
100
AcDbLine
8
PCL_Layer
5
101C
10
265.250000
20
80.875000
30
0.000000
11
279.250000
21
80.875000
31
0.000000
62
7
0
LINE
100
AcDbEntity
100
AcDbLine
8
PCL_Layer
5
101D
10
265.250000
20
66.875000
30
0.000000
11
265.250000
21
80.875000
31
0.000000
62
7
0
LINE
100
AcDbEntity
100
AcDbLine
8
PCL_Layer
5
101E
10
279.250000
20
80.875000
30
0.000000
11
279.250000
21
66.875000
31
0.000000
62
7
0
LINE
100
AcDbEntity
100
AcDbLine
8
PCL_Layer
5
101F
10
279.250000
20
66.875000
30
0.000000
11
265.250000
21
66.875000
31
0.000000
62
7
0
LINE
100
AcDbEntity
100
AcDbLine
8
PCL_Layer
5
1020
10
250.875000
20
61.875000
30
0.000000
11
264.875000
21
61.875000
31
0.000000
62
7
0
LINE
100
AcDbEntity
100
AcDbLine
8
PCL_Layer
5
1021
10
250.875000
20
47.875000
30
0.000000
11
250.875000
21
61.875000
31
0.000000
62
7
0
LINE
100
AcDbEntity
100
AcDbLine
8
PCL_Layer
5
1022
10
264.875000
20
61.875000
30
0.000000
11
264.875000
21
47.875000
31
0.000000
62
7
0
LINE
100
AcDbEntity
100
AcDbLine
8
PCL_Layer
5
1023
10
264.875000
20
47.875000
30
0.000000
11
250.875000
21
47.875000
31
0.000000
62
7
0
LINE
100
AcDbEntity
100
AcDbLine
8
PCL_Layer
5
1024
10
217.625000
20
99.875000
30
0.000000
11
231.625000
21
99.875000
31
0.000000
62
7
0
LINE
100
AcDbEntity
100
AcDbLine
8
PCL_Layer
5
1025
10
217.625000
20
85.875000
30
0.000000
11
217.625000
21
99.875000
31
0.000000
62
7
0
LINE
100
AcDbEntity
100
AcDbLine
8
PCL_Layer
5
1026
10
231.625000
20
99.875000
30
0.000000
11
231.625000
21
85.875000
31
0.000000
62
7
0
LINE
100
AcDbEntity
100
AcDbLine
8
PCL_Layer
5
1027
10
231.625000
20
85.875000
30
0.000000
11
217.625000
21
85.875000
31
0.000000
62
7
0
LINE
100
AcDbEntity
100
AcDbLine
8
PCL_Layer
5
1028
10
231.825000
20
61.875000
30
0.000000
11
245.825000
21
61.875000
31
0.000000
62
7
0
LINE
100
AcDbEntity
100
AcDbLine
8
PCL_Layer
5
1029
10
231.825000
20
47.875000
30
0.000000
11
231.825000
21
61.875000
31
0.000000
62
7
0
LINE
100
AcDbEntity
100
AcDbLine
8
PCL_Layer
5
102A
10
245.825000
20
61.875000
30
0.000000
11
245.825000
21
47.875000
31
0.000000
62
7
0
LINE
100
AcDbEntity
100
AcDbLine
8
PCL_Layer
5
102B
10
245.825000
20
47.875000
30
0.000000
11
231.825000
21
47.875000
31
0.000000
62
7
0
LINE
100
AcDbEntity
100
AcDbLine
8
PCL_Layer
5
102C
10
367.575000
20
61.900000
30
0.000000
11
381.575000
21
61.900000
31
0.000000
62
7
0
LINE
100
AcDbEntity
100
AcDbLine
8
PCL_Layer
5
102D
10
367.575000
20
47.900000
30
0.000000
11
367.575000
21
61.900000
31
0.000000
62
7
0
LINE
100
AcDbEntity
100
AcDbLine
8
PCL_Layer
5
102E
10
381.575000
20
61.900000
30
0.000000
11
381.575000
21
47.900000
31
0.000000
62
7
0
LINE
100
AcDbEntity
100
AcDbLine
8
PCL_Layer
5
102F
10
381.575000
20
47.900000
30
0.000000
11
367.575000
21
47.900000
31
0.000000
62
7
0
LINE
100
AcDbEntity
100
AcDbLine
8
PCL_Layer
5
1030
10
327.175000
20
99.875000
30
0.000000
11
341.175000
21
99.875000
31
0.000000
62
7
0
LINE
100
AcDbEntity
100
AcDbLine
8
PCL_Layer
5
1031
10
327.175000
20
85.875000
30
0.000000
11
327.175000
21
99.875000
31
0.000000
62
7
0
LINE
100
AcDbEntity
100
AcDbLine
8
PCL_Layer
5
1032
10
341.175000
20
99.875000
30
0.000000
11
341.175000
21
85.875000
31
0.000000
62
7
0
LINE
100
AcDbEntity
100
AcDbLine
8
PCL_Layer
5
1033
10
341.175000
20
85.875000
30
0.000000
11
327.175000
21
85.875000
31
0.000000
62
7
0
LINE
100
AcDbEntity
100
AcDbLine
8
PCL_Layer
5
1034
10
91.350000
20
61.875000
30
0.000000
11
105.350000
21
61.875000
31
0.000000
62
7
0
LINE
100
AcDbEntity
100
AcDbLine
8
PCL_Layer
5
1035
10
91.350000
20
47.875000
30
0.000000
11
91.350000
21
61.875000
31
0.000000
62
7
0
LINE
100
AcDbEntity
100
AcDbLine
8
PCL_Layer
5
1036
10
105.350000
20
61.875000
30
0.000000
11
105.350000
21
47.875000
31
0.000000
62
7
0
LINE
100
AcDbEntity
100
AcDbLine
8
PCL_Layer
5
1037
10
105.350000
20
47.875000
30
0.000000
11
91.350000
21
47.875000
31
0.000000
62
7
0
LINE
100
AcDbEntity
100
AcDbLine
8
PCL_Layer
5
1038
10
284.300000
20
80.875000
30
0.000000
11
298.300000
21
80.875000
31
0.000000
62
7
0
LINE
100
AcDbEntity
100
AcDbLine
8
PCL_Layer
5
1039
10
284.300000
20
66.875000
30
0.000000
11
284.300000
21
80.875000
31
0.000000
62
7
0
LINE
100
AcDbEntity
100
AcDbLine
8
PCL_Layer
5
103A
10
298.300000
20
80.875000
30
0.000000
11
298.300000
21
66.875000
31
0.000000
62
7
0
LINE
100
AcDbEntity
100
AcDbLine
8
PCL_Layer
5
103B
10
298.300000
20
66.875000
30
0.000000
11
284.300000
21
66.875000
31
0.000000
62
7
0
LINE
100
AcDbEntity
100
AcDbLine
8
PCL_Layer
5
103C
10
427.175000
20
80.875000
30
0.000000
11
441.175000
21
80.875000
31
0.000000
62
7
0
LINE
100
AcDbEntity
100
AcDbLine
8
PCL_Layer
5
103D
10
427.175000
20
66.875000
30
0.000000
11
427.175000
21
80.875000
31
0.000000
62
7
0
LINE
100
AcDbEntity
100
AcDbLine
8
PCL_Layer
5
103E
10
441.175000
20
80.875000
30
0.000000
11
441.175000
21
66.875000
31
0.000000
62
7
0
LINE
100
AcDbEntity
100
AcDbLine
8
PCL_Layer
5
103F
10
441.175000
20
66.875000
30
0.000000
11
427.175000
21
66.875000
31
0.000000
62
7
0
LINE
100
AcDbEntity
100
AcDbLine
8
PCL_Layer
5
1040
10
255.725000
20
99.875000
30
0.000000
11
269.725000
21
99.875000
31
0.000000
62
7
0
LINE
100
AcDbEntity
100
AcDbLine
8
PCL_Layer
5
1041
10
255.725000
20
85.875000
30
0.000000
11
255.725000
21
99.875000
31
0.000000
62
7
0
LINE
100
AcDbEntity
100
AcDbLine
8
PCL_Layer
5
1042
10
269.725000
20
99.875000
30
0.000000
11
269.725000
21
85.875000
31
0.000000
62
7
0
LINE
100
AcDbEntity
100
AcDbLine
8
PCL_Layer
5
1043
10
269.725000
20
85.875000
30
0.000000
11
255.725000
21
85.875000
31
0.000000
62
7
0
LINE
100
AcDbEntity
100
AcDbLine
8
PCL_Layer
5
1044
10
55.700000
20
80.900000
30
0.000000
11
69.700000
21
80.900000
31
0.000000
62
7
0
LINE
100
AcDbEntity
100
AcDbLine
8
PCL_Layer
5
1045
10
55.700000
20
66.900000
30
0.000000
11
55.700000
21
80.900000
31
0.000000
62
7
0
LINE
100
AcDbEntity
100
AcDbLine
8
PCL_Layer
5
1046
10
69.700000
20
80.900000
30
0.000000
11
69.700000
21
66.900000
31
0.000000
62
7
0
LINE
100
AcDbEntity
100
AcDbLine
8
PCL_Layer
5
1047
10
69.700000
20
66.900000
30
0.000000
11
55.700000
21
66.900000
31
0.000000
62
7
0
LINE
100
AcDbEntity
100
AcDbLine
8
PCL_Layer
5
1048
10
398.500000
20
118.875000
30
0.000000
11
412.500000
21
118.875000
31
0.000000
62
7
0
LINE
100
AcDbEntity
100
AcDbLine
8
PCL_Layer
5
1049
10
398.500000
20
104.875000
30
0.000000
11
398.500000
21
118.875000
31
0.000000
62
7
0
LINE
100
AcDbEntity
100
AcDbLine
8
PCL_Layer
5
104A
10
412.500000
20
118.875000
30
0.000000
11
412.500000
21
104.875000
31
0.000000
62
7
0
LINE
100
AcDbEntity
100
AcDbLine
8
PCL_Layer
5
104B
10
412.500000
20
104.875000
30
0.000000
11
398.500000
21
104.875000
31
0.000000
62
7
0
LINE
100
AcDbEntity
100
AcDbLine
8
PCL_Layer
5
104C
10
284.200000
20
118.875000
30
0.000000
11
298.200000
21
118.875000
31
0.000000
62
7
0
LINE
100
AcDbEntity
100
AcDbLine
8
PCL_Layer
5
104D
10
284.200000
20
104.875000
30
0.000000
11
284.200000
21
118.875000
31
0.000000
62
7
0
LINE
100
AcDbEntity
100
AcDbLine
8
PCL_Layer
5
104E
10
298.200000
20
118.875000
30
0.000000
11
298.200000
21
104.875000
31
0.000000
62
7
0
LINE
100
AcDbEntity
100
AcDbLine
8
PCL_Layer
5
104F
10
298.200000
20
104.875000
30
0.000000
11
284.200000
21
104.875000
31
0.000000
62
7
0
LINE
100
AcDbEntity
100
AcDbLine
8
PCL_Layer
5
1050
10
8.075000
20
80.875000
30
0.000000
11
22.075000
21
80.875000
31
0.000000
62
7
0
LINE
100
AcDbEntity
100
AcDbLine
8
PCL_Layer
5
1051
10
8.075000
20
66.875000
30
0.000000
11
8.075000
21
80.875000
31
0.000000
62
7
0
LINE
100
AcDbEntity
100
AcDbLine
8
PCL_Layer
5
1052
10
22.075000
20
80.875000
30
0.000000
11
22.075000
21
66.875000
31
0.000000
62
7
0
LINE
100
AcDbEntity
100
AcDbLine
8
PCL_Layer
5
1053
10
22.075000
20
66.875000
30
0.000000
11
8.075000
21
66.875000
31
0.000000
62
7
0
LINE
100
AcDbEntity
100
AcDbLine
8
PCL_Layer
5
1054
10
203.150000
20
42.850000
30
0.000000
11
217.150000
21
42.850000
31
0.000000
62
7
0
LINE
100
AcDbEntity
100
AcDbLine
8
PCL_Layer
5
1055
10
203.150000
20
28.850000
30
0.000000
11
203.150000
21
42.850000
31
0.000000
62
7
0
LINE
100
AcDbEntity
100
AcDbLine
8
PCL_Layer
5
1056
10
217.150000
20
42.850000
30
0.000000
11
217.150000
21
28.850000
31
0.000000
62
7
0
LINE
100
AcDbEntity
100
AcDbLine
8
PCL_Layer
5
1057
10
217.150000
20
28.850000
30
0.000000
11
203.150000
21
28.850000
31
0.000000
62
7
0
LINE
100
AcDbEntity
100
AcDbLine
8
PCL_Layer
5
1058
10
446.025000
20
42.850000
30
0.000000
11
460.025000
21
42.850000
31
0.000000
62
7
0
LINE
100
AcDbEntity
100
AcDbLine
8
PCL_Layer
5
1059
10
446.025000
20
28.850000
30
0.000000
11
446.025000
21
42.850000
31
0.000000
62
7
0
LINE
100
AcDbEntity
100
AcDbLine
8
PCL_Layer
5
105A
10
460.025000
20
42.850000
30
0.000000
11
460.025000
21
28.850000
31
0.000000
62
7
0
LINE
100
AcDbEntity
100
AcDbLine
8
PCL_Layer
5
105B
10
460.025000
20
28.850000
30
0.000000
11
446.025000
21
28.850000
31
0.000000
62
7
0
LINE
100
AcDbEntity
100
AcDbLine
8
PCL_Layer
5
105C
10
55.625000
20
61.900000
30
0.000000
11
69.625000
21
61.900000
31
0.000000
62
7
0
LINE
100
AcDbEntity
100
AcDbLine
8
PCL_Layer
5
105D
10
55.625000
20
47.900000
30
0.000000
11
55.625000
21
61.900000
31
0.000000
62
7
0
LINE
100
AcDbEntity
100
AcDbLine
8
PCL_Layer
5
105E
10
69.625000
20
61.900000
30
0.000000
11
69.625000
21
47.900000
31
0.000000
62
7
0
LINE
100
AcDbEntity
100
AcDbLine
8
PCL_Layer
5
105F
10
69.625000
20
47.900000
30
0.000000
11
55.625000
21
47.900000
31
0.000000
62
7
0
LINE
100
AcDbEntity
100
AcDbLine
8
PCL_Layer
5
1060
10
298.600000
20
99.875000
30
0.000000
11
312.600000
21
99.875000
31
0.000000
62
7
0
LINE
100
AcDbEntity
100
AcDbLine
8
PCL_Layer
5
1061
10
298.600000
20
85.875000
30
0.000000
11
298.600000
21
99.875000
31
0.000000
62
7
0
LINE
100
AcDbEntity
100
AcDbLine
8
PCL_Layer
5
1062
10
312.600000
20
99.875000
30
0.000000
11
312.600000
21
85.875000
31
0.000000
62
7
0
LINE
100
AcDbEntity
100
AcDbLine
8
PCL_Layer
5
1063
10
312.600000
20
85.875000
30
0.000000
11
298.600000
21
85.875000
31
0.000000
62
7
0
LINE
100
AcDbEntity
100
AcDbLine
8
PCL_Layer
5
1064
10
303.350000
20
80.875000
30
0.000000
11
317.350000
21
80.875000
31
0.000000
62
7
0
LINE
100
AcDbEntity
100
AcDbLine
8
PCL_Layer
5
1065
10
303.350000
20
66.875000
30
0.000000
11
303.350000
21
80.875000
31
0.000000
62
7
0
LINE
100
AcDbEntity
100
AcDbLine
8
PCL_Layer
5
1066
10
317.350000
20
80.875000
30
0.000000
11
317.350000
21
66.875000
31
0.000000
62
7
0
LINE
100
AcDbEntity
100
AcDbLine
8
PCL_Layer
5
1067
10
317.350000
20
66.875000
30
0.000000
11
303.350000
21
66.875000
31
0.000000
62
7
0
LINE
100
AcDbEntity
100
AcDbLine
8
PCL_Layer
5
1068
10
300.775000
20
23.825000
30
0.000000
11
314.775000
21
23.825000
31
0.000000
62
7
0
LINE
100
AcDbEntity
100
AcDbLine
8
PCL_Layer
5
1069
10
300.775000
20
9.825000
30
0.000000
11
300.775000
21
23.825000
31
0.000000
62
7
0
LINE
100
AcDbEntity
100
AcDbLine
8
PCL_Layer
5
106A
10
314.775000
20
23.825000
30
0.000000
11
314.775000
21
9.825000
31
0.000000
62
7
0
LINE
100
AcDbEntity
100
AcDbLine
8
PCL_Layer
5
106B
10
314.775000
20
9.825000
30
0.000000
11
300.775000
21
9.825000
31
0.000000
62
7
0
LINE
100
AcDbEntity
100
AcDbLine
8
PCL_Layer
5
106C
10
184.100000
20
42.850000
30
0.000000
11
198.100000
21
42.850000
31
0.000000
62
7
0
LINE
100
AcDbEntity
100
AcDbLine
8
PCL_Layer
5
106D
10
184.100000
20
28.850000
30
0.000000
11
184.100000
21
42.850000
31
0.000000
62
7
0
LINE
100
AcDbEntity
100
AcDbLine
8
PCL_Layer
5
106E
10
198.100000
20
42.850000
30
0.000000
11
198.100000
21
28.850000
31
0.000000
62
7
0
LINE
100
AcDbEntity
100
AcDbLine
8
PCL_Layer
5
106F
10
198.100000
20
28.850000
30
0.000000
11
184.100000
21
28.850000
31
0.000000
62
7
0
LINE
100
AcDbEntity
100
AcDbLine
8
PCL_Layer
5
1070
10
27.125000
20
80.875000
30
0.000000
11
41.125000
21
80.875000
31
0.000000
62
7
0
LINE
100
AcDbEntity
100
AcDbLine
8
PCL_Layer
5
1071
10
27.125000
20
66.875000
30
0.000000
11
27.125000
21
80.875000
31
0.000000
62
7
0
LINE
100
AcDbEntity
100
AcDbLine
8
PCL_Layer
5
1072
10
41.125000
20
80.875000
30
0.000000
11
41.125000
21
66.875000
31
0.000000
62
7
0
LINE
100
AcDbEntity
100
AcDbLine
8
PCL_Layer
5
1073
10
41.125000
20
66.875000
30
0.000000
11
27.125000
21
66.875000
31
0.000000
62
7
0
LINE
100
AcDbEntity
100
AcDbLine
8
PCL_Layer
5
1074
10
96.000000
20
42.850000
30
0.000000
11
110.000000
21
42.850000
31
0.000000
62
7
0
LINE
100
AcDbEntity
100
AcDbLine
8
PCL_Layer
5
1075
10
96.000000
20
28.850000
30
0.000000
11
96.000000
21
42.850000
31
0.000000
62
7
0
LINE
100
AcDbEntity
100
AcDbLine
8
PCL_Layer
5
1076
10
110.000000
20
42.850000
30
0.000000
11
110.000000
21
28.850000
31
0.000000
62
7
0
LINE
100
AcDbEntity
100
AcDbLine
8
PCL_Layer
5
1077
10
110.000000
20
28.850000
30
0.000000
11
96.000000
21
28.850000
31
0.000000
62
7
0
LINE
100
AcDbEntity
100
AcDbLine
8
PCL_Layer
5
1078
10
55.700000
20
99.900000
30
0.000000
11
69.700000
21
99.900000
31
0.000000
62
7
0
LINE
100
AcDbEntity
100
AcDbLine
8
PCL_Layer
5
1079
10
55.700000
20
85.900000
30
0.000000
11
55.700000
21
99.900000
31
0.000000
62
7
0
LINE
100
AcDbEntity
100
AcDbLine
8
PCL_Layer
5
107A
10
69.700000
20
99.900000
30
0.000000
11
69.700000
21
85.900000
31
0.000000
62
7
0
LINE
100
AcDbEntity
100
AcDbLine
8
PCL_Layer
5
107B
10
69.700000
20
85.900000
30
0.000000
11
55.700000
21
85.900000
31
0.000000
62
7
0
LINE
100
AcDbEntity
100
AcDbLine
8
PCL_Layer
5
107C
10
412.700000
20
23.800000
30
0.000000
11
426.700000
21
23.800000
31
0.000000
62
7
0
LINE
100
AcDbEntity
100
AcDbLine
8
PCL_Layer
5
107D
10
412.700000
20
9.800000
30
0.000000
11
412.700000
21
23.800000
31
0.000000
62
7
0
LINE
100
AcDbEntity
100
AcDbLine
8
PCL_Layer
5
107E
10
426.700000
20
23.800000
30
0.000000
11
426.700000
21
9.800000
31
0.000000
62
7
0
LINE
100
AcDbEntity
100
AcDbLine
8
PCL_Layer
5
107F
10
426.700000
20
9.800000
30
0.000000
11
412.700000
21
9.800000
31
0.000000
62
7
0
LINE
100
AcDbEntity
100
AcDbLine
8
PCL_Layer
5
1080
10
246.200000
20
80.875000
30
0.000000
11
260.200000
21
80.875000
31
0.000000
62
7
0
LINE
100
AcDbEntity
100
AcDbLine
8
PCL_Layer
5
1081
10
246.200000
20
66.875000
30
0.000000
11
246.200000
21
80.875000
31
0.000000
62
7
0
LINE
100
AcDbEntity
100
AcDbLine
8
PCL_Layer
5
1082
10
260.200000
20
80.875000
30
0.000000
11
260.200000
21
66.875000
31
0.000000
62
7
0
LINE
100
AcDbEntity
100
AcDbLine
8
PCL_Layer
5
1083
10
260.200000
20
66.875000
30
0.000000
11
246.200000
21
66.875000
31
0.000000
62
7
0
LINE
100
AcDbEntity
100
AcDbLine
8
PCL_Layer
5
1084
10
31.700000
20
42.850000
30
0.000000
11
45.700000
21
42.850000
31
0.000000
62
7
0
LINE
100
AcDbEntity
100
AcDbLine
8
PCL_Layer
5
1085
10
31.700000
20
28.850000
30
0.000000
11
31.700000
21
42.850000
31
0.000000
62
7
0
LINE
100
AcDbEntity
100
AcDbLine
8
PCL_Layer
5
1086
10
45.700000
20
42.850000
30
0.000000
11
45.700000
21
28.850000
31
0.000000
62
7
0
LINE
100
AcDbEntity
100
AcDbLine
8
PCL_Layer
5
1087
10
45.700000
20
28.850000
30
0.000000
11
31.700000
21
28.850000
31
0.000000
62
7
0
LINE
100
AcDbEntity
100
AcDbLine
8
PCL_Layer
5
1088
10
17.525000
20
61.900000
30
0.000000
11
31.525000
21
61.900000
31
0.000000
62
7
0
LINE
100
AcDbEntity
100
AcDbLine
8
PCL_Layer
5
1089
10
17.525000
20
47.900000
30
0.000000
11
17.525000
21
61.900000
31
0.000000
62
7
0
LINE
100
AcDbEntity
100
AcDbLine
8
PCL_Layer
5
108A
10
31.525000
20
61.900000
30
0.000000
11
31.525000
21
47.900000
31
0.000000
62
7
0
LINE
100
AcDbEntity
100
AcDbLine
8
PCL_Layer
5
108B
10
31.525000
20
47.900000
30
0.000000
11
17.525000
21
47.900000
31
0.000000
62
7
0
LINE
100
AcDbEntity
100
AcDbLine
8
PCL_Layer
5
108C
10
170.000000
20
80.875000
30
0.000000
11
184.000000
21
80.875000
31
0.000000
62
7
0
LINE
100
AcDbEntity
100
AcDbLine
8
PCL_Layer
5
108D
10
170.000000
20
66.875000
30
0.000000
11
170.000000
21
80.875000
31
0.000000
62
7
0
LINE
100
AcDbEntity
100
AcDbLine
8
PCL_Layer
5
108E
10
184.000000
20
80.875000
30
0.000000
11
184.000000
21
66.875000
31
0.000000
62
7
0
LINE
100
AcDbEntity
100
AcDbLine
8
PCL_Layer
5
108F
10
184.000000
20
66.875000
30
0.000000
11
170.000000
21
66.875000
31
0.000000
62
7
0
LINE
100
AcDbEntity
100
AcDbLine
8
PCL_Layer
5
1090
10
341.450000
20
80.875000
30
0.000000
11
355.450000
21
80.875000
31
0.000000
62
7
0
LINE
100
AcDbEntity
100
AcDbLine
8
PCL_Layer
5
1091
10
341.450000
20
66.875000
30
0.000000
11
341.450000
21
80.875000
31
0.000000
62
7
0
LINE
100
AcDbEntity
100
AcDbLine
8
PCL_Layer
5
1092
10
355.450000
20
80.875000
30
0.000000
11
355.450000
21
66.875000
31
0.000000
62
7
0
LINE
100
AcDbEntity
100
AcDbLine
8
PCL_Layer
5
1093
10
355.450000
20
66.875000
30
0.000000
11
341.450000
21
66.875000
31
0.000000
62
7
0
LINE
100
AcDbEntity
100
AcDbLine
8
PCL_Layer
5
1094
10
398.600000
20
80.900000
30
0.000000
11
412.600000
21
80.900000
31
0.000000
62
7
0
LINE
100
AcDbEntity
100
AcDbLine
8
PCL_Layer
5
1095
10
398.600000
20
66.900000
30
0.000000
11
398.600000
21
80.900000
31
0.000000
62
7
0
LINE
100
AcDbEntity
100
AcDbLine
8
PCL_Layer
5
1096
10
412.600000
20
80.900000
30
0.000000
11
412.600000
21
66.900000
31
0.000000
62
7
0
LINE
100
AcDbEntity
100
AcDbLine
8
PCL_Layer
5
1097
10
412.600000
20
66.900000
30
0.000000
11
398.600000
21
66.900000
31
0.000000
62
7
0
LINE
100
AcDbEntity
100
AcDbLine
8
PCL_Layer
5
1098
10
455.275000
20
9.800000
30
0.000000
11
441.275000
21
9.800000
31
0.000000
62
7
0
LINE
100
AcDbEntity
100
AcDbLine
8
PCL_Layer
5
1099
10
455.275000
20
23.800000
30
0.000000
11
455.275000
21
9.800000
31
0.000000
62
7
0
LINE
100
AcDbEntity
100
AcDbLine
8
PCL_Layer
5
109A
10
441.275000
20
9.800000
30
0.000000
11
441.275000
21
23.800000
31
0.000000
62
7
0
LINE
100
AcDbEntity
100
AcDbLine
8
PCL_Layer
5
109B
10
441.275000
20
23.800000
30
0.000000
11
455.275000
21
23.800000
31
0.000000
62
7
0
LINE
100
AcDbEntity
100
AcDbLine
8
PCL_Layer
5
109C
10
227.150000
20
80.875000
30
0.000000
11
241.150000
21
80.875000
31
0.000000
62
7
0
LINE
100
AcDbEntity
100
AcDbLine
8
PCL_Layer
5
109D
10
227.150000
20
66.875000
30
0.000000
11
227.150000
21
80.875000
31
0.000000
62
7
0
LINE
100
AcDbEntity
100
AcDbLine
8
PCL_Layer
5
109E
10
241.150000
20
80.875000
30
0.000000
11
241.150000
21
66.875000
31
0.000000
62
7
0
LINE
100
AcDbEntity
100
AcDbLine
8
PCL_Layer
5
109F
10
241.150000
20
66.875000
30
0.000000
11
227.150000
21
66.875000
31
0.000000
62
7
0
LINE
100
AcDbEntity
100
AcDbLine
8
PCL_Layer
5
10A0
10
150.950000
20
80.875000
30
0.000000
11
164.950000
21
80.875000
31
0.000000
62
7
0
LINE
100
AcDbEntity
100
AcDbLine
8
PCL_Layer
5
10A1
10
150.950000
20
66.875000
30
0.000000
11
150.950000
21
80.875000
31
0.000000
62
7
0
LINE
100
AcDbEntity
100
AcDbLine
8
PCL_Layer
5
10A2
10
164.950000
20
80.875000
30
0.000000
11
164.950000
21
66.875000
31
0.000000
62
7
0
LINE
100
AcDbEntity
100
AcDbLine
8
PCL_Layer
5
10A3
10
164.950000
20
66.875000
30
0.000000
11
150.950000
21
66.875000
31
0.000000
62
7
0
LINE
100
AcDbEntity
100
AcDbLine
8
PCL_Layer
5
10A4
10
246.100000
20
118.875000
30
0.000000
11
260.100000
21
118.875000
31
0.000000
62
7
0
LINE
100
AcDbEntity
100
AcDbLine
8
PCL_Layer
5
10A5
10
246.100000
20
104.875000
30
0.000000
11
246.100000
21
118.875000
31
0.000000
62
7
0
LINE
100
AcDbEntity
100
AcDbLine
8
PCL_Layer
5
10A6
10
260.100000
20
118.875000
30
0.000000
11
260.100000
21
104.875000
31
0.000000
62
7
0
LINE
100
AcDbEntity
100
AcDbLine
8
PCL_Layer
5
10A7
10
260.100000
20
104.875000
30
0.000000
11
246.100000
21
104.875000
31
0.000000
62
7
0
LINE
100
AcDbEntity
100
AcDbLine
8
PCL_Layer
5
10A8
10
93.700000
20
118.875000
30
0.000000
11
107.700000
21
118.875000
31
0.000000
62
7
0
LINE
100
AcDbEntity
100
AcDbLine
8
PCL_Layer
5
10A9
10
93.700000
20
104.875000
30
0.000000
11
93.700000
21
118.875000
31
0.000000
62
7
0
LINE
100
AcDbEntity
100
AcDbLine
8
PCL_Layer
5
10AA
10
107.700000
20
118.875000
30
0.000000
11
107.700000
21
104.875000
31
0.000000
62
7
0
LINE
100
AcDbEntity
100
AcDbLine
8
PCL_Layer
5
10AB
10
107.700000
20
104.875000
30
0.000000
11
93.700000
21
104.875000
31
0.000000
62
7
0
LINE
100
AcDbEntity
100
AcDbLine
8
PCL_Layer
5
10AC
10
122.375000
20
99.875000
30
0.000000
11
136.375000
21
99.875000
31
0.000000
62
7
0
LINE
100
AcDbEntity
100
AcDbLine
8
PCL_Layer
5
10AD
10
122.375000
20
85.875000
30
0.000000
11
122.375000
21
99.875000
31
0.000000
62
7
0
LINE
100
AcDbEntity
100
AcDbLine
8
PCL_Layer
5
10AE
10
136.375000
20
99.875000
30
0.000000
11
136.375000
21
85.875000
31
0.000000
62
7
0
LINE
100
AcDbEntity
100
AcDbLine
8
PCL_Layer
5
10AF
10
136.375000
20
85.875000
30
0.000000
11
122.375000
21
85.875000
31
0.000000
62
7
0
LINE
100
AcDbEntity
100
AcDbLine
8
PCL_Layer
5
10B0
10
236.675000
20
99.875000
30
0.000000
11
250.675000
21
99.875000
31
0.000000
62
7
0
LINE
100
AcDbEntity
100
AcDbLine
8
PCL_Layer
5
10B1
10
236.675000
20
85.875000
30
0.000000
11
236.675000
21
99.875000
31
0.000000
62
7
0
LINE
100
AcDbEntity
100
AcDbLine
8
PCL_Layer
5
10B2
10
250.675000
20
99.875000
30
0.000000
11
250.675000
21
85.875000
31
0.000000
62
7
0
LINE
100
AcDbEntity
100
AcDbLine
8
PCL_Layer
5
10B3
10
250.675000
20
85.875000
30
0.000000
11
236.675000
21
85.875000
31
0.000000
62
7
0
LINE
100
AcDbEntity
100
AcDbLine
8
PCL_Layer
5
10B4
10
55.600000
20
118.875000
30
0.000000
11
69.600000
21
118.875000
31
0.000000
62
7
0
LINE
100
AcDbEntity
100
AcDbLine
8
PCL_Layer
5
10B5
10
55.600000
20
104.875000
30
0.000000
11
55.600000
21
118.875000
31
0.000000
62
7
0
LINE
100
AcDbEntity
100
AcDbLine
8
PCL_Layer
5
10B6
10
69.600000
20
118.875000
30
0.000000
11
69.600000
21
104.875000
31
0.000000
62
7
0
LINE
100
AcDbEntity
100
AcDbLine
8
PCL_Layer
5
10B7
10
69.600000
20
104.875000
30
0.000000
11
55.600000
21
104.875000
31
0.000000
62
7
0
LINE
100
AcDbEntity
100
AcDbLine
8
PCL_Layer
5
10B8
10
89.050000
20
80.875000
30
0.000000
11
103.050000
21
80.875000
31
0.000000
62
7
0
LINE
100
AcDbEntity
100
AcDbLine
8
PCL_Layer
5
10B9
10
89.050000
20
66.875000
30
0.000000
11
89.050000
21
80.875000
31
0.000000
62
7
0
LINE
100
AcDbEntity
100
AcDbLine
8
PCL_Layer
5
10BA
10
103.050000
20
80.875000
30
0.000000
11
103.050000
21
66.875000
31
0.000000
62
7
0
LINE
100
AcDbEntity
100
AcDbLine
8
PCL_Layer
5
10BB
10
103.050000
20
66.875000
30
0.000000
11
89.050000
21
66.875000
31
0.000000
62
7
0
LINE
100
AcDbEntity
100
AcDbLine
8
PCL_Layer
5
10BC
10
326.975000
20
23.800000
30
0.000000
11
340.975000
21
23.800000
31
0.000000
62
7
0
LINE
100
AcDbEntity
100
AcDbLine
8
PCL_Layer
5
10BD
10
326.975000
20
9.800000
30
0.000000
11
326.975000
21
23.800000
31
0.000000
62
7
0
LINE
100
AcDbEntity
100
AcDbLine
8
PCL_Layer
5
10BE
10
340.975000
20
23.800000
30
0.000000
11
340.975000
21
9.800000
31
0.000000
62
7
0
LINE
100
AcDbEntity
100
AcDbLine
8
PCL_Layer
5
10BF
10
340.975000
20
9.800000
30
0.000000
11
326.975000
21
9.800000
31
0.000000
62
7
0
LINE
100
AcDbEntity
100
AcDbLine
8
PCL_Layer
5
10C0
10
131.900000
20
80.875000
30
0.000000
11
145.900000
21
80.875000
31
0.000000
62
7
0
LINE
100
AcDbEntity
100
AcDbLine
8
PCL_Layer
5
10C1
10
131.900000
20
66.875000
30
0.000000
11
131.900000
21
80.875000
31
0.000000
62
7
0
LINE
100
AcDbEntity
100
AcDbLine
8
PCL_Layer
5
10C2
10
145.900000
20
80.875000
30
0.000000
11
145.900000
21
66.875000
31
0.000000
62
7
0
LINE
100
AcDbEntity
100
AcDbLine
8
PCL_Layer
5
10C3
10
145.900000
20
66.875000
30
0.000000
11
131.900000
21
66.875000
31
0.000000
62
7
0
LINE
100
AcDbEntity
100
AcDbLine
8
PCL_Layer
5
10C4
10
188.875000
20
23.825000
30
0.000000
11
202.875000
21
23.825000
31
0.000000
62
7
0
LINE
100
AcDbEntity
100
AcDbLine
8
PCL_Layer
5
10C5
10
188.875000
20
9.825000
30
0.000000
11
188.875000
21
23.825000
31
0.000000
62
7
0
LINE
100
AcDbEntity
100
AcDbLine
8
PCL_Layer
5
10C6
10
202.875000
20
23.825000
30
0.000000
11
202.875000
21
9.825000
31
0.000000
62
7
0
LINE
100
AcDbEntity
100
AcDbLine
8
PCL_Layer
5
10C7
10
202.875000
20
9.825000
30
0.000000
11
188.875000
21
9.825000
31
0.000000
62
7
0
LINE
100
AcDbEntity
100
AcDbLine
8
PCL_Layer
5
10C8
10
165.050000
20
42.850000
30
0.000000
11
179.050000
21
42.850000
31
0.000000
62
7
0
LINE
100
AcDbEntity
100
AcDbLine
8
PCL_Layer
5
10C9
10
165.050000
20
28.850000
30
0.000000
11
165.050000
21
42.850000
31
0.000000
62
7
0
LINE
100
AcDbEntity
100
AcDbLine
8
PCL_Layer
5
10CA
10
179.050000
20
42.850000
30
0.000000
11
179.050000
21
28.850000
31
0.000000
62
7
0
LINE
100
AcDbEntity
100
AcDbLine
8
PCL_Layer
5
10CB
10
179.050000
20
28.850000
30
0.000000
11
165.050000
21
28.850000
31
0.000000
62
7
0
LINE
100
AcDbEntity
100
AcDbLine
8
PCL_Layer
5
10CC
10
208.100000
20
80.875000
30
0.000000
11
222.100000
21
80.875000
31
0.000000
62
7
0
LINE
100
AcDbEntity
100
AcDbLine
8
PCL_Layer
5
10CD
10
208.100000
20
66.875000
30
0.000000
11
208.100000
21
80.875000
31
0.000000
62
7
0
LINE
100
AcDbEntity
100
AcDbLine
8
PCL_Layer
5
10CE
10
222.100000
20
80.875000
30
0.000000
11
222.100000
21
66.875000
31
0.000000
62
7
0
LINE
100
AcDbEntity
100
AcDbLine
8
PCL_Layer
5
10CF
10
222.100000
20
66.875000
30
0.000000
11
208.100000
21
66.875000
31
0.000000
62
7
0
LINE
100
AcDbEntity
100
AcDbLine
8
PCL_Layer
5
10D0
10
322.400000
20
80.875000
30
0.000000
11
336.400000
21
80.875000
31
0.000000
62
7
0
LINE
100
AcDbEntity
100
AcDbLine
8
PCL_Layer
5
10D1
10
322.400000
20
66.875000
30
0.000000
11
322.400000
21
80.875000
31
0.000000
62
7
0
LINE
100
AcDbEntity
100
AcDbLine
8
PCL_Layer
5
10D2
10
336.400000
20
80.875000
30
0.000000
11
336.400000
21
66.875000
31
0.000000
62
7
0
LINE
100
AcDbEntity
100
AcDbLine
8
PCL_Layer
5
10D3
10
336.400000
20
66.875000
30
0.000000
11
322.400000
21
66.875000
31
0.000000
62
7
0
LINE
100
AcDbEntity
100
AcDbLine
8
PCL_Layer
5
10D4
10
241.250000
20
42.850000
30
0.000000
11
255.250000
21
42.850000
31
0.000000
62
7
0
LINE
100
AcDbEntity
100
AcDbLine
8
PCL_Layer
5
10D5
10
241.250000
20
28.850000
30
0.000000
11
241.250000
21
42.850000
31
0.000000
62
7
0
LINE
100
AcDbEntity
100
AcDbLine
8
PCL_Layer
5
10D6
10
255.250000
20
42.850000
30
0.000000
11
255.250000
21
28.850000
31
0.000000
62
7
0
LINE
100
AcDbEntity
100
AcDbLine
8
PCL_Layer
5
10D7
10
255.250000
20
28.850000
30
0.000000
11
241.250000
21
28.850000
31
0.000000
62
7
0
LINE
100
AcDbEntity
100
AcDbLine
8
PCL_Layer
5
10D8
10
298.400000
20
42.850000
30
0.000000
11
312.400000
21
42.850000
31
0.000000
62
7
0
LINE
100
AcDbEntity
100
AcDbLine
8
PCL_Layer
5
10D9
10
298.400000
20
28.850000
30
0.000000
11
298.400000
21
42.850000
31
0.000000
62
7
0
LINE
100
AcDbEntity
100
AcDbLine
8
PCL_Layer
5
10DA
10
312.400000
20
42.850000
30
0.000000
11
312.400000
21
28.850000
31
0.000000
62
7
0
LINE
100
AcDbEntity
100
AcDbLine
8
PCL_Layer
5
10DB
10
312.400000
20
28.850000
30
0.000000
11
298.400000
21
28.850000
31
0.000000
62
7
0
LINE
100
AcDbEntity
100
AcDbLine
8
PCL_Layer
5
10DC
10
279.350000
20
42.850000
30
0.000000
11
293.350000
21
42.850000
31
0.000000
62
7
0
LINE
100
AcDbEntity
100
AcDbLine
8
PCL_Layer
5
10DD
10
279.350000
20
28.850000
30
0.000000
11
279.350000
21
42.850000
31
0.000000
62
7
0
LINE
100
AcDbEntity
100
AcDbLine
8
PCL_Layer
5
10DE
10
293.350000
20
42.850000
30
0.000000
11
293.350000
21
28.850000
31
0.000000
62
7
0
LINE
100
AcDbEntity
100
AcDbLine
8
PCL_Layer
5
10DF
10
293.350000
20
28.850000
30
0.000000
11
279.350000
21
28.850000
31
0.000000
62
7
0
LINE
100
AcDbEntity
100
AcDbLine
8
PCL_Layer
5
10E0
10
17.500000
20
118.875000
30
0.000000
11
31.500000
21
118.875000
31
0.000000
62
7
0
LINE
100
AcDbEntity
100
AcDbLine
8
PCL_Layer
5
10E1
10
17.500000
20
104.875000
30
0.000000
11
17.500000
21
118.875000
31
0.000000
62
7
0
LINE
100
AcDbEntity
100
AcDbLine
8
PCL_Layer
5
10E2
10
31.500000
20
118.875000
30
0.000000
11
31.500000
21
104.875000
31
0.000000
62
7
0
LINE
100
AcDbEntity
100
AcDbLine
8
PCL_Layer
5
10E3
10
31.500000
20
104.875000
30
0.000000
11
17.500000
21
104.875000
31
0.000000
62
7
0
LINE
100
AcDbEntity
100
AcDbLine
8
PCL_Layer
5
10E4
10
422.224900
20
42.850000
30
0.000000
11
436.225000
21
42.850000
31
0.000000
62
7
0
LINE
100
AcDbEntity
100
AcDbLine
8
PCL_Layer
5
10E5
10
422.224900
20
28.850000
30
0.000000
11
422.224900
21
42.850000
31
0.000000
62
7
0
LINE
100
AcDbEntity
100
AcDbLine
8
PCL_Layer
5
10E6
10
436.225000
20
42.850000
30
0.000000
11
436.225000
21
28.850000
31
0.000000
62
7
0
LINE
100
AcDbEntity
100
AcDbLine
8
PCL_Layer
5
10E7
10
436.225000
20
28.850000
30
0.000000
11
422.224900
21
28.850000
31
0.000000
62
7
0
LINE
100
AcDbEntity
100
AcDbLine
8
PCL_Layer
5
10E8
10
384.125000
20
23.800000
30
0.000000
11
398.125000
21
23.800000
31
0.000000
62
7
0
LINE
100
AcDbEntity
100
AcDbLine
8
PCL_Layer
5
10E9
10
384.125000
20
9.800000
30
0.000000
11
384.125000
21
23.800000
31
0.000000
62
7
0
LINE
100
AcDbEntity
100
AcDbLine
8
PCL_Layer
5
10EA
10
398.125000
20
23.800000
30
0.000000
11
398.125000
21
9.800000
31
0.000000
62
7
0
LINE
100
AcDbEntity
100
AcDbLine
8
PCL_Layer
5
10EB
10
398.125000
20
9.800000
30
0.000000
11
384.125000
21
9.800000
31
0.000000
62
7
0
LINE
100
AcDbEntity
100
AcDbLine
8
PCL_Layer
5
10EC
10
126.950000
20
23.825000
30
0.000000
11
140.950000
21
23.825000
31
0.000000
62
7
0
LINE
100
AcDbEntity
100
AcDbLine
8
PCL_Layer
5
10ED
10
126.950000
20
9.825000
30
0.000000
11
126.950000
21
23.825000
31
0.000000
62
7
0
LINE
100
AcDbEntity
100
AcDbLine
8
PCL_Layer
5
10EE
10
140.950000
20
23.825000
30
0.000000
11
140.950000
21
9.825000
31
0.000000
62
7
0
LINE
100
AcDbEntity
100
AcDbLine
8
PCL_Layer
5
10EF
10
140.950000
20
9.825000
30
0.000000
11
126.950000
21
9.825000
31
0.000000
62
7
0
LINE
100
AcDbEntity
100
AcDbLine
8
PCL_Layer
5
10F0
10
269.925000
20
61.875000
30
0.000000
11
283.925000
21
61.875000
31
0.000000
62
7
0
LINE
100
AcDbEntity
100
AcDbLine
8
PCL_Layer
5
10F1
10
269.925000
20
47.875000
30
0.000000
11
269.925000
21
61.875000
31
0.000000
62
7
0
LINE
100
AcDbEntity
100
AcDbLine
8
PCL_Layer
5
10F2
10
283.925000
20
61.875000
30
0.000000
11
283.925000
21
47.875000
31
0.000000
62
7
0
LINE
100
AcDbEntity
100
AcDbLine
8
PCL_Layer
5
10F3
10
283.925000
20
47.875000
30
0.000000
11
269.925000
21
47.875000
31
0.000000
62
7
0
LINE
100
AcDbEntity
100
AcDbLine
8
PCL_Layer
5
10F4
10
436.625000
20
61.900000
30
0.000000
11
450.625000
21
61.900000
31
0.000000
62
7
0
LINE
100
AcDbEntity
100
AcDbLine
8
PCL_Layer
5
10F5
10
436.625000
20
47.900000
30
0.000000
11
436.625000
21
61.900000
31
0.000000
62
7
0
LINE
100
AcDbEntity
100
AcDbLine
8
PCL_Layer
5
10F6
10
450.625000
20
61.900000
30
0.000000
11
450.625000
21
47.900000
31
0.000000
62
7
0
LINE
100
AcDbEntity
100
AcDbLine
8
PCL_Layer
5
10F7
10
450.625000
20
47.900000
30
0.000000
11
436.625000
21
47.900000
31
0.000000
62
7
0
LINE
100
AcDbEntity
100
AcDbLine
8
PCL_Layer
5
10F8
10
427.175000
20
99.875000
30
0.000000
11
441.175000
21
99.875000
31
0.000000
62
7
0
LINE
100
AcDbEntity
100
AcDbLine
8
PCL_Layer
5
10F9
10
427.175000
20
85.875000
30
0.000000
11
427.175000
21
99.875000
31
0.000000
62
7
0
LINE
100
AcDbEntity
100
AcDbLine
8
PCL_Layer
5
10FA
10
441.175000
20
99.875000
30
0.000000
11
441.175000
21
85.875000
31
0.000000
62
7
0
LINE
100
AcDbEntity
100
AcDbLine
8
PCL_Layer
5
10FB
10
441.175000
20
85.875000
30
0.000000
11
427.175000
21
85.875000
31
0.000000
62
7
0
LINE
100
AcDbEntity
100
AcDbLine
8
PCL_Layer
5
10FC
10
360.400000
20
118.875000
30
0.000000
11
374.400000
21
118.875000
31
0.000000
62
7
0
LINE
100
AcDbEntity
100
AcDbLine
8
PCL_Layer
5
10FD
10
360.400000
20
104.875000
30
0.000000
11
360.400000
21
118.875000
31
0.000000
62
7
0
LINE
100
AcDbEntity
100
AcDbLine
8
PCL_Layer
5
10FE
10
374.400000
20
118.875000
30
0.000000
11
374.400000
21
104.875000
31
0.000000
62
7
0
LINE
100
AcDbEntity
100
AcDbLine
8
PCL_Layer
5
10FF
10
374.400000
20
104.875000
30
0.000000
11
360.400000
21
104.875000
31
0.000000
62
7
0
LINE
100
AcDbEntity
100
AcDbLine
8
PCL_Layer
5
1100
10
98.375000
20
23.825000
30
0.000000
11
112.375000
21
23.825000
31
0.000000
62
7
0
LINE
100
AcDbEntity
100
AcDbLine
8
PCL_Layer
5
1101
10
98.375000
20
9.825000
30
0.000000
11
98.375000
21
23.825000
31
0.000000
62
7
0
LINE
100
AcDbEntity
100
AcDbLine
8
PCL_Layer
5
1102
10
112.375000
20
23.825000
30
0.000000
11
112.375000
21
9.825000
31
0.000000
62
7
0
LINE
100
AcDbEntity
100
AcDbLine
8
PCL_Layer
5
1103
10
112.375000
20
9.825000
30
0.000000
11
98.375000
21
9.825000
31
0.000000
62
7
0
LINE
100
AcDbEntity
100
AcDbLine
8
PCL_Layer
5
1104
10
146.000000
20
42.850000
30
0.000000
11
160.000000
21
42.850000
31
0.000000
62
7
0
LINE
100
AcDbEntity
100
AcDbLine
8
PCL_Layer
5
1105
10
146.000000
20
28.850000
30
0.000000
11
146.000000
21
42.850000
31
0.000000
62
7
0
LINE
100
AcDbEntity
100
AcDbLine
8
PCL_Layer
5
1106
10
160.000000
20
42.850000
30
0.000000
11
160.000000
21
28.850000
31
0.000000
62
7
0
LINE
100
AcDbEntity
100
AcDbLine
8
PCL_Layer
5
1107
10
160.000000
20
28.850000
30
0.000000
11
146.000000
21
28.850000
31
0.000000
62
7
0
LINE
100
AcDbEntity
100
AcDbLine
8
PCL_Layer
5
1108
10
150.750000
20
23.825000
30
0.000000
11
164.750000
21
23.825000
31
0.000000
62
7
0
LINE
100
AcDbEntity
100
AcDbLine
8
PCL_Layer
5
1109
10
150.750000
20
9.825000
30
0.000000
11
150.750000
21
23.825000
31
0.000000
62
7
0
LINE
100
AcDbEntity
100
AcDbLine
8
PCL_Layer
5
110A
10
164.750000
20
23.825000
30
0.000000
11
164.750000
21
9.825000
31
0.000000
62
7
0
LINE
100
AcDbEntity
100
AcDbLine
8
PCL_Layer
5
110B
10
164.750000
20
9.825000
30
0.000000
11
150.750000
21
9.825000
31
0.000000
62
7
0
LINE
100
AcDbEntity
100
AcDbLine
8
PCL_Layer
5
110C
10
322.300000
20
118.875000
30
0.000000
11
336.300000
21
118.875000
31
0.000000
62
7
0
LINE
100
AcDbEntity
100
AcDbLine
8
PCL_Layer
5
110D
10
322.300000
20
104.875000
30
0.000000
11
322.300000
21
118.875000
31
0.000000
62
7
0
LINE
100
AcDbEntity
100
AcDbLine
8
PCL_Layer
5
110E
10
336.300000
20
118.875000
30
0.000000
11
336.300000
21
104.875000
31
0.000000
62
7
0
LINE
100
AcDbEntity
100
AcDbLine
8
PCL_Layer
5
110F
10
336.300000
20
104.875000
30
0.000000
11
322.300000
21
104.875000
31
0.000000
62
7
0
LINE
100
AcDbEntity
100
AcDbLine
8
PCL_Layer
5
1110
10
446.225000
20
80.875000
30
0.000000
11
460.224900
21
80.875000
31
0.000000
62
7
0
LINE
100
AcDbEntity
100
AcDbLine
8
PCL_Layer
5
1111
10
446.225000
20
66.875000
30
0.000000
11
446.225000
21
80.875000
31
0.000000
62
7
0
LINE
100
AcDbEntity
100
AcDbLine
8
PCL_Layer
5
1112
10
460.224900
20
80.875000
30
0.000000
11
460.224900
21
66.875000
31
0.000000
62
7
0
LINE
100
AcDbEntity
100
AcDbLine
8
PCL_Layer
5
1113
10
460.224900
20
66.875000
30
0.000000
11
446.225000
21
66.875000
31
0.000000
62
7
0
LINE
100
AcDbEntity
100
AcDbLine
8
PCL_Layer
5
1114
10
103.325000
20
99.875000
30
0.000000
11
117.325000
21
99.875000
31
0.000000
62
7
0
LINE
100
AcDbEntity
100
AcDbLine
8
PCL_Layer
5
1115
10
103.325000
20
85.875000
30
0.000000
11
103.325000
21
99.875000
31
0.000000
62
7
0
LINE
100
AcDbEntity
100
AcDbLine
8
PCL_Layer
5
1116
10
117.325000
20
99.875000
30
0.000000
11
117.325000
21
85.875000
31
0.000000
62
7
0
LINE
100
AcDbEntity
100
AcDbLine
8
PCL_Layer
5
1117
10
117.325000
20
85.875000
30
0.000000
11
103.325000
21
85.875000
31
0.000000
62
7
0
LINE
100
AcDbEntity
100
AcDbLine
8
PCL_Layer
5
1118
10
355.550000
20
23.800000
30
0.000000
11
369.550000
21
23.800000
31
0.000000
62
7
0
LINE
100
AcDbEntity
100
AcDbLine
8
PCL_Layer
5
1119
10
355.550000
20
9.800000
30
0.000000
11
355.550000
21
23.800000
31
0.000000
62
7
0
LINE
100
AcDbEntity
100
AcDbLine
8
PCL_Layer
5
111A
10
369.550000
20
23.800000
30
0.000000
11
369.550000
21
9.800000
31
0.000000
62
7
0
LINE
100
AcDbEntity
100
AcDbLine
8
PCL_Layer
5
111B
10
369.550000
20
9.800000
30
0.000000
11
355.550000
21
9.800000
31
0.000000
62
7
0
LINE
100
AcDbEntity
100
AcDbLine
8
PCL_Layer
5
111C
10
308.025000
20
61.875000
30
0.000000
11
322.025000
21
61.875000
31
0.000000
62
7
0
LINE
100
AcDbEntity
100
AcDbLine
8
PCL_Layer
5
111D
10
308.025000
20
47.875000
30
0.000000
11
308.025000
21
61.875000
31
0.000000
62
7
0
LINE
100
AcDbEntity
100
AcDbLine
8
PCL_Layer
5
111E
10
322.025000
20
61.875000
30
0.000000
11
322.025000
21
47.875000
31
0.000000
62
7
0
LINE
100
AcDbEntity
100
AcDbLine
8
PCL_Layer
5
111F
10
322.025000
20
47.875000
30
0.000000
11
308.025000
21
47.875000
31
0.000000
62
7
0
LINE
100
AcDbEntity
100
AcDbLine
8
PCL_Layer
5
1120
10
288.975000
20
61.875000
30
0.000000
11
302.975000
21
61.875000
31
0.000000
62
7
0
LINE
100
AcDbEntity
100
AcDbLine
8
PCL_Layer
5
1121
10
288.975000
20
47.875000
30
0.000000
11
288.975000
21
61.875000
31
0.000000
62
7
0
LINE
100
AcDbEntity
100
AcDbLine
8
PCL_Layer
5
1122
10
302.975000
20
61.875000
30
0.000000
11
302.975000
21
47.875000
31
0.000000
62
7
0
LINE
100
AcDbEntity
100
AcDbLine
8
PCL_Layer
5
1123
10
302.975000
20
47.875000
30
0.000000
11
288.975000
21
47.875000
31
0.000000
62
7
0
LINE
100
AcDbEntity
100
AcDbLine
8
PCL_Layer
5
1124
10
169.900000
20
118.875000
30
0.000000
11
183.900000
21
118.875000
31
0.000000
62
7
0
LINE
100
AcDbEntity
100
AcDbLine
8
PCL_Layer
5
1125
10
169.900000
20
104.875000
30
0.000000
11
169.900000
21
118.875000
31
0.000000
62
7
0
LINE
100
AcDbEntity
100
AcDbLine
8
PCL_Layer
5
1126
10
183.900000
20
118.875000
30
0.000000
11
183.900000
21
104.875000
31
0.000000
62
7
0
LINE
100
AcDbEntity
100
AcDbLine
8
PCL_Layer
5
1127
10
183.900000
20
104.875000
30
0.000000
11
169.900000
21
104.875000
31
0.000000
62
7
0
LINE
100
AcDbEntity
100
AcDbLine
8
PCL_Layer
5
1128
10
398.600000
20
99.900000
30
0.000000
11
412.600000
21
99.900000
31
0.000000
62
7
0
LINE
100
AcDbEntity
100
AcDbLine
8
PCL_Layer
5
1129
10
398.600000
20
85.900000
30
0.000000
11
398.600000
21
99.900000
31
0.000000
62
7
0
LINE
100
AcDbEntity
100
AcDbLine
8
PCL_Layer
5
112A
10
412.600000
20
99.900000
30
0.000000
11
412.600000
21
85.900000
31
0.000000
62
7
0
LINE
100
AcDbEntity
100
AcDbLine
8
PCL_Layer
5
112B
10
412.600000
20
85.900000
30
0.000000
11
398.600000
21
85.900000
31
0.000000
62
7
0
LINE
100
AcDbEntity
100
AcDbLine
8
PCL_Layer
5
112C
10
189.050000
20
80.875000
30
0.000000
11
203.050000
21
80.875000
31
0.000000
62
7
0
LINE
100
AcDbEntity
100
AcDbLine
8
PCL_Layer
5
112D
10
189.050000
20
66.875000
30
0.000000
11
189.050000
21
80.875000
31
0.000000
62
7
0
LINE
100
AcDbEntity
100
AcDbLine
8
PCL_Layer
5
112E
10
203.050000
20
80.875000
30
0.000000
11
203.050000
21
66.875000
31
0.000000
62
7
0
LINE
100
AcDbEntity
100
AcDbLine
8
PCL_Layer
5
112F
10
203.050000
20
66.875000
30
0.000000
11
189.050000
21
66.875000
31
0.000000
62
7
0
LINE
100
AcDbEntity
100
AcDbLine
8
PCL_Layer
5
1130
10
155.625000
20
61.875000
30
0.000000
11
169.625000
21
61.875000
31
0.000000
62
7
0
LINE
100
AcDbEntity
100
AcDbLine
8
PCL_Layer
5
1131
10
155.625000
20
47.875000
30
0.000000
11
155.625000
21
61.875000
31
0.000000
62
7
0
LINE
100
AcDbEntity
100
AcDbLine
8
PCL_Layer
5
1132
10
169.625000
20
61.875000
30
0.000000
11
169.625000
21
47.875000
31
0.000000
62
7
0
LINE
100
AcDbEntity
100
AcDbLine
8
PCL_Layer
5
1133
10
169.625000
20
47.875000
30
0.000000
11
155.625000
21
47.875000
31
0.000000
62
7
0
LINE
100
AcDbEntity
100
AcDbLine
8
PCL_Layer
5
1134
10
329.350000
20
42.850000
30
0.000000
11
343.350000
21
42.850000
31
0.000000
62
7
0
LINE
100
AcDbEntity
100
AcDbLine
8
PCL_Layer
5
1135
10
329.350000
20
28.850000
30
0.000000
11
329.350000
21
42.850000
31
0.000000
62
7
0
LINE
100
AcDbEntity
100
AcDbLine
8
PCL_Layer
5
1136
10
343.350000
20
42.850000
30
0.000000
11
343.350000
21
28.850000
31
0.000000
62
7
0
LINE
100
AcDbEntity
100
AcDbLine
8
PCL_Layer
5
1137
10
343.350000
20
28.850000
30
0.000000
11
329.350000
21
28.850000
31
0.000000
62
7
0
LINE
100
AcDbEntity
100
AcDbLine
8
PCL_Layer
5
1138
10
131.800000
20
118.875000
30
0.000000
11
145.800000
21
118.875000
31
0.000000
62
7
0
LINE
100
AcDbEntity
100
AcDbLine
8
PCL_Layer
5
1139
10
131.800000
20
104.875000
30
0.000000
11
131.800000
21
118.875000
31
0.000000
62
7
0
LINE
100
AcDbEntity
100
AcDbLine
8
PCL_Layer
5
113A
10
145.800000
20
118.875000
30
0.000000
11
145.800000
21
104.875000
31
0.000000
62
7
0
LINE
100
AcDbEntity
100
AcDbLine
8
PCL_Layer
5
113B
10
145.800000
20
104.875000
30
0.000000
11
131.800000
21
104.875000
31
0.000000
62
7
0
LINE
100
AcDbEntity
100
AcDbLine
8
PCL_Layer
5
113C
10
174.675000
20
61.875000
30
0.000000
11
188.675000
21
61.875000
31
0.000000
62
7
0
LINE
100
AcDbEntity
100
AcDbLine
8
PCL_Layer
5
113D
10
174.675000
20
47.875000
30
0.000000
11
174.675000
21
61.875000
31
0.000000
62
7
0
LINE
100
AcDbEntity
100
AcDbLine
8
PCL_Layer
5
113E
10
188.675000
20
61.875000
30
0.000000
11
188.675000
21
47.875000
31
0.000000
62
7
0
LINE
100
AcDbEntity
100
AcDbLine
8
PCL_Layer
5
113F
10
188.675000
20
47.875000
30
0.000000
11
174.675000
21
47.875000
31
0.000000
62
7
0
LINE
100
AcDbEntity
100
AcDbLine
8
PCL_Layer
5
1140
10
136.575000
20
61.875000
30
0.000000
11
150.575000
21
61.875000
31
0.000000
62
7
0
LINE
100
AcDbEntity
100
AcDbLine
8
PCL_Layer
5
1141
10
136.575000
20
47.875000
30
0.000000
11
136.575000
21
61.875000
31
0.000000
62
7
0
LINE
100
AcDbEntity
100
AcDbLine
8
PCL_Layer
5
1142
10
150.575000
20
61.875000
30
0.000000
11
150.575000
21
47.875000
31
0.000000
62
7
0
LINE
100
AcDbEntity
100
AcDbLine
8
PCL_Layer
5
1143
10
150.575000
20
47.875000
30
0.000000
11
136.575000
21
47.875000
31
0.000000
62
7
0
LINE
100
AcDbEntity
100
AcDbLine
8
PCL_Layer
5
1144
10
336.625000
20
61.900000
30
0.000000
11
350.625000
21
61.900000
31
0.000000
62
7
0
LINE
100
AcDbEntity
100
AcDbLine
8
PCL_Layer
5
1145
10
336.625000
20
47.900000
30
0.000000
11
336.625000
21
61.900000
31
0.000000
62
7
0
LINE
100
AcDbEntity
100
AcDbLine
8
PCL_Layer
5
1146
10
350.625000
20
61.900000
30
0.000000
11
350.625000
21
47.900000
31
0.000000
62
7
0
LINE
100
AcDbEntity
100
AcDbLine
8
PCL_Layer
5
1147
10
350.625000
20
47.900000
30
0.000000
11
336.625000
21
47.900000
31
0.000000
62
7
0
LINE
100
AcDbEntity
100
AcDbLine
8
PCL_Layer
5
1148
10
84.275000
20
99.875000
30
0.000000
11
98.275000
21
99.875000
31
0.000000
62
7
0
LINE
100
AcDbEntity
100
AcDbLine
8
PCL_Layer
5
1149
10
84.275000
20
85.875000
30
0.000000
11
84.275000
21
99.875000
31
0.000000
62
7
0
LINE
100
AcDbEntity
100
AcDbLine
8
PCL_Layer
5
114A
10
98.275000
20
99.875000
30
0.000000
11
98.275000
21
85.875000
31
0.000000
62
7
0
LINE
100
AcDbEntity
100
AcDbLine
8
PCL_Layer
5
114B
10
98.275000
20
85.875000
30
0.000000
11
84.275000
21
85.875000
31
0.000000
62
7
0
LINE
100
AcDbEntity
100
AcDbLine
8
PCL_Layer
5
114C
10
41.225000
20
23.825000
30
0.000000
11
55.225000
21
23.825000
31
0.000000
62
7
0
LINE
100
AcDbEntity
100
AcDbLine
8
PCL_Layer
5
114D
10
41.225000
20
9.825000
30
0.000000
11
41.225000
21
23.825000
31
0.000000
62
7
0
LINE
100
AcDbEntity
100
AcDbLine
8
PCL_Layer
5
114E
10
55.225000
20
23.825000
30
0.000000
11
55.225000
21
9.825000
31
0.000000
62
7
0
LINE
100
AcDbEntity
100
AcDbLine
8
PCL_Layer
5
114F
10
55.225000
20
9.825000
30
0.000000
11
41.225000
21
9.825000
31
0.000000
62
7
0
LINE
100
AcDbEntity
100
AcDbLine
8
PCL_Layer
5
1150
10
141.425000
20
99.875000
30
0.000000
11
155.425000
21
99.875000
31
0.000000
62
7
0
LINE
100
AcDbEntity
100
AcDbLine
8
PCL_Layer
5
1151
10
141.425000
20
85.875000
30
0.000000
11
141.425000
21
99.875000
31
0.000000
62
7
0
LINE
100
AcDbEntity
100
AcDbLine
8
PCL_Layer
5
1152
10
155.425000
20
99.875000
30
0.000000
11
155.425000
21
85.875000
31
0.000000
62
7
0
LINE
100
AcDbEntity
100
AcDbLine
8
PCL_Layer
5
1153
10
155.425000
20
85.875000
30
0.000000
11
141.425000
21
85.875000
31
0.000000
62
7
0
LINE
100
AcDbEntity
100
AcDbLine
8
PCL_Layer
5
1154
10
12.650000
20
23.825000
30
0.000000
11
26.650000
21
23.825000
31
0.000000
62
7
0
LINE
100
AcDbEntity
100
AcDbLine
8
PCL_Layer
5
1155
10
12.650000
20
9.825000
30
0.000000
11
12.650000
21
23.825000
31
0.000000
62
7
0
LINE
100
AcDbEntity
100
AcDbLine
8
PCL_Layer
5
1156
10
26.650000
20
23.825000
30
0.000000
11
26.650000
21
9.825000
31
0.000000
62
7
0
LINE
100
AcDbEntity
100
AcDbLine
8
PCL_Layer
5
1157
10
26.650000
20
9.825000
30
0.000000
11
12.650000
21
9.825000
31
0.000000
62
7
0
LINE
100
AcDbEntity
100
AcDbLine
8
PCL_Layer
5
1158
10
212.775000
20
61.875000
30
0.000000
11
226.775000
21
61.875000
31
0.000000
62
7
0
LINE
100
AcDbEntity
100
AcDbLine
8
PCL_Layer
5
1159
10
212.775000
20
47.875000
30
0.000000
11
212.775000
21
61.875000
31
0.000000
62
7
0
LINE
100
AcDbEntity
100
AcDbLine
8
PCL_Layer
5
115A
10
226.775000
20
61.875000
30
0.000000
11
226.775000
21
47.875000
31
0.000000
62
7
0
LINE
100
AcDbEntity
100
AcDbLine
8
PCL_Layer
5
115B
10
226.775000
20
47.875000
30
0.000000
11
212.775000
21
47.875000
31
0.000000
62
7
0
LINE
100
AcDbEntity
100
AcDbLine
8
PCL_Layer
5
115C
10
7.875000
20
42.850000
30
0.000000
11
21.875000
21
42.850000
31
0.000000
62
7
0
LINE
100
AcDbEntity
100
AcDbLine
8
PCL_Layer
5
115D
10
7.875000
20
28.850000
30
0.000000
11
7.875000
21
42.850000
31
0.000000
62
7
0
LINE
100
AcDbEntity
100
AcDbLine
8
PCL_Layer
5
115E
10
21.875000
20
42.850000
30
0.000000
11
21.875000
21
28.850000
31
0.000000
62
7
0
LINE
100
AcDbEntity
100
AcDbLine
8
PCL_Layer
5
115F
10
21.875000
20
28.850000
30
0.000000
11
7.875000
21
28.850000
31
0.000000
62
7
0
LINE
100
AcDbEntity
100
AcDbLine
8
PCL_Layer
5
1160
10
398.525000
20
61.900000
30
0.000000
11
412.525000
21
61.900000
31
0.000000
62
7
0
LINE
100
AcDbEntity
100
AcDbLine
8
PCL_Layer
5
1161
10
398.525000
20
47.900000
30
0.000000
11
398.525000
21
61.900000
31
0.000000
62
7
0
LINE
100
AcDbEntity
100
AcDbLine
8
PCL_Layer
5
1162
10
412.525000
20
61.900000
30
0.000000
11
412.525000
21
47.900000
31
0.000000
62
7
0
LINE
100
AcDbEntity
100
AcDbLine
8
PCL_Layer
5
1163
10
412.525000
20
47.900000
30
0.000000
11
398.525000
21
47.900000
31
0.000000
62
7
0
LINE
100
AcDbEntity
100
AcDbLine
8
PCL_Layer
5
1164
10
60.275000
20
42.850000
30
0.000000
11
74.275000
21
42.850000
31
0.000000
62
7
0
LINE
100
AcDbEntity
100
AcDbLine
8
PCL_Layer
5
1165
10
60.275000
20
28.850000
30
0.000000
11
60.275000
21
42.850000
31
0.000000
62
7
0
LINE
100
AcDbEntity
100
AcDbLine
8
PCL_Layer
5
1166
10
74.275000
20
42.850000
30
0.000000
11
74.275000
21
28.850000
31
0.000000
62
7
0
LINE
100
AcDbEntity
100
AcDbLine
8
PCL_Layer
5
1167
10
74.275000
20
28.850000
30
0.000000
11
60.275000
21
28.850000
31
0.000000
62
7
0
LINE
100
AcDbEntity
100
AcDbLine
8
PCL_Layer
5
1168
10
198.575000
20
99.875000
30
0.000000
11
212.575000
21
99.875000
31
0.000000
62
7
0
LINE
100
AcDbEntity
100
AcDbLine
8
PCL_Layer
5
1169
10
198.575000
20
85.875000
30
0.000000
11
198.575000
21
99.875000
31
0.000000
62
7
0
LINE
100
AcDbEntity
100
AcDbLine
8
PCL_Layer
5
116A
10
212.575000
20
99.875000
30
0.000000
11
212.575000
21
85.875000
31
0.000000
62
7
0
LINE
100
AcDbEntity
100
AcDbLine
8
PCL_Layer
5
116B
10
212.575000
20
85.875000
30
0.000000
11
198.575000
21
85.875000
31
0.000000
62
7
0
LINE
100
AcDbEntity
100
AcDbLine
8
PCL_Layer
5
116C
10
370.025000
20
99.875000
30
0.000000
11
384.025000
21
99.875000
31
0.000000
62
7
0
LINE
100
AcDbEntity
100
AcDbLine
8
PCL_Layer
5
116D
10
370.025000
20
85.875000
30
0.000000
11
370.025000
21
99.875000
31
0.000000
62
7
0
LINE
100
AcDbEntity
100
AcDbLine
8
PCL_Layer
5
116E
10
384.025000
20
99.875000
30
0.000000
11
384.025000
21
85.875000
31
0.000000
62
7
0
LINE
100
AcDbEntity
100
AcDbLine
8
PCL_Layer
5
116F
10
384.025000
20
85.875000
30
0.000000
11
370.025000
21
85.875000
31
0.000000
62
7
0
LINE
100
AcDbEntity
100
AcDbLine
8
PCL_Layer
5
1170
10
222.200000
20
42.850000
30
0.000000
11
236.200000
21
42.850000
31
0.000000
62
7
0
LINE
100
AcDbEntity
100
AcDbLine
8
PCL_Layer
5
1171
10
222.200000
20
28.850000
30
0.000000
11
222.200000
21
42.850000
31
0.000000
62
7
0
LINE
100
AcDbEntity
100
AcDbLine
8
PCL_Layer
5
1172
10
236.200000
20
42.850000
30
0.000000
11
236.200000
21
28.850000
31
0.000000
62
7
0
LINE
100
AcDbEntity
100
AcDbLine
8
PCL_Layer
5
1173
10
236.200000
20
28.850000
30
0.000000
11
222.200000
21
28.850000
31
0.000000
62
7
0
LINE
100
AcDbEntity
100
AcDbLine
8
PCL_Layer
5
1174
10
117.525000
20
61.875000
30
0.000000
11
131.525000
21
61.875000
31
0.000000
62
7
0
LINE
100
AcDbEntity
100
AcDbLine
8
PCL_Layer
5
1175
10
117.525000
20
47.875000
30
0.000000
11
117.525000
21
61.875000
31
0.000000
62
7
0
LINE
100
AcDbEntity
100
AcDbLine
8
PCL_Layer
5
1176
10
131.525000
20
61.875000
30
0.000000
11
131.525000
21
47.875000
31
0.000000
62
7
0
LINE
100
AcDbEntity
100
AcDbLine
8
PCL_Layer
5
1177
10
131.525000
20
47.875000
30
0.000000
11
117.525000
21
47.875000
31
0.000000
62
7
0
LINE
100
AcDbEntity
100
AcDbLine
8
PCL_Layer
5
1178
10
69.800000
20
23.825000
30
0.000000
11
83.800000
21
23.825000
31
0.000000
62
7
0
LINE
100
AcDbEntity
100
AcDbLine
8
PCL_Layer
5
1179
10
69.800000
20
9.825000
30
0.000000
11
69.800000
21
23.825000
31
0.000000
62
7
0
LINE
100
AcDbEntity
100
AcDbLine
8
PCL_Layer
5
117A
10
83.800000
20
23.825000
30
0.000000
11
83.800000
21
9.825000
31
0.000000
62
7
0
LINE
100
AcDbEntity
100
AcDbLine
8
PCL_Layer
5
117B
10
83.800000
20
9.825000
30
0.000000
11
69.800000
21
9.825000
31
0.000000
62
7
0
LINE
100
AcDbEntity
100
AcDbLine
8
PCL_Layer
5
117C
10
393.650000
20
42.850000
30
0.000000
11
407.650000
21
42.850000
31
0.000000
62
7
0
LINE
100
AcDbEntity
100
AcDbLine
8
PCL_Layer
5
117D
10
393.650000
20
28.850000
30
0.000000
11
393.650000
21
42.850000
31
0.000000
62
7
0
LINE
100
AcDbEntity
100
AcDbLine
8
PCL_Layer
5
117E
10
407.650000
20
42.850000
30
0.000000
11
407.650000
21
28.850000
31
0.000000
62
7
0
LINE
100
AcDbEntity
100
AcDbLine
8
PCL_Layer
5
117F
10
407.650000
20
28.850000
30
0.000000
11
393.650000
21
28.850000
31
0.000000
62
7
0
LINE
100
AcDbEntity
100
AcDbLine
8
PCL_Layer
5
1180
10
208.000000
20
118.875000
30
0.000000
11
222.000000
21
118.875000
31
0.000000
62
7
0
LINE
100
AcDbEntity
100
AcDbLine
8
PCL_Layer
5
1181
10
208.000000
20
104.875000
30
0.000000
11
208.000000
21
118.875000
31
0.000000
62
7
0
LINE
100
AcDbEntity
100
AcDbLine
8
PCL_Layer
5
1182
10
222.000000
20
118.875000
30
0.000000
11
222.000000
21
104.875000
31
0.000000
62
7
0
LINE
100
AcDbEntity
100
AcDbLine
8
PCL_Layer
5
1183
10
222.000000
20
104.875000
30
0.000000
11
208.000000
21
104.875000
31
0.000000
62
7
0
LINE
100
AcDbEntity
100
AcDbLine
8
PCL_Layer
5
1184
10
8.075000
20
99.875000
30
0.000000
11
22.075000
21
99.875000
31
0.000000
62
7
0
LINE
100
AcDbEntity
100
AcDbLine
8
PCL_Layer
5
1185
10
8.075000
20
85.875000
30
0.000000
11
8.075000
21
99.875000
31
0.000000
62
7
0
LINE
100
AcDbEntity
100
AcDbLine
8
PCL_Layer
5
1186
10
22.075000
20
99.875000
30
0.000000
11
22.075000
21
85.875000
31
0.000000
62
7
0
LINE
100
AcDbEntity
100
AcDbLine
8
PCL_Layer
5
1187
10
22.075000
20
85.875000
30
0.000000
11
8.075000
21
85.875000
31
0.000000
62
7
0
LINE
100
AcDbEntity
100
AcDbLine
8
PCL_Layer
5
1188
10
160.475000
20
99.875000
30
0.000000
11
174.475000
21
99.875000
31
0.000000
62
7
0
LINE
100
AcDbEntity
100
AcDbLine
8
PCL_Layer
5
1189
10
160.475000
20
85.875000
30
0.000000
11
160.475000
21
99.875000
31
0.000000
62
7
0
LINE
100
AcDbEntity
100
AcDbLine
8
PCL_Layer
5
118A
10
174.475000
20
99.875000
30
0.000000
11
174.475000
21
85.875000
31
0.000000
62
7
0
LINE
100
AcDbEntity
100
AcDbLine
8
PCL_Layer
5
118B
10
174.475000
20
85.875000
30
0.000000
11
160.475000
21
85.875000
31
0.000000
62
7
0
LINE
100
AcDbEntity
100
AcDbLine
8
PCL_Layer
5
118C
10
112.850000
20
80.875000
30
0.000000
11
126.850000
21
80.875000
31
0.000000
62
7
0
LINE
100
AcDbEntity
100
AcDbLine
8
PCL_Layer
5
118D
10
112.850000
20
66.875000
30
0.000000
11
112.850000
21
80.875000
31
0.000000
62
7
0
LINE
100
AcDbEntity
100
AcDbLine
8
PCL_Layer
5
118E
10
126.850000
20
80.875000
30
0.000000
11
126.850000
21
66.875000
31
0.000000
62
7
0
LINE
100
AcDbEntity
100
AcDbLine
8
PCL_Layer
5
118F
10
126.850000
20
66.875000
30
0.000000
11
112.850000
21
66.875000
31
0.000000
62
7
0
LINE
100
AcDbEntity
100
AcDbLine
8
PCL_Layer
5
1190
10
27.125000
20
99.875000
30
0.000000
11
41.125000
21
99.875000
31
0.000000
62
7
0
LINE
100
AcDbEntity
100
AcDbLine
8
PCL_Layer
5
1191
10
27.125000
20
85.875000
30
0.000000
11
27.125000
21
99.875000
31
0.000000
62
7
0
LINE
100
AcDbEntity
100
AcDbLine
8
PCL_Layer
5
1192
10
41.125000
20
99.875000
30
0.000000
11
41.125000
21
85.875000
31
0.000000
62
7
0
LINE
100
AcDbEntity
100
AcDbLine
8
PCL_Layer
5
1193
10
41.125000
20
85.875000
30
0.000000
11
27.125000
21
85.875000
31
0.000000
62
7
0
LINE
100
AcDbEntity
100
AcDbLine
8
PCL_Layer
5
1194
10
260.300000
20
42.850000
30
0.000000
11
274.300000
21
42.850000
31
0.000000
62
7
0
LINE
100
AcDbEntity
100
AcDbLine
8
PCL_Layer
5
1195
10
260.300000
20
28.850000
30
0.000000
11
260.300000
21
42.850000
31
0.000000
62
7
0
LINE
100
AcDbEntity
100
AcDbLine
8
PCL_Layer
5
1196
10
274.300000
20
42.850000
30
0.000000
11
274.300000
21
28.850000
31
0.000000
62
7
0
LINE
100
AcDbEntity
100
AcDbLine
8
PCL_Layer
5
1197
10
274.300000
20
28.850000
30
0.000000
11
260.300000
21
28.850000
31
0.000000
62
7
0
LINE
100
AcDbEntity
100
AcDbLine
8
PCL_Layer
5
1198
10
365.075000
20
42.850000
30
0.000000
11
379.075000
21
42.850000
31
0.000000
62
7
0
LINE
100
AcDbEntity
100
AcDbLine
8
PCL_Layer
5
1199
10
365.075000
20
28.850000
30
0.000000
11
365.075000
21
42.850000
31
0.000000
62
7
0
LINE
100
AcDbEntity
100
AcDbLine
8
PCL_Layer
5
119A
10
379.075000
20
42.850000
30
0.000000
11
379.075000
21
28.850000
31
0.000000
62
7
0
LINE
100
AcDbEntity
100
AcDbLine
8
PCL_Layer
5
119B
10
379.075000
20
28.850000
30
0.000000
11
365.075000
21
28.850000
31
0.000000
62
7
0
LINE
100
AcDbEntity
100
AcDbLine
8
PCL_Layer
5
119C
10
436.599900
20
118.875000
30
0.000000
11
450.600000
21
118.875000
31
0.000000
62
7
0
LINE
100
AcDbEntity
100
AcDbLine
8
PCL_Layer
5
119D
10
436.599900
20
104.875000
30
0.000000
11
436.599900
21
118.875000
31
0.000000
62
7
0
LINE
100
AcDbEntity
100
AcDbLine
8
PCL_Layer
5
119E
10
450.600000
20
118.875000
30
0.000000
11
450.600000
21
104.875000
31
0.000000
62
7
0
LINE
100
AcDbEntity
100
AcDbLine
8
PCL_Layer
5
119F
10
450.600000
20
104.875000
30
0.000000
11
436.599900
21
104.875000
31
0.000000
62
7
0
LINE
100
AcDbEntity
100
AcDbLine
8
PCL_Layer
5
11A0
10
365.275000
20
80.875000
30
0.000000
11
379.275000
21
80.875000
31
0.000000
62
7
0
LINE
100
AcDbEntity
100
AcDbLine
8
PCL_Layer
5
11A1
10
365.275000
20
66.875000
30
0.000000
11
365.275000
21
80.875000
31
0.000000
62
7
0
LINE
100
AcDbEntity
100
AcDbLine
8
PCL_Layer
5
11A2
10
379.275000
20
80.875000
30
0.000000
11
379.275000
21
66.875000
31
0.000000
62
7
0
LINE
100
AcDbEntity
100
AcDbLine
8
PCL_Layer
5
11A3
10
379.275000
20
66.875000
30
0.000000
11
365.275000
21
66.875000
31
0.000000
62
7
0
LINE
100
AcDbEntity
100
AcDbLine
8
PCL_Layer
5
11A4
10
0.000000
20
132.700000
30
0.000000
11
469.000000
21
132.700000
31
0.000000
62
7
0
LINE
100
AcDbEntity
100
AcDbLine
8
PCL_Layer
5
11A5
10
469.000000
20
132.700000
30
0.000000
11
469.000000
21
0.000000
31
0.000000
62
7
0
LINE
100
AcDbEntity
100
AcDbLine
8
PCL_Layer
5
11A6
10
469.000000
20
0.000000
30
0.000000
11
0.000000
21
0.000000
31
0.000000
62
7
0
LINE
100
AcDbEntity
100
AcDbLine
8
PCL_Layer
5
11A7
10
0.000000
20
0.000000
30
0.000000
11
0.000000
21
132.700000
31
0.000000
62
7
0
ENDSEC
0
EOF
