999
dxfrw 0.6.3
  0
SECTION
  2
HEADER
  9
$ACADVER
  1
AC1021
  9
$DWGCODEPAGE
  3
ANSI_1252
  9
$INSBASE
 10
0
 20
0
 30
0
  9
$EXTMIN
 10
0
 20
0
 30
0
  9
$EXTMAX
 10
486
 20
184.7556
 30
0
  9
$LIMMIN
 10
0
 20
0
  9
$LIMMAX
 10
420
 20
297
  9
$ORTHOMODE
 70
    0
  9
$REGENMODE
 70
    1
  9
$FILLMODE
 70
    1
  9
$QTEXTMODE
 70
    0
  9
$MIRRTEXT
 70
    0
  9
$LTSCALE
 40
1
  9
$ATTMODE
 70
    0
  9
$TEXTSIZE
 40
2.5
  9
$TRACEWID
 40
15.68
  9
$TEXTSTYLE
  7
STANDARD
  9
$CLAYER
  8
0
  9
$CELTYPE
  6
BYLAYER
  9
$CECOLOR
 62
  256
  9
$CELTSCALE
 40
1
  9
$DISPSILH
 70
    0
  9
$DIMSCALE
 40
2.5
  9
$DIMASZ
 40
2.5
  9
$DIMEXO
 40
0.625
  9
$DIMDLI
 40
3.75
  9
$DIMRND
 40
0
  9
$DIMDLE
 40
0
  9
$DIMEXE
 40
1.25
  9
$DIMTP
 40
0
  9
$DIMTM
 40
0
  9
$DIMTXT
 40
2.5
  9
$DIMCEN
 40
2.5
  9
$DIMTSZ
 40
0
  9
$DIMTOL
 70
    0
  9
$DIMLIM
 70
    0
  9
$DIMTIH
 70
    0
  9
$DIMTOH
 70
    0
  9
$DIMSE1
 70
    0
  9
$DIMSE2
 70
    0
  9
$DIMTAD
 70
    1
  9
$DIMZIN
 70
    8
  9
$DIMBLK
  1

  9
$DIMASO
 70
    1
  9
$DIMSHO
 70
    1
  9
$DIMPOST
  1

  9
$DIMAPOST
  1

  9
$DIMALT
 70
    0
  9
$DIMALTD
 70
    3
  9
$DIMALTF
 40
0.03937
  9
$DIMLFAC
 40
1
  9
$DIMTOFL
 70
    1
  9
$DIMTVP
 40
0
  9
$DIMTIX
 70
    0
  9
$DIMSOXD
 70
    0
  9
$DIMSAH
 70
    0
  9
$DIMBLK1
  1

  9
$DIMBLK2
  1

  9
$DIMSTYLE
  2
STANDARD
  9
$DIMCLRD
 70
    0
  9
$DIMCLRE
 70
    0
  9
$DIMCLRT
 70
    0
  9
$DIMTFAC
 40
1
  9
$DIMGAP
 40
0.625
  9
$DIMJUST
 70
    0
  9
$DIMSD1
 70
    0
  9
$DIMSD2
 70
    0
  9
$DIMTOLJ
 70
    0
  9
$DIMTZIN
 70
    8
  9
$DIMALTZ
 70
    0
  9
$DIMALTTZ
 70
    0
  9
$DIMUPT
 70
    0
  9
$DIMDEC
 70
    2
  9
$DIMTDEC
 70
    2
  9
$DIMALTU
 70
    2
  9
$DIMALTTD
 70
    3
  9
$DIMTXSTY
  7
STANDARD
  9
$DIMAUNIT
 70
    0
  9
$DIMADEC
 70
    0
  9
$DIMALTRND
 40
0
  9
$DIMAZIN
 70
    0
  9
$DIMDSEP
 70
   44
  9
$DIMATFIT
 70
    3
  9
$DIMFRAC
 70
    0
  9
$DIMLDRBLK
  1
STANDARD
  9
$DIMLUNIT
 70
    2
  9
$DIMLWD
 70
   -2
  9
$DIMLWE
 70
   -2
  9
$DIMTMOVE
 70
    0
  9
$DIMFXL
 40
1
  9
$DIMFXLON
 70
    0
  9
$DIMJOGANG
 40
0.7854
  9
$DIMTFILL
 70
    0
  9
$DIMTFILLCLR
 70
    0
  9
$DIMARCSYM
 70
    0
  9
$DIMLTYPE
  6

  9
$DIMLTEX1
  6

  9
$DIMLTEX2
  6

  9
$LUNITS
 70
    2
  9
$LUPREC
 70
    4
  9
$SKETCHINC
 40
1
  9
$FILLETRAD
 40
0
  9
$AUNITS
 70
    0
  9
$AUPREC
 70
    2
  9
$MENU
  1
.
  9
$ELEVATION
 40
0
  9
$PELEVATION
 40
0
  9
$THICKNESS
 40
0
  9
$LIMCHECK
 70
    0
  9
$CHAMFERA
 40
0
  9
$CHAMFERB
 40
0
  9
$CHAMFERC
 40
0
  9
$CHAMFERD
 40
0
  9
$SKPOLY
 70
    0
  9
$USRTIMER
 70
    1
  9
$ANGBASE
 50
0
  9
$ANGDIR
 70
    0
  9
$PDMODE
 70
   34
  9
$PDSIZE
 40
0
  9
$PLINEWID
 40
0
  9
$SPLFRAME
 70
    0
  9
$SPLINETYPE
 70
    2
  9
$SPLINESEGS
 70
    8
  9
$HANDSEED
  5
20000
  9
$SURFTAB1
 70
    6
  9
$SURFTAB2
 70
    6
  9
$SURFTYPE
 70
    6
  9
$SURFU
 70
    6
  9
$SURFV
 70
    6
  9
$UCSBASE
  2

  9
$UCSNAME
  2

  9
$UCSORG
 10
0
 20
0
 30
0
  9
$UCSXDIR
 10
1
 20
0
 30
0
  9
$UCSYDIR
 10
0
 20
1
 30
0
  9
$UCSORTHOREF
  2

  9
$UCSORTHOVIEW
 70
    0
  9
$UCSORGTOP
 10
0
 20
0
 30
0
  9
$UCSORGBOTTOM
 10
0
 20
0
 30
0
  9
$UCSORGLEFT
 10
0
 20
0
 30
0
  9
$UCSORGRIGHT
 10
0
 20
0
 30
0
  9
$UCSORGFRONT
 10
0
 20
0
 30
0
  9
$UCSORGBACK
 10
0
 20
0
 30
0
  9
$PUCSBASE
  2

  9
$PUCSNAME
  2

  9
$PUCSORG
 10
0
 20
0
 30
0
  9
$PUCSXDIR
 10
1
 20
0
 30
0
  9
$PUCSYDIR
 10
0
 20
1
 30
0
  9
$PUCSORTHOREF
  2

  9
$PUCSORTHOVIEW
 70
    0
  9
$PUCSORGTOP
 10
0
 20
0
 30
0
  9
$PUCSORGBOTTOM
 10
0
 20
0
 30
0
  9
$PUCSORGLEFT
 10
0
 20
0
 30
0
  9
$PUCSORGRIGHT
 10
0
 20
0
 30
0
  9
$PUCSORGFRONT
 10
0
 20
0
 30
0
  9
$PUCSORGBACK
 10
0
 20
0
 30
0
  9
$USERI1
 70
    0
  9
$USERI2
 70
    0
  9
$USERI3
 70
    0
  9
$USERI4
 70
    0
  9
$USERI5
 70
    0
  9
$USERR1
 40
0
  9
$USERR2
 40
0
  9
$USERR3
 40
0
  9
$USERR4
 40
0
  9
$USERR5
 40
0
  9
$WORLDVIEW
 70
    1
  9
$SHADEDGE
 70
    3
  9
$SHADEDIF
 70
   70
  9
$TILEMODE
 70
    1
  9
$MAXACTVP
 70
   64
  9
$PINSBASE
 10
0
 20
0
 30
0
  9
$PLIMCHECK
 70
    0
  9
$PEXTMIN
 10
0
 20
0
 30
0
  9
$PEXTMAX
 10
0
 20
0
 30
0
  9
$GRIDMODE
 70
    0
  9
$PLIMMIN
 10
0
 20
0
  9
$PLIMMAX
 10
210
 20
297
  9
$UNITMODE
 70
    0
  9
$VISRETAIN
 70
    1
  9
$PLINEGEN
 70
    0
  9
$PSLTSCALE
 70
    1
  9
$TREEDEPTH
 70
 3020
  9
$CMLSTYLE
  2
Standard
  9
$CMLJUST
 70
    0
  9
$CMLSCALE
 40
20
  9
$PROXYGRAPHICS
 70
    1
  9
$MEASUREMENT
 70
    1
  9
$CELWEIGHT
370
   -1
  9
$ENDCAPS
280
    0
  9
$JOINSTYLE
280
    0
  9
$LWDISPLAY
290
    0
  9
$INSUNITS
 70
    0
  9
$HYPERLINKBASE
  1

  9
$STYLESHEET
  1

  9
$XEDIT
290
    1
  9
$CEPSNTYPE
380
    0
  9
$PSTYLEMODE
290
    1
  9
$EXTNAMES
290
    1
  9
$PSVPSCALE
 40
1
  9
$OLESTARTUP
290
    0
  9
$SORTENTS
280
  127
  9
$INDEXCTL
280
    0
  9
$HIDETEXT
280
    1
  9
$XCLIPFRAME
290
    0
  9
$HALOGAP
280
    0
  9
$OBSCOLOR
 70
  257
  9
$OBSLTYPE
280
    0
  9
$INTERSECTIONDISPLAY
280
    0
  9
$INTERSECTIONCOLOR
 70
  257
  9
$DIMASSOC
280
    1
  9
$PROJECTNAME
  1

  9
$CAMERADISPLAY
290
    0
  9
$LENSLENGTH
 40
50
  9
$CAMERAHEIGHT
 40
0
  9
$STEPSPERSEC
 40
2
  9
$STEPSIZE
 40
50
  9
$3DDWFPREC
 40
2
  9
$PSOLWIDTH
 40
5
  9
$PSOLHEIGHT
 40
80
  9
$LOFTANG1
 40
1.570796326794897
  9
$LOFTANG2
 40
1.570796326794897
  9
$LOFTMAG1
 40
0
  9
$LOFTMAG2
 40
0
  9
$LOFTPARAM
 70
    7
  9
$LOFTNORMALS
280
    1
  9
$LATITUDE
 40
1
  9
$LONGITUDE
 40
1
  9
$NORTHDIRECTION
 40
0
  9
$TIMEZONE
 70
-8000
  9
$LIGHTGLYPHDISPLAY
280
    1
  9
$TILEMODELIGHTSYNCH
280
    1
  9
$SOLIDHIST
280
    1
  9
$SHOWHIST
280
    1
  9
$DWFFRAME
280
    2
  9
$DGNFRAME
280
    0
  9
$REALWORLDSCALE
290
    1
  9
$INTERFERECOLOR
 62
    1
  9
$CSHADOW
280
    0
  9
$SHADOWPLANELOCATION
 40
0
  0
ENDSEC
  0
SECTION
  2
CLASSES
  0
ENDSEC
  0
SECTION
  2
TABLES
  0
TABLE
  2
VPORT
  5
8
330
0
100
AcDbSymbolTable
 70
    1
  0
VPORT
  5
31
330
2
100
AcDbSymbolTableRecord
100
AcDbViewportTableRecord
  2
*ACTIVE
 70
    0
 10
0
 20
0
 11
1
 21
1
 12
242.8585994945708
 22
92.51756171221746
 13
0
 23
0
 14
10
 24
10
 15
10
 25
10
 16
0
 26
0
 36
1
 17
0
 27
0
 37
0
 40
296.3062449431829
 41
1.577004219409283
 42
50
 43
0
 44
0
 50
0
 51
0
 71
    0
 72
  100
 73
    1
 74
    3
 75
    0
 76
    0
 77
    0
 78
    0
281
    0
 65
    1
110
0
120
0
130
0
111
1
121
0
131
0
112
0
122
1
132
0
 79
    0
146
0
348
10020
 60
    7
 61
    5
292
1
282
    1
141
0
142
0
 63
  250
421
3358443
  0
ENDTAB
  0
TABLE
  2
LTYPE
  5
5
330
0
100
AcDbSymbolTable
 70
    4
  0
LTYPE
  5
14
330
5
100
AcDbSymbolTableRecord
100
AcDbLinetypeTableRecord
  2
ByBlock
 70
    0
  3

 72
   65
 73
    0
 40
0
  0
LTYPE
  5
15
330
5
100
AcDbSymbolTableRecord
100
AcDbLinetypeTableRecord
  2
ByLayer
 70
    0
  3

 72
   65
 73
    0
 40
0
  0
LTYPE
  5
16
330
5
100
AcDbSymbolTableRecord
100
AcDbLinetypeTableRecord
  2
Continuous
 70
    0
  3
Solid line
 72
   65
 73
    0
 40
0
  0
LTYPE
  5
32
330
5
100
AcDbSymbolTableRecord
100
AcDbLinetypeTableRecord
  2
DOT
 70
    0
  3
Dot . . . . . . . . . . . . . . . . . . . . . .
 72
   65
 73
    2
 40
6.35
 49
0
 74
    0
 49
-6.35
 74
    0
  0
LTYPE
  5
33
330
5
100
AcDbSymbolTableRecord
100
AcDbLinetypeTableRecord
  2
DOTTINY
 70
    0
  3
Dot (.15x) .....................................
 72
   65
 73
    2
 40
0.9525
 49
0
 74
    0
 49
-0.9525
 74
    0
  0
LTYPE
  5
34
330
5
100
AcDbSymbolTableRecord
100
AcDbLinetypeTableRecord
  2
DOT2
 70
    0
  3
Dot (.5x) .....................................
 72
   65
 73
    2
 40
3.175
 49
0
 74
    0
 49
-3.175
 74
    0
  0
LTYPE
  5
35
330
5
100
AcDbSymbolTableRecord
100
AcDbLinetypeTableRecord
  2
DOTX2
 70
    0
  3
Dot (2x) .  .  .  .  .  .  .  .  .  .  .  .  .
 72
   65
 73
    2
 40
12.7
 49
0
 74
    0
 49
-12.7
 74
    0
  0
LTYPE
  5
36
330
5
100
AcDbSymbolTableRecord
100
AcDbLinetypeTableRecord
  2
DASHED
 70
    0
  3
Dashed _ _ _ _ _ _ _ _ _ _ _ _ _ _ _ _ _
 72
   65
 73
    2
 40
19.05
 49
12.7
 74
    0
 49
-6.35
 74
    0
  0
LTYPE
  5
37
330
5
100
AcDbSymbolTableRecord
100
AcDbLinetypeTableRecord
  2
DASHEDTINY
 70
    0
  3
Dashed (.15x) _ _ _ _ _ _ _ _ _ _ _ _ _ _ _ _ _
 72
   65
 73
    2
 40
2.8575
 49
1.905
 74
    0
 49
-0.9525
 74
    0
  0
LTYPE
  5
38
330
5
100
AcDbSymbolTableRecord
100
AcDbLinetypeTableRecord
  2
DASHED2
 70
    0
  3
Dashed (.5x) _ _ _ _ _ _ _ _ _ _ _ _ _ _ _ _ _
 72
   65
 73
    2
 40
9.524999999999999
 49
6.35
 74
    0
 49
-3.175
 74
    0
  0
LTYPE
  5
39
330
5
100
AcDbSymbolTableRecord
100
AcDbLinetypeTableRecord
  2
DASHEDX2
 70
    0
  3
Dashed (2x) ____  ____  ____  ____  ____  ___
 72
   65
 73
    2
 40
38.09999999999999
 49
25.4
 74
    0
 49
-12.7
 74
    0
  0
LTYPE
  5
3A
330
5
100
AcDbSymbolTableRecord
100
AcDbLinetypeTableRecord
  2
DASHDOT
 70
    0
  3
Dash dot __ . __ . __ . __ . __ . __ . __ . __
 72
   65
 73
    4
 40
25.4
 49
12.7
 74
    0
 49
-6.35
 74
    0
 49
0
 74
    0
 49
-6.35
 74
    0
  0
LTYPE
  5
3B
330
5
100
AcDbSymbolTableRecord
100
AcDbLinetypeTableRecord
  2
DASHDOTTINY
 70
    0
  3
Dash dot (.15x) _._._._._._._._._._._._._._._.
 72
   65
 73
    4
 40
3.81
 49
1.905
 74
    0
 49
-0.9525
 74
    0
 49
0
 74
    0
 49
-0.9525
 74
    0
  0
LTYPE
  5
3C
330
5
100
AcDbSymbolTableRecord
100
AcDbLinetypeTableRecord
  2
DASHDOT2
 70
    0
  3
Dash dot (.5x) _._._._._._._._._._._._._._._.
 72
   65
 73
    4
 40
12.7
 49
6.35
 74
    0
 49
-3.175
 74
    0
 49
0
 74
    0
 49
-3.175
 74
    0
  0
LTYPE
  5
3D
330
5
100
AcDbSymbolTableRecord
100
AcDbLinetypeTableRecord
  2
DASHDOTX2
 70
    0
  3
Dash dot (2x) ____  .  ____  .  ____  .  ___
 72
   65
 73
    4
 40
50.8
 49
25.4
 74
    0
 49
-12.7
 74
    0
 49
0
 74
    0
 49
-12.7
 74
    0
  0
LTYPE
  5
3E
330
5
100
AcDbSymbolTableRecord
100
AcDbLinetypeTableRecord
  2
DIVIDE
 70
    0
  3
Divide ____ . . ____ . . ____ . . ____ . . ____
 72
   65
 73
    6
 40
31.75
 49
12.7
 74
    0
 49
-6.35
 74
    0
 49
0
 74
    0
 49
-6.35
 74
    0
 49
0
 74
    0
 49
-6.35
 74
    0
  0
LTYPE
  5
3F
330
5
100
AcDbSymbolTableRecord
100
AcDbLinetypeTableRecord
  2
DIVIDETINY
 70
    0
  3
Divide (.15x) __..__..__..__..__..__..__..__.._
 72
   65
 73
    6
 40
4.7625
 49
1.905
 74
    0
 49
-0.9525
 74
    0
 49
0
 74
    0
 49
-0.9525
 74
    0
 49
0
 74
    0
 49
-0.9525
 74
    0
  0
LTYPE
  5
40
330
5
100
AcDbSymbolTableRecord
100
AcDbLinetypeTableRecord
  2
DIVIDE2
 70
    0
  3
Divide (.5x) __..__..__..__..__..__..__..__.._
 72
   65
 73
    6
 40
15.875
 49
6.35
 74
    0
 49
-3.175
 74
    0
 49
0
 74
    0
 49
-3.175
 74
    0
 49
0
 74
    0
 49
-3.175
 74
    0
  0
LTYPE
  5
41
330
5
100
AcDbSymbolTableRecord
100
AcDbLinetypeTableRecord
  2
DIVIDEX2
 70
    0
  3
Divide (2x) ________  .  .  ________  .  .  _
 72
   65
 73
    6
 40
63.5
 49
25.4
 74
    0
 49
-12.7
 74
    0
 49
0
 74
    0
 49
-12.7
 74
    0
 49
0
 74
    0
 49
-12.7
 74
    0
  0
LTYPE
  5
42
330
5
100
AcDbSymbolTableRecord
100
AcDbLinetypeTableRecord
  2
BORDER
 70
    0
  3
Border __ __ . __ __ . __ __ . __ __ . __ __ .
 72
   65
 73
    6
 40
44.45
 49
12.7
 74
    0
 49
-6.35
 74
    0
 49
12.7
 74
    0
 49
-6.35
 74
    0
 49
0
 74
    0
 49
-6.35
 74
    0
  0
LTYPE
  5
43
330
5
100
AcDbSymbolTableRecord
100
AcDbLinetypeTableRecord
  2
BORDERTINY
 70
    0
  3
Border (.15x) __.__.__.__.__.__.__.__.__.__.__.
 72
   65
 73
    6
 40
6.6675
 49
1.905
 74
    0
 49
-0.9525
 74
    0
 49
1.905
 74
    0
 49
-0.9525
 74
    0
 49
0
 74
    0
 49
-0.9525
 74
    0
  0
LTYPE
  5
44
330
5
100
AcDbSymbolTableRecord
100
AcDbLinetypeTableRecord
  2
BORDER2
 70
    0
  3
Border (.5x) __.__.__.__.__.__.__.__.__.__.__.
 72
   65
 73
    6
 40
22.225
 49
6.35
 74
    0
 49
-3.175
 74
    0
 49
6.35
 74
    0
 49
-3.175
 74
    0
 49
0
 74
    0
 49
-3.175
 74
    0
  0
LTYPE
  5
45
330
5
100
AcDbSymbolTableRecord
100
AcDbLinetypeTableRecord
  2
BORDERX2
 70
    0
  3
Border (2x) ____  ____  .  ____  ____  .  ___
 72
   65
 73
    6
 40
88.89999999999999
 49
25.4
 74
    0
 49
-12.7
 74
    0
 49
25.4
 74
    0
 49
-12.7
 74
    0
 49
0
 74
    0
 49
-12.7
 74
    0
  0
LTYPE
  5
46
330
5
100
AcDbSymbolTableRecord
100
AcDbLinetypeTableRecord
  2
CENTER
 70
    0
  3
Center ____ _ ____ _ ____ _ ____ _ ____ _ ____
 72
   65
 73
    4
 40
50.8
 49
31.75
 74
    0
 49
-6.35
 74
    0
 49
6.35
 74
    0
 49
-6.35
 74
    0
  0
LTYPE
  5
47
330
5
100
AcDbSymbolTableRecord
100
AcDbLinetypeTableRecord
  2
CENTERTINY
 70
    0
  3
Center (.15x) ___ _ ___ _ ___ _ ___ _ ___ _ ___
 72
   65
 73
    4
 40
7.619999999999999
 49
4.7625
 74
    0
 49
-0.9525
 74
    0
 49
0.9525
 74
    0
 49
-0.9525
 74
    0
  0
LTYPE
  5
48
330
5
100
AcDbSymbolTableRecord
100
AcDbLinetypeTableRecord
  2
CENTER2
 70
    0
  3
Center (.5x) ___ _ ___ _ ___ _ ___ _ ___ _ ___
 72
   65
 73
    4
 40
28.575
 49
19.05
 74
    0
 49
-3.175
 74
    0
 49
3.175
 74
    0
 49
-3.175
 74
    0
  0
LTYPE
  5
49
330
5
100
AcDbSymbolTableRecord
100
AcDbLinetypeTableRecord
  2
CENTERX2
 70
    0
  3
Center (2x) ________  __  ________  __  _____
 72
   65
 73
    4
 40
101.6
 49
63.5
 74
    0
 49
-12.7
 74
    0
 49
12.7
 74
    0
 49
-12.7
 74
    0
  0
ENDTAB
  0
TABLE
  2
LAYER
  5
2
330
0
100
AcDbSymbolTable
 70
    1
  0
LAYER
  5
10
330
2
100
AcDbSymbolTableRecord
100
AcDbLayerTableRecord
  2
0
 70
    0
 62
    7
  6
CONTINUOUS
370
    0
390
F
  0
LAYER
  5
4A
330
2
100
AcDbSymbolTableRecord
100
AcDbLayerTableRecord
  2
PCL_Layer
 70
    0
 62
    7
  6
CONTINUOUS
370
   -3
390
F
  0
ENDTAB
  0
TABLE
  2
STYLE
  5
3
330
0
100
AcDbSymbolTable
 70
    3
  0
STYLE
  5
4B
330
2
100
AcDbSymbolTableRecord
100
AcDbTextStyleTableRecord
  2
Standard
 70
    0
 40
0
 41
1
 50
0
 71
    0
 42
1
  3
txt
  4

  0
ENDTAB
  0
TABLE
  2
VIEW
  5
6
330
0
100
AcDbSymbolTable
 70
    0
  0
ENDTAB
  0
TABLE
  2
UCS
  5
7
330
0
100
AcDbSymbolTable
 70
    0
  0
ENDTAB
  0
TABLE
  2
APPID
  5
9
330
0
100
AcDbSymbolTable
 70
    1
  0
APPID
  5
12
330
9
100
AcDbSymbolTableRecord
100
AcDbRegAppTableRecord
  2
ACAD
 70
    0
  0
APPID
  5
4C
330
9
100
AcDbSymbolTableRecord
100
AcDbRegAppTableRecord
  2
LibreCad
 70
    0
  0
ENDTAB
  0
TABLE
  2
DIMSTYLE
  5
A
330
0
100
AcDbSymbolTable
 70
    1
100
AcDbDimStyleTable
 71
    1
  0
DIMSTYLE
105
4D
330
A
100
AcDbSymbolTableRecord
100
AcDbDimStyleTableRecord
  2
Standard
 70
    0
 40
1
 41
2.5
 42
0.625
 43
0.38
 44
1.25
 45
0
 46
0
 47
0
 48
0
 49
1
140
2.5
141
0.09
142
2.5
143
25.4
144
1
145
0
146
1
147
0.625
148
0
 71
    0
 72
    0
 73
    0
 74
    1
 75
    0
 76
    0
 77
    0
 78
    1
 79
    0
170
    0
171
    2
172
    0
173
    0
174
    0
175
    0
176
    0
177
    0
178
    0
179
    0
271
    2
272
    4
273
    2
274
    2
275
    0
276
    0
277
    2
278
    0
279
    0
280
    0
281
    0
282
    0
283
    1
284
    0
285
    0
286
    0
288
    0
289
    3
340
standard
341

371
   -2
372
   -2
  0
ENDTAB
  0
TABLE
  2
BLOCK_RECORD
  5
1
330
0
100
AcDbSymbolTable
 70
    2
  0
BLOCK_RECORD
  5
1F
330
1
100
AcDbSymbolTableRecord
100
AcDbBlockTableRecord
  2
*Model_Space
 70
    0
280
    1
281
    0
  0
BLOCK_RECORD
  5
1E
330
1
100
AcDbSymbolTableRecord
100
AcDbBlockTableRecord
  2
*Paper_Space
 70
    0
280
    1
281
    0
  0
ENDTAB
  0
ENDSEC
  0
SECTION
  2
BLOCKS
  0
BLOCK
  5
20
330
1F
100
AcDbEntity
  8
0
100
AcDbBlockBegin
  2
*Model_Space
 70
    0
 10
0
 20
0
 30
0
  3
*Model_Space
  1

  0
ENDBLK
  5
21
330
1F
100
AcDbEntity
  8
0
100
AcDbBlockEnd
  0
BLOCK
  5
1C
330
1B
100
AcDbEntity
  8
0
100
AcDbBlockBegin
  2
*Paper_Space
 70
    0
 10
0
 20
0
 30
0
  3
*Paper_Space
  1

  0
ENDBLK
  5
1D
330
1F
100
AcDbEntity
  8
0
100
AcDbBlockEnd
  0
ENDSEC
  0
SECTION
  2
ENTITIES
  0
LINE
  5
4E
100
AcDbEntity
  8
PCL_Layer
  6
ByLayer
 62
    7
370
   -1
100
AcDbLine
 10
16.5662
 20
130.1522
 11
30.5298
 21
130.1522
  0
LINE
  5
4F
100
AcDbEntity
  8
PCL_Layer
  6
ByLayer
 62
    7
370
   -1
100
AcDbLine
 10
16.5662
 20
116.1886
 11
16.5662
 21
130.1522
  0
LINE
  5
50
100
AcDbEntity
  8
PCL_Layer
  6
ByLayer
 62
    7
370
   -1
100
AcDbLine
 10
30.5298
 20
130.1522
 11
30.5298
 21
116.1886
  0
LINE
  5
51
100
AcDbEntity
  8
PCL_Layer
  6
ByLayer
 62
    7
370
   -1
100
AcDbLine
 10
30.5298
 20
116.1886
 11
16.5662
 21
116.1886
  0
LINE
  5
52
100
AcDbEntity
  8
PCL_Layer
  6
ByLayer
 62
    7
370
   -1
100
AcDbLine
 10
445.5855
 20
111.0836
 11
459.5742
 21
111.0836
  0
LINE
  5
53
100
AcDbEntity
  8
PCL_Layer
  6
ByLayer
 62
    7
370
   -1
100
AcDbLine
 10
445.5855
 20
97.1199
 11
445.5855
 21
111.0836
  0
LINE
  5
54
100
AcDbEntity
  8
PCL_Layer
  6
ByLayer
 62
    7
370
   -1
100
AcDbLine
 10
459.5742
 20
111.0836
 11
459.5742
 21
97.1199
  0
LINE
  5
55
100
AcDbEntity
  8
PCL_Layer
  6
ByLayer
 62
    7
370
   -1
100
AcDbLine
 10
459.5742
 20
97.1199
 11
445.5855
 21
97.1199
  0
LINE
  5
56
100
AcDbEntity
  8
PCL_Layer
  6
ByLayer
 62
    7
370
   -1
100
AcDbLine
 10
154.8013
 20
92.0149
 11
168.79
 21
92.0149
  0
LINE
  5
57
100
AcDbEntity
  8
PCL_Layer
  6
ByLayer
 62
    7
370
   -1
100
AcDbLine
 10
154.8013
 20
78.0513
 11
154.8013
 21
92.0149
  0
LINE
  5
58
100
AcDbEntity
  8
PCL_Layer
  6
ByLayer
 62
    7
370
   -1
100
AcDbLine
 10
168.79
 20
92.0149
 11
168.79
 21
78.0513
  0
LINE
  5
59
100
AcDbEntity
  8
PCL_Layer
  6
ByLayer
 62
    7
370
   -1
100
AcDbLine
 10
168.79
 20
78.0513
 11
154.8013
 21
78.0513
  0
LINE
  5
5A
100
AcDbEntity
  8
PCL_Layer
  6
ByLayer
 62
    7
370
   -1
100
AcDbLine
 10
278.7474
 20
111.0836
 11
292.7361
 21
111.0836
  0
LINE
  5
5B
100
AcDbEntity
  8
PCL_Layer
  6
ByLayer
 62
    7
370
   -1
100
AcDbLine
 10
278.7474
 20
97.1199
 11
278.7474
 21
111.0836
  0
LINE
  5
5C
100
AcDbEntity
  8
PCL_Layer
  6
ByLayer
 62
    7
370
   -1
100
AcDbLine
 10
292.7361
 20
111.0836
 11
292.7361
 21
97.1199
  0
LINE
  5
5D
100
AcDbEntity
  8
PCL_Layer
  6
ByLayer
 62
    7
370
   -1
100
AcDbLine
 10
292.7361
 20
97.1199
 11
278.7474
 21
97.1199
  0
LINE
  5
5E
100
AcDbEntity
  8
PCL_Layer
  6
ByLayer
 62
    7
370
   -1
100
AcDbLine
 10
254.8991
 20
130.1522
 11
268.8878
 21
130.1522
  0
LINE
  5
5F
100
AcDbEntity
  8
PCL_Layer
  6
ByLayer
 62
    7
370
   -1
100
AcDbLine
 10
254.8991
 20
116.1886
 11
254.8991
 21
130.1522
  0
LINE
  5
60
100
AcDbEntity
  8
PCL_Layer
  6
ByLayer
 62
    7
370
   -1
100
AcDbLine
 10
268.8878
 20
130.1522
 11
268.8878
 21
116.1886
  0
LINE
  5
61
100
AcDbEntity
  8
PCL_Layer
  6
ByLayer
 62
    7
370
   -1
100
AcDbLine
 10
268.8878
 20
116.1886
 11
254.8991
 21
116.1886
  0
LINE
  5
62
100
AcDbEntity
  8
PCL_Layer
  6
ByLayer
 62
    7
370
   -1
100
AcDbLine
 10
97.5954
 20
130.1522
 11
111.5841
 21
130.1522
  0
LINE
  5
63
100
AcDbEntity
  8
PCL_Layer
  6
ByLayer
 62
    7
370
   -1
100
AcDbLine
 10
97.5954
 20
116.1886
 11
97.5954
 21
130.1522
  0
LINE
  5
64
100
AcDbEntity
  8
PCL_Layer
  6
ByLayer
 62
    7
370
   -1
100
AcDbLine
 10
111.5841
 20
130.1522
 11
111.5841
 21
116.1886
  0
LINE
  5
65
100
AcDbEntity
  8
PCL_Layer
  6
ByLayer
 62
    7
370
   -1
100
AcDbLine
 10
111.5841
 20
116.1886
 11
97.5954
 21
116.1886
  0
LINE
  5
66
100
AcDbEntity
  8
PCL_Layer
  6
ByLayer
 62
    7
370
   -1
100
AcDbLine
 10
169.0903
 20
149.2209
 11
183.0789
 21
149.2209
  0
LINE
  5
67
100
AcDbEntity
  8
PCL_Layer
  6
ByLayer
 62
    7
370
   -1
100
AcDbLine
 10
169.0903
 20
135.2572
 11
169.0903
 21
149.2209
  0
LINE
  5
68
100
AcDbEntity
  8
PCL_Layer
  6
ByLayer
 62
    7
370
   -1
100
AcDbLine
 10
183.0789
 20
149.2209
 11
183.0789
 21
135.2572
  0
LINE
  5
69
100
AcDbEntity
  8
PCL_Layer
  6
ByLayer
 62
    7
370
   -1
100
AcDbLine
 10
183.0789
 20
135.2572
 11
169.0903
 21
135.2572
  0
LINE
  5
6A
100
AcDbEntity
  8
PCL_Layer
  6
ByLayer
 62
    7
370
   -1
100
AcDbLine
 10
407.4482
 20
149.2209
 11
421.4369
 21
149.2209
  0
LINE
  5
6B
100
AcDbEntity
  8
PCL_Layer
  6
ByLayer
 62
    7
370
   -1
100
AcDbLine
 10
407.4482
 20
135.2572
 11
407.4482
 21
149.2209
  0
LINE
  5
6C
100
AcDbEntity
  8
PCL_Layer
  6
ByLayer
 62
    7
370
   -1
100
AcDbLine
 10
421.4369
 20
149.2209
 11
421.4369
 21
135.2572
  0
LINE
  5
6D
100
AcDbEntity
  8
PCL_Layer
  6
ByLayer
 62
    7
370
   -1
100
AcDbLine
 10
421.4369
 20
135.2572
 11
407.4482
 21
135.2572
  0
LINE
  5
6E
100
AcDbEntity
  8
PCL_Layer
  6
ByLayer
 62
    7
370
   -1
100
AcDbLine
 10
307.3754
 20
36.4356
 11
321.3391
 21
36.4356
  0
LINE
  5
6F
100
AcDbEntity
  8
PCL_Layer
  6
ByLayer
 62
    7
370
   -1
100
AcDbLine
 10
307.3754
 20
22.4469
 11
307.3754
 21
36.4356
  0
LINE
  5
70
100
AcDbEntity
  8
PCL_Layer
  6
ByLayer
 62
    7
370
   -1
100
AcDbLine
 10
321.3391
 20
36.4356
 11
321.3391
 21
22.4469
  0
LINE
  5
71
100
AcDbEntity
  8
PCL_Layer
  6
ByLayer
 62
    7
370
   -1
100
AcDbLine
 10
321.3391
 20
22.4469
 11
307.3754
 21
22.4469
  0
LINE
  5
72
100
AcDbEntity
  8
PCL_Layer
  6
ByLayer
 62
    7
370
   -1
100
AcDbLine
 10
357.4243
 20
36.4356
 11
371.413
 21
36.4356
  0
LINE
  5
73
100
AcDbEntity
  8
PCL_Layer
  6
ByLayer
 62
    7
370
   -1
100
AcDbLine
 10
357.4243
 20
22.4469
 11
357.4243
 21
36.4356
  0
LINE
  5
74
100
AcDbEntity
  8
PCL_Layer
  6
ByLayer
 62
    7
370
   -1
100
AcDbLine
 10
371.413
 20
36.4356
 11
371.413
 21
22.4469
  0
LINE
  5
75
100
AcDbEntity
  8
PCL_Layer
  6
ByLayer
 62
    7
370
   -1
100
AcDbLine
 10
371.413
 20
22.4469
 11
357.4243
 21
22.4469
  0
LINE
  5
76
100
AcDbEntity
  8
PCL_Layer
  6
ByLayer
 62
    7
370
   -1
100
AcDbLine
 10
407.4732
 20
36.4356
 11
421.4619
 21
36.4356
  0
LINE
  5
77
100
AcDbEntity
  8
PCL_Layer
  6
ByLayer
 62
    7
370
   -1
100
AcDbLine
 10
407.4732
 20
22.4469
 11
407.4732
 21
36.4356
  0
LINE
  5
78
100
AcDbEntity
  8
PCL_Layer
  6
ByLayer
 62
    7
370
   -1
100
AcDbLine
 10
421.4619
 20
36.4356
 11
421.4619
 21
22.4469
  0
LINE
  5
79
100
AcDbEntity
  8
PCL_Layer
  6
ByLayer
 62
    7
370
   -1
100
AcDbLine
 10
421.4619
 20
22.4469
 11
407.4732
 21
22.4469
  0
LINE
  5
7A
100
AcDbEntity
  8
PCL_Layer
  6
ByLayer
 62
    7
370
   -1
100
AcDbLine
 10
226.2962
 20
149.2209
 11
240.2849
 21
149.2209
  0
LINE
  5
7B
100
AcDbEntity
  8
PCL_Layer
  6
ByLayer
 62
    7
370
   -1
100
AcDbLine
 10
226.2962
 20
135.2572
 11
226.2962
 21
149.2209
  0
LINE
  5
7C
100
AcDbEntity
  8
PCL_Layer
  6
ByLayer
 62
    7
370
   -1
100
AcDbLine
 10
240.2849
 20
149.2209
 11
240.2849
 21
135.2572
  0
LINE
  5
7D
100
AcDbEntity
  8
PCL_Layer
  6
ByLayer
 62
    7
370
   -1
100
AcDbLine
 10
240.2849
 20
135.2572
 11
226.2962
 21
135.2572
  0
LINE
  5
7E
100
AcDbEntity
  8
PCL_Layer
  6
ByLayer
 62
    7
370
   -1
100
AcDbLine
 10
302.5707
 20
149.2209
 11
316.5594
 21
149.2209
  0
LINE
  5
7F
100
AcDbEntity
  8
PCL_Layer
  6
ByLayer
 62
    7
370
   -1
100
AcDbLine
 10
302.5707
 20
135.2572
 11
302.5707
 21
149.2209
  0
LINE
  5
80
100
AcDbEntity
  8
PCL_Layer
  6
ByLayer
 62
    7
370
   -1
100
AcDbLine
 10
316.5594
 20
149.2209
 11
316.5594
 21
135.2572
  0
LINE
  5
81
100
AcDbEntity
  8
PCL_Layer
  6
ByLayer
 62
    7
370
   -1
100
AcDbLine
 10
316.5594
 20
135.2572
 11
302.5707
 21
135.2572
  0
LINE
  5
82
100
AcDbEntity
  8
PCL_Layer
  6
ByLayer
 62
    7
370
   -1
100
AcDbLine
 10
192.9386
 20
92.0149
 11
206.9272
 21
92.0149
  0
LINE
  5
83
100
AcDbEntity
  8
PCL_Layer
  6
ByLayer
 62
    7
370
   -1
100
AcDbLine
 10
192.9386
 20
78.0513
 11
192.9386
 21
92.0149
  0
LINE
  5
84
100
AcDbEntity
  8
PCL_Layer
  6
ByLayer
 62
    7
370
   -1
100
AcDbLine
 10
206.9272
 20
92.0149
 11
206.9272
 21
78.0513
  0
LINE
  5
85
100
AcDbEntity
  8
PCL_Layer
  6
ByLayer
 62
    7
370
   -1
100
AcDbLine
 10
206.9272
 20
78.0513
 11
192.9386
 21
78.0513
  0
LINE
  5
86
100
AcDbEntity
  8
PCL_Layer
  6
ByLayer
 62
    7
370
   -1
100
AcDbLine
 10
26.1005
 20
111.0836
 11
40.0642
 21
111.0836
  0
LINE
  5
87
100
AcDbEntity
  8
PCL_Layer
  6
ByLayer
 62
    7
370
   -1
100
AcDbLine
 10
26.1005
 20
97.1199
 11
26.1005
 21
111.0836
  0
LINE
  5
88
100
AcDbEntity
  8
PCL_Layer
  6
ByLayer
 62
    7
370
   -1
100
AcDbLine
 10
40.0642
 20
111.0836
 11
40.0642
 21
97.1199
  0
LINE
  5
89
100
AcDbEntity
  8
PCL_Layer
  6
ByLayer
 62
    7
370
   -1
100
AcDbLine
 10
40.0642
 20
97.1199
 11
26.1005
 21
97.1199
  0
LINE
  5
8A
100
AcDbEntity
  8
PCL_Layer
  6
ByLayer
 62
    7
370
   -1
100
AcDbLine
 10
188.1589
 20
149.2209
 11
202.1476
 21
149.2209
  0
LINE
  5
8B
100
AcDbEntity
  8
PCL_Layer
  6
ByLayer
 62
    7
370
   -1
100
AcDbLine
 10
188.1589
 20
135.2572
 11
188.1589
 21
149.2209
  0
LINE
  5
8C
100
AcDbEntity
  8
PCL_Layer
  6
ByLayer
 62
    7
370
   -1
100
AcDbLine
 10
202.1476
 20
149.2209
 11
202.1476
 21
135.2572
  0
LINE
  5
8D
100
AcDbEntity
  8
PCL_Layer
  6
ByLayer
 62
    7
370
   -1
100
AcDbLine
 10
202.1476
 20
135.2572
 11
188.1589
 21
135.2572
  0
LINE
  5
8E
100
AcDbEntity
  8
PCL_Layer
  6
ByLayer
 62
    7
370
   -1
100
AcDbLine
 10
231.0758
 20
92.0149
 11
245.0645
 21
92.0149
  0
LINE
  5
8F
100
AcDbEntity
  8
PCL_Layer
  6
ByLayer
 62
    7
370
   -1
100
AcDbLine
 10
231.0758
 20
78.0513
 11
231.0758
 21
92.0149
  0
LINE
  5
90
100
AcDbEntity
  8
PCL_Layer
  6
ByLayer
 62
    7
370
   -1
100
AcDbLine
 10
245.0645
 20
92.0149
 11
245.0645
 21
78.0513
  0
LINE
  5
91
100
AcDbEntity
  8
PCL_Layer
  6
ByLayer
 62
    7
370
   -1
100
AcDbLine
 10
245.0645
 20
78.0513
 11
231.0758
 21
78.0513
  0
LINE
  5
92
100
AcDbEntity
  8
PCL_Layer
  6
ByLayer
 62
    7
370
   -1
100
AcDbLine
 10
254.9242
 20
168.2895
 11
268.8878
 21
168.2895
  0
LINE
  5
93
100
AcDbEntity
  8
PCL_Layer
  6
ByLayer
 62
    7
370
   -1
100
AcDbLine
 10
254.9242
 20
154.3258
 11
254.9242
 21
168.2895
  0
LINE
  5
94
100
AcDbEntity
  8
PCL_Layer
  6
ByLayer
 62
    7
370
   -1
100
AcDbLine
 10
268.8878
 20
168.2895
 11
268.8878
 21
154.3258
  0
LINE
  5
95
100
AcDbEntity
  8
PCL_Layer
  6
ByLayer
 62
    7
370
   -1
100
AcDbLine
 10
268.8878
 20
154.3258
 11
254.9242
 21
154.3258
  0
LINE
  5
96
100
AcDbEntity
  8
PCL_Layer
  6
ByLayer
 62
    7
370
   -1
100
AcDbLine
 10
436.0512
 20
149.2209
 11
450.0399
 21
149.2209
  0
LINE
  5
97
100
AcDbEntity
  8
PCL_Layer
  6
ByLayer
 62
    7
370
   -1
100
AcDbLine
 10
436.0512
 20
135.2572
 11
436.0512
 21
149.2209
  0
LINE
  5
98
100
AcDbEntity
  8
PCL_Layer
  6
ByLayer
 62
    7
370
   -1
100
AcDbLine
 10
450.0399
 20
149.2209
 11
450.0399
 21
135.2572
  0
LINE
  5
99
100
AcDbEntity
  8
PCL_Layer
  6
ByLayer
 62
    7
370
   -1
100
AcDbLine
 10
450.0399
 20
135.2572
 11
436.0512
 21
135.2572
  0
LINE
  5
9A
100
AcDbEntity
  8
PCL_Layer
  6
ByLayer
 62
    7
370
   -1
100
AcDbLine
 10
145.267
 20
111.0836
 11
159.2556
 21
111.0836
  0
LINE
  5
9B
100
AcDbEntity
  8
PCL_Layer
  6
ByLayer
 62
    7
370
   -1
100
AcDbLine
 10
145.267
 20
97.1199
 11
145.267
 21
111.0836
  0
LINE
  5
9C
100
AcDbEntity
  8
PCL_Layer
  6
ByLayer
 62
    7
370
   -1
100
AcDbLine
 10
159.2556
 20
111.0836
 11
159.2556
 21
97.1199
  0
LINE
  5
9D
100
AcDbEntity
  8
PCL_Layer
  6
ByLayer
 62
    7
370
   -1
100
AcDbLine
 10
159.2556
 20
97.1199
 11
145.267
 21
97.1199
  0
LINE
  5
9E
100
AcDbEntity
  8
PCL_Layer
  6
ByLayer
 62
    7
370
   -1
100
AcDbLine
 10
369.3109
 20
149.2209
 11
383.2996
 21
149.2209
  0
LINE
  5
9F
100
AcDbEntity
  8
PCL_Layer
  6
ByLayer
 62
    7
370
   -1
100
AcDbLine
 10
369.3109
 20
135.2572
 11
369.3109
 21
149.2209
  0
LINE
  5
A0
100
AcDbEntity
  8
PCL_Layer
  6
ByLayer
 62
    7
370
   -1
100
AcDbLine
 10
383.2996
 20
149.2209
 11
383.2996
 21
135.2572
  0
LINE
  5
A1
100
AcDbEntity
  8
PCL_Layer
  6
ByLayer
 62
    7
370
   -1
100
AcDbLine
 10
383.2996
 20
135.2572
 11
369.3109
 21
135.2572
  0
LINE
  5
A2
100
AcDbEntity
  8
PCL_Layer
  6
ByLayer
 62
    7
370
   -1
100
AcDbLine
 10
293.0364
 20
130.1522
 11
307.0251
 21
130.1522
  0
LINE
  5
A3
100
AcDbEntity
  8
PCL_Layer
  6
ByLayer
 62
    7
370
   -1
100
AcDbLine
 10
293.0364
 20
116.1886
 11
293.0364
 21
130.1522
  0
LINE
  5
A4
100
AcDbEntity
  8
PCL_Layer
  6
ByLayer
 62
    7
370
   -1
100
AcDbLine
 10
307.0251
 20
130.1522
 11
307.0251
 21
116.1886
  0
LINE
  5
A5
100
AcDbEntity
  8
PCL_Layer
  6
ByLayer
 62
    7
370
   -1
100
AcDbLine
 10
307.0251
 20
116.1886
 11
293.0364
 21
116.1886
  0
LINE
  5
A6
100
AcDbEntity
  8
PCL_Layer
  6
ByLayer
 62
    7
370
   -1
100
AcDbLine
 10
240.6102
 20
111.0836
 11
254.5988
 21
111.0836
  0
LINE
  5
A7
100
AcDbEntity
  8
PCL_Layer
  6
ByLayer
 62
    7
370
   -1
100
AcDbLine
 10
240.6102
 20
97.1199
 11
240.6102
 21
111.0836
  0
LINE
  5
A8
100
AcDbEntity
  8
PCL_Layer
  6
ByLayer
 62
    7
370
   -1
100
AcDbLine
 10
254.5988
 20
111.0836
 11
254.5988
 21
97.1199
  0
LINE
  5
A9
100
AcDbEntity
  8
PCL_Layer
  6
ByLayer
 62
    7
370
   -1
100
AcDbLine
 10
254.5988
 20
97.1199
 11
240.6102
 21
97.1199
  0
LINE
  5
AA
100
AcDbEntity
  8
PCL_Layer
  6
ByLayer
 62
    7
370
   -1
100
AcDbLine
 10
235.8305
 20
130.1522
 11
249.8192
 21
130.1522
  0
LINE
  5
AB
100
AcDbEntity
  8
PCL_Layer
  6
ByLayer
 62
    7
370
   -1
100
AcDbLine
 10
235.8305
 20
116.1886
 11
235.8305
 21
130.1522
  0
LINE
  5
AC
100
AcDbEntity
  8
PCL_Layer
  6
ByLayer
 62
    7
370
   -1
100
AcDbLine
 10
249.8192
 20
130.1522
 11
249.8192
 21
116.1886
  0
LINE
  5
AD
100
AcDbEntity
  8
PCL_Layer
  6
ByLayer
 62
    7
370
   -1
100
AcDbLine
 10
249.8192
 20
116.1886
 11
235.8305
 21
116.1886
  0
LINE
  5
AE
100
AcDbEntity
  8
PCL_Layer
  6
ByLayer
 62
    7
370
   -1
100
AcDbLine
 10
450.3652
 20
72.94629999999999
 11
464.3538
 21
72.94629999999999
  0
LINE
  5
AF
100
AcDbEntity
  8
PCL_Layer
  6
ByLayer
 62
    7
370
   -1
100
AcDbLine
 10
450.3652
 20
58.9827
 11
450.3652
 21
72.94629999999999
  0
LINE
  5
B0
100
AcDbEntity
  8
PCL_Layer
  6
ByLayer
 62
    7
370
   -1
100
AcDbLine
 10
464.3538
 20
72.94629999999999
 11
464.3538
 21
58.9827
  0
LINE
  5
B1
100
AcDbEntity
  8
PCL_Layer
  6
ByLayer
 62
    7
370
   -1
100
AcDbLine
 10
464.3538
 20
58.9827
 11
450.3652
 21
58.9827
  0
LINE
  5
B2
100
AcDbEntity
  8
PCL_Layer
  6
ByLayer
 62
    7
370
   -1
100
AcDbLine
 10
140.4873
 20
130.1522
 11
154.476
 21
130.1522
  0
LINE
  5
B3
100
AcDbEntity
  8
PCL_Layer
  6
ByLayer
 62
    7
370
   -1
100
AcDbLine
 10
140.4873
 20
116.1886
 11
140.4873
 21
130.1522
  0
LINE
  5
B4
100
AcDbEntity
  8
PCL_Layer
  6
ByLayer
 62
    7
370
   -1
100
AcDbLine
 10
154.476
 20
130.1522
 11
154.476
 21
116.1886
  0
LINE
  5
B5
100
AcDbEntity
  8
PCL_Layer
  6
ByLayer
 62
    7
370
   -1
100
AcDbLine
 10
154.476
 20
116.1886
 11
140.4873
 21
116.1886
  0
LINE
  5
B6
100
AcDbEntity
  8
PCL_Layer
  6
ByLayer
 62
    7
370
   -1
100
AcDbLine
 10
445.5855
 20
168.2895
 11
459.5742
 21
168.2895
  0
LINE
  5
B7
100
AcDbEntity
  8
PCL_Layer
  6
ByLayer
 62
    7
370
   -1
100
AcDbLine
 10
445.5855
 20
154.3258
 11
445.5855
 21
168.2895
  0
LINE
  5
B8
100
AcDbEntity
  8
PCL_Layer
  6
ByLayer
 62
    7
370
   -1
100
AcDbLine
 10
459.5742
 20
168.2895
 11
459.5742
 21
154.3258
  0
LINE
  5
B9
100
AcDbEntity
  8
PCL_Layer
  6
ByLayer
 62
    7
370
   -1
100
AcDbLine
 10
459.5742
 20
154.3258
 11
445.5855
 21
154.3258
  0
LINE
  5
BA
100
AcDbEntity
  8
PCL_Layer
  6
ByLayer
 62
    7
370
   -1
100
AcDbLine
 10
64.23779999999999
 20
149.2209
 11
78.20140000000001
 21
149.2209
  0
LINE
  5
BB
100
AcDbEntity
  8
PCL_Layer
  6
ByLayer
 62
    7
370
   -1
100
AcDbLine
 10
64.23779999999999
 20
135.2572
 11
64.23779999999999
 21
149.2209
  0
LINE
  5
BC
100
AcDbEntity
  8
PCL_Layer
  6
ByLayer
 62
    7
370
   -1
100
AcDbLine
 10
78.20140000000001
 20
149.2209
 11
78.20140000000001
 21
135.2572
  0
LINE
  5
BD
100
AcDbEntity
  8
PCL_Layer
  6
ByLayer
 62
    7
370
   -1
100
AcDbLine
 10
78.20140000000001
 20
135.2572
 11
64.23779999999999
 21
135.2572
  0
LINE
  5
BE
100
AcDbEntity
  8
PCL_Layer
  6
ByLayer
 62
    7
370
   -1
100
AcDbLine
 10
26.1005
 20
168.2895
 11
40.0642
 21
168.2895
  0
LINE
  5
BF
100
AcDbEntity
  8
PCL_Layer
  6
ByLayer
 62
    7
370
   -1
100
AcDbLine
 10
26.1005
 20
154.3258
 11
26.1005
 21
168.2895
  0
LINE
  5
C0
100
AcDbEntity
  8
PCL_Layer
  6
ByLayer
 62
    7
370
   -1
100
AcDbLine
 10
40.0642
 20
168.2895
 11
40.0642
 21
154.3258
  0
LINE
  5
C1
100
AcDbEntity
  8
PCL_Layer
  6
ByLayer
 62
    7
370
   -1
100
AcDbLine
 10
40.0642
 20
154.3258
 11
26.1005
 21
154.3258
  0
LINE
  5
C2
100
AcDbEntity
  8
PCL_Layer
  6
ByLayer
 62
    7
370
   -1
100
AcDbLine
 10
40.3895
 20
92.0149
 11
54.3781
 21
92.0149
  0
LINE
  5
C3
100
AcDbEntity
  8
PCL_Layer
  6
ByLayer
 62
    7
370
   -1
100
AcDbLine
 10
40.3895
 20
78.0513
 11
40.3895
 21
92.0149
  0
LINE
  5
C4
100
AcDbEntity
  8
PCL_Layer
  6
ByLayer
 62
    7
370
   -1
100
AcDbLine
 10
54.3781
 20
92.0149
 11
54.3781
 21
78.0513
  0
LINE
  5
C5
100
AcDbEntity
  8
PCL_Layer
  6
ByLayer
 62
    7
370
   -1
100
AcDbLine
 10
54.3781
 20
78.0513
 11
40.3895
 21
78.0513
  0
LINE
  5
C6
100
AcDbEntity
  8
PCL_Layer
  6
ByLayer
 62
    7
370
   -1
100
AcDbLine
 10
164.3356
 20
72.94629999999999
 11
178.3243
 21
72.94629999999999
  0
LINE
  5
C7
100
AcDbEntity
  8
PCL_Layer
  6
ByLayer
 62
    7
370
   -1
100
AcDbLine
 10
164.3356
 20
58.9827
 11
164.3356
 21
72.94629999999999
  0
LINE
  5
C8
100
AcDbEntity
  8
PCL_Layer
  6
ByLayer
 62
    7
370
   -1
100
AcDbLine
 10
178.3243
 20
72.94629999999999
 11
178.3243
 21
58.9827
  0
LINE
  5
C9
100
AcDbEntity
  8
PCL_Layer
  6
ByLayer
 62
    7
370
   -1
100
AcDbLine
 10
178.3243
 20
58.9827
 11
164.3356
 21
58.9827
  0
LINE
  5
CA
100
AcDbEntity
  8
PCL_Layer
  6
ByLayer
 62
    7
370
   -1
100
AcDbLine
 10
21.3208
 20
72.94629999999999
 11
35.3095
 21
72.94629999999999
  0
LINE
  5
CB
100
AcDbEntity
  8
PCL_Layer
  6
ByLayer
 62
    7
370
   -1
100
AcDbLine
 10
21.3208
 20
58.9827
 11
21.3208
 21
72.94629999999999
  0
LINE
  5
CC
100
AcDbEntity
  8
PCL_Layer
  6
ByLayer
 62
    7
370
   -1
100
AcDbLine
 10
35.3095
 20
72.94629999999999
 11
35.3095
 21
58.9827
  0
LINE
  5
CD
100
AcDbEntity
  8
PCL_Layer
  6
ByLayer
 62
    7
370
   -1
100
AcDbLine
 10
35.3095
 20
58.9827
 11
21.3208
 21
58.9827
  0
LINE
  5
CE
100
AcDbEntity
  8
PCL_Layer
  6
ByLayer
 62
    7
370
   -1
100
AcDbLine
 10
135.7327
 20
72.94629999999999
 11
149.7213
 21
72.94629999999999
  0
LINE
  5
CF
100
AcDbEntity
  8
PCL_Layer
  6
ByLayer
 62
    7
370
   -1
100
AcDbLine
 10
135.7327
 20
58.9827
 11
135.7327
 21
72.94629999999999
  0
LINE
  5
D0
100
AcDbEntity
  8
PCL_Layer
  6
ByLayer
 62
    7
370
   -1
100
AcDbLine
 10
149.7213
 20
72.94629999999999
 11
149.7213
 21
58.9827
  0
LINE
  5
D1
100
AcDbEntity
  8
PCL_Layer
  6
ByLayer
 62
    7
370
   -1
100
AcDbLine
 10
149.7213
 20
58.9827
 11
135.7327
 21
58.9827
  0
LINE
  5
D2
100
AcDbEntity
  8
PCL_Layer
  6
ByLayer
 62
    7
370
   -1
100
AcDbLine
 10
283.5021
 20
149.2209
 11
297.4908
 21
149.2209
  0
LINE
  5
D3
100
AcDbEntity
  8
PCL_Layer
  6
ByLayer
 62
    7
370
   -1
100
AcDbLine
 10
283.5021
 20
135.2572
 11
283.5021
 21
149.2209
  0
LINE
  5
D4
100
AcDbEntity
  8
PCL_Layer
  6
ByLayer
 62
    7
370
   -1
100
AcDbLine
 10
297.4908
 20
149.2209
 11
297.4908
 21
135.2572
  0
LINE
  5
D5
100
AcDbEntity
  8
PCL_Layer
  6
ByLayer
 62
    7
370
   -1
100
AcDbLine
 10
297.4908
 20
135.2572
 11
283.5021
 21
135.2572
  0
LINE
  5
D6
100
AcDbEntity
  8
PCL_Layer
  6
ByLayer
 62
    7
370
   -1
100
AcDbLine
 10
221.5415
 20
111.0836
 11
235.5302
 21
111.0836
  0
LINE
  5
D7
100
AcDbEntity
  8
PCL_Layer
  6
ByLayer
 62
    7
370
   -1
100
AcDbLine
 10
221.5415
 20
97.1199
 11
221.5415
 21
111.0836
  0
LINE
  5
D8
100
AcDbEntity
  8
PCL_Layer
  6
ByLayer
 62
    7
370
   -1
100
AcDbLine
 10
235.5302
 20
111.0836
 11
235.5302
 21
97.1199
  0
LINE
  5
D9
100
AcDbEntity
  8
PCL_Layer
  6
ByLayer
 62
    7
370
   -1
100
AcDbLine
 10
235.5302
 20
97.1199
 11
221.5415
 21
97.1199
  0
LINE
  5
DA
100
AcDbEntity
  8
PCL_Layer
  6
ByLayer
 62
    7
370
   -1
100
AcDbLine
 10
159.556
 20
130.1522
 11
173.5446
 21
130.1522
  0
LINE
  5
DB
100
AcDbEntity
  8
PCL_Layer
  6
ByLayer
 62
    7
370
   -1
100
AcDbLine
 10
159.556
 20
116.1886
 11
159.556
 21
130.1522
  0
LINE
  5
DC
100
AcDbEntity
  8
PCL_Layer
  6
ByLayer
 62
    7
370
   -1
100
AcDbLine
 10
173.5446
 20
130.1522
 11
173.5446
 21
116.1886
  0
LINE
  5
DD
100
AcDbEntity
  8
PCL_Layer
  6
ByLayer
 62
    7
370
   -1
100
AcDbLine
 10
173.5446
 20
116.1886
 11
159.556
 21
116.1886
  0
LINE
  5
DE
100
AcDbEntity
  8
PCL_Layer
  6
ByLayer
 62
    7
370
   -1
100
AcDbLine
 10
49.9238
 20
72.94629999999999
 11
63.9125
 21
72.94629999999999
  0
LINE
  5
DF
100
AcDbEntity
  8
PCL_Layer
  6
ByLayer
 62
    7
370
   -1
100
AcDbLine
 10
49.9238
 20
58.9827
 11
49.9238
 21
72.94629999999999
  0
LINE
  5
E0
100
AcDbEntity
  8
PCL_Layer
  6
ByLayer
 62
    7
370
   -1
100
AcDbLine
 10
63.9125
 20
72.94629999999999
 11
63.9125
 21
58.9827
  0
LINE
  5
E1
100
AcDbEntity
  8
PCL_Layer
  6
ByLayer
 62
    7
370
   -1
100
AcDbLine
 10
63.9125
 20
58.9827
 11
49.9238
 21
58.9827
  0
LINE
  5
E2
100
AcDbEntity
  8
PCL_Layer
  6
ByLayer
 62
    7
370
   -1
100
AcDbLine
 10
264.4334
 20
149.2209
 11
278.4221
 21
149.2209
  0
LINE
  5
E3
100
AcDbEntity
  8
PCL_Layer
  6
ByLayer
 62
    7
370
   -1
100
AcDbLine
 10
264.4334
 20
135.2572
 11
264.4334
 21
149.2209
  0
LINE
  5
E4
100
AcDbEntity
  8
PCL_Layer
  6
ByLayer
 62
    7
370
   -1
100
AcDbLine
 10
278.4221
 20
149.2209
 11
278.4221
 21
135.2572
  0
LINE
  5
E5
100
AcDbEntity
  8
PCL_Layer
  6
ByLayer
 62
    7
370
   -1
100
AcDbLine
 10
278.4221
 20
135.2572
 11
264.4334
 21
135.2572
  0
LINE
  5
E6
100
AcDbEntity
  8
PCL_Layer
  6
ByLayer
 62
    7
370
   -1
100
AcDbLine
 10
316.8847
 20
111.0836
 11
330.8734
 21
111.0836
  0
LINE
  5
E7
100
AcDbEntity
  8
PCL_Layer
  6
ByLayer
 62
    7
370
   -1
100
AcDbLine
 10
316.8847
 20
97.1199
 11
316.8847
 21
111.0836
  0
LINE
  5
E8
100
AcDbEntity
  8
PCL_Layer
  6
ByLayer
 62
    7
370
   -1
100
AcDbLine
 10
330.8734
 20
111.0836
 11
330.8734
 21
97.1199
  0
LINE
  5
E9
100
AcDbEntity
  8
PCL_Layer
  6
ByLayer
 62
    7
370
   -1
100
AcDbLine
 10
330.8734
 20
97.1199
 11
316.8847
 21
97.1199
  0
LINE
  5
EA
100
AcDbEntity
  8
PCL_Layer
  6
ByLayer
 62
    7
370
   -1
100
AcDbLine
 10
197.6932
 20
130.1522
 11
211.6819
 21
130.1522
  0
LINE
  5
EB
100
AcDbEntity
  8
PCL_Layer
  6
ByLayer
 62
    7
370
   -1
100
AcDbLine
 10
197.6932
 20
116.1886
 11
197.6932
 21
130.1522
  0
LINE
  5
EC
100
AcDbEntity
  8
PCL_Layer
  6
ByLayer
 62
    7
370
   -1
100
AcDbLine
 10
211.6819
 20
130.1522
 11
211.6819
 21
116.1886
  0
LINE
  5
ED
100
AcDbEntity
  8
PCL_Layer
  6
ByLayer
 62
    7
370
   -1
100
AcDbLine
 10
211.6819
 20
116.1886
 11
197.6932
 21
116.1886
  0
LINE
  5
EE
100
AcDbEntity
  8
PCL_Layer
  6
ByLayer
 62
    7
370
   -1
100
AcDbLine
 10
178.6496
 20
168.2895
 11
192.6133
 21
168.2895
  0
LINE
  5
EF
100
AcDbEntity
  8
PCL_Layer
  6
ByLayer
 62
    7
370
   -1
100
AcDbLine
 10
178.6496
 20
154.3258
 11
178.6496
 21
168.2895
  0
LINE
  5
F0
100
AcDbEntity
  8
PCL_Layer
  6
ByLayer
 62
    7
370
   -1
100
AcDbLine
 10
192.6133
 20
168.2895
 11
192.6133
 21
154.3258
  0
LINE
  5
F1
100
AcDbEntity
  8
PCL_Layer
  6
ByLayer
 62
    7
370
   -1
100
AcDbLine
 10
192.6133
 20
154.3258
 11
178.6496
 21
154.3258
  0
LINE
  5
F2
100
AcDbEntity
  8
PCL_Layer
  6
ByLayer
 62
    7
370
   -1
100
AcDbLine
 10
245.3648
 20
149.2209
 11
259.3535
 21
149.2209
  0
LINE
  5
F3
100
AcDbEntity
  8
PCL_Layer
  6
ByLayer
 62
    7
370
   -1
100
AcDbLine
 10
245.3648
 20
135.2572
 11
245.3648
 21
149.2209
  0
LINE
  5
F4
100
AcDbEntity
  8
PCL_Layer
  6
ByLayer
 62
    7
370
   -1
100
AcDbLine
 10
259.3535
 20
149.2209
 11
259.3535
 21
135.2572
  0
LINE
  5
F5
100
AcDbEntity
  8
PCL_Layer
  6
ByLayer
 62
    7
370
   -1
100
AcDbLine
 10
259.3535
 20
135.2572
 11
245.3648
 21
135.2572
  0
LINE
  5
F6
100
AcDbEntity
  8
PCL_Layer
  6
ByLayer
 62
    7
370
   -1
100
AcDbLine
 10
150.0216
 20
149.2209
 11
164.0103
 21
149.2209
  0
LINE
  5
F7
100
AcDbEntity
  8
PCL_Layer
  6
ByLayer
 62
    7
370
   -1
100
AcDbLine
 10
150.0216
 20
135.2572
 11
150.0216
 21
149.2209
  0
LINE
  5
F8
100
AcDbEntity
  8
PCL_Layer
  6
ByLayer
 62
    7
370
   -1
100
AcDbLine
 10
164.0103
 20
149.2209
 11
164.0103
 21
135.2572
  0
LINE
  5
F9
100
AcDbEntity
  8
PCL_Layer
  6
ByLayer
 62
    7
370
   -1
100
AcDbLine
 10
164.0103
 20
135.2572
 11
150.0216
 21
135.2572
  0
LINE
  5
FA
100
AcDbEntity
  8
PCL_Layer
  6
ByLayer
 62
    7
370
   -1
100
AcDbLine
 10
240.6102
 20
72.94629999999999
 11
254.5988
 21
72.94629999999999
  0
LINE
  5
FB
100
AcDbEntity
  8
PCL_Layer
  6
ByLayer
 62
    7
370
   -1
100
AcDbLine
 10
240.6102
 20
58.9827
 11
240.6102
 21
72.94629999999999
  0
LINE
  5
FC
100
AcDbEntity
  8
PCL_Layer
  6
ByLayer
 62
    7
370
   -1
100
AcDbLine
 10
254.5988
 20
72.94629999999999
 11
254.5988
 21
58.9827
  0
LINE
  5
FD
100
AcDbEntity
  8
PCL_Layer
  6
ByLayer
 62
    7
370
   -1
100
AcDbLine
 10
254.5988
 20
58.9827
 11
240.6102
 21
58.9827
  0
LINE
  5
FE
100
AcDbEntity
  8
PCL_Layer
  6
ByLayer
 62
    7
370
   -1
100
AcDbLine
 10
264.4084
 20
72.94629999999999
 11
278.3971
 21
72.94629999999999
  0
LINE
  5
FF
100
AcDbEntity
  8
PCL_Layer
  6
ByLayer
 62
    7
370
   -1
100
AcDbLine
 10
264.4084
 20
58.9827
 11
264.4084
 21
72.94629999999999
  0
LINE
  5
100
100
AcDbEntity
  8
PCL_Layer
  6
ByLayer
 62
    7
370
   -1
100
AcDbLine
 10
278.3971
 20
72.94629999999999
 11
278.3971
 21
58.9827
  0
LINE
  5
101
100
AcDbEntity
  8
PCL_Layer
  6
ByLayer
 62
    7
370
   -1
100
AcDbLine
 10
278.3971
 20
58.9827
 11
264.4084
 21
58.9827
  0
LINE
  5
102
100
AcDbEntity
  8
PCL_Layer
  6
ByLayer
 62
    7
370
   -1
100
AcDbLine
 10
130.953
 20
149.2209
 11
144.9417
 21
149.2209
  0
LINE
  5
103
100
AcDbEntity
  8
PCL_Layer
  6
ByLayer
 62
    7
370
   -1
100
AcDbLine
 10
130.953
 20
135.2572
 11
130.953
 21
149.2209
  0
LINE
  5
104
100
AcDbEntity
  8
PCL_Layer
  6
ByLayer
 62
    7
370
   -1
100
AcDbLine
 10
144.9417
 20
149.2209
 11
144.9417
 21
135.2572
  0
LINE
  5
105
100
AcDbEntity
  8
PCL_Layer
  6
ByLayer
 62
    7
370
   -1
100
AcDbLine
 10
144.9417
 20
135.2572
 11
130.953
 21
135.2572
  0
LINE
  5
106
100
AcDbEntity
  8
PCL_Layer
  6
ByLayer
 62
    7
370
   -1
100
AcDbLine
 10
207.2276
 20
149.2209
 11
221.2162
 21
149.2209
  0
LINE
  5
107
100
AcDbEntity
  8
PCL_Layer
  6
ByLayer
 62
    7
370
   -1
100
AcDbLine
 10
207.2276
 20
135.2572
 11
207.2276
 21
149.2209
  0
LINE
  5
108
100
AcDbEntity
  8
PCL_Layer
  6
ByLayer
 62
    7
370
   -1
100
AcDbLine
 10
221.2162
 20
149.2209
 11
221.2162
 21
135.2572
  0
LINE
  5
109
100
AcDbEntity
  8
PCL_Layer
  6
ByLayer
 62
    7
370
   -1
100
AcDbLine
 10
221.2162
 20
135.2572
 11
207.2276
 21
135.2572
  0
LINE
  5
10A
100
AcDbEntity
  8
PCL_Layer
  6
ByLayer
 62
    7
370
   -1
100
AcDbLine
 10
121.4187
 20
130.1522
 11
135.4073
 21
130.1522
  0
LINE
  5
10B
100
AcDbEntity
  8
PCL_Layer
  6
ByLayer
 62
    7
370
   -1
100
AcDbLine
 10
121.4187
 20
116.1886
 11
121.4187
 21
130.1522
  0
LINE
  5
10C
100
AcDbEntity
  8
PCL_Layer
  6
ByLayer
 62
    7
370
   -1
100
AcDbLine
 10
135.4073
 20
130.1522
 11
135.4073
 21
116.1886
  0
LINE
  5
10D
100
AcDbEntity
  8
PCL_Layer
  6
ByLayer
 62
    7
370
   -1
100
AcDbLine
 10
135.4073
 20
116.1886
 11
121.4187
 21
116.1886
  0
LINE
  5
10E
100
AcDbEntity
  8
PCL_Layer
  6
ByLayer
 62
    7
370
   -1
100
AcDbLine
 10
111.9094
 20
149.2209
 11
125.873
 21
149.2209
  0
LINE
  5
10F
100
AcDbEntity
  8
PCL_Layer
  6
ByLayer
 62
    7
370
   -1
100
AcDbLine
 10
111.9094
 20
135.2572
 11
111.9094
 21
149.2209
  0
LINE
  5
110
100
AcDbEntity
  8
PCL_Layer
  6
ByLayer
 62
    7
370
   -1
100
AcDbLine
 10
125.873
 20
149.2209
 11
125.873
 21
135.2572
  0
LINE
  5
111
100
AcDbEntity
  8
PCL_Layer
  6
ByLayer
 62
    7
370
   -1
100
AcDbLine
 10
125.873
 20
135.2572
 11
111.9094
 21
135.2572
  0
LINE
  5
112
100
AcDbEntity
  8
PCL_Layer
  6
ByLayer
 62
    7
370
   -1
100
AcDbLine
 10
102.3751
 20
168.2895
 11
116.3387
 21
168.2895
  0
LINE
  5
113
100
AcDbEntity
  8
PCL_Layer
  6
ByLayer
 62
    7
370
   -1
100
AcDbLine
 10
102.3751
 20
154.3258
 11
102.3751
 21
168.2895
  0
LINE
  5
114
100
AcDbEntity
  8
PCL_Layer
  6
ByLayer
 62
    7
370
   -1
100
AcDbLine
 10
116.3387
 20
168.2895
 11
116.3387
 21
154.3258
  0
LINE
  5
115
100
AcDbEntity
  8
PCL_Layer
  6
ByLayer
 62
    7
370
   -1
100
AcDbLine
 10
116.3387
 20
154.3258
 11
102.3751
 21
154.3258
  0
LINE
  5
116
100
AcDbEntity
  8
PCL_Layer
  6
ByLayer
 62
    7
370
   -1
100
AcDbLine
 10
64.23779999999999
 20
130.1522
 11
78.20140000000001
 21
130.1522
  0
LINE
  5
117
100
AcDbEntity
  8
PCL_Layer
  6
ByLayer
 62
    7
370
   -1
100
AcDbLine
 10
64.23779999999999
 20
116.1886
 11
64.23779999999999
 21
130.1522
  0
LINE
  5
118
100
AcDbEntity
  8
PCL_Layer
  6
ByLayer
 62
    7
370
   -1
100
AcDbLine
 10
78.20140000000001
 20
130.1522
 11
78.20140000000001
 21
116.1886
  0
LINE
  5
119
100
AcDbEntity
  8
PCL_Layer
  6
ByLayer
 62
    7
370
   -1
100
AcDbLine
 10
78.20140000000001
 20
116.1886
 11
64.23779999999999
 21
116.1886
  0
LINE
  5
11A
100
AcDbEntity
  8
PCL_Layer
  6
ByLayer
 62
    7
370
   -1
100
AcDbLine
 10
140.5123
 20
168.2895
 11
154.476
 21
168.2895
  0
LINE
  5
11B
100
AcDbEntity
  8
PCL_Layer
  6
ByLayer
 62
    7
370
   -1
100
AcDbLine
 10
140.5123
 20
154.3258
 11
140.5123
 21
168.2895
  0
LINE
  5
11C
100
AcDbEntity
  8
PCL_Layer
  6
ByLayer
 62
    7
370
   -1
100
AcDbLine
 10
154.476
 20
168.2895
 11
154.476
 21
154.3258
  0
LINE
  5
11D
100
AcDbEntity
  8
PCL_Layer
  6
ByLayer
 62
    7
370
   -1
100
AcDbLine
 10
154.476
 20
154.3258
 11
140.5123
 21
154.3258
  0
LINE
  5
11E
100
AcDbEntity
  8
PCL_Layer
  6
ByLayer
 62
    7
370
   -1
100
AcDbLine
 10
16.5662
 20
92.0149
 11
30.5298
 21
92.0149
  0
LINE
  5
11F
100
AcDbEntity
  8
PCL_Layer
  6
ByLayer
 62
    7
370
   -1
100
AcDbLine
 10
16.5662
 20
78.0513
 11
16.5662
 21
92.0149
  0
LINE
  5
120
100
AcDbEntity
  8
PCL_Layer
  6
ByLayer
 62
    7
370
   -1
100
AcDbLine
 10
30.5298
 20
92.0149
 11
30.5298
 21
78.0513
  0
LINE
  5
121
100
AcDbEntity
  8
PCL_Layer
  6
ByLayer
 62
    7
370
   -1
100
AcDbLine
 10
30.5298
 20
78.0513
 11
16.5662
 21
78.0513
  0
LINE
  5
122
100
AcDbEntity
  8
PCL_Layer
  6
ByLayer
 62
    7
370
   -1
100
AcDbLine
 10
293.0614
 20
168.2895
 11
307.0251
 21
168.2895
  0
LINE
  5
123
100
AcDbEntity
  8
PCL_Layer
  6
ByLayer
 62
    7
370
   -1
100
AcDbLine
 10
293.0614
 20
154.3258
 11
293.0614
 21
168.2895
  0
LINE
  5
124
100
AcDbEntity
  8
PCL_Layer
  6
ByLayer
 62
    7
370
   -1
100
AcDbLine
 10
307.0251
 20
168.2895
 11
307.0251
 21
154.3258
  0
LINE
  5
125
100
AcDbEntity
  8
PCL_Layer
  6
ByLayer
 62
    7
370
   -1
100
AcDbLine
 10
307.0251
 20
154.3258
 11
293.0614
 21
154.3258
  0
LINE
  5
126
100
AcDbEntity
  8
PCL_Layer
  6
ByLayer
 62
    7
370
   -1
100
AcDbLine
 10
369.3109
 20
168.2895
 11
383.2996
 21
168.2895
  0
LINE
  5
127
100
AcDbEntity
  8
PCL_Layer
  6
ByLayer
 62
    7
370
   -1
100
AcDbLine
 10
369.3109
 20
154.3258
 11
369.3109
 21
168.2895
  0
LINE
  5
128
100
AcDbEntity
  8
PCL_Layer
  6
ByLayer
 62
    7
370
   -1
100
AcDbLine
 10
383.2996
 20
168.2895
 11
383.2996
 21
154.3258
  0
LINE
  5
129
100
AcDbEntity
  8
PCL_Layer
  6
ByLayer
 62
    7
370
   -1
100
AcDbLine
 10
383.2996
 20
154.3258
 11
369.3109
 21
154.3258
  0
LINE
  5
12A
100
AcDbEntity
  8
PCL_Layer
  6
ByLayer
 62
    7
370
   -1
100
AcDbLine
 10
374.0906
 20
92.0149
 11
388.0793
 21
92.0149
  0
LINE
  5
12B
100
AcDbEntity
  8
PCL_Layer
  6
ByLayer
 62
    7
370
   -1
100
AcDbLine
 10
374.0906
 20
78.0513
 11
374.0906
 21
92.0149
  0
LINE
  5
12C
100
AcDbEntity
  8
PCL_Layer
  6
ByLayer
 62
    7
370
   -1
100
AcDbLine
 10
388.0793
 20
92.0149
 11
388.0793
 21
78.0513
  0
LINE
  5
12D
100
AcDbEntity
  8
PCL_Layer
  6
ByLayer
 62
    7
370
   -1
100
AcDbLine
 10
388.0793
 20
78.0513
 11
374.0906
 21
78.0513
  0
LINE
  5
12E
100
AcDbEntity
  8
PCL_Layer
  6
ByLayer
 62
    7
370
   -1
100
AcDbLine
 10
16.5662
 20
149.2209
 11
30.5298
 21
149.2209
  0
LINE
  5
12F
100
AcDbEntity
  8
PCL_Layer
  6
ByLayer
 62
    7
370
   -1
100
AcDbLine
 10
16.5662
 20
135.2572
 11
16.5662
 21
149.2209
  0
LINE
  5
130
100
AcDbEntity
  8
PCL_Layer
  6
ByLayer
 62
    7
370
   -1
100
AcDbLine
 10
30.5298
 20
149.2209
 11
30.5298
 21
135.2572
  0
LINE
  5
131
100
AcDbEntity
  8
PCL_Layer
  6
ByLayer
 62
    7
370
   -1
100
AcDbLine
 10
30.5298
 20
135.2572
 11
16.5662
 21
135.2572
  0
LINE
  5
132
100
AcDbEntity
  8
PCL_Layer
  6
ByLayer
 62
    7
370
   -1
100
AcDbLine
 10
364.5563
 20
72.94629999999999
 11
378.545
 21
72.94629999999999
  0
LINE
  5
133
100
AcDbEntity
  8
PCL_Layer
  6
ByLayer
 62
    7
370
   -1
100
AcDbLine
 10
364.5563
 20
58.9827
 11
364.5563
 21
72.94629999999999
  0
LINE
  5
134
100
AcDbEntity
  8
PCL_Layer
  6
ByLayer
 62
    7
370
   -1
100
AcDbLine
 10
378.545
 20
72.94629999999999
 11
378.545
 21
58.9827
  0
LINE
  5
135
100
AcDbEntity
  8
PCL_Layer
  6
ByLayer
 62
    7
370
   -1
100
AcDbLine
 10
378.545
 20
58.9827
 11
364.5563
 21
58.9827
  0
LINE
  5
136
100
AcDbEntity
  8
PCL_Layer
  6
ByLayer
 62
    7
370
   -1
100
AcDbLine
 10
135.7327
 20
92.0149
 11
149.7213
 21
92.0149
  0
LINE
  5
137
100
AcDbEntity
  8
PCL_Layer
  6
ByLayer
 62
    7
370
   -1
100
AcDbLine
 10
135.7327
 20
78.0513
 11
135.7327
 21
92.0149
  0
LINE
  5
138
100
AcDbEntity
  8
PCL_Layer
  6
ByLayer
 62
    7
370
   -1
100
AcDbLine
 10
149.7213
 20
92.0149
 11
149.7213
 21
78.0513
  0
LINE
  5
139
100
AcDbEntity
  8
PCL_Layer
  6
ByLayer
 62
    7
370
   -1
100
AcDbLine
 10
149.7213
 20
78.0513
 11
135.7327
 21
78.0513
  0
LINE
  5
13A
100
AcDbEntity
  8
PCL_Layer
  6
ByLayer
 62
    7
370
   -1
100
AcDbLine
 10
250.1445
 20
92.0149
 11
264.1331
 21
92.0149
  0
LINE
  5
13B
100
AcDbEntity
  8
PCL_Layer
  6
ByLayer
 62
    7
370
   -1
100
AcDbLine
 10
250.1445
 20
78.0513
 11
250.1445
 21
92.0149
  0
LINE
  5
13C
100
AcDbEntity
  8
PCL_Layer
  6
ByLayer
 62
    7
370
   -1
100
AcDbLine
 10
264.1331
 20
92.0149
 11
264.1331
 21
78.0513
  0
LINE
  5
13D
100
AcDbEntity
  8
PCL_Layer
  6
ByLayer
 62
    7
370
   -1
100
AcDbLine
 10
264.1331
 20
78.0513
 11
250.1445
 21
78.0513
  0
LINE
  5
13E
100
AcDbEntity
  8
PCL_Layer
  6
ByLayer
 62
    7
370
   -1
100
AcDbLine
 10
216.7619
 20
130.1522
 11
230.7505
 21
130.1522
  0
LINE
  5
13F
100
AcDbEntity
  8
PCL_Layer
  6
ByLayer
 62
    7
370
   -1
100
AcDbLine
 10
216.7619
 20
116.1886
 11
216.7619
 21
130.1522
  0
LINE
  5
140
100
AcDbEntity
  8
PCL_Layer
  6
ByLayer
 62
    7
370
   -1
100
AcDbLine
 10
230.7505
 20
130.1522
 11
230.7505
 21
116.1886
  0
LINE
  5
141
100
AcDbEntity
  8
PCL_Layer
  6
ByLayer
 62
    7
370
   -1
100
AcDbLine
 10
230.7505
 20
116.1886
 11
216.7619
 21
116.1886
  0
LINE
  5
142
100
AcDbEntity
  8
PCL_Layer
  6
ByLayer
 62
    7
370
   -1
100
AcDbLine
 10
164.3356
 20
111.0836
 11
178.3243
 21
111.0836
  0
LINE
  5
143
100
AcDbEntity
  8
PCL_Layer
  6
ByLayer
 62
    7
370
   -1
100
AcDbLine
 10
164.3356
 20
97.1199
 11
164.3356
 21
111.0836
  0
LINE
  5
144
100
AcDbEntity
  8
PCL_Layer
  6
ByLayer
 62
    7
370
   -1
100
AcDbLine
 10
178.3243
 20
111.0836
 11
178.3243
 21
97.1199
  0
LINE
  5
145
100
AcDbEntity
  8
PCL_Layer
  6
ByLayer
 62
    7
370
   -1
100
AcDbLine
 10
178.3243
 20
97.1199
 11
164.3356
 21
97.1199
  0
LINE
  5
146
100
AcDbEntity
  8
PCL_Layer
  6
ByLayer
 62
    7
370
   -1
100
AcDbLine
 10
431.2965
 20
92.0149
 11
445.2852
 21
92.0149
  0
LINE
  5
147
100
AcDbEntity
  8
PCL_Layer
  6
ByLayer
 62
    7
370
   -1
100
AcDbLine
 10
431.2965
 20
78.0513
 11
431.2965
 21
92.0149
  0
LINE
  5
148
100
AcDbEntity
  8
PCL_Layer
  6
ByLayer
 62
    7
370
   -1
100
AcDbLine
 10
445.2852
 20
92.0149
 11
445.2852
 21
78.0513
  0
LINE
  5
149
100
AcDbEntity
  8
PCL_Layer
  6
ByLayer
 62
    7
370
   -1
100
AcDbLine
 10
445.2852
 20
78.0513
 11
431.2965
 21
78.0513
  0
LINE
  5
14A
100
AcDbEntity
  8
PCL_Layer
  6
ByLayer
 62
    7
370
   -1
100
AcDbLine
 10
374.0906
 20
130.1522
 11
388.0793
 21
130.1522
  0
LINE
  5
14B
100
AcDbEntity
  8
PCL_Layer
  6
ByLayer
 62
    7
370
   -1
100
AcDbLine
 10
374.0906
 20
116.1886
 11
374.0906
 21
130.1522
  0
LINE
  5
14C
100
AcDbEntity
  8
PCL_Layer
  6
ByLayer
 62
    7
370
   -1
100
AcDbLine
 10
388.0793
 20
130.1522
 11
388.0793
 21
116.1886
  0
LINE
  5
14D
100
AcDbEntity
  8
PCL_Layer
  6
ByLayer
 62
    7
370
   -1
100
AcDbLine
 10
388.0793
 20
116.1886
 11
374.0906
 21
116.1886
  0
LINE
  5
14E
100
AcDbEntity
  8
PCL_Layer
  6
ByLayer
 62
    7
370
   -1
100
AcDbLine
 10
331.1737
 20
168.2895
 11
345.1624
 21
168.2895
  0
LINE
  5
14F
100
AcDbEntity
  8
PCL_Layer
  6
ByLayer
 62
    7
370
   -1
100
AcDbLine
 10
331.1737
 20
154.3258
 11
331.1737
 21
168.2895
  0
LINE
  5
150
100
AcDbEntity
  8
PCL_Layer
  6
ByLayer
 62
    7
370
   -1
100
AcDbLine
 10
345.1624
 20
168.2895
 11
345.1624
 21
154.3258
  0
LINE
  5
151
100
AcDbEntity
  8
PCL_Layer
  6
ByLayer
 62
    7
370
   -1
100
AcDbLine
 10
345.1624
 20
154.3258
 11
331.1737
 21
154.3258
  0
LINE
  5
152
100
AcDbEntity
  8
PCL_Layer
  6
ByLayer
 62
    7
370
   -1
100
AcDbLine
 10
35.6348
 20
149.2209
 11
49.5985
 21
149.2209
  0
LINE
  5
153
100
AcDbEntity
  8
PCL_Layer
  6
ByLayer
 62
    7
370
   -1
100
AcDbLine
 10
35.6348
 20
135.2572
 11
35.6348
 21
149.2209
  0
LINE
  5
154
100
AcDbEntity
  8
PCL_Layer
  6
ByLayer
 62
    7
370
   -1
100
AcDbLine
 10
49.5985
 20
149.2209
 11
49.5985
 21
135.2572
  0
LINE
  5
155
100
AcDbEntity
  8
PCL_Layer
  6
ByLayer
 62
    7
370
   -1
100
AcDbLine
 10
49.5985
 20
135.2572
 11
35.6348
 21
135.2572
  0
LINE
  5
156
100
AcDbEntity
  8
PCL_Layer
  6
ByLayer
 62
    7
370
   -1
100
AcDbLine
 10
68.9924
 20
92.0149
 11
82.9811
 21
92.0149
  0
LINE
  5
157
100
AcDbEntity
  8
PCL_Layer
  6
ByLayer
 62
    7
370
   -1
100
AcDbLine
 10
68.9924
 20
78.0513
 11
68.9924
 21
92.0149
  0
LINE
  5
158
100
AcDbEntity
  8
PCL_Layer
  6
ByLayer
 62
    7
370
   -1
100
AcDbLine
 10
82.9811
 20
92.0149
 11
82.9811
 21
78.0513
  0
LINE
  5
159
100
AcDbEntity
  8
PCL_Layer
  6
ByLayer
 62
    7
370
   -1
100
AcDbLine
 10
82.9811
 20
78.0513
 11
68.9924
 21
78.0513
  0
LINE
  5
15A
100
AcDbEntity
  8
PCL_Layer
  6
ByLayer
 62
    7
370
   -1
100
AcDbLine
 10
307.3504
 20
92.0149
 11
321.3391
 21
92.0149
  0
LINE
  5
15B
100
AcDbEntity
  8
PCL_Layer
  6
ByLayer
 62
    7
370
   -1
100
AcDbLine
 10
307.3504
 20
78.0513
 11
307.3504
 21
92.0149
  0
LINE
  5
15C
100
AcDbEntity
  8
PCL_Layer
  6
ByLayer
 62
    7
370
   -1
100
AcDbLine
 10
321.3391
 20
92.0149
 11
321.3391
 21
78.0513
  0
LINE
  5
15D
100
AcDbEntity
  8
PCL_Layer
  6
ByLayer
 62
    7
370
   -1
100
AcDbLine
 10
321.3391
 20
78.0513
 11
307.3504
 21
78.0513
  0
LINE
  5
15E
100
AcDbEntity
  8
PCL_Layer
  6
ByLayer
 62
    7
370
   -1
100
AcDbLine
 10
376.4679
 20
111.0836
 11
390.4566
 21
111.0836
  0
LINE
  5
15F
100
AcDbEntity
  8
PCL_Layer
  6
ByLayer
 62
    7
370
   -1
100
AcDbLine
 10
376.4679
 20
97.1199
 11
376.4679
 21
111.0836
  0
LINE
  5
160
100
AcDbEntity
  8
PCL_Layer
  6
ByLayer
 62
    7
370
   -1
100
AcDbLine
 10
390.4566
 20
111.0836
 11
390.4566
 21
97.1199
  0
LINE
  5
161
100
AcDbEntity
  8
PCL_Layer
  6
ByLayer
 62
    7
370
   -1
100
AcDbLine
 10
390.4566
 20
97.1199
 11
376.4679
 21
97.1199
  0
LINE
  5
162
100
AcDbEntity
  8
PCL_Layer
  6
ByLayer
 62
    7
370
   -1
100
AcDbLine
 10
269.2131
 20
92.0149
 11
283.2018
 21
92.0149
  0
LINE
  5
163
100
AcDbEntity
  8
PCL_Layer
  6
ByLayer
 62
    7
370
   -1
100
AcDbLine
 10
269.2131
 20
78.0513
 11
269.2131
 21
92.0149
  0
LINE
  5
164
100
AcDbEntity
  8
PCL_Layer
  6
ByLayer
 62
    7
370
   -1
100
AcDbLine
 10
283.2018
 20
92.0149
 11
283.2018
 21
78.0513
  0
LINE
  5
165
100
AcDbEntity
  8
PCL_Layer
  6
ByLayer
 62
    7
370
   -1
100
AcDbLine
 10
283.2018
 20
78.0513
 11
269.2131
 21
78.0513
  0
LINE
  5
166
100
AcDbEntity
  8
PCL_Layer
  6
ByLayer
 62
    7
370
   -1
100
AcDbLine
 10
455.1198
 20
92.0149
 11
469.1085
 21
92.0149
  0
LINE
  5
167
100
AcDbEntity
  8
PCL_Layer
  6
ByLayer
 62
    7
370
   -1
100
AcDbLine
 10
455.1198
 20
78.0513
 11
455.1198
 21
92.0149
  0
LINE
  5
168
100
AcDbEntity
  8
PCL_Layer
  6
ByLayer
 62
    7
370
   -1
100
AcDbLine
 10
469.1085
 20
92.0149
 11
469.1085
 21
78.0513
  0
LINE
  5
169
100
AcDbEntity
  8
PCL_Layer
  6
ByLayer
 62
    7
370
   -1
100
AcDbLine
 10
469.1085
 20
78.0513
 11
455.1198
 21
78.0513
  0
LINE
  5
16A
100
AcDbEntity
  8
PCL_Layer
  6
ByLayer
 62
    7
370
   -1
100
AcDbLine
 10
107.1297
 20
72.94629999999999
 11
121.1184
 21
72.94629999999999
  0
LINE
  5
16B
100
AcDbEntity
  8
PCL_Layer
  6
ByLayer
 62
    7
370
   -1
100
AcDbLine
 10
107.1297
 20
58.9827
 11
107.1297
 21
72.94629999999999
  0
LINE
  5
16C
100
AcDbEntity
  8
PCL_Layer
  6
ByLayer
 62
    7
370
   -1
100
AcDbLine
 10
121.1184
 20
72.94629999999999
 11
121.1184
 21
58.9827
  0
LINE
  5
16D
100
AcDbEntity
  8
PCL_Layer
  6
ByLayer
 62
    7
370
   -1
100
AcDbLine
 10
121.1184
 20
58.9827
 11
107.1297
 21
58.9827
  0
LINE
  5
16E
100
AcDbEntity
  8
PCL_Layer
  6
ByLayer
 62
    7
370
   -1
100
AcDbLine
 10
202.4729
 20
111.0836
 11
216.4616
 21
111.0836
  0
LINE
  5
16F
100
AcDbEntity
  8
PCL_Layer
  6
ByLayer
 62
    7
370
   -1
100
AcDbLine
 10
202.4729
 20
97.1199
 11
202.4729
 21
111.0836
  0
LINE
  5
170
100
AcDbEntity
  8
PCL_Layer
  6
ByLayer
 62
    7
370
   -1
100
AcDbLine
 10
216.4616
 20
111.0836
 11
216.4616
 21
97.1199
  0
LINE
  5
171
100
AcDbEntity
  8
PCL_Layer
  6
ByLayer
 62
    7
370
   -1
100
AcDbLine
 10
216.4616
 20
97.1199
 11
202.4729
 21
97.1199
  0
LINE
  5
172
100
AcDbEntity
  8
PCL_Layer
  6
ByLayer
 62
    7
370
   -1
100
AcDbLine
 10
407.4482
 20
168.2895
 11
421.4369
 21
168.2895
  0
LINE
  5
173
100
AcDbEntity
  8
PCL_Layer
  6
ByLayer
 62
    7
370
   -1
100
AcDbLine
 10
407.4482
 20
154.3258
 11
407.4482
 21
168.2895
  0
LINE
  5
174
100
AcDbEntity
  8
PCL_Layer
  6
ByLayer
 62
    7
370
   -1
100
AcDbLine
 10
421.4369
 20
168.2895
 11
421.4369
 21
154.3258
  0
LINE
  5
175
100
AcDbEntity
  8
PCL_Layer
  6
ByLayer
 62
    7
370
   -1
100
AcDbLine
 10
421.4369
 20
154.3258
 11
407.4482
 21
154.3258
  0
LINE
  5
176
100
AcDbEntity
  8
PCL_Layer
  6
ByLayer
 62
    7
370
   -1
100
AcDbLine
 10
297.8161
 20
111.0836
 11
311.8047
 21
111.0836
  0
LINE
  5
177
100
AcDbEntity
  8
PCL_Layer
  6
ByLayer
 62
    7
370
   -1
100
AcDbLine
 10
297.8161
 20
97.1199
 11
297.8161
 21
111.0836
  0
LINE
  5
178
100
AcDbEntity
  8
PCL_Layer
  6
ByLayer
 62
    7
370
   -1
100
AcDbLine
 10
311.8047
 20
111.0836
 11
311.8047
 21
97.1199
  0
LINE
  5
179
100
AcDbEntity
  8
PCL_Layer
  6
ByLayer
 62
    7
370
   -1
100
AcDbLine
 10
311.8047
 20
97.1199
 11
297.8161
 21
97.1199
  0
LINE
  5
17A
100
AcDbEntity
  8
PCL_Layer
  6
ByLayer
 62
    7
370
   -1
100
AcDbLine
 10
321.6393
 20
149.2209
 11
335.628
 21
149.2209
  0
LINE
  5
17B
100
AcDbEntity
  8
PCL_Layer
  6
ByLayer
 62
    7
370
   -1
100
AcDbLine
 10
321.6393
 20
135.2572
 11
321.6393
 21
149.2209
  0
LINE
  5
17C
100
AcDbEntity
  8
PCL_Layer
  6
ByLayer
 62
    7
370
   -1
100
AcDbLine
 10
335.628
 20
149.2209
 11
335.628
 21
135.2572
  0
LINE
  5
17D
100
AcDbEntity
  8
PCL_Layer
  6
ByLayer
 62
    7
370
   -1
100
AcDbLine
 10
335.628
 20
135.2572
 11
321.6393
 21
135.2572
  0
LINE
  5
17E
100
AcDbEntity
  8
PCL_Layer
  6
ByLayer
 62
    7
370
   -1
100
AcDbLine
 10
350.2423
 20
130.1522
 11
364.231
 21
130.1522
  0
LINE
  5
17F
100
AcDbEntity
  8
PCL_Layer
  6
ByLayer
 62
    7
370
   -1
100
AcDbLine
 10
350.2423
 20
116.1886
 11
350.2423
 21
130.1522
  0
LINE
  5
180
100
AcDbEntity
  8
PCL_Layer
  6
ByLayer
 62
    7
370
   -1
100
AcDbLine
 10
364.231
 20
130.1522
 11
364.231
 21
116.1886
  0
LINE
  5
181
100
AcDbEntity
  8
PCL_Layer
  6
ByLayer
 62
    7
370
   -1
100
AcDbLine
 10
364.231
 20
116.1886
 11
350.2423
 21
116.1886
  0
LINE
  5
182
100
AcDbEntity
  8
PCL_Layer
  6
ByLayer
 62
    7
370
   -1
100
AcDbLine
 10
455.1198
 20
130.1522
 11
469.1085
 21
130.1522
  0
LINE
  5
183
100
AcDbEntity
  8
PCL_Layer
  6
ByLayer
 62
    7
370
   -1
100
AcDbLine
 10
455.1198
 20
116.1886
 11
455.1198
 21
130.1522
  0
LINE
  5
184
100
AcDbEntity
  8
PCL_Layer
  6
ByLayer
 62
    7
370
   -1
100
AcDbLine
 10
469.1085
 20
130.1522
 11
469.1085
 21
116.1886
  0
LINE
  5
185
100
AcDbEntity
  8
PCL_Layer
  6
ByLayer
 62
    7
370
   -1
100
AcDbLine
 10
469.1085
 20
116.1886
 11
455.1198
 21
116.1886
  0
LINE
  5
186
100
AcDbEntity
  8
PCL_Layer
  6
ByLayer
 62
    7
370
   -1
100
AcDbLine
 10
64.2128
 20
36.4356
 11
78.20140000000001
 21
36.4356
  0
LINE
  5
187
100
AcDbEntity
  8
PCL_Layer
  6
ByLayer
 62
    7
370
   -1
100
AcDbLine
 10
64.2128
 20
22.4469
 11
64.2128
 21
36.4356
  0
LINE
  5
188
100
AcDbEntity
  8
PCL_Layer
  6
ByLayer
 62
    7
370
   -1
100
AcDbLine
 10
78.20140000000001
 20
36.4356
 11
78.20140000000001
 21
22.4469
  0
LINE
  5
189
100
AcDbEntity
  8
PCL_Layer
  6
ByLayer
 62
    7
370
   -1
100
AcDbLine
 10
78.20140000000001
 20
22.4469
 11
64.2128
 21
22.4469
  0
LINE
  5
18A
100
AcDbEntity
  8
PCL_Layer
  6
ByLayer
 62
    7
370
   -1
100
AcDbLine
 10
114.2867
 20
36.4356
 11
128.2504
 21
36.4356
  0
LINE
  5
18B
100
AcDbEntity
  8
PCL_Layer
  6
ByLayer
 62
    7
370
   -1
100
AcDbLine
 10
114.2867
 20
22.4469
 11
114.2867
 21
36.4356
  0
LINE
  5
18C
100
AcDbEntity
  8
PCL_Layer
  6
ByLayer
 62
    7
370
   -1
100
AcDbLine
 10
128.2504
 20
36.4356
 11
128.2504
 21
22.4469
  0
LINE
  5
18D
100
AcDbEntity
  8
PCL_Layer
  6
ByLayer
 62
    7
370
   -1
100
AcDbLine
 10
128.2504
 20
22.4469
 11
114.2867
 21
22.4469
  0
LINE
  5
18E
100
AcDbEntity
  8
PCL_Layer
  6
ByLayer
 62
    7
370
   -1
100
AcDbLine
 10
164.3356
 20
36.4356
 11
178.3243
 21
36.4356
  0
LINE
  5
18F
100
AcDbEntity
  8
PCL_Layer
  6
ByLayer
 62
    7
370
   -1
100
AcDbLine
 10
164.3356
 20
22.4469
 11
164.3356
 21
36.4356
  0
LINE
  5
190
100
AcDbEntity
  8
PCL_Layer
  6
ByLayer
 62
    7
370
   -1
100
AcDbLine
 10
178.3243
 20
36.4356
 11
178.3243
 21
22.4469
  0
LINE
  5
191
100
AcDbEntity
  8
PCL_Layer
  6
ByLayer
 62
    7
370
   -1
100
AcDbLine
 10
178.3243
 20
22.4469
 11
164.3356
 21
22.4469
  0
LINE
  5
192
100
AcDbEntity
  8
PCL_Layer
  6
ByLayer
 62
    7
370
   -1
100
AcDbLine
 10
335.9533
 20
72.94629999999999
 11
349.942
 21
72.94629999999999
  0
LINE
  5
193
100
AcDbEntity
  8
PCL_Layer
  6
ByLayer
 62
    7
370
   -1
100
AcDbLine
 10
335.9533
 20
58.9827
 11
335.9533
 21
72.94629999999999
  0
LINE
  5
194
100
AcDbEntity
  8
PCL_Layer
  6
ByLayer
 62
    7
370
   -1
100
AcDbLine
 10
349.942
 20
72.94629999999999
 11
349.942
 21
58.9827
  0
LINE
  5
195
100
AcDbEntity
  8
PCL_Layer
  6
ByLayer
 62
    7
370
   -1
100
AcDbLine
 10
349.942
 20
58.9827
 11
335.9533
 21
58.9827
  0
LINE
  5
196
100
AcDbEntity
  8
PCL_Layer
  6
ByLayer
 62
    7
370
   -1
100
AcDbLine
 10
393.1593
 20
72.94629999999999
 11
407.1479
 21
72.94629999999999
  0
LINE
  5
197
100
AcDbEntity
  8
PCL_Layer
  6
ByLayer
 62
    7
370
   -1
100
AcDbLine
 10
393.1593
 20
58.9827
 11
393.1593
 21
72.94629999999999
  0
LINE
  5
198
100
AcDbEntity
  8
PCL_Layer
  6
ByLayer
 62
    7
370
   -1
100
AcDbLine
 10
407.1479
 20
72.94629999999999
 11
407.1479
 21
58.9827
  0
LINE
  5
199
100
AcDbEntity
  8
PCL_Layer
  6
ByLayer
 62
    7
370
   -1
100
AcDbLine
 10
407.1479
 20
58.9827
 11
393.1593
 21
58.9827
  0
LINE
  5
19A
100
AcDbEntity
  8
PCL_Layer
  6
ByLayer
 62
    7
370
   -1
100
AcDbLine
 10
216.7869
 20
168.2895
 11
230.7505
 21
168.2895
  0
LINE
  5
19B
100
AcDbEntity
  8
PCL_Layer
  6
ByLayer
 62
    7
370
   -1
100
AcDbLine
 10
216.7869
 20
154.3258
 11
216.7869
 21
168.2895
  0
LINE
  5
19C
100
AcDbEntity
  8
PCL_Layer
  6
ByLayer
 62
    7
370
   -1
100
AcDbLine
 10
230.7505
 20
168.2895
 11
230.7505
 21
154.3258
  0
LINE
  5
19D
100
AcDbEntity
  8
PCL_Layer
  6
ByLayer
 62
    7
370
   -1
100
AcDbLine
 10
230.7505
 20
154.3258
 11
216.7869
 21
154.3258
  0
LINE
  5
19E
100
AcDbEntity
  8
PCL_Layer
  6
ByLayer
 62
    7
370
   -1
100
AcDbLine
 10
212.0072
 20
92.0149
 11
225.9959
 21
92.0149
  0
LINE
  5
19F
100
AcDbEntity
  8
PCL_Layer
  6
ByLayer
 62
    7
370
   -1
100
AcDbLine
 10
212.0072
 20
78.0513
 11
212.0072
 21
92.0149
  0
LINE
  5
1A0
100
AcDbEntity
  8
PCL_Layer
  6
ByLayer
 62
    7
370
   -1
100
AcDbLine
 10
225.9959
 20
92.0149
 11
225.9959
 21
78.0513
  0
LINE
  5
1A1
100
AcDbEntity
  8
PCL_Layer
  6
ByLayer
 62
    7
370
   -1
100
AcDbLine
 10
225.9959
 20
78.0513
 11
212.0072
 21
78.0513
  0
LINE
  5
1A2
100
AcDbEntity
  8
PCL_Layer
  6
ByLayer
 62
    7
370
   -1
100
AcDbLine
 10
345.4877
 20
111.0836
 11
359.4763
 21
111.0836
  0
LINE
  5
1A3
100
AcDbEntity
  8
PCL_Layer
  6
ByLayer
 62
    7
370
   -1
100
AcDbLine
 10
345.4877
 20
97.1199
 11
345.4877
 21
111.0836
  0
LINE
  5
1A4
100
AcDbEntity
  8
PCL_Layer
  6
ByLayer
 62
    7
370
   -1
100
AcDbLine
 10
359.4763
 20
111.0836
 11
359.4763
 21
97.1199
  0
LINE
  5
1A5
100
AcDbEntity
  8
PCL_Layer
  6
ByLayer
 62
    7
370
   -1
100
AcDbLine
 10
359.4763
 20
97.1199
 11
345.4877
 21
97.1199
  0
LINE
  5
1A6
100
AcDbEntity
  8
PCL_Layer
  6
ByLayer
 62
    7
370
   -1
100
AcDbLine
 10
331.1737
 20
130.1522
 11
345.1624
 21
130.1522
  0
LINE
  5
1A7
100
AcDbEntity
  8
PCL_Layer
  6
ByLayer
 62
    7
370
   -1
100
AcDbLine
 10
331.1737
 20
116.1886
 11
331.1737
 21
130.1522
  0
LINE
  5
1A8
100
AcDbEntity
  8
PCL_Layer
  6
ByLayer
 62
    7
370
   -1
100
AcDbLine
 10
345.1624
 20
130.1522
 11
345.1624
 21
116.1886
  0
LINE
  5
1A9
100
AcDbEntity
  8
PCL_Layer
  6
ByLayer
 62
    7
370
   -1
100
AcDbLine
 10
345.1624
 20
116.1886
 11
331.1737
 21
116.1886
  0
LINE
  5
1AA
100
AcDbEntity
  8
PCL_Layer
  6
ByLayer
 62
    7
370
   -1
100
AcDbLine
 10
340.708
 20
149.2209
 11
354.6967
 21
149.2209
  0
LINE
  5
1AB
100
AcDbEntity
  8
PCL_Layer
  6
ByLayer
 62
    7
370
   -1
100
AcDbLine
 10
340.708
 20
135.2572
 11
340.708
 21
149.2209
  0
LINE
  5
1AC
100
AcDbEntity
  8
PCL_Layer
  6
ByLayer
 62
    7
370
   -1
100
AcDbLine
 10
354.6967
 20
149.2209
 11
354.6967
 21
135.2572
  0
LINE
  5
1AD
100
AcDbEntity
  8
PCL_Layer
  6
ByLayer
 62
    7
370
   -1
100
AcDbLine
 10
354.6967
 20
135.2572
 11
340.708
 21
135.2572
  0
LINE
  5
1AE
100
AcDbEntity
  8
PCL_Layer
  6
ByLayer
 62
    7
370
   -1
100
AcDbLine
 10
312.105
 20
130.1522
 11
326.0937
 21
130.1522
  0
LINE
  5
1AF
100
AcDbEntity
  8
PCL_Layer
  6
ByLayer
 62
    7
370
   -1
100
AcDbLine
 10
312.105
 20
116.1886
 11
312.105
 21
130.1522
  0
LINE
  5
1B0
100
AcDbEntity
  8
PCL_Layer
  6
ByLayer
 62
    7
370
   -1
100
AcDbLine
 10
326.0937
 20
130.1522
 11
326.0937
 21
116.1886
  0
LINE
  5
1B1
100
AcDbEntity
  8
PCL_Layer
  6
ByLayer
 62
    7
370
   -1
100
AcDbLine
 10
326.0937
 20
116.1886
 11
312.105
 21
116.1886
  0
LINE
  5
1B2
100
AcDbEntity
  8
PCL_Layer
  6
ByLayer
 62
    7
370
   -1
100
AcDbLine
 10
273.9678
 20
130.1522
 11
287.9565
 21
130.1522
  0
LINE
  5
1B3
100
AcDbEntity
  8
PCL_Layer
  6
ByLayer
 62
    7
370
   -1
100
AcDbLine
 10
273.9678
 20
116.1886
 11
273.9678
 21
130.1522
  0
LINE
  5
1B4
100
AcDbEntity
  8
PCL_Layer
  6
ByLayer
 62
    7
370
   -1
100
AcDbLine
 10
287.9565
 20
130.1522
 11
287.9565
 21
116.1886
  0
LINE
  5
1B5
100
AcDbEntity
  8
PCL_Layer
  6
ByLayer
 62
    7
370
   -1
100
AcDbLine
 10
287.9565
 20
116.1886
 11
273.9678
 21
116.1886
  0
LINE
  5
1B6
100
AcDbEntity
  8
PCL_Layer
  6
ByLayer
 62
    7
370
   -1
100
AcDbLine
 10
402.6936
 20
92.0149
 11
416.6823
 21
92.0149
  0
LINE
  5
1B7
100
AcDbEntity
  8
PCL_Layer
  6
ByLayer
 62
    7
370
   -1
100
AcDbLine
 10
402.6936
 20
78.0513
 11
402.6936
 21
92.0149
  0
LINE
  5
1B8
100
AcDbEntity
  8
PCL_Layer
  6
ByLayer
 62
    7
370
   -1
100
AcDbLine
 10
416.6823
 20
92.0149
 11
416.6823
 21
78.0513
  0
LINE
  5
1B9
100
AcDbEntity
  8
PCL_Layer
  6
ByLayer
 62
    7
370
   -1
100
AcDbLine
 10
416.6823
 20
78.0513
 11
402.6936
 21
78.0513
  0
LINE
  5
1BA
100
AcDbEntity
  8
PCL_Layer
  6
ByLayer
 62
    7
370
   -1
100
AcDbLine
 10
178.6246
 20
130.1522
 11
192.6133
 21
130.1522
  0
LINE
  5
1BB
100
AcDbEntity
  8
PCL_Layer
  6
ByLayer
 62
    7
370
   -1
100
AcDbLine
 10
178.6246
 20
116.1886
 11
178.6246
 21
130.1522
  0
LINE
  5
1BC
100
AcDbEntity
  8
PCL_Layer
  6
ByLayer
 62
    7
370
   -1
100
AcDbLine
 10
192.6133
 20
130.1522
 11
192.6133
 21
116.1886
  0
LINE
  5
1BD
100
AcDbEntity
  8
PCL_Layer
  6
ByLayer
 62
    7
370
   -1
100
AcDbLine
 10
192.6133
 20
116.1886
 11
178.6246
 21
116.1886
  0
LINE
  5
1BE
100
AcDbEntity
  8
PCL_Layer
  6
ByLayer
 62
    7
370
   -1
100
AcDbLine
 10
183.4043
 20
111.0836
 11
197.3929
 21
111.0836
  0
LINE
  5
1BF
100
AcDbEntity
  8
PCL_Layer
  6
ByLayer
 62
    7
370
   -1
100
AcDbLine
 10
183.4043
 20
97.1199
 11
183.4043
 21
111.0836
  0
LINE
  5
1C0
100
AcDbEntity
  8
PCL_Layer
  6
ByLayer
 62
    7
370
   -1
100
AcDbLine
 10
197.3929
 20
111.0836
 11
197.3929
 21
97.1199
  0
LINE
  5
1C1
100
AcDbEntity
  8
PCL_Layer
  6
ByLayer
 62
    7
370
   -1
100
AcDbLine
 10
197.3929
 20
97.1199
 11
183.4043
 21
97.1199
  0
LINE
  5
1C2
100
AcDbEntity
  8
PCL_Layer
  6
ByLayer
 62
    7
370
   -1
100
AcDbLine
 10
78.52670000000001
 20
72.94629999999999
 11
92.5154
 21
72.94629999999999
  0
LINE
  5
1C3
100
AcDbEntity
  8
PCL_Layer
  6
ByLayer
 62
    7
370
   -1
100
AcDbLine
 10
78.52670000000001
 20
58.9827
 11
78.52670000000001
 21
72.94629999999999
  0
LINE
  5
1C4
100
AcDbEntity
  8
PCL_Layer
  6
ByLayer
 62
    7
370
   -1
100
AcDbLine
 10
92.5154
 20
72.94629999999999
 11
92.5154
 21
58.9827
  0
LINE
  5
1C5
100
AcDbEntity
  8
PCL_Layer
  6
ByLayer
 62
    7
370
   -1
100
AcDbLine
 10
92.5154
 20
58.9827
 11
78.52670000000001
 21
58.9827
  0
LINE
  5
1C6
100
AcDbEntity
  8
PCL_Layer
  6
ByLayer
 62
    7
370
   -1
100
AcDbLine
 10
192.9386
 20
72.99630000000001
 11
206.9272
 21
72.94629999999999
  0
LINE
  5
1C7
100
AcDbEntity
  8
PCL_Layer
  6
ByLayer
 62
    7
370
   -1
100
AcDbLine
 10
192.9386
 20
59.0077
 11
192.9386
 21
72.99630000000001
  0
LINE
  5
1C8
100
AcDbEntity
  8
PCL_Layer
  6
ByLayer
 62
    7
370
   -1
100
AcDbLine
 10
206.9272
 20
58.9827
 11
192.9386
 21
59.0077
  0
LINE
  5
1C9
100
AcDbEntity
  8
PCL_Layer
  6
ByLayer
 62
    7
370
   -1
100
AcDbLine
 10
206.9272
 20
58.9827
 11
206.9272
 21
72.94629999999999
  0
LINE
  5
1CA
100
AcDbEntity
  8
PCL_Layer
  6
ByLayer
 62
    7
370
   -1
100
AcDbLine
 10
216.7869
 20
72.9713
 11
230.7505
 21
72.94629999999999
  0
LINE
  5
1CB
100
AcDbEntity
  8
PCL_Layer
  6
ByLayer
 62
    7
370
   -1
100
AcDbLine
 10
216.7869
 20
58.9827
 11
216.7869
 21
72.9713
  0
LINE
  5
1CC
100
AcDbEntity
  8
PCL_Layer
  6
ByLayer
 62
    7
370
   -1
100
AcDbLine
 10
230.7505
 20
72.9713
 11
230.7505
 21
58.9827
  0
LINE
  5
1CD
100
AcDbEntity
  8
PCL_Layer
  6
ByLayer
 62
    7
370
   -1
100
AcDbLine
 10
230.7505
 20
58.9827
 11
216.7869
 21
58.9827
  0
LINE
  5
1CE
100
AcDbEntity
  8
PCL_Layer
  6
ByLayer
 62
    7
370
   -1
100
AcDbLine
 10
92.81570000000001
 20
92.0149
 11
106.8044
 21
92.0149
  0
LINE
  5
1CF
100
AcDbEntity
  8
PCL_Layer
  6
ByLayer
 62
    7
370
   -1
100
AcDbLine
 10
92.81570000000001
 20
78.0513
 11
92.81570000000001
 21
92.0149
  0
LINE
  5
1D0
100
AcDbEntity
  8
PCL_Layer
  6
ByLayer
 62
    7
370
   -1
100
AcDbLine
 10
106.8044
 20
92.0149
 11
106.8044
 21
78.0513
  0
LINE
  5
1D1
100
AcDbEntity
  8
PCL_Layer
  6
ByLayer
 62
    7
370
   -1
100
AcDbLine
 10
106.8044
 20
78.0513
 11
92.81570000000001
 21
78.0513
  0
LINE
  5
1D2
100
AcDbEntity
  8
PCL_Layer
  6
ByLayer
 62
    7
370
   -1
100
AcDbLine
 10
116.639
 20
92.0149
 11
130.6277
 21
92.0149
  0
LINE
  5
1D3
100
AcDbEntity
  8
PCL_Layer
  6
ByLayer
 62
    7
370
   -1
100
AcDbLine
 10
116.639
 20
78.0513
 11
116.639
 21
92.0149
  0
LINE
  5
1D4
100
AcDbEntity
  8
PCL_Layer
  6
ByLayer
 62
    7
370
   -1
100
AcDbLine
 10
130.6277
 20
92.0149
 11
130.6277
 21
78.0513
  0
LINE
  5
1D5
100
AcDbEntity
  8
PCL_Layer
  6
ByLayer
 62
    7
370
   -1
100
AcDbLine
 10
130.6277
 20
78.0513
 11
116.639
 21
78.0513
  0
LINE
  5
1D6
100
AcDbEntity
  8
PCL_Layer
  6
ByLayer
 62
    7
370
   -1
100
AcDbLine
 10
99.9727
 20
111.0836
 11
113.9614
 21
111.0836
  0
LINE
  5
1D7
100
AcDbEntity
  8
PCL_Layer
  6
ByLayer
 62
    7
370
   -1
100
AcDbLine
 10
99.9727
 20
97.1199
 11
99.9727
 21
111.0836
  0
LINE
  5
1D8
100
AcDbEntity
  8
PCL_Layer
  6
ByLayer
 62
    7
370
   -1
100
AcDbLine
 10
113.9614
 20
111.0836
 11
113.9614
 21
97.1199
  0
LINE
  5
1D9
100
AcDbEntity
  8
PCL_Layer
  6
ByLayer
 62
    7
370
   -1
100
AcDbLine
 10
113.9614
 20
97.1199
 11
99.9727
 21
97.1199
  0
LINE
  5
1DA
100
AcDbEntity
  8
PCL_Layer
  6
ByLayer
 62
    7
370
   -1
100
AcDbLine
 10
285.9044
 20
72.94629999999999
 11
299.8931
 21
72.94629999999999
  0
LINE
  5
1DB
100
AcDbEntity
  8
PCL_Layer
  6
ByLayer
 62
    7
370
   -1
100
AcDbLine
 10
285.9044
 20
58.9827
 11
285.9044
 21
72.94629999999999
  0
LINE
  5
1DC
100
AcDbEntity
  8
PCL_Layer
  6
ByLayer
 62
    7
370
   -1
100
AcDbLine
 10
299.8931
 20
72.94629999999999
 11
299.8931
 21
58.9827
  0
LINE
  5
1DD
100
AcDbEntity
  8
PCL_Layer
  6
ByLayer
 62
    7
370
   -1
100
AcDbLine
 10
299.8931
 20
58.9827
 11
285.9044
 21
58.9827
  0
LINE
  5
1DE
100
AcDbEntity
  8
PCL_Layer
  6
ByLayer
 62
    7
370
   -1
100
AcDbLine
 10
173.8699
 20
92.0149
 11
187.8586
 21
92.0149
  0
LINE
  5
1DF
100
AcDbEntity
  8
PCL_Layer
  6
ByLayer
 62
    7
370
   -1
100
AcDbLine
 10
173.8699
 20
78.0513
 11
173.8699
 21
92.0149
  0
LINE
  5
1E0
100
AcDbEntity
  8
PCL_Layer
  6
ByLayer
 62
    7
370
   -1
100
AcDbLine
 10
187.8586
 20
92.0149
 11
187.8586
 21
78.0513
  0
LINE
  5
1E1
100
AcDbEntity
  8
PCL_Layer
  6
ByLayer
 62
    7
370
   -1
100
AcDbLine
 10
187.8586
 20
78.0513
 11
173.8699
 21
78.0513
  0
LINE
  5
1E2
100
AcDbEntity
  8
PCL_Layer
  6
ByLayer
 62
    7
370
   -1
100
AcDbLine
 10
92.8407
 20
149.2209
 11
106.8044
 21
149.2209
  0
LINE
  5
1E3
100
AcDbEntity
  8
PCL_Layer
  6
ByLayer
 62
    7
370
   -1
100
AcDbLine
 10
92.8407
 20
135.2572
 11
92.8407
 21
149.2209
  0
LINE
  5
1E4
100
AcDbEntity
  8
PCL_Layer
  6
ByLayer
 62
    7
370
   -1
100
AcDbLine
 10
106.8044
 20
149.2209
 11
106.8044
 21
135.2572
  0
LINE
  5
1E5
100
AcDbEntity
  8
PCL_Layer
  6
ByLayer
 62
    7
370
   -1
100
AcDbLine
 10
106.8044
 20
135.2572
 11
92.8407
 21
135.2572
  0
LINE
  5
1E6
100
AcDbEntity
  8
PCL_Layer
  6
ByLayer
 62
    7
370
   -1
100
AcDbLine
 10
455.1198
 20
149.2209
 11
469.1085
 21
149.2209
  0
LINE
  5
1E7
100
AcDbEntity
  8
PCL_Layer
  6
ByLayer
 62
    7
370
   -1
100
AcDbLine
 10
455.1198
 20
135.2572
 11
455.1198
 21
149.2209
  0
LINE
  5
1E8
100
AcDbEntity
  8
PCL_Layer
  6
ByLayer
 62
    7
370
   -1
100
AcDbLine
 10
469.1085
 20
149.2209
 11
469.1085
 21
135.2572
  0
LINE
  5
1E9
100
AcDbEntity
  8
PCL_Layer
  6
ByLayer
 62
    7
370
   -1
100
AcDbLine
 10
469.1085
 20
135.2572
 11
455.1198
 21
135.2572
  0
LINE
  5
1EA
100
AcDbEntity
  8
PCL_Layer
  6
ByLayer
 62
    7
370
   -1
100
AcDbLine
 10
436.0512
 20
130.1522
 11
450.0399
 21
130.1522
  0
LINE
  5
1EB
100
AcDbEntity
  8
PCL_Layer
  6
ByLayer
 62
    7
370
   -1
100
AcDbLine
 10
436.0512
 20
116.1886
 11
436.0512
 21
130.1522
  0
LINE
  5
1EC
100
AcDbEntity
  8
PCL_Layer
  6
ByLayer
 62
    7
370
   -1
100
AcDbLine
 10
450.0399
 20
130.1522
 11
450.0399
 21
116.1886
  0
LINE
  5
1ED
100
AcDbEntity
  8
PCL_Layer
  6
ByLayer
 62
    7
370
   -1
100
AcDbLine
 10
450.0399
 20
116.1886
 11
436.0512
 21
116.1886
  0
LINE
  5
1EE
100
AcDbEntity
  8
PCL_Layer
  6
ByLayer
 62
    7
370
   -1
100
AcDbLine
 10
407.4482
 20
111.0836
 11
421.4369
 21
111.0836
  0
LINE
  5
1EF
100
AcDbEntity
  8
PCL_Layer
  6
ByLayer
 62
    7
370
   -1
100
AcDbLine
 10
407.4482
 20
97.1199
 11
407.4482
 21
111.0836
  0
LINE
  5
1F0
100
AcDbEntity
  8
PCL_Layer
  6
ByLayer
 62
    7
370
   -1
100
AcDbLine
 10
421.4369
 20
111.0836
 11
421.4369
 21
97.1199
  0
LINE
  5
1F1
100
AcDbEntity
  8
PCL_Layer
  6
ByLayer
 62
    7
370
   -1
100
AcDbLine
 10
421.4369
 20
97.1199
 11
407.4482
 21
97.1199
  0
LINE
  5
1F2
100
AcDbEntity
  8
PCL_Layer
  6
ByLayer
 62
    7
370
   -1
100
AcDbLine
 10
126.1983
 20
111.0836
 11
140.187
 21
111.0836
  0
LINE
  5
1F3
100
AcDbEntity
  8
PCL_Layer
  6
ByLayer
 62
    7
370
   -1
100
AcDbLine
 10
126.1983
 20
97.1199
 11
126.1983
 21
111.0836
  0
LINE
  5
1F4
100
AcDbEntity
  8
PCL_Layer
  6
ByLayer
 62
    7
370
   -1
100
AcDbLine
 10
140.187
 20
111.0836
 11
140.187
 21
97.1199
  0
LINE
  5
1F5
100
AcDbEntity
  8
PCL_Layer
  6
ByLayer
 62
    7
370
   -1
100
AcDbLine
 10
140.187
 20
97.1199
 11
126.1983
 21
97.1199
  0
LINE
  5
1F6
100
AcDbEntity
  8
PCL_Layer
  6
ByLayer
 62
    7
370
   -1
100
AcDbLine
 10
326.419
 20
92.0149
 11
340.4077
 21
92.0149
  0
LINE
  5
1F7
100
AcDbEntity
  8
PCL_Layer
  6
ByLayer
 62
    7
370
   -1
100
AcDbLine
 10
326.419
 20
78.0513
 11
326.419
 21
92.0149
  0
LINE
  5
1F8
100
AcDbEntity
  8
PCL_Layer
  6
ByLayer
 62
    7
370
   -1
100
AcDbLine
 10
340.4077
 20
92.0149
 11
340.4077
 21
78.0513
  0
LINE
  5
1F9
100
AcDbEntity
  8
PCL_Layer
  6
ByLayer
 62
    7
370
   -1
100
AcDbLine
 10
340.4077
 20
78.0513
 11
326.419
 21
78.0513
  0
LINE
  5
1FA
100
AcDbEntity
  8
PCL_Layer
  6
ByLayer
 62
    7
370
   -1
100
AcDbLine
 10
350.2173
 20
92.0149
 11
364.206
 21
92.0149
  0
LINE
  5
1FB
100
AcDbEntity
  8
PCL_Layer
  6
ByLayer
 62
    7
370
   -1
100
AcDbLine
 10
350.2173
 20
78.0513
 11
350.2173
 21
92.0149
  0
LINE
  5
1FC
100
AcDbEntity
  8
PCL_Layer
  6
ByLayer
 62
    7
370
   -1
100
AcDbLine
 10
364.206
 20
92.0149
 11
364.206
 21
78.0513
  0
LINE
  5
1FD
100
AcDbEntity
  8
PCL_Layer
  6
ByLayer
 62
    7
370
   -1
100
AcDbLine
 10
364.206
 20
78.0513
 11
350.2173
 21
78.0513
  0
LINE
  5
1FE
100
AcDbEntity
  8
PCL_Layer
  6
ByLayer
 62
    7
370
   -1
100
AcDbLine
 10
64.23779999999999
 20
111.0836
 11
78.20140000000001
 21
111.0836
  0
LINE
  5
1FF
100
AcDbEntity
  8
PCL_Layer
  6
ByLayer
 62
    7
370
   -1
100
AcDbLine
 10
64.23779999999999
 20
97.1199
 11
64.23779999999999
 21
111.0836
  0
LINE
  5
200
100
AcDbEntity
  8
PCL_Layer
  6
ByLayer
 62
    7
370
   -1
100
AcDbLine
 10
78.20140000000001
 20
111.0836
 11
78.20140000000001
 21
97.1199
  0
LINE
  5
201
100
AcDbEntity
  8
PCL_Layer
  6
ByLayer
 62
    7
370
   -1
100
AcDbLine
 10
78.20140000000001
 20
97.1199
 11
64.23779999999999
 21
97.1199
  0
LINE
  5
202
100
AcDbEntity
  8
PCL_Layer
  6
ByLayer
 62
    7
370
   -1
100
AcDbLine
 10
64.23779999999999
 20
168.2895
 11
78.20140000000001
 21
168.2895
  0
LINE
  5
203
100
AcDbEntity
  8
PCL_Layer
  6
ByLayer
 62
    7
370
   -1
100
AcDbLine
 10
64.23779999999999
 20
154.3258
 11
64.23779999999999
 21
168.2895
  0
LINE
  5
204
100
AcDbEntity
  8
PCL_Layer
  6
ByLayer
 62
    7
370
   -1
100
AcDbLine
 10
78.20140000000001
 20
168.2895
 11
78.20140000000001
 21
154.3258
  0
LINE
  5
205
100
AcDbEntity
  8
PCL_Layer
  6
ByLayer
 62
    7
370
   -1
100
AcDbLine
 10
78.20140000000001
 20
154.3258
 11
64.23779999999999
 21
154.3258
  0
LINE
  5
206
100
AcDbEntity
  8
PCL_Layer
  6
ByLayer
 62
    7
370
   -1
100
AcDbLine
 10
288.2818
 20
92.0149
 11
302.2704
 21
92.0149
  0
LINE
  5
207
100
AcDbEntity
  8
PCL_Layer
  6
ByLayer
 62
    7
370
   -1
100
AcDbLine
 10
288.2818
 20
78.0513
 11
288.2818
 21
92.0149
  0
LINE
  5
208
100
AcDbEntity
  8
PCL_Layer
  6
ByLayer
 62
    7
370
   -1
100
AcDbLine
 10
302.2704
 20
92.0149
 11
302.2704
 21
78.0513
  0
LINE
  5
209
100
AcDbEntity
  8
PCL_Layer
  6
ByLayer
 62
    7
370
   -1
100
AcDbLine
 10
302.2704
 20
78.0513
 11
288.2818
 21
78.0513
  0
LINE
  5
20A
100
AcDbEntity
  8
PCL_Layer
  6
ByLayer
 62
    7
370
   -1
100
AcDbLine
 10
35.6348
 20
130.1522
 11
49.5985
 21
130.1522
  0
LINE
  5
20B
100
AcDbEntity
  8
PCL_Layer
  6
ByLayer
 62
    7
370
   -1
100
AcDbLine
 10
35.6348
 20
116.1886
 11
35.6348
 21
130.1522
  0
LINE
  5
20C
100
AcDbEntity
  8
PCL_Layer
  6
ByLayer
 62
    7
370
   -1
100
AcDbLine
 10
49.5985
 20
130.1522
 11
49.5985
 21
116.1886
  0
LINE
  5
20D
100
AcDbEntity
  8
PCL_Layer
  6
ByLayer
 62
    7
370
   -1
100
AcDbLine
 10
49.5985
 20
116.1886
 11
35.6348
 21
116.1886
  0
LINE
  5
20E
100
AcDbEntity
  8
PCL_Layer
  6
ByLayer
 62
    7
370
   -1
100
AcDbLine
 10
309.7277
 20
72.94629999999999
 11
323.7164
 21
72.94629999999999
  0
LINE
  5
20F
100
AcDbEntity
  8
PCL_Layer
  6
ByLayer
 62
    7
370
   -1
100
AcDbLine
 10
309.7277
 20
58.9827
 11
309.7277
 21
72.94629999999999
  0
LINE
  5
210
100
AcDbEntity
  8
PCL_Layer
  6
ByLayer
 62
    7
370
   -1
100
AcDbLine
 10
323.7164
 20
72.94629999999999
 11
323.7164
 21
58.9827
  0
LINE
  5
211
100
AcDbEntity
  8
PCL_Layer
  6
ByLayer
 62
    7
370
   -1
100
AcDbLine
 10
323.7164
 20
58.9827
 11
309.7277
 21
58.9827
  0
LINE
  5
212
100
AcDbEntity
  8
PCL_Layer
  6
ByLayer
 62
    7
370
   -1
100
AcDbLine
 10
421.7622
 20
72.94629999999999
 11
435.7509
 21
72.94629999999999
  0
LINE
  5
213
100
AcDbEntity
  8
PCL_Layer
  6
ByLayer
 62
    7
370
   -1
100
AcDbLine
 10
421.7622
 20
58.9827
 11
421.7622
 21
72.94629999999999
  0
LINE
  5
214
100
AcDbEntity
  8
PCL_Layer
  6
ByLayer
 62
    7
370
   -1
100
AcDbLine
 10
435.7509
 20
72.94629999999999
 11
435.7509
 21
58.9827
  0
LINE
  5
215
100
AcDbEntity
  8
PCL_Layer
  6
ByLayer
 62
    7
370
   -1
100
AcDbLine
 10
435.7509
 20
58.9827
 11
421.7622
 21
58.9827
  0
LINE
  5
216
100
AcDbEntity
  8
PCL_Layer
  6
ByLayer
 62
    7
370
   -1
100
AcDbLine
 10
407.4482
 20
130.1522
 11
421.4369
 21
130.1522
  0
LINE
  5
217
100
AcDbEntity
  8
PCL_Layer
  6
ByLayer
 62
    7
370
   -1
100
AcDbLine
 10
407.4482
 20
116.1886
 11
407.4482
 21
130.1522
  0
LINE
  5
218
100
AcDbEntity
  8
PCL_Layer
  6
ByLayer
 62
    7
370
   -1
100
AcDbLine
 10
421.4369
 20
130.1522
 11
421.4369
 21
116.1886
  0
LINE
  5
219
100
AcDbEntity
  8
PCL_Layer
  6
ByLayer
 62
    7
370
   -1
100
AcDbLine
 10
421.4369
 20
116.1886
 11
407.4482
 21
116.1886
  0
LINE
  5
21A
100
AcDbEntity
  8
PCL_Layer
  6
ByLayer
 62
    7
370
   -1
100
AcDbLine
 10
259.6788
 20
111.0836
 11
273.6675
 21
111.0836
  0
LINE
  5
21B
100
AcDbEntity
  8
PCL_Layer
  6
ByLayer
 62
    7
370
   -1
100
AcDbLine
 10
259.6788
 20
97.1199
 11
259.6788
 21
111.0836
  0
LINE
  5
21C
100
AcDbEntity
  8
PCL_Layer
  6
ByLayer
 62
    7
370
   -1
100
AcDbLine
 10
273.6675
 20
111.0836
 11
273.6675
 21
97.1199
  0
LINE
  5
21D
100
AcDbEntity
  8
PCL_Layer
  6
ByLayer
 62
    7
370
   -1
100
AcDbLine
 10
273.6675
 20
97.1199
 11
259.6788
 21
97.1199
  0
LINE
  5
21E
100
AcDbEntity
  8
PCL_Layer
  6
ByLayer
 62
    7
370
   -1
100
AcDbLine
 10
0
 20
184.7556
 11
486
 21
184.7556
  0
LINE
  5
21F
100
AcDbEntity
  8
PCL_Layer
  6
ByLayer
 62
    7
370
   -1
100
AcDbLine
 10
486
 20
184.7556
 11
486
 21
0
  0
LINE
  5
220
100
AcDbEntity
  8
PCL_Layer
  6
ByLayer
 62
    7
370
   -1
100
AcDbLine
 10
486
 20
0
 11
0
 21
0
  0
LINE
  5
221
100
AcDbEntity
  8
PCL_Layer
  6
ByLayer
 62
    7
370
   -1
100
AcDbLine
 10
0
 20
0
 11
0
 21
184.7556
  0
ENDSEC
  0
SECTION
  2
OBJECTS
  0
DICTIONARY
  5
C
330
0
100
AcDbDictionary
281
    1
  3
ACAD_GROUP
350
D
  0
DICTIONARY
  5
D
330
C
100
AcDbDictionary
281
    1
  0
ENDSEC
  0
EOF
