%TF.GenerationSoftware,KiCad,Pcbnew,8.0.1-8.0.1-1~ubuntu22.04.1*%
%TF.CreationDate,2024-03-22T16:12:45+03:00*%
%TF.ProjectId,SpaceCadet,53706163-6543-4616-9465-742e6b696361,rev?*%
%TF.SameCoordinates,Original*%
%TF.FileFunction,Legend,Top*%
%TF.FilePolarity,Positive*%
%FSLAX46Y46*%
G04 Gerber Fmt 4.6, Leading zero omitted, Abs format (unit mm)*
G04 Created by KiCad (PCBNEW 8.0.1-8.0.1-1~ubuntu22.04.1) date 2024-03-22 16:12:45*
%MOMM*%
%LPD*%
G01*
G04 APERTURE LIST*
%ADD10C,0.120000*%
%TA.AperFunction,Profile*%
%ADD11C,0.100000*%
%TD*%
G04 APERTURE END LIST*
D10*
X280967752Y-104635000D02*
X294937752Y-104635000D01*
X280967752Y-118605000D02*
X280967752Y-104635000D01*
X294937752Y-104635000D02*
X294937752Y-118605000D01*
X294937752Y-118605000D02*
X280967752Y-118605000D01*
X371455242Y-47484998D02*
X385425242Y-47484998D01*
X371455242Y-61454998D02*
X371455242Y-47484998D01*
X385425242Y-47484998D02*
X385425242Y-61454998D01*
X385425242Y-61454998D02*
X371455242Y-61454998D01*
X447655162Y-66535005D02*
X461625162Y-66535005D01*
X447655162Y-80505005D02*
X447655162Y-66535005D01*
X461625162Y-66535005D02*
X461625162Y-80505005D01*
X461625162Y-80505005D02*
X447655162Y-80505005D01*
X185717802Y-104635000D02*
X199687802Y-104635000D01*
X185717802Y-118605000D02*
X185717802Y-104635000D01*
X199687802Y-104635000D02*
X199687802Y-118605000D01*
X199687802Y-118605000D02*
X185717802Y-118605000D01*
X133330332Y-66535005D02*
X147300332Y-66535005D01*
X133330332Y-80505005D02*
X133330332Y-66535005D01*
X147300332Y-66535005D02*
X147300332Y-80505005D01*
X147300332Y-80505005D02*
X133330332Y-80505005D01*
X195242782Y-85584995D02*
X209212782Y-85584995D01*
X195242782Y-99554995D02*
X195242782Y-85584995D01*
X209212782Y-85584995D02*
X209212782Y-99554995D01*
X209212782Y-99554995D02*
X195242782Y-99554995D01*
X385742712Y-104635000D02*
X399712712Y-104635000D01*
X385742712Y-118605000D02*
X385742712Y-104635000D01*
X399712712Y-104635000D02*
X399712712Y-118605000D01*
X399712712Y-118605000D02*
X385742712Y-118605000D01*
X316686562Y-123685005D02*
X330656562Y-123685005D01*
X316686562Y-137655005D02*
X316686562Y-123685005D01*
X330656562Y-123685005D02*
X330656562Y-137655005D01*
X330656562Y-137655005D02*
X316686562Y-137655005D01*
X328614717Y-161772563D02*
X342584717Y-161772563D01*
X328614717Y-175742563D02*
X328614717Y-161772563D01*
X342584717Y-161772563D02*
X342584717Y-175742563D01*
X342584717Y-175742563D02*
X328614717Y-175742563D01*
X378620342Y-161772615D02*
X392590342Y-161772615D01*
X378620342Y-175742615D02*
X378620342Y-161772615D01*
X392590342Y-161772615D02*
X392590342Y-175742615D01*
X392590342Y-175742615D02*
X378620342Y-175742615D01*
X428626225Y-161772667D02*
X442596225Y-161772667D01*
X428626225Y-175742667D02*
X428626225Y-161772667D01*
X442596225Y-161772667D02*
X442596225Y-175742667D01*
X442596225Y-175742667D02*
X428626225Y-175742667D01*
X114280332Y-28435001D02*
X128250332Y-28435001D01*
X114280332Y-42405001D02*
X114280332Y-28435001D01*
X128250332Y-28435001D02*
X128250332Y-42405001D01*
X128250332Y-42405001D02*
X114280332Y-42405001D01*
X123805342Y-47484998D02*
X137775342Y-47484998D01*
X123805342Y-61454998D02*
X123805342Y-47484998D01*
X137775342Y-47484998D02*
X137775342Y-61454998D01*
X137775342Y-61454998D02*
X123805342Y-61454998D01*
X404792862Y-123685005D02*
X418762862Y-123685005D01*
X404792862Y-137655005D02*
X404792862Y-123685005D01*
X418762862Y-123685005D02*
X418762862Y-137655005D01*
X418762862Y-137655005D02*
X404792862Y-137655005D01*
X419080182Y-66535005D02*
X433050182Y-66535005D01*
X419080182Y-80505005D02*
X419080182Y-66535005D01*
X433050182Y-66535005D02*
X433050182Y-80505005D01*
X433050182Y-80505005D02*
X419080182Y-80505005D01*
X345261582Y-123685005D02*
X359231582Y-123685005D01*
X345261582Y-137655005D02*
X345261582Y-123685005D01*
X359231582Y-123685005D02*
X359231582Y-137655005D01*
X359231582Y-137655005D02*
X345261582Y-137655005D01*
X28555332Y-66535005D02*
X42525332Y-66535005D01*
X28555332Y-80505005D02*
X28555332Y-66535005D01*
X42525332Y-66535005D02*
X42525332Y-80505005D01*
X42525332Y-80505005D02*
X28555332Y-80505005D01*
X433367872Y-123685005D02*
X447337872Y-123685005D01*
X433367872Y-137655005D02*
X433367872Y-123685005D01*
X447337872Y-123685005D02*
X447337872Y-137655005D01*
X447337872Y-137655005D02*
X433367872Y-137655005D01*
X80942832Y-104635000D02*
X94912832Y-104635000D01*
X80942832Y-118605000D02*
X80942832Y-104635000D01*
X94912832Y-104635000D02*
X94912832Y-118605000D01*
X94912832Y-118605000D02*
X80942832Y-118605000D01*
X295255232Y-47484998D02*
X309225232Y-47484998D01*
X295255232Y-61454998D02*
X295255232Y-47484998D01*
X309225232Y-47484998D02*
X309225232Y-61454998D01*
X309225232Y-61454998D02*
X295255232Y-61454998D01*
X47605335Y-66535005D02*
X61575335Y-66535005D01*
X47605335Y-80505005D02*
X47605335Y-66535005D01*
X61575335Y-66535005D02*
X61575335Y-80505005D01*
X61575335Y-80505005D02*
X47605335Y-80505005D01*
X285730232Y-66535005D02*
X299700232Y-66535005D01*
X285730232Y-80505005D02*
X285730232Y-66535005D01*
X299700232Y-66535005D02*
X299700232Y-80505005D01*
X299700232Y-80505005D02*
X285730232Y-80505005D01*
X266680252Y-66535005D02*
X280650252Y-66535005D01*
X266680252Y-80505005D02*
X266680252Y-66535005D01*
X280650252Y-66535005D02*
X280650252Y-80505005D01*
X280650252Y-80505005D02*
X266680252Y-80505005D01*
X205491000Y-152613000D02*
X303491000Y-152613000D01*
X303491000Y-192613000D01*
X205491000Y-192613000D01*
X205491000Y-152613000D01*
X52367832Y-104635000D02*
X66337832Y-104635000D01*
X52367832Y-118605000D02*
X52367832Y-104635000D01*
X66337832Y-104635000D02*
X66337832Y-118605000D01*
X66337832Y-118605000D02*
X52367832Y-118605000D01*
X76180342Y-66535005D02*
X90150342Y-66535005D01*
X76180342Y-80505005D02*
X76180342Y-66535005D01*
X90150342Y-66535005D02*
X90150342Y-80505005D01*
X90150342Y-80505005D02*
X76180342Y-80505005D01*
X466705152Y-66535005D02*
X480675152Y-66535005D01*
X466705152Y-80505005D02*
X466705152Y-66535005D01*
X480675152Y-66535005D02*
X480675152Y-80505005D01*
X480675152Y-80505005D02*
X466705152Y-80505005D01*
X466705182Y-47484998D02*
X480675182Y-47484998D01*
X466705182Y-61454998D02*
X466705182Y-47484998D01*
X480675182Y-47484998D02*
X480675182Y-61454998D01*
X480675182Y-61454998D02*
X466705182Y-61454998D01*
X204767792Y-104635000D02*
X218737792Y-104635000D01*
X204767792Y-118605000D02*
X204767792Y-104635000D01*
X218737792Y-104635000D02*
X218737792Y-118605000D01*
X218737792Y-118605000D02*
X204767792Y-118605000D01*
X419080212Y-47484998D02*
X433050212Y-47484998D01*
X419080212Y-61454998D02*
X419080212Y-47484998D01*
X433050212Y-47484998D02*
X433050212Y-61454998D01*
X433050212Y-61454998D02*
X419080212Y-61454998D01*
X238105262Y-47484998D02*
X252075262Y-47484998D01*
X238105262Y-61454998D02*
X238105262Y-47484998D01*
X252075262Y-47484998D02*
X252075262Y-61454998D01*
X252075262Y-61454998D02*
X238105262Y-61454998D01*
X319067732Y-104635000D02*
X333037732Y-104635000D01*
X319067732Y-118605000D02*
X319067732Y-104635000D01*
X333037732Y-104635000D02*
X333037732Y-118605000D01*
X333037732Y-118605000D02*
X319067732Y-118605000D01*
X111899072Y-85584995D02*
X125869072Y-85584995D01*
X111899072Y-99554995D02*
X111899072Y-85584995D01*
X125869072Y-85584995D02*
X125869072Y-99554995D01*
X125869072Y-99554995D02*
X111899072Y-99554995D01*
X104751582Y-104635000D02*
X118721582Y-104635000D01*
X104751582Y-118605000D02*
X104751582Y-104635000D01*
X118721582Y-104635000D02*
X118721582Y-118605000D01*
X118721582Y-118605000D02*
X104751582Y-118605000D01*
X128541582Y-104635000D02*
X142511582Y-104635000D01*
X128541582Y-118605000D02*
X128541582Y-104635000D01*
X142511582Y-104635000D02*
X142511582Y-118605000D01*
X142511582Y-118605000D02*
X128541582Y-118605000D01*
X357167672Y-85584995D02*
X371137672Y-85584995D01*
X357167672Y-99554995D02*
X357167672Y-85584995D01*
X371137672Y-85584995D02*
X371137672Y-99554995D01*
X371137672Y-99554995D02*
X357167672Y-99554995D01*
X266680342Y-28435001D02*
X280650342Y-28435001D01*
X266680342Y-42405001D02*
X266680342Y-28435001D01*
X280650342Y-28435001D02*
X280650342Y-42405001D01*
X280650342Y-42405001D02*
X266680342Y-42405001D01*
X309542712Y-85584995D02*
X323512712Y-85584995D01*
X309542712Y-99554995D02*
X309542712Y-85584995D01*
X323512712Y-85584995D02*
X323512712Y-99554995D01*
X323512712Y-99554995D02*
X309542712Y-99554995D01*
X161905312Y-47484998D02*
X175875312Y-47484998D01*
X161905312Y-61454998D02*
X161905312Y-47484998D01*
X175875312Y-47484998D02*
X175875312Y-61454998D01*
X175875312Y-61454998D02*
X161905312Y-61454998D01*
X380980262Y-28435001D02*
X394950262Y-28435001D01*
X380980262Y-42405001D02*
X380980262Y-28435001D01*
X394950262Y-28435001D02*
X394950262Y-42405001D01*
X394950262Y-42405001D02*
X380980262Y-42405001D01*
X419080152Y-85584995D02*
X433050152Y-85584995D01*
X419080152Y-99554995D02*
X419080152Y-85584995D01*
X433050152Y-85584995D02*
X433050152Y-99554995D01*
X433050152Y-99554995D02*
X419080152Y-99554995D01*
X28555332Y-104635000D02*
X42525332Y-104635000D01*
X28555332Y-118605000D02*
X28555332Y-104635000D01*
X42525332Y-104635000D02*
X42525332Y-118605000D01*
X42525332Y-118605000D02*
X28555332Y-118605000D01*
X121424082Y-123685005D02*
X135394082Y-123685005D01*
X121424082Y-137655005D02*
X121424082Y-123685005D01*
X135394082Y-123685005D02*
X135394082Y-137655005D01*
X135394082Y-137655005D02*
X121424082Y-137655005D01*
X319067732Y-47484998D02*
X333037732Y-47484998D01*
X319067732Y-61454998D02*
X319067732Y-47484998D01*
X333037732Y-47484998D02*
X333037732Y-61454998D01*
X333037732Y-61454998D02*
X319067732Y-61454998D01*
X76180342Y-47484998D02*
X90150342Y-47484998D01*
X76180342Y-61454998D02*
X76180342Y-47484998D01*
X90150342Y-47484998D02*
X90150342Y-61454998D01*
X90150342Y-61454998D02*
X76180342Y-61454998D01*
X76180322Y-28435001D02*
X90150322Y-28435001D01*
X76180322Y-42405001D02*
X76180322Y-28435001D01*
X90150322Y-28435001D02*
X90150322Y-42405001D01*
X90150322Y-42405001D02*
X76180322Y-42405001D01*
X342880292Y-28435001D02*
X356850292Y-28435001D01*
X342880292Y-42405001D02*
X342880292Y-28435001D01*
X356850292Y-28435001D02*
X356850292Y-42405001D01*
X356850292Y-42405001D02*
X342880292Y-42405001D01*
X152380332Y-28435001D02*
X166350332Y-28435001D01*
X152380332Y-42405001D02*
X152380332Y-28435001D01*
X166350332Y-28435001D02*
X166350332Y-42405001D01*
X166350332Y-42405001D02*
X152380332Y-42405001D01*
X290492712Y-85584995D02*
X304462712Y-85584995D01*
X290492712Y-99554995D02*
X290492712Y-85584995D01*
X304462712Y-85584995D02*
X304462712Y-99554995D01*
X304462712Y-99554995D02*
X290492712Y-99554995D01*
X276205242Y-47484998D02*
X290175242Y-47484998D01*
X276205242Y-61454998D02*
X276205242Y-47484998D01*
X290175242Y-47484998D02*
X290175242Y-61454998D01*
X290175242Y-61454998D02*
X276205242Y-61454998D01*
X457180212Y-28435001D02*
X471150212Y-28435001D01*
X457180212Y-42405001D02*
X457180212Y-28435001D01*
X471150212Y-28435001D02*
X471150212Y-42405001D01*
X471150212Y-42405001D02*
X457180212Y-42405001D01*
X361930182Y-66535005D02*
X375900182Y-66535005D01*
X361930182Y-80505005D02*
X361930182Y-66535005D01*
X375900182Y-66535005D02*
X375900182Y-80505005D01*
X375900182Y-80505005D02*
X361930182Y-80505005D01*
X242867762Y-104635000D02*
X256837762Y-104635000D01*
X242867762Y-118605000D02*
X242867762Y-104635000D01*
X256837762Y-104635000D02*
X256837762Y-118605000D01*
X256837762Y-118605000D02*
X242867762Y-118605000D01*
X173811582Y-123685005D02*
X187781582Y-123685005D01*
X173811582Y-137655005D02*
X173811582Y-123685005D01*
X187781582Y-123685005D02*
X187781582Y-137655005D01*
X187781582Y-137655005D02*
X173811582Y-137655005D01*
X147617822Y-104635000D02*
X161587822Y-104635000D01*
X147617822Y-118605000D02*
X147617822Y-104635000D01*
X161587822Y-104635000D02*
X161587822Y-118605000D01*
X161587822Y-118605000D02*
X147617822Y-118605000D01*
X388123912Y-85584995D02*
X402093912Y-85584995D01*
X388123912Y-99554995D02*
X388123912Y-85584995D01*
X402093912Y-85584995D02*
X402093912Y-99554995D01*
X402093912Y-99554995D02*
X388123912Y-99554995D01*
X209530282Y-66535005D02*
X223500282Y-66535005D01*
X209530282Y-80505005D02*
X209530282Y-66535005D01*
X223500282Y-66535005D02*
X223500282Y-80505005D01*
X223500282Y-80505005D02*
X209530282Y-80505005D01*
X304780312Y-28435001D02*
X318750312Y-28435001D01*
X304780312Y-42405001D02*
X304780312Y-28435001D01*
X318750312Y-28435001D02*
X318750312Y-42405001D01*
X318750312Y-42405001D02*
X304780312Y-42405001D01*
X466705242Y-104635000D02*
X480675242Y-104635000D01*
X466705242Y-118605000D02*
X466705242Y-104635000D01*
X480675242Y-104635000D02*
X480675242Y-118605000D01*
X480675242Y-118605000D02*
X466705242Y-118605000D01*
X385742682Y-66535005D02*
X399712682Y-66535005D01*
X385742682Y-80505005D02*
X385742682Y-66535005D01*
X399712682Y-66535005D02*
X399712682Y-80505005D01*
X399712682Y-80505005D02*
X385742682Y-80505005D01*
X323830212Y-66535005D02*
X337800212Y-66535005D01*
X323830212Y-80505005D02*
X323830212Y-66535005D01*
X337800212Y-66535005D02*
X337800212Y-80505005D01*
X337800212Y-80505005D02*
X323830212Y-80505005D01*
X38080330Y-85584995D02*
X52050330Y-85584995D01*
X38080330Y-99554995D02*
X38080330Y-85584995D01*
X52050330Y-85584995D02*
X52050330Y-99554995D01*
X52050330Y-99554995D02*
X38080330Y-99554995D01*
X376217842Y-123685005D02*
X390187842Y-123685005D01*
X376217842Y-137655005D02*
X376217842Y-123685005D01*
X390187842Y-123685005D02*
X390187842Y-137655005D01*
X390187842Y-137655005D02*
X376217842Y-137655005D01*
X176192792Y-85584995D02*
X190162792Y-85584995D01*
X176192792Y-99554995D02*
X176192792Y-85584995D01*
X190162792Y-85584995D02*
X190162792Y-99554995D01*
X190162792Y-99554995D02*
X176192792Y-99554995D01*
X152380322Y-66535005D02*
X166350322Y-66535005D01*
X152380322Y-80505005D02*
X152380322Y-66535005D01*
X166350322Y-66535005D02*
X166350322Y-80505005D01*
X166350322Y-80505005D02*
X152380322Y-80505005D01*
X228580272Y-66535005D02*
X242550272Y-66535005D01*
X228580272Y-80505005D02*
X228580272Y-66535005D01*
X242550272Y-66535005D02*
X242550272Y-80505005D01*
X242550272Y-80505005D02*
X228580272Y-80505005D01*
X247630262Y-66535005D02*
X261600262Y-66535005D01*
X247630262Y-80505005D02*
X247630262Y-66535005D01*
X261600262Y-66535005D02*
X261600262Y-80505005D01*
X261600262Y-80505005D02*
X247630262Y-80505005D01*
X338113972Y-104635000D02*
X352083972Y-104635000D01*
X338113972Y-118605000D02*
X338113972Y-104635000D01*
X352083972Y-104635000D02*
X352083972Y-118605000D01*
X352083972Y-118605000D02*
X338113972Y-118605000D01*
X361903972Y-104635000D02*
X375873972Y-104635000D01*
X361903972Y-118605000D02*
X361903972Y-104635000D01*
X375873972Y-104635000D02*
X375873972Y-118605000D01*
X375873972Y-118605000D02*
X361903972Y-118605000D01*
X28555332Y-47484998D02*
X42525332Y-47484998D01*
X28555332Y-61454998D02*
X28555332Y-47484998D01*
X42525332Y-47484998D02*
X42525332Y-61454998D01*
X42525332Y-61454998D02*
X28555332Y-61454998D01*
X214292762Y-85584995D02*
X228262762Y-85584995D01*
X214292762Y-99554995D02*
X214292762Y-85584995D01*
X228262762Y-85584995D02*
X228262762Y-99554995D01*
X228262762Y-99554995D02*
X214292762Y-99554995D01*
X166667812Y-104635000D02*
X180637812Y-104635000D01*
X166667812Y-118605000D02*
X166667812Y-104635000D01*
X180637812Y-104635000D02*
X180637812Y-118605000D01*
X180637812Y-118605000D02*
X166667812Y-118605000D01*
X104755342Y-47484998D02*
X118725342Y-47484998D01*
X104755342Y-61454998D02*
X104755342Y-47484998D01*
X118725342Y-47484998D02*
X118725342Y-61454998D01*
X118725342Y-61454998D02*
X104755342Y-61454998D01*
X76180322Y-85584995D02*
X90150322Y-85584995D01*
X76180322Y-99554995D02*
X76180322Y-85584995D01*
X90150322Y-85584995D02*
X90150322Y-99554995D01*
X90150322Y-99554995D02*
X76180322Y-99554995D01*
X223817772Y-104635000D02*
X237787772Y-104635000D01*
X223817772Y-118605000D02*
X223817772Y-104635000D01*
X237787772Y-104635000D02*
X237787772Y-118605000D01*
X237787772Y-118605000D02*
X223817772Y-118605000D01*
X447655192Y-47484998D02*
X461625192Y-47484998D01*
X447655192Y-61454998D02*
X447655192Y-47484998D01*
X461625192Y-47484998D02*
X461625192Y-61454998D01*
X461625192Y-61454998D02*
X447655192Y-61454998D01*
X271442732Y-85584995D02*
X285412732Y-85584995D01*
X271442732Y-99554995D02*
X271442732Y-85584995D01*
X285412732Y-85584995D02*
X285412732Y-99554995D01*
X285412732Y-99554995D02*
X271442732Y-99554995D01*
X457180112Y-85584995D02*
X471150112Y-85584995D01*
X457180112Y-99554995D02*
X457180112Y-85584995D01*
X471150112Y-85584995D02*
X471150112Y-99554995D01*
X471150112Y-99554995D02*
X457180112Y-99554995D01*
X109517842Y-66535005D02*
X123487842Y-66535005D01*
X109517842Y-80505005D02*
X109517842Y-66535005D01*
X123487842Y-66535005D02*
X123487842Y-80505005D01*
X123487842Y-80505005D02*
X109517842Y-80505005D01*
X247626572Y-123685005D02*
X261596572Y-123685005D01*
X247626572Y-137655005D02*
X247626572Y-123685005D01*
X261596572Y-123685005D02*
X261596572Y-137655005D01*
X261596572Y-137655005D02*
X247626572Y-137655005D01*
X271416572Y-123685005D02*
X285386572Y-123685005D01*
X271416572Y-137655005D02*
X271416572Y-123685005D01*
X285386572Y-123685005D02*
X285386572Y-137655005D01*
X285386572Y-137655005D02*
X271416572Y-137655005D01*
X200001572Y-123655005D02*
X213971572Y-123685005D01*
X200001572Y-137625005D02*
X200001572Y-123655005D01*
X213971572Y-137655005D02*
X200001572Y-137625005D01*
X213971572Y-137655005D02*
X213971572Y-123685005D01*
X223821572Y-123675005D02*
X237791572Y-123685005D01*
X223821572Y-137645005D02*
X223821572Y-123675005D01*
X237791572Y-123675005D02*
X237791572Y-137645005D01*
X237791572Y-137655005D02*
X223821572Y-137645005D01*
X390505232Y-47484998D02*
X404475232Y-47484998D01*
X390505232Y-61454998D02*
X390505232Y-47484998D01*
X404475232Y-47484998D02*
X404475232Y-61454998D01*
X404475232Y-61454998D02*
X390505232Y-61454998D01*
X90467832Y-123685005D02*
X104437832Y-123685005D01*
X90467832Y-137655005D02*
X90467832Y-123685005D01*
X104437832Y-123685005D02*
X104437832Y-137655005D01*
X104437832Y-137655005D02*
X90467832Y-137655005D01*
X419080242Y-28435001D02*
X433050242Y-28435001D01*
X419080242Y-42405001D02*
X419080242Y-28435001D01*
X433050242Y-28435001D02*
X433050242Y-42405001D01*
X433050242Y-42405001D02*
X419080242Y-42405001D01*
X257155252Y-47484998D02*
X271125252Y-47484998D01*
X257155252Y-61454998D02*
X257155252Y-47484998D01*
X271125252Y-47484998D02*
X271125252Y-61454998D01*
X271125252Y-61454998D02*
X257155252Y-61454998D01*
X233342752Y-85584995D02*
X247312752Y-85584995D01*
X233342752Y-99554995D02*
X233342752Y-85584995D01*
X247312752Y-85584995D02*
X247312752Y-99554995D01*
X247312752Y-99554995D02*
X233342752Y-99554995D01*
X252392742Y-85584995D02*
X266362742Y-85584995D01*
X252392742Y-99554995D02*
X252392742Y-85584995D01*
X266362742Y-85584995D02*
X266362742Y-99554995D01*
X266362742Y-99554995D02*
X252392742Y-99554995D01*
X228580352Y-28435001D02*
X242550352Y-28435001D01*
X228580352Y-42405001D02*
X228580352Y-28435001D01*
X242550352Y-28435001D02*
X242550352Y-42405001D01*
X242550352Y-42405001D02*
X228580352Y-42405001D01*
X66624711Y-161772563D02*
X80594711Y-161772563D01*
X66624711Y-175742563D02*
X66624711Y-161772563D01*
X80594711Y-161772563D02*
X80594711Y-175742563D01*
X80594711Y-175742563D02*
X66624711Y-175742563D01*
X116630336Y-161772615D02*
X130600336Y-161772615D01*
X116630336Y-175742615D02*
X116630336Y-161772615D01*
X130600336Y-161772615D02*
X130600336Y-175742615D01*
X130600336Y-175742615D02*
X116630336Y-175742615D01*
X166636219Y-161772667D02*
X180606219Y-161772667D01*
X166636219Y-175742667D02*
X166636219Y-161772667D01*
X180606219Y-161772667D02*
X180606219Y-175742667D01*
X180606219Y-175742667D02*
X166636219Y-175742667D01*
X190480292Y-66535005D02*
X204450292Y-66535005D01*
X190480292Y-80505005D02*
X190480292Y-66535005D01*
X204450292Y-66535005D02*
X204450292Y-80505005D01*
X204450292Y-80505005D02*
X190480292Y-80505005D01*
X414317732Y-104635000D02*
X428287732Y-104635000D01*
X414317732Y-118605000D02*
X414317732Y-104635000D01*
X428287732Y-104635000D02*
X428287732Y-118605000D01*
X428287732Y-118605000D02*
X414317732Y-118605000D01*
X180955302Y-47484998D02*
X194925302Y-47484998D01*
X180955302Y-61454998D02*
X180955302Y-47484998D01*
X194925302Y-47484998D02*
X194925302Y-61454998D01*
X194925302Y-61454998D02*
X180955302Y-61454998D01*
X292874062Y-123685005D02*
X306844062Y-123685005D01*
X292874062Y-137655005D02*
X292874062Y-123685005D01*
X306844062Y-123685005D02*
X306844062Y-137655005D01*
X306844062Y-137655005D02*
X292874062Y-137655005D01*
X138092812Y-85584995D02*
X152062812Y-85584995D01*
X138092812Y-99554995D02*
X138092812Y-85584995D01*
X152062812Y-85584995D02*
X152062812Y-99554995D01*
X152062812Y-99554995D02*
X138092812Y-99554995D01*
X328592692Y-85584995D02*
X342562692Y-85584995D01*
X328592692Y-99554995D02*
X328592692Y-85584995D01*
X342562692Y-85584995D02*
X342562692Y-99554995D01*
X342562692Y-99554995D02*
X328592692Y-99554995D01*
X304780212Y-66535005D02*
X318750212Y-66535005D01*
X304780212Y-80505005D02*
X304780212Y-66535005D01*
X318750212Y-66535005D02*
X318750212Y-80505005D01*
X318750212Y-80505005D02*
X304780212Y-80505005D01*
X157142802Y-85584995D02*
X171112802Y-85584995D01*
X157142802Y-99554995D02*
X157142802Y-85584995D01*
X171112802Y-85584995D02*
X171112802Y-99554995D01*
X171112802Y-99554995D02*
X157142802Y-99554995D01*
X61892832Y-123685005D02*
X75862832Y-123685005D01*
X61892832Y-137655005D02*
X61892832Y-123685005D01*
X75862832Y-123685005D02*
X75862832Y-137655005D01*
X75862832Y-137655005D02*
X61892832Y-137655005D01*
X47605335Y-47484998D02*
X61575335Y-47484998D01*
X47605335Y-61454998D02*
X47605335Y-47484998D01*
X61575335Y-47484998D02*
X61575335Y-61454998D01*
X61575335Y-61454998D02*
X47605335Y-61454998D01*
X442892742Y-104635000D02*
X456862742Y-104635000D01*
X442892742Y-118605000D02*
X442892742Y-104635000D01*
X456862742Y-104635000D02*
X456862742Y-118605000D01*
X456862742Y-118605000D02*
X442892742Y-118605000D01*
X261917762Y-104635000D02*
X275887762Y-104635000D01*
X261917762Y-118605000D02*
X261917762Y-104635000D01*
X275887762Y-104635000D02*
X275887762Y-118605000D01*
X275887762Y-118605000D02*
X261917762Y-118605000D01*
X219055282Y-47484998D02*
X233025282Y-47484998D01*
X219055282Y-61454998D02*
X219055282Y-47484998D01*
X233025282Y-47484998D02*
X233025282Y-61454998D01*
X233025282Y-61454998D02*
X219055282Y-61454998D01*
X347642742Y-47484998D02*
X361612742Y-47484998D01*
X347642742Y-61454998D02*
X347642742Y-47484998D01*
X361612742Y-47484998D02*
X361612742Y-61454998D01*
X361612742Y-61454998D02*
X347642742Y-61454998D01*
X171430312Y-66535005D02*
X185400312Y-66535005D01*
X171430312Y-80505005D02*
X171430312Y-66535005D01*
X185400312Y-66535005D02*
X185400312Y-80505005D01*
X185400312Y-80505005D02*
X171430312Y-80505005D01*
X200005292Y-47484998D02*
X213975292Y-47484998D01*
X200005292Y-61454998D02*
X200005292Y-47484998D01*
X213975292Y-47484998D02*
X213975292Y-61454998D01*
X213975292Y-61454998D02*
X200005292Y-61454998D01*
X342880212Y-66535005D02*
X356850212Y-66535005D01*
X342880212Y-80505005D02*
X342880212Y-66535005D01*
X356850212Y-66535005D02*
X356850212Y-80505005D01*
X356850212Y-80505005D02*
X342880212Y-80505005D01*
X461942882Y-123685005D02*
X475912882Y-123685005D01*
X461942882Y-137655005D02*
X461942882Y-123685005D01*
X475912882Y-123685005D02*
X475912882Y-137655005D01*
X475912882Y-137655005D02*
X461942882Y-137655005D01*
X149999082Y-123685005D02*
X163969082Y-123685005D01*
X149999082Y-137655005D02*
X149999082Y-123685005D01*
X163969082Y-123685005D02*
X163969082Y-137655005D01*
X163969082Y-137655005D02*
X149999082Y-137655005D01*
X300017742Y-104635000D02*
X313987742Y-104635000D01*
X300017742Y-118605000D02*
X300017742Y-104635000D01*
X313987742Y-104635000D02*
X313987742Y-118605000D01*
X313987742Y-118605000D02*
X300017742Y-118605000D01*
X38080330Y-28435001D02*
X52050330Y-28435001D01*
X38080330Y-42405001D02*
X38080330Y-28435001D01*
X52050330Y-28435001D02*
X52050330Y-42405001D01*
X52050330Y-42405001D02*
X38080330Y-42405001D01*
X190480342Y-28435001D02*
X204450342Y-28435001D01*
X190480342Y-42405001D02*
X190480342Y-28435001D01*
X204450342Y-28435001D02*
X204450342Y-42405001D01*
X204450342Y-42405001D02*
X190480342Y-42405001D01*
X142855332Y-47484998D02*
X156825332Y-47484998D01*
X142855332Y-61454998D02*
X142855332Y-47484998D01*
X156825332Y-47484998D02*
X156825332Y-61454998D01*
X156825332Y-61454998D02*
X142855332Y-61454998D01*
X33317832Y-123685005D02*
X47287832Y-123685005D01*
X33317832Y-137655005D02*
X33317832Y-123685005D01*
X47287832Y-123685005D02*
X47287832Y-137655005D01*
X47287832Y-137655005D02*
X33317832Y-137655005D01*
D11*
X12000000Y-12000000D02*
X497535312Y-12000000D01*
X497535312Y-212000000D01*
X12000000Y-212000000D01*
X12000000Y-12000000D01*
M02*
