0
SECTION
2
HEADER
9
$ACADVER
1
AC1009
9
$INSUNITS
70
4
9
$EXTMIN
10
0.000000
20
0.000000
30
0.000000
9
$EXTMAX
10
474.000000
20
133.046000
30
0.000000
0
ENDSEC
0
SECTION
2
TABLES
0
TABLE
2
LAYER
0
LAYER
2
PCL_Layer
62
7
70
0
6
CONTINUOUS
0
ENDTAB
0
TABLE
2
VPORT
5
0
100
AcDbSymbolTable
70
3
0
VPORT
5
1
100
AcDbSymbolTableRecord
100
AcDbViewportTableRecord
2
*ACTIVE
70
0
10
0.0
20
0.0
11
1.0
21
1.0
12
237.000000
22
66.523000
13
0.0
23
0.0
14
10.0
24
10.0
15
10.0
25
10.0
16
0.0
26
0.0
36
1.0
17
0.0
27
0.0
37
0.0
40
159.655200
41
2.107632093933463
42
50.0
43
0.0
44
0.0
50
0.0
51
0.0
71
0
72
100
73
1
74
3
75
0
76
0
77
0
78
0
0
ENDTAB
0
ENDSEC
0
SECTION
2
BLOCKS
0
ENDSEC
0
SECTION
2
ENTITIES
0
LINE
100
AcDbEntity
100
AcDbLine
8
PCL_Layer
5
1000
10
277.843900
20
101.266000
30
0.000000
11
291.846200
21
101.266000
31
0.000000
62
7
0
LINE
100
AcDbEntity
100
AcDbLine
8
PCL_Layer
5
1001
10
277.843900
20
87.263800
30
0.000000
11
277.843900
21
101.266000
31
0.000000
62
7
0
LINE
100
AcDbEntity
100
AcDbLine
8
PCL_Layer
5
1002
10
291.846200
20
101.266000
30
0.000000
11
291.846200
21
87.263800
31
0.000000
62
7
0
LINE
100
AcDbEntity
100
AcDbLine
8
PCL_Layer
5
1003
10
291.846200
20
87.263800
30
0.000000
11
277.843900
21
87.263800
31
0.000000
62
7
0
LINE
100
AcDbEntity
100
AcDbLine
8
PCL_Layer
5
1004
10
449.321000
20
101.266000
30
0.000000
11
463.323300
21
101.266000
31
0.000000
62
7
0
LINE
100
AcDbEntity
100
AcDbLine
8
PCL_Layer
5
1005
10
449.321000
20
87.263800
30
0.000000
11
449.321000
21
101.266000
31
0.000000
62
7
0
LINE
100
AcDbEntity
100
AcDbLine
8
PCL_Layer
5
1006
10
463.323300
20
101.266000
30
0.000000
11
463.323300
21
87.263800
31
0.000000
62
7
0
LINE
100
AcDbEntity
100
AcDbLine
8
PCL_Layer
5
1007
10
463.323300
20
87.263800
30
0.000000
11
449.321000
21
87.263800
31
0.000000
62
7
0
LINE
100
AcDbEntity
100
AcDbLine
8
PCL_Layer
5
1008
10
130.195600
20
44.107000
30
0.000000
11
144.197800
21
44.107000
31
0.000000
62
7
0
LINE
100
AcDbEntity
100
AcDbLine
8
PCL_Layer
5
1009
10
130.195600
20
30.104800
30
0.000000
11
130.195600
21
44.107000
31
0.000000
62
7
0
LINE
100
AcDbEntity
100
AcDbLine
8
PCL_Layer
5
100A
10
144.197800
20
44.107000
30
0.000000
11
144.197800
21
30.104800
31
0.000000
62
7
0
LINE
100
AcDbEntity
100
AcDbLine
8
PCL_Layer
5
100B
10
144.197800
20
30.104800
30
0.000000
11
130.195600
21
30.104800
31
0.000000
62
7
0
LINE
100
AcDbEntity
100
AcDbLine
8
PCL_Layer
5
100C
10
196.881100
20
63.160000
30
0.000000
11
210.883400
21
63.160000
31
0.000000
62
7
0
LINE
100
AcDbEntity
100
AcDbLine
8
PCL_Layer
5
100D
10
196.881100
20
49.157800
30
0.000000
11
196.881100
21
63.160000
31
0.000000
62
7
0
LINE
100
AcDbEntity
100
AcDbLine
8
PCL_Layer
5
100E
10
210.883400
20
63.160000
30
0.000000
11
210.883400
21
49.157800
31
0.000000
62
7
0
LINE
100
AcDbEntity
100
AcDbLine
8
PCL_Layer
5
100F
10
210.883400
20
49.157800
30
0.000000
11
196.881100
21
49.157800
31
0.000000
62
7
0
LINE
100
AcDbEntity
100
AcDbLine
8
PCL_Layer
5
1010
10
263.566700
20
25.079000
30
0.000000
11
277.568900
21
25.079000
31
0.000000
62
7
0
LINE
100
AcDbEntity
100
AcDbLine
8
PCL_Layer
5
1011
10
263.566700
20
11.076800
30
0.000000
11
263.566700
21
25.079000
31
0.000000
62
7
0
LINE
100
AcDbEntity
100
AcDbLine
8
PCL_Layer
5
1012
10
277.568900
20
25.079000
30
0.000000
11
277.568900
21
11.076800
31
0.000000
62
7
0
LINE
100
AcDbEntity
100
AcDbLine
8
PCL_Layer
5
1013
10
277.568900
20
11.076800
30
0.000000
11
263.566700
21
11.076800
31
0.000000
62
7
0
LINE
100
AcDbEntity
100
AcDbLine
8
PCL_Layer
5
1014
10
354.056000
20
101.266000
30
0.000000
11
368.058200
21
101.266000
31
0.000000
62
7
0
LINE
100
AcDbEntity
100
AcDbLine
8
PCL_Layer
5
1015
10
354.056000
20
87.263800
30
0.000000
11
354.056000
21
101.266000
31
0.000000
62
7
0
LINE
100
AcDbEntity
100
AcDbLine
8
PCL_Layer
5
1016
10
368.058200
20
101.266000
30
0.000000
11
368.058200
21
87.263800
31
0.000000
62
7
0
LINE
100
AcDbEntity
100
AcDbLine
8
PCL_Layer
5
1017
10
368.058200
20
87.263800
30
0.000000
11
354.056000
21
87.263800
31
0.000000
62
7
0
LINE
100
AcDbEntity
100
AcDbLine
8
PCL_Layer
5
1018
10
182.578900
20
101.266000
30
0.000000
11
196.581100
21
101.266000
31
0.000000
62
7
0
LINE
100
AcDbEntity
100
AcDbLine
8
PCL_Layer
5
1019
10
182.578900
20
87.263800
30
0.000000
11
182.578900
21
101.266000
31
0.000000
62
7
0
LINE
100
AcDbEntity
100
AcDbLine
8
PCL_Layer
5
101A
10
196.581100
20
101.266000
30
0.000000
11
196.581100
21
87.263800
31
0.000000
62
7
0
LINE
100
AcDbEntity
100
AcDbLine
8
PCL_Layer
5
101B
10
196.581100
20
87.263800
30
0.000000
11
182.578900
21
87.263800
31
0.000000
62
7
0
LINE
100
AcDbEntity
100
AcDbLine
8
PCL_Layer
5
101C
10
268.317400
20
82.213000
30
0.000000
11
282.319600
21
82.213000
31
0.000000
62
7
0
LINE
100
AcDbEntity
100
AcDbLine
8
PCL_Layer
5
101D
10
268.317400
20
68.210800
30
0.000000
11
268.317400
21
82.213000
31
0.000000
62
7
0
LINE
100
AcDbEntity
100
AcDbLine
8
PCL_Layer
5
101E
10
282.319600
20
82.213000
30
0.000000
11
282.319600
21
68.210800
31
0.000000
62
7
0
LINE
100
AcDbEntity
100
AcDbLine
8
PCL_Layer
5
101F
10
282.319600
20
68.210800
30
0.000000
11
268.317400
21
68.210800
31
0.000000
62
7
0
LINE
100
AcDbEntity
100
AcDbLine
8
PCL_Layer
5
1020
10
254.040200
20
63.160000
30
0.000000
11
268.042400
21
63.160000
31
0.000000
62
7
0
LINE
100
AcDbEntity
100
AcDbLine
8
PCL_Layer
5
1021
10
254.040200
20
49.157800
30
0.000000
11
254.040200
21
63.160000
31
0.000000
62
7
0
LINE
100
AcDbEntity
100
AcDbLine
8
PCL_Layer
5
1022
10
268.042400
20
63.160000
30
0.000000
11
268.042400
21
49.157800
31
0.000000
62
7
0
LINE
100
AcDbEntity
100
AcDbLine
8
PCL_Layer
5
1023
10
268.042400
20
49.157800
30
0.000000
11
254.040200
21
49.157800
31
0.000000
62
7
0
LINE
100
AcDbEntity
100
AcDbLine
8
PCL_Layer
5
1024
10
220.684900
20
101.266000
30
0.000000
11
234.687100
21
101.266000
31
0.000000
62
7
0
LINE
100
AcDbEntity
100
AcDbLine
8
PCL_Layer
5
1025
10
220.684900
20
87.263800
30
0.000000
11
220.684900
21
101.266000
31
0.000000
62
7
0
LINE
100
AcDbEntity
100
AcDbLine
8
PCL_Layer
5
1026
10
234.687100
20
101.266000
30
0.000000
11
234.687100
21
87.263800
31
0.000000
62
7
0
LINE
100
AcDbEntity
100
AcDbLine
8
PCL_Layer
5
1027
10
234.687100
20
87.263800
30
0.000000
11
220.684900
21
87.263800
31
0.000000
62
7
0
LINE
100
AcDbEntity
100
AcDbLine
8
PCL_Layer
5
1028
10
234.987200
20
63.160000
30
0.000000
11
248.989400
21
63.160000
31
0.000000
62
7
0
LINE
100
AcDbEntity
100
AcDbLine
8
PCL_Layer
5
1029
10
234.987200
20
49.157800
30
0.000000
11
234.987200
21
63.160000
31
0.000000
62
7
0
LINE
100
AcDbEntity
100
AcDbLine
8
PCL_Layer
5
102A
10
248.989400
20
63.160000
30
0.000000
11
248.989400
21
49.157800
31
0.000000
62
7
0
LINE
100
AcDbEntity
100
AcDbLine
8
PCL_Layer
5
102B
10
248.989400
20
49.157800
30
0.000000
11
234.987200
21
49.157800
31
0.000000
62
7
0
LINE
100
AcDbEntity
100
AcDbLine
8
PCL_Layer
5
102C
10
370.758600
20
63.185000
30
0.000000
11
384.760800
21
63.185000
31
0.000000
62
7
0
LINE
100
AcDbEntity
100
AcDbLine
8
PCL_Layer
5
102D
10
370.758600
20
49.182800
30
0.000000
11
370.758600
21
63.185000
31
0.000000
62
7
0
LINE
100
AcDbEntity
100
AcDbLine
8
PCL_Layer
5
102E
10
384.760800
20
63.185000
30
0.000000
11
384.760800
21
49.182800
31
0.000000
62
7
0
LINE
100
AcDbEntity
100
AcDbLine
8
PCL_Layer
5
102F
10
384.760800
20
49.182800
30
0.000000
11
370.758600
21
49.182800
31
0.000000
62
7
0
LINE
100
AcDbEntity
100
AcDbLine
8
PCL_Layer
5
1030
10
330.252200
20
101.266000
30
0.000000
11
344.254500
21
101.266000
31
0.000000
62
7
0
LINE
100
AcDbEntity
100
AcDbLine
8
PCL_Layer
5
1031
10
330.252200
20
87.263800
30
0.000000
11
330.252200
21
101.266000
31
0.000000
62
7
0
LINE
100
AcDbEntity
100
AcDbLine
8
PCL_Layer
5
1032
10
344.254500
20
101.266000
30
0.000000
11
344.254500
21
87.263800
31
0.000000
62
7
0
LINE
100
AcDbEntity
100
AcDbLine
8
PCL_Layer
5
1033
10
344.254500
20
87.263800
30
0.000000
11
330.252200
21
87.263800
31
0.000000
62
7
0
LINE
100
AcDbEntity
100
AcDbLine
8
PCL_Layer
5
1034
10
94.489900
20
63.160000
30
0.000000
11
108.492200
21
63.160000
31
0.000000
62
7
0
LINE
100
AcDbEntity
100
AcDbLine
8
PCL_Layer
5
1035
10
94.489900
20
49.157800
30
0.000000
11
94.489900
21
63.160000
31
0.000000
62
7
0
LINE
100
AcDbEntity
100
AcDbLine
8
PCL_Layer
5
1036
10
108.492200
20
63.160000
30
0.000000
11
108.492200
21
49.157800
31
0.000000
62
7
0
LINE
100
AcDbEntity
100
AcDbLine
8
PCL_Layer
5
1037
10
108.492200
20
49.157800
30
0.000000
11
94.489900
21
49.157800
31
0.000000
62
7
0
LINE
100
AcDbEntity
100
AcDbLine
8
PCL_Layer
5
1038
10
287.370500
20
82.213000
30
0.000000
11
301.372700
21
82.213000
31
0.000000
62
7
0
LINE
100
AcDbEntity
100
AcDbLine
8
PCL_Layer
5
1039
10
287.370500
20
68.210800
30
0.000000
11
287.370500
21
82.213000
31
0.000000
62
7
0
LINE
100
AcDbEntity
100
AcDbLine
8
PCL_Layer
5
103A
10
301.372700
20
82.213000
30
0.000000
11
301.372700
21
68.210800
31
0.000000
62
7
0
LINE
100
AcDbEntity
100
AcDbLine
8
PCL_Layer
5
103B
10
301.372700
20
68.210800
30
0.000000
11
287.370500
21
68.210800
31
0.000000
62
7
0
LINE
100
AcDbEntity
100
AcDbLine
8
PCL_Layer
5
103C
10
430.268000
20
82.213000
30
0.000000
11
444.270300
21
82.213000
31
0.000000
62
7
0
LINE
100
AcDbEntity
100
AcDbLine
8
PCL_Layer
5
103D
10
430.268000
20
68.210800
30
0.000000
11
430.268000
21
82.213000
31
0.000000
62
7
0
LINE
100
AcDbEntity
100
AcDbLine
8
PCL_Layer
5
103E
10
444.270300
20
82.213000
30
0.000000
11
444.270300
21
68.210800
31
0.000000
62
7
0
LINE
100
AcDbEntity
100
AcDbLine
8
PCL_Layer
5
103F
10
444.270300
20
68.210800
30
0.000000
11
430.268000
21
68.210800
31
0.000000
62
7
0
LINE
100
AcDbEntity
100
AcDbLine
8
PCL_Layer
5
1040
10
258.790900
20
101.266000
30
0.000000
11
272.793200
21
101.266000
31
0.000000
62
7
0
LINE
100
AcDbEntity
100
AcDbLine
8
PCL_Layer
5
1041
10
258.790900
20
87.263800
30
0.000000
11
258.790900
21
101.266000
31
0.000000
62
7
0
LINE
100
AcDbEntity
100
AcDbLine
8
PCL_Layer
5
1042
10
272.793200
20
101.266000
30
0.000000
11
272.793200
21
87.263800
31
0.000000
62
7
0
LINE
100
AcDbEntity
100
AcDbLine
8
PCL_Layer
5
1043
10
272.793200
20
87.263800
30
0.000000
11
258.790900
21
87.263800
31
0.000000
62
7
0
LINE
100
AcDbEntity
100
AcDbLine
8
PCL_Layer
5
1044
10
58.759300
20
82.238000
30
0.000000
11
72.761500
21
82.238000
31
0.000000
62
7
0
LINE
100
AcDbEntity
100
AcDbLine
8
PCL_Layer
5
1045
10
58.759300
20
68.235800
30
0.000000
11
58.759300
21
82.238000
31
0.000000
62
7
0
LINE
100
AcDbEntity
100
AcDbLine
8
PCL_Layer
5
1046
10
72.761500
20
82.238000
30
0.000000
11
72.761500
21
68.235800
31
0.000000
62
7
0
LINE
100
AcDbEntity
100
AcDbLine
8
PCL_Layer
5
1047
10
72.761500
20
68.235800
30
0.000000
11
58.759300
21
68.235800
31
0.000000
62
7
0
LINE
100
AcDbEntity
100
AcDbLine
8
PCL_Layer
5
1048
10
401.713500
20
120.344000
30
0.000000
11
415.715800
21
120.344000
31
0.000000
62
7
0
LINE
100
AcDbEntity
100
AcDbLine
8
PCL_Layer
5
1049
10
401.713500
20
106.341800
30
0.000000
11
401.713500
21
120.344000
31
0.000000
62
7
0
LINE
100
AcDbEntity
100
AcDbLine
8
PCL_Layer
5
104A
10
415.715800
20
120.344000
30
0.000000
11
415.715800
21
106.341800
31
0.000000
62
7
0
LINE
100
AcDbEntity
100
AcDbLine
8
PCL_Layer
5
104B
10
415.715800
20
106.341800
30
0.000000
11
401.713500
21
106.341800
31
0.000000
62
7
0
LINE
100
AcDbEntity
100
AcDbLine
8
PCL_Layer
5
104C
10
287.395400
20
120.344000
30
0.000000
11
301.397700
21
120.344000
31
0.000000
62
7
0
LINE
100
AcDbEntity
100
AcDbLine
8
PCL_Layer
5
104D
10
287.395400
20
106.341800
30
0.000000
11
287.395400
21
120.344000
31
0.000000
62
7
0
LINE
100
AcDbEntity
100
AcDbLine
8
PCL_Layer
5
104E
10
301.397700
20
120.344000
30
0.000000
11
301.397700
21
106.341800
31
0.000000
62
7
0
LINE
100
AcDbEntity
100
AcDbLine
8
PCL_Layer
5
104F
10
301.397700
20
106.341800
30
0.000000
11
287.395400
21
106.341800
31
0.000000
62
7
0
LINE
100
AcDbEntity
100
AcDbLine
8
PCL_Layer
5
1050
10
11.126800
20
82.213000
30
0.000000
11
25.129000
21
82.213000
31
0.000000
62
7
0
LINE
100
AcDbEntity
100
AcDbLine
8
PCL_Layer
5
1051
10
11.126800
20
68.210800
30
0.000000
11
11.126800
21
82.213000
31
0.000000
62
7
0
LINE
100
AcDbEntity
100
AcDbLine
8
PCL_Layer
5
1052
10
25.129000
20
82.213000
30
0.000000
11
25.129000
21
68.210800
31
0.000000
62
7
0
LINE
100
AcDbEntity
100
AcDbLine
8
PCL_Layer
5
1053
10
25.129000
20
68.210800
30
0.000000
11
11.126800
21
68.210800
31
0.000000
62
7
0
LINE
100
AcDbEntity
100
AcDbLine
8
PCL_Layer
5
1054
10
206.407700
20
44.107000
30
0.000000
11
220.409900
21
44.107000
31
0.000000
62
7
0
LINE
100
AcDbEntity
100
AcDbLine
8
PCL_Layer
5
1055
10
206.407700
20
30.104800
30
0.000000
11
206.407700
21
44.107000
31
0.000000
62
7
0
LINE
100
AcDbEntity
100
AcDbLine
8
PCL_Layer
5
1056
10
220.409900
20
44.107000
30
0.000000
11
220.409900
21
30.104800
31
0.000000
62
7
0
LINE
100
AcDbEntity
100
AcDbLine
8
PCL_Layer
5
1057
10
220.409900
20
30.104800
30
0.000000
11
206.407700
21
30.104800
31
0.000000
62
7
0
LINE
100
AcDbEntity
100
AcDbLine
8
PCL_Layer
5
1058
10
449.321000
20
44.107000
30
0.000000
11
463.323300
21
44.107000
31
0.000000
62
7
0
LINE
100
AcDbEntity
100
AcDbLine
8
PCL_Layer
5
1059
10
449.321000
20
30.104800
30
0.000000
11
449.321000
21
44.107000
31
0.000000
62
7
0
LINE
100
AcDbEntity
100
AcDbLine
8
PCL_Layer
5
105A
10
463.323300
20
44.107000
30
0.000000
11
463.323300
21
30.104800
31
0.000000
62
7
0
LINE
100
AcDbEntity
100
AcDbLine
8
PCL_Layer
5
105B
10
463.323300
20
30.104800
30
0.000000
11
449.321000
21
30.104800
31
0.000000
62
7
0
LINE
100
AcDbEntity
100
AcDbLine
8
PCL_Layer
5
105C
10
58.759300
20
63.185000
30
0.000000
11
72.761500
21
63.185000
31
0.000000
62
7
0
LINE
100
AcDbEntity
100
AcDbLine
8
PCL_Layer
5
105D
10
58.759300
20
49.182800
30
0.000000
11
58.759300
21
63.185000
31
0.000000
62
7
0
LINE
100
AcDbEntity
100
AcDbLine
8
PCL_Layer
5
105E
10
72.761500
20
63.185000
30
0.000000
11
72.761500
21
49.182800
31
0.000000
62
7
0
LINE
100
AcDbEntity
100
AcDbLine
8
PCL_Layer
5
105F
10
72.761500
20
49.182800
30
0.000000
11
58.759300
21
49.182800
31
0.000000
62
7
0
LINE
100
AcDbEntity
100
AcDbLine
8
PCL_Layer
5
1060
10
301.672700
20
101.266000
30
0.000000
11
315.674900
21
101.266000
31
0.000000
62
7
0
LINE
100
AcDbEntity
100
AcDbLine
8
PCL_Layer
5
1061
10
301.672700
20
87.263800
30
0.000000
11
301.672700
21
101.266000
31
0.000000
62
7
0
LINE
100
AcDbEntity
100
AcDbLine
8
PCL_Layer
5
1062
10
315.674900
20
101.266000
30
0.000000
11
315.674900
21
87.263800
31
0.000000
62
7
0
LINE
100
AcDbEntity
100
AcDbLine
8
PCL_Layer
5
1063
10
315.674900
20
87.263800
30
0.000000
11
301.672700
21
87.263800
31
0.000000
62
7
0
LINE
100
AcDbEntity
100
AcDbLine
8
PCL_Layer
5
1064
10
306.423500
20
82.213000
30
0.000000
11
320.425700
21
82.213000
31
0.000000
62
7
0
LINE
100
AcDbEntity
100
AcDbLine
8
PCL_Layer
5
1065
10
306.423500
20
68.210800
30
0.000000
11
306.423500
21
82.213000
31
0.000000
62
7
0
LINE
100
AcDbEntity
100
AcDbLine
8
PCL_Layer
5
1066
10
320.425700
20
82.213000
30
0.000000
11
320.425700
21
68.210800
31
0.000000
62
7
0
LINE
100
AcDbEntity
100
AcDbLine
8
PCL_Layer
5
1067
10
320.425700
20
68.210800
30
0.000000
11
306.423500
21
68.210800
31
0.000000
62
7
0
LINE
100
AcDbEntity
100
AcDbLine
8
PCL_Layer
5
1068
10
304.073100
20
25.079000
30
0.000000
11
318.075300
21
25.079000
31
0.000000
62
7
0
LINE
100
AcDbEntity
100
AcDbLine
8
PCL_Layer
5
1069
10
304.073100
20
11.076800
30
0.000000
11
304.073100
21
25.079000
31
0.000000
62
7
0
LINE
100
AcDbEntity
100
AcDbLine
8
PCL_Layer
5
106A
10
318.075300
20
25.079000
30
0.000000
11
318.075300
21
11.076800
31
0.000000
62
7
0
LINE
100
AcDbEntity
100
AcDbLine
8
PCL_Layer
5
106B
10
318.075300
20
11.076800
30
0.000000
11
304.073100
21
11.076800
31
0.000000
62
7
0
LINE
100
AcDbEntity
100
AcDbLine
8
PCL_Layer
5
106C
10
187.354600
20
44.107000
30
0.000000
11
201.356800
21
44.107000
31
0.000000
62
7
0
LINE
100
AcDbEntity
100
AcDbLine
8
PCL_Layer
5
106D
10
187.354600
20
30.104800
30
0.000000
11
187.354600
21
44.107000
31
0.000000
62
7
0
LINE
100
AcDbEntity
100
AcDbLine
8
PCL_Layer
5
106E
10
201.356800
20
44.107000
30
0.000000
11
201.356800
21
30.104800
31
0.000000
62
7
0
LINE
100
AcDbEntity
100
AcDbLine
8
PCL_Layer
5
106F
10
201.356800
20
30.104800
30
0.000000
11
187.354600
21
30.104800
31
0.000000
62
7
0
LINE
100
AcDbEntity
100
AcDbLine
8
PCL_Layer
5
1070
10
30.179800
20
82.213000
30
0.000000
11
44.182000
21
82.213000
31
0.000000
62
7
0
LINE
100
AcDbEntity
100
AcDbLine
8
PCL_Layer
5
1071
10
30.179800
20
68.210800
30
0.000000
11
30.179800
21
82.213000
31
0.000000
62
7
0
LINE
100
AcDbEntity
100
AcDbLine
8
PCL_Layer
5
1072
10
44.182000
20
82.213000
30
0.000000
11
44.182000
21
68.210800
31
0.000000
62
7
0
LINE
100
AcDbEntity
100
AcDbLine
8
PCL_Layer
5
1073
10
44.182000
20
68.210800
30
0.000000
11
30.179800
21
68.210800
31
0.000000
62
7
0
LINE
100
AcDbEntity
100
AcDbLine
8
PCL_Layer
5
1074
10
99.240700
20
44.132000
30
0.000000
11
113.242900
21
44.132000
31
0.000000
62
7
0
LINE
100
AcDbEntity
100
AcDbLine
8
PCL_Layer
5
1075
10
99.240700
20
30.129800
30
0.000000
11
99.240700
21
44.132000
31
0.000000
62
7
0
LINE
100
AcDbEntity
100
AcDbLine
8
PCL_Layer
5
1076
10
113.242900
20
44.132000
30
0.000000
11
113.242900
21
30.129800
31
0.000000
62
7
0
LINE
100
AcDbEntity
100
AcDbLine
8
PCL_Layer
5
1077
10
113.242900
20
30.129800
30
0.000000
11
99.240700
21
30.129800
31
0.000000
62
7
0
LINE
100
AcDbEntity
100
AcDbLine
8
PCL_Layer
5
1078
10
58.759300
20
101.291000
30
0.000000
11
72.761500
21
101.291000
31
0.000000
62
7
0
LINE
100
AcDbEntity
100
AcDbLine
8
PCL_Layer
5
1079
10
58.759300
20
87.288800
30
0.000000
11
58.759300
21
101.291000
31
0.000000
62
7
0
LINE
100
AcDbEntity
100
AcDbLine
8
PCL_Layer
5
107A
10
72.761500
20
101.291000
30
0.000000
11
72.761500
21
87.288800
31
0.000000
62
7
0
LINE
100
AcDbEntity
100
AcDbLine
8
PCL_Layer
5
107B
10
72.761500
20
87.288800
30
0.000000
11
58.759300
21
87.288800
31
0.000000
62
7
0
LINE
100
AcDbEntity
100
AcDbLine
8
PCL_Layer
5
107C
10
416.015800
20
25.054000
30
0.000000
11
430.018000
21
25.054000
31
0.000000
62
7
0
LINE
100
AcDbEntity
100
AcDbLine
8
PCL_Layer
5
107D
10
416.015800
20
11.051700
30
0.000000
11
416.015800
21
25.054000
31
0.000000
62
7
0
LINE
100
AcDbEntity
100
AcDbLine
8
PCL_Layer
5
107E
10
430.018000
20
25.054000
30
0.000000
11
430.018000
21
11.051700
31
0.000000
62
7
0
LINE
100
AcDbEntity
100
AcDbLine
8
PCL_Layer
5
107F
10
430.018000
20
11.051700
30
0.000000
11
416.015800
21
11.051700
31
0.000000
62
7
0
LINE
100
AcDbEntity
100
AcDbLine
8
PCL_Layer
5
1080
10
249.264400
20
82.213000
30
0.000000
11
263.266600
21
82.213000
31
0.000000
62
7
0
LINE
100
AcDbEntity
100
AcDbLine
8
PCL_Layer
5
1081
10
249.264400
20
68.210800
30
0.000000
11
249.264400
21
82.213000
31
0.000000
62
7
0
LINE
100
AcDbEntity
100
AcDbLine
8
PCL_Layer
5
1082
10
263.266600
20
82.213000
30
0.000000
11
263.266600
21
68.210800
31
0.000000
62
7
0
LINE
100
AcDbEntity
100
AcDbLine
8
PCL_Layer
5
1083
10
263.266600
20
68.210800
30
0.000000
11
249.264400
21
68.210800
31
0.000000
62
7
0
LINE
100
AcDbEntity
100
AcDbLine
8
PCL_Layer
5
1084
10
34.930500
20
44.107000
30
0.000000
11
48.932700
21
44.107000
31
0.000000
62
7
0
LINE
100
AcDbEntity
100
AcDbLine
8
PCL_Layer
5
1085
10
34.930500
20
30.104800
30
0.000000
11
34.930500
21
44.107000
31
0.000000
62
7
0
LINE
100
AcDbEntity
100
AcDbLine
8
PCL_Layer
5
1086
10
48.932700
20
44.107000
30
0.000000
11
48.932700
21
30.104800
31
0.000000
62
7
0
LINE
100
AcDbEntity
100
AcDbLine
8
PCL_Layer
5
1087
10
48.932700
20
30.104800
30
0.000000
11
34.930500
21
30.104800
31
0.000000
62
7
0
LINE
100
AcDbEntity
100
AcDbLine
8
PCL_Layer
5
1088
10
20.653300
20
63.185000
30
0.000000
11
34.655500
21
63.185000
31
0.000000
62
7
0
LINE
100
AcDbEntity
100
AcDbLine
8
PCL_Layer
5
1089
10
20.653300
20
49.182800
30
0.000000
11
20.653300
21
63.185000
31
0.000000
62
7
0
LINE
100
AcDbEntity
100
AcDbLine
8
PCL_Layer
5
108A
10
34.655500
20
63.185000
30
0.000000
11
34.655500
21
49.182800
31
0.000000
62
7
0
LINE
100
AcDbEntity
100
AcDbLine
8
PCL_Layer
5
108B
10
34.655500
20
49.182800
30
0.000000
11
20.653300
21
49.182800
31
0.000000
62
7
0
LINE
100
AcDbEntity
100
AcDbLine
8
PCL_Layer
5
108C
10
173.052400
20
82.213000
30
0.000000
11
187.079600
21
82.213000
31
0.000000
62
7
0
LINE
100
AcDbEntity
100
AcDbLine
8
PCL_Layer
5
108D
10
173.052400
20
68.210800
30
0.000000
11
173.052400
21
82.213000
31
0.000000
62
7
0
LINE
100
AcDbEntity
100
AcDbLine
8
PCL_Layer
5
108E
10
187.079600
20
82.213000
30
0.000000
11
187.079600
21
68.210800
31
0.000000
62
7
0
LINE
100
AcDbEntity
100
AcDbLine
8
PCL_Layer
5
108F
10
187.079600
20
68.210800
30
0.000000
11
173.052400
21
68.210800
31
0.000000
62
7
0
LINE
100
AcDbEntity
100
AcDbLine
8
PCL_Layer
5
1090
10
344.529500
20
82.213000
30
0.000000
11
358.531700
21
82.213000
31
0.000000
62
7
0
LINE
100
AcDbEntity
100
AcDbLine
8
PCL_Layer
5
1091
10
344.529500
20
68.210800
30
0.000000
11
344.529500
21
82.213000
31
0.000000
62
7
0
LINE
100
AcDbEntity
100
AcDbLine
8
PCL_Layer
5
1092
10
358.531700
20
82.213000
30
0.000000
11
358.531700
21
68.210800
31
0.000000
62
7
0
LINE
100
AcDbEntity
100
AcDbLine
8
PCL_Layer
5
1093
10
358.531700
20
68.210800
30
0.000000
11
344.529500
21
68.210800
31
0.000000
62
7
0
LINE
100
AcDbEntity
100
AcDbLine
8
PCL_Layer
5
1094
10
401.713500
20
82.238000
30
0.000000
11
415.715800
21
82.238000
31
0.000000
62
7
0
LINE
100
AcDbEntity
100
AcDbLine
8
PCL_Layer
5
1095
10
401.713500
20
68.235800
30
0.000000
11
401.713500
21
82.238000
31
0.000000
62
7
0
LINE
100
AcDbEntity
100
AcDbLine
8
PCL_Layer
5
1096
10
415.715800
20
82.238000
30
0.000000
11
415.715800
21
68.235800
31
0.000000
62
7
0
LINE
100
AcDbEntity
100
AcDbLine
8
PCL_Layer
5
1097
10
415.715800
20
68.235800
30
0.000000
11
401.713500
21
68.235800
31
0.000000
62
7
0
LINE
100
AcDbEntity
100
AcDbLine
8
PCL_Layer
5
1098
10
444.595300
20
25.054000
30
0.000000
11
458.597500
21
25.054000
31
0.000000
62
7
0
LINE
100
AcDbEntity
100
AcDbLine
8
PCL_Layer
5
1099
10
444.595300
20
11.051700
30
0.000000
11
444.595300
21
25.054000
31
0.000000
62
7
0
LINE
100
AcDbEntity
100
AcDbLine
8
PCL_Layer
5
109A
10
458.597500
20
25.054000
30
0.000000
11
458.597500
21
11.051700
31
0.000000
62
7
0
LINE
100
AcDbEntity
100
AcDbLine
8
PCL_Layer
5
109B
10
458.597500
20
11.051700
30
0.000000
11
444.595300
21
11.051700
31
0.000000
62
7
0
LINE
100
AcDbEntity
100
AcDbLine
8
PCL_Layer
5
109C
10
230.211400
20
82.213000
30
0.000000
11
244.213600
21
82.213000
31
0.000000
62
7
0
LINE
100
AcDbEntity
100
AcDbLine
8
PCL_Layer
5
109D
10
230.211400
20
68.210800
30
0.000000
11
230.211400
21
82.213000
31
0.000000
62
7
0
LINE
100
AcDbEntity
100
AcDbLine
8
PCL_Layer
5
109E
10
244.213600
20
82.213000
30
0.000000
11
244.213600
21
68.210800
31
0.000000
62
7
0
LINE
100
AcDbEntity
100
AcDbLine
8
PCL_Layer
5
109F
10
244.213600
20
68.210800
30
0.000000
11
230.211400
21
68.210800
31
0.000000
62
7
0
LINE
100
AcDbEntity
100
AcDbLine
8
PCL_Layer
5
10A0
10
154.024400
20
82.213000
30
0.000000
11
168.026600
21
82.213000
31
0.000000
62
7
0
LINE
100
AcDbEntity
100
AcDbLine
8
PCL_Layer
5
10A1
10
154.024400
20
68.210800
30
0.000000
11
154.024400
21
82.213000
31
0.000000
62
7
0
LINE
100
AcDbEntity
100
AcDbLine
8
PCL_Layer
5
10A2
10
168.026600
20
82.213000
30
0.000000
11
168.026600
21
68.210800
31
0.000000
62
7
0
LINE
100
AcDbEntity
100
AcDbLine
8
PCL_Layer
5
10A3
10
168.026600
20
68.210800
30
0.000000
11
154.024400
21
68.210800
31
0.000000
62
7
0
LINE
100
AcDbEntity
100
AcDbLine
8
PCL_Layer
5
10A4
10
249.289400
20
120.344000
30
0.000000
11
263.291700
21
120.344000
31
0.000000
62
7
0
LINE
100
AcDbEntity
100
AcDbLine
8
PCL_Layer
5
10A5
10
249.289400
20
106.341800
30
0.000000
11
249.289400
21
120.344000
31
0.000000
62
7
0
LINE
100
AcDbEntity
100
AcDbLine
8
PCL_Layer
5
10A6
10
263.291700
20
120.344000
30
0.000000
11
263.291700
21
106.341800
31
0.000000
62
7
0
LINE
100
AcDbEntity
100
AcDbLine
8
PCL_Layer
5
10A7
10
263.291700
20
106.341800
30
0.000000
11
249.289400
21
106.341800
31
0.000000
62
7
0
LINE
100
AcDbEntity
100
AcDbLine
8
PCL_Layer
5
10A8
10
96.865300
20
120.344000
30
0.000000
11
110.867500
21
120.344000
31
0.000000
62
7
0
LINE
100
AcDbEntity
100
AcDbLine
8
PCL_Layer
5
10A9
10
96.865300
20
106.341800
30
0.000000
11
96.865300
21
120.344000
31
0.000000
62
7
0
LINE
100
AcDbEntity
100
AcDbLine
8
PCL_Layer
5
10AA
10
110.867500
20
120.344000
30
0.000000
11
110.867500
21
106.341800
31
0.000000
62
7
0
LINE
100
AcDbEntity
100
AcDbLine
8
PCL_Layer
5
10AB
10
110.867500
20
106.341800
30
0.000000
11
96.865300
21
106.341800
31
0.000000
62
7
0
LINE
100
AcDbEntity
100
AcDbLine
8
PCL_Layer
5
10AC
10
125.444800
20
101.266000
30
0.000000
11
139.447100
21
101.266000
31
0.000000
62
7
0
LINE
100
AcDbEntity
100
AcDbLine
8
PCL_Layer
5
10AD
10
125.444800
20
87.263800
30
0.000000
11
125.444800
21
101.266000
31
0.000000
62
7
0
LINE
100
AcDbEntity
100
AcDbLine
8
PCL_Layer
5
10AE
10
139.447100
20
101.266000
30
0.000000
11
139.447100
21
87.263800
31
0.000000
62
7
0
LINE
100
AcDbEntity
100
AcDbLine
8
PCL_Layer
5
10AF
10
139.447100
20
87.263800
30
0.000000
11
125.444800
21
87.263800
31
0.000000
62
7
0
LINE
100
AcDbEntity
100
AcDbLine
8
PCL_Layer
5
10B0
10
239.737900
20
101.266000
30
0.000000
11
253.740100
21
101.266000
31
0.000000
62
7
0
LINE
100
AcDbEntity
100
AcDbLine
8
PCL_Layer
5
10B1
10
239.737900
20
87.263800
30
0.000000
11
239.737900
21
101.266000
31
0.000000
62
7
0
LINE
100
AcDbEntity
100
AcDbLine
8
PCL_Layer
5
10B2
10
253.740100
20
101.266000
30
0.000000
11
253.740100
21
87.263800
31
0.000000
62
7
0
LINE
100
AcDbEntity
100
AcDbLine
8
PCL_Layer
5
10B3
10
253.740100
20
87.263800
30
0.000000
11
239.737900
21
87.263800
31
0.000000
62
7
0
LINE
100
AcDbEntity
100
AcDbLine
8
PCL_Layer
5
10B4
10
58.759300
20
120.344000
30
0.000000
11
72.761500
21
120.344000
31
0.000000
62
7
0
LINE
100
AcDbEntity
100
AcDbLine
8
PCL_Layer
5
10B5
10
58.759300
20
106.341800
30
0.000000
11
58.759300
21
120.344000
31
0.000000
62
7
0
LINE
100
AcDbEntity
100
AcDbLine
8
PCL_Layer
5
10B6
10
72.761500
20
120.344000
30
0.000000
11
72.761500
21
106.341800
31
0.000000
62
7
0
LINE
100
AcDbEntity
100
AcDbLine
8
PCL_Layer
5
10B7
10
72.761500
20
106.341800
30
0.000000
11
58.759300
21
106.341800
31
0.000000
62
7
0
LINE
100
AcDbEntity
100
AcDbLine
8
PCL_Layer
5
10B8
10
92.089600
20
82.213000
30
0.000000
11
106.091800
21
82.213000
31
0.000000
62
7
0
LINE
100
AcDbEntity
100
AcDbLine
8
PCL_Layer
5
10B9
10
92.089600
20
68.210800
30
0.000000
11
92.089600
21
82.213000
31
0.000000
62
7
0
LINE
100
AcDbEntity
100
AcDbLine
8
PCL_Layer
5
10BA
10
106.091800
20
82.213000
30
0.000000
11
106.091800
21
68.210800
31
0.000000
62
7
0
LINE
100
AcDbEntity
100
AcDbLine
8
PCL_Layer
5
10BB
10
106.091800
20
68.210800
30
0.000000
11
92.089600
21
68.210800
31
0.000000
62
7
0
LINE
100
AcDbEntity
100
AcDbLine
8
PCL_Layer
5
10BC
10
330.252200
20
25.054000
30
0.000000
11
344.254500
21
25.054000
31
0.000000
62
7
0
LINE
100
AcDbEntity
100
AcDbLine
8
PCL_Layer
5
10BD
10
330.252200
20
11.051700
30
0.000000
11
330.252200
21
25.054000
31
0.000000
62
7
0
LINE
100
AcDbEntity
100
AcDbLine
8
PCL_Layer
5
10BE
10
344.254500
20
25.054000
30
0.000000
11
344.254500
21
11.051700
31
0.000000
62
7
0
LINE
100
AcDbEntity
100
AcDbLine
8
PCL_Layer
5
10BF
10
344.254500
20
11.051700
30
0.000000
11
330.252200
21
11.051700
31
0.000000
62
7
0
LINE
100
AcDbEntity
100
AcDbLine
8
PCL_Layer
5
10C0
10
134.971300
20
82.213000
30
0.000000
11
148.973600
21
82.213000
31
0.000000
62
7
0
LINE
100
AcDbEntity
100
AcDbLine
8
PCL_Layer
5
10C1
10
134.971300
20
68.210800
30
0.000000
11
134.971300
21
82.213000
31
0.000000
62
7
0
LINE
100
AcDbEntity
100
AcDbLine
8
PCL_Layer
5
10C2
10
148.973600
20
82.213000
30
0.000000
11
148.973600
21
68.210800
31
0.000000
62
7
0
LINE
100
AcDbEntity
100
AcDbLine
8
PCL_Layer
5
10C3
10
148.973600
20
68.210800
30
0.000000
11
134.971300
21
68.210800
31
0.000000
62
7
0
LINE
100
AcDbEntity
100
AcDbLine
8
PCL_Layer
5
10C4
10
192.130400
20
25.079000
30
0.000000
11
206.132600
21
25.079000
31
0.000000
62
7
0
LINE
100
AcDbEntity
100
AcDbLine
8
PCL_Layer
5
10C5
10
192.130400
20
11.076800
30
0.000000
11
192.130400
21
25.079000
31
0.000000
62
7
0
LINE
100
AcDbEntity
100
AcDbLine
8
PCL_Layer
5
10C6
10
206.132600
20
25.079000
30
0.000000
11
206.132600
21
11.076800
31
0.000000
62
7
0
LINE
100
AcDbEntity
100
AcDbLine
8
PCL_Layer
5
10C7
10
206.132600
20
11.076800
30
0.000000
11
192.130400
21
11.076800
31
0.000000
62
7
0
LINE
100
AcDbEntity
100
AcDbLine
8
PCL_Layer
5
10C8
10
168.301600
20
44.107000
30
0.000000
11
182.303800
21
44.107000
31
0.000000
62
7
0
LINE
100
AcDbEntity
100
AcDbLine
8
PCL_Layer
5
10C9
10
168.301600
20
30.104800
30
0.000000
11
168.301600
21
44.107000
31
0.000000
62
7
0
LINE
100
AcDbEntity
100
AcDbLine
8
PCL_Layer
5
10CA
10
182.303800
20
44.107000
30
0.000000
11
182.303800
21
30.104800
31
0.000000
62
7
0
LINE
100
AcDbEntity
100
AcDbLine
8
PCL_Layer
5
10CB
10
182.303800
20
30.104800
30
0.000000
11
168.301600
21
30.104800
31
0.000000
62
7
0
LINE
100
AcDbEntity
100
AcDbLine
8
PCL_Layer
5
10CC
10
211.158400
20
82.213000
30
0.000000
11
225.160600
21
82.213000
31
0.000000
62
7
0
LINE
100
AcDbEntity
100
AcDbLine
8
PCL_Layer
5
10CD
10
211.158400
20
68.210800
30
0.000000
11
211.158400
21
82.213000
31
0.000000
62
7
0
LINE
100
AcDbEntity
100
AcDbLine
8
PCL_Layer
5
10CE
10
225.160600
20
82.213000
30
0.000000
11
225.160600
21
68.210800
31
0.000000
62
7
0
LINE
100
AcDbEntity
100
AcDbLine
8
PCL_Layer
5
10CF
10
225.160600
20
68.210800
30
0.000000
11
211.158400
21
68.210800
31
0.000000
62
7
0
LINE
100
AcDbEntity
100
AcDbLine
8
PCL_Layer
5
10D0
10
325.476500
20
82.213000
30
0.000000
11
339.478700
21
82.213000
31
0.000000
62
7
0
LINE
100
AcDbEntity
100
AcDbLine
8
PCL_Layer
5
10D1
10
325.476500
20
68.210800
30
0.000000
11
325.476500
21
82.213000
31
0.000000
62
7
0
LINE
100
AcDbEntity
100
AcDbLine
8
PCL_Layer
5
10D2
10
339.478700
20
82.213000
30
0.000000
11
339.478700
21
68.210800
31
0.000000
62
7
0
LINE
100
AcDbEntity
100
AcDbLine
8
PCL_Layer
5
10D3
10
339.478700
20
68.210800
30
0.000000
11
325.476500
21
68.210800
31
0.000000
62
7
0
LINE
100
AcDbEntity
100
AcDbLine
8
PCL_Layer
5
10D4
10
244.513700
20
44.107000
30
0.000000
11
258.515900
21
44.107000
31
0.000000
62
7
0
LINE
100
AcDbEntity
100
AcDbLine
8
PCL_Layer
5
10D5
10
244.513700
20
30.104800
30
0.000000
11
244.513700
21
44.107000
31
0.000000
62
7
0
LINE
100
AcDbEntity
100
AcDbLine
8
PCL_Layer
5
10D6
10
258.515900
20
44.107000
30
0.000000
11
258.515900
21
30.104800
31
0.000000
62
7
0
LINE
100
AcDbEntity
100
AcDbLine
8
PCL_Layer
5
10D7
10
258.515900
20
30.104800
30
0.000000
11
244.513700
21
30.104800
31
0.000000
62
7
0
LINE
100
AcDbEntity
100
AcDbLine
8
PCL_Layer
5
10D8
10
301.672700
20
44.107000
30
0.000000
11
315.674900
21
44.107000
31
0.000000
62
7
0
LINE
100
AcDbEntity
100
AcDbLine
8
PCL_Layer
5
10D9
10
301.672700
20
30.104800
30
0.000000
11
301.672700
21
44.107000
31
0.000000
62
7
0
LINE
100
AcDbEntity
100
AcDbLine
8
PCL_Layer
5
10DA
10
315.674900
20
44.107000
30
0.000000
11
315.674900
21
30.104800
31
0.000000
62
7
0
LINE
100
AcDbEntity
100
AcDbLine
8
PCL_Layer
5
10DB
10
315.674900
20
30.104800
30
0.000000
11
301.672700
21
30.104800
31
0.000000
62
7
0
LINE
100
AcDbEntity
100
AcDbLine
8
PCL_Layer
5
10DC
10
282.619700
20
44.107000
30
0.000000
11
296.621900
21
44.107000
31
0.000000
62
7
0
LINE
100
AcDbEntity
100
AcDbLine
8
PCL_Layer
5
10DD
10
282.619700
20
30.104800
30
0.000000
11
282.619700
21
44.107000
31
0.000000
62
7
0
LINE
100
AcDbEntity
100
AcDbLine
8
PCL_Layer
5
10DE
10
296.621900
20
44.107000
30
0.000000
11
296.621900
21
30.104800
31
0.000000
62
7
0
LINE
100
AcDbEntity
100
AcDbLine
8
PCL_Layer
5
10DF
10
296.621900
20
30.104800
30
0.000000
11
282.619700
21
30.104800
31
0.000000
62
7
0
LINE
100
AcDbEntity
100
AcDbLine
8
PCL_Layer
5
10E0
10
20.653300
20
120.344000
30
0.000000
11
34.655500
21
120.344000
31
0.000000
62
7
0
LINE
100
AcDbEntity
100
AcDbLine
8
PCL_Layer
5
10E1
10
20.653300
20
106.341800
30
0.000000
11
20.653300
21
120.344000
31
0.000000
62
7
0
LINE
100
AcDbEntity
100
AcDbLine
8
PCL_Layer
5
10E2
10
34.655500
20
120.344000
30
0.000000
11
34.655500
21
106.341800
31
0.000000
62
7
0
LINE
100
AcDbEntity
100
AcDbLine
8
PCL_Layer
5
10E3
10
34.655500
20
106.341800
30
0.000000
11
20.653300
21
106.341800
31
0.000000
62
7
0
LINE
100
AcDbEntity
100
AcDbLine
8
PCL_Layer
5
10E4
10
425.517300
20
44.107000
30
0.000000
11
439.519500
21
44.107000
31
0.000000
62
7
0
LINE
100
AcDbEntity
100
AcDbLine
8
PCL_Layer
5
10E5
10
425.517300
20
30.104800
30
0.000000
11
425.517300
21
44.107000
31
0.000000
62
7
0
LINE
100
AcDbEntity
100
AcDbLine
8
PCL_Layer
5
10E6
10
439.519500
20
44.107000
30
0.000000
11
439.519500
21
30.104800
31
0.000000
62
7
0
LINE
100
AcDbEntity
100
AcDbLine
8
PCL_Layer
5
10E7
10
439.519500
20
30.104800
30
0.000000
11
425.517300
21
30.104800
31
0.000000
62
7
0
LINE
100
AcDbEntity
100
AcDbLine
8
PCL_Layer
5
10E8
10
387.436300
20
25.054000
30
0.000000
11
401.413500
21
25.054000
31
0.000000
62
7
0
LINE
100
AcDbEntity
100
AcDbLine
8
PCL_Layer
5
10E9
10
387.436300
20
11.051700
30
0.000000
11
387.436300
21
25.054000
31
0.000000
62
7
0
LINE
100
AcDbEntity
100
AcDbLine
8
PCL_Layer
5
10EA
10
401.413500
20
25.054000
30
0.000000
11
401.413500
21
11.051700
31
0.000000
62
7
0
LINE
100
AcDbEntity
100
AcDbLine
8
PCL_Layer
5
10EB
10
401.413500
20
11.051700
30
0.000000
11
387.436300
21
11.051700
31
0.000000
62
7
0
LINE
100
AcDbEntity
100
AcDbLine
8
PCL_Layer
5
10EC
10
130.195600
20
25.054000
30
0.000000
11
144.197800
21
25.054000
31
0.000000
62
7
0
LINE
100
AcDbEntity
100
AcDbLine
8
PCL_Layer
5
10ED
10
130.195600
20
11.051700
30
0.000000
11
130.195600
21
25.054000
31
0.000000
62
7
0
LINE
100
AcDbEntity
100
AcDbLine
8
PCL_Layer
5
10EE
10
144.197800
20
25.054000
30
0.000000
11
144.197800
21
11.051700
31
0.000000
62
7
0
LINE
100
AcDbEntity
100
AcDbLine
8
PCL_Layer
5
10EF
10
144.197800
20
11.051700
30
0.000000
11
130.195600
21
11.051700
31
0.000000
62
7
0
LINE
100
AcDbEntity
100
AcDbLine
8
PCL_Layer
5
10F0
10
273.093200
20
63.160000
30
0.000000
11
287.095400
21
63.160000
31
0.000000
62
7
0
LINE
100
AcDbEntity
100
AcDbLine
8
PCL_Layer
5
10F1
10
273.093200
20
49.157800
30
0.000000
11
273.093200
21
63.160000
31
0.000000
62
7
0
LINE
100
AcDbEntity
100
AcDbLine
8
PCL_Layer
5
10F2
10
287.095400
20
63.160000
30
0.000000
11
287.095400
21
49.157800
31
0.000000
62
7
0
LINE
100
AcDbEntity
100
AcDbLine
8
PCL_Layer
5
10F3
10
287.095400
20
49.157800
30
0.000000
11
273.093200
21
49.157800
31
0.000000
62
7
0
LINE
100
AcDbEntity
100
AcDbLine
8
PCL_Layer
5
10F4
10
439.819600
20
63.185000
30
0.000000
11
453.821800
21
63.185000
31
0.000000
62
7
0
LINE
100
AcDbEntity
100
AcDbLine
8
PCL_Layer
5
10F5
10
439.819600
20
49.182800
30
0.000000
11
439.819600
21
63.185000
31
0.000000
62
7
0
LINE
100
AcDbEntity
100
AcDbLine
8
PCL_Layer
5
10F6
10
453.821800
20
63.185000
30
0.000000
11
453.821800
21
49.182800
31
0.000000
62
7
0
LINE
100
AcDbEntity
100
AcDbLine
8
PCL_Layer
5
10F7
10
453.821800
20
49.182800
30
0.000000
11
439.819600
21
49.182800
31
0.000000
62
7
0
LINE
100
AcDbEntity
100
AcDbLine
8
PCL_Layer
5
10F8
10
430.268000
20
101.266000
30
0.000000
11
444.270300
21
101.266000
31
0.000000
62
7
0
LINE
100
AcDbEntity
100
AcDbLine
8
PCL_Layer
5
10F9
10
430.268000
20
87.263800
30
0.000000
11
430.268000
21
101.266000
31
0.000000
62
7
0
LINE
100
AcDbEntity
100
AcDbLine
8
PCL_Layer
5
10FA
10
444.270300
20
101.266000
30
0.000000
11
444.270300
21
87.263800
31
0.000000
62
7
0
LINE
100
AcDbEntity
100
AcDbLine
8
PCL_Layer
5
10FB
10
444.270300
20
87.263800
30
0.000000
11
430.268000
21
87.263800
31
0.000000
62
7
0
LINE
100
AcDbEntity
100
AcDbLine
8
PCL_Layer
5
10FC
10
363.607500
20
120.344000
30
0.000000
11
377.609700
21
120.344000
31
0.000000
62
7
0
LINE
100
AcDbEntity
100
AcDbLine
8
PCL_Layer
5
10FD
10
363.607500
20
106.341800
30
0.000000
11
363.607500
21
120.344000
31
0.000000
62
7
0
LINE
100
AcDbEntity
100
AcDbLine
8
PCL_Layer
5
10FE
10
377.609700
20
120.344000
30
0.000000
11
377.609700
21
106.341800
31
0.000000
62
7
0
LINE
100
AcDbEntity
100
AcDbLine
8
PCL_Layer
5
10FF
10
377.609700
20
106.341800
30
0.000000
11
363.607500
21
106.341800
31
0.000000
62
7
0
LINE
100
AcDbEntity
100
AcDbLine
8
PCL_Layer
5
1100
10
101.616100
20
25.054000
30
0.000000
11
115.618300
21
25.054000
31
0.000000
62
7
0
LINE
100
AcDbEntity
100
AcDbLine
8
PCL_Layer
5
1101
10
101.616100
20
11.051700
30
0.000000
11
101.616100
21
25.054000
31
0.000000
62
7
0
LINE
100
AcDbEntity
100
AcDbLine
8
PCL_Layer
5
1102
10
115.618300
20
25.054000
30
0.000000
11
115.618300
21
11.051700
31
0.000000
62
7
0
LINE
100
AcDbEntity
100
AcDbLine
8
PCL_Layer
5
1103
10
115.618300
20
11.051700
30
0.000000
11
101.616100
21
11.051700
31
0.000000
62
7
0
LINE
100
AcDbEntity
100
AcDbLine
8
PCL_Layer
5
1104
10
149.248600
20
44.107000
30
0.000000
11
163.250800
21
44.107000
31
0.000000
62
7
0
LINE
100
AcDbEntity
100
AcDbLine
8
PCL_Layer
5
1105
10
149.248600
20
30.104800
30
0.000000
11
149.248600
21
44.107000
31
0.000000
62
7
0
LINE
100
AcDbEntity
100
AcDbLine
8
PCL_Layer
5
1106
10
163.250800
20
44.107000
30
0.000000
11
163.250800
21
30.104800
31
0.000000
62
7
0
LINE
100
AcDbEntity
100
AcDbLine
8
PCL_Layer
5
1107
10
163.250800
20
30.104800
30
0.000000
11
149.248600
21
30.104800
31
0.000000
62
7
0
LINE
100
AcDbEntity
100
AcDbLine
8
PCL_Layer
5
1108
10
154.024400
20
25.054000
30
0.000000
11
168.026600
21
25.054000
31
0.000000
62
7
0
LINE
100
AcDbEntity
100
AcDbLine
8
PCL_Layer
5
1109
10
154.024400
20
11.051700
30
0.000000
11
154.024400
21
25.054000
31
0.000000
62
7
0
LINE
100
AcDbEntity
100
AcDbLine
8
PCL_Layer
5
110A
10
168.026600
20
25.054000
30
0.000000
11
168.026600
21
11.051700
31
0.000000
62
7
0
LINE
100
AcDbEntity
100
AcDbLine
8
PCL_Layer
5
110B
10
168.026600
20
11.051700
30
0.000000
11
154.024400
21
11.051700
31
0.000000
62
7
0
LINE
100
AcDbEntity
100
AcDbLine
8
PCL_Layer
5
110C
10
325.501500
20
120.344000
30
0.000000
11
339.503700
21
120.344000
31
0.000000
62
7
0
LINE
100
AcDbEntity
100
AcDbLine
8
PCL_Layer
5
110D
10
325.501500
20
106.341800
30
0.000000
11
325.501500
21
120.344000
31
0.000000
62
7
0
LINE
100
AcDbEntity
100
AcDbLine
8
PCL_Layer
5
110E
10
339.503700
20
120.344000
30
0.000000
11
339.503700
21
106.341800
31
0.000000
62
7
0
LINE
100
AcDbEntity
100
AcDbLine
8
PCL_Layer
5
110F
10
339.503700
20
106.341800
30
0.000000
11
325.501500
21
106.341800
31
0.000000
62
7
0
LINE
100
AcDbEntity
100
AcDbLine
8
PCL_Layer
5
1110
10
449.321000
20
82.213000
30
0.000000
11
463.323300
21
82.213000
31
0.000000
62
7
0
LINE
100
AcDbEntity
100
AcDbLine
8
PCL_Layer
5
1111
10
449.321000
20
68.210800
30
0.000000
11
449.321000
21
82.213000
31
0.000000
62
7
0
LINE
100
AcDbEntity
100
AcDbLine
8
PCL_Layer
5
1112
10
463.323300
20
82.213000
30
0.000000
11
463.323300
21
68.210800
31
0.000000
62
7
0
LINE
100
AcDbEntity
100
AcDbLine
8
PCL_Layer
5
1113
10
463.323300
20
68.210800
30
0.000000
11
449.321000
21
68.210800
31
0.000000
62
7
0
LINE
100
AcDbEntity
100
AcDbLine
8
PCL_Layer
5
1114
10
106.391800
20
101.266000
30
0.000000
11
120.394000
21
101.266000
31
0.000000
62
7
0
LINE
100
AcDbEntity
100
AcDbLine
8
PCL_Layer
5
1115
10
106.391800
20
87.263800
30
0.000000
11
106.391800
21
101.266000
31
0.000000
62
7
0
LINE
100
AcDbEntity
100
AcDbLine
8
PCL_Layer
5
1116
10
120.394000
20
101.266000
30
0.000000
11
120.394000
21
87.263800
31
0.000000
62
7
0
LINE
100
AcDbEntity
100
AcDbLine
8
PCL_Layer
5
1117
10
120.394000
20
87.263800
30
0.000000
11
106.391800
21
87.263800
31
0.000000
62
7
0
LINE
100
AcDbEntity
100
AcDbLine
8
PCL_Layer
5
1118
10
358.831800
20
25.054000
30
0.000000
11
372.834000
21
25.054000
31
0.000000
62
7
0
LINE
100
AcDbEntity
100
AcDbLine
8
PCL_Layer
5
1119
10
358.831800
20
11.051700
30
0.000000
11
358.831800
21
25.054000
31
0.000000
62
7
0
LINE
100
AcDbEntity
100
AcDbLine
8
PCL_Layer
5
111A
10
372.834000
20
25.054000
30
0.000000
11
372.834000
21
11.051700
31
0.000000
62
7
0
LINE
100
AcDbEntity
100
AcDbLine
8
PCL_Layer
5
111B
10
372.834000
20
11.051700
30
0.000000
11
358.831800
21
11.051700
31
0.000000
62
7
0
LINE
100
AcDbEntity
100
AcDbLine
8
PCL_Layer
5
111C
10
311.199200
20
63.160000
30
0.000000
11
325.201400
21
63.160000
31
0.000000
62
7
0
LINE
100
AcDbEntity
100
AcDbLine
8
PCL_Layer
5
111D
10
311.199200
20
49.157800
30
0.000000
11
311.199200
21
63.160000
31
0.000000
62
7
0
LINE
100
AcDbEntity
100
AcDbLine
8
PCL_Layer
5
111E
10
325.201400
20
63.160000
30
0.000000
11
325.201400
21
49.157800
31
0.000000
62
7
0
LINE
100
AcDbEntity
100
AcDbLine
8
PCL_Layer
5
111F
10
325.201400
20
49.157800
30
0.000000
11
311.199200
21
49.157800
31
0.000000
62
7
0
LINE
100
AcDbEntity
100
AcDbLine
8
PCL_Layer
5
1120
10
292.146200
20
63.160000
30
0.000000
11
306.148400
21
63.160000
31
0.000000
62
7
0
LINE
100
AcDbEntity
100
AcDbLine
8
PCL_Layer
5
1121
10
292.146200
20
49.157800
30
0.000000
11
292.146200
21
63.160000
31
0.000000
62
7
0
LINE
100
AcDbEntity
100
AcDbLine
8
PCL_Layer
5
1122
10
306.148400
20
63.160000
30
0.000000
11
306.148400
21
49.157800
31
0.000000
62
7
0
LINE
100
AcDbEntity
100
AcDbLine
8
PCL_Layer
5
1123
10
306.148400
20
49.157800
30
0.000000
11
292.146200
21
49.157800
31
0.000000
62
7
0
LINE
100
AcDbEntity
100
AcDbLine
8
PCL_Layer
5
1124
10
173.077400
20
120.344000
30
0.000000
11
187.079600
21
120.344000
31
0.000000
62
7
0
LINE
100
AcDbEntity
100
AcDbLine
8
PCL_Layer
5
1125
10
173.077400
20
106.341800
30
0.000000
11
173.077400
21
120.344000
31
0.000000
62
7
0
LINE
100
AcDbEntity
100
AcDbLine
8
PCL_Layer
5
1126
10
187.079600
20
120.344000
30
0.000000
11
187.079600
21
106.341800
31
0.000000
62
7
0
LINE
100
AcDbEntity
100
AcDbLine
8
PCL_Layer
5
1127
10
187.079600
20
106.341800
30
0.000000
11
173.077400
21
106.341800
31
0.000000
62
7
0
LINE
100
AcDbEntity
100
AcDbLine
8
PCL_Layer
5
1128
10
401.713500
20
101.291000
30
0.000000
11
415.715800
21
101.291000
31
0.000000
62
7
0
LINE
100
AcDbEntity
100
AcDbLine
8
PCL_Layer
5
1129
10
401.713500
20
87.288800
30
0.000000
11
401.713500
21
101.291000
31
0.000000
62
7
0
LINE
100
AcDbEntity
100
AcDbLine
8
PCL_Layer
5
112A
10
415.715800
20
101.291000
30
0.000000
11
415.715800
21
87.288800
31
0.000000
62
7
0
LINE
100
AcDbEntity
100
AcDbLine
8
PCL_Layer
5
112B
10
415.715800
20
87.288800
30
0.000000
11
401.713500
21
87.288800
31
0.000000
62
7
0
LINE
100
AcDbEntity
100
AcDbLine
8
PCL_Layer
5
112C
10
192.105400
20
82.213000
30
0.000000
11
206.132600
21
82.213000
31
0.000000
62
7
0
LINE
100
AcDbEntity
100
AcDbLine
8
PCL_Layer
5
112D
10
192.105400
20
68.210800
30
0.000000
11
192.105400
21
82.213000
31
0.000000
62
7
0
LINE
100
AcDbEntity
100
AcDbLine
8
PCL_Layer
5
112E
10
206.132600
20
82.213000
30
0.000000
11
206.132600
21
68.210800
31
0.000000
62
7
0
LINE
100
AcDbEntity
100
AcDbLine
8
PCL_Layer
5
112F
10
206.132600
20
68.210800
30
0.000000
11
192.105400
21
68.210800
31
0.000000
62
7
0
LINE
100
AcDbEntity
100
AcDbLine
8
PCL_Layer
5
1130
10
158.775100
20
63.160000
30
0.000000
11
172.777300
21
63.160000
31
0.000000
62
7
0
LINE
100
AcDbEntity
100
AcDbLine
8
PCL_Layer
5
1131
10
158.775100
20
49.157800
30
0.000000
11
158.775100
21
63.160000
31
0.000000
62
7
0
LINE
100
AcDbEntity
100
AcDbLine
8
PCL_Layer
5
1132
10
172.777300
20
63.160000
30
0.000000
11
172.777300
21
49.157800
31
0.000000
62
7
0
LINE
100
AcDbEntity
100
AcDbLine
8
PCL_Layer
5
1133
10
172.777300
20
49.157800
30
0.000000
11
158.775100
21
49.157800
31
0.000000
62
7
0
LINE
100
AcDbEntity
100
AcDbLine
8
PCL_Layer
5
1134
10
332.652600
20
44.132000
30
0.000000
11
346.654800
21
44.132000
31
0.000000
62
7
0
LINE
100
AcDbEntity
100
AcDbLine
8
PCL_Layer
5
1135
10
332.652600
20
30.129800
30
0.000000
11
332.652600
21
44.132000
31
0.000000
62
7
0
LINE
100
AcDbEntity
100
AcDbLine
8
PCL_Layer
5
1136
10
346.654800
20
44.132000
30
0.000000
11
346.654800
21
30.129800
31
0.000000
62
7
0
LINE
100
AcDbEntity
100
AcDbLine
8
PCL_Layer
5
1137
10
346.654800
20
30.129800
30
0.000000
11
332.652600
21
30.129800
31
0.000000
62
7
0
LINE
100
AcDbEntity
100
AcDbLine
8
PCL_Layer
5
1138
10
396.937800
20
44.107000
30
0.000000
11
410.940000
21
44.107000
31
0.000000
62
7
0
LINE
100
AcDbEntity
100
AcDbLine
8
PCL_Layer
5
1139
10
396.937800
20
30.104800
30
0.000000
11
396.937800
21
44.107000
31
0.000000
62
7
0
LINE
100
AcDbEntity
100
AcDbLine
8
PCL_Layer
5
113A
10
410.940000
20
44.107000
30
0.000000
11
410.940000
21
30.104800
31
0.000000
62
7
0
LINE
100
AcDbEntity
100
AcDbLine
8
PCL_Layer
5
113B
10
410.940000
20
30.104800
30
0.000000
11
396.937800
21
30.104800
31
0.000000
62
7
0
LINE
100
AcDbEntity
100
AcDbLine
8
PCL_Layer
5
113C
10
211.183400
20
120.344000
30
0.000000
11
225.185600
21
120.344000
31
0.000000
62
7
0
LINE
100
AcDbEntity
100
AcDbLine
8
PCL_Layer
5
113D
10
211.183400
20
106.341800
30
0.000000
11
211.183400
21
120.344000
31
0.000000
62
7
0
LINE
100
AcDbEntity
100
AcDbLine
8
PCL_Layer
5
113E
10
225.185600
20
120.344000
30
0.000000
11
225.185600
21
106.341800
31
0.000000
62
7
0
LINE
100
AcDbEntity
100
AcDbLine
8
PCL_Layer
5
113F
10
225.185600
20
106.341800
30
0.000000
11
211.183400
21
106.341800
31
0.000000
62
7
0
LINE
100
AcDbEntity
100
AcDbLine
8
PCL_Layer
5
1140
10
120.669100
20
63.160000
30
0.000000
11
134.671300
21
63.160000
31
0.000000
62
7
0
LINE
100
AcDbEntity
100
AcDbLine
8
PCL_Layer
5
1141
10
120.669100
20
49.157800
30
0.000000
11
120.669100
21
63.160000
31
0.000000
62
7
0
LINE
100
AcDbEntity
100
AcDbLine
8
PCL_Layer
5
1142
10
134.671300
20
63.160000
30
0.000000
11
134.671300
21
49.157800
31
0.000000
62
7
0
LINE
100
AcDbEntity
100
AcDbLine
8
PCL_Layer
5
1143
10
134.671300
20
49.157800
30
0.000000
11
120.669100
21
49.157800
31
0.000000
62
7
0
LINE
100
AcDbEntity
100
AcDbLine
8
PCL_Layer
5
1144
10
225.460700
20
44.107000
30
0.000000
11
239.462900
21
44.107000
31
0.000000
62
7
0
LINE
100
AcDbEntity
100
AcDbLine
8
PCL_Layer
5
1145
10
225.460700
20
30.104800
30
0.000000
11
225.460700
21
44.107000
31
0.000000
62
7
0
LINE
100
AcDbEntity
100
AcDbLine
8
PCL_Layer
5
1146
10
239.462900
20
44.107000
30
0.000000
11
239.462900
21
30.104800
31
0.000000
62
7
0
LINE
100
AcDbEntity
100
AcDbLine
8
PCL_Layer
5
1147
10
239.462900
20
30.104800
30
0.000000
11
225.460700
21
30.104800
31
0.000000
62
7
0
LINE
100
AcDbEntity
100
AcDbLine
8
PCL_Layer
5
1148
10
134.971300
20
120.344000
30
0.000000
11
148.973600
21
120.344000
31
0.000000
62
7
0
LINE
100
AcDbEntity
100
AcDbLine
8
PCL_Layer
5
1149
10
134.971300
20
106.341800
30
0.000000
11
134.971300
21
120.344000
31
0.000000
62
7
0
LINE
100
AcDbEntity
100
AcDbLine
8
PCL_Layer
5
114A
10
148.973600
20
120.344000
30
0.000000
11
148.973600
21
106.341800
31
0.000000
62
7
0
LINE
100
AcDbEntity
100
AcDbLine
8
PCL_Layer
5
114B
10
148.973600
20
106.341800
30
0.000000
11
134.971300
21
106.341800
31
0.000000
62
7
0
LINE
100
AcDbEntity
100
AcDbLine
8
PCL_Layer
5
114C
10
177.828100
20
63.160000
30
0.000000
11
191.830300
21
63.160000
31
0.000000
62
7
0
LINE
100
AcDbEntity
100
AcDbLine
8
PCL_Layer
5
114D
10
177.828100
20
49.157800
30
0.000000
11
177.828100
21
63.160000
31
0.000000
62
7
0
LINE
100
AcDbEntity
100
AcDbLine
8
PCL_Layer
5
114E
10
191.830300
20
63.160000
30
0.000000
11
191.830300
21
49.157800
31
0.000000
62
7
0
LINE
100
AcDbEntity
100
AcDbLine
8
PCL_Layer
5
114F
10
191.830300
20
49.157800
30
0.000000
11
177.828100
21
49.157800
31
0.000000
62
7
0
LINE
100
AcDbEntity
100
AcDbLine
8
PCL_Layer
5
1150
10
139.722100
20
63.160000
30
0.000000
11
153.724300
21
63.160000
31
0.000000
62
7
0
LINE
100
AcDbEntity
100
AcDbLine
8
PCL_Layer
5
1151
10
139.722100
20
49.157800
30
0.000000
11
139.722100
21
63.160000
31
0.000000
62
7
0
LINE
100
AcDbEntity
100
AcDbLine
8
PCL_Layer
5
1152
10
153.724300
20
63.160000
30
0.000000
11
153.724300
21
49.157800
31
0.000000
62
7
0
LINE
100
AcDbEntity
100
AcDbLine
8
PCL_Layer
5
1153
10
153.724300
20
49.157800
30
0.000000
11
139.722100
21
49.157800
31
0.000000
62
7
0
LINE
100
AcDbEntity
100
AcDbLine
8
PCL_Layer
5
1154
10
339.778700
20
63.185000
30
0.000000
11
353.780900
21
63.185000
31
0.000000
62
7
0
LINE
100
AcDbEntity
100
AcDbLine
8
PCL_Layer
5
1155
10
339.778700
20
49.182800
30
0.000000
11
339.778700
21
63.185000
31
0.000000
62
7
0
LINE
100
AcDbEntity
100
AcDbLine
8
PCL_Layer
5
1156
10
353.780900
20
63.185000
30
0.000000
11
353.780900
21
49.182800
31
0.000000
62
7
0
LINE
100
AcDbEntity
100
AcDbLine
8
PCL_Layer
5
1157
10
353.780900
20
49.182800
30
0.000000
11
339.778700
21
49.182800
31
0.000000
62
7
0
LINE
100
AcDbEntity
100
AcDbLine
8
PCL_Layer
5
1158
10
87.338800
20
101.266000
30
0.000000
11
101.341000
21
101.266000
31
0.000000
62
7
0
LINE
100
AcDbEntity
100
AcDbLine
8
PCL_Layer
5
1159
10
87.338800
20
87.263800
30
0.000000
11
87.338800
21
101.266000
31
0.000000
62
7
0
LINE
100
AcDbEntity
100
AcDbLine
8
PCL_Layer
5
115A
10
101.341000
20
101.266000
30
0.000000
11
101.341000
21
87.263800
31
0.000000
62
7
0
LINE
100
AcDbEntity
100
AcDbLine
8
PCL_Layer
5
115B
10
101.341000
20
87.263800
30
0.000000
11
87.338800
21
87.263800
31
0.000000
62
7
0
LINE
100
AcDbEntity
100
AcDbLine
8
PCL_Layer
5
115C
10
44.457000
20
25.054000
30
0.000000
11
58.459200
21
25.054000
31
0.000000
62
7
0
LINE
100
AcDbEntity
100
AcDbLine
8
PCL_Layer
5
115D
10
44.457000
20
11.051700
30
0.000000
11
44.457000
21
25.054000
31
0.000000
62
7
0
LINE
100
AcDbEntity
100
AcDbLine
8
PCL_Layer
5
115E
10
58.459200
20
25.054000
30
0.000000
11
58.459200
21
11.051700
31
0.000000
62
7
0
LINE
100
AcDbEntity
100
AcDbLine
8
PCL_Layer
5
115F
10
58.459200
20
11.051700
30
0.000000
11
44.457000
21
11.051700
31
0.000000
62
7
0
LINE
100
AcDbEntity
100
AcDbLine
8
PCL_Layer
5
1160
10
144.472900
20
101.266000
30
0.000000
11
158.475100
21
101.266000
31
0.000000
62
7
0
LINE
100
AcDbEntity
100
AcDbLine
8
PCL_Layer
5
1161
10
144.472900
20
87.263800
30
0.000000
11
144.472900
21
101.266000
31
0.000000
62
7
0
LINE
100
AcDbEntity
100
AcDbLine
8
PCL_Layer
5
1162
10
158.475100
20
101.266000
30
0.000000
11
158.475100
21
87.263800
31
0.000000
62
7
0
LINE
100
AcDbEntity
100
AcDbLine
8
PCL_Layer
5
1163
10
158.475100
20
87.263800
30
0.000000
11
144.472900
21
87.263800
31
0.000000
62
7
0
LINE
100
AcDbEntity
100
AcDbLine
8
PCL_Layer
5
1164
10
15.877500
20
25.054000
30
0.000000
11
29.879700
21
25.054000
31
0.000000
62
7
0
LINE
100
AcDbEntity
100
AcDbLine
8
PCL_Layer
5
1165
10
15.877500
20
11.051700
30
0.000000
11
15.877500
21
25.054000
31
0.000000
62
7
0
LINE
100
AcDbEntity
100
AcDbLine
8
PCL_Layer
5
1166
10
29.879700
20
25.054000
30
0.000000
11
29.879700
21
11.051700
31
0.000000
62
7
0
LINE
100
AcDbEntity
100
AcDbLine
8
PCL_Layer
5
1167
10
29.879700
20
11.051700
30
0.000000
11
15.877500
21
11.051700
31
0.000000
62
7
0
LINE
100
AcDbEntity
100
AcDbLine
8
PCL_Layer
5
1168
10
215.934100
20
63.160000
30
0.000000
11
229.936400
21
63.160000
31
0.000000
62
7
0
LINE
100
AcDbEntity
100
AcDbLine
8
PCL_Layer
5
1169
10
215.934100
20
49.157800
30
0.000000
11
215.934100
21
63.160000
31
0.000000
62
7
0
LINE
100
AcDbEntity
100
AcDbLine
8
PCL_Layer
5
116A
10
229.936400
20
63.160000
30
0.000000
11
229.936400
21
49.157800
31
0.000000
62
7
0
LINE
100
AcDbEntity
100
AcDbLine
8
PCL_Layer
5
116B
10
229.936400
20
49.157800
30
0.000000
11
215.934100
21
49.157800
31
0.000000
62
7
0
LINE
100
AcDbEntity
100
AcDbLine
8
PCL_Layer
5
116C
10
11.126800
20
44.107000
30
0.000000
11
25.129000
21
44.107000
31
0.000000
62
7
0
LINE
100
AcDbEntity
100
AcDbLine
8
PCL_Layer
5
116D
10
11.126800
20
30.104800
30
0.000000
11
11.126800
21
44.107000
31
0.000000
62
7
0
LINE
100
AcDbEntity
100
AcDbLine
8
PCL_Layer
5
116E
10
25.129000
20
44.107000
30
0.000000
11
25.129000
21
30.104800
31
0.000000
62
7
0
LINE
100
AcDbEntity
100
AcDbLine
8
PCL_Layer
5
116F
10
25.129000
20
30.104800
30
0.000000
11
11.126800
21
30.104800
31
0.000000
62
7
0
LINE
100
AcDbEntity
100
AcDbLine
8
PCL_Layer
5
1170
10
401.713500
20
63.185000
30
0.000000
11
415.715800
21
63.185000
31
0.000000
62
7
0
LINE
100
AcDbEntity
100
AcDbLine
8
PCL_Layer
5
1171
10
401.713500
20
49.182800
30
0.000000
11
401.713500
21
63.185000
31
0.000000
62
7
0
LINE
100
AcDbEntity
100
AcDbLine
8
PCL_Layer
5
1172
10
415.715800
20
63.185000
30
0.000000
11
415.715800
21
49.182800
31
0.000000
62
7
0
LINE
100
AcDbEntity
100
AcDbLine
8
PCL_Layer
5
1173
10
415.715800
20
49.182800
30
0.000000
11
401.713500
21
49.182800
31
0.000000
62
7
0
LINE
100
AcDbEntity
100
AcDbLine
8
PCL_Layer
5
1174
10
63.510000
20
44.107000
30
0.000000
11
77.512300
21
44.107000
31
0.000000
62
7
0
LINE
100
AcDbEntity
100
AcDbLine
8
PCL_Layer
5
1175
10
63.510000
20
30.104800
30
0.000000
11
63.510000
21
44.107000
31
0.000000
62
7
0
LINE
100
AcDbEntity
100
AcDbLine
8
PCL_Layer
5
1176
10
77.512300
20
44.107000
30
0.000000
11
77.512300
21
30.104800
31
0.000000
62
7
0
LINE
100
AcDbEntity
100
AcDbLine
8
PCL_Layer
5
1177
10
77.512300
20
30.104800
30
0.000000
11
63.510000
21
30.104800
31
0.000000
62
7
0
LINE
100
AcDbEntity
100
AcDbLine
8
PCL_Layer
5
1178
10
201.631900
20
101.266000
30
0.000000
11
215.634100
21
101.266000
31
0.000000
62
7
0
LINE
100
AcDbEntity
100
AcDbLine
8
PCL_Layer
5
1179
10
201.631900
20
87.263800
30
0.000000
11
201.631900
21
101.266000
31
0.000000
62
7
0
LINE
100
AcDbEntity
100
AcDbLine
8
PCL_Layer
5
117A
10
215.634100
20
101.266000
30
0.000000
11
215.634100
21
87.263800
31
0.000000
62
7
0
LINE
100
AcDbEntity
100
AcDbLine
8
PCL_Layer
5
117B
10
215.634100
20
87.263800
30
0.000000
11
201.631900
21
87.263800
31
0.000000
62
7
0
LINE
100
AcDbEntity
100
AcDbLine
8
PCL_Layer
5
117C
10
163.525900
20
101.266000
30
0.000000
11
177.528100
21
101.266000
31
0.000000
62
7
0
LINE
100
AcDbEntity
100
AcDbLine
8
PCL_Layer
5
117D
10
163.525900
20
87.263800
30
0.000000
11
163.525900
21
101.266000
31
0.000000
62
7
0
LINE
100
AcDbEntity
100
AcDbLine
8
PCL_Layer
5
117E
10
177.528100
20
101.266000
30
0.000000
11
177.528100
21
87.263800
31
0.000000
62
7
0
LINE
100
AcDbEntity
100
AcDbLine
8
PCL_Layer
5
117F
10
177.528100
20
87.263800
30
0.000000
11
163.525900
21
87.263800
31
0.000000
62
7
0
LINE
100
AcDbEntity
100
AcDbLine
8
PCL_Layer
5
1180
10
115.918300
20
82.213000
30
0.000000
11
129.920500
21
82.213000
31
0.000000
62
7
0
LINE
100
AcDbEntity
100
AcDbLine
8
PCL_Layer
5
1181
10
115.918300
20
68.210800
30
0.000000
11
115.918300
21
82.213000
31
0.000000
62
7
0
LINE
100
AcDbEntity
100
AcDbLine
8
PCL_Layer
5
1182
10
129.920500
20
82.213000
30
0.000000
11
129.920500
21
68.210800
31
0.000000
62
7
0
LINE
100
AcDbEntity
100
AcDbLine
8
PCL_Layer
5
1183
10
129.920500
20
68.210800
30
0.000000
11
115.918300
21
68.210800
31
0.000000
62
7
0
LINE
100
AcDbEntity
100
AcDbLine
8
PCL_Layer
5
1184
10
30.179800
20
101.266000
30
0.000000
11
44.182000
21
101.266000
31
0.000000
62
7
0
LINE
100
AcDbEntity
100
AcDbLine
8
PCL_Layer
5
1185
10
30.179800
20
87.263800
30
0.000000
11
30.179800
21
101.266000
31
0.000000
62
7
0
LINE
100
AcDbEntity
100
AcDbLine
8
PCL_Layer
5
1186
10
44.182000
20
101.266000
30
0.000000
11
44.182000
21
87.263800
31
0.000000
62
7
0
LINE
100
AcDbEntity
100
AcDbLine
8
PCL_Layer
5
1187
10
44.182000
20
87.263800
30
0.000000
11
30.179800
21
87.263800
31
0.000000
62
7
0
LINE
100
AcDbEntity
100
AcDbLine
8
PCL_Layer
5
1188
10
263.566700
20
44.107000
30
0.000000
11
277.568900
21
44.107000
31
0.000000
62
7
0
LINE
100
AcDbEntity
100
AcDbLine
8
PCL_Layer
5
1189
10
263.566700
20
30.104800
30
0.000000
11
263.566700
21
44.107000
31
0.000000
62
7
0
LINE
100
AcDbEntity
100
AcDbLine
8
PCL_Layer
5
118A
10
277.568900
20
44.107000
30
0.000000
11
277.568900
21
30.104800
31
0.000000
62
7
0
LINE
100
AcDbEntity
100
AcDbLine
8
PCL_Layer
5
118B
10
277.568900
20
30.104800
30
0.000000
11
263.566700
21
30.104800
31
0.000000
62
7
0
LINE
100
AcDbEntity
100
AcDbLine
8
PCL_Layer
5
118C
10
368.358200
20
44.107000
30
0.000000
11
382.360500
21
44.107000
31
0.000000
62
7
0
LINE
100
AcDbEntity
100
AcDbLine
8
PCL_Layer
5
118D
10
368.358200
20
30.104800
30
0.000000
11
368.358200
21
44.107000
31
0.000000
62
7
0
LINE
100
AcDbEntity
100
AcDbLine
8
PCL_Layer
5
118E
10
382.360500
20
44.107000
30
0.000000
11
382.360500
21
30.104800
31
0.000000
62
7
0
LINE
100
AcDbEntity
100
AcDbLine
8
PCL_Layer
5
118F
10
382.360500
20
30.104800
30
0.000000
11
368.358200
21
30.104800
31
0.000000
62
7
0
LINE
100
AcDbEntity
100
AcDbLine
8
PCL_Layer
5
1190
10
439.819600
20
120.344000
30
0.000000
11
453.821800
21
120.344000
31
0.000000
62
7
0
LINE
100
AcDbEntity
100
AcDbLine
8
PCL_Layer
5
1191
10
439.819600
20
106.341800
30
0.000000
11
439.819600
21
120.344000
31
0.000000
62
7
0
LINE
100
AcDbEntity
100
AcDbLine
8
PCL_Layer
5
1192
10
453.821800
20
120.344000
30
0.000000
11
453.821800
21
106.341800
31
0.000000
62
7
0
LINE
100
AcDbEntity
100
AcDbLine
8
PCL_Layer
5
1193
10
453.821800
20
106.341800
30
0.000000
11
439.819600
21
106.341800
31
0.000000
62
7
0
LINE
100
AcDbEntity
100
AcDbLine
8
PCL_Layer
5
1194
10
368.358200
20
82.213000
30
0.000000
11
382.360500
21
82.213000
31
0.000000
62
7
0
LINE
100
AcDbEntity
100
AcDbLine
8
PCL_Layer
5
1195
10
368.358200
20
68.210800
30
0.000000
11
368.358200
21
82.213000
31
0.000000
62
7
0
LINE
100
AcDbEntity
100
AcDbLine
8
PCL_Layer
5
1196
10
382.360500
20
82.213000
30
0.000000
11
382.360500
21
68.210800
31
0.000000
62
7
0
LINE
100
AcDbEntity
100
AcDbLine
8
PCL_Layer
5
1197
10
382.360500
20
68.210800
30
0.000000
11
368.358200
21
68.210800
31
0.000000
62
7
0
LINE
100
AcDbEntity
100
AcDbLine
8
PCL_Layer
5
1198
10
73.036600
20
25.054000
30
0.000000
11
87.038800
21
25.054000
31
0.000000
62
7
0
LINE
100
AcDbEntity
100
AcDbLine
8
PCL_Layer
5
1199
10
73.036600
20
11.051700
30
0.000000
11
73.036600
21
25.054000
31
0.000000
62
7
0
LINE
100
AcDbEntity
100
AcDbLine
8
PCL_Layer
5
119A
10
87.038800
20
25.054000
30
0.000000
11
87.038800
21
11.051700
31
0.000000
62
7
0
LINE
100
AcDbEntity
100
AcDbLine
8
PCL_Layer
5
119B
10
87.038800
20
11.051700
30
0.000000
11
73.036600
21
11.051700
31
0.000000
62
7
0
LINE
100
AcDbEntity
100
AcDbLine
8
PCL_Layer
5
119C
10
373.109000
20
101.266000
30
0.000000
11
387.111200
21
101.266000
31
0.000000
62
7
0
LINE
100
AcDbEntity
100
AcDbLine
8
PCL_Layer
5
119D
10
373.109000
20
87.263800
30
0.000000
11
373.109000
21
101.266000
31
0.000000
62
7
0
LINE
100
AcDbEntity
100
AcDbLine
8
PCL_Layer
5
119E
10
387.111200
20
101.266000
30
0.000000
11
387.111200
21
87.263800
31
0.000000
62
7
0
LINE
100
AcDbEntity
100
AcDbLine
8
PCL_Layer
5
119F
10
387.111200
20
87.263800
30
0.000000
11
373.109000
21
87.263800
31
0.000000
62
7
0
LINE
100
AcDbEntity
100
AcDbLine
8
PCL_Layer
5
11A0
10
11.126800
20
101.266000
30
0.000000
11
25.129000
21
101.266000
31
0.000000
62
7
0
LINE
100
AcDbEntity
100
AcDbLine
8
PCL_Layer
5
11A1
10
11.126800
20
87.263800
30
0.000000
11
11.126800
21
101.266000
31
0.000000
62
7
0
LINE
100
AcDbEntity
100
AcDbLine
8
PCL_Layer
5
11A2
10
25.129000
20
101.266000
30
0.000000
11
25.129000
21
87.263800
31
0.000000
62
7
0
LINE
100
AcDbEntity
100
AcDbLine
8
PCL_Layer
5
11A3
10
25.129000
20
87.263800
30
0.000000
11
11.126800
21
87.263800
31
0.000000
62
7
0
LINE
100
AcDbEntity
100
AcDbLine
8
PCL_Layer
5
11A4
10
0.000000
20
133.046000
30
0.000000
11
474.000000
21
133.046000
31
0.000000
62
7
0
LINE
100
AcDbEntity
100
AcDbLine
8
PCL_Layer
5
11A5
10
474.000000
20
133.046000
30
0.000000
11
474.000000
21
0.000000
31
0.000000
62
7
0
LINE
100
AcDbEntity
100
AcDbLine
8
PCL_Layer
5
11A6
10
474.000000
20
0.000000
30
0.000000
11
0.000000
21
0.000000
31
0.000000
62
7
0
LINE
100
AcDbEntity
100
AcDbLine
8
PCL_Layer
5
11A7
10
0.000000
20
0.000000
30
0.000000
11
0.000000
21
133.046000
31
0.000000
62
7
0
ENDSEC
0
EOF
