%TF.GenerationSoftware,KiCad,Pcbnew,8.0.1-8.0.1-1~ubuntu22.04.1*%
%TF.CreationDate,2024-03-18T08:02:13+03:00*%
%TF.ProjectId,SpaceCadet,53706163-6543-4616-9465-742e6b696361,rev?*%
%TF.SameCoordinates,Original*%
%TF.FileFunction,Legend,Top*%
%TF.FilePolarity,Positive*%
%FSLAX46Y46*%
G04 Gerber Fmt 4.6, Leading zero omitted, Abs format (unit mm)*
G04 Created by KiCad (PCBNEW 8.0.1-8.0.1-1~ubuntu22.04.1) date 2024-03-18 08:02:13*
%MOMM*%
%LPD*%
G01*
G04 APERTURE LIST*
%ADD10C,0.150000*%
%TA.AperFunction,Profile*%
%ADD11C,0.100000*%
%TD*%
G04 APERTURE END LIST*
D10*
X294689900Y-49170000D02*
X308689900Y-49170000D01*
X294689900Y-63170000D02*
X294689900Y-49170000D01*
X308689900Y-49170000D02*
X308689900Y-63170000D01*
X308689900Y-63170000D02*
X294689900Y-63170000D01*
X466139900Y-49170000D02*
X480139900Y-49170000D01*
X466139900Y-63170000D02*
X466139900Y-49170000D01*
X480139900Y-49170000D02*
X480139900Y-63170000D01*
X480139900Y-63170000D02*
X466139900Y-63170000D01*
X147052480Y-106320000D02*
X161052480Y-106320000D01*
X147052480Y-120320000D02*
X147052480Y-106320000D01*
X161052480Y-106320000D02*
X161052480Y-120320000D01*
X161052480Y-120320000D02*
X147052480Y-120320000D01*
X213727460Y-87270000D02*
X227727460Y-87270000D01*
X213727460Y-101270000D02*
X213727460Y-87270000D01*
X227727460Y-87270000D02*
X227727460Y-101270000D01*
X227727460Y-101270000D02*
X213727460Y-101270000D01*
X280414940Y-125355000D02*
X294414940Y-125355000D01*
X280414940Y-139355000D02*
X280414940Y-125355000D01*
X294414940Y-125355000D02*
X294414940Y-139355000D01*
X294414940Y-139355000D02*
X280414940Y-139355000D01*
X370889900Y-49170000D02*
X384889900Y-49170000D01*
X370889900Y-63170000D02*
X370889900Y-49170000D01*
X384889900Y-49170000D02*
X384889900Y-63170000D01*
X384889900Y-63170000D02*
X370889900Y-63170000D01*
X199439940Y-49170000D02*
X213439940Y-49170000D01*
X199439940Y-63170000D02*
X199439940Y-49170000D01*
X213439940Y-49170000D02*
X213439940Y-63170000D01*
X213439940Y-63170000D02*
X199439940Y-63170000D01*
X285164930Y-68220000D02*
X299164930Y-68220000D01*
X285164930Y-82220000D02*
X285164930Y-68220000D01*
X299164930Y-68220000D02*
X299164930Y-82220000D01*
X299164930Y-82220000D02*
X285164930Y-82220000D01*
X270877430Y-87270000D02*
X284877430Y-87270000D01*
X270877430Y-101270000D02*
X270877430Y-87270000D01*
X284877430Y-87270000D02*
X284877430Y-101270000D01*
X284877430Y-101270000D02*
X270877430Y-101270000D01*
X237539930Y-49170000D02*
X251539930Y-49170000D01*
X237539930Y-63170000D02*
X237539930Y-49170000D01*
X251539930Y-49170000D02*
X251539930Y-63170000D01*
X251539930Y-63170000D02*
X237539930Y-63170000D01*
X251827440Y-87270000D02*
X265827440Y-87270000D01*
X251827440Y-101270000D02*
X251827440Y-87270000D01*
X265827440Y-87270000D02*
X265827440Y-101270000D01*
X265827440Y-101270000D02*
X251827440Y-101270000D01*
X387568600Y-87245000D02*
X401568600Y-87245000D01*
X387568600Y-101245000D02*
X387568600Y-87245000D01*
X401568600Y-87245000D02*
X401568600Y-101245000D01*
X401568600Y-101245000D02*
X387568600Y-101245000D01*
X347087400Y-49170000D02*
X361087400Y-49170000D01*
X347087400Y-63170000D02*
X347087400Y-49170000D01*
X361087400Y-49170000D02*
X361087400Y-63170000D01*
X361087400Y-63170000D02*
X347087400Y-63170000D01*
X111343760Y-87270000D02*
X125343760Y-87270000D01*
X111343760Y-101270000D02*
X111343760Y-87270000D01*
X125343760Y-87270000D02*
X125343760Y-101270000D01*
X125343760Y-101270000D02*
X111343760Y-101270000D01*
X304214920Y-68220000D02*
X318214920Y-68220000D01*
X304214920Y-82220000D02*
X304214920Y-68220000D01*
X318214920Y-68220000D02*
X318214920Y-82220000D01*
X318214920Y-82220000D02*
X304214920Y-82220000D01*
X447089860Y-68220000D02*
X461089860Y-68220000D01*
X447089860Y-82220000D02*
X447089860Y-68220000D01*
X461089860Y-68220000D02*
X461089860Y-82220000D01*
X461089860Y-82220000D02*
X447089860Y-82220000D01*
X275639900Y-49170000D02*
X289639900Y-49170000D01*
X275639900Y-63170000D02*
X275639900Y-49170000D01*
X289639900Y-49170000D02*
X289639900Y-63170000D01*
X289639900Y-63170000D02*
X275639900Y-63170000D01*
X75625006Y-68205000D02*
X89625006Y-68205000D01*
X75625006Y-82205000D02*
X75625006Y-68205000D01*
X89625006Y-68205000D02*
X89625006Y-82205000D01*
X89625006Y-82205000D02*
X75625006Y-82205000D01*
X418524880Y-30105000D02*
X432524880Y-30105000D01*
X418524880Y-44105000D02*
X418524880Y-30105000D01*
X432524880Y-30105000D02*
X432524880Y-44105000D01*
X432524880Y-44105000D02*
X418524880Y-44105000D01*
X304224950Y-30105000D02*
X318224950Y-30105000D01*
X304224950Y-44105000D02*
X304224950Y-30105000D01*
X318224950Y-30105000D02*
X318224950Y-44105000D01*
X318224950Y-44105000D02*
X304224950Y-44105000D01*
X27990000Y-68220000D02*
X41990000Y-68220000D01*
X27990000Y-82220000D02*
X27990000Y-68220000D01*
X41990000Y-68220000D02*
X41990000Y-82220000D01*
X41990000Y-82220000D02*
X27990000Y-82220000D01*
X223252430Y-106320000D02*
X237252430Y-106320000D01*
X223252430Y-120320000D02*
X223252430Y-106320000D01*
X237252430Y-106320000D02*
X237252430Y-120320000D01*
X237252430Y-120320000D02*
X223252430Y-120320000D01*
X466139900Y-106320000D02*
X480139900Y-106320000D01*
X466139900Y-120320000D02*
X466139900Y-106320000D01*
X480139900Y-106320000D02*
X480139900Y-120320000D01*
X480139900Y-120320000D02*
X466139900Y-120320000D01*
X75625006Y-87255000D02*
X89625006Y-87255000D01*
X75625006Y-101255000D02*
X75625006Y-87255000D01*
X89625006Y-87255000D02*
X89625006Y-101255000D01*
X89625006Y-101255000D02*
X75625006Y-101255000D01*
X318512400Y-49170000D02*
X332512400Y-49170000D01*
X318512400Y-63170000D02*
X318512400Y-49170000D01*
X332512400Y-49170000D02*
X332512400Y-63170000D01*
X332512400Y-63170000D02*
X318512400Y-63170000D01*
X323264900Y-68220000D02*
X337264900Y-68220000D01*
X323264900Y-82220000D02*
X323264900Y-68220000D01*
X337264900Y-68220000D02*
X337264900Y-82220000D01*
X337264900Y-82220000D02*
X323264900Y-82220000D01*
X320896200Y-125345000D02*
X334896200Y-125345000D01*
X320896200Y-139345000D02*
X320896200Y-125345000D01*
X334896200Y-125345000D02*
X334896200Y-139345000D01*
X334896200Y-139345000D02*
X320896200Y-139345000D01*
X204202440Y-106320000D02*
X218202440Y-106320000D01*
X204202440Y-120320000D02*
X204202440Y-106320000D01*
X218202440Y-106320000D02*
X218202440Y-120320000D01*
X218202440Y-120320000D02*
X204202440Y-120320000D01*
X47040000Y-68220000D02*
X61040000Y-68220000D01*
X47040000Y-82220000D02*
X47040000Y-68220000D01*
X61040000Y-68220000D02*
X61040000Y-82220000D01*
X61040000Y-82220000D02*
X47040000Y-82220000D01*
X116106240Y-106305000D02*
X130106240Y-106305000D01*
X116106240Y-120305000D02*
X116106240Y-106305000D01*
X130106240Y-106305000D02*
X130106240Y-120305000D01*
X130106240Y-120305000D02*
X116106240Y-120305000D01*
X75625006Y-49155000D02*
X89625006Y-49155000D01*
X75625006Y-63155000D02*
X75625006Y-49155000D01*
X89625006Y-49155000D02*
X89625006Y-63155000D01*
X89625006Y-63155000D02*
X75625006Y-63155000D01*
X432815000Y-125370000D02*
X446815000Y-125370000D01*
X432815000Y-139370000D02*
X432815000Y-125370000D01*
X446815000Y-125370000D02*
X446815000Y-139370000D01*
X446815000Y-139370000D02*
X432815000Y-139370000D01*
X266114950Y-68220000D02*
X280114950Y-68220000D01*
X266114950Y-82220000D02*
X266114950Y-68220000D01*
X280114950Y-68220000D02*
X280114950Y-82220000D01*
X280114950Y-82220000D02*
X266114950Y-82220000D01*
X51812500Y-106320000D02*
X65812500Y-106320000D01*
X51812500Y-120320000D02*
X51812500Y-106320000D01*
X65812500Y-106320000D02*
X65812500Y-120320000D01*
X65812500Y-120320000D02*
X51812500Y-120320000D01*
X37525000Y-87255000D02*
X51525000Y-87255000D01*
X37525000Y-101255000D02*
X37525000Y-87255000D01*
X51525000Y-87255000D02*
X51525000Y-101255000D01*
X51525000Y-101255000D02*
X37525000Y-101255000D01*
X189914980Y-68220000D02*
X203914980Y-68220000D01*
X189914980Y-82220000D02*
X189914980Y-68220000D01*
X203914980Y-68220000D02*
X203914980Y-82220000D01*
X203914980Y-82220000D02*
X189914980Y-82220000D01*
X361364880Y-68220000D02*
X375364880Y-68220000D01*
X361364880Y-82220000D02*
X361364880Y-68220000D01*
X375364880Y-68220000D02*
X375364880Y-82220000D01*
X375364880Y-82220000D02*
X361364880Y-82220000D01*
X418524880Y-68205000D02*
X432524880Y-68205000D01*
X418524880Y-82205000D02*
X418524880Y-68205000D01*
X432524880Y-68205000D02*
X432524880Y-82205000D01*
X432524880Y-82205000D02*
X418524880Y-82205000D01*
X461390000Y-125370000D02*
X475390000Y-125370000D01*
X461390000Y-139370000D02*
X461390000Y-125370000D01*
X475390000Y-125370000D02*
X475390000Y-139370000D01*
X475390000Y-139370000D02*
X461390000Y-139370000D01*
X247064960Y-68220000D02*
X261064960Y-68220000D01*
X247064960Y-82220000D02*
X247064960Y-68220000D01*
X261064960Y-68220000D02*
X261064960Y-82220000D01*
X261064960Y-82220000D02*
X247064960Y-82220000D01*
X170864990Y-68220000D02*
X184864990Y-68220000D01*
X170864990Y-82220000D02*
X170864990Y-68220000D01*
X184864990Y-68220000D02*
X184864990Y-82220000D01*
X184864990Y-82220000D02*
X170864990Y-82220000D01*
X266124980Y-30105000D02*
X280124980Y-30105000D01*
X266124980Y-44105000D02*
X266124980Y-30105000D01*
X280124980Y-30105000D02*
X280124980Y-44105000D01*
X280124980Y-44105000D02*
X266124980Y-44105000D01*
X113725010Y-30105000D02*
X127725010Y-30105000D01*
X113725010Y-44105000D02*
X113725010Y-30105000D01*
X127725010Y-30105000D02*
X127725010Y-44105000D01*
X127725010Y-44105000D02*
X113725010Y-44105000D01*
X142289980Y-49170000D02*
X156289980Y-49170000D01*
X142289980Y-63170000D02*
X142289980Y-49170000D01*
X156289980Y-49170000D02*
X156289980Y-63170000D01*
X156289980Y-63170000D02*
X142289980Y-63170000D01*
X256589920Y-49170000D02*
X270589920Y-49170000D01*
X256589920Y-63170000D02*
X256589920Y-49170000D01*
X270589920Y-49170000D02*
X270589920Y-63170000D01*
X270589920Y-63170000D02*
X256589920Y-63170000D01*
X75625006Y-30105000D02*
X89625006Y-30105000D01*
X75625006Y-44105000D02*
X75625006Y-30105000D01*
X89625006Y-30105000D02*
X89625006Y-44105000D01*
X89625006Y-44105000D02*
X75625006Y-44105000D01*
X108962520Y-68220000D02*
X122962520Y-68220000D01*
X108962520Y-82220000D02*
X108962520Y-68220000D01*
X122962520Y-68220000D02*
X122962520Y-82220000D01*
X122962520Y-82220000D02*
X108962520Y-82220000D01*
X347089950Y-125370000D02*
X361089950Y-125370000D01*
X347089950Y-139370000D02*
X347089950Y-125370000D01*
X361089950Y-125370000D02*
X361089950Y-139370000D01*
X361089950Y-139370000D02*
X347089950Y-139370000D01*
X151815000Y-68220000D02*
X165815000Y-68220000D01*
X151815000Y-82220000D02*
X151815000Y-68220000D01*
X165815000Y-68220000D02*
X165815000Y-82220000D01*
X165815000Y-82220000D02*
X151815000Y-82220000D01*
X208975000Y-125355000D02*
X222975000Y-125355000D01*
X208975000Y-139355000D02*
X208975000Y-125355000D01*
X222975000Y-125355000D02*
X222975000Y-139355000D01*
X222975000Y-139355000D02*
X208975000Y-139355000D01*
X185152450Y-106320000D02*
X199152450Y-106320000D01*
X185152450Y-120320000D02*
X185152450Y-106320000D01*
X199152450Y-106320000D02*
X199152450Y-120320000D01*
X199152450Y-120320000D02*
X185152450Y-120320000D01*
X228014970Y-68220000D02*
X242014970Y-68220000D01*
X228014970Y-82220000D02*
X228014970Y-68220000D01*
X242014970Y-68220000D02*
X242014970Y-82220000D01*
X242014970Y-82220000D02*
X228014970Y-82220000D01*
X342314900Y-68220000D02*
X356314900Y-68220000D01*
X342314900Y-82220000D02*
X342314900Y-68220000D01*
X356314900Y-68220000D02*
X356314900Y-82220000D01*
X356314900Y-82220000D02*
X342314900Y-82220000D01*
X261352400Y-106320000D02*
X275352400Y-106320000D01*
X261352400Y-120320000D02*
X261352400Y-106320000D01*
X275352400Y-106320000D02*
X275352400Y-120320000D01*
X275352400Y-120320000D02*
X261352400Y-120320000D01*
X318502370Y-106320000D02*
X332502370Y-106320000D01*
X318502370Y-120320000D02*
X318502370Y-106320000D01*
X332502370Y-106320000D02*
X332502370Y-120320000D01*
X332502370Y-120320000D02*
X318502370Y-120320000D01*
X299452380Y-106320000D02*
X313452380Y-106320000D01*
X299452380Y-120320000D02*
X299452380Y-106320000D01*
X313452380Y-106320000D02*
X313452380Y-120320000D01*
X313452380Y-120320000D02*
X299452380Y-120320000D01*
X37525000Y-30105000D02*
X51525000Y-30105000D01*
X37525000Y-44105000D02*
X37525000Y-30105000D01*
X51525000Y-30105000D02*
X51525000Y-44105000D01*
X51525000Y-44105000D02*
X37525000Y-44105000D01*
X442337380Y-106320000D02*
X456337380Y-106320000D01*
X442337380Y-120320000D02*
X442337380Y-106320000D01*
X456337380Y-106320000D02*
X456337380Y-120320000D01*
X456337380Y-120320000D02*
X442337380Y-120320000D01*
X404239980Y-125370000D02*
X418239980Y-125370000D01*
X404239980Y-139370000D02*
X404239980Y-125370000D01*
X418239980Y-125370000D02*
X418239980Y-139370000D01*
X418239980Y-139370000D02*
X404239980Y-139370000D01*
X147062520Y-125370000D02*
X161062520Y-125370000D01*
X147062520Y-139370000D02*
X147062520Y-125370000D01*
X161062520Y-125370000D02*
X161062520Y-139370000D01*
X161062520Y-139370000D02*
X147062520Y-139370000D01*
X289927400Y-87270000D02*
X303927400Y-87270000D01*
X289927400Y-101270000D02*
X289927400Y-87270000D01*
X303927400Y-87270000D02*
X303927400Y-101270000D01*
X303927400Y-101270000D02*
X289927400Y-101270000D01*
X456624820Y-87255000D02*
X470624820Y-87255000D01*
X456624820Y-101255000D02*
X456624820Y-87255000D01*
X470624820Y-87255000D02*
X470624820Y-101255000D01*
X470624820Y-101255000D02*
X456624820Y-101255000D01*
X447089860Y-49170000D02*
X461089860Y-49170000D01*
X447089860Y-63170000D02*
X447089860Y-49170000D01*
X461089860Y-49170000D02*
X461089860Y-63170000D01*
X461089860Y-63170000D02*
X447089860Y-63170000D01*
X380424900Y-30105000D02*
X394424900Y-30105000D01*
X380424900Y-44105000D02*
X380424900Y-30105000D01*
X394424900Y-30105000D02*
X394424900Y-44105000D01*
X394424900Y-44105000D02*
X380424900Y-44105000D01*
X118487510Y-125370000D02*
X132487510Y-125370000D01*
X118487510Y-139370000D02*
X118487510Y-125370000D01*
X132487510Y-125370000D02*
X132487510Y-139370000D01*
X132487510Y-139370000D02*
X118487510Y-139370000D01*
X166102460Y-106320000D02*
X180102460Y-106320000D01*
X166102460Y-120320000D02*
X166102460Y-106320000D01*
X180102460Y-106320000D02*
X180102460Y-120320000D01*
X180102460Y-120320000D02*
X166102460Y-120320000D01*
X170865020Y-125370000D02*
X184865020Y-125370000D01*
X170865020Y-139370000D02*
X170865020Y-125370000D01*
X184865020Y-125370000D02*
X184865020Y-139370000D01*
X184865020Y-139370000D02*
X170865020Y-139370000D01*
X342324930Y-30105000D02*
X356324930Y-30105000D01*
X342324930Y-44105000D02*
X342324930Y-30105000D01*
X356324930Y-30105000D02*
X356324930Y-44105000D01*
X356324930Y-44105000D02*
X342324930Y-44105000D01*
X466139900Y-68220000D02*
X480139900Y-68220000D01*
X466139900Y-82220000D02*
X466139900Y-68220000D01*
X480139900Y-68220000D02*
X480139900Y-82220000D01*
X480139900Y-82220000D02*
X466139900Y-82220000D01*
X123239990Y-49170000D02*
X137239990Y-49170000D01*
X123239990Y-63170000D02*
X123239990Y-49170000D01*
X137239990Y-49170000D02*
X137239990Y-63170000D01*
X137239990Y-63170000D02*
X123239990Y-63170000D01*
X375664970Y-125370000D02*
X389664970Y-125370000D01*
X375664970Y-139370000D02*
X375664970Y-125370000D01*
X389664970Y-125370000D02*
X389664970Y-139370000D01*
X389664970Y-139370000D02*
X375664970Y-139370000D01*
X328027400Y-87270000D02*
X342027400Y-87270000D01*
X328027400Y-101270000D02*
X328027400Y-87270000D01*
X342027400Y-87270000D02*
X342027400Y-101270000D01*
X342027400Y-101270000D02*
X328027400Y-101270000D01*
X308977400Y-87270000D02*
X322977400Y-87270000D01*
X308977400Y-101270000D02*
X308977400Y-87270000D01*
X322977400Y-87270000D02*
X322977400Y-101270000D01*
X322977400Y-101270000D02*
X308977400Y-101270000D01*
X189925020Y-30105000D02*
X203925020Y-30105000D01*
X189925020Y-44105000D02*
X189925020Y-30105000D01*
X203925020Y-30105000D02*
X203925020Y-44105000D01*
X203925020Y-44105000D02*
X189925020Y-44105000D01*
X418524880Y-49155000D02*
X432524880Y-49155000D01*
X418524880Y-63155000D02*
X418524880Y-49155000D01*
X432524880Y-49155000D02*
X432524880Y-63155000D01*
X432524880Y-63155000D02*
X418524880Y-63155000D01*
X208964980Y-68220000D02*
X222964980Y-68220000D01*
X208964980Y-82220000D02*
X208964980Y-68220000D01*
X222964980Y-68220000D02*
X222964980Y-82220000D01*
X222964980Y-82220000D02*
X208964980Y-82220000D01*
X175627470Y-87270000D02*
X189627470Y-87270000D01*
X175627470Y-101270000D02*
X175627470Y-87270000D01*
X189627470Y-87270000D02*
X189627470Y-101270000D01*
X189627470Y-101270000D02*
X175627470Y-101270000D01*
X349468600Y-106305000D02*
X363468600Y-106305000D01*
X349468600Y-120305000D02*
X349468600Y-106305000D01*
X363468600Y-106305000D02*
X363468600Y-120305000D01*
X363468600Y-120305000D02*
X349468600Y-120305000D01*
X413762370Y-106320000D02*
X427762370Y-106320000D01*
X413762370Y-120320000D02*
X413762370Y-106320000D01*
X427762370Y-106320000D02*
X427762370Y-120320000D01*
X427762370Y-120320000D02*
X413762370Y-120320000D01*
X228025000Y-30105000D02*
X242025000Y-30105000D01*
X228025000Y-44105000D02*
X228025000Y-30105000D01*
X242025000Y-30105000D02*
X242025000Y-44105000D01*
X242025000Y-44105000D02*
X228025000Y-44105000D01*
X137527500Y-87270000D02*
X151527500Y-87270000D01*
X137527500Y-101270000D02*
X137527500Y-87270000D01*
X151527500Y-87270000D02*
X151527500Y-101270000D01*
X151527500Y-101270000D02*
X137527500Y-101270000D01*
X242302400Y-106320000D02*
X256302400Y-106320000D01*
X242302400Y-120320000D02*
X242302400Y-106320000D01*
X256302400Y-106320000D02*
X256302400Y-120320000D01*
X256302400Y-120320000D02*
X242302400Y-120320000D01*
X151825020Y-30105000D02*
X165825020Y-30105000D01*
X151825020Y-44105000D02*
X151825020Y-30105000D01*
X165825020Y-30105000D02*
X165825020Y-44105000D01*
X165825020Y-44105000D02*
X151825020Y-44105000D01*
X194677460Y-87270000D02*
X208677460Y-87270000D01*
X194677460Y-101270000D02*
X194677460Y-87270000D01*
X208677460Y-87270000D02*
X208677460Y-101270000D01*
X208677460Y-101270000D02*
X194677460Y-101270000D01*
X156577480Y-87270000D02*
X170577480Y-87270000D01*
X156577480Y-101270000D02*
X156577480Y-87270000D01*
X170577480Y-87270000D02*
X170577480Y-101270000D01*
X170577480Y-101270000D02*
X156577480Y-101270000D01*
X356612370Y-87255000D02*
X370612370Y-87255000D01*
X356612370Y-101255000D02*
X356612370Y-87255000D01*
X370612370Y-87255000D02*
X370612370Y-101255000D01*
X370612370Y-101255000D02*
X356612370Y-101255000D01*
X104190000Y-49170000D02*
X118190000Y-49170000D01*
X104190000Y-63170000D02*
X104190000Y-49170000D01*
X118190000Y-49170000D02*
X118190000Y-63170000D01*
X118190000Y-63170000D02*
X104190000Y-63170000D01*
X61337500Y-125370000D02*
X75337500Y-125370000D01*
X61337500Y-139370000D02*
X61337500Y-125370000D01*
X75337500Y-125370000D02*
X75337500Y-139370000D01*
X75337500Y-139370000D02*
X61337500Y-139370000D01*
X161339970Y-49170000D02*
X175339970Y-49170000D01*
X161339970Y-63170000D02*
X161339970Y-49170000D01*
X175339970Y-49170000D02*
X175339970Y-63170000D01*
X175339970Y-63170000D02*
X161339970Y-63170000D01*
X32762500Y-125370000D02*
X46762500Y-125370000D01*
X32762500Y-139370000D02*
X32762500Y-125370000D01*
X46762500Y-125370000D02*
X46762500Y-139370000D01*
X46762500Y-139370000D02*
X32762500Y-139370000D01*
X232777450Y-87270000D02*
X246777450Y-87270000D01*
X232777450Y-101270000D02*
X232777450Y-87270000D01*
X246777450Y-87270000D02*
X246777450Y-101270000D01*
X246777450Y-101270000D02*
X232777450Y-101270000D01*
X27990000Y-106320000D02*
X41990000Y-106320000D01*
X27990000Y-120320000D02*
X27990000Y-106320000D01*
X41990000Y-106320000D02*
X41990000Y-120320000D01*
X41990000Y-120320000D02*
X27990000Y-120320000D01*
X418524850Y-87255000D02*
X432524850Y-87255000D01*
X418524850Y-101255000D02*
X418524850Y-87255000D01*
X432524850Y-87255000D02*
X432524850Y-101255000D01*
X432524850Y-101255000D02*
X418524850Y-101255000D01*
X80387495Y-106320000D02*
X94387495Y-106320000D01*
X80387495Y-120320000D02*
X80387495Y-106320000D01*
X94387495Y-106320000D02*
X94387495Y-120320000D01*
X94387495Y-120320000D02*
X80387495Y-120320000D01*
X218489950Y-49170000D02*
X232489950Y-49170000D01*
X218489950Y-63170000D02*
X218489950Y-49170000D01*
X232489950Y-49170000D02*
X232489950Y-63170000D01*
X232489950Y-63170000D02*
X218489950Y-63170000D01*
X180389950Y-49170000D02*
X194389950Y-49170000D01*
X180389950Y-63170000D02*
X180389950Y-49170000D01*
X194389950Y-49170000D02*
X194389950Y-63170000D01*
X194389950Y-63170000D02*
X180389950Y-63170000D01*
X132765020Y-68220000D02*
X146765020Y-68220000D01*
X132765020Y-82220000D02*
X132765020Y-68220000D01*
X146765020Y-68220000D02*
X146765020Y-82220000D01*
X146765020Y-82220000D02*
X132765020Y-82220000D01*
X47040000Y-49170000D02*
X61040000Y-49170000D01*
X47040000Y-63170000D02*
X47040000Y-49170000D01*
X61040000Y-49170000D02*
X61040000Y-63170000D01*
X61040000Y-63170000D02*
X47040000Y-63170000D01*
X280402400Y-106320000D02*
X294402400Y-106320000D01*
X280402400Y-120320000D02*
X280402400Y-106320000D01*
X294402400Y-106320000D02*
X294402400Y-120320000D01*
X294402400Y-120320000D02*
X280402400Y-120320000D01*
X385187350Y-106320000D02*
X399187350Y-106320000D01*
X385187350Y-120320000D02*
X385187350Y-106320000D01*
X399187350Y-106320000D02*
X399187350Y-120320000D01*
X399187350Y-120320000D02*
X385187350Y-120320000D01*
X456624850Y-30105000D02*
X470624850Y-30105000D01*
X456624850Y-44105000D02*
X456624850Y-30105000D01*
X470624850Y-30105000D02*
X470624850Y-44105000D01*
X470624850Y-44105000D02*
X456624850Y-44105000D01*
X385187380Y-68220000D02*
X399187380Y-68220000D01*
X385187380Y-82220000D02*
X385187380Y-68220000D01*
X399187380Y-68220000D02*
X399187380Y-82220000D01*
X399187380Y-82220000D02*
X385187380Y-82220000D01*
X89912500Y-125370000D02*
X103912500Y-125370000D01*
X89912500Y-139370000D02*
X89912500Y-125370000D01*
X103912500Y-125370000D02*
X103912500Y-139370000D01*
X103912500Y-139370000D02*
X89912500Y-139370000D01*
X389939900Y-49170000D02*
X403939900Y-49170000D01*
X389939900Y-63170000D02*
X389939900Y-49170000D01*
X403939900Y-49170000D02*
X403939900Y-63170000D01*
X403939900Y-63170000D02*
X389939900Y-63170000D01*
X27990000Y-49170000D02*
X41990000Y-49170000D01*
X27990000Y-63170000D02*
X27990000Y-49170000D01*
X41990000Y-49170000D02*
X41990000Y-63170000D01*
X41990000Y-63170000D02*
X27990000Y-63170000D01*
D11*
X16864980Y-17400000D02*
X490804980Y-17400000D01*
X490804980Y-150440000D01*
X16864980Y-150440000D01*
X16864980Y-17400000D01*
M02*
