0
SECTION
2
HEADER
9
$ACADVER
1
AC1009
9
$INSUNITS
70
4
9
$EXTMIN
10
0.000000
20
0.000000
30
0.000000
9
$EXTMAX
10
494.000000
20
197.174700
30
0.000000
0
ENDSEC
0
SECTION
2
TABLES
0
TABLE
2
LAYER
0
LAYER
2
PCL_Layer
62
7
70
0
6
CONTINUOUS
0
ENDTAB
0
TABLE
2
VPORT
5
0
100
AcDbSymbolTable
70
3
0
VPORT
5
1
100
AcDbSymbolTableRecord
100
AcDbViewportTableRecord
2
*ACTIVE
70
0
10
0.0
20
0.0
11
1.0
21
1.0
12
247.000000
22
98.587350
13
0.0
23
0.0
14
10.0
24
10.0
15
10.0
25
10.0
16
0.0
26
0.0
36
1.0
17
0.0
27
0.0
37
0.0
40
236.609640
41
2.107632093933463
42
50.0
43
0.0
44
0.0
50
0.0
51
0.0
71
0
72
100
73
1
74
3
75
0
76
0
77
0
78
0
0
ENDTAB
0
ENDSEC
0
SECTION
2
BLOCKS
0
ENDSEC
0
SECTION
2
ENTITIES
0
LINE
100
AcDbEntity
100
AcDbLine
8
PCL_Layer
5
1000
10
273.532600
20
107.956900
30
0.000000
11
287.117900
21
107.956900
31
0.000000
62
7
0
LINE
100
AcDbEntity
100
AcDbLine
8
PCL_Layer
5
1001
10
287.117900
20
107.956900
30
0.000000
11
287.117900
21
94.396700
31
0.000000
62
7
0
LINE
100
AcDbEntity
100
AcDbLine
8
PCL_Layer
5
1002
10
287.117900
20
94.396700
30
0.000000
11
273.532600
21
94.396700
31
0.000000
62
7
0
LINE
100
AcDbEntity
100
AcDbLine
8
PCL_Layer
5
1003
10
273.532600
20
94.396700
30
0.000000
11
273.532600
21
107.956900
31
0.000000
62
7
0
LINE
100
AcDbEntity
100
AcDbLine
8
PCL_Layer
5
1004
10
364.101400
20
165.150400
30
0.000000
11
377.686700
21
165.150400
31
0.000000
62
7
0
LINE
100
AcDbEntity
100
AcDbLine
8
PCL_Layer
5
1005
10
377.686700
20
165.150400
30
0.000000
11
377.686700
21
151.590100
31
0.000000
62
7
0
LINE
100
AcDbEntity
100
AcDbLine
8
PCL_Layer
5
1006
10
377.686700
20
151.590100
30
0.000000
11
364.101400
21
151.590100
31
0.000000
62
7
0
LINE
100
AcDbEntity
100
AcDbLine
8
PCL_Layer
5
1007
10
364.101400
20
151.590100
30
0.000000
11
364.101400
21
165.150400
31
0.000000
62
7
0
LINE
100
AcDbEntity
100
AcDbLine
8
PCL_Layer
5
1008
10
440.359300
20
146.085900
30
0.000000
11
453.944600
21
146.085900
31
0.000000
62
7
0
LINE
100
AcDbEntity
100
AcDbLine
8
PCL_Layer
5
1009
10
453.944600
20
146.085900
30
0.000000
11
453.944600
21
132.500600
31
0.000000
62
7
0
LINE
100
AcDbEntity
100
AcDbLine
8
PCL_Layer
5
100A
10
453.944600
20
132.500600
30
0.000000
11
440.359300
21
132.500600
31
0.000000
62
7
0
LINE
100
AcDbEntity
100
AcDbLine
8
PCL_Layer
5
100B
10
440.359300
20
132.500600
30
0.000000
11
440.359300
21
146.085900
31
0.000000
62
7
0
LINE
100
AcDbEntity
100
AcDbLine
8
PCL_Layer
5
100C
10
178.210300
20
107.956900
30
0.000000
11
191.795600
21
107.956900
31
0.000000
62
7
0
LINE
100
AcDbEntity
100
AcDbLine
8
PCL_Layer
5
100D
10
191.795600
20
107.956900
30
0.000000
11
191.795600
21
94.396700
31
0.000000
62
7
0
LINE
100
AcDbEntity
100
AcDbLine
8
PCL_Layer
5
100E
10
191.795600
20
94.396700
30
0.000000
11
178.210300
21
94.396700
31
0.000000
62
7
0
LINE
100
AcDbEntity
100
AcDbLine
8
PCL_Layer
5
100F
10
178.210300
20
94.396700
30
0.000000
11
178.210300
21
107.956900
31
0.000000
62
7
0
LINE
100
AcDbEntity
100
AcDbLine
8
PCL_Layer
5
1010
10
125.795500
20
146.085900
30
0.000000
11
139.380800
21
146.085900
31
0.000000
62
7
0
LINE
100
AcDbEntity
100
AcDbLine
8
PCL_Layer
5
1011
10
139.380800
20
146.085900
30
0.000000
11
139.380800
21
132.500600
31
0.000000
62
7
0
LINE
100
AcDbEntity
100
AcDbLine
8
PCL_Layer
5
1012
10
139.380800
20
132.500600
30
0.000000
11
125.795500
21
132.500600
31
0.000000
62
7
0
LINE
100
AcDbEntity
100
AcDbLine
8
PCL_Layer
5
1013
10
125.795500
20
132.500600
30
0.000000
11
125.795500
21
146.085900
31
0.000000
62
7
0
LINE
100
AcDbEntity
100
AcDbLine
8
PCL_Layer
5
1014
10
187.742500
20
127.021400
30
0.000000
11
201.327800
21
127.021400
31
0.000000
62
7
0
LINE
100
AcDbEntity
100
AcDbLine
8
PCL_Layer
5
1015
10
201.327800
20
127.021400
30
0.000000
11
201.327800
21
113.461100
31
0.000000
62
7
0
LINE
100
AcDbEntity
100
AcDbLine
8
PCL_Layer
5
1016
10
201.327800
20
113.461100
30
0.000000
11
187.742500
21
113.461100
31
0.000000
62
7
0
LINE
100
AcDbEntity
100
AcDbLine
8
PCL_Layer
5
1017
10
187.742500
20
113.461100
30
0.000000
11
187.742500
21
127.021400
31
0.000000
62
7
0
LINE
100
AcDbEntity
100
AcDbLine
8
PCL_Layer
5
1018
10
378.387300
20
107.956900
30
0.000000
11
391.972600
21
107.956900
31
0.000000
62
7
0
LINE
100
AcDbEntity
100
AcDbLine
8
PCL_Layer
5
1019
10
391.972600
20
107.956900
30
0.000000
11
391.972600
21
94.396700
31
0.000000
62
7
0
LINE
100
AcDbEntity
100
AcDbLine
8
PCL_Layer
5
101A
10
391.972600
20
94.396700
30
0.000000
11
378.387300
21
94.396700
31
0.000000
62
7
0
LINE
100
AcDbEntity
100
AcDbLine
8
PCL_Layer
5
101B
10
378.387300
20
94.396700
30
0.000000
11
378.387300
21
107.956900
31
0.000000
62
7
0
LINE
100
AcDbEntity
100
AcDbLine
8
PCL_Layer
5
101C
10
309.284800
20
88.892500
30
0.000000
11
322.870100
21
88.892500
31
0.000000
62
7
0
LINE
100
AcDbEntity
100
AcDbLine
8
PCL_Layer
5
101D
10
322.870100
20
88.892500
30
0.000000
11
322.870100
21
75.307200
31
0.000000
62
7
0
LINE
100
AcDbEntity
100
AcDbLine
8
PCL_Layer
5
101E
10
322.870100
20
75.307200
30
0.000000
11
309.284800
21
75.307200
31
0.000000
62
7
0
LINE
100
AcDbEntity
100
AcDbLine
8
PCL_Layer
5
101F
10
309.284800
20
75.307200
30
0.000000
11
309.284800
21
88.892500
31
0.000000
62
7
0
LINE
100
AcDbEntity
100
AcDbLine
8
PCL_Layer
5
1020
10
97.674100
20
179.236100
30
0.000000
11
98.174500
21
179.236100
31
0.000000
62
7
0
LINE
100
AcDbEntity
100
AcDbLine
8
PCL_Layer
5
1021
10
98.174500
20
179.236100
30
0.000000
11
98.174500
21
177.034400
31
0.000000
62
7
0
LINE
100
AcDbEntity
100
AcDbLine
8
PCL_Layer
5
1022
10
98.174500
20
177.034400
30
0.000000
11
97.674100
21
177.034400
31
0.000000
62
7
0
LINE
100
AcDbEntity
100
AcDbLine
8
PCL_Layer
5
1023
10
97.674100
20
177.034400
30
0.000000
11
97.674100
21
179.236100
31
0.000000
62
7
0
LINE
100
AcDbEntity
100
AcDbLine
8
PCL_Layer
5
1024
10
98.174500
20
182.913800
30
0.000000
11
104.379200
21
182.913800
31
0.000000
62
7
0
LINE
100
AcDbEntity
100
AcDbLine
8
PCL_Layer
5
1025
10
104.379200
20
182.913800
30
0.000000
11
104.379200
21
167.852400
31
0.000000
62
7
0
LINE
100
AcDbEntity
100
AcDbLine
8
PCL_Layer
5
1026
10
104.379200
20
167.852400
30
0.000000
11
98.174500
21
167.852400
31
0.000000
62
7
0
LINE
100
AcDbEntity
100
AcDbLine
8
PCL_Layer
5
1027
10
98.174500
20
167.852400
30
0.000000
11
98.174500
21
182.913800
31
0.000000
62
7
0
LINE
100
AcDbEntity
100
AcDbLine
8
PCL_Layer
5
1028
10
104.379200
20
179.236100
30
0.000000
11
104.879600
21
179.236100
31
0.000000
62
7
0
LINE
100
AcDbEntity
100
AcDbLine
8
PCL_Layer
5
1029
10
104.879600
20
179.236100
30
0.000000
11
104.879600
21
177.034400
31
0.000000
62
7
0
LINE
100
AcDbEntity
100
AcDbLine
8
PCL_Layer
5
102A
10
104.879600
20
177.034400
30
0.000000
11
104.379200
21
177.034400
31
0.000000
62
7
0
LINE
100
AcDbEntity
100
AcDbLine
8
PCL_Layer
5
102B
10
104.379200
20
177.034400
30
0.000000
11
104.379200
21
179.236100
31
0.000000
62
7
0
LINE
100
AcDbEntity
100
AcDbLine
8
PCL_Layer
5
102C
10
106.731000
20
184.214800
30
0.000000
11
120.316300
21
184.214800
31
0.000000
62
7
0
LINE
100
AcDbEntity
100
AcDbLine
8
PCL_Layer
5
102D
10
120.316300
20
184.214800
30
0.000000
11
120.316300
21
170.654500
31
0.000000
62
7
0
LINE
100
AcDbEntity
100
AcDbLine
8
PCL_Layer
5
102E
10
120.316300
20
170.654500
30
0.000000
11
106.731000
21
170.654500
31
0.000000
62
7
0
LINE
100
AcDbEntity
100
AcDbLine
8
PCL_Layer
5
102F
10
106.731000
20
170.654500
30
0.000000
11
106.731000
21
184.214800
31
0.000000
62
7
0
LINE
100
AcDbEntity
100
AcDbLine
8
PCL_Layer
5
1030
10
122.167700
20
179.211000
30
0.000000
11
122.668100
21
179.211000
31
0.000000
62
7
0
LINE
100
AcDbEntity
100
AcDbLine
8
PCL_Layer
5
1031
10
122.668100
20
179.211000
30
0.000000
11
122.668100
21
177.009400
31
0.000000
62
7
0
LINE
100
AcDbEntity
100
AcDbLine
8
PCL_Layer
5
1032
10
122.668100
20
177.009400
30
0.000000
11
122.167700
21
177.009400
31
0.000000
62
7
0
LINE
100
AcDbEntity
100
AcDbLine
8
PCL_Layer
5
1033
10
122.167700
20
177.009400
30
0.000000
11
122.167700
21
179.211000
31
0.000000
62
7
0
LINE
100
AcDbEntity
100
AcDbLine
8
PCL_Layer
5
1034
10
122.668100
20
182.913800
30
0.000000
11
128.872800
21
182.913800
31
0.000000
62
7
0
LINE
100
AcDbEntity
100
AcDbLine
8
PCL_Layer
5
1035
10
128.872800
20
182.913800
30
0.000000
11
128.872800
21
167.852400
31
0.000000
62
7
0
LINE
100
AcDbEntity
100
AcDbLine
8
PCL_Layer
5
1036
10
128.872800
20
167.852400
30
0.000000
11
122.668100
21
167.852400
31
0.000000
62
7
0
LINE
100
AcDbEntity
100
AcDbLine
8
PCL_Layer
5
1037
10
122.668100
20
167.852400
30
0.000000
11
122.668100
21
182.913800
31
0.000000
62
7
0
LINE
100
AcDbEntity
100
AcDbLine
8
PCL_Layer
5
1038
10
128.872800
20
179.211000
30
0.000000
11
129.373200
21
179.211000
31
0.000000
62
7
0
LINE
100
AcDbEntity
100
AcDbLine
8
PCL_Layer
5
1039
10
129.373200
20
179.211000
30
0.000000
11
129.373200
21
177.009400
31
0.000000
62
7
0
LINE
100
AcDbEntity
100
AcDbLine
8
PCL_Layer
5
103A
10
129.373200
20
177.009400
30
0.000000
11
128.872800
21
177.009400
31
0.000000
62
7
0
LINE
100
AcDbEntity
100
AcDbLine
8
PCL_Layer
5
103B
10
128.872800
20
177.009400
30
0.000000
11
128.872800
21
179.211000
31
0.000000
62
7
0
LINE
100
AcDbEntity
100
AcDbLine
8
PCL_Layer
5
103C
10
116.263300
20
165.150400
30
0.000000
11
129.848600
21
165.150400
31
0.000000
62
7
0
LINE
100
AcDbEntity
100
AcDbLine
8
PCL_Layer
5
103D
10
129.848600
20
165.150400
30
0.000000
11
129.848600
21
151.590100
31
0.000000
62
7
0
LINE
100
AcDbEntity
100
AcDbLine
8
PCL_Layer
5
103E
10
129.848600
20
151.590100
30
0.000000
11
116.263300
21
151.590100
31
0.000000
62
7
0
LINE
100
AcDbEntity
100
AcDbLine
8
PCL_Layer
5
103F
10
116.263300
20
151.590100
30
0.000000
11
116.263300
21
165.150400
31
0.000000
62
7
0
LINE
100
AcDbEntity
100
AcDbLine
8
PCL_Layer
5
1040
10
397.451700
20
88.892500
30
0.000000
11
411.037000
21
88.892500
31
0.000000
62
7
0
LINE
100
AcDbEntity
100
AcDbLine
8
PCL_Layer
5
1041
10
411.037000
20
88.892500
30
0.000000
11
411.037000
21
75.307200
31
0.000000
62
7
0
LINE
100
AcDbEntity
100
AcDbLine
8
PCL_Layer
5
1042
10
411.037000
20
75.307200
30
0.000000
11
397.451700
21
75.307200
31
0.000000
62
7
0
LINE
100
AcDbEntity
100
AcDbLine
8
PCL_Layer
5
1043
10
397.451700
20
75.307200
30
0.000000
11
397.451700
21
88.892500
31
0.000000
62
7
0
LINE
100
AcDbEntity
100
AcDbLine
8
PCL_Layer
5
1044
10
402.705700
20
141.107100
30
0.000000
11
403.206100
21
141.107100
31
0.000000
62
7
0
LINE
100
AcDbEntity
100
AcDbLine
8
PCL_Layer
5
1045
10
403.206100
20
141.107100
30
0.000000
11
403.206100
21
138.905400
31
0.000000
62
7
0
LINE
100
AcDbEntity
100
AcDbLine
8
PCL_Layer
5
1046
10
403.206100
20
138.905400
30
0.000000
11
402.705700
21
138.905400
31
0.000000
62
7
0
LINE
100
AcDbEntity
100
AcDbLine
8
PCL_Layer
5
1047
10
402.705700
20
138.905400
30
0.000000
11
402.705700
21
141.107100
31
0.000000
62
7
0
LINE
100
AcDbEntity
100
AcDbLine
8
PCL_Layer
5
1048
10
403.206100
20
144.784900
30
0.000000
11
409.410800
21
144.784900
31
0.000000
62
7
0
LINE
100
AcDbEntity
100
AcDbLine
8
PCL_Layer
5
1049
10
409.410800
20
144.784900
30
0.000000
11
409.410800
21
129.698500
31
0.000000
62
7
0
LINE
100
AcDbEntity
100
AcDbLine
8
PCL_Layer
5
104A
10
409.410800
20
129.698500
30
0.000000
11
403.206100
21
129.698500
31
0.000000
62
7
0
LINE
100
AcDbEntity
100
AcDbLine
8
PCL_Layer
5
104B
10
403.206100
20
129.698500
30
0.000000
11
403.206100
21
144.784900
31
0.000000
62
7
0
LINE
100
AcDbEntity
100
AcDbLine
8
PCL_Layer
5
104C
10
409.410800
20
141.107100
30
0.000000
11
409.911200
21
141.107100
31
0.000000
62
7
0
LINE
100
AcDbEntity
100
AcDbLine
8
PCL_Layer
5
104D
10
409.911200
20
141.107100
30
0.000000
11
409.911200
21
138.905400
31
0.000000
62
7
0
LINE
100
AcDbEntity
100
AcDbLine
8
PCL_Layer
5
104E
10
409.911200
20
138.905400
30
0.000000
11
409.410800
21
138.905400
31
0.000000
62
7
0
LINE
100
AcDbEntity
100
AcDbLine
8
PCL_Layer
5
104F
10
409.410800
20
138.905400
30
0.000000
11
409.410800
21
141.107100
31
0.000000
62
7
0
LINE
100
AcDbEntity
100
AcDbLine
8
PCL_Layer
5
1050
10
411.762600
20
146.085900
30
0.000000
11
425.347900
21
146.085900
31
0.000000
62
7
0
LINE
100
AcDbEntity
100
AcDbLine
8
PCL_Layer
5
1051
10
425.347900
20
146.085900
30
0.000000
11
425.347900
21
132.500600
31
0.000000
62
7
0
LINE
100
AcDbEntity
100
AcDbLine
8
PCL_Layer
5
1052
10
425.347900
20
132.500600
30
0.000000
11
411.762600
21
132.500600
31
0.000000
62
7
0
LINE
100
AcDbEntity
100
AcDbLine
8
PCL_Layer
5
1053
10
411.762600
20
132.500600
30
0.000000
11
411.762600
21
146.085900
31
0.000000
62
7
0
LINE
100
AcDbEntity
100
AcDbLine
8
PCL_Layer
5
1054
10
427.199300
20
141.082100
30
0.000000
11
427.699700
21
141.082100
31
0.000000
62
7
0
LINE
100
AcDbEntity
100
AcDbLine
8
PCL_Layer
5
1055
10
427.699700
20
141.082100
30
0.000000
11
427.699700
21
138.880400
31
0.000000
62
7
0
LINE
100
AcDbEntity
100
AcDbLine
8
PCL_Layer
5
1056
10
427.699700
20
138.880400
30
0.000000
11
427.199300
21
138.880400
31
0.000000
62
7
0
LINE
100
AcDbEntity
100
AcDbLine
8
PCL_Layer
5
1057
10
427.199300
20
138.880400
30
0.000000
11
427.199300
21
141.082100
31
0.000000
62
7
0
LINE
100
AcDbEntity
100
AcDbLine
8
PCL_Layer
5
1058
10
427.699700
20
144.784900
30
0.000000
11
433.904400
21
144.784900
31
0.000000
62
7
0
LINE
100
AcDbEntity
100
AcDbLine
8
PCL_Layer
5
1059
10
433.904400
20
144.784900
30
0.000000
11
433.904400
21
129.698500
31
0.000000
62
7
0
LINE
100
AcDbEntity
100
AcDbLine
8
PCL_Layer
5
105A
10
433.904400
20
129.698500
30
0.000000
11
427.699700
21
129.698500
31
0.000000
62
7
0
LINE
100
AcDbEntity
100
AcDbLine
8
PCL_Layer
5
105B
10
427.699700
20
129.698500
30
0.000000
11
427.699700
21
144.784900
31
0.000000
62
7
0
LINE
100
AcDbEntity
100
AcDbLine
8
PCL_Layer
5
105C
10
433.904400
20
141.082100
30
0.000000
11
434.404800
21
141.082100
31
0.000000
62
7
0
LINE
100
AcDbEntity
100
AcDbLine
8
PCL_Layer
5
105D
10
434.404800
20
141.082100
30
0.000000
11
434.404800
21
138.880400
31
0.000000
62
7
0
LINE
100
AcDbEntity
100
AcDbLine
8
PCL_Layer
5
105E
10
434.404800
20
138.880400
30
0.000000
11
433.904400
21
138.880400
31
0.000000
62
7
0
LINE
100
AcDbEntity
100
AcDbLine
8
PCL_Layer
5
105F
10
433.904400
20
138.880400
30
0.000000
11
433.904400
21
141.082100
31
0.000000
62
7
0
LINE
100
AcDbEntity
100
AcDbLine
8
PCL_Layer
5
1060
10
337.881500
20
88.892500
30
0.000000
11
351.466800
21
88.892500
31
0.000000
62
7
0
LINE
100
AcDbEntity
100
AcDbLine
8
PCL_Layer
5
1061
10
351.466800
20
88.892500
30
0.000000
11
351.466800
21
75.307200
31
0.000000
62
7
0
LINE
100
AcDbEntity
100
AcDbLine
8
PCL_Layer
5
1062
10
351.466800
20
75.307200
30
0.000000
11
337.881500
21
75.307200
31
0.000000
62
7
0
LINE
100
AcDbEntity
100
AcDbLine
8
PCL_Layer
5
1063
10
337.881500
20
75.307200
30
0.000000
11
337.881500
21
88.892500
31
0.000000
62
7
0
LINE
100
AcDbEntity
100
AcDbLine
8
PCL_Layer
5
1064
10
20.940900
20
146.085900
30
0.000000
11
34.526200
21
146.085900
31
0.000000
62
7
0
LINE
100
AcDbEntity
100
AcDbLine
8
PCL_Layer
5
1065
10
34.526200
20
146.085900
30
0.000000
11
34.526200
21
132.500600
31
0.000000
62
7
0
LINE
100
AcDbEntity
100
AcDbLine
8
PCL_Layer
5
1066
10
34.526200
20
132.500600
30
0.000000
11
20.940900
21
132.500600
31
0.000000
62
7
0
LINE
100
AcDbEntity
100
AcDbLine
8
PCL_Layer
5
1067
10
20.940900
20
132.500600
30
0.000000
11
20.940900
21
146.085900
31
0.000000
62
7
0
LINE
100
AcDbEntity
100
AcDbLine
8
PCL_Layer
5
1068
10
426.048400
20
88.892500
30
0.000000
11
439.633800
21
88.892500
31
0.000000
62
7
0
LINE
100
AcDbEntity
100
AcDbLine
8
PCL_Layer
5
1069
10
439.633800
20
88.892500
30
0.000000
11
439.633800
21
75.307200
31
0.000000
62
7
0
LINE
100
AcDbEntity
100
AcDbLine
8
PCL_Layer
5
106A
10
439.633800
20
75.307200
30
0.000000
11
426.048400
21
75.307200
31
0.000000
62
7
0
LINE
100
AcDbEntity
100
AcDbLine
8
PCL_Layer
5
106B
10
426.048400
20
75.307200
30
0.000000
11
426.048400
21
88.892500
31
0.000000
62
7
0
LINE
100
AcDbEntity
100
AcDbLine
8
PCL_Layer
5
106C
10
73.355700
20
107.956900
30
0.000000
11
86.941000
21
107.956900
31
0.000000
62
7
0
LINE
100
AcDbEntity
100
AcDbLine
8
PCL_Layer
5
106D
10
86.941000
20
107.956900
30
0.000000
11
86.941000
21
94.396700
31
0.000000
62
7
0
LINE
100
AcDbEntity
100
AcDbLine
8
PCL_Layer
5
106E
10
86.941000
20
94.396700
30
0.000000
11
73.355700
21
94.396700
31
0.000000
62
7
0
LINE
100
AcDbEntity
100
AcDbLine
8
PCL_Layer
5
106F
10
73.355700
20
94.396700
30
0.000000
11
73.355700
21
107.956900
31
0.000000
62
7
0
LINE
100
AcDbEntity
100
AcDbLine
8
PCL_Layer
5
1070
10
287.843500
20
165.150400
30
0.000000
11
301.428800
21
165.150400
31
0.000000
62
7
0
LINE
100
AcDbEntity
100
AcDbLine
8
PCL_Layer
5
1071
10
301.428800
20
165.150400
30
0.000000
11
301.428800
21
151.590100
31
0.000000
62
7
0
LINE
100
AcDbEntity
100
AcDbLine
8
PCL_Layer
5
1072
10
301.428800
20
151.590100
30
0.000000
11
287.843500
21
151.590100
31
0.000000
62
7
0
LINE
100
AcDbEntity
100
AcDbLine
8
PCL_Layer
5
1073
10
287.843500
20
151.590100
30
0.000000
11
287.843500
21
165.150400
31
0.000000
62
7
0
LINE
100
AcDbEntity
100
AcDbLine
8
PCL_Layer
5
1074
10
40.005400
20
146.085900
30
0.000000
11
53.590700
21
146.085900
31
0.000000
62
7
0
LINE
100
AcDbEntity
100
AcDbLine
8
PCL_Layer
5
1075
10
53.590700
20
146.085900
30
0.000000
11
53.590700
21
132.500600
31
0.000000
62
7
0
LINE
100
AcDbEntity
100
AcDbLine
8
PCL_Layer
5
1076
10
53.590700
20
132.500600
30
0.000000
11
40.005400
21
132.500600
31
0.000000
62
7
0
LINE
100
AcDbEntity
100
AcDbLine
8
PCL_Layer
5
1077
10
40.005400
20
132.500600
30
0.000000
11
40.005400
21
146.085900
31
0.000000
62
7
0
LINE
100
AcDbEntity
100
AcDbLine
8
PCL_Layer
5
1078
10
278.311300
20
146.085900
30
0.000000
11
291.896600
21
146.085900
31
0.000000
62
7
0
LINE
100
AcDbEntity
100
AcDbLine
8
PCL_Layer
5
1079
10
291.896600
20
146.085900
30
0.000000
11
291.896600
21
132.500600
31
0.000000
62
7
0
LINE
100
AcDbEntity
100
AcDbLine
8
PCL_Layer
5
107A
10
291.896600
20
132.500600
30
0.000000
11
278.311300
21
132.500600
31
0.000000
62
7
0
LINE
100
AcDbEntity
100
AcDbLine
8
PCL_Layer
5
107B
10
278.311300
20
132.500600
30
0.000000
11
278.311300
21
146.085900
31
0.000000
62
7
0
LINE
100
AcDbEntity
100
AcDbLine
8
PCL_Layer
5
107C
10
259.246800
20
146.085900
30
0.000000
11
272.832100
21
146.085900
31
0.000000
62
7
0
LINE
100
AcDbEntity
100
AcDbLine
8
PCL_Layer
5
107D
10
272.832100
20
146.085900
30
0.000000
11
272.832100
21
132.500600
31
0.000000
62
7
0
LINE
100
AcDbEntity
100
AcDbLine
8
PCL_Layer
5
107E
10
272.832100
20
132.500600
30
0.000000
11
259.246800
21
132.500600
31
0.000000
62
7
0
LINE
100
AcDbEntity
100
AcDbLine
8
PCL_Layer
5
107F
10
259.246800
20
132.500600
30
0.000000
11
259.246800
21
146.085900
31
0.000000
62
7
0
LINE
100
AcDbEntity
100
AcDbLine
8
PCL_Layer
5
1080
10
197.825200
20
56.142600
30
0.000000
11
294.898900
21
56.142600
31
0.000000
62
7
0
LINE
100
AcDbEntity
100
AcDbLine
8
PCL_Layer
5
1081
10
294.898900
20
56.142600
30
0.000000
11
294.898900
21
16.112200
31
0.000000
62
7
0
LINE
100
AcDbEntity
100
AcDbLine
8
PCL_Layer
5
1082
10
294.898900
20
16.112200
30
0.000000
11
197.825200
21
16.112200
31
0.000000
62
7
0
LINE
100
AcDbEntity
100
AcDbLine
8
PCL_Layer
5
1083
10
197.825200
20
16.112200
30
0.000000
11
197.825200
21
56.142600
31
0.000000
62
7
0
LINE
100
AcDbEntity
100
AcDbLine
8
PCL_Layer
5
1084
10
44.759000
20
107.956900
30
0.000000
11
58.344300
21
107.956900
31
0.000000
62
7
0
LINE
100
AcDbEntity
100
AcDbLine
8
PCL_Layer
5
1085
10
58.344300
20
107.956900
30
0.000000
11
58.344300
21
94.396700
31
0.000000
62
7
0
LINE
100
AcDbEntity
100
AcDbLine
8
PCL_Layer
5
1086
10
58.344300
20
94.396700
30
0.000000
11
44.759000
21
94.396700
31
0.000000
62
7
0
LINE
100
AcDbEntity
100
AcDbLine
8
PCL_Layer
5
1087
10
44.759000
20
94.396700
30
0.000000
11
44.759000
21
107.956900
31
0.000000
62
7
0
LINE
100
AcDbEntity
100
AcDbLine
8
PCL_Layer
5
1088
10
59.545200
20
141.107100
30
0.000000
11
60.045600
21
141.107100
31
0.000000
62
7
0
LINE
100
AcDbEntity
100
AcDbLine
8
PCL_Layer
5
1089
10
60.045600
20
141.107100
30
0.000000
11
60.045600
21
138.905400
31
0.000000
62
7
0
LINE
100
AcDbEntity
100
AcDbLine
8
PCL_Layer
5
108A
10
60.045600
20
138.905400
30
0.000000
11
59.545200
21
138.905400
31
0.000000
62
7
0
LINE
100
AcDbEntity
100
AcDbLine
8
PCL_Layer
5
108B
10
59.545200
20
138.905400
30
0.000000
11
59.545200
21
141.107100
31
0.000000
62
7
0
LINE
100
AcDbEntity
100
AcDbLine
8
PCL_Layer
5
108C
10
60.045600
20
144.784900
30
0.000000
11
66.250300
21
144.784900
31
0.000000
62
7
0
LINE
100
AcDbEntity
100
AcDbLine
8
PCL_Layer
5
108D
10
66.250300
20
144.784900
30
0.000000
11
66.250300
21
129.698500
31
0.000000
62
7
0
LINE
100
AcDbEntity
100
AcDbLine
8
PCL_Layer
5
108E
10
66.250300
20
129.698500
30
0.000000
11
60.045600
21
129.698500
31
0.000000
62
7
0
LINE
100
AcDbEntity
100
AcDbLine
8
PCL_Layer
5
108F
10
60.045600
20
129.698500
30
0.000000
11
60.045600
21
144.784900
31
0.000000
62
7
0
LINE
100
AcDbEntity
100
AcDbLine
8
PCL_Layer
5
1090
10
66.250300
20
141.107100
30
0.000000
11
66.750700
21
141.107100
31
0.000000
62
7
0
LINE
100
AcDbEntity
100
AcDbLine
8
PCL_Layer
5
1091
10
66.750700
20
141.107100
30
0.000000
11
66.750700
21
138.905400
31
0.000000
62
7
0
LINE
100
AcDbEntity
100
AcDbLine
8
PCL_Layer
5
1092
10
66.750700
20
138.905400
30
0.000000
11
66.250300
21
138.905400
31
0.000000
62
7
0
LINE
100
AcDbEntity
100
AcDbLine
8
PCL_Layer
5
1093
10
66.250300
20
138.905400
30
0.000000
11
66.250300
21
141.107100
31
0.000000
62
7
0
LINE
100
AcDbEntity
100
AcDbLine
8
PCL_Layer
5
1094
10
68.602100
20
146.085900
30
0.000000
11
82.187400
21
146.085900
31
0.000000
62
7
0
LINE
100
AcDbEntity
100
AcDbLine
8
PCL_Layer
5
1095
10
82.187400
20
146.085900
30
0.000000
11
82.187400
21
132.500600
31
0.000000
62
7
0
LINE
100
AcDbEntity
100
AcDbLine
8
PCL_Layer
5
1096
10
82.187400
20
132.500600
30
0.000000
11
68.602100
21
132.500600
31
0.000000
62
7
0
LINE
100
AcDbEntity
100
AcDbLine
8
PCL_Layer
5
1097
10
68.602100
20
132.500600
30
0.000000
11
68.602100
21
146.085900
31
0.000000
62
7
0
LINE
100
AcDbEntity
100
AcDbLine
8
PCL_Layer
5
1098
10
84.038800
20
141.082100
30
0.000000
11
84.539200
21
141.082100
31
0.000000
62
7
0
LINE
100
AcDbEntity
100
AcDbLine
8
PCL_Layer
5
1099
10
84.539200
20
141.082100
30
0.000000
11
84.539200
21
138.880400
31
0.000000
62
7
0
LINE
100
AcDbEntity
100
AcDbLine
8
PCL_Layer
5
109A
10
84.539200
20
138.880400
30
0.000000
11
84.038800
21
138.880400
31
0.000000
62
7
0
LINE
100
AcDbEntity
100
AcDbLine
8
PCL_Layer
5
109B
10
84.038800
20
138.880400
30
0.000000
11
84.038800
21
141.082100
31
0.000000
62
7
0
LINE
100
AcDbEntity
100
AcDbLine
8
PCL_Layer
5
109C
10
84.539200
20
144.784900
30
0.000000
11
90.743900
21
144.784900
31
0.000000
62
7
0
LINE
100
AcDbEntity
100
AcDbLine
8
PCL_Layer
5
109D
10
90.743900
20
144.784900
30
0.000000
11
90.743900
21
129.698500
31
0.000000
62
7
0
LINE
100
AcDbEntity
100
AcDbLine
8
PCL_Layer
5
109E
10
90.743900
20
129.698500
30
0.000000
11
84.539200
21
129.698500
31
0.000000
62
7
0
LINE
100
AcDbEntity
100
AcDbLine
8
PCL_Layer
5
109F
10
84.539200
20
129.698500
30
0.000000
11
84.539200
21
144.784900
31
0.000000
62
7
0
LINE
100
AcDbEntity
100
AcDbLine
8
PCL_Layer
5
10A0
10
90.743900
20
141.082100
30
0.000000
11
91.244300
21
141.082100
31
0.000000
62
7
0
LINE
100
AcDbEntity
100
AcDbLine
8
PCL_Layer
5
10A1
10
91.244300
20
141.082100
30
0.000000
11
91.244300
21
138.880400
31
0.000000
62
7
0
LINE
100
AcDbEntity
100
AcDbLine
8
PCL_Layer
5
10A2
10
91.244300
20
138.880400
30
0.000000
11
90.743900
21
138.880400
31
0.000000
62
7
0
LINE
100
AcDbEntity
100
AcDbLine
8
PCL_Layer
5
10A3
10
90.743900
20
138.880400
30
0.000000
11
90.743900
21
141.082100
31
0.000000
62
7
0
LINE
100
AcDbEntity
100
AcDbLine
8
PCL_Layer
5
10A4
10
459.423800
20
146.085900
30
0.000000
11
473.009100
21
146.085900
31
0.000000
62
7
0
LINE
100
AcDbEntity
100
AcDbLine
8
PCL_Layer
5
10A5
10
473.009100
20
146.085900
30
0.000000
11
473.009100
21
132.500600
31
0.000000
62
7
0
LINE
100
AcDbEntity
100
AcDbLine
8
PCL_Layer
5
10A6
10
473.009100
20
132.500600
30
0.000000
11
459.423800
21
132.500600
31
0.000000
62
7
0
LINE
100
AcDbEntity
100
AcDbLine
8
PCL_Layer
5
10A7
10
459.423800
20
132.500600
30
0.000000
11
459.423800
21
146.085900
31
0.000000
62
7
0
LINE
100
AcDbEntity
100
AcDbLine
8
PCL_Layer
5
10A8
10
459.423800
20
165.150400
30
0.000000
11
473.009100
21
165.150400
31
0.000000
62
7
0
LINE
100
AcDbEntity
100
AcDbLine
8
PCL_Layer
5
10A9
10
473.009100
20
165.150400
30
0.000000
11
473.009100
21
151.590100
31
0.000000
62
7
0
LINE
100
AcDbEntity
100
AcDbLine
8
PCL_Layer
5
10AA
10
473.009100
20
151.590100
30
0.000000
11
459.423800
21
151.590100
31
0.000000
62
7
0
LINE
100
AcDbEntity
100
AcDbLine
8
PCL_Layer
5
10AB
10
459.423800
20
151.590100
30
0.000000
11
459.423800
21
165.150400
31
0.000000
62
7
0
LINE
100
AcDbEntity
100
AcDbLine
8
PCL_Layer
5
10AC
10
197.274800
20
107.956900
30
0.000000
11
210.860100
21
107.956900
31
0.000000
62
7
0
LINE
100
AcDbEntity
100
AcDbLine
8
PCL_Layer
5
10AD
10
210.860100
20
107.956900
30
0.000000
11
210.860100
21
94.396700
31
0.000000
62
7
0
LINE
100
AcDbEntity
100
AcDbLine
8
PCL_Layer
5
10AE
10
210.860100
20
94.396700
30
0.000000
11
197.274800
21
94.396700
31
0.000000
62
7
0
LINE
100
AcDbEntity
100
AcDbLine
8
PCL_Layer
5
10AF
10
197.274800
20
94.396700
30
0.000000
11
197.274800
21
107.956900
31
0.000000
62
7
0
LINE
100
AcDbEntity
100
AcDbLine
8
PCL_Layer
5
10B0
10
402.705700
20
160.171600
30
0.000000
11
403.206100
21
160.171600
31
0.000000
62
7
0
LINE
100
AcDbEntity
100
AcDbLine
8
PCL_Layer
5
10B1
10
403.206100
20
160.171600
30
0.000000
11
403.206100
21
157.969900
31
0.000000
62
7
0
LINE
100
AcDbEntity
100
AcDbLine
8
PCL_Layer
5
10B2
10
403.206100
20
157.969900
30
0.000000
11
402.705700
21
157.969900
31
0.000000
62
7
0
LINE
100
AcDbEntity
100
AcDbLine
8
PCL_Layer
5
10B3
10
402.705700
20
157.969900
30
0.000000
11
402.705700
21
160.171600
31
0.000000
62
7
0
LINE
100
AcDbEntity
100
AcDbLine
8
PCL_Layer
5
10B4
10
403.206100
20
163.849400
30
0.000000
11
409.410800
21
163.849400
31
0.000000
62
7
0
LINE
100
AcDbEntity
100
AcDbLine
8
PCL_Layer
5
10B5
10
409.410800
20
163.849400
30
0.000000
11
409.410800
21
148.787900
31
0.000000
62
7
0
LINE
100
AcDbEntity
100
AcDbLine
8
PCL_Layer
5
10B6
10
409.410800
20
148.787900
30
0.000000
11
403.206100
21
148.787900
31
0.000000
62
7
0
LINE
100
AcDbEntity
100
AcDbLine
8
PCL_Layer
5
10B7
10
403.206100
20
148.787900
30
0.000000
11
403.206100
21
163.849400
31
0.000000
62
7
0
LINE
100
AcDbEntity
100
AcDbLine
8
PCL_Layer
5
10B8
10
409.410800
20
160.171600
30
0.000000
11
409.911200
21
160.171600
31
0.000000
62
7
0
LINE
100
AcDbEntity
100
AcDbLine
8
PCL_Layer
5
10B9
10
409.911200
20
160.171600
30
0.000000
11
409.911200
21
157.969900
31
0.000000
62
7
0
LINE
100
AcDbEntity
100
AcDbLine
8
PCL_Layer
5
10BA
10
409.911200
20
157.969900
30
0.000000
11
409.410800
21
157.969900
31
0.000000
62
7
0
LINE
100
AcDbEntity
100
AcDbLine
8
PCL_Layer
5
10BB
10
409.410800
20
157.969900
30
0.000000
11
409.410800
21
160.171600
31
0.000000
62
7
0
LINE
100
AcDbEntity
100
AcDbLine
8
PCL_Layer
5
10BC
10
411.762600
20
165.150400
30
0.000000
11
425.347900
21
165.150400
31
0.000000
62
7
0
LINE
100
AcDbEntity
100
AcDbLine
8
PCL_Layer
5
10BD
10
425.347900
20
165.150400
30
0.000000
11
425.347900
21
151.590100
31
0.000000
62
7
0
LINE
100
AcDbEntity
100
AcDbLine
8
PCL_Layer
5
10BE
10
425.347900
20
151.590100
30
0.000000
11
411.762600
21
151.590100
31
0.000000
62
7
0
LINE
100
AcDbEntity
100
AcDbLine
8
PCL_Layer
5
10BF
10
411.762600
20
151.590100
30
0.000000
11
411.762600
21
165.150400
31
0.000000
62
7
0
LINE
100
AcDbEntity
100
AcDbLine
8
PCL_Layer
5
10C0
10
427.199300
20
160.146600
30
0.000000
11
427.699700
21
160.146600
31
0.000000
62
7
0
LINE
100
AcDbEntity
100
AcDbLine
8
PCL_Layer
5
10C1
10
427.699700
20
160.146600
30
0.000000
11
427.699700
21
157.944900
31
0.000000
62
7
0
LINE
100
AcDbEntity
100
AcDbLine
8
PCL_Layer
5
10C2
10
427.699700
20
157.944900
30
0.000000
11
427.199300
21
157.944900
31
0.000000
62
7
0
LINE
100
AcDbEntity
100
AcDbLine
8
PCL_Layer
5
10C3
10
427.199300
20
157.944900
30
0.000000
11
427.199300
21
160.146600
31
0.000000
62
7
0
LINE
100
AcDbEntity
100
AcDbLine
8
PCL_Layer
5
10C4
10
427.699700
20
163.849400
30
0.000000
11
433.904400
21
163.849400
31
0.000000
62
7
0
LINE
100
AcDbEntity
100
AcDbLine
8
PCL_Layer
5
10C5
10
433.904400
20
163.849400
30
0.000000
11
433.904400
21
148.787900
31
0.000000
62
7
0
LINE
100
AcDbEntity
100
AcDbLine
8
PCL_Layer
5
10C6
10
433.904400
20
148.787900
30
0.000000
11
427.699700
21
148.787900
31
0.000000
62
7
0
LINE
100
AcDbEntity
100
AcDbLine
8
PCL_Layer
5
10C7
10
427.699700
20
148.787900
30
0.000000
11
427.699700
21
163.849400
31
0.000000
62
7
0
LINE
100
AcDbEntity
100
AcDbLine
8
PCL_Layer
5
10C8
10
433.904400
20
160.146600
30
0.000000
11
434.404800
21
160.146600
31
0.000000
62
7
0
LINE
100
AcDbEntity
100
AcDbLine
8
PCL_Layer
5
10C9
10
434.404800
20
160.146600
30
0.000000
11
434.404800
21
157.944900
31
0.000000
62
7
0
LINE
100
AcDbEntity
100
AcDbLine
8
PCL_Layer
5
10CA
10
434.404800
20
157.944900
30
0.000000
11
433.904400
21
157.944900
31
0.000000
62
7
0
LINE
100
AcDbEntity
100
AcDbLine
8
PCL_Layer
5
10CB
10
433.904400
20
157.944900
30
0.000000
11
433.904400
21
160.146600
31
0.000000
62
7
0
LINE
100
AcDbEntity
100
AcDbLine
8
PCL_Layer
5
10CC
10
230.650100
20
165.150400
30
0.000000
11
244.235400
21
165.150400
31
0.000000
62
7
0
LINE
100
AcDbEntity
100
AcDbLine
8
PCL_Layer
5
10CD
10
244.235400
20
165.150400
30
0.000000
11
244.235400
21
151.590100
31
0.000000
62
7
0
LINE
100
AcDbEntity
100
AcDbLine
8
PCL_Layer
5
10CE
10
244.235400
20
151.590100
30
0.000000
11
230.650100
21
151.590100
31
0.000000
62
7
0
LINE
100
AcDbEntity
100
AcDbLine
8
PCL_Layer
5
10CF
10
230.650100
20
151.590100
30
0.000000
11
230.650100
21
165.150400
31
0.000000
62
7
0
LINE
100
AcDbEntity
100
AcDbLine
8
PCL_Layer
5
10D0
10
311.661600
20
107.956900
30
0.000000
11
325.246900
21
107.956900
31
0.000000
62
7
0
LINE
100
AcDbEntity
100
AcDbLine
8
PCL_Layer
5
10D1
10
325.246900
20
107.956900
30
0.000000
11
325.246900
21
94.396700
31
0.000000
62
7
0
LINE
100
AcDbEntity
100
AcDbLine
8
PCL_Layer
5
10D2
10
325.246900
20
94.396700
30
0.000000
11
311.661600
21
94.396700
31
0.000000
62
7
0
LINE
100
AcDbEntity
100
AcDbLine
8
PCL_Layer
5
10D3
10
311.661600
20
94.396700
30
0.000000
11
311.661600
21
107.956900
31
0.000000
62
7
0
LINE
100
AcDbEntity
100
AcDbLine
8
PCL_Layer
5
10D4
10
104.354200
20
127.021400
30
0.000000
11
117.914500
21
127.021400
31
0.000000
62
7
0
LINE
100
AcDbEntity
100
AcDbLine
8
PCL_Layer
5
10D5
10
117.914500
20
127.021400
30
0.000000
11
117.914500
21
113.461100
31
0.000000
62
7
0
LINE
100
AcDbEntity
100
AcDbLine
8
PCL_Layer
5
10D6
10
117.914500
20
113.461100
30
0.000000
11
104.354200
21
113.461100
31
0.000000
62
7
0
LINE
100
AcDbEntity
100
AcDbLine
8
PCL_Layer
5
10D7
10
104.354200
20
113.461100
30
0.000000
11
104.354200
21
127.021400
31
0.000000
62
7
0
LINE
100
AcDbEntity
100
AcDbLine
8
PCL_Layer
5
10D8
10
97.198800
20
107.956900
30
0.000000
11
110.784100
21
107.956900
31
0.000000
62
7
0
LINE
100
AcDbEntity
100
AcDbLine
8
PCL_Layer
5
10D9
10
110.784100
20
107.956900
30
0.000000
11
110.784100
21
94.396700
31
0.000000
62
7
0
LINE
100
AcDbEntity
100
AcDbLine
8
PCL_Layer
5
10DA
10
110.784100
20
94.396700
30
0.000000
11
97.198800
21
94.396700
31
0.000000
62
7
0
LINE
100
AcDbEntity
100
AcDbLine
8
PCL_Layer
5
10DB
10
97.198800
20
94.396700
30
0.000000
11
97.198800
21
107.956900
31
0.000000
62
7
0
LINE
100
AcDbEntity
100
AcDbLine
8
PCL_Layer
5
10DC
10
120.991800
20
107.956900
30
0.000000
11
134.577200
21
107.956900
31
0.000000
62
7
0
LINE
100
AcDbEntity
100
AcDbLine
8
PCL_Layer
5
10DD
10
134.577200
20
107.956900
30
0.000000
11
134.577200
21
94.396700
31
0.000000
62
7
0
LINE
100
AcDbEntity
100
AcDbLine
8
PCL_Layer
5
10DE
10
134.577200
20
94.396700
30
0.000000
11
120.991800
21
94.396700
31
0.000000
62
7
0
LINE
100
AcDbEntity
100
AcDbLine
8
PCL_Layer
5
10DF
10
120.991800
20
94.396700
30
0.000000
11
120.991800
21
107.956900
31
0.000000
62
7
0
LINE
100
AcDbEntity
100
AcDbLine
8
PCL_Layer
5
10E0
10
340.733700
20
122.042600
30
0.000000
11
341.234000
21
122.042600
31
0.000000
62
7
0
LINE
100
AcDbEntity
100
AcDbLine
8
PCL_Layer
5
10E1
10
341.234000
20
122.042600
30
0.000000
11
341.234000
21
119.841000
31
0.000000
62
7
0
LINE
100
AcDbEntity
100
AcDbLine
8
PCL_Layer
5
10E2
10
341.234000
20
119.841000
30
0.000000
11
340.733700
21
119.841000
31
0.000000
62
7
0
LINE
100
AcDbEntity
100
AcDbLine
8
PCL_Layer
5
10E3
10
340.733700
20
119.841000
30
0.000000
11
340.733700
21
122.042600
31
0.000000
62
7
0
LINE
100
AcDbEntity
100
AcDbLine
8
PCL_Layer
5
10E4
10
341.234000
20
125.720400
30
0.000000
11
347.438700
21
125.720400
31
0.000000
62
7
0
LINE
100
AcDbEntity
100
AcDbLine
8
PCL_Layer
5
10E5
10
347.438700
20
125.720400
30
0.000000
11
347.438700
21
110.659000
31
0.000000
62
7
0
LINE
100
AcDbEntity
100
AcDbLine
8
PCL_Layer
5
10E6
10
347.438700
20
110.659000
30
0.000000
11
341.234000
21
110.659000
31
0.000000
62
7
0
LINE
100
AcDbEntity
100
AcDbLine
8
PCL_Layer
5
10E7
10
341.234000
20
110.659000
30
0.000000
11
341.234000
21
125.720400
31
0.000000
62
7
0
LINE
100
AcDbEntity
100
AcDbLine
8
PCL_Layer
5
10E8
10
347.438700
20
122.042600
30
0.000000
11
347.939100
21
122.042600
31
0.000000
62
7
0
LINE
100
AcDbEntity
100
AcDbLine
8
PCL_Layer
5
10E9
10
347.939100
20
122.042600
30
0.000000
11
347.939100
21
119.841000
31
0.000000
62
7
0
LINE
100
AcDbEntity
100
AcDbLine
8
PCL_Layer
5
10EA
10
347.939100
20
119.841000
30
0.000000
11
347.438700
21
119.841000
31
0.000000
62
7
0
LINE
100
AcDbEntity
100
AcDbLine
8
PCL_Layer
5
10EB
10
347.438700
20
119.841000
30
0.000000
11
347.438700
21
122.042600
31
0.000000
62
7
0
LINE
100
AcDbEntity
100
AcDbLine
8
PCL_Layer
5
10EC
10
349.790600
20
127.021400
30
0.000000
11
363.375900
21
127.021400
31
0.000000
62
7
0
LINE
100
AcDbEntity
100
AcDbLine
8
PCL_Layer
5
10ED
10
363.375900
20
127.021400
30
0.000000
11
363.375900
21
113.461100
31
0.000000
62
7
0
LINE
100
AcDbEntity
100
AcDbLine
8
PCL_Layer
5
10EE
10
363.375900
20
113.461100
30
0.000000
11
349.790600
21
113.461100
31
0.000000
62
7
0
LINE
100
AcDbEntity
100
AcDbLine
8
PCL_Layer
5
10EF
10
349.790600
20
113.461100
30
0.000000
11
349.790600
21
127.021400
31
0.000000
62
7
0
LINE
100
AcDbEntity
100
AcDbLine
8
PCL_Layer
5
10F0
10
365.227300
20
122.017600
30
0.000000
11
365.727600
21
122.017600
31
0.000000
62
7
0
LINE
100
AcDbEntity
100
AcDbLine
8
PCL_Layer
5
10F1
10
365.727600
20
122.017600
30
0.000000
11
365.727600
21
119.816000
31
0.000000
62
7
0
LINE
100
AcDbEntity
100
AcDbLine
8
PCL_Layer
5
10F2
10
365.727600
20
119.816000
30
0.000000
11
365.227300
21
119.816000
31
0.000000
62
7
0
LINE
100
AcDbEntity
100
AcDbLine
8
PCL_Layer
5
10F3
10
365.227300
20
119.816000
30
0.000000
11
365.227300
21
122.017600
31
0.000000
62
7
0
LINE
100
AcDbEntity
100
AcDbLine
8
PCL_Layer
5
10F4
10
365.727600
20
125.720400
30
0.000000
11
371.932300
21
125.720400
31
0.000000
62
7
0
LINE
100
AcDbEntity
100
AcDbLine
8
PCL_Layer
5
10F5
10
371.932300
20
125.720400
30
0.000000
11
371.932300
21
110.659000
31
0.000000
62
7
0
LINE
100
AcDbEntity
100
AcDbLine
8
PCL_Layer
5
10F6
10
371.932300
20
110.659000
30
0.000000
11
365.727600
21
110.659000
31
0.000000
62
7
0
LINE
100
AcDbEntity
100
AcDbLine
8
PCL_Layer
5
10F7
10
365.727600
20
110.659000
30
0.000000
11
365.727600
21
125.720400
31
0.000000
62
7
0
LINE
100
AcDbEntity
100
AcDbLine
8
PCL_Layer
5
10F8
10
371.932300
20
122.017600
30
0.000000
11
372.432700
21
122.017600
31
0.000000
62
7
0
LINE
100
AcDbEntity
100
AcDbLine
8
PCL_Layer
5
10F9
10
372.432700
20
122.017600
30
0.000000
11
372.432700
21
119.816000
31
0.000000
62
7
0
LINE
100
AcDbEntity
100
AcDbLine
8
PCL_Layer
5
10FA
10
372.432700
20
119.816000
30
0.000000
11
371.932300
21
119.816000
31
0.000000
62
7
0
LINE
100
AcDbEntity
100
AcDbLine
8
PCL_Layer
5
10FB
10
371.932300
20
119.816000
30
0.000000
11
371.932300
21
122.017600
31
0.000000
62
7
0
LINE
100
AcDbEntity
100
AcDbLine
8
PCL_Layer
5
10FC
10
250.189900
20
179.236100
30
0.000000
11
250.690300
21
179.236100
31
0.000000
62
7
0
LINE
100
AcDbEntity
100
AcDbLine
8
PCL_Layer
5
10FD
10
250.690300
20
179.236100
30
0.000000
11
250.690300
21
177.034400
31
0.000000
62
7
0
LINE
100
AcDbEntity
100
AcDbLine
8
PCL_Layer
5
10FE
10
250.690300
20
177.034400
30
0.000000
11
250.189900
21
177.034400
31
0.000000
62
7
0
LINE
100
AcDbEntity
100
AcDbLine
8
PCL_Layer
5
10FF
10
250.189900
20
177.034400
30
0.000000
11
250.189900
21
179.236100
31
0.000000
62
7
0
LINE
100
AcDbEntity
100
AcDbLine
8
PCL_Layer
5
1100
10
250.690300
20
182.913800
30
0.000000
11
256.895000
21
182.913800
31
0.000000
62
7
0
LINE
100
AcDbEntity
100
AcDbLine
8
PCL_Layer
5
1101
10
256.895000
20
182.913800
30
0.000000
11
256.895000
21
167.852400
31
0.000000
62
7
0
LINE
100
AcDbEntity
100
AcDbLine
8
PCL_Layer
5
1102
10
256.895000
20
167.852400
30
0.000000
11
250.690300
21
167.852400
31
0.000000
62
7
0
LINE
100
AcDbEntity
100
AcDbLine
8
PCL_Layer
5
1103
10
250.690300
20
167.852400
30
0.000000
11
250.690300
21
182.913800
31
0.000000
62
7
0
LINE
100
AcDbEntity
100
AcDbLine
8
PCL_Layer
5
1104
10
256.895000
20
179.236100
30
0.000000
11
257.395400
21
179.236100
31
0.000000
62
7
0
LINE
100
AcDbEntity
100
AcDbLine
8
PCL_Layer
5
1105
10
257.395400
20
179.236100
30
0.000000
11
257.395400
21
177.034400
31
0.000000
62
7
0
LINE
100
AcDbEntity
100
AcDbLine
8
PCL_Layer
5
1106
10
257.395400
20
177.034400
30
0.000000
11
256.895000
21
177.034400
31
0.000000
62
7
0
LINE
100
AcDbEntity
100
AcDbLine
8
PCL_Layer
5
1107
10
256.895000
20
177.034400
30
0.000000
11
256.895000
21
179.236100
31
0.000000
62
7
0
LINE
100
AcDbEntity
100
AcDbLine
8
PCL_Layer
5
1108
10
259.246800
20
184.214800
30
0.000000
11
272.832100
21
184.214800
31
0.000000
62
7
0
LINE
100
AcDbEntity
100
AcDbLine
8
PCL_Layer
5
1109
10
272.832100
20
184.214800
30
0.000000
11
272.832100
21
170.654500
31
0.000000
62
7
0
LINE
100
AcDbEntity
100
AcDbLine
8
PCL_Layer
5
110A
10
272.832100
20
170.654500
30
0.000000
11
259.246800
21
170.654500
31
0.000000
62
7
0
LINE
100
AcDbEntity
100
AcDbLine
8
PCL_Layer
5
110B
10
259.246800
20
170.654500
30
0.000000
11
259.246800
21
184.214800
31
0.000000
62
7
0
LINE
100
AcDbEntity
100
AcDbLine
8
PCL_Layer
5
110C
10
274.683500
20
179.211000
30
0.000000
11
275.183900
21
179.211000
31
0.000000
62
7
0
LINE
100
AcDbEntity
100
AcDbLine
8
PCL_Layer
5
110D
10
275.183900
20
179.211000
30
0.000000
11
275.183900
21
177.009400
31
0.000000
62
7
0
LINE
100
AcDbEntity
100
AcDbLine
8
PCL_Layer
5
110E
10
275.183900
20
177.009400
30
0.000000
11
274.683500
21
177.009400
31
0.000000
62
7
0
LINE
100
AcDbEntity
100
AcDbLine
8
PCL_Layer
5
110F
10
274.683500
20
177.009400
30
0.000000
11
274.683500
21
179.211000
31
0.000000
62
7
0
LINE
100
AcDbEntity
100
AcDbLine
8
PCL_Layer
5
1110
10
275.183900
20
182.913800
30
0.000000
11
281.388600
21
182.913800
31
0.000000
62
7
0
LINE
100
AcDbEntity
100
AcDbLine
8
PCL_Layer
5
1111
10
281.388600
20
182.913800
30
0.000000
11
281.388600
21
167.852400
31
0.000000
62
7
0
LINE
100
AcDbEntity
100
AcDbLine
8
PCL_Layer
5
1112
10
281.388600
20
167.852400
30
0.000000
11
275.183900
21
167.852400
31
0.000000
62
7
0
LINE
100
AcDbEntity
100
AcDbLine
8
PCL_Layer
5
1113
10
275.183900
20
167.852400
30
0.000000
11
275.183900
21
182.913800
31
0.000000
62
7
0
LINE
100
AcDbEntity
100
AcDbLine
8
PCL_Layer
5
1114
10
281.388600
20
179.211000
30
0.000000
11
281.889000
21
179.211000
31
0.000000
62
7
0
LINE
100
AcDbEntity
100
AcDbLine
8
PCL_Layer
5
1115
10
281.889000
20
179.211000
30
0.000000
11
281.889000
21
177.009400
31
0.000000
62
7
0
LINE
100
AcDbEntity
100
AcDbLine
8
PCL_Layer
5
1116
10
281.889000
20
177.009400
30
0.000000
11
281.388600
21
177.009400
31
0.000000
62
7
0
LINE
100
AcDbEntity
100
AcDbLine
8
PCL_Layer
5
1117
10
281.388600
20
177.009400
30
0.000000
11
281.388600
21
179.211000
31
0.000000
62
7
0
LINE
100
AcDbEntity
100
AcDbLine
8
PCL_Layer
5
1118
10
302.129400
20
127.021400
30
0.000000
11
315.714700
21
127.021400
31
0.000000
62
7
0
LINE
100
AcDbEntity
100
AcDbLine
8
PCL_Layer
5
1119
10
315.714700
20
127.021400
30
0.000000
11
315.714700
21
113.461100
31
0.000000
62
7
0
LINE
100
AcDbEntity
100
AcDbLine
8
PCL_Layer
5
111A
10
315.714700
20
113.461100
30
0.000000
11
302.129400
21
113.461100
31
0.000000
62
7
0
LINE
100
AcDbEntity
100
AcDbLine
8
PCL_Layer
5
111B
10
302.129400
20
113.461100
30
0.000000
11
302.129400
21
127.021400
31
0.000000
62
7
0
LINE
100
AcDbEntity
100
AcDbLine
8
PCL_Layer
5
111C
10
154.392200
20
165.150400
30
0.000000
11
167.977500
21
165.150400
31
0.000000
62
7
0
LINE
100
AcDbEntity
100
AcDbLine
8
PCL_Layer
5
111D
10
167.977500
20
165.150400
30
0.000000
11
167.977500
21
151.590100
31
0.000000
62
7
0
LINE
100
AcDbEntity
100
AcDbLine
8
PCL_Layer
5
111E
10
167.977500
20
151.590100
30
0.000000
11
154.392200
21
151.590100
31
0.000000
62
7
0
LINE
100
AcDbEntity
100
AcDbLine
8
PCL_Layer
5
111F
10
154.392200
20
151.590100
30
0.000000
11
154.392200
21
165.150400
31
0.000000
62
7
0
LINE
100
AcDbEntity
100
AcDbLine
8
PCL_Layer
5
1120
10
364.576800
20
179.236100
30
0.000000
11
365.077100
21
179.236100
31
0.000000
62
7
0
LINE
100
AcDbEntity
100
AcDbLine
8
PCL_Layer
5
1121
10
365.077100
20
179.236100
30
0.000000
11
365.077100
21
177.034400
31
0.000000
62
7
0
LINE
100
AcDbEntity
100
AcDbLine
8
PCL_Layer
5
1122
10
365.077100
20
177.034400
30
0.000000
11
364.576800
21
177.034400
31
0.000000
62
7
0
LINE
100
AcDbEntity
100
AcDbLine
8
PCL_Layer
5
1123
10
364.576800
20
177.034400
30
0.000000
11
364.576800
21
179.236100
31
0.000000
62
7
0
LINE
100
AcDbEntity
100
AcDbLine
8
PCL_Layer
5
1124
10
365.077100
20
182.913800
30
0.000000
11
371.281800
21
182.913800
31
0.000000
62
7
0
LINE
100
AcDbEntity
100
AcDbLine
8
PCL_Layer
5
1125
10
371.281800
20
182.913800
30
0.000000
11
371.281800
21
167.852400
31
0.000000
62
7
0
LINE
100
AcDbEntity
100
AcDbLine
8
PCL_Layer
5
1126
10
371.281800
20
167.852400
30
0.000000
11
365.077100
21
167.852400
31
0.000000
62
7
0
LINE
100
AcDbEntity
100
AcDbLine
8
PCL_Layer
5
1127
10
365.077100
20
167.852400
30
0.000000
11
365.077100
21
182.913800
31
0.000000
62
7
0
LINE
100
AcDbEntity
100
AcDbLine
8
PCL_Layer
5
1128
10
371.281800
20
179.236100
30
0.000000
11
371.782200
21
179.236100
31
0.000000
62
7
0
LINE
100
AcDbEntity
100
AcDbLine
8
PCL_Layer
5
1129
10
371.782200
20
179.236100
30
0.000000
11
371.782200
21
177.034400
31
0.000000
62
7
0
LINE
100
AcDbEntity
100
AcDbLine
8
PCL_Layer
5
112A
10
371.782200
20
177.034400
30
0.000000
11
371.281800
21
177.034400
31
0.000000
62
7
0
LINE
100
AcDbEntity
100
AcDbLine
8
PCL_Layer
5
112B
10
371.281800
20
177.034400
30
0.000000
11
371.281800
21
179.236100
31
0.000000
62
7
0
LINE
100
AcDbEntity
100
AcDbLine
8
PCL_Layer
5
112C
10
373.633600
20
184.214800
30
0.000000
11
387.218900
21
184.214800
31
0.000000
62
7
0
LINE
100
AcDbEntity
100
AcDbLine
8
PCL_Layer
5
112D
10
387.218900
20
184.214800
30
0.000000
11
387.218900
21
170.654500
31
0.000000
62
7
0
LINE
100
AcDbEntity
100
AcDbLine
8
PCL_Layer
5
112E
10
387.218900
20
170.654500
30
0.000000
11
373.633600
21
170.654500
31
0.000000
62
7
0
LINE
100
AcDbEntity
100
AcDbLine
8
PCL_Layer
5
112F
10
373.633600
20
170.654500
30
0.000000
11
373.633600
21
184.214800
31
0.000000
62
7
0
LINE
100
AcDbEntity
100
AcDbLine
8
PCL_Layer
5
1130
10
389.070300
20
179.211000
30
0.000000
11
389.570700
21
179.211000
31
0.000000
62
7
0
LINE
100
AcDbEntity
100
AcDbLine
8
PCL_Layer
5
1131
10
389.570700
20
179.211000
30
0.000000
11
389.570700
21
177.009400
31
0.000000
62
7
0
LINE
100
AcDbEntity
100
AcDbLine
8
PCL_Layer
5
1132
10
389.570700
20
177.009400
30
0.000000
11
389.070300
21
177.009400
31
0.000000
62
7
0
LINE
100
AcDbEntity
100
AcDbLine
8
PCL_Layer
5
1133
10
389.070300
20
177.009400
30
0.000000
11
389.070300
21
179.211000
31
0.000000
62
7
0
LINE
100
AcDbEntity
100
AcDbLine
8
PCL_Layer
5
1134
10
389.570700
20
182.913800
30
0.000000
11
395.775500
21
182.913800
31
0.000000
62
7
0
LINE
100
AcDbEntity
100
AcDbLine
8
PCL_Layer
5
1135
10
395.775500
20
182.913800
30
0.000000
11
395.775500
21
167.852400
31
0.000000
62
7
0
LINE
100
AcDbEntity
100
AcDbLine
8
PCL_Layer
5
1136
10
395.775500
20
167.852400
30
0.000000
11
389.570700
21
167.852400
31
0.000000
62
7
0
LINE
100
AcDbEntity
100
AcDbLine
8
PCL_Layer
5
1137
10
389.570700
20
167.852400
30
0.000000
11
389.570700
21
182.913800
31
0.000000
62
7
0
LINE
100
AcDbEntity
100
AcDbLine
8
PCL_Layer
5
1138
10
395.775500
20
179.211000
30
0.000000
11
396.275800
21
179.211000
31
0.000000
62
7
0
LINE
100
AcDbEntity
100
AcDbLine
8
PCL_Layer
5
1139
10
396.275800
20
179.211000
30
0.000000
11
396.275800
21
177.009400
31
0.000000
62
7
0
LINE
100
AcDbEntity
100
AcDbLine
8
PCL_Layer
5
113A
10
396.275800
20
177.009400
30
0.000000
11
395.775500
21
177.009400
31
0.000000
62
7
0
LINE
100
AcDbEntity
100
AcDbLine
8
PCL_Layer
5
113B
10
395.775500
20
177.009400
30
0.000000
11
395.775500
21
179.211000
31
0.000000
62
7
0
LINE
100
AcDbEntity
100
AcDbLine
8
PCL_Layer
5
113C
10
411.762600
20
127.021400
30
0.000000
11
425.347900
21
127.021400
31
0.000000
62
7
0
LINE
100
AcDbEntity
100
AcDbLine
8
PCL_Layer
5
113D
10
425.347900
20
127.021400
30
0.000000
11
425.347900
21
113.461100
31
0.000000
62
7
0
LINE
100
AcDbEntity
100
AcDbLine
8
PCL_Layer
5
113E
10
425.347900
20
113.461100
30
0.000000
11
411.762600
21
113.461100
31
0.000000
62
7
0
LINE
100
AcDbEntity
100
AcDbLine
8
PCL_Layer
5
113F
10
411.762600
20
113.461100
30
0.000000
11
411.762600
21
127.021400
31
0.000000
62
7
0
LINE
100
AcDbEntity
100
AcDbLine
8
PCL_Layer
5
1140
10
20.940900
20
107.956900
30
0.000000
11
34.526200
21
107.956900
31
0.000000
62
7
0
LINE
100
AcDbEntity
100
AcDbLine
8
PCL_Layer
5
1141
10
34.526200
20
107.956900
30
0.000000
11
34.526200
21
94.396700
31
0.000000
62
7
0
LINE
100
AcDbEntity
100
AcDbLine
8
PCL_Layer
5
1142
10
34.526200
20
94.396700
30
0.000000
11
20.940900
21
94.396700
31
0.000000
62
7
0
LINE
100
AcDbEntity
100
AcDbLine
8
PCL_Layer
5
1143
10
20.940900
20
94.396700
30
0.000000
11
20.940900
21
107.956900
31
0.000000
62
7
0
LINE
100
AcDbEntity
100
AcDbLine
8
PCL_Layer
5
1144
10
113.886500
20
88.892500
30
0.000000
11
127.446800
21
88.892500
31
0.000000
62
7
0
LINE
100
AcDbEntity
100
AcDbLine
8
PCL_Layer
5
1145
10
127.446800
20
88.892500
30
0.000000
11
127.446800
21
75.307200
31
0.000000
62
7
0
LINE
100
AcDbEntity
100
AcDbLine
8
PCL_Layer
5
1146
10
127.446800
20
75.307200
30
0.000000
11
113.886500
21
75.307200
31
0.000000
62
7
0
LINE
100
AcDbEntity
100
AcDbLine
8
PCL_Layer
5
1147
10
113.886500
20
75.307200
30
0.000000
11
113.886500
21
88.892500
31
0.000000
62
7
0
LINE
100
AcDbEntity
100
AcDbLine
8
PCL_Layer
5
1148
10
311.661600
20
165.150400
30
0.000000
11
325.246900
21
165.150400
31
0.000000
62
7
0
LINE
100
AcDbEntity
100
AcDbLine
8
PCL_Layer
5
1149
10
325.246900
20
165.150400
30
0.000000
11
325.246900
21
151.590100
31
0.000000
62
7
0
LINE
100
AcDbEntity
100
AcDbLine
8
PCL_Layer
5
114A
10
325.246900
20
151.590100
30
0.000000
11
311.661600
21
151.590100
31
0.000000
62
7
0
LINE
100
AcDbEntity
100
AcDbLine
8
PCL_Layer
5
114B
10
311.661600
20
151.590100
30
0.000000
11
311.661600
21
165.150400
31
0.000000
62
7
0
LINE
100
AcDbEntity
100
AcDbLine
8
PCL_Layer
5
114C
10
59.545200
20
160.171600
30
0.000000
11
60.045600
21
160.171600
31
0.000000
62
7
0
LINE
100
AcDbEntity
100
AcDbLine
8
PCL_Layer
5
114D
10
60.045600
20
160.171600
30
0.000000
11
60.045600
21
157.969900
31
0.000000
62
7
0
LINE
100
AcDbEntity
100
AcDbLine
8
PCL_Layer
5
114E
10
60.045600
20
157.969900
30
0.000000
11
59.545200
21
157.969900
31
0.000000
62
7
0
LINE
100
AcDbEntity
100
AcDbLine
8
PCL_Layer
5
114F
10
59.545200
20
157.969900
30
0.000000
11
59.545200
21
160.171600
31
0.000000
62
7
0
LINE
100
AcDbEntity
100
AcDbLine
8
PCL_Layer
5
1150
10
60.045600
20
163.849400
30
0.000000
11
66.250300
21
163.849400
31
0.000000
62
7
0
LINE
100
AcDbEntity
100
AcDbLine
8
PCL_Layer
5
1151
10
66.250300
20
163.849400
30
0.000000
11
66.250300
21
148.787900
31
0.000000
62
7
0
LINE
100
AcDbEntity
100
AcDbLine
8
PCL_Layer
5
1152
10
66.250300
20
148.787900
30
0.000000
11
60.045600
21
148.787900
31
0.000000
62
7
0
LINE
100
AcDbEntity
100
AcDbLine
8
PCL_Layer
5
1153
10
60.045600
20
148.787900
30
0.000000
11
60.045600
21
163.849400
31
0.000000
62
7
0
LINE
100
AcDbEntity
100
AcDbLine
8
PCL_Layer
5
1154
10
66.250300
20
160.171600
30
0.000000
11
66.750700
21
160.171600
31
0.000000
62
7
0
LINE
100
AcDbEntity
100
AcDbLine
8
PCL_Layer
5
1155
10
66.750700
20
160.171600
30
0.000000
11
66.750700
21
157.969900
31
0.000000
62
7
0
LINE
100
AcDbEntity
100
AcDbLine
8
PCL_Layer
5
1156
10
66.750700
20
157.969900
30
0.000000
11
66.250300
21
157.969900
31
0.000000
62
7
0
LINE
100
AcDbEntity
100
AcDbLine
8
PCL_Layer
5
1157
10
66.250300
20
157.969900
30
0.000000
11
66.250300
21
160.171600
31
0.000000
62
7
0
LINE
100
AcDbEntity
100
AcDbLine
8
PCL_Layer
5
1158
10
68.602100
20
165.150400
30
0.000000
11
82.187400
21
165.150400
31
0.000000
62
7
0
LINE
100
AcDbEntity
100
AcDbLine
8
PCL_Layer
5
1159
10
82.187400
20
165.150400
30
0.000000
11
82.187400
21
151.590100
31
0.000000
62
7
0
LINE
100
AcDbEntity
100
AcDbLine
8
PCL_Layer
5
115A
10
82.187400
20
151.590100
30
0.000000
11
68.602100
21
151.590100
31
0.000000
62
7
0
LINE
100
AcDbEntity
100
AcDbLine
8
PCL_Layer
5
115B
10
68.602100
20
151.590100
30
0.000000
11
68.602100
21
165.150400
31
0.000000
62
7
0
LINE
100
AcDbEntity
100
AcDbLine
8
PCL_Layer
5
115C
10
84.038800
20
160.146600
30
0.000000
11
84.539200
21
160.146600
31
0.000000
62
7
0
LINE
100
AcDbEntity
100
AcDbLine
8
PCL_Layer
5
115D
10
84.539200
20
160.146600
30
0.000000
11
84.539200
21
157.944900
31
0.000000
62
7
0
LINE
100
AcDbEntity
100
AcDbLine
8
PCL_Layer
5
115E
10
84.539200
20
157.944900
30
0.000000
11
84.038800
21
157.944900
31
0.000000
62
7
0
LINE
100
AcDbEntity
100
AcDbLine
8
PCL_Layer
5
115F
10
84.038800
20
157.944900
30
0.000000
11
84.038800
21
160.146600
31
0.000000
62
7
0
LINE
100
AcDbEntity
100
AcDbLine
8
PCL_Layer
5
1160
10
84.539200
20
163.849400
30
0.000000
11
90.743900
21
163.849400
31
0.000000
62
7
0
LINE
100
AcDbEntity
100
AcDbLine
8
PCL_Layer
5
1161
10
90.743900
20
163.849400
30
0.000000
11
90.743900
21
148.787900
31
0.000000
62
7
0
LINE
100
AcDbEntity
100
AcDbLine
8
PCL_Layer
5
1162
10
90.743900
20
148.787900
30
0.000000
11
84.539200
21
148.787900
31
0.000000
62
7
0
LINE
100
AcDbEntity
100
AcDbLine
8
PCL_Layer
5
1163
10
84.539200
20
148.787900
30
0.000000
11
84.539200
21
163.849400
31
0.000000
62
7
0
LINE
100
AcDbEntity
100
AcDbLine
8
PCL_Layer
5
1164
10
90.743900
20
160.146600
30
0.000000
11
91.244300
21
160.146600
31
0.000000
62
7
0
LINE
100
AcDbEntity
100
AcDbLine
8
PCL_Layer
5
1165
10
91.244300
20
160.146600
30
0.000000
11
91.244300
21
157.944900
31
0.000000
62
7
0
LINE
100
AcDbEntity
100
AcDbLine
8
PCL_Layer
5
1166
10
91.244300
20
157.944900
30
0.000000
11
90.743900
21
157.944900
31
0.000000
62
7
0
LINE
100
AcDbEntity
100
AcDbLine
8
PCL_Layer
5
1167
10
90.743900
20
157.944900
30
0.000000
11
90.743900
21
160.146600
31
0.000000
62
7
0
LINE
100
AcDbEntity
100
AcDbLine
8
PCL_Layer
5
1168
10
59.545200
20
179.236100
30
0.000000
11
60.045600
21
179.236100
31
0.000000
62
7
0
LINE
100
AcDbEntity
100
AcDbLine
8
PCL_Layer
5
1169
10
60.045600
20
179.236100
30
0.000000
11
60.045600
21
177.034400
31
0.000000
62
7
0
LINE
100
AcDbEntity
100
AcDbLine
8
PCL_Layer
5
116A
10
60.045600
20
177.034400
30
0.000000
11
59.545200
21
177.034400
31
0.000000
62
7
0
LINE
100
AcDbEntity
100
AcDbLine
8
PCL_Layer
5
116B
10
59.545200
20
177.034400
30
0.000000
11
59.545200
21
179.236100
31
0.000000
62
7
0
LINE
100
AcDbEntity
100
AcDbLine
8
PCL_Layer
5
116C
10
60.045600
20
182.913800
30
0.000000
11
66.250300
21
182.913800
31
0.000000
62
7
0
LINE
100
AcDbEntity
100
AcDbLine
8
PCL_Layer
5
116D
10
66.250300
20
182.913800
30
0.000000
11
66.250300
21
167.852400
31
0.000000
62
7
0
LINE
100
AcDbEntity
100
AcDbLine
8
PCL_Layer
5
116E
10
66.250300
20
167.852400
30
0.000000
11
60.045600
21
167.852400
31
0.000000
62
7
0
LINE
100
AcDbEntity
100
AcDbLine
8
PCL_Layer
5
116F
10
60.045600
20
167.852400
30
0.000000
11
60.045600
21
182.913800
31
0.000000
62
7
0
LINE
100
AcDbEntity
100
AcDbLine
8
PCL_Layer
5
1170
10
66.250300
20
179.236100
30
0.000000
11
66.750700
21
179.236100
31
0.000000
62
7
0
LINE
100
AcDbEntity
100
AcDbLine
8
PCL_Layer
5
1171
10
66.750700
20
179.236100
30
0.000000
11
66.750700
21
177.034400
31
0.000000
62
7
0
LINE
100
AcDbEntity
100
AcDbLine
8
PCL_Layer
5
1172
10
66.750700
20
177.034400
30
0.000000
11
66.250300
21
177.034400
31
0.000000
62
7
0
LINE
100
AcDbEntity
100
AcDbLine
8
PCL_Layer
5
1173
10
66.250300
20
177.034400
30
0.000000
11
66.250300
21
179.236100
31
0.000000
62
7
0
LINE
100
AcDbEntity
100
AcDbLine
8
PCL_Layer
5
1174
10
68.602100
20
184.214800
30
0.000000
11
82.187400
21
184.214800
31
0.000000
62
7
0
LINE
100
AcDbEntity
100
AcDbLine
8
PCL_Layer
5
1175
10
82.187400
20
184.214800
30
0.000000
11
82.187400
21
170.654500
31
0.000000
62
7
0
LINE
100
AcDbEntity
100
AcDbLine
8
PCL_Layer
5
1176
10
82.187400
20
170.654500
30
0.000000
11
68.602100
21
170.654500
31
0.000000
62
7
0
LINE
100
AcDbEntity
100
AcDbLine
8
PCL_Layer
5
1177
10
68.602100
20
170.654500
30
0.000000
11
68.602100
21
184.214800
31
0.000000
62
7
0
LINE
100
AcDbEntity
100
AcDbLine
8
PCL_Layer
5
1178
10
84.038800
20
179.211000
30
0.000000
11
84.539200
21
179.211000
31
0.000000
62
7
0
LINE
100
AcDbEntity
100
AcDbLine
8
PCL_Layer
5
1179
10
84.539200
20
179.211000
30
0.000000
11
84.539200
21
177.009400
31
0.000000
62
7
0
LINE
100
AcDbEntity
100
AcDbLine
8
PCL_Layer
5
117A
10
84.539200
20
177.009400
30
0.000000
11
84.038800
21
177.009400
31
0.000000
62
7
0
LINE
100
AcDbEntity
100
AcDbLine
8
PCL_Layer
5
117B
10
84.038800
20
177.009400
30
0.000000
11
84.038800
21
179.211000
31
0.000000
62
7
0
LINE
100
AcDbEntity
100
AcDbLine
8
PCL_Layer
5
117C
10
84.539200
20
182.913800
30
0.000000
11
90.743900
21
182.913800
31
0.000000
62
7
0
LINE
100
AcDbEntity
100
AcDbLine
8
PCL_Layer
5
117D
10
90.743900
20
182.913800
30
0.000000
11
90.743900
21
167.852400
31
0.000000
62
7
0
LINE
100
AcDbEntity
100
AcDbLine
8
PCL_Layer
5
117E
10
90.743900
20
167.852400
30
0.000000
11
84.539200
21
167.852400
31
0.000000
62
7
0
LINE
100
AcDbEntity
100
AcDbLine
8
PCL_Layer
5
117F
10
84.539200
20
167.852400
30
0.000000
11
84.539200
21
182.913800
31
0.000000
62
7
0
LINE
100
AcDbEntity
100
AcDbLine
8
PCL_Layer
5
1180
10
90.743900
20
179.211000
30
0.000000
11
91.244300
21
179.211000
31
0.000000
62
7
0
LINE
100
AcDbEntity
100
AcDbLine
8
PCL_Layer
5
1181
10
91.244300
20
179.211000
30
0.000000
11
91.244300
21
177.009400
31
0.000000
62
7
0
LINE
100
AcDbEntity
100
AcDbLine
8
PCL_Layer
5
1182
10
91.244300
20
177.009400
30
0.000000
11
90.743900
21
177.009400
31
0.000000
62
7
0
LINE
100
AcDbEntity
100
AcDbLine
8
PCL_Layer
5
1183
10
90.743900
20
177.009400
30
0.000000
11
90.743900
21
179.211000
31
0.000000
62
7
0
LINE
100
AcDbEntity
100
AcDbLine
8
PCL_Layer
5
1184
10
326.447800
20
179.236100
30
0.000000
11
326.948200
21
179.236100
31
0.000000
62
7
0
LINE
100
AcDbEntity
100
AcDbLine
8
PCL_Layer
5
1185
10
326.948200
20
179.236100
30
0.000000
11
326.948200
21
177.034400
31
0.000000
62
7
0
LINE
100
AcDbEntity
100
AcDbLine
8
PCL_Layer
5
1186
10
326.948200
20
177.034400
30
0.000000
11
326.447800
21
177.034400
31
0.000000
62
7
0
LINE
100
AcDbEntity
100
AcDbLine
8
PCL_Layer
5
1187
10
326.447800
20
177.034400
30
0.000000
11
326.447800
21
179.236100
31
0.000000
62
7
0
LINE
100
AcDbEntity
100
AcDbLine
8
PCL_Layer
5
1188
10
326.948200
20
182.913800
30
0.000000
11
333.152900
21
182.913800
31
0.000000
62
7
0
LINE
100
AcDbEntity
100
AcDbLine
8
PCL_Layer
5
1189
10
333.152900
20
182.913800
30
0.000000
11
333.152900
21
167.852400
31
0.000000
62
7
0
LINE
100
AcDbEntity
100
AcDbLine
8
PCL_Layer
5
118A
10
333.152900
20
167.852400
30
0.000000
11
326.948200
21
167.852400
31
0.000000
62
7
0
LINE
100
AcDbEntity
100
AcDbLine
8
PCL_Layer
5
118B
10
326.948200
20
167.852400
30
0.000000
11
326.948200
21
182.913800
31
0.000000
62
7
0
LINE
100
AcDbEntity
100
AcDbLine
8
PCL_Layer
5
118C
10
333.152900
20
179.236100
30
0.000000
11
333.653300
21
179.236100
31
0.000000
62
7
0
LINE
100
AcDbEntity
100
AcDbLine
8
PCL_Layer
5
118D
10
333.653300
20
179.236100
30
0.000000
11
333.653300
21
177.034400
31
0.000000
62
7
0
LINE
100
AcDbEntity
100
AcDbLine
8
PCL_Layer
5
118E
10
333.653300
20
177.034400
30
0.000000
11
333.152900
21
177.034400
31
0.000000
62
7
0
LINE
100
AcDbEntity
100
AcDbLine
8
PCL_Layer
5
118F
10
333.152900
20
177.034400
30
0.000000
11
333.152900
21
179.236100
31
0.000000
62
7
0
LINE
100
AcDbEntity
100
AcDbLine
8
PCL_Layer
5
1190
10
335.504700
20
184.214800
30
0.000000
11
349.090000
21
184.214800
31
0.000000
62
7
0
LINE
100
AcDbEntity
100
AcDbLine
8
PCL_Layer
5
1191
10
349.090000
20
184.214800
30
0.000000
11
349.090000
21
170.654500
31
0.000000
62
7
0
LINE
100
AcDbEntity
100
AcDbLine
8
PCL_Layer
5
1192
10
349.090000
20
170.654500
30
0.000000
11
335.504700
21
170.654500
31
0.000000
62
7
0
LINE
100
AcDbEntity
100
AcDbLine
8
PCL_Layer
5
1193
10
335.504700
20
170.654500
30
0.000000
11
335.504700
21
184.214800
31
0.000000
62
7
0
LINE
100
AcDbEntity
100
AcDbLine
8
PCL_Layer
5
1194
10
350.941400
20
179.211000
30
0.000000
11
351.441800
21
179.211000
31
0.000000
62
7
0
LINE
100
AcDbEntity
100
AcDbLine
8
PCL_Layer
5
1195
10
351.441800
20
179.211000
30
0.000000
11
351.441800
21
177.009400
31
0.000000
62
7
0
LINE
100
AcDbEntity
100
AcDbLine
8
PCL_Layer
5
1196
10
351.441800
20
177.009400
30
0.000000
11
350.941400
21
177.009400
31
0.000000
62
7
0
LINE
100
AcDbEntity
100
AcDbLine
8
PCL_Layer
5
1197
10
350.941400
20
177.009400
30
0.000000
11
350.941400
21
179.211000
31
0.000000
62
7
0
LINE
100
AcDbEntity
100
AcDbLine
8
PCL_Layer
5
1198
10
351.441800
20
182.913800
30
0.000000
11
357.646500
21
182.913800
31
0.000000
62
7
0
LINE
100
AcDbEntity
100
AcDbLine
8
PCL_Layer
5
1199
10
357.646500
20
182.913800
30
0.000000
11
357.646500
21
167.852400
31
0.000000
62
7
0
LINE
100
AcDbEntity
100
AcDbLine
8
PCL_Layer
5
119A
10
357.646500
20
167.852400
30
0.000000
11
351.441800
21
167.852400
31
0.000000
62
7
0
LINE
100
AcDbEntity
100
AcDbLine
8
PCL_Layer
5
119B
10
351.441800
20
167.852400
30
0.000000
11
351.441800
21
182.913800
31
0.000000
62
7
0
LINE
100
AcDbEntity
100
AcDbLine
8
PCL_Layer
5
119C
10
357.646500
20
179.211000
30
0.000000
11
358.146900
21
179.211000
31
0.000000
62
7
0
LINE
100
AcDbEntity
100
AcDbLine
8
PCL_Layer
5
119D
10
358.146900
20
179.211000
30
0.000000
11
358.146900
21
177.009400
31
0.000000
62
7
0
LINE
100
AcDbEntity
100
AcDbLine
8
PCL_Layer
5
119E
10
358.146900
20
177.009400
30
0.000000
11
357.646500
21
177.009400
31
0.000000
62
7
0
LINE
100
AcDbEntity
100
AcDbLine
8
PCL_Layer
5
119F
10
357.646500
20
177.009400
30
0.000000
11
357.646500
21
179.211000
31
0.000000
62
7
0
LINE
100
AcDbEntity
100
AcDbLine
8
PCL_Layer
5
11A0
10
135.803100
20
179.236100
30
0.000000
11
136.303500
21
179.236100
31
0.000000
62
7
0
LINE
100
AcDbEntity
100
AcDbLine
8
PCL_Layer
5
11A1
10
136.303500
20
179.236100
30
0.000000
11
136.303500
21
177.034400
31
0.000000
62
7
0
LINE
100
AcDbEntity
100
AcDbLine
8
PCL_Layer
5
11A2
10
136.303500
20
177.034400
30
0.000000
11
135.803100
21
177.034400
31
0.000000
62
7
0
LINE
100
AcDbEntity
100
AcDbLine
8
PCL_Layer
5
11A3
10
135.803100
20
177.034400
30
0.000000
11
135.803100
21
179.236100
31
0.000000
62
7
0
LINE
100
AcDbEntity
100
AcDbLine
8
PCL_Layer
5
11A4
10
136.303500
20
182.913800
30
0.000000
11
142.508200
21
182.913800
31
0.000000
62
7
0
LINE
100
AcDbEntity
100
AcDbLine
8
PCL_Layer
5
11A5
10
142.508200
20
182.913800
30
0.000000
11
142.508200
21
167.852400
31
0.000000
62
7
0
LINE
100
AcDbEntity
100
AcDbLine
8
PCL_Layer
5
11A6
10
142.508200
20
167.852400
30
0.000000
11
136.303500
21
167.852400
31
0.000000
62
7
0
LINE
100
AcDbEntity
100
AcDbLine
8
PCL_Layer
5
11A7
10
136.303500
20
167.852400
30
0.000000
11
136.303500
21
182.913800
31
0.000000
62
7
0
LINE
100
AcDbEntity
100
AcDbLine
8
PCL_Layer
5
11A8
10
142.508200
20
179.236100
30
0.000000
11
143.008600
21
179.236100
31
0.000000
62
7
0
LINE
100
AcDbEntity
100
AcDbLine
8
PCL_Layer
5
11A9
10
143.008600
20
179.236100
30
0.000000
11
143.008600
21
177.034400
31
0.000000
62
7
0
LINE
100
AcDbEntity
100
AcDbLine
8
PCL_Layer
5
11AA
10
143.008600
20
177.034400
30
0.000000
11
142.508200
21
177.034400
31
0.000000
62
7
0
LINE
100
AcDbEntity
100
AcDbLine
8
PCL_Layer
5
11AB
10
142.508200
20
177.034400
30
0.000000
11
142.508200
21
179.236100
31
0.000000
62
7
0
LINE
100
AcDbEntity
100
AcDbLine
8
PCL_Layer
5
11AC
10
144.860000
20
184.214800
30
0.000000
11
158.445300
21
184.214800
31
0.000000
62
7
0
LINE
100
AcDbEntity
100
AcDbLine
8
PCL_Layer
5
11AD
10
158.445300
20
184.214800
30
0.000000
11
158.445300
21
170.654500
31
0.000000
62
7
0
LINE
100
AcDbEntity
100
AcDbLine
8
PCL_Layer
5
11AE
10
158.445300
20
170.654500
30
0.000000
11
144.860000
21
170.654500
31
0.000000
62
7
0
LINE
100
AcDbEntity
100
AcDbLine
8
PCL_Layer
5
11AF
10
144.860000
20
170.654500
30
0.000000
11
144.860000
21
184.214800
31
0.000000
62
7
0
LINE
100
AcDbEntity
100
AcDbLine
8
PCL_Layer
5
11B0
10
160.296700
20
179.211000
30
0.000000
11
160.797100
21
179.211000
31
0.000000
62
7
0
LINE
100
AcDbEntity
100
AcDbLine
8
PCL_Layer
5
11B1
10
160.797100
20
179.211000
30
0.000000
11
160.797100
21
177.009400
31
0.000000
62
7
0
LINE
100
AcDbEntity
100
AcDbLine
8
PCL_Layer
5
11B2
10
160.797100
20
177.009400
30
0.000000
11
160.296700
21
177.009400
31
0.000000
62
7
0
LINE
100
AcDbEntity
100
AcDbLine
8
PCL_Layer
5
11B3
10
160.296700
20
177.009400
30
0.000000
11
160.296700
21
179.211000
31
0.000000
62
7
0
LINE
100
AcDbEntity
100
AcDbLine
8
PCL_Layer
5
11B4
10
160.797100
20
182.913800
30
0.000000
11
167.001800
21
182.913800
31
0.000000
62
7
0
LINE
100
AcDbEntity
100
AcDbLine
8
PCL_Layer
5
11B5
10
167.001800
20
182.913800
30
0.000000
11
167.001800
21
167.852400
31
0.000000
62
7
0
LINE
100
AcDbEntity
100
AcDbLine
8
PCL_Layer
5
11B6
10
167.001800
20
167.852400
30
0.000000
11
160.797100
21
167.852400
31
0.000000
62
7
0
LINE
100
AcDbEntity
100
AcDbLine
8
PCL_Layer
5
11B7
10
160.797100
20
167.852400
30
0.000000
11
160.797100
21
182.913800
31
0.000000
62
7
0
LINE
100
AcDbEntity
100
AcDbLine
8
PCL_Layer
5
11B8
10
167.001800
20
179.211000
30
0.000000
11
167.502200
21
179.211000
31
0.000000
62
7
0
LINE
100
AcDbEntity
100
AcDbLine
8
PCL_Layer
5
11B9
10
167.502200
20
179.211000
30
0.000000
11
167.502200
21
177.009400
31
0.000000
62
7
0
LINE
100
AcDbEntity
100
AcDbLine
8
PCL_Layer
5
11BA
10
167.502200
20
177.009400
30
0.000000
11
167.001800
21
177.009400
31
0.000000
62
7
0
LINE
100
AcDbEntity
100
AcDbLine
8
PCL_Layer
5
11BB
10
167.001800
20
177.009400
30
0.000000
11
167.001800
21
179.211000
31
0.000000
62
7
0
LINE
100
AcDbEntity
100
AcDbLine
8
PCL_Layer
5
11BC
10
283.064900
20
127.021400
30
0.000000
11
296.650200
21
127.021400
31
0.000000
62
7
0
LINE
100
AcDbEntity
100
AcDbLine
8
PCL_Layer
5
11BD
10
296.650200
20
127.021400
30
0.000000
11
296.650200
21
113.461100
31
0.000000
62
7
0
LINE
100
AcDbEntity
100
AcDbLine
8
PCL_Layer
5
11BE
10
296.650200
20
113.461100
30
0.000000
11
283.064900
21
113.461100
31
0.000000
62
7
0
LINE
100
AcDbEntity
100
AcDbLine
8
PCL_Layer
5
11BF
10
283.064900
20
113.461100
30
0.000000
11
283.064900
21
127.021400
31
0.000000
62
7
0
LINE
100
AcDbEntity
100
AcDbLine
8
PCL_Layer
5
11C0
10
268.779100
20
165.150400
30
0.000000
11
282.364300
21
165.150400
31
0.000000
62
7
0
LINE
100
AcDbEntity
100
AcDbLine
8
PCL_Layer
5
11C1
10
282.364300
20
165.150400
30
0.000000
11
282.364300
21
151.590100
31
0.000000
62
7
0
LINE
100
AcDbEntity
100
AcDbLine
8
PCL_Layer
5
11C2
10
282.364300
20
151.590100
30
0.000000
11
268.779100
21
151.590100
31
0.000000
62
7
0
LINE
100
AcDbEntity
100
AcDbLine
8
PCL_Layer
5
11C3
10
268.779100
20
151.590100
30
0.000000
11
268.779100
21
165.150400
31
0.000000
62
7
0
LINE
100
AcDbEntity
100
AcDbLine
8
PCL_Layer
5
11C4
10
440.834700
20
179.236100
30
0.000000
11
441.335000
21
179.236100
31
0.000000
62
7
0
LINE
100
AcDbEntity
100
AcDbLine
8
PCL_Layer
5
11C5
10
441.335000
20
179.236100
30
0.000000
11
441.335000
21
177.034400
31
0.000000
62
7
0
LINE
100
AcDbEntity
100
AcDbLine
8
PCL_Layer
5
11C6
10
441.335000
20
177.034400
30
0.000000
11
440.834700
21
177.034400
31
0.000000
62
7
0
LINE
100
AcDbEntity
100
AcDbLine
8
PCL_Layer
5
11C7
10
440.834700
20
177.034400
30
0.000000
11
440.834700
21
179.236100
31
0.000000
62
7
0
LINE
100
AcDbEntity
100
AcDbLine
8
PCL_Layer
5
11C8
10
441.335000
20
182.913800
30
0.000000
11
447.539700
21
182.913800
31
0.000000
62
7
0
LINE
100
AcDbEntity
100
AcDbLine
8
PCL_Layer
5
11C9
10
447.539700
20
182.913800
30
0.000000
11
447.539700
21
167.852400
31
0.000000
62
7
0
LINE
100
AcDbEntity
100
AcDbLine
8
PCL_Layer
5
11CA
10
447.539700
20
167.852400
30
0.000000
11
441.335000
21
167.852400
31
0.000000
62
7
0
LINE
100
AcDbEntity
100
AcDbLine
8
PCL_Layer
5
11CB
10
441.335000
20
167.852400
30
0.000000
11
441.335000
21
182.913800
31
0.000000
62
7
0
LINE
100
AcDbEntity
100
AcDbLine
8
PCL_Layer
5
11CC
10
447.539700
20
179.236100
30
0.000000
11
448.040100
21
179.236100
31
0.000000
62
7
0
LINE
100
AcDbEntity
100
AcDbLine
8
PCL_Layer
5
11CD
10
448.040100
20
179.236100
30
0.000000
11
448.040100
21
177.034400
31
0.000000
62
7
0
LINE
100
AcDbEntity
100
AcDbLine
8
PCL_Layer
5
11CE
10
448.040100
20
177.034400
30
0.000000
11
447.539700
21
177.034400
31
0.000000
62
7
0
LINE
100
AcDbEntity
100
AcDbLine
8
PCL_Layer
5
11CF
10
447.539700
20
177.034400
30
0.000000
11
447.539700
21
179.236100
31
0.000000
62
7
0
LINE
100
AcDbEntity
100
AcDbLine
8
PCL_Layer
5
11D0
10
449.891500
20
184.214800
30
0.000000
11
463.476800
21
184.214800
31
0.000000
62
7
0
LINE
100
AcDbEntity
100
AcDbLine
8
PCL_Layer
5
11D1
10
463.476800
20
184.214800
30
0.000000
11
463.476800
21
170.654500
31
0.000000
62
7
0
LINE
100
AcDbEntity
100
AcDbLine
8
PCL_Layer
5
11D2
10
463.476800
20
170.654500
30
0.000000
11
449.891500
21
170.654500
31
0.000000
62
7
0
LINE
100
AcDbEntity
100
AcDbLine
8
PCL_Layer
5
11D3
10
449.891500
20
170.654500
30
0.000000
11
449.891500
21
184.214800
31
0.000000
62
7
0
LINE
100
AcDbEntity
100
AcDbLine
8
PCL_Layer
5
11D4
10
465.328200
20
179.211000
30
0.000000
11
465.828600
21
179.211000
31
0.000000
62
7
0
LINE
100
AcDbEntity
100
AcDbLine
8
PCL_Layer
5
11D5
10
465.828600
20
179.211000
30
0.000000
11
465.828600
21
177.009400
31
0.000000
62
7
0
LINE
100
AcDbEntity
100
AcDbLine
8
PCL_Layer
5
11D6
10
465.828600
20
177.009400
30
0.000000
11
465.328200
21
177.009400
31
0.000000
62
7
0
LINE
100
AcDbEntity
100
AcDbLine
8
PCL_Layer
5
11D7
10
465.328200
20
177.009400
30
0.000000
11
465.328200
21
179.211000
31
0.000000
62
7
0
LINE
100
AcDbEntity
100
AcDbLine
8
PCL_Layer
5
11D8
10
465.828600
20
182.913800
30
0.000000
11
472.033300
21
182.913800
31
0.000000
62
7
0
LINE
100
AcDbEntity
100
AcDbLine
8
PCL_Layer
5
11D9
10
472.033300
20
182.913800
30
0.000000
11
472.033300
21
167.852400
31
0.000000
62
7
0
LINE
100
AcDbEntity
100
AcDbLine
8
PCL_Layer
5
11DA
10
472.033300
20
167.852400
30
0.000000
11
465.828600
21
167.852400
31
0.000000
62
7
0
LINE
100
AcDbEntity
100
AcDbLine
8
PCL_Layer
5
11DB
10
465.828600
20
167.852400
30
0.000000
11
465.828600
21
182.913800
31
0.000000
62
7
0
LINE
100
AcDbEntity
100
AcDbLine
8
PCL_Layer
5
11DC
10
472.033300
20
179.211000
30
0.000000
11
472.533700
21
179.211000
31
0.000000
62
7
0
LINE
100
AcDbEntity
100
AcDbLine
8
PCL_Layer
5
11DD
10
472.533700
20
179.211000
30
0.000000
11
472.533700
21
177.009400
31
0.000000
62
7
0
LINE
100
AcDbEntity
100
AcDbLine
8
PCL_Layer
5
11DE
10
472.533700
20
177.009400
30
0.000000
11
472.033300
21
177.009400
31
0.000000
62
7
0
LINE
100
AcDbEntity
100
AcDbLine
8
PCL_Layer
5
11DF
10
472.033300
20
177.009400
30
0.000000
11
472.033300
21
179.211000
31
0.000000
62
7
0
LINE
100
AcDbEntity
100
AcDbLine
8
PCL_Layer
5
11E0
10
354.569200
20
146.085900
30
0.000000
11
368.154500
21
146.085900
31
0.000000
62
7
0
LINE
100
AcDbEntity
100
AcDbLine
8
PCL_Layer
5
11E1
10
368.154500
20
146.085900
30
0.000000
11
368.154500
21
132.500600
31
0.000000
62
7
0
LINE
100
AcDbEntity
100
AcDbLine
8
PCL_Layer
5
11E2
10
368.154500
20
132.500600
30
0.000000
11
354.569200
21
132.500600
31
0.000000
62
7
0
LINE
100
AcDbEntity
100
AcDbLine
8
PCL_Layer
5
11E3
10
354.569200
20
132.500600
30
0.000000
11
354.569200
21
146.085900
31
0.000000
62
7
0
LINE
100
AcDbEntity
100
AcDbLine
8
PCL_Layer
5
11E4
10
235.403700
20
107.956900
30
0.000000
11
248.989000
21
107.956900
31
0.000000
62
7
0
LINE
100
AcDbEntity
100
AcDbLine
8
PCL_Layer
5
11E5
10
248.989000
20
107.956900
30
0.000000
11
248.989000
21
94.396700
31
0.000000
62
7
0
LINE
100
AcDbEntity
100
AcDbLine
8
PCL_Layer
5
11E6
10
248.989000
20
94.396700
30
0.000000
11
235.403700
21
94.396700
31
0.000000
62
7
0
LINE
100
AcDbEntity
100
AcDbLine
8
PCL_Layer
5
11E7
10
235.403700
20
94.396700
30
0.000000
11
235.403700
21
107.956900
31
0.000000
62
7
0
LINE
100
AcDbEntity
100
AcDbLine
8
PCL_Layer
5
11E8
10
166.301200
20
88.892500
30
0.000000
11
179.886600
21
88.892500
31
0.000000
62
7
0
LINE
100
AcDbEntity
100
AcDbLine
8
PCL_Layer
5
11E9
10
179.886600
20
88.892500
30
0.000000
11
179.886600
21
75.307200
31
0.000000
62
7
0
LINE
100
AcDbEntity
100
AcDbLine
8
PCL_Layer
5
11EA
10
179.886600
20
75.307200
30
0.000000
11
166.301200
21
75.307200
31
0.000000
62
7
0
LINE
100
AcDbEntity
100
AcDbLine
8
PCL_Layer
5
11EB
10
166.301200
20
75.307200
30
0.000000
11
166.301200
21
88.892500
31
0.000000
62
7
0
LINE
100
AcDbEntity
100
AcDbLine
8
PCL_Layer
5
11EC
10
140.081300
20
107.956900
30
0.000000
11
153.666600
21
107.956900
31
0.000000
62
7
0
LINE
100
AcDbEntity
100
AcDbLine
8
PCL_Layer
5
11ED
10
153.666600
20
107.956900
30
0.000000
11
153.666600
21
94.396700
31
0.000000
62
7
0
LINE
100
AcDbEntity
100
AcDbLine
8
PCL_Layer
5
11EE
10
153.666600
20
94.396700
30
0.000000
11
140.081300
21
94.396700
31
0.000000
62
7
0
LINE
100
AcDbEntity
100
AcDbLine
8
PCL_Layer
5
11EF
10
140.081300
20
94.396700
30
0.000000
11
140.081300
21
107.956900
31
0.000000
62
7
0
LINE
100
AcDbEntity
100
AcDbLine
8
PCL_Layer
5
11F0
10
380.789100
20
127.021400
30
0.000000
11
394.349400
21
127.021400
31
0.000000
62
7
0
LINE
100
AcDbEntity
100
AcDbLine
8
PCL_Layer
5
11F1
10
394.349400
20
127.021400
30
0.000000
11
394.349400
21
113.461100
31
0.000000
62
7
0
LINE
100
AcDbEntity
100
AcDbLine
8
PCL_Layer
5
11F2
10
394.349400
20
113.461100
30
0.000000
11
380.789100
21
113.461100
31
0.000000
62
7
0
LINE
100
AcDbEntity
100
AcDbLine
8
PCL_Layer
5
11F3
10
380.789100
20
113.461100
30
0.000000
11
380.789100
21
127.021400
31
0.000000
62
7
0
LINE
100
AcDbEntity
100
AcDbLine
8
PCL_Layer
5
11F4
10
202.053400
20
146.085900
30
0.000000
11
215.638700
21
146.085900
31
0.000000
62
7
0
LINE
100
AcDbEntity
100
AcDbLine
8
PCL_Layer
5
11F5
10
215.638700
20
146.085900
30
0.000000
11
215.638700
21
132.500600
31
0.000000
62
7
0
LINE
100
AcDbEntity
100
AcDbLine
8
PCL_Layer
5
11F6
10
215.638700
20
132.500600
30
0.000000
11
202.053400
21
132.500600
31
0.000000
62
7
0
LINE
100
AcDbEntity
100
AcDbLine
8
PCL_Layer
5
11F7
10
202.053400
20
132.500600
30
0.000000
11
202.053400
21
146.085900
31
0.000000
62
7
0
LINE
100
AcDbEntity
100
AcDbLine
8
PCL_Layer
5
11F8
10
288.318800
20
179.236100
30
0.000000
11
288.819200
21
179.236100
31
0.000000
62
7
0
LINE
100
AcDbEntity
100
AcDbLine
8
PCL_Layer
5
11F9
10
288.819200
20
179.236100
30
0.000000
11
288.819200
21
177.034400
31
0.000000
62
7
0
LINE
100
AcDbEntity
100
AcDbLine
8
PCL_Layer
5
11FA
10
288.819200
20
177.034400
30
0.000000
11
288.318800
21
177.034400
31
0.000000
62
7
0
LINE
100
AcDbEntity
100
AcDbLine
8
PCL_Layer
5
11FB
10
288.318800
20
177.034400
30
0.000000
11
288.318800
21
179.236100
31
0.000000
62
7
0
LINE
100
AcDbEntity
100
AcDbLine
8
PCL_Layer
5
11FC
10
288.819200
20
182.913800
30
0.000000
11
295.024000
21
182.913800
31
0.000000
62
7
0
LINE
100
AcDbEntity
100
AcDbLine
8
PCL_Layer
5
11FD
10
295.024000
20
182.913800
30
0.000000
11
295.024000
21
167.852400
31
0.000000
62
7
0
LINE
100
AcDbEntity
100
AcDbLine
8
PCL_Layer
5
11FE
10
295.024000
20
167.852400
30
0.000000
11
288.819200
21
167.852400
31
0.000000
62
7
0
LINE
100
AcDbEntity
100
AcDbLine
8
PCL_Layer
5
11FF
10
288.819200
20
167.852400
30
0.000000
11
288.819200
21
182.913800
31
0.000000
62
7
0
LINE
100
AcDbEntity
100
AcDbLine
8
PCL_Layer
5
1200
10
295.024000
20
179.236100
30
0.000000
11
295.524300
21
179.236100
31
0.000000
62
7
0
LINE
100
AcDbEntity
100
AcDbLine
8
PCL_Layer
5
1201
10
295.524300
20
179.236100
30
0.000000
11
295.524300
21
177.034400
31
0.000000
62
7
0
LINE
100
AcDbEntity
100
AcDbLine
8
PCL_Layer
5
1202
10
295.524300
20
177.034400
30
0.000000
11
295.024000
21
177.034400
31
0.000000
62
7
0
LINE
100
AcDbEntity
100
AcDbLine
8
PCL_Layer
5
1203
10
295.024000
20
177.034400
30
0.000000
11
295.024000
21
179.236100
31
0.000000
62
7
0
LINE
100
AcDbEntity
100
AcDbLine
8
PCL_Layer
5
1204
10
297.375700
20
184.214800
30
0.000000
11
310.961100
21
184.214800
31
0.000000
62
7
0
LINE
100
AcDbEntity
100
AcDbLine
8
PCL_Layer
5
1205
10
310.961100
20
184.214800
30
0.000000
11
310.961100
21
170.654500
31
0.000000
62
7
0
LINE
100
AcDbEntity
100
AcDbLine
8
PCL_Layer
5
1206
10
310.961100
20
170.654500
30
0.000000
11
297.375700
21
170.654500
31
0.000000
62
7
0
LINE
100
AcDbEntity
100
AcDbLine
8
PCL_Layer
5
1207
10
297.375700
20
170.654500
30
0.000000
11
297.375700
21
184.214800
31
0.000000
62
7
0
LINE
100
AcDbEntity
100
AcDbLine
8
PCL_Layer
5
1208
10
312.812500
20
179.211000
30
0.000000
11
313.312800
21
179.211000
31
0.000000
62
7
0
LINE
100
AcDbEntity
100
AcDbLine
8
PCL_Layer
5
1209
10
313.312800
20
179.211000
30
0.000000
11
313.312800
21
177.009400
31
0.000000
62
7
0
LINE
100
AcDbEntity
100
AcDbLine
8
PCL_Layer
5
120A
10
313.312800
20
177.009400
30
0.000000
11
312.812500
21
177.009400
31
0.000000
62
7
0
LINE
100
AcDbEntity
100
AcDbLine
8
PCL_Layer
5
120B
10
312.812500
20
177.009400
30
0.000000
11
312.812500
21
179.211000
31
0.000000
62
7
0
LINE
100
AcDbEntity
100
AcDbLine
8
PCL_Layer
5
120C
10
313.312800
20
182.913800
30
0.000000
11
319.517500
21
182.913800
31
0.000000
62
7
0
LINE
100
AcDbEntity
100
AcDbLine
8
PCL_Layer
5
120D
10
319.517500
20
182.913800
30
0.000000
11
319.517500
21
167.852400
31
0.000000
62
7
0
LINE
100
AcDbEntity
100
AcDbLine
8
PCL_Layer
5
120E
10
319.517500
20
167.852400
30
0.000000
11
313.312800
21
167.852400
31
0.000000
62
7
0
LINE
100
AcDbEntity
100
AcDbLine
8
PCL_Layer
5
120F
10
313.312800
20
167.852400
30
0.000000
11
313.312800
21
182.913800
31
0.000000
62
7
0
LINE
100
AcDbEntity
100
AcDbLine
8
PCL_Layer
5
1210
10
319.517500
20
179.211000
30
0.000000
11
320.017900
21
179.211000
31
0.000000
62
7
0
LINE
100
AcDbEntity
100
AcDbLine
8
PCL_Layer
5
1211
10
320.017900
20
179.211000
30
0.000000
11
320.017900
21
177.009400
31
0.000000
62
7
0
LINE
100
AcDbEntity
100
AcDbLine
8
PCL_Layer
5
1212
10
320.017900
20
177.009400
30
0.000000
11
319.517500
21
177.009400
31
0.000000
62
7
0
LINE
100
AcDbEntity
100
AcDbLine
8
PCL_Layer
5
1213
10
319.517500
20
177.009400
30
0.000000
11
319.517500
21
179.211000
31
0.000000
62
7
0
LINE
100
AcDbEntity
100
AcDbLine
8
PCL_Layer
5
1214
10
459.423800
20
107.956900
30
0.000000
11
473.009100
21
107.956900
31
0.000000
62
7
0
LINE
100
AcDbEntity
100
AcDbLine
8
PCL_Layer
5
1215
10
473.009100
20
107.956900
30
0.000000
11
473.009100
21
94.396700
31
0.000000
62
7
0
LINE
100
AcDbEntity
100
AcDbLine
8
PCL_Layer
5
1216
10
473.009100
20
94.396700
30
0.000000
11
459.423800
21
94.396700
31
0.000000
62
7
0
LINE
100
AcDbEntity
100
AcDbLine
8
PCL_Layer
5
1217
10
459.423800
20
94.396700
30
0.000000
11
459.423800
21
107.956900
31
0.000000
62
7
0
LINE
100
AcDbEntity
100
AcDbLine
8
PCL_Layer
5
1218
10
378.387300
20
146.085900
30
0.000000
11
391.972600
21
146.085900
31
0.000000
62
7
0
LINE
100
AcDbEntity
100
AcDbLine
8
PCL_Layer
5
1219
10
391.972600
20
146.085900
30
0.000000
11
391.972600
21
132.500600
31
0.000000
62
7
0
LINE
100
AcDbEntity
100
AcDbLine
8
PCL_Layer
5
121A
10
391.972600
20
132.500600
30
0.000000
11
378.387300
21
132.500600
31
0.000000
62
7
0
LINE
100
AcDbEntity
100
AcDbLine
8
PCL_Layer
5
121B
10
378.387300
20
132.500600
30
0.000000
11
378.387300
21
146.085900
31
0.000000
62
7
0
LINE
100
AcDbEntity
100
AcDbLine
8
PCL_Layer
5
121C
10
316.440200
20
146.085900
30
0.000000
11
330.025500
21
146.085900
31
0.000000
62
7
0
LINE
100
AcDbEntity
100
AcDbLine
8
PCL_Layer
5
121D
10
330.025500
20
146.085900
30
0.000000
11
330.025500
21
132.500600
31
0.000000
62
7
0
LINE
100
AcDbEntity
100
AcDbLine
8
PCL_Layer
5
121E
10
330.025500
20
132.500600
30
0.000000
11
316.440200
21
132.500600
31
0.000000
62
7
0
LINE
100
AcDbEntity
100
AcDbLine
8
PCL_Layer
5
121F
10
316.440200
20
132.500600
30
0.000000
11
316.440200
21
146.085900
31
0.000000
62
7
0
LINE
100
AcDbEntity
100
AcDbLine
8
PCL_Layer
5
1220
10
21.416300
20
122.042600
30
0.000000
11
21.916600
21
122.042600
31
0.000000
62
7
0
LINE
100
AcDbEntity
100
AcDbLine
8
PCL_Layer
5
1221
10
21.916600
20
122.042600
30
0.000000
11
21.916600
21
119.841000
31
0.000000
62
7
0
LINE
100
AcDbEntity
100
AcDbLine
8
PCL_Layer
5
1222
10
21.916600
20
119.841000
30
0.000000
11
21.416300
21
119.841000
31
0.000000
62
7
0
LINE
100
AcDbEntity
100
AcDbLine
8
PCL_Layer
5
1223
10
21.416300
20
119.841000
30
0.000000
11
21.416300
21
122.042600
31
0.000000
62
7
0
LINE
100
AcDbEntity
100
AcDbLine
8
PCL_Layer
5
1224
10
21.916600
20
125.720400
30
0.000000
11
28.121300
21
125.720400
31
0.000000
62
7
0
LINE
100
AcDbEntity
100
AcDbLine
8
PCL_Layer
5
1225
10
28.121300
20
125.720400
30
0.000000
11
28.121300
21
110.659000
31
0.000000
62
7
0
LINE
100
AcDbEntity
100
AcDbLine
8
PCL_Layer
5
1226
10
28.121300
20
110.659000
30
0.000000
11
21.916600
21
110.659000
31
0.000000
62
7
0
LINE
100
AcDbEntity
100
AcDbLine
8
PCL_Layer
5
1227
10
21.916600
20
110.659000
30
0.000000
11
21.916600
21
125.720400
31
0.000000
62
7
0
LINE
100
AcDbEntity
100
AcDbLine
8
PCL_Layer
5
1228
10
28.121300
20
122.042600
30
0.000000
11
28.621700
21
122.042600
31
0.000000
62
7
0
LINE
100
AcDbEntity
100
AcDbLine
8
PCL_Layer
5
1229
10
28.621700
20
122.042600
30
0.000000
11
28.621700
21
119.841000
31
0.000000
62
7
0
LINE
100
AcDbEntity
100
AcDbLine
8
PCL_Layer
5
122A
10
28.621700
20
119.841000
30
0.000000
11
28.121300
21
119.841000
31
0.000000
62
7
0
LINE
100
AcDbEntity
100
AcDbLine
8
PCL_Layer
5
122B
10
28.121300
20
119.841000
30
0.000000
11
28.121300
21
122.042600
31
0.000000
62
7
0
LINE
100
AcDbEntity
100
AcDbLine
8
PCL_Layer
5
122C
10
30.473100
20
127.021400
30
0.000000
11
44.058400
21
127.021400
31
0.000000
62
7
0
LINE
100
AcDbEntity
100
AcDbLine
8
PCL_Layer
5
122D
10
44.058400
20
127.021400
30
0.000000
11
44.058400
21
113.461100
31
0.000000
62
7
0
LINE
100
AcDbEntity
100
AcDbLine
8
PCL_Layer
5
122E
10
44.058400
20
113.461100
30
0.000000
11
30.473100
21
113.461100
31
0.000000
62
7
0
LINE
100
AcDbEntity
100
AcDbLine
8
PCL_Layer
5
122F
10
30.473100
20
113.461100
30
0.000000
11
30.473100
21
127.021400
31
0.000000
62
7
0
LINE
100
AcDbEntity
100
AcDbLine
8
PCL_Layer
5
1230
10
45.909900
20
122.017600
30
0.000000
11
46.410200
21
122.017600
31
0.000000
62
7
0
LINE
100
AcDbEntity
100
AcDbLine
8
PCL_Layer
5
1231
10
46.410200
20
122.017600
30
0.000000
11
46.410200
21
119.816000
31
0.000000
62
7
0
LINE
100
AcDbEntity
100
AcDbLine
8
PCL_Layer
5
1232
10
46.410200
20
119.816000
30
0.000000
11
45.909900
21
119.816000
31
0.000000
62
7
0
LINE
100
AcDbEntity
100
AcDbLine
8
PCL_Layer
5
1233
10
45.909900
20
119.816000
30
0.000000
11
45.909900
21
122.017600
31
0.000000
62
7
0
LINE
100
AcDbEntity
100
AcDbLine
8
PCL_Layer
5
1234
10
46.410200
20
125.720400
30
0.000000
11
52.614900
21
125.720400
31
0.000000
62
7
0
LINE
100
AcDbEntity
100
AcDbLine
8
PCL_Layer
5
1235
10
52.614900
20
125.720400
30
0.000000
11
52.614900
21
110.659000
31
0.000000
62
7
0
LINE
100
AcDbEntity
100
AcDbLine
8
PCL_Layer
5
1236
10
52.614900
20
110.659000
30
0.000000
11
46.410200
21
110.659000
31
0.000000
62
7
0
LINE
100
AcDbEntity
100
AcDbLine
8
PCL_Layer
5
1237
10
46.410200
20
110.659000
30
0.000000
11
46.410200
21
125.720400
31
0.000000
62
7
0
LINE
100
AcDbEntity
100
AcDbLine
8
PCL_Layer
5
1238
10
52.614900
20
122.017600
30
0.000000
11
53.115300
21
122.017600
31
0.000000
62
7
0
LINE
100
AcDbEntity
100
AcDbLine
8
PCL_Layer
5
1239
10
53.115300
20
122.017600
30
0.000000
11
53.115300
21
119.816000
31
0.000000
62
7
0
LINE
100
AcDbEntity
100
AcDbLine
8
PCL_Layer
5
123A
10
53.115300
20
119.816000
30
0.000000
11
52.614900
21
119.816000
31
0.000000
62
7
0
LINE
100
AcDbEntity
100
AcDbLine
8
PCL_Layer
5
123B
10
52.614900
20
119.816000
30
0.000000
11
52.614900
21
122.017600
31
0.000000
62
7
0
LINE
100
AcDbEntity
100
AcDbLine
8
PCL_Layer
5
123C
10
368.855000
20
88.892500
30
0.000000
11
382.440300
21
88.892500
31
0.000000
62
7
0
LINE
100
AcDbEntity
100
AcDbLine
8
PCL_Layer
5
123D
10
382.440300
20
88.892500
30
0.000000
11
382.440300
21
75.307200
31
0.000000
62
7
0
LINE
100
AcDbEntity
100
AcDbLine
8
PCL_Layer
5
123E
10
382.440300
20
75.307200
30
0.000000
11
368.855000
21
75.307200
31
0.000000
62
7
0
LINE
100
AcDbEntity
100
AcDbLine
8
PCL_Layer
5
123F
10
368.855000
20
75.307200
30
0.000000
11
368.855000
21
88.892500
31
0.000000
62
7
0
LINE
100
AcDbEntity
100
AcDbLine
8
PCL_Layer
5
1240
10
168.678100
20
127.021400
30
0.000000
11
182.263400
21
127.021400
31
0.000000
62
7
0
LINE
100
AcDbEntity
100
AcDbLine
8
PCL_Layer
5
1241
10
182.263400
20
127.021400
30
0.000000
11
182.263400
21
113.461100
31
0.000000
62
7
0
LINE
100
AcDbEntity
100
AcDbLine
8
PCL_Layer
5
1242
10
182.263400
20
113.461100
30
0.000000
11
168.678100
21
113.461100
31
0.000000
62
7
0
LINE
100
AcDbEntity
100
AcDbLine
8
PCL_Layer
5
1243
10
168.678100
20
113.461100
30
0.000000
11
168.678100
21
127.021400
31
0.000000
62
7
0
LINE
100
AcDbEntity
100
AcDbLine
8
PCL_Layer
5
1244
10
144.860000
20
146.085900
30
0.000000
11
158.445300
21
146.085900
31
0.000000
62
7
0
LINE
100
AcDbEntity
100
AcDbLine
8
PCL_Layer
5
1245
10
158.445300
20
146.085900
30
0.000000
11
158.445300
21
132.500600
31
0.000000
62
7
0
LINE
100
AcDbEntity
100
AcDbLine
8
PCL_Layer
5
1246
10
158.445300
20
132.500600
30
0.000000
11
144.860000
21
132.500600
31
0.000000
62
7
0
LINE
100
AcDbEntity
100
AcDbLine
8
PCL_Layer
5
1247
10
144.860000
20
132.500600
30
0.000000
11
144.860000
21
146.085900
31
0.000000
62
7
0
LINE
100
AcDbEntity
100
AcDbLine
8
PCL_Layer
5
1248
10
221.117800
20
146.085900
30
0.000000
11
234.703200
21
146.085900
31
0.000000
62
7
0
LINE
100
AcDbEntity
100
AcDbLine
8
PCL_Layer
5
1249
10
234.703200
20
146.085900
30
0.000000
11
234.703200
21
132.500600
31
0.000000
62
7
0
LINE
100
AcDbEntity
100
AcDbLine
8
PCL_Layer
5
124A
10
234.703200
20
132.500600
30
0.000000
11
221.117800
21
132.500600
31
0.000000
62
7
0
LINE
100
AcDbEntity
100
AcDbLine
8
PCL_Layer
5
124B
10
221.117800
20
132.500600
30
0.000000
11
221.117800
21
146.085900
31
0.000000
62
7
0
LINE
100
AcDbEntity
100
AcDbLine
8
PCL_Layer
5
124C
10
240.182300
20
146.085900
30
0.000000
11
253.767600
21
146.085900
31
0.000000
62
7
0
LINE
100
AcDbEntity
100
AcDbLine
8
PCL_Layer
5
124D
10
253.767600
20
146.085900
30
0.000000
11
253.767600
21
132.500600
31
0.000000
62
7
0
LINE
100
AcDbEntity
100
AcDbLine
8
PCL_Layer
5
124E
10
253.767600
20
132.500600
30
0.000000
11
240.182300
21
132.500600
31
0.000000
62
7
0
LINE
100
AcDbEntity
100
AcDbLine
8
PCL_Layer
5
124F
10
240.182300
20
132.500600
30
0.000000
11
240.182300
21
146.085900
31
0.000000
62
7
0
LINE
100
AcDbEntity
100
AcDbLine
8
PCL_Layer
5
1250
10
330.726100
20
107.956900
30
0.000000
11
344.311400
21
107.956900
31
0.000000
62
7
0
LINE
100
AcDbEntity
100
AcDbLine
8
PCL_Layer
5
1251
10
344.311400
20
107.956900
30
0.000000
11
344.311400
21
94.396700
31
0.000000
62
7
0
LINE
100
AcDbEntity
100
AcDbLine
8
PCL_Layer
5
1252
10
344.311400
20
94.396700
30
0.000000
11
330.726100
21
94.396700
31
0.000000
62
7
0
LINE
100
AcDbEntity
100
AcDbLine
8
PCL_Layer
5
1253
10
330.726100
20
94.396700
30
0.000000
11
330.726100
21
107.956900
31
0.000000
62
7
0
LINE
100
AcDbEntity
100
AcDbLine
8
PCL_Layer
5
1254
10
354.544200
20
107.956900
30
0.000000
11
368.129500
21
107.956900
31
0.000000
62
7
0
LINE
100
AcDbEntity
100
AcDbLine
8
PCL_Layer
5
1255
10
368.129500
20
107.956900
30
0.000000
11
368.129500
21
94.396700
31
0.000000
62
7
0
LINE
100
AcDbEntity
100
AcDbLine
8
PCL_Layer
5
1256
10
368.129500
20
94.396700
30
0.000000
11
354.544200
21
94.396700
31
0.000000
62
7
0
LINE
100
AcDbEntity
100
AcDbLine
8
PCL_Layer
5
1257
10
354.544200
20
94.396700
30
0.000000
11
354.544200
21
107.956900
31
0.000000
62
7
0
LINE
100
AcDbEntity
100
AcDbLine
8
PCL_Layer
5
1258
10
20.940900
20
165.150400
30
0.000000
11
34.526200
21
165.150400
31
0.000000
62
7
0
LINE
100
AcDbEntity
100
AcDbLine
8
PCL_Layer
5
1259
10
34.526200
20
165.150400
30
0.000000
11
34.526200
21
151.590100
31
0.000000
62
7
0
LINE
100
AcDbEntity
100
AcDbLine
8
PCL_Layer
5
125A
10
34.526200
20
151.590100
30
0.000000
11
20.940900
21
151.590100
31
0.000000
62
7
0
LINE
100
AcDbEntity
100
AcDbLine
8
PCL_Layer
5
125B
10
20.940900
20
151.590100
30
0.000000
11
20.940900
21
165.150400
31
0.000000
62
7
0
LINE
100
AcDbEntity
100
AcDbLine
8
PCL_Layer
5
125C
10
206.807000
20
127.021400
30
0.000000
11
220.392300
21
127.021400
31
0.000000
62
7
0
LINE
100
AcDbEntity
100
AcDbLine
8
PCL_Layer
5
125D
10
220.392300
20
127.021400
30
0.000000
11
220.392300
21
113.461100
31
0.000000
62
7
0
LINE
100
AcDbEntity
100
AcDbLine
8
PCL_Layer
5
125E
10
220.392300
20
113.461100
30
0.000000
11
206.807000
21
113.461100
31
0.000000
62
7
0
LINE
100
AcDbEntity
100
AcDbLine
8
PCL_Layer
5
125F
10
206.807000
20
113.461100
30
0.000000
11
206.807000
21
127.021400
31
0.000000
62
7
0
LINE
100
AcDbEntity
100
AcDbLine
8
PCL_Layer
5
1260
10
159.145800
20
107.956900
30
0.000000
11
172.731100
21
107.956900
31
0.000000
62
7
0
LINE
100
AcDbEntity
100
AcDbLine
8
PCL_Layer
5
1261
10
172.731100
20
107.956900
30
0.000000
11
172.731100
21
94.396700
31
0.000000
62
7
0
LINE
100
AcDbEntity
100
AcDbLine
8
PCL_Layer
5
1262
10
172.731100
20
94.396700
30
0.000000
11
159.145800
21
94.396700
31
0.000000
62
7
0
LINE
100
AcDbEntity
100
AcDbLine
8
PCL_Layer
5
1263
10
159.145800
20
94.396700
30
0.000000
11
159.145800
21
107.956900
31
0.000000
62
7
0
LINE
100
AcDbEntity
100
AcDbLine
8
PCL_Layer
5
1264
10
97.198800
20
165.150400
30
0.000000
11
110.784100
21
165.150400
31
0.000000
62
7
0
LINE
100
AcDbEntity
100
AcDbLine
8
PCL_Layer
5
1265
10
110.784100
20
165.150400
30
0.000000
11
110.784100
21
151.590100
31
0.000000
62
7
0
LINE
100
AcDbEntity
100
AcDbLine
8
PCL_Layer
5
1266
10
110.784100
20
151.590100
30
0.000000
11
97.198800
21
151.590100
31
0.000000
62
7
0
LINE
100
AcDbEntity
100
AcDbLine
8
PCL_Layer
5
1267
10
97.198800
20
151.590100
30
0.000000
11
97.198800
21
165.150400
31
0.000000
62
7
0
LINE
100
AcDbEntity
100
AcDbLine
8
PCL_Layer
5
1268
10
59.545200
20
122.042600
30
0.000000
11
60.045600
21
122.042600
31
0.000000
62
7
0
LINE
100
AcDbEntity
100
AcDbLine
8
PCL_Layer
5
1269
10
60.045600
20
122.042600
30
0.000000
11
60.045600
21
119.841000
31
0.000000
62
7
0
LINE
100
AcDbEntity
100
AcDbLine
8
PCL_Layer
5
126A
10
60.045600
20
119.841000
30
0.000000
11
59.545200
21
119.841000
31
0.000000
62
7
0
LINE
100
AcDbEntity
100
AcDbLine
8
PCL_Layer
5
126B
10
59.545200
20
119.841000
30
0.000000
11
59.545200
21
122.042600
31
0.000000
62
7
0
LINE
100
AcDbEntity
100
AcDbLine
8
PCL_Layer
5
126C
10
60.045600
20
125.720400
30
0.000000
11
66.250300
21
125.720400
31
0.000000
62
7
0
LINE
100
AcDbEntity
100
AcDbLine
8
PCL_Layer
5
126D
10
66.250300
20
125.720400
30
0.000000
11
66.250300
21
110.659000
31
0.000000
62
7
0
LINE
100
AcDbEntity
100
AcDbLine
8
PCL_Layer
5
126E
10
66.250300
20
110.659000
30
0.000000
11
60.045600
21
110.659000
31
0.000000
62
7
0
LINE
100
AcDbEntity
100
AcDbLine
8
PCL_Layer
5
126F
10
60.045600
20
110.659000
30
0.000000
11
60.045600
21
125.720400
31
0.000000
62
7
0
LINE
100
AcDbEntity
100
AcDbLine
8
PCL_Layer
5
1270
10
66.250300
20
122.042600
30
0.000000
11
66.750700
21
122.042600
31
0.000000
62
7
0
LINE
100
AcDbEntity
100
AcDbLine
8
PCL_Layer
5
1271
10
66.750700
20
122.042600
30
0.000000
11
66.750700
21
119.841000
31
0.000000
62
7
0
LINE
100
AcDbEntity
100
AcDbLine
8
PCL_Layer
5
1272
10
66.750700
20
119.841000
30
0.000000
11
66.250300
21
119.841000
31
0.000000
62
7
0
LINE
100
AcDbEntity
100
AcDbLine
8
PCL_Layer
5
1273
10
66.250300
20
119.841000
30
0.000000
11
66.250300
21
122.042600
31
0.000000
62
7
0
LINE
100
AcDbEntity
100
AcDbLine
8
PCL_Layer
5
1274
10
68.602100
20
127.021400
30
0.000000
11
82.187400
21
127.021400
31
0.000000
62
7
0
LINE
100
AcDbEntity
100
AcDbLine
8
PCL_Layer
5
1275
10
82.187400
20
127.021400
30
0.000000
11
82.187400
21
113.461100
31
0.000000
62
7
0
LINE
100
AcDbEntity
100
AcDbLine
8
PCL_Layer
5
1276
10
82.187400
20
113.461100
30
0.000000
11
68.602100
21
113.461100
31
0.000000
62
7
0
LINE
100
AcDbEntity
100
AcDbLine
8
PCL_Layer
5
1277
10
68.602100
20
113.461100
30
0.000000
11
68.602100
21
127.021400
31
0.000000
62
7
0
LINE
100
AcDbEntity
100
AcDbLine
8
PCL_Layer
5
1278
10
84.038800
20
122.017600
30
0.000000
11
84.539200
21
122.017600
31
0.000000
62
7
0
LINE
100
AcDbEntity
100
AcDbLine
8
PCL_Layer
5
1279
10
84.539200
20
122.017600
30
0.000000
11
84.539200
21
119.816000
31
0.000000
62
7
0
LINE
100
AcDbEntity
100
AcDbLine
8
PCL_Layer
5
127A
10
84.539200
20
119.816000
30
0.000000
11
84.038800
21
119.816000
31
0.000000
62
7
0
LINE
100
AcDbEntity
100
AcDbLine
8
PCL_Layer
5
127B
10
84.038800
20
119.816000
30
0.000000
11
84.038800
21
122.017600
31
0.000000
62
7
0
LINE
100
AcDbEntity
100
AcDbLine
8
PCL_Layer
5
127C
10
84.539200
20
125.720400
30
0.000000
11
90.743900
21
125.720400
31
0.000000
62
7
0
LINE
100
AcDbEntity
100
AcDbLine
8
PCL_Layer
5
127D
10
90.743900
20
125.720400
30
0.000000
11
90.743900
21
110.659000
31
0.000000
62
7
0
LINE
100
AcDbEntity
100
AcDbLine
8
PCL_Layer
5
127E
10
90.743900
20
110.659000
30
0.000000
11
84.539200
21
110.659000
31
0.000000
62
7
0
LINE
100
AcDbEntity
100
AcDbLine
8
PCL_Layer
5
127F
10
84.539200
20
110.659000
30
0.000000
11
84.539200
21
125.720400
31
0.000000
62
7
0
LINE
100
AcDbEntity
100
AcDbLine
8
PCL_Layer
5
1280
10
90.743900
20
122.017600
30
0.000000
11
91.244300
21
122.017600
31
0.000000
62
7
0
LINE
100
AcDbEntity
100
AcDbLine
8
PCL_Layer
5
1281
10
91.244300
20
122.017600
30
0.000000
11
91.244300
21
119.816000
31
0.000000
62
7
0
LINE
100
AcDbEntity
100
AcDbLine
8
PCL_Layer
5
1282
10
91.244300
20
119.816000
30
0.000000
11
90.743900
21
119.816000
31
0.000000
62
7
0
LINE
100
AcDbEntity
100
AcDbLine
8
PCL_Layer
5
1283
10
90.743900
20
119.816000
30
0.000000
11
90.743900
21
122.017600
31
0.000000
62
7
0
LINE
100
AcDbEntity
100
AcDbLine
8
PCL_Layer
5
1284
10
216.339200
20
107.956900
30
0.000000
11
229.924500
21
107.956900
31
0.000000
62
7
0
LINE
100
AcDbEntity
100
AcDbLine
8
PCL_Layer
5
1285
10
229.924500
20
107.956900
30
0.000000
11
229.924500
21
94.396700
31
0.000000
62
7
0
LINE
100
AcDbEntity
100
AcDbLine
8
PCL_Layer
5
1286
10
229.924500
20
94.396700
30
0.000000
11
216.339200
21
94.396700
31
0.000000
62
7
0
LINE
100
AcDbEntity
100
AcDbLine
8
PCL_Layer
5
1287
10
216.339200
20
94.396700
30
0.000000
11
216.339200
21
107.956900
31
0.000000
62
7
0
LINE
100
AcDbEntity
100
AcDbLine
8
PCL_Layer
5
1288
10
440.359300
20
165.150400
30
0.000000
11
453.944600
21
165.150400
31
0.000000
62
7
0
LINE
100
AcDbEntity
100
AcDbLine
8
PCL_Layer
5
1289
10
453.944600
20
165.150400
30
0.000000
11
453.944600
21
151.590100
31
0.000000
62
7
0
LINE
100
AcDbEntity
100
AcDbLine
8
PCL_Layer
5
128A
10
453.944600
20
151.590100
30
0.000000
11
440.359300
21
151.590100
31
0.000000
62
7
0
LINE
100
AcDbEntity
100
AcDbLine
8
PCL_Layer
5
128B
10
440.359300
20
151.590100
30
0.000000
11
440.359300
21
165.150400
31
0.000000
62
7
0
LINE
100
AcDbEntity
100
AcDbLine
8
PCL_Layer
5
128C
10
264.000400
20
127.021400
30
0.000000
11
277.585700
21
127.021400
31
0.000000
62
7
0
LINE
100
AcDbEntity
100
AcDbLine
8
PCL_Layer
5
128D
10
277.585700
20
127.021400
30
0.000000
11
277.585700
21
113.461100
31
0.000000
62
7
0
LINE
100
AcDbEntity
100
AcDbLine
8
PCL_Layer
5
128E
10
277.585700
20
113.461100
30
0.000000
11
264.000400
21
113.461100
31
0.000000
62
7
0
LINE
100
AcDbEntity
100
AcDbLine
8
PCL_Layer
5
128F
10
264.000400
20
113.461100
30
0.000000
11
264.000400
21
127.021400
31
0.000000
62
7
0
LINE
100
AcDbEntity
100
AcDbLine
8
PCL_Layer
5
1290
10
440.834700
20
122.042600
30
0.000000
11
441.335000
21
122.042600
31
0.000000
62
7
0
LINE
100
AcDbEntity
100
AcDbLine
8
PCL_Layer
5
1291
10
441.335000
20
122.042600
30
0.000000
11
441.335000
21
119.841000
31
0.000000
62
7
0
LINE
100
AcDbEntity
100
AcDbLine
8
PCL_Layer
5
1292
10
441.335000
20
119.841000
30
0.000000
11
440.834700
21
119.841000
31
0.000000
62
7
0
LINE
100
AcDbEntity
100
AcDbLine
8
PCL_Layer
5
1293
10
440.834700
20
119.841000
30
0.000000
11
440.834700
21
122.042600
31
0.000000
62
7
0
LINE
100
AcDbEntity
100
AcDbLine
8
PCL_Layer
5
1294
10
441.335000
20
125.720400
30
0.000000
11
447.539700
21
125.720400
31
0.000000
62
7
0
LINE
100
AcDbEntity
100
AcDbLine
8
PCL_Layer
5
1295
10
447.539700
20
125.720400
30
0.000000
11
447.539700
21
110.659000
31
0.000000
62
7
0
LINE
100
AcDbEntity
100
AcDbLine
8
PCL_Layer
5
1296
10
447.539700
20
110.659000
30
0.000000
11
441.335000
21
110.659000
31
0.000000
62
7
0
LINE
100
AcDbEntity
100
AcDbLine
8
PCL_Layer
5
1297
10
441.335000
20
110.659000
30
0.000000
11
441.335000
21
125.720400
31
0.000000
62
7
0
LINE
100
AcDbEntity
100
AcDbLine
8
PCL_Layer
5
1298
10
447.539700
20
122.042600
30
0.000000
11
448.040100
21
122.042600
31
0.000000
62
7
0
LINE
100
AcDbEntity
100
AcDbLine
8
PCL_Layer
5
1299
10
448.040100
20
122.042600
30
0.000000
11
448.040100
21
119.841000
31
0.000000
62
7
0
LINE
100
AcDbEntity
100
AcDbLine
8
PCL_Layer
5
129A
10
448.040100
20
119.841000
30
0.000000
11
447.539700
21
119.841000
31
0.000000
62
7
0
LINE
100
AcDbEntity
100
AcDbLine
8
PCL_Layer
5
129B
10
447.539700
20
119.841000
30
0.000000
11
447.539700
21
122.042600
31
0.000000
62
7
0
LINE
100
AcDbEntity
100
AcDbLine
8
PCL_Layer
5
129C
10
449.891500
20
127.021400
30
0.000000
11
463.476800
21
127.021400
31
0.000000
62
7
0
LINE
100
AcDbEntity
100
AcDbLine
8
PCL_Layer
5
129D
10
463.476800
20
127.021400
30
0.000000
11
463.476800
21
113.461100
31
0.000000
62
7
0
LINE
100
AcDbEntity
100
AcDbLine
8
PCL_Layer
5
129E
10
463.476800
20
113.461100
30
0.000000
11
449.891500
21
113.461100
31
0.000000
62
7
0
LINE
100
AcDbEntity
100
AcDbLine
8
PCL_Layer
5
129F
10
449.891500
20
113.461100
30
0.000000
11
449.891500
21
127.021400
31
0.000000
62
7
0
LINE
100
AcDbEntity
100
AcDbLine
8
PCL_Layer
5
12A0
10
465.328200
20
122.017600
30
0.000000
11
465.828600
21
122.017600
31
0.000000
62
7
0
LINE
100
AcDbEntity
100
AcDbLine
8
PCL_Layer
5
12A1
10
465.828600
20
122.017600
30
0.000000
11
465.828600
21
119.816000
31
0.000000
62
7
0
LINE
100
AcDbEntity
100
AcDbLine
8
PCL_Layer
5
12A2
10
465.828600
20
119.816000
30
0.000000
11
465.328200
21
119.816000
31
0.000000
62
7
0
LINE
100
AcDbEntity
100
AcDbLine
8
PCL_Layer
5
12A3
10
465.328200
20
119.816000
30
0.000000
11
465.328200
21
122.017600
31
0.000000
62
7
0
LINE
100
AcDbEntity
100
AcDbLine
8
PCL_Layer
5
12A4
10
465.828600
20
125.720400
30
0.000000
11
472.033300
21
125.720400
31
0.000000
62
7
0
LINE
100
AcDbEntity
100
AcDbLine
8
PCL_Layer
5
12A5
10
472.033300
20
125.720400
30
0.000000
11
472.033300
21
110.659000
31
0.000000
62
7
0
LINE
100
AcDbEntity
100
AcDbLine
8
PCL_Layer
5
12A6
10
472.033300
20
110.659000
30
0.000000
11
465.828600
21
110.659000
31
0.000000
62
7
0
LINE
100
AcDbEntity
100
AcDbLine
8
PCL_Layer
5
12A7
10
465.828600
20
110.659000
30
0.000000
11
465.828600
21
125.720400
31
0.000000
62
7
0
LINE
100
AcDbEntity
100
AcDbLine
8
PCL_Layer
5
12A8
10
472.033300
20
122.017600
30
0.000000
11
472.533700
21
122.017600
31
0.000000
62
7
0
LINE
100
AcDbEntity
100
AcDbLine
8
PCL_Layer
5
12A9
10
472.533700
20
122.017600
30
0.000000
11
472.533700
21
119.816000
31
0.000000
62
7
0
LINE
100
AcDbEntity
100
AcDbLine
8
PCL_Layer
5
12AA
10
472.533700
20
119.816000
30
0.000000
11
472.033300
21
119.816000
31
0.000000
62
7
0
LINE
100
AcDbEntity
100
AcDbLine
8
PCL_Layer
5
12AB
10
472.033300
20
119.816000
30
0.000000
11
472.033300
21
122.017600
31
0.000000
62
7
0
LINE
100
AcDbEntity
100
AcDbLine
8
PCL_Layer
5
12AC
10
101.952400
20
146.085900
30
0.000000
11
115.537700
21
146.085900
31
0.000000
62
7
0
LINE
100
AcDbEntity
100
AcDbLine
8
PCL_Layer
5
12AD
10
115.537700
20
146.085900
30
0.000000
11
115.537700
21
132.500600
31
0.000000
62
7
0
LINE
100
AcDbEntity
100
AcDbLine
8
PCL_Layer
5
12AE
10
115.537700
20
132.500600
30
0.000000
11
101.952400
21
132.500600
31
0.000000
62
7
0
LINE
100
AcDbEntity
100
AcDbLine
8
PCL_Layer
5
12AF
10
101.952400
20
132.500600
30
0.000000
11
101.952400
21
146.085900
31
0.000000
62
7
0
LINE
100
AcDbEntity
100
AcDbLine
8
PCL_Layer
5
12B0
10
254.468200
20
107.956900
30
0.000000
11
268.053500
21
107.956900
31
0.000000
62
7
0
LINE
100
AcDbEntity
100
AcDbLine
8
PCL_Layer
5
12B1
10
268.053500
20
107.956900
30
0.000000
11
268.053500
21
94.396700
31
0.000000
62
7
0
LINE
100
AcDbEntity
100
AcDbLine
8
PCL_Layer
5
12B2
10
268.053500
20
94.396700
30
0.000000
11
254.468200
21
94.396700
31
0.000000
62
7
0
LINE
100
AcDbEntity
100
AcDbLine
8
PCL_Layer
5
12B3
10
254.468200
20
94.396700
30
0.000000
11
254.468200
21
107.956900
31
0.000000
62
7
0
LINE
100
AcDbEntity
100
AcDbLine
8
PCL_Layer
5
12B4
10
240.182300
20
88.892500
30
0.000000
11
253.767600
21
88.892500
31
0.000000
62
7
0
LINE
100
AcDbEntity
100
AcDbLine
8
PCL_Layer
5
12B5
10
253.767600
20
88.892500
30
0.000000
11
253.767600
21
75.307200
31
0.000000
62
7
0
LINE
100
AcDbEntity
100
AcDbLine
8
PCL_Layer
5
12B6
10
253.767600
20
75.307200
30
0.000000
11
240.182300
21
75.307200
31
0.000000
62
7
0
LINE
100
AcDbEntity
100
AcDbLine
8
PCL_Layer
5
12B7
10
240.182300
20
75.307200
30
0.000000
11
240.182300
21
88.892500
31
0.000000
62
7
0
LINE
100
AcDbEntity
100
AcDbLine
8
PCL_Layer
5
12B8
10
263.975400
20
88.892500
30
0.000000
11
277.560700
21
88.892500
31
0.000000
62
7
0
LINE
100
AcDbEntity
100
AcDbLine
8
PCL_Layer
5
12B9
10
277.560700
20
88.892500
30
0.000000
11
277.560700
21
75.307200
31
0.000000
62
7
0
LINE
100
AcDbEntity
100
AcDbLine
8
PCL_Layer
5
12BA
10
277.560700
20
75.307200
30
0.000000
11
263.975400
21
75.307200
31
0.000000
62
7
0
LINE
100
AcDbEntity
100
AcDbLine
8
PCL_Layer
5
12BB
10
263.975400
20
75.307200
30
0.000000
11
263.975400
21
88.892500
31
0.000000
62
7
0
LINE
100
AcDbEntity
100
AcDbLine
8
PCL_Layer
5
12BC
10
192.521100
20
88.917500
30
0.000000
11
206.106500
21
88.917500
31
0.000000
62
7
0
LINE
100
AcDbEntity
100
AcDbLine
8
PCL_Layer
5
12BD
10
206.106500
20
88.917500
30
0.000000
11
206.106500
21
75.307200
31
0.000000
62
7
0
LINE
100
AcDbEntity
100
AcDbLine
8
PCL_Layer
5
12BE
10
206.106500
20
75.307200
30
0.000000
11
192.521100
21
75.307200
31
0.000000
62
7
0
LINE
100
AcDbEntity
100
AcDbLine
8
PCL_Layer
5
12BF
10
192.521100
20
75.307200
30
0.000000
11
192.521100
21
88.917500
31
0.000000
62
7
0
LINE
100
AcDbEntity
100
AcDbLine
8
PCL_Layer
5
12C0
10
216.364300
20
88.917500
30
0.000000
11
229.924500
21
88.917500
31
0.000000
62
7
0
LINE
100
AcDbEntity
100
AcDbLine
8
PCL_Layer
5
12C1
10
229.924500
20
88.917500
30
0.000000
11
229.924500
21
75.307200
31
0.000000
62
7
0
LINE
100
AcDbEntity
100
AcDbLine
8
PCL_Layer
5
12C2
10
229.924500
20
75.307200
30
0.000000
11
216.364300
21
75.307200
31
0.000000
62
7
0
LINE
100
AcDbEntity
100
AcDbLine
8
PCL_Layer
5
12C3
10
216.364300
20
75.307200
30
0.000000
11
216.364300
21
88.917500
31
0.000000
62
7
0
LINE
100
AcDbEntity
100
AcDbLine
8
PCL_Layer
5
12C4
10
383.165900
20
165.150400
30
0.000000
11
396.751200
21
165.150400
31
0.000000
62
7
0
LINE
100
AcDbEntity
100
AcDbLine
8
PCL_Layer
5
12C5
10
396.751200
20
165.150400
30
0.000000
11
396.751200
21
151.590100
31
0.000000
62
7
0
LINE
100
AcDbEntity
100
AcDbLine
8
PCL_Layer
5
12C6
10
396.751200
20
151.590100
30
0.000000
11
383.165900
21
151.590100
31
0.000000
62
7
0
LINE
100
AcDbEntity
100
AcDbLine
8
PCL_Layer
5
12C7
10
383.165900
20
151.590100
30
0.000000
11
383.165900
21
165.150400
31
0.000000
62
7
0
LINE
100
AcDbEntity
100
AcDbLine
8
PCL_Layer
5
12C8
10
82.887900
20
88.892500
30
0.000000
11
96.473200
21
88.892500
31
0.000000
62
7
0
LINE
100
AcDbEntity
100
AcDbLine
8
PCL_Layer
5
12C9
10
96.473200
20
88.892500
30
0.000000
11
96.473200
21
75.307200
31
0.000000
62
7
0
LINE
100
AcDbEntity
100
AcDbLine
8
PCL_Layer
5
12CA
10
96.473200
20
75.307200
30
0.000000
11
82.887900
21
75.307200
31
0.000000
62
7
0
LINE
100
AcDbEntity
100
AcDbLine
8
PCL_Layer
5
12CB
10
82.887900
20
75.307200
30
0.000000
11
82.887900
21
88.892500
31
0.000000
62
7
0
LINE
100
AcDbEntity
100
AcDbLine
8
PCL_Layer
5
12CC
10
402.705700
20
179.236100
30
0.000000
11
403.206100
21
179.236100
31
0.000000
62
7
0
LINE
100
AcDbEntity
100
AcDbLine
8
PCL_Layer
5
12CD
10
403.206100
20
179.236100
30
0.000000
11
403.206100
21
177.034400
31
0.000000
62
7
0
LINE
100
AcDbEntity
100
AcDbLine
8
PCL_Layer
5
12CE
10
403.206100
20
177.034400
30
0.000000
11
402.705700
21
177.034400
31
0.000000
62
7
0
LINE
100
AcDbEntity
100
AcDbLine
8
PCL_Layer
5
12CF
10
402.705700
20
177.034400
30
0.000000
11
402.705700
21
179.236100
31
0.000000
62
7
0
LINE
100
AcDbEntity
100
AcDbLine
8
PCL_Layer
5
12D0
10
403.206100
20
182.913800
30
0.000000
11
409.410800
21
182.913800
31
0.000000
62
7
0
LINE
100
AcDbEntity
100
AcDbLine
8
PCL_Layer
5
12D1
10
409.410800
20
182.913800
30
0.000000
11
409.410800
21
167.852400
31
0.000000
62
7
0
LINE
100
AcDbEntity
100
AcDbLine
8
PCL_Layer
5
12D2
10
409.410800
20
167.852400
30
0.000000
11
403.206100
21
167.852400
31
0.000000
62
7
0
LINE
100
AcDbEntity
100
AcDbLine
8
PCL_Layer
5
12D3
10
403.206100
20
167.852400
30
0.000000
11
403.206100
21
182.913800
31
0.000000
62
7
0
LINE
100
AcDbEntity
100
AcDbLine
8
PCL_Layer
5
12D4
10
409.410800
20
179.236100
30
0.000000
11
409.911200
21
179.236100
31
0.000000
62
7
0
LINE
100
AcDbEntity
100
AcDbLine
8
PCL_Layer
5
12D5
10
409.911200
20
179.236100
30
0.000000
11
409.911200
21
177.034400
31
0.000000
62
7
0
LINE
100
AcDbEntity
100
AcDbLine
8
PCL_Layer
5
12D6
10
409.911200
20
177.034400
30
0.000000
11
409.410800
21
177.034400
31
0.000000
62
7
0
LINE
100
AcDbEntity
100
AcDbLine
8
PCL_Layer
5
12D7
10
409.410800
20
177.034400
30
0.000000
11
409.410800
21
179.236100
31
0.000000
62
7
0
LINE
100
AcDbEntity
100
AcDbLine
8
PCL_Layer
5
12D8
10
411.762600
20
184.214800
30
0.000000
11
425.347900
21
184.214800
31
0.000000
62
7
0
LINE
100
AcDbEntity
100
AcDbLine
8
PCL_Layer
5
12D9
10
425.347900
20
184.214800
30
0.000000
11
425.347900
21
170.654500
31
0.000000
62
7
0
LINE
100
AcDbEntity
100
AcDbLine
8
PCL_Layer
5
12DA
10
425.347900
20
170.654500
30
0.000000
11
411.762600
21
170.654500
31
0.000000
62
7
0
LINE
100
AcDbEntity
100
AcDbLine
8
PCL_Layer
5
12DB
10
411.762600
20
170.654500
30
0.000000
11
411.762600
21
184.214800
31
0.000000
62
7
0
LINE
100
AcDbEntity
100
AcDbLine
8
PCL_Layer
5
12DC
10
427.199300
20
179.211000
30
0.000000
11
427.699700
21
179.211000
31
0.000000
62
7
0
LINE
100
AcDbEntity
100
AcDbLine
8
PCL_Layer
5
12DD
10
427.699700
20
179.211000
30
0.000000
11
427.699700
21
177.009400
31
0.000000
62
7
0
LINE
100
AcDbEntity
100
AcDbLine
8
PCL_Layer
5
12DE
10
427.699700
20
177.009400
30
0.000000
11
427.199300
21
177.009400
31
0.000000
62
7
0
LINE
100
AcDbEntity
100
AcDbLine
8
PCL_Layer
5
12DF
10
427.199300
20
177.009400
30
0.000000
11
427.199300
21
179.211000
31
0.000000
62
7
0
LINE
100
AcDbEntity
100
AcDbLine
8
PCL_Layer
5
12E0
10
427.699700
20
182.913800
30
0.000000
11
433.904400
21
182.913800
31
0.000000
62
7
0
LINE
100
AcDbEntity
100
AcDbLine
8
PCL_Layer
5
12E1
10
433.904400
20
182.913800
30
0.000000
11
433.904400
21
167.852400
31
0.000000
62
7
0
LINE
100
AcDbEntity
100
AcDbLine
8
PCL_Layer
5
12E2
10
433.904400
20
167.852400
30
0.000000
11
427.699700
21
167.852400
31
0.000000
62
7
0
LINE
100
AcDbEntity
100
AcDbLine
8
PCL_Layer
5
12E3
10
427.699700
20
167.852400
30
0.000000
11
427.699700
21
182.913800
31
0.000000
62
7
0
LINE
100
AcDbEntity
100
AcDbLine
8
PCL_Layer
5
12E4
10
433.904400
20
179.211000
30
0.000000
11
434.404800
21
179.211000
31
0.000000
62
7
0
LINE
100
AcDbEntity
100
AcDbLine
8
PCL_Layer
5
12E5
10
434.404800
20
179.211000
30
0.000000
11
434.404800
21
177.009400
31
0.000000
62
7
0
LINE
100
AcDbEntity
100
AcDbLine
8
PCL_Layer
5
12E6
10
434.404800
20
177.009400
30
0.000000
11
433.904400
21
177.009400
31
0.000000
62
7
0
LINE
100
AcDbEntity
100
AcDbLine
8
PCL_Layer
5
12E7
10
433.904400
20
177.009400
30
0.000000
11
433.904400
21
179.211000
31
0.000000
62
7
0
LINE
100
AcDbEntity
100
AcDbLine
8
PCL_Layer
5
12E8
10
249.714600
20
165.150400
30
0.000000
11
263.299900
21
165.150400
31
0.000000
62
7
0
LINE
100
AcDbEntity
100
AcDbLine
8
PCL_Layer
5
12E9
10
263.299900
20
165.150400
30
0.000000
11
263.299900
21
151.590100
31
0.000000
62
7
0
LINE
100
AcDbEntity
100
AcDbLine
8
PCL_Layer
5
12EA
10
263.299900
20
151.590100
30
0.000000
11
249.714600
21
151.590100
31
0.000000
62
7
0
LINE
100
AcDbEntity
100
AcDbLine
8
PCL_Layer
5
12EB
10
249.714600
20
151.590100
30
0.000000
11
249.714600
21
165.150400
31
0.000000
62
7
0
LINE
100
AcDbEntity
100
AcDbLine
8
PCL_Layer
5
12EC
10
225.871500
20
127.021400
30
0.000000
11
239.456800
21
127.021400
31
0.000000
62
7
0
LINE
100
AcDbEntity
100
AcDbLine
8
PCL_Layer
5
12ED
10
239.456800
20
127.021400
30
0.000000
11
239.456800
21
113.461100
31
0.000000
62
7
0
LINE
100
AcDbEntity
100
AcDbLine
8
PCL_Layer
5
12EE
10
239.456800
20
113.461100
30
0.000000
11
225.871500
21
113.461100
31
0.000000
62
7
0
LINE
100
AcDbEntity
100
AcDbLine
8
PCL_Layer
5
12EF
10
225.871500
20
113.461100
30
0.000000
11
225.871500
21
127.021400
31
0.000000
62
7
0
LINE
100
AcDbEntity
100
AcDbLine
8
PCL_Layer
5
12F0
10
244.935900
20
127.021400
30
0.000000
11
258.521200
21
127.021400
31
0.000000
62
7
0
LINE
100
AcDbEntity
100
AcDbLine
8
PCL_Layer
5
12F1
10
258.521200
20
127.021400
30
0.000000
11
258.521200
21
113.461100
31
0.000000
62
7
0
LINE
100
AcDbEntity
100
AcDbLine
8
PCL_Layer
5
12F2
10
258.521200
20
113.461100
30
0.000000
11
244.935900
21
113.461100
31
0.000000
62
7
0
LINE
100
AcDbEntity
100
AcDbLine
8
PCL_Layer
5
12F3
10
244.935900
20
113.461100
30
0.000000
11
244.935900
21
127.021400
31
0.000000
62
7
0
LINE
100
AcDbEntity
100
AcDbLine
8
PCL_Layer
5
12F4
10
212.061000
20
179.236100
30
0.000000
11
212.561400
21
179.236100
31
0.000000
62
7
0
LINE
100
AcDbEntity
100
AcDbLine
8
PCL_Layer
5
12F5
10
212.561400
20
179.236100
30
0.000000
11
212.561400
21
177.034400
31
0.000000
62
7
0
LINE
100
AcDbEntity
100
AcDbLine
8
PCL_Layer
5
12F6
10
212.561400
20
177.034400
30
0.000000
11
212.061000
21
177.034400
31
0.000000
62
7
0
LINE
100
AcDbEntity
100
AcDbLine
8
PCL_Layer
5
12F7
10
212.061000
20
177.034400
30
0.000000
11
212.061000
21
179.236100
31
0.000000
62
7
0
LINE
100
AcDbEntity
100
AcDbLine
8
PCL_Layer
5
12F8
10
212.561400
20
182.913800
30
0.000000
11
218.766100
21
182.913800
31
0.000000
62
7
0
LINE
100
AcDbEntity
100
AcDbLine
8
PCL_Layer
5
12F9
10
218.766100
20
182.913800
30
0.000000
11
218.766100
21
167.852400
31
0.000000
62
7
0
LINE
100
AcDbEntity
100
AcDbLine
8
PCL_Layer
5
12FA
10
218.766100
20
167.852400
30
0.000000
11
212.561400
21
167.852400
31
0.000000
62
7
0
LINE
100
AcDbEntity
100
AcDbLine
8
PCL_Layer
5
12FB
10
212.561400
20
167.852400
30
0.000000
11
212.561400
21
182.913800
31
0.000000
62
7
0
LINE
100
AcDbEntity
100
AcDbLine
8
PCL_Layer
5
12FC
10
218.766100
20
179.236100
30
0.000000
11
219.266400
21
179.236100
31
0.000000
62
7
0
LINE
100
AcDbEntity
100
AcDbLine
8
PCL_Layer
5
12FD
10
219.266400
20
179.236100
30
0.000000
11
219.266400
21
177.034400
31
0.000000
62
7
0
LINE
100
AcDbEntity
100
AcDbLine
8
PCL_Layer
5
12FE
10
219.266400
20
177.034400
30
0.000000
11
218.766100
21
177.034400
31
0.000000
62
7
0
LINE
100
AcDbEntity
100
AcDbLine
8
PCL_Layer
5
12FF
10
218.766100
20
177.034400
30
0.000000
11
218.766100
21
179.236100
31
0.000000
62
7
0
LINE
100
AcDbEntity
100
AcDbLine
8
PCL_Layer
5
1300
10
221.117800
20
184.214800
30
0.000000
11
234.703200
21
184.214800
31
0.000000
62
7
0
LINE
100
AcDbEntity
100
AcDbLine
8
PCL_Layer
5
1301
10
234.703200
20
184.214800
30
0.000000
11
234.703200
21
170.654500
31
0.000000
62
7
0
LINE
100
AcDbEntity
100
AcDbLine
8
PCL_Layer
5
1302
10
234.703200
20
170.654500
30
0.000000
11
221.117800
21
170.654500
31
0.000000
62
7
0
LINE
100
AcDbEntity
100
AcDbLine
8
PCL_Layer
5
1303
10
221.117800
20
170.654500
30
0.000000
11
221.117800
21
184.214800
31
0.000000
62
7
0
LINE
100
AcDbEntity
100
AcDbLine
8
PCL_Layer
5
1304
10
236.554600
20
179.211000
30
0.000000
11
237.055000
21
179.211000
31
0.000000
62
7
0
LINE
100
AcDbEntity
100
AcDbLine
8
PCL_Layer
5
1305
10
237.055000
20
179.211000
30
0.000000
11
237.055000
21
177.009400
31
0.000000
62
7
0
LINE
100
AcDbEntity
100
AcDbLine
8
PCL_Layer
5
1306
10
237.055000
20
177.009400
30
0.000000
11
236.554600
21
177.009400
31
0.000000
62
7
0
LINE
100
AcDbEntity
100
AcDbLine
8
PCL_Layer
5
1307
10
236.554600
20
177.009400
30
0.000000
11
236.554600
21
179.211000
31
0.000000
62
7
0
LINE
100
AcDbEntity
100
AcDbLine
8
PCL_Layer
5
1308
10
237.055000
20
182.913800
30
0.000000
11
243.259700
21
182.913800
31
0.000000
62
7
0
LINE
100
AcDbEntity
100
AcDbLine
8
PCL_Layer
5
1309
10
243.259700
20
182.913800
30
0.000000
11
243.259700
21
167.852400
31
0.000000
62
7
0
LINE
100
AcDbEntity
100
AcDbLine
8
PCL_Layer
5
130A
10
243.259700
20
167.852400
30
0.000000
11
237.055000
21
167.852400
31
0.000000
62
7
0
LINE
100
AcDbEntity
100
AcDbLine
8
PCL_Layer
5
130B
10
237.055000
20
167.852400
30
0.000000
11
237.055000
21
182.913800
31
0.000000
62
7
0
LINE
100
AcDbEntity
100
AcDbLine
8
PCL_Layer
5
130C
10
243.259700
20
179.211000
30
0.000000
11
243.760000
21
179.211000
31
0.000000
62
7
0
LINE
100
AcDbEntity
100
AcDbLine
8
PCL_Layer
5
130D
10
243.760000
20
179.211000
30
0.000000
11
243.760000
21
177.009400
31
0.000000
62
7
0
LINE
100
AcDbEntity
100
AcDbLine
8
PCL_Layer
5
130E
10
243.760000
20
177.009400
30
0.000000
11
243.259700
21
177.009400
31
0.000000
62
7
0
LINE
100
AcDbEntity
100
AcDbLine
8
PCL_Layer
5
130F
10
243.259700
20
177.009400
30
0.000000
11
243.259700
21
179.211000
31
0.000000
62
7
0
LINE
100
AcDbEntity
100
AcDbLine
8
PCL_Layer
5
1310
10
182.988900
20
146.085900
30
0.000000
11
196.574200
21
146.085900
31
0.000000
62
7
0
LINE
100
AcDbEntity
100
AcDbLine
8
PCL_Layer
5
1311
10
196.574200
20
146.085900
30
0.000000
11
196.574200
21
132.500600
31
0.000000
62
7
0
LINE
100
AcDbEntity
100
AcDbLine
8
PCL_Layer
5
1312
10
196.574200
20
132.500600
30
0.000000
11
182.988900
21
132.500600
31
0.000000
62
7
0
LINE
100
AcDbEntity
100
AcDbLine
8
PCL_Layer
5
1313
10
182.988900
20
132.500600
30
0.000000
11
182.988900
21
146.085900
31
0.000000
62
7
0
LINE
100
AcDbEntity
100
AcDbLine
8
PCL_Layer
5
1314
10
406.983900
20
107.956900
30
0.000000
11
420.569300
21
107.956900
31
0.000000
62
7
0
LINE
100
AcDbEntity
100
AcDbLine
8
PCL_Layer
5
1315
10
420.569300
20
107.956900
30
0.000000
11
420.569300
21
94.396700
31
0.000000
62
7
0
LINE
100
AcDbEntity
100
AcDbLine
8
PCL_Layer
5
1316
10
420.569300
20
94.396700
30
0.000000
11
406.983900
21
94.396700
31
0.000000
62
7
0
LINE
100
AcDbEntity
100
AcDbLine
8
PCL_Layer
5
1317
10
406.983900
20
94.396700
30
0.000000
11
406.983900
21
107.956900
31
0.000000
62
7
0
LINE
100
AcDbEntity
100
AcDbLine
8
PCL_Layer
5
1318
10
173.456700
20
165.150400
30
0.000000
11
187.042000
21
165.150400
31
0.000000
62
7
0
LINE
100
AcDbEntity
100
AcDbLine
8
PCL_Layer
5
1319
10
187.042000
20
165.150400
30
0.000000
11
187.042000
21
151.590100
31
0.000000
62
7
0
LINE
100
AcDbEntity
100
AcDbLine
8
PCL_Layer
5
131A
10
187.042000
20
151.590100
30
0.000000
11
173.456700
21
151.590100
31
0.000000
62
7
0
LINE
100
AcDbEntity
100
AcDbLine
8
PCL_Layer
5
131B
10
173.456700
20
151.590100
30
0.000000
11
173.456700
21
165.150400
31
0.000000
62
7
0
LINE
100
AcDbEntity
100
AcDbLine
8
PCL_Layer
5
131C
10
285.466700
20
88.892500
30
0.000000
11
299.027000
21
88.892500
31
0.000000
62
7
0
LINE
100
AcDbEntity
100
AcDbLine
8
PCL_Layer
5
131D
10
299.027000
20
88.892500
30
0.000000
11
299.027000
21
75.307200
31
0.000000
62
7
0
LINE
100
AcDbEntity
100
AcDbLine
8
PCL_Layer
5
131E
10
299.027000
20
75.307200
30
0.000000
11
285.466700
21
75.307200
31
0.000000
62
7
0
LINE
100
AcDbEntity
100
AcDbLine
8
PCL_Layer
5
131F
10
285.466700
20
75.307200
30
0.000000
11
285.466700
21
88.892500
31
0.000000
62
7
0
LINE
100
AcDbEntity
100
AcDbLine
8
PCL_Layer
5
1320
10
130.549100
20
127.021400
30
0.000000
11
144.134400
21
127.021400
31
0.000000
62
7
0
LINE
100
AcDbEntity
100
AcDbLine
8
PCL_Layer
5
1321
10
144.134400
20
127.021400
30
0.000000
11
144.134400
21
113.461100
31
0.000000
62
7
0
LINE
100
AcDbEntity
100
AcDbLine
8
PCL_Layer
5
1322
10
144.134400
20
113.461100
30
0.000000
11
130.549100
21
113.461100
31
0.000000
62
7
0
LINE
100
AcDbEntity
100
AcDbLine
8
PCL_Layer
5
1323
10
130.549100
20
113.461100
30
0.000000
11
130.549100
21
127.021400
31
0.000000
62
7
0
LINE
100
AcDbEntity
100
AcDbLine
8
PCL_Layer
5
1324
10
321.193800
20
127.021400
30
0.000000
11
334.779100
21
127.021400
31
0.000000
62
7
0
LINE
100
AcDbEntity
100
AcDbLine
8
PCL_Layer
5
1325
10
334.779100
20
127.021400
30
0.000000
11
334.779100
21
113.461100
31
0.000000
62
7
0
LINE
100
AcDbEntity
100
AcDbLine
8
PCL_Layer
5
1326
10
334.779100
20
113.461100
30
0.000000
11
321.193800
21
113.461100
31
0.000000
62
7
0
LINE
100
AcDbEntity
100
AcDbLine
8
PCL_Layer
5
1327
10
321.193800
20
113.461100
30
0.000000
11
321.193800
21
127.021400
31
0.000000
62
7
0
LINE
100
AcDbEntity
100
AcDbLine
8
PCL_Layer
5
1328
10
297.375700
20
146.085900
30
0.000000
11
310.961100
21
146.085900
31
0.000000
62
7
0
LINE
100
AcDbEntity
100
AcDbLine
8
PCL_Layer
5
1329
10
310.961100
20
146.085900
30
0.000000
11
310.961100
21
132.500600
31
0.000000
62
7
0
LINE
100
AcDbEntity
100
AcDbLine
8
PCL_Layer
5
132A
10
310.961100
20
132.500600
30
0.000000
11
297.375700
21
132.500600
31
0.000000
62
7
0
LINE
100
AcDbEntity
100
AcDbLine
8
PCL_Layer
5
132B
10
297.375700
20
132.500600
30
0.000000
11
297.375700
21
146.085900
31
0.000000
62
7
0
LINE
100
AcDbEntity
100
AcDbLine
8
PCL_Layer
5
132C
10
149.613600
20
127.021400
30
0.000000
11
163.198900
21
127.021400
31
0.000000
62
7
0
LINE
100
AcDbEntity
100
AcDbLine
8
PCL_Layer
5
132D
10
163.198900
20
127.021400
30
0.000000
11
163.198900
21
113.461100
31
0.000000
62
7
0
LINE
100
AcDbEntity
100
AcDbLine
8
PCL_Layer
5
132E
10
163.198900
20
113.461100
30
0.000000
11
149.613600
21
113.461100
31
0.000000
62
7
0
LINE
100
AcDbEntity
100
AcDbLine
8
PCL_Layer
5
132F
10
149.613600
20
113.461100
30
0.000000
11
149.613600
21
127.021400
31
0.000000
62
7
0
LINE
100
AcDbEntity
100
AcDbLine
8
PCL_Layer
5
1330
10
54.291200
20
88.892500
30
0.000000
11
67.876500
21
88.892500
31
0.000000
62
7
0
LINE
100
AcDbEntity
100
AcDbLine
8
PCL_Layer
5
1331
10
67.876500
20
88.892500
30
0.000000
11
67.876500
21
75.307200
31
0.000000
62
7
0
LINE
100
AcDbEntity
100
AcDbLine
8
PCL_Layer
5
1332
10
67.876500
20
75.307200
30
0.000000
11
54.291200
21
75.307200
31
0.000000
62
7
0
LINE
100
AcDbEntity
100
AcDbLine
8
PCL_Layer
5
1333
10
54.291200
20
75.307200
30
0.000000
11
54.291200
21
88.892500
31
0.000000
62
7
0
LINE
100
AcDbEntity
100
AcDbLine
8
PCL_Layer
5
1334
10
40.005400
20
165.150400
30
0.000000
11
53.590700
21
165.150400
31
0.000000
62
7
0
LINE
100
AcDbEntity
100
AcDbLine
8
PCL_Layer
5
1335
10
53.590700
20
165.150400
30
0.000000
11
53.590700
21
151.590100
31
0.000000
62
7
0
LINE
100
AcDbEntity
100
AcDbLine
8
PCL_Layer
5
1336
10
53.590700
20
151.590100
30
0.000000
11
40.005400
21
151.590100
31
0.000000
62
7
0
LINE
100
AcDbEntity
100
AcDbLine
8
PCL_Layer
5
1337
10
40.005400
20
151.590100
30
0.000000
11
40.005400
21
165.150400
31
0.000000
62
7
0
LINE
100
AcDbEntity
100
AcDbLine
8
PCL_Layer
5
1338
10
435.580700
20
107.956900
30
0.000000
11
449.166000
21
107.956900
31
0.000000
62
7
0
LINE
100
AcDbEntity
100
AcDbLine
8
PCL_Layer
5
1339
10
449.166000
20
107.956900
30
0.000000
11
449.166000
21
94.396700
31
0.000000
62
7
0
LINE
100
AcDbEntity
100
AcDbLine
8
PCL_Layer
5
133A
10
449.166000
20
94.396700
30
0.000000
11
435.580700
21
94.396700
31
0.000000
62
7
0
LINE
100
AcDbEntity
100
AcDbLine
8
PCL_Layer
5
133B
10
435.580700
20
94.396700
30
0.000000
11
435.580700
21
107.956900
31
0.000000
62
7
0
LINE
100
AcDbEntity
100
AcDbLine
8
PCL_Layer
5
133C
10
211.585600
20
165.150400
30
0.000000
11
225.170900
21
165.150400
31
0.000000
62
7
0
LINE
100
AcDbEntity
100
AcDbLine
8
PCL_Layer
5
133D
10
225.170900
20
165.150400
30
0.000000
11
225.170900
21
151.590100
31
0.000000
62
7
0
LINE
100
AcDbEntity
100
AcDbLine
8
PCL_Layer
5
133E
10
225.170900
20
151.590100
30
0.000000
11
211.585600
21
151.590100
31
0.000000
62
7
0
LINE
100
AcDbEntity
100
AcDbLine
8
PCL_Layer
5
133F
10
211.585600
20
151.590100
30
0.000000
11
211.585600
21
165.150400
31
0.000000
62
7
0
LINE
100
AcDbEntity
100
AcDbLine
8
PCL_Layer
5
1340
10
340.258300
20
165.150400
30
0.000000
11
353.843600
21
165.150400
31
0.000000
62
7
0
LINE
100
AcDbEntity
100
AcDbLine
8
PCL_Layer
5
1341
10
353.843600
20
165.150400
30
0.000000
11
353.843600
21
151.590100
31
0.000000
62
7
0
LINE
100
AcDbEntity
100
AcDbLine
8
PCL_Layer
5
1342
10
353.843600
20
151.590100
30
0.000000
11
340.258300
21
151.590100
31
0.000000
62
7
0
LINE
100
AcDbEntity
100
AcDbLine
8
PCL_Layer
5
1343
10
340.258300
20
151.590100
30
0.000000
11
340.258300
21
165.150400
31
0.000000
62
7
0
LINE
100
AcDbEntity
100
AcDbLine
8
PCL_Layer
5
1344
10
163.924400
20
146.085900
30
0.000000
11
177.509700
21
146.085900
31
0.000000
62
7
0
LINE
100
AcDbEntity
100
AcDbLine
8
PCL_Layer
5
1345
10
177.509700
20
146.085900
30
0.000000
11
177.509700
21
132.500600
31
0.000000
62
7
0
LINE
100
AcDbEntity
100
AcDbLine
8
PCL_Layer
5
1346
10
177.509700
20
132.500600
30
0.000000
11
163.924400
21
132.500600
31
0.000000
62
7
0
LINE
100
AcDbEntity
100
AcDbLine
8
PCL_Layer
5
1347
10
163.924400
20
132.500600
30
0.000000
11
163.924400
21
146.085900
31
0.000000
62
7
0
LINE
100
AcDbEntity
100
AcDbLine
8
PCL_Layer
5
1348
10
192.521100
20
165.150400
30
0.000000
11
206.106500
21
165.150400
31
0.000000
62
7
0
LINE
100
AcDbEntity
100
AcDbLine
8
PCL_Layer
5
1349
10
206.106500
20
165.150400
30
0.000000
11
206.106500
21
151.590100
31
0.000000
62
7
0
LINE
100
AcDbEntity
100
AcDbLine
8
PCL_Layer
5
134A
10
206.106500
20
151.590100
30
0.000000
11
192.521100
21
151.590100
31
0.000000
62
7
0
LINE
100
AcDbEntity
100
AcDbLine
8
PCL_Layer
5
134B
10
192.521100
20
151.590100
30
0.000000
11
192.521100
21
165.150400
31
0.000000
62
7
0
LINE
100
AcDbEntity
100
AcDbLine
8
PCL_Layer
5
134C
10
335.504700
20
146.085900
30
0.000000
11
349.090000
21
146.085900
31
0.000000
62
7
0
LINE
100
AcDbEntity
100
AcDbLine
8
PCL_Layer
5
134D
10
349.090000
20
146.085900
30
0.000000
11
349.090000
21
132.500600
31
0.000000
62
7
0
LINE
100
AcDbEntity
100
AcDbLine
8
PCL_Layer
5
134E
10
349.090000
20
132.500600
30
0.000000
11
335.504700
21
132.500600
31
0.000000
62
7
0
LINE
100
AcDbEntity
100
AcDbLine
8
PCL_Layer
5
134F
10
335.504700
20
132.500600
30
0.000000
11
335.504700
21
146.085900
31
0.000000
62
7
0
LINE
100
AcDbEntity
100
AcDbLine
8
PCL_Layer
5
1350
10
454.645100
20
88.892500
30
0.000000
11
468.230500
21
88.892500
31
0.000000
62
7
0
LINE
100
AcDbEntity
100
AcDbLine
8
PCL_Layer
5
1351
10
468.230500
20
88.892500
30
0.000000
11
468.230500
21
75.307200
31
0.000000
62
7
0
LINE
100
AcDbEntity
100
AcDbLine
8
PCL_Layer
5
1352
10
468.230500
20
75.307200
30
0.000000
11
454.645100
21
75.307200
31
0.000000
62
7
0
LINE
100
AcDbEntity
100
AcDbLine
8
PCL_Layer
5
1353
10
454.645100
20
75.307200
30
0.000000
11
454.645100
21
88.892500
31
0.000000
62
7
0
LINE
100
AcDbEntity
100
AcDbLine
8
PCL_Layer
5
1354
10
142.483200
20
88.892500
30
0.000000
11
156.043500
21
88.892500
31
0.000000
62
7
0
LINE
100
AcDbEntity
100
AcDbLine
8
PCL_Layer
5
1355
10
156.043500
20
88.892500
30
0.000000
11
156.043500
21
75.307200
31
0.000000
62
7
0
LINE
100
AcDbEntity
100
AcDbLine
8
PCL_Layer
5
1356
10
156.043500
20
75.307200
30
0.000000
11
142.483200
21
75.307200
31
0.000000
62
7
0
LINE
100
AcDbEntity
100
AcDbLine
8
PCL_Layer
5
1357
10
142.483200
20
75.307200
30
0.000000
11
142.483200
21
88.892500
31
0.000000
62
7
0
LINE
100
AcDbEntity
100
AcDbLine
8
PCL_Layer
5
1358
10
292.597100
20
107.956900
30
0.000000
11
306.182400
21
107.956900
31
0.000000
62
7
0
LINE
100
AcDbEntity
100
AcDbLine
8
PCL_Layer
5
1359
10
306.182400
20
107.956900
30
0.000000
11
306.182400
21
94.396700
31
0.000000
62
7
0
LINE
100
AcDbEntity
100
AcDbLine
8
PCL_Layer
5
135A
10
306.182400
20
94.396700
30
0.000000
11
292.597100
21
94.396700
31
0.000000
62
7
0
LINE
100
AcDbEntity
100
AcDbLine
8
PCL_Layer
5
135B
10
292.597100
20
94.396700
30
0.000000
11
292.597100
21
107.956900
31
0.000000
62
7
0
LINE
100
AcDbEntity
100
AcDbLine
8
PCL_Layer
5
135C
10
21.416300
20
179.236100
30
0.000000
11
21.916600
21
179.236100
31
0.000000
62
7
0
LINE
100
AcDbEntity
100
AcDbLine
8
PCL_Layer
5
135D
10
21.916600
20
179.236100
30
0.000000
11
21.916600
21
177.034400
31
0.000000
62
7
0
LINE
100
AcDbEntity
100
AcDbLine
8
PCL_Layer
5
135E
10
21.916600
20
177.034400
30
0.000000
11
21.416300
21
177.034400
31
0.000000
62
7
0
LINE
100
AcDbEntity
100
AcDbLine
8
PCL_Layer
5
135F
10
21.416300
20
177.034400
30
0.000000
11
21.416300
21
179.236100
31
0.000000
62
7
0
LINE
100
AcDbEntity
100
AcDbLine
8
PCL_Layer
5
1360
10
21.916600
20
182.913800
30
0.000000
11
28.121300
21
182.913800
31
0.000000
62
7
0
LINE
100
AcDbEntity
100
AcDbLine
8
PCL_Layer
5
1361
10
28.121300
20
182.913800
30
0.000000
11
28.121300
21
167.852400
31
0.000000
62
7
0
LINE
100
AcDbEntity
100
AcDbLine
8
PCL_Layer
5
1362
10
28.121300
20
167.852400
30
0.000000
11
21.916600
21
167.852400
31
0.000000
62
7
0
LINE
100
AcDbEntity
100
AcDbLine
8
PCL_Layer
5
1363
10
21.916600
20
167.852400
30
0.000000
11
21.916600
21
182.913800
31
0.000000
62
7
0
LINE
100
AcDbEntity
100
AcDbLine
8
PCL_Layer
5
1364
10
28.121300
20
179.236100
30
0.000000
11
28.621700
21
179.236100
31
0.000000
62
7
0
LINE
100
AcDbEntity
100
AcDbLine
8
PCL_Layer
5
1365
10
28.621700
20
179.236100
30
0.000000
11
28.621700
21
177.034400
31
0.000000
62
7
0
LINE
100
AcDbEntity
100
AcDbLine
8
PCL_Layer
5
1366
10
28.621700
20
177.034400
30
0.000000
11
28.121300
21
177.034400
31
0.000000
62
7
0
LINE
100
AcDbEntity
100
AcDbLine
8
PCL_Layer
5
1367
10
28.121300
20
177.034400
30
0.000000
11
28.121300
21
179.236100
31
0.000000
62
7
0
LINE
100
AcDbEntity
100
AcDbLine
8
PCL_Layer
5
1368
10
30.473100
20
184.214800
30
0.000000
11
44.058400
21
184.214800
31
0.000000
62
7
0
LINE
100
AcDbEntity
100
AcDbLine
8
PCL_Layer
5
1369
10
44.058400
20
184.214800
30
0.000000
11
44.058400
21
170.654500
31
0.000000
62
7
0
LINE
100
AcDbEntity
100
AcDbLine
8
PCL_Layer
5
136A
10
44.058400
20
170.654500
30
0.000000
11
30.473100
21
170.654500
31
0.000000
62
7
0
LINE
100
AcDbEntity
100
AcDbLine
8
PCL_Layer
5
136B
10
30.473100
20
170.654500
30
0.000000
11
30.473100
21
184.214800
31
0.000000
62
7
0
LINE
100
AcDbEntity
100
AcDbLine
8
PCL_Layer
5
136C
10
45.909900
20
179.211000
30
0.000000
11
46.410200
21
179.211000
31
0.000000
62
7
0
LINE
100
AcDbEntity
100
AcDbLine
8
PCL_Layer
5
136D
10
46.410200
20
179.211000
30
0.000000
11
46.410200
21
177.009400
31
0.000000
62
7
0
LINE
100
AcDbEntity
100
AcDbLine
8
PCL_Layer
5
136E
10
46.410200
20
177.009400
30
0.000000
11
45.909900
21
177.009400
31
0.000000
62
7
0
LINE
100
AcDbEntity
100
AcDbLine
8
PCL_Layer
5
136F
10
45.909900
20
177.009400
30
0.000000
11
45.909900
21
179.211000
31
0.000000
62
7
0
LINE
100
AcDbEntity
100
AcDbLine
8
PCL_Layer
5
1370
10
46.410200
20
182.913800
30
0.000000
11
52.614900
21
182.913800
31
0.000000
62
7
0
LINE
100
AcDbEntity
100
AcDbLine
8
PCL_Layer
5
1371
10
52.614900
20
182.913800
30
0.000000
11
52.614900
21
167.852400
31
0.000000
62
7
0
LINE
100
AcDbEntity
100
AcDbLine
8
PCL_Layer
5
1372
10
52.614900
20
167.852400
30
0.000000
11
46.410200
21
167.852400
31
0.000000
62
7
0
LINE
100
AcDbEntity
100
AcDbLine
8
PCL_Layer
5
1373
10
46.410200
20
167.852400
30
0.000000
11
46.410200
21
182.913800
31
0.000000
62
7
0
LINE
100
AcDbEntity
100
AcDbLine
8
PCL_Layer
5
1374
10
52.614900
20
179.211000
30
0.000000
11
53.115300
21
179.211000
31
0.000000
62
7
0
LINE
100
AcDbEntity
100
AcDbLine
8
PCL_Layer
5
1375
10
53.115300
20
179.211000
30
0.000000
11
53.115300
21
177.009400
31
0.000000
62
7
0
LINE
100
AcDbEntity
100
AcDbLine
8
PCL_Layer
5
1376
10
53.115300
20
177.009400
30
0.000000
11
52.614900
21
177.009400
31
0.000000
62
7
0
LINE
100
AcDbEntity
100
AcDbLine
8
PCL_Layer
5
1377
10
52.614900
20
177.009400
30
0.000000
11
52.614900
21
179.211000
31
0.000000
62
7
0
LINE
100
AcDbEntity
100
AcDbLine
8
PCL_Layer
5
1378
10
173.932000
20
179.236100
30
0.000000
11
174.432400
21
179.236100
31
0.000000
62
7
0
LINE
100
AcDbEntity
100
AcDbLine
8
PCL_Layer
5
1379
10
174.432400
20
179.236100
30
0.000000
11
174.432400
21
177.034400
31
0.000000
62
7
0
LINE
100
AcDbEntity
100
AcDbLine
8
PCL_Layer
5
137A
10
174.432400
20
177.034400
30
0.000000
11
173.932000
21
177.034400
31
0.000000
62
7
0
LINE
100
AcDbEntity
100
AcDbLine
8
PCL_Layer
5
137B
10
173.932000
20
177.034400
30
0.000000
11
173.932000
21
179.236100
31
0.000000
62
7
0
LINE
100
AcDbEntity
100
AcDbLine
8
PCL_Layer
5
137C
10
174.432400
20
182.913800
30
0.000000
11
180.637100
21
182.913800
31
0.000000
62
7
0
LINE
100
AcDbEntity
100
AcDbLine
8
PCL_Layer
5
137D
10
180.637100
20
182.913800
30
0.000000
11
180.637100
21
167.852400
31
0.000000
62
7
0
LINE
100
AcDbEntity
100
AcDbLine
8
PCL_Layer
5
137E
10
180.637100
20
167.852400
30
0.000000
11
174.432400
21
167.852400
31
0.000000
62
7
0
LINE
100
AcDbEntity
100
AcDbLine
8
PCL_Layer
5
137F
10
174.432400
20
167.852400
30
0.000000
11
174.432400
21
182.913800
31
0.000000
62
7
0
LINE
100
AcDbEntity
100
AcDbLine
8
PCL_Layer
5
1380
10
180.637100
20
179.236100
30
0.000000
11
181.137500
21
179.236100
31
0.000000
62
7
0
LINE
100
AcDbEntity
100
AcDbLine
8
PCL_Layer
5
1381
10
181.137500
20
179.236100
30
0.000000
11
181.137500
21
177.034400
31
0.000000
62
7
0
LINE
100
AcDbEntity
100
AcDbLine
8
PCL_Layer
5
1382
10
181.137500
20
177.034400
30
0.000000
11
180.637100
21
177.034400
31
0.000000
62
7
0
LINE
100
AcDbEntity
100
AcDbLine
8
PCL_Layer
5
1383
10
180.637100
20
177.034400
30
0.000000
11
180.637100
21
179.236100
31
0.000000
62
7
0
LINE
100
AcDbEntity
100
AcDbLine
8
PCL_Layer
5
1384
10
182.988900
20
184.214800
30
0.000000
11
196.574200
21
184.214800
31
0.000000
62
7
0
LINE
100
AcDbEntity
100
AcDbLine
8
PCL_Layer
5
1385
10
196.574200
20
184.214800
30
0.000000
11
196.574200
21
170.654500
31
0.000000
62
7
0
LINE
100
AcDbEntity
100
AcDbLine
8
PCL_Layer
5
1386
10
196.574200
20
170.654500
30
0.000000
11
182.988900
21
170.654500
31
0.000000
62
7
0
LINE
100
AcDbEntity
100
AcDbLine
8
PCL_Layer
5
1387
10
182.988900
20
170.654500
30
0.000000
11
182.988900
21
184.214800
31
0.000000
62
7
0
LINE
100
AcDbEntity
100
AcDbLine
8
PCL_Layer
5
1388
10
198.425600
20
179.211000
30
0.000000
11
198.926000
21
179.211000
31
0.000000
62
7
0
LINE
100
AcDbEntity
100
AcDbLine
8
PCL_Layer
5
1389
10
198.926000
20
179.211000
30
0.000000
11
198.926000
21
177.009400
31
0.000000
62
7
0
LINE
100
AcDbEntity
100
AcDbLine
8
PCL_Layer
5
138A
10
198.926000
20
177.009400
30
0.000000
11
198.425600
21
177.009400
31
0.000000
62
7
0
LINE
100
AcDbEntity
100
AcDbLine
8
PCL_Layer
5
138B
10
198.425600
20
177.009400
30
0.000000
11
198.425600
21
179.211000
31
0.000000
62
7
0
LINE
100
AcDbEntity
100
AcDbLine
8
PCL_Layer
5
138C
10
198.926000
20
182.913800
30
0.000000
11
205.130700
21
182.913800
31
0.000000
62
7
0
LINE
100
AcDbEntity
100
AcDbLine
8
PCL_Layer
5
138D
10
205.130700
20
182.913800
30
0.000000
11
205.130700
21
167.852400
31
0.000000
62
7
0
LINE
100
AcDbEntity
100
AcDbLine
8
PCL_Layer
5
138E
10
205.130700
20
167.852400
30
0.000000
11
198.926000
21
167.852400
31
0.000000
62
7
0
LINE
100
AcDbEntity
100
AcDbLine
8
PCL_Layer
5
138F
10
198.926000
20
167.852400
30
0.000000
11
198.926000
21
182.913800
31
0.000000
62
7
0
LINE
100
AcDbEntity
100
AcDbLine
8
PCL_Layer
5
1390
10
205.130700
20
179.211000
30
0.000000
11
205.631100
21
179.211000
31
0.000000
62
7
0
LINE
100
AcDbEntity
100
AcDbLine
8
PCL_Layer
5
1391
10
205.631100
20
179.211000
30
0.000000
11
205.631100
21
177.009400
31
0.000000
62
7
0
LINE
100
AcDbEntity
100
AcDbLine
8
PCL_Layer
5
1392
10
205.631100
20
177.009400
30
0.000000
11
205.130700
21
177.009400
31
0.000000
62
7
0
LINE
100
AcDbEntity
100
AcDbLine
8
PCL_Layer
5
1393
10
205.130700
20
177.009400
30
0.000000
11
205.130700
21
179.211000
31
0.000000
62
7
0
LINE
100
AcDbEntity
100
AcDbLine
8
PCL_Layer
5
1394
10
135.327700
20
165.150400
30
0.000000
11
148.913000
21
165.150400
31
0.000000
62
7
0
LINE
100
AcDbEntity
100
AcDbLine
8
PCL_Layer
5
1395
10
148.913000
20
165.150400
30
0.000000
11
148.913000
21
151.590100
31
0.000000
62
7
0
LINE
100
AcDbEntity
100
AcDbLine
8
PCL_Layer
5
1396
10
148.913000
20
151.590100
30
0.000000
11
135.327700
21
151.590100
31
0.000000
62
7
0
LINE
100
AcDbEntity
100
AcDbLine
8
PCL_Layer
5
1397
10
135.327700
20
151.590100
30
0.000000
11
135.327700
21
165.150400
31
0.000000
62
7
0
LINE
100
AcDbEntity
100
AcDbLine
8
PCL_Layer
5
1398
10
25.694500
20
88.892500
30
0.000000
11
39.279800
21
88.892500
31
0.000000
62
7
0
LINE
100
AcDbEntity
100
AcDbLine
8
PCL_Layer
5
1399
10
39.279800
20
88.892500
30
0.000000
11
39.279800
21
75.307200
31
0.000000
62
7
0
LINE
100
AcDbEntity
100
AcDbLine
8
PCL_Layer
5
139A
10
39.279800
20
75.307200
30
0.000000
11
25.694500
21
75.307200
31
0.000000
62
7
0
LINE
100
AcDbEntity
100
AcDbLine
8
PCL_Layer
5
139B
10
25.694500
20
75.307200
30
0.000000
11
25.694500
21
88.892500
31
0.000000
62
7
0
LINE
100
AcDbEntity
100
AcDbLine
8
PCL_Layer
5
139C
10
0.000000
20
197.174700
30
0.000000
11
494.000000
21
197.174700
31
0.000000
62
7
0
LINE
100
AcDbEntity
100
AcDbLine
8
PCL_Layer
5
139D
10
494.000000
20
197.174700
30
0.000000
11
494.000000
21
0.000000
31
0.000000
62
7
0
LINE
100
AcDbEntity
100
AcDbLine
8
PCL_Layer
5
139E
10
494.000000
20
0.000000
30
0.000000
11
0.000000
21
0.000000
31
0.000000
62
7
0
LINE
100
AcDbEntity
100
AcDbLine
8
PCL_Layer
5
139F
10
0.000000
20
0.000000
30
0.000000
11
0.000000
21
197.174700
31
0.000000
62
7
0
ENDSEC
0
EOF
