0
SECTION
2
HEADER
9
$ACADVER
1
AC1009
9
$INSUNITS
70
4
9
$EXTMIN
10
0.000000
20
0.000000
30
0.000000
9
$EXTMAX
10
480.000000
20
128.100100
30
0.000000
0
ENDSEC
0
SECTION
2
TABLES
0
TABLE
2
LAYER
0
LAYER
2
PCL_Layer
62
7
70
0
6
CONTINUOUS
0
ENDTAB
0
TABLE
2
VPORT
5
0
100
AcDbSymbolTable
70
3
0
VPORT
5
1
100
AcDbSymbolTableRecord
100
AcDbViewportTableRecord
2
*ACTIVE
70
0
10
0.0
20
0.0
11
1.0
21
1.0
12
240.000000
22
64.050050
13
0.0
23
0.0
14
10.0
24
10.0
15
10.0
25
10.0
16
0.0
26
0.0
36
1.0
17
0.0
27
0.0
37
0.0
40
153.720120
41
2.107632093933463
42
50.0
43
0.0
44
0.0
50
0.0
51
0.0
71
0
72
100
73
1
74
3
75
0
76
0
77
0
78
0
0
ENDTAB
0
ENDSEC
0
SECTION
2
BLOCKS
0
ENDSEC
0
SECTION
2
ENTITIES
0
LINE
100
AcDbEntity
100
AcDbLine
8
PCL_Layer
5
1000
10
167.280700
20
112.863200
30
0.000000
11
168.081300
21
112.863200
31
0.000000
62
7
0
LINE
100
AcDbEntity
100
AcDbLine
8
PCL_Layer
5
1001
10
168.081300
20
112.863200
30
0.000000
11
168.081300
21
110.661500
31
0.000000
62
7
0
LINE
100
AcDbEntity
100
AcDbLine
8
PCL_Layer
5
1002
10
168.081300
20
110.661500
30
0.000000
11
167.280700
21
110.661500
31
0.000000
62
7
0
LINE
100
AcDbEntity
100
AcDbLine
8
PCL_Layer
5
1003
10
167.280700
20
110.661500
30
0.000000
11
167.280700
21
112.863200
31
0.000000
62
7
0
LINE
100
AcDbEntity
100
AcDbLine
8
PCL_Layer
5
1004
10
168.081300
20
116.566100
30
0.000000
11
174.386200
21
116.566100
31
0.000000
62
7
0
LINE
100
AcDbEntity
100
AcDbLine
8
PCL_Layer
5
1005
10
174.386200
20
116.566100
30
0.000000
11
174.386200
21
100.753700
31
0.000000
62
7
0
LINE
100
AcDbEntity
100
AcDbLine
8
PCL_Layer
5
1006
10
174.386200
20
100.753700
30
0.000000
11
168.081300
21
100.753700
31
0.000000
62
7
0
LINE
100
AcDbEntity
100
AcDbLine
8
PCL_Layer
5
1007
10
168.081300
20
100.753700
30
0.000000
11
168.081300
21
116.566100
31
0.000000
62
7
0
LINE
100
AcDbEntity
100
AcDbLine
8
PCL_Layer
5
1008
10
174.386200
20
112.863200
30
0.000000
11
175.186900
21
112.863200
31
0.000000
62
7
0
LINE
100
AcDbEntity
100
AcDbLine
8
PCL_Layer
5
1009
10
175.186900
20
112.863200
30
0.000000
11
175.186900
21
110.661500
31
0.000000
62
7
0
LINE
100
AcDbEntity
100
AcDbLine
8
PCL_Layer
5
100A
10
175.186900
20
110.661500
30
0.000000
11
174.386200
21
110.661500
31
0.000000
62
7
0
LINE
100
AcDbEntity
100
AcDbLine
8
PCL_Layer
5
100B
10
174.386200
20
110.661500
30
0.000000
11
174.386200
21
112.863200
31
0.000000
62
7
0
LINE
100
AcDbEntity
100
AcDbLine
8
PCL_Layer
5
100C
10
175.987500
20
117.867100
30
0.000000
11
189.573100
21
117.867100
31
0.000000
62
7
0
LINE
100
AcDbEntity
100
AcDbLine
8
PCL_Layer
5
100D
10
189.573100
20
117.867100
30
0.000000
11
189.573100
21
104.306500
31
0.000000
62
7
0
LINE
100
AcDbEntity
100
AcDbLine
8
PCL_Layer
5
100E
10
189.573100
20
104.306500
30
0.000000
11
175.987500
21
104.306500
31
0.000000
62
7
0
LINE
100
AcDbEntity
100
AcDbLine
8
PCL_Layer
5
100F
10
175.987500
20
104.306500
30
0.000000
11
175.987500
21
117.867100
31
0.000000
62
7
0
LINE
100
AcDbEntity
100
AcDbLine
8
PCL_Layer
5
1010
10
190.373700
20
112.863200
30
0.000000
11
191.174400
21
112.863200
31
0.000000
62
7
0
LINE
100
AcDbEntity
100
AcDbLine
8
PCL_Layer
5
1011
10
191.174400
20
112.863200
30
0.000000
11
191.174400
21
110.661500
31
0.000000
62
7
0
LINE
100
AcDbEntity
100
AcDbLine
8
PCL_Layer
5
1012
10
191.174400
20
110.661500
30
0.000000
11
190.373700
21
110.661500
31
0.000000
62
7
0
LINE
100
AcDbEntity
100
AcDbLine
8
PCL_Layer
5
1013
10
190.373700
20
110.661500
30
0.000000
11
190.373700
21
112.863200
31
0.000000
62
7
0
LINE
100
AcDbEntity
100
AcDbLine
8
PCL_Layer
5
1014
10
191.174400
20
116.566100
30
0.000000
11
197.479300
21
116.566100
31
0.000000
62
7
0
LINE
100
AcDbEntity
100
AcDbLine
8
PCL_Layer
5
1015
10
197.479300
20
116.566100
30
0.000000
11
197.479300
21
100.753700
31
0.000000
62
7
0
LINE
100
AcDbEntity
100
AcDbLine
8
PCL_Layer
5
1016
10
197.479300
20
100.753700
30
0.000000
11
191.174400
21
100.753700
31
0.000000
62
7
0
LINE
100
AcDbEntity
100
AcDbLine
8
PCL_Layer
5
1017
10
191.174400
20
100.753700
30
0.000000
11
191.174400
21
116.566100
31
0.000000
62
7
0
LINE
100
AcDbEntity
100
AcDbLine
8
PCL_Layer
5
1018
10
197.479300
20
112.863200
30
0.000000
11
198.279900
21
112.863200
31
0.000000
62
7
0
LINE
100
AcDbEntity
100
AcDbLine
8
PCL_Layer
5
1019
10
198.279900
20
112.863200
30
0.000000
11
198.279900
21
110.661500
31
0.000000
62
7
0
LINE
100
AcDbEntity
100
AcDbLine
8
PCL_Layer
5
101A
10
198.279900
20
110.661500
30
0.000000
11
197.479300
21
110.661500
31
0.000000
62
7
0
LINE
100
AcDbEntity
100
AcDbLine
8
PCL_Layer
5
101B
10
197.479300
20
110.661500
30
0.000000
11
197.479300
21
112.863200
31
0.000000
62
7
0
LINE
100
AcDbEntity
100
AcDbLine
8
PCL_Layer
5
101C
10
14.761500
20
112.863200
30
0.000000
11
15.562200
21
112.863200
31
0.000000
62
7
0
LINE
100
AcDbEntity
100
AcDbLine
8
PCL_Layer
5
101D
10
15.562200
20
112.863200
30
0.000000
11
15.562200
21
110.661500
31
0.000000
62
7
0
LINE
100
AcDbEntity
100
AcDbLine
8
PCL_Layer
5
101E
10
15.562200
20
110.661500
30
0.000000
11
14.761500
21
110.661500
31
0.000000
62
7
0
LINE
100
AcDbEntity
100
AcDbLine
8
PCL_Layer
5
101F
10
14.761500
20
110.661500
30
0.000000
11
14.761500
21
112.863200
31
0.000000
62
7
0
LINE
100
AcDbEntity
100
AcDbLine
8
PCL_Layer
5
1020
10
15.562200
20
116.566100
30
0.000000
11
21.867100
21
116.566100
31
0.000000
62
7
0
LINE
100
AcDbEntity
100
AcDbLine
8
PCL_Layer
5
1021
10
21.867100
20
116.566100
30
0.000000
11
21.867100
21
100.753700
31
0.000000
62
7
0
LINE
100
AcDbEntity
100
AcDbLine
8
PCL_Layer
5
1022
10
21.867100
20
100.753700
30
0.000000
11
15.562200
21
100.753700
31
0.000000
62
7
0
LINE
100
AcDbEntity
100
AcDbLine
8
PCL_Layer
5
1023
10
15.562200
20
100.753700
30
0.000000
11
15.562200
21
116.566100
31
0.000000
62
7
0
LINE
100
AcDbEntity
100
AcDbLine
8
PCL_Layer
5
1024
10
21.867100
20
112.863200
30
0.000000
11
22.667700
21
112.863200
31
0.000000
62
7
0
LINE
100
AcDbEntity
100
AcDbLine
8
PCL_Layer
5
1025
10
22.667700
20
112.863200
30
0.000000
11
22.667700
21
110.661500
31
0.000000
62
7
0
LINE
100
AcDbEntity
100
AcDbLine
8
PCL_Layer
5
1026
10
22.667700
20
110.661500
30
0.000000
11
21.867100
21
110.661500
31
0.000000
62
7
0
LINE
100
AcDbEntity
100
AcDbLine
8
PCL_Layer
5
1027
10
21.867100
20
110.661500
30
0.000000
11
21.867100
21
112.863200
31
0.000000
62
7
0
LINE
100
AcDbEntity
100
AcDbLine
8
PCL_Layer
5
1028
10
23.468300
20
117.867100
30
0.000000
11
37.053900
21
117.867100
31
0.000000
62
7
0
LINE
100
AcDbEntity
100
AcDbLine
8
PCL_Layer
5
1029
10
37.053900
20
117.867100
30
0.000000
11
37.053900
21
104.306500
31
0.000000
62
7
0
LINE
100
AcDbEntity
100
AcDbLine
8
PCL_Layer
5
102A
10
37.053900
20
104.306500
30
0.000000
11
23.468300
21
104.306500
31
0.000000
62
7
0
LINE
100
AcDbEntity
100
AcDbLine
8
PCL_Layer
5
102B
10
23.468300
20
104.306500
30
0.000000
11
23.468300
21
117.867100
31
0.000000
62
7
0
LINE
100
AcDbEntity
100
AcDbLine
8
PCL_Layer
5
102C
10
37.854600
20
112.863200
30
0.000000
11
38.655200
21
112.863200
31
0.000000
62
7
0
LINE
100
AcDbEntity
100
AcDbLine
8
PCL_Layer
5
102D
10
38.655200
20
112.863200
30
0.000000
11
38.655200
21
110.661500
31
0.000000
62
7
0
LINE
100
AcDbEntity
100
AcDbLine
8
PCL_Layer
5
102E
10
38.655200
20
110.661500
30
0.000000
11
37.854600
21
110.661500
31
0.000000
62
7
0
LINE
100
AcDbEntity
100
AcDbLine
8
PCL_Layer
5
102F
10
37.854600
20
110.661500
30
0.000000
11
37.854600
21
112.863200
31
0.000000
62
7
0
LINE
100
AcDbEntity
100
AcDbLine
8
PCL_Layer
5
1030
10
38.655200
20
116.566100
30
0.000000
11
44.960100
21
116.566100
31
0.000000
62
7
0
LINE
100
AcDbEntity
100
AcDbLine
8
PCL_Layer
5
1031
10
44.960100
20
116.566100
30
0.000000
11
44.960100
21
100.753700
31
0.000000
62
7
0
LINE
100
AcDbEntity
100
AcDbLine
8
PCL_Layer
5
1032
10
44.960100
20
100.753700
30
0.000000
11
38.655200
21
100.753700
31
0.000000
62
7
0
LINE
100
AcDbEntity
100
AcDbLine
8
PCL_Layer
5
1033
10
38.655200
20
100.753700
30
0.000000
11
38.655200
21
116.566100
31
0.000000
62
7
0
LINE
100
AcDbEntity
100
AcDbLine
8
PCL_Layer
5
1034
10
44.960100
20
112.863200
30
0.000000
11
45.760800
21
112.863200
31
0.000000
62
7
0
LINE
100
AcDbEntity
100
AcDbLine
8
PCL_Layer
5
1035
10
45.760800
20
112.863200
30
0.000000
11
45.760800
21
110.661500
31
0.000000
62
7
0
LINE
100
AcDbEntity
100
AcDbLine
8
PCL_Layer
5
1036
10
45.760800
20
110.661500
30
0.000000
11
44.960100
21
110.661500
31
0.000000
62
7
0
LINE
100
AcDbEntity
100
AcDbLine
8
PCL_Layer
5
1037
10
44.960100
20
110.661500
30
0.000000
11
44.960100
21
112.863200
31
0.000000
62
7
0
LINE
100
AcDbEntity
100
AcDbLine
8
PCL_Layer
5
1038
10
205.410500
20
112.863200
30
0.000000
11
206.211100
21
112.863200
31
0.000000
62
7
0
LINE
100
AcDbEntity
100
AcDbLine
8
PCL_Layer
5
1039
10
206.211100
20
112.863200
30
0.000000
11
206.211100
21
110.661500
31
0.000000
62
7
0
LINE
100
AcDbEntity
100
AcDbLine
8
PCL_Layer
5
103A
10
206.211100
20
110.661500
30
0.000000
11
205.410500
21
110.661500
31
0.000000
62
7
0
LINE
100
AcDbEntity
100
AcDbLine
8
PCL_Layer
5
103B
10
205.410500
20
110.661500
30
0.000000
11
205.410500
21
112.863200
31
0.000000
62
7
0
LINE
100
AcDbEntity
100
AcDbLine
8
PCL_Layer
5
103C
10
206.211100
20
116.566100
30
0.000000
11
212.516000
21
116.566100
31
0.000000
62
7
0
LINE
100
AcDbEntity
100
AcDbLine
8
PCL_Layer
5
103D
10
212.516000
20
116.566100
30
0.000000
11
212.516000
21
100.753700
31
0.000000
62
7
0
LINE
100
AcDbEntity
100
AcDbLine
8
PCL_Layer
5
103E
10
212.516000
20
100.753700
30
0.000000
11
206.211100
21
100.753700
31
0.000000
62
7
0
LINE
100
AcDbEntity
100
AcDbLine
8
PCL_Layer
5
103F
10
206.211100
20
100.753700
30
0.000000
11
206.211100
21
116.566100
31
0.000000
62
7
0
LINE
100
AcDbEntity
100
AcDbLine
8
PCL_Layer
5
1040
10
212.516000
20
112.863200
30
0.000000
11
213.316700
21
112.863200
31
0.000000
62
7
0
LINE
100
AcDbEntity
100
AcDbLine
8
PCL_Layer
5
1041
10
213.316700
20
112.863200
30
0.000000
11
213.316700
21
110.661500
31
0.000000
62
7
0
LINE
100
AcDbEntity
100
AcDbLine
8
PCL_Layer
5
1042
10
213.316700
20
110.661500
30
0.000000
11
212.516000
21
110.661500
31
0.000000
62
7
0
LINE
100
AcDbEntity
100
AcDbLine
8
PCL_Layer
5
1043
10
212.516000
20
110.661500
30
0.000000
11
212.516000
21
112.863200
31
0.000000
62
7
0
LINE
100
AcDbEntity
100
AcDbLine
8
PCL_Layer
5
1044
10
214.117300
20
117.867100
30
0.000000
11
227.702900
21
117.867100
31
0.000000
62
7
0
LINE
100
AcDbEntity
100
AcDbLine
8
PCL_Layer
5
1045
10
227.702900
20
117.867100
30
0.000000
11
227.702900
21
104.306500
31
0.000000
62
7
0
LINE
100
AcDbEntity
100
AcDbLine
8
PCL_Layer
5
1046
10
227.702900
20
104.306500
30
0.000000
11
214.117300
21
104.306500
31
0.000000
62
7
0
LINE
100
AcDbEntity
100
AcDbLine
8
PCL_Layer
5
1047
10
214.117300
20
104.306500
30
0.000000
11
214.117300
21
117.867100
31
0.000000
62
7
0
LINE
100
AcDbEntity
100
AcDbLine
8
PCL_Layer
5
1048
10
228.503500
20
112.863200
30
0.000000
11
229.304200
21
112.863200
31
0.000000
62
7
0
LINE
100
AcDbEntity
100
AcDbLine
8
PCL_Layer
5
1049
10
229.304200
20
112.863200
30
0.000000
11
229.304200
21
110.661500
31
0.000000
62
7
0
LINE
100
AcDbEntity
100
AcDbLine
8
PCL_Layer
5
104A
10
229.304200
20
110.661500
30
0.000000
11
228.503500
21
110.661500
31
0.000000
62
7
0
LINE
100
AcDbEntity
100
AcDbLine
8
PCL_Layer
5
104B
10
228.503500
20
110.661500
30
0.000000
11
228.503500
21
112.863200
31
0.000000
62
7
0
LINE
100
AcDbEntity
100
AcDbLine
8
PCL_Layer
5
104C
10
229.304200
20
116.566100
30
0.000000
11
235.609100
21
116.566100
31
0.000000
62
7
0
LINE
100
AcDbEntity
100
AcDbLine
8
PCL_Layer
5
104D
10
235.609100
20
116.566100
30
0.000000
11
235.609100
21
100.753700
31
0.000000
62
7
0
LINE
100
AcDbEntity
100
AcDbLine
8
PCL_Layer
5
104E
10
235.609100
20
100.753700
30
0.000000
11
229.304200
21
100.753700
31
0.000000
62
7
0
LINE
100
AcDbEntity
100
AcDbLine
8
PCL_Layer
5
104F
10
229.304200
20
100.753700
30
0.000000
11
229.304200
21
116.566100
31
0.000000
62
7
0
LINE
100
AcDbEntity
100
AcDbLine
8
PCL_Layer
5
1050
10
235.609100
20
112.863200
30
0.000000
11
236.409700
21
112.863200
31
0.000000
62
7
0
LINE
100
AcDbEntity
100
AcDbLine
8
PCL_Layer
5
1051
10
236.409700
20
112.863200
30
0.000000
11
236.409700
21
110.661500
31
0.000000
62
7
0
LINE
100
AcDbEntity
100
AcDbLine
8
PCL_Layer
5
1052
10
236.409700
20
110.661500
30
0.000000
11
235.609100
21
110.661500
31
0.000000
62
7
0
LINE
100
AcDbEntity
100
AcDbLine
8
PCL_Layer
5
1053
10
235.609100
20
110.661500
30
0.000000
11
235.609100
21
112.863200
31
0.000000
62
7
0
LINE
100
AcDbEntity
100
AcDbLine
8
PCL_Layer
5
1054
10
396.059400
20
112.863200
30
0.000000
11
396.860000
21
112.863200
31
0.000000
62
7
0
LINE
100
AcDbEntity
100
AcDbLine
8
PCL_Layer
5
1055
10
396.860000
20
112.863200
30
0.000000
11
396.860000
21
110.661500
31
0.000000
62
7
0
LINE
100
AcDbEntity
100
AcDbLine
8
PCL_Layer
5
1056
10
396.860000
20
110.661500
30
0.000000
11
396.059400
21
110.661500
31
0.000000
62
7
0
LINE
100
AcDbEntity
100
AcDbLine
8
PCL_Layer
5
1057
10
396.059400
20
110.661500
30
0.000000
11
396.059400
21
112.863200
31
0.000000
62
7
0
LINE
100
AcDbEntity
100
AcDbLine
8
PCL_Layer
5
1058
10
396.860000
20
116.566100
30
0.000000
11
403.165000
21
116.566100
31
0.000000
62
7
0
LINE
100
AcDbEntity
100
AcDbLine
8
PCL_Layer
5
1059
10
403.165000
20
116.566100
30
0.000000
11
403.165000
21
100.753700
31
0.000000
62
7
0
LINE
100
AcDbEntity
100
AcDbLine
8
PCL_Layer
5
105A
10
403.165000
20
100.753700
30
0.000000
11
396.860000
21
100.753700
31
0.000000
62
7
0
LINE
100
AcDbEntity
100
AcDbLine
8
PCL_Layer
5
105B
10
396.860000
20
100.753700
30
0.000000
11
396.860000
21
116.566100
31
0.000000
62
7
0
LINE
100
AcDbEntity
100
AcDbLine
8
PCL_Layer
5
105C
10
403.165000
20
112.863200
30
0.000000
11
403.965600
21
112.863200
31
0.000000
62
7
0
LINE
100
AcDbEntity
100
AcDbLine
8
PCL_Layer
5
105D
10
403.965600
20
112.863200
30
0.000000
11
403.965600
21
110.661500
31
0.000000
62
7
0
LINE
100
AcDbEntity
100
AcDbLine
8
PCL_Layer
5
105E
10
403.965600
20
110.661500
30
0.000000
11
403.165000
21
110.661500
31
0.000000
62
7
0
LINE
100
AcDbEntity
100
AcDbLine
8
PCL_Layer
5
105F
10
403.165000
20
110.661500
30
0.000000
11
403.165000
21
112.863200
31
0.000000
62
7
0
LINE
100
AcDbEntity
100
AcDbLine
8
PCL_Layer
5
1060
10
404.766200
20
117.867100
30
0.000000
11
418.351900
21
117.867100
31
0.000000
62
7
0
LINE
100
AcDbEntity
100
AcDbLine
8
PCL_Layer
5
1061
10
418.351900
20
117.867100
30
0.000000
11
418.351900
21
104.306500
31
0.000000
62
7
0
LINE
100
AcDbEntity
100
AcDbLine
8
PCL_Layer
5
1062
10
418.351900
20
104.306500
30
0.000000
11
404.766200
21
104.306500
31
0.000000
62
7
0
LINE
100
AcDbEntity
100
AcDbLine
8
PCL_Layer
5
1063
10
404.766200
20
104.306500
30
0.000000
11
404.766200
21
117.867100
31
0.000000
62
7
0
LINE
100
AcDbEntity
100
AcDbLine
8
PCL_Layer
5
1064
10
419.152500
20
112.863200
30
0.000000
11
419.953100
21
112.863200
31
0.000000
62
7
0
LINE
100
AcDbEntity
100
AcDbLine
8
PCL_Layer
5
1065
10
419.953100
20
112.863200
30
0.000000
11
419.953100
21
110.661500
31
0.000000
62
7
0
LINE
100
AcDbEntity
100
AcDbLine
8
PCL_Layer
5
1066
10
419.953100
20
110.661500
30
0.000000
11
419.152500
21
110.661500
31
0.000000
62
7
0
LINE
100
AcDbEntity
100
AcDbLine
8
PCL_Layer
5
1067
10
419.152500
20
110.661500
30
0.000000
11
419.152500
21
112.863200
31
0.000000
62
7
0
LINE
100
AcDbEntity
100
AcDbLine
8
PCL_Layer
5
1068
10
419.953100
20
116.566100
30
0.000000
11
426.258000
21
116.566100
31
0.000000
62
7
0
LINE
100
AcDbEntity
100
AcDbLine
8
PCL_Layer
5
1069
10
426.258000
20
116.566100
30
0.000000
11
426.258000
21
100.753700
31
0.000000
62
7
0
LINE
100
AcDbEntity
100
AcDbLine
8
PCL_Layer
5
106A
10
426.258000
20
100.753700
30
0.000000
11
419.953100
21
100.753700
31
0.000000
62
7
0
LINE
100
AcDbEntity
100
AcDbLine
8
PCL_Layer
5
106B
10
419.953100
20
100.753700
30
0.000000
11
419.953100
21
116.566100
31
0.000000
62
7
0
LINE
100
AcDbEntity
100
AcDbLine
8
PCL_Layer
5
106C
10
426.258000
20
112.863200
30
0.000000
11
427.058600
21
112.863200
31
0.000000
62
7
0
LINE
100
AcDbEntity
100
AcDbLine
8
PCL_Layer
5
106D
10
427.058600
20
112.863200
30
0.000000
11
427.058600
21
110.661500
31
0.000000
62
7
0
LINE
100
AcDbEntity
100
AcDbLine
8
PCL_Layer
5
106E
10
427.058600
20
110.661500
30
0.000000
11
426.258000
21
110.661500
31
0.000000
62
7
0
LINE
100
AcDbEntity
100
AcDbLine
8
PCL_Layer
5
106F
10
426.258000
20
110.661500
30
0.000000
11
426.258000
21
112.863200
31
0.000000
62
7
0
LINE
100
AcDbEntity
100
AcDbLine
8
PCL_Layer
5
1070
10
434.189200
20
55.668500
30
0.000000
11
434.989900
21
55.668500
31
0.000000
62
7
0
LINE
100
AcDbEntity
100
AcDbLine
8
PCL_Layer
5
1071
10
434.989900
20
55.668500
30
0.000000
11
434.989900
21
53.466800
31
0.000000
62
7
0
LINE
100
AcDbEntity
100
AcDbLine
8
PCL_Layer
5
1072
10
434.989900
20
53.466800
30
0.000000
11
434.189200
21
53.466800
31
0.000000
62
7
0
LINE
100
AcDbEntity
100
AcDbLine
8
PCL_Layer
5
1073
10
434.189200
20
53.466800
30
0.000000
11
434.189200
21
55.668500
31
0.000000
62
7
0
LINE
100
AcDbEntity
100
AcDbLine
8
PCL_Layer
5
1074
10
434.989900
20
59.371400
30
0.000000
11
441.294800
21
59.371400
31
0.000000
62
7
0
LINE
100
AcDbEntity
100
AcDbLine
8
PCL_Layer
5
1075
10
441.294800
20
59.371400
30
0.000000
11
441.294800
21
43.559000
31
0.000000
62
7
0
LINE
100
AcDbEntity
100
AcDbLine
8
PCL_Layer
5
1076
10
441.294800
20
43.559000
30
0.000000
11
434.989900
21
43.559000
31
0.000000
62
7
0
LINE
100
AcDbEntity
100
AcDbLine
8
PCL_Layer
5
1077
10
434.989900
20
43.559000
30
0.000000
11
434.989900
21
59.371400
31
0.000000
62
7
0
LINE
100
AcDbEntity
100
AcDbLine
8
PCL_Layer
5
1078
10
441.294800
20
55.668500
30
0.000000
11
442.095400
21
55.668500
31
0.000000
62
7
0
LINE
100
AcDbEntity
100
AcDbLine
8
PCL_Layer
5
1079
10
442.095400
20
55.668500
30
0.000000
11
442.095400
21
53.466800
31
0.000000
62
7
0
LINE
100
AcDbEntity
100
AcDbLine
8
PCL_Layer
5
107A
10
442.095400
20
53.466800
30
0.000000
11
441.294800
21
53.466800
31
0.000000
62
7
0
LINE
100
AcDbEntity
100
AcDbLine
8
PCL_Layer
5
107B
10
441.294800
20
53.466800
30
0.000000
11
441.294800
21
55.668500
31
0.000000
62
7
0
LINE
100
AcDbEntity
100
AcDbLine
8
PCL_Layer
5
107C
10
442.896000
20
60.672400
30
0.000000
11
456.481600
21
60.672400
31
0.000000
62
7
0
LINE
100
AcDbEntity
100
AcDbLine
8
PCL_Layer
5
107D
10
456.481600
20
60.672400
30
0.000000
11
456.481600
21
47.111800
31
0.000000
62
7
0
LINE
100
AcDbEntity
100
AcDbLine
8
PCL_Layer
5
107E
10
456.481600
20
47.111800
30
0.000000
11
442.896000
21
47.111800
31
0.000000
62
7
0
LINE
100
AcDbEntity
100
AcDbLine
8
PCL_Layer
5
107F
10
442.896000
20
47.111800
30
0.000000
11
442.896000
21
60.672400
31
0.000000
62
7
0
LINE
100
AcDbEntity
100
AcDbLine
8
PCL_Layer
5
1080
10
457.282300
20
55.668500
30
0.000000
11
458.082900
21
55.668500
31
0.000000
62
7
0
LINE
100
AcDbEntity
100
AcDbLine
8
PCL_Layer
5
1081
10
458.082900
20
55.668500
30
0.000000
11
458.082900
21
53.466800
31
0.000000
62
7
0
LINE
100
AcDbEntity
100
AcDbLine
8
PCL_Layer
5
1082
10
458.082900
20
53.466800
30
0.000000
11
457.282300
21
53.466800
31
0.000000
62
7
0
LINE
100
AcDbEntity
100
AcDbLine
8
PCL_Layer
5
1083
10
457.282300
20
53.466800
30
0.000000
11
457.282300
21
55.668500
31
0.000000
62
7
0
LINE
100
AcDbEntity
100
AcDbLine
8
PCL_Layer
5
1084
10
458.082900
20
59.371400
30
0.000000
11
464.387800
21
59.371400
31
0.000000
62
7
0
LINE
100
AcDbEntity
100
AcDbLine
8
PCL_Layer
5
1085
10
464.387800
20
59.371400
30
0.000000
11
464.387800
21
43.559000
31
0.000000
62
7
0
LINE
100
AcDbEntity
100
AcDbLine
8
PCL_Layer
5
1086
10
464.387800
20
43.559000
30
0.000000
11
458.082900
21
43.559000
31
0.000000
62
7
0
LINE
100
AcDbEntity
100
AcDbLine
8
PCL_Layer
5
1087
10
458.082900
20
43.559000
30
0.000000
11
458.082900
21
59.371400
31
0.000000
62
7
0
LINE
100
AcDbEntity
100
AcDbLine
8
PCL_Layer
5
1088
10
464.387800
20
55.668500
30
0.000000
11
465.188400
21
55.668500
31
0.000000
62
7
0
LINE
100
AcDbEntity
100
AcDbLine
8
PCL_Layer
5
1089
10
465.188400
20
55.668500
30
0.000000
11
465.188400
21
53.466800
31
0.000000
62
7
0
LINE
100
AcDbEntity
100
AcDbLine
8
PCL_Layer
5
108A
10
465.188400
20
53.466800
30
0.000000
11
464.387800
21
53.466800
31
0.000000
62
7
0
LINE
100
AcDbEntity
100
AcDbLine
8
PCL_Layer
5
108B
10
464.387800
20
53.466800
30
0.000000
11
464.387800
21
55.668500
31
0.000000
62
7
0
LINE
100
AcDbEntity
100
AcDbLine
8
PCL_Layer
5
108C
10
52.891300
20
55.668500
30
0.000000
11
53.691900
21
55.668500
31
0.000000
62
7
0
LINE
100
AcDbEntity
100
AcDbLine
8
PCL_Layer
5
108D
10
53.691900
20
55.668500
30
0.000000
11
53.691900
21
53.466800
31
0.000000
62
7
0
LINE
100
AcDbEntity
100
AcDbLine
8
PCL_Layer
5
108E
10
53.691900
20
53.466800
30
0.000000
11
52.891300
21
53.466800
31
0.000000
62
7
0
LINE
100
AcDbEntity
100
AcDbLine
8
PCL_Layer
5
108F
10
52.891300
20
53.466800
30
0.000000
11
52.891300
21
55.668500
31
0.000000
62
7
0
LINE
100
AcDbEntity
100
AcDbLine
8
PCL_Layer
5
1090
10
53.691900
20
59.371400
30
0.000000
11
59.996900
21
59.371400
31
0.000000
62
7
0
LINE
100
AcDbEntity
100
AcDbLine
8
PCL_Layer
5
1091
10
59.996900
20
59.371400
30
0.000000
11
59.996900
21
43.559000
31
0.000000
62
7
0
LINE
100
AcDbEntity
100
AcDbLine
8
PCL_Layer
5
1092
10
59.996900
20
43.559000
30
0.000000
11
53.691900
21
43.559000
31
0.000000
62
7
0
LINE
100
AcDbEntity
100
AcDbLine
8
PCL_Layer
5
1093
10
53.691900
20
43.559000
30
0.000000
11
53.691900
21
59.371400
31
0.000000
62
7
0
LINE
100
AcDbEntity
100
AcDbLine
8
PCL_Layer
5
1094
10
59.996900
20
55.668500
30
0.000000
11
60.797500
21
55.668500
31
0.000000
62
7
0
LINE
100
AcDbEntity
100
AcDbLine
8
PCL_Layer
5
1095
10
60.797500
20
55.668500
30
0.000000
11
60.797500
21
53.466800
31
0.000000
62
7
0
LINE
100
AcDbEntity
100
AcDbLine
8
PCL_Layer
5
1096
10
60.797500
20
53.466800
30
0.000000
11
59.996900
21
53.466800
31
0.000000
62
7
0
LINE
100
AcDbEntity
100
AcDbLine
8
PCL_Layer
5
1097
10
59.996900
20
53.466800
30
0.000000
11
59.996900
21
55.668500
31
0.000000
62
7
0
LINE
100
AcDbEntity
100
AcDbLine
8
PCL_Layer
5
1098
10
61.598100
20
60.672400
30
0.000000
11
75.183700
21
60.672400
31
0.000000
62
7
0
LINE
100
AcDbEntity
100
AcDbLine
8
PCL_Layer
5
1099
10
75.183700
20
60.672400
30
0.000000
11
75.183700
21
47.111800
31
0.000000
62
7
0
LINE
100
AcDbEntity
100
AcDbLine
8
PCL_Layer
5
109A
10
75.183700
20
47.111800
30
0.000000
11
61.598100
21
47.111800
31
0.000000
62
7
0
LINE
100
AcDbEntity
100
AcDbLine
8
PCL_Layer
5
109B
10
61.598100
20
47.111800
30
0.000000
11
61.598100
21
60.672400
31
0.000000
62
7
0
LINE
100
AcDbEntity
100
AcDbLine
8
PCL_Layer
5
109C
10
75.984400
20
55.668500
30
0.000000
11
76.785000
21
55.668500
31
0.000000
62
7
0
LINE
100
AcDbEntity
100
AcDbLine
8
PCL_Layer
5
109D
10
76.785000
20
55.668500
30
0.000000
11
76.785000
21
53.466800
31
0.000000
62
7
0
LINE
100
AcDbEntity
100
AcDbLine
8
PCL_Layer
5
109E
10
76.785000
20
53.466800
30
0.000000
11
75.984400
21
53.466800
31
0.000000
62
7
0
LINE
100
AcDbEntity
100
AcDbLine
8
PCL_Layer
5
109F
10
75.984400
20
53.466800
30
0.000000
11
75.984400
21
55.668500
31
0.000000
62
7
0
LINE
100
AcDbEntity
100
AcDbLine
8
PCL_Layer
5
10A0
10
76.785000
20
59.371400
30
0.000000
11
83.089900
21
59.371400
31
0.000000
62
7
0
LINE
100
AcDbEntity
100
AcDbLine
8
PCL_Layer
5
10A1
10
83.089900
20
59.371400
30
0.000000
11
83.089900
21
43.559000
31
0.000000
62
7
0
LINE
100
AcDbEntity
100
AcDbLine
8
PCL_Layer
5
10A2
10
83.089900
20
43.559000
30
0.000000
11
76.785000
21
43.559000
31
0.000000
62
7
0
LINE
100
AcDbEntity
100
AcDbLine
8
PCL_Layer
5
10A3
10
76.785000
20
43.559000
30
0.000000
11
76.785000
21
59.371400
31
0.000000
62
7
0
LINE
100
AcDbEntity
100
AcDbLine
8
PCL_Layer
5
10A4
10
83.089900
20
55.668500
30
0.000000
11
83.890500
21
55.668500
31
0.000000
62
7
0
LINE
100
AcDbEntity
100
AcDbLine
8
PCL_Layer
5
10A5
10
83.890500
20
55.668500
30
0.000000
11
83.890500
21
53.466800
31
0.000000
62
7
0
LINE
100
AcDbEntity
100
AcDbLine
8
PCL_Layer
5
10A6
10
83.890500
20
53.466800
30
0.000000
11
83.089900
21
53.466800
31
0.000000
62
7
0
LINE
100
AcDbEntity
100
AcDbLine
8
PCL_Layer
5
10A7
10
83.089900
20
53.466800
30
0.000000
11
83.089900
21
55.668500
31
0.000000
62
7
0
LINE
100
AcDbEntity
100
AcDbLine
8
PCL_Layer
5
10A8
10
14.761500
20
55.668500
30
0.000000
11
15.562200
21
55.668500
31
0.000000
62
7
0
LINE
100
AcDbEntity
100
AcDbLine
8
PCL_Layer
5
10A9
10
15.562200
20
55.668500
30
0.000000
11
15.562200
21
53.466800
31
0.000000
62
7
0
LINE
100
AcDbEntity
100
AcDbLine
8
PCL_Layer
5
10AA
10
15.562200
20
53.466800
30
0.000000
11
14.761500
21
53.466800
31
0.000000
62
7
0
LINE
100
AcDbEntity
100
AcDbLine
8
PCL_Layer
5
10AB
10
14.761500
20
53.466800
30
0.000000
11
14.761500
21
55.668500
31
0.000000
62
7
0
LINE
100
AcDbEntity
100
AcDbLine
8
PCL_Layer
5
10AC
10
15.562200
20
59.371400
30
0.000000
11
21.867100
21
59.371400
31
0.000000
62
7
0
LINE
100
AcDbEntity
100
AcDbLine
8
PCL_Layer
5
10AD
10
21.867100
20
59.371400
30
0.000000
11
21.867100
21
43.559000
31
0.000000
62
7
0
LINE
100
AcDbEntity
100
AcDbLine
8
PCL_Layer
5
10AE
10
21.867100
20
43.559000
30
0.000000
11
15.562200
21
43.559000
31
0.000000
62
7
0
LINE
100
AcDbEntity
100
AcDbLine
8
PCL_Layer
5
10AF
10
15.562200
20
43.559000
30
0.000000
11
15.562200
21
59.371400
31
0.000000
62
7
0
LINE
100
AcDbEntity
100
AcDbLine
8
PCL_Layer
5
10B0
10
21.867100
20
55.668500
30
0.000000
11
22.667700
21
55.668500
31
0.000000
62
7
0
LINE
100
AcDbEntity
100
AcDbLine
8
PCL_Layer
5
10B1
10
22.667700
20
55.668500
30
0.000000
11
22.667700
21
53.466800
31
0.000000
62
7
0
LINE
100
AcDbEntity
100
AcDbLine
8
PCL_Layer
5
10B2
10
22.667700
20
53.466800
30
0.000000
11
21.867100
21
53.466800
31
0.000000
62
7
0
LINE
100
AcDbEntity
100
AcDbLine
8
PCL_Layer
5
10B3
10
21.867100
20
53.466800
30
0.000000
11
21.867100
21
55.668500
31
0.000000
62
7
0
LINE
100
AcDbEntity
100
AcDbLine
8
PCL_Layer
5
10B4
10
23.468300
20
60.672400
30
0.000000
11
37.053900
21
60.672400
31
0.000000
62
7
0
LINE
100
AcDbEntity
100
AcDbLine
8
PCL_Layer
5
10B5
10
37.053900
20
60.672400
30
0.000000
11
37.053900
21
47.111800
31
0.000000
62
7
0
LINE
100
AcDbEntity
100
AcDbLine
8
PCL_Layer
5
10B6
10
37.053900
20
47.111800
30
0.000000
11
23.468300
21
47.111800
31
0.000000
62
7
0
LINE
100
AcDbEntity
100
AcDbLine
8
PCL_Layer
5
10B7
10
23.468300
20
47.111800
30
0.000000
11
23.468300
21
60.672400
31
0.000000
62
7
0
LINE
100
AcDbEntity
100
AcDbLine
8
PCL_Layer
5
10B8
10
37.854600
20
55.668500
30
0.000000
11
38.655200
21
55.668500
31
0.000000
62
7
0
LINE
100
AcDbEntity
100
AcDbLine
8
PCL_Layer
5
10B9
10
38.655200
20
55.668500
30
0.000000
11
38.655200
21
53.466800
31
0.000000
62
7
0
LINE
100
AcDbEntity
100
AcDbLine
8
PCL_Layer
5
10BA
10
38.655200
20
53.466800
30
0.000000
11
37.854600
21
53.466800
31
0.000000
62
7
0
LINE
100
AcDbEntity
100
AcDbLine
8
PCL_Layer
5
10BB
10
37.854600
20
53.466800
30
0.000000
11
37.854600
21
55.668500
31
0.000000
62
7
0
LINE
100
AcDbEntity
100
AcDbLine
8
PCL_Layer
5
10BC
10
38.655200
20
59.371400
30
0.000000
11
44.960100
21
59.371400
31
0.000000
62
7
0
LINE
100
AcDbEntity
100
AcDbLine
8
PCL_Layer
5
10BD
10
44.960100
20
59.371400
30
0.000000
11
44.960100
21
43.559000
31
0.000000
62
7
0
LINE
100
AcDbEntity
100
AcDbLine
8
PCL_Layer
5
10BE
10
44.960100
20
43.559000
30
0.000000
11
38.655200
21
43.559000
31
0.000000
62
7
0
LINE
100
AcDbEntity
100
AcDbLine
8
PCL_Layer
5
10BF
10
38.655200
20
43.559000
30
0.000000
11
38.655200
21
59.371400
31
0.000000
62
7
0
LINE
100
AcDbEntity
100
AcDbLine
8
PCL_Layer
5
10C0
10
44.960100
20
55.668500
30
0.000000
11
45.760800
21
55.668500
31
0.000000
62
7
0
LINE
100
AcDbEntity
100
AcDbLine
8
PCL_Layer
5
10C1
10
45.760800
20
55.668500
30
0.000000
11
45.760800
21
53.466800
31
0.000000
62
7
0
LINE
100
AcDbEntity
100
AcDbLine
8
PCL_Layer
5
10C2
10
45.760800
20
53.466800
30
0.000000
11
44.960100
21
53.466800
31
0.000000
62
7
0
LINE
100
AcDbEntity
100
AcDbLine
8
PCL_Layer
5
10C3
10
44.960100
20
53.466800
30
0.000000
11
44.960100
21
55.668500
31
0.000000
62
7
0
LINE
100
AcDbEntity
100
AcDbLine
8
PCL_Layer
5
10C4
10
281.670100
20
112.863200
30
0.000000
11
282.470700
21
112.863200
31
0.000000
62
7
0
LINE
100
AcDbEntity
100
AcDbLine
8
PCL_Layer
5
10C5
10
282.470700
20
112.863200
30
0.000000
11
282.470700
21
110.661500
31
0.000000
62
7
0
LINE
100
AcDbEntity
100
AcDbLine
8
PCL_Layer
5
10C6
10
282.470700
20
110.661500
30
0.000000
11
281.670100
21
110.661500
31
0.000000
62
7
0
LINE
100
AcDbEntity
100
AcDbLine
8
PCL_Layer
5
10C7
10
281.670100
20
110.661500
30
0.000000
11
281.670100
21
112.863200
31
0.000000
62
7
0
LINE
100
AcDbEntity
100
AcDbLine
8
PCL_Layer
5
10C8
10
282.470700
20
116.566100
30
0.000000
11
288.775600
21
116.566100
31
0.000000
62
7
0
LINE
100
AcDbEntity
100
AcDbLine
8
PCL_Layer
5
10C9
10
288.775600
20
116.566100
30
0.000000
11
288.775600
21
100.753700
31
0.000000
62
7
0
LINE
100
AcDbEntity
100
AcDbLine
8
PCL_Layer
5
10CA
10
288.775600
20
100.753700
30
0.000000
11
282.470700
21
100.753700
31
0.000000
62
7
0
LINE
100
AcDbEntity
100
AcDbLine
8
PCL_Layer
5
10CB
10
282.470700
20
100.753700
30
0.000000
11
282.470700
21
116.566100
31
0.000000
62
7
0
LINE
100
AcDbEntity
100
AcDbLine
8
PCL_Layer
5
10CC
10
288.775600
20
112.863200
30
0.000000
11
289.576200
21
112.863200
31
0.000000
62
7
0
LINE
100
AcDbEntity
100
AcDbLine
8
PCL_Layer
5
10CD
10
289.576200
20
112.863200
30
0.000000
11
289.576200
21
110.661500
31
0.000000
62
7
0
LINE
100
AcDbEntity
100
AcDbLine
8
PCL_Layer
5
10CE
10
289.576200
20
110.661500
30
0.000000
11
288.775600
21
110.661500
31
0.000000
62
7
0
LINE
100
AcDbEntity
100
AcDbLine
8
PCL_Layer
5
10CF
10
288.775600
20
110.661500
30
0.000000
11
288.775600
21
112.863200
31
0.000000
62
7
0
LINE
100
AcDbEntity
100
AcDbLine
8
PCL_Layer
5
10D0
10
290.376900
20
117.867100
30
0.000000
11
303.962500
21
117.867100
31
0.000000
62
7
0
LINE
100
AcDbEntity
100
AcDbLine
8
PCL_Layer
5
10D1
10
303.962500
20
117.867100
30
0.000000
11
303.962500
21
104.306500
31
0.000000
62
7
0
LINE
100
AcDbEntity
100
AcDbLine
8
PCL_Layer
5
10D2
10
303.962500
20
104.306500
30
0.000000
11
290.376900
21
104.306500
31
0.000000
62
7
0
LINE
100
AcDbEntity
100
AcDbLine
8
PCL_Layer
5
10D3
10
290.376900
20
104.306500
30
0.000000
11
290.376900
21
117.867100
31
0.000000
62
7
0
LINE
100
AcDbEntity
100
AcDbLine
8
PCL_Layer
5
10D4
10
304.763100
20
112.863200
30
0.000000
11
305.563700
21
112.863200
31
0.000000
62
7
0
LINE
100
AcDbEntity
100
AcDbLine
8
PCL_Layer
5
10D5
10
305.563700
20
112.863200
30
0.000000
11
305.563700
21
110.661500
31
0.000000
62
7
0
LINE
100
AcDbEntity
100
AcDbLine
8
PCL_Layer
5
10D6
10
305.563700
20
110.661500
30
0.000000
11
304.763100
21
110.661500
31
0.000000
62
7
0
LINE
100
AcDbEntity
100
AcDbLine
8
PCL_Layer
5
10D7
10
304.763100
20
110.661500
30
0.000000
11
304.763100
21
112.863200
31
0.000000
62
7
0
LINE
100
AcDbEntity
100
AcDbLine
8
PCL_Layer
5
10D8
10
305.563700
20
116.566100
30
0.000000
11
311.868700
21
116.566100
31
0.000000
62
7
0
LINE
100
AcDbEntity
100
AcDbLine
8
PCL_Layer
5
10D9
10
311.868700
20
116.566100
30
0.000000
11
311.868700
21
100.753700
31
0.000000
62
7
0
LINE
100
AcDbEntity
100
AcDbLine
8
PCL_Layer
5
10DA
10
311.868700
20
100.753700
30
0.000000
11
305.563700
21
100.753700
31
0.000000
62
7
0
LINE
100
AcDbEntity
100
AcDbLine
8
PCL_Layer
5
10DB
10
305.563700
20
100.753700
30
0.000000
11
305.563700
21
116.566100
31
0.000000
62
7
0
LINE
100
AcDbEntity
100
AcDbLine
8
PCL_Layer
5
10DC
10
311.868700
20
112.863200
30
0.000000
11
312.669300
21
112.863200
31
0.000000
62
7
0
LINE
100
AcDbEntity
100
AcDbLine
8
PCL_Layer
5
10DD
10
312.669300
20
112.863200
30
0.000000
11
312.669300
21
110.661500
31
0.000000
62
7
0
LINE
100
AcDbEntity
100
AcDbLine
8
PCL_Layer
5
10DE
10
312.669300
20
110.661500
30
0.000000
11
311.868700
21
110.661500
31
0.000000
62
7
0
LINE
100
AcDbEntity
100
AcDbLine
8
PCL_Layer
5
10DF
10
311.868700
20
110.661500
30
0.000000
11
311.868700
21
112.863200
31
0.000000
62
7
0
LINE
100
AcDbEntity
100
AcDbLine
8
PCL_Layer
5
10E0
10
434.189200
20
112.863200
30
0.000000
11
434.989900
21
112.863200
31
0.000000
62
7
0
LINE
100
AcDbEntity
100
AcDbLine
8
PCL_Layer
5
10E1
10
434.989900
20
112.863200
30
0.000000
11
434.989900
21
110.661500
31
0.000000
62
7
0
LINE
100
AcDbEntity
100
AcDbLine
8
PCL_Layer
5
10E2
10
434.989900
20
110.661500
30
0.000000
11
434.189200
21
110.661500
31
0.000000
62
7
0
LINE
100
AcDbEntity
100
AcDbLine
8
PCL_Layer
5
10E3
10
434.189200
20
110.661500
30
0.000000
11
434.189200
21
112.863200
31
0.000000
62
7
0
LINE
100
AcDbEntity
100
AcDbLine
8
PCL_Layer
5
10E4
10
434.989900
20
116.566100
30
0.000000
11
441.294800
21
116.566100
31
0.000000
62
7
0
LINE
100
AcDbEntity
100
AcDbLine
8
PCL_Layer
5
10E5
10
441.294800
20
116.566100
30
0.000000
11
441.294800
21
100.753700
31
0.000000
62
7
0
LINE
100
AcDbEntity
100
AcDbLine
8
PCL_Layer
5
10E6
10
441.294800
20
100.753700
30
0.000000
11
434.989900
21
100.753700
31
0.000000
62
7
0
LINE
100
AcDbEntity
100
AcDbLine
8
PCL_Layer
5
10E7
10
434.989900
20
100.753700
30
0.000000
11
434.989900
21
116.566100
31
0.000000
62
7
0
LINE
100
AcDbEntity
100
AcDbLine
8
PCL_Layer
5
10E8
10
441.294800
20
112.863200
30
0.000000
11
442.095400
21
112.863200
31
0.000000
62
7
0
LINE
100
AcDbEntity
100
AcDbLine
8
PCL_Layer
5
10E9
10
442.095400
20
112.863200
30
0.000000
11
442.095400
21
110.661500
31
0.000000
62
7
0
LINE
100
AcDbEntity
100
AcDbLine
8
PCL_Layer
5
10EA
10
442.095400
20
110.661500
30
0.000000
11
441.294800
21
110.661500
31
0.000000
62
7
0
LINE
100
AcDbEntity
100
AcDbLine
8
PCL_Layer
5
10EB
10
441.294800
20
110.661500
30
0.000000
11
441.294800
21
112.863200
31
0.000000
62
7
0
LINE
100
AcDbEntity
100
AcDbLine
8
PCL_Layer
5
10EC
10
442.896000
20
117.867100
30
0.000000
11
456.481600
21
117.867100
31
0.000000
62
7
0
LINE
100
AcDbEntity
100
AcDbLine
8
PCL_Layer
5
10ED
10
456.481600
20
117.867100
30
0.000000
11
456.481600
21
104.306500
31
0.000000
62
7
0
LINE
100
AcDbEntity
100
AcDbLine
8
PCL_Layer
5
10EE
10
456.481600
20
104.306500
30
0.000000
11
442.896000
21
104.306500
31
0.000000
62
7
0
LINE
100
AcDbEntity
100
AcDbLine
8
PCL_Layer
5
10EF
10
442.896000
20
104.306500
30
0.000000
11
442.896000
21
117.867100
31
0.000000
62
7
0
LINE
100
AcDbEntity
100
AcDbLine
8
PCL_Layer
5
10F0
10
457.282300
20
112.863200
30
0.000000
11
458.082900
21
112.863200
31
0.000000
62
7
0
LINE
100
AcDbEntity
100
AcDbLine
8
PCL_Layer
5
10F1
10
458.082900
20
112.863200
30
0.000000
11
458.082900
21
110.661500
31
0.000000
62
7
0
LINE
100
AcDbEntity
100
AcDbLine
8
PCL_Layer
5
10F2
10
458.082900
20
110.661500
30
0.000000
11
457.282300
21
110.661500
31
0.000000
62
7
0
LINE
100
AcDbEntity
100
AcDbLine
8
PCL_Layer
5
10F3
10
457.282300
20
110.661500
30
0.000000
11
457.282300
21
112.863200
31
0.000000
62
7
0
LINE
100
AcDbEntity
100
AcDbLine
8
PCL_Layer
5
10F4
10
458.082900
20
116.566100
30
0.000000
11
464.387800
21
116.566100
31
0.000000
62
7
0
LINE
100
AcDbEntity
100
AcDbLine
8
PCL_Layer
5
10F5
10
464.387800
20
116.566100
30
0.000000
11
464.387800
21
100.753700
31
0.000000
62
7
0
LINE
100
AcDbEntity
100
AcDbLine
8
PCL_Layer
5
10F6
10
464.387800
20
100.753700
30
0.000000
11
458.082900
21
100.753700
31
0.000000
62
7
0
LINE
100
AcDbEntity
100
AcDbLine
8
PCL_Layer
5
10F7
10
458.082900
20
100.753700
30
0.000000
11
458.082900
21
116.566100
31
0.000000
62
7
0
LINE
100
AcDbEntity
100
AcDbLine
8
PCL_Layer
5
10F8
10
464.387800
20
112.863200
30
0.000000
11
465.188400
21
112.863200
31
0.000000
62
7
0
LINE
100
AcDbEntity
100
AcDbLine
8
PCL_Layer
5
10F9
10
465.188400
20
112.863200
30
0.000000
11
465.188400
21
110.661500
31
0.000000
62
7
0
LINE
100
AcDbEntity
100
AcDbLine
8
PCL_Layer
5
10FA
10
465.188400
20
110.661500
30
0.000000
11
464.387800
21
110.661500
31
0.000000
62
7
0
LINE
100
AcDbEntity
100
AcDbLine
8
PCL_Layer
5
10FB
10
464.387800
20
110.661500
30
0.000000
11
464.387800
21
112.863200
31
0.000000
62
7
0
LINE
100
AcDbEntity
100
AcDbLine
8
PCL_Layer
5
10FC
10
129.150900
20
112.863200
30
0.000000
11
129.951500
21
112.863200
31
0.000000
62
7
0
LINE
100
AcDbEntity
100
AcDbLine
8
PCL_Layer
5
10FD
10
129.951500
20
112.863200
30
0.000000
11
129.951500
21
110.661500
31
0.000000
62
7
0
LINE
100
AcDbEntity
100
AcDbLine
8
PCL_Layer
5
10FE
10
129.951500
20
110.661500
30
0.000000
11
129.150900
21
110.661500
31
0.000000
62
7
0
LINE
100
AcDbEntity
100
AcDbLine
8
PCL_Layer
5
10FF
10
129.150900
20
110.661500
30
0.000000
11
129.150900
21
112.863200
31
0.000000
62
7
0
LINE
100
AcDbEntity
100
AcDbLine
8
PCL_Layer
5
1100
10
129.951500
20
116.566100
30
0.000000
11
136.256500
21
116.566100
31
0.000000
62
7
0
LINE
100
AcDbEntity
100
AcDbLine
8
PCL_Layer
5
1101
10
136.256500
20
116.566100
30
0.000000
11
136.256500
21
100.753700
31
0.000000
62
7
0
LINE
100
AcDbEntity
100
AcDbLine
8
PCL_Layer
5
1102
10
136.256500
20
100.753700
30
0.000000
11
129.951500
21
100.753700
31
0.000000
62
7
0
LINE
100
AcDbEntity
100
AcDbLine
8
PCL_Layer
5
1103
10
129.951500
20
100.753700
30
0.000000
11
129.951500
21
116.566100
31
0.000000
62
7
0
LINE
100
AcDbEntity
100
AcDbLine
8
PCL_Layer
5
1104
10
136.256500
20
112.863200
30
0.000000
11
137.057100
21
112.863200
31
0.000000
62
7
0
LINE
100
AcDbEntity
100
AcDbLine
8
PCL_Layer
5
1105
10
137.057100
20
112.863200
30
0.000000
11
137.057100
21
110.661500
31
0.000000
62
7
0
LINE
100
AcDbEntity
100
AcDbLine
8
PCL_Layer
5
1106
10
137.057100
20
110.661500
30
0.000000
11
136.256500
21
110.661500
31
0.000000
62
7
0
LINE
100
AcDbEntity
100
AcDbLine
8
PCL_Layer
5
1107
10
136.256500
20
110.661500
30
0.000000
11
136.256500
21
112.863200
31
0.000000
62
7
0
LINE
100
AcDbEntity
100
AcDbLine
8
PCL_Layer
5
1108
10
137.857700
20
117.867100
30
0.000000
11
151.443300
21
117.867100
31
0.000000
62
7
0
LINE
100
AcDbEntity
100
AcDbLine
8
PCL_Layer
5
1109
10
151.443300
20
117.867100
30
0.000000
11
151.443300
21
104.306500
31
0.000000
62
7
0
LINE
100
AcDbEntity
100
AcDbLine
8
PCL_Layer
5
110A
10
151.443300
20
104.306500
30
0.000000
11
137.857700
21
104.306500
31
0.000000
62
7
0
LINE
100
AcDbEntity
100
AcDbLine
8
PCL_Layer
5
110B
10
137.857700
20
104.306500
30
0.000000
11
137.857700
21
117.867100
31
0.000000
62
7
0
LINE
100
AcDbEntity
100
AcDbLine
8
PCL_Layer
5
110C
10
152.243900
20
112.863200
30
0.000000
11
153.044600
21
112.863200
31
0.000000
62
7
0
LINE
100
AcDbEntity
100
AcDbLine
8
PCL_Layer
5
110D
10
153.044600
20
112.863200
30
0.000000
11
153.044600
21
110.661500
31
0.000000
62
7
0
LINE
100
AcDbEntity
100
AcDbLine
8
PCL_Layer
5
110E
10
153.044600
20
110.661500
30
0.000000
11
152.243900
21
110.661500
31
0.000000
62
7
0
LINE
100
AcDbEntity
100
AcDbLine
8
PCL_Layer
5
110F
10
152.243900
20
110.661500
30
0.000000
11
152.243900
21
112.863200
31
0.000000
62
7
0
LINE
100
AcDbEntity
100
AcDbLine
8
PCL_Layer
5
1110
10
153.044600
20
116.566100
30
0.000000
11
159.349500
21
116.566100
31
0.000000
62
7
0
LINE
100
AcDbEntity
100
AcDbLine
8
PCL_Layer
5
1111
10
159.349500
20
116.566100
30
0.000000
11
159.349500
21
100.753700
31
0.000000
62
7
0
LINE
100
AcDbEntity
100
AcDbLine
8
PCL_Layer
5
1112
10
159.349500
20
100.753700
30
0.000000
11
153.044600
21
100.753700
31
0.000000
62
7
0
LINE
100
AcDbEntity
100
AcDbLine
8
PCL_Layer
5
1113
10
153.044600
20
100.753700
30
0.000000
11
153.044600
21
116.566100
31
0.000000
62
7
0
LINE
100
AcDbEntity
100
AcDbLine
8
PCL_Layer
5
1114
10
159.349500
20
112.863200
30
0.000000
11
160.150100
21
112.863200
31
0.000000
62
7
0
LINE
100
AcDbEntity
100
AcDbLine
8
PCL_Layer
5
1115
10
160.150100
20
112.863200
30
0.000000
11
160.150100
21
110.661500
31
0.000000
62
7
0
LINE
100
AcDbEntity
100
AcDbLine
8
PCL_Layer
5
1116
10
160.150100
20
110.661500
30
0.000000
11
159.349500
21
110.661500
31
0.000000
62
7
0
LINE
100
AcDbEntity
100
AcDbLine
8
PCL_Layer
5
1117
10
159.349500
20
110.661500
30
0.000000
11
159.349500
21
112.863200
31
0.000000
62
7
0
LINE
100
AcDbEntity
100
AcDbLine
8
PCL_Layer
5
1118
10
319.799900
20
112.863200
30
0.000000
11
320.600500
21
112.863200
31
0.000000
62
7
0
LINE
100
AcDbEntity
100
AcDbLine
8
PCL_Layer
5
1119
10
320.600500
20
112.863200
30
0.000000
11
320.600500
21
110.661500
31
0.000000
62
7
0
LINE
100
AcDbEntity
100
AcDbLine
8
PCL_Layer
5
111A
10
320.600500
20
110.661500
30
0.000000
11
319.799900
21
110.661500
31
0.000000
62
7
0
LINE
100
AcDbEntity
100
AcDbLine
8
PCL_Layer
5
111B
10
319.799900
20
110.661500
30
0.000000
11
319.799900
21
112.863200
31
0.000000
62
7
0
LINE
100
AcDbEntity
100
AcDbLine
8
PCL_Layer
5
111C
10
320.600500
20
116.566100
30
0.000000
11
326.905400
21
116.566100
31
0.000000
62
7
0
LINE
100
AcDbEntity
100
AcDbLine
8
PCL_Layer
5
111D
10
326.905400
20
116.566100
30
0.000000
11
326.905400
21
100.753700
31
0.000000
62
7
0
LINE
100
AcDbEntity
100
AcDbLine
8
PCL_Layer
5
111E
10
326.905400
20
100.753700
30
0.000000
11
320.600500
21
100.753700
31
0.000000
62
7
0
LINE
100
AcDbEntity
100
AcDbLine
8
PCL_Layer
5
111F
10
320.600500
20
100.753700
30
0.000000
11
320.600500
21
116.566100
31
0.000000
62
7
0
LINE
100
AcDbEntity
100
AcDbLine
8
PCL_Layer
5
1120
10
326.905400
20
112.863200
30
0.000000
11
327.706000
21
112.863200
31
0.000000
62
7
0
LINE
100
AcDbEntity
100
AcDbLine
8
PCL_Layer
5
1121
10
327.706000
20
112.863200
30
0.000000
11
327.706000
21
110.661500
31
0.000000
62
7
0
LINE
100
AcDbEntity
100
AcDbLine
8
PCL_Layer
5
1122
10
327.706000
20
110.661500
30
0.000000
11
326.905400
21
110.661500
31
0.000000
62
7
0
LINE
100
AcDbEntity
100
AcDbLine
8
PCL_Layer
5
1123
10
326.905400
20
110.661500
30
0.000000
11
326.905400
21
112.863200
31
0.000000
62
7
0
LINE
100
AcDbEntity
100
AcDbLine
8
PCL_Layer
5
1124
10
328.506700
20
117.867100
30
0.000000
11
342.092300
21
117.867100
31
0.000000
62
7
0
LINE
100
AcDbEntity
100
AcDbLine
8
PCL_Layer
5
1125
10
342.092300
20
117.867100
30
0.000000
11
342.092300
21
104.306500
31
0.000000
62
7
0
LINE
100
AcDbEntity
100
AcDbLine
8
PCL_Layer
5
1126
10
342.092300
20
104.306500
30
0.000000
11
328.506700
21
104.306500
31
0.000000
62
7
0
LINE
100
AcDbEntity
100
AcDbLine
8
PCL_Layer
5
1127
10
328.506700
20
104.306500
30
0.000000
11
328.506700
21
117.867100
31
0.000000
62
7
0
LINE
100
AcDbEntity
100
AcDbLine
8
PCL_Layer
5
1128
10
342.892900
20
112.863200
30
0.000000
11
343.693500
21
112.863200
31
0.000000
62
7
0
LINE
100
AcDbEntity
100
AcDbLine
8
PCL_Layer
5
1129
10
343.693500
20
112.863200
30
0.000000
11
343.693500
21
110.661500
31
0.000000
62
7
0
LINE
100
AcDbEntity
100
AcDbLine
8
PCL_Layer
5
112A
10
343.693500
20
110.661500
30
0.000000
11
342.892900
21
110.661500
31
0.000000
62
7
0
LINE
100
AcDbEntity
100
AcDbLine
8
PCL_Layer
5
112B
10
342.892900
20
110.661500
30
0.000000
11
342.892900
21
112.863200
31
0.000000
62
7
0
LINE
100
AcDbEntity
100
AcDbLine
8
PCL_Layer
5
112C
10
343.693500
20
116.566100
30
0.000000
11
349.998400
21
116.566100
31
0.000000
62
7
0
LINE
100
AcDbEntity
100
AcDbLine
8
PCL_Layer
5
112D
10
349.998400
20
116.566100
30
0.000000
11
349.998400
21
100.753700
31
0.000000
62
7
0
LINE
100
AcDbEntity
100
AcDbLine
8
PCL_Layer
5
112E
10
349.998400
20
100.753700
30
0.000000
11
343.693500
21
100.753700
31
0.000000
62
7
0
LINE
100
AcDbEntity
100
AcDbLine
8
PCL_Layer
5
112F
10
343.693500
20
100.753700
30
0.000000
11
343.693500
21
116.566100
31
0.000000
62
7
0
LINE
100
AcDbEntity
100
AcDbLine
8
PCL_Layer
5
1130
10
349.998400
20
112.863200
30
0.000000
11
350.799000
21
112.863200
31
0.000000
62
7
0
LINE
100
AcDbEntity
100
AcDbLine
8
PCL_Layer
5
1131
10
350.799000
20
112.863200
30
0.000000
11
350.799000
21
110.661500
31
0.000000
62
7
0
LINE
100
AcDbEntity
100
AcDbLine
8
PCL_Layer
5
1132
10
350.799000
20
110.661500
30
0.000000
11
349.998400
21
110.661500
31
0.000000
62
7
0
LINE
100
AcDbEntity
100
AcDbLine
8
PCL_Layer
5
1133
10
349.998400
20
110.661500
30
0.000000
11
349.998400
21
112.863200
31
0.000000
62
7
0
LINE
100
AcDbEntity
100
AcDbLine
8
PCL_Layer
5
1134
10
52.891300
20
112.863200
30
0.000000
11
53.691900
21
112.863200
31
0.000000
62
7
0
LINE
100
AcDbEntity
100
AcDbLine
8
PCL_Layer
5
1135
10
53.691900
20
112.863200
30
0.000000
11
53.691900
21
110.661500
31
0.000000
62
7
0
LINE
100
AcDbEntity
100
AcDbLine
8
PCL_Layer
5
1136
10
53.691900
20
110.661500
30
0.000000
11
52.891300
21
110.661500
31
0.000000
62
7
0
LINE
100
AcDbEntity
100
AcDbLine
8
PCL_Layer
5
1137
10
52.891300
20
110.661500
30
0.000000
11
52.891300
21
112.863200
31
0.000000
62
7
0
LINE
100
AcDbEntity
100
AcDbLine
8
PCL_Layer
5
1138
10
53.691900
20
116.566100
30
0.000000
11
59.996900
21
116.566100
31
0.000000
62
7
0
LINE
100
AcDbEntity
100
AcDbLine
8
PCL_Layer
5
1139
10
59.996900
20
116.566100
30
0.000000
11
59.996900
21
100.753700
31
0.000000
62
7
0
LINE
100
AcDbEntity
100
AcDbLine
8
PCL_Layer
5
113A
10
59.996900
20
100.753700
30
0.000000
11
53.691900
21
100.753700
31
0.000000
62
7
0
LINE
100
AcDbEntity
100
AcDbLine
8
PCL_Layer
5
113B
10
53.691900
20
100.753700
30
0.000000
11
53.691900
21
116.566100
31
0.000000
62
7
0
LINE
100
AcDbEntity
100
AcDbLine
8
PCL_Layer
5
113C
10
59.996900
20
112.863200
30
0.000000
11
60.797500
21
112.863200
31
0.000000
62
7
0
LINE
100
AcDbEntity
100
AcDbLine
8
PCL_Layer
5
113D
10
60.797500
20
112.863200
30
0.000000
11
60.797500
21
110.661500
31
0.000000
62
7
0
LINE
100
AcDbEntity
100
AcDbLine
8
PCL_Layer
5
113E
10
60.797500
20
110.661500
30
0.000000
11
59.996900
21
110.661500
31
0.000000
62
7
0
LINE
100
AcDbEntity
100
AcDbLine
8
PCL_Layer
5
113F
10
59.996900
20
110.661500
30
0.000000
11
59.996900
21
112.863200
31
0.000000
62
7
0
LINE
100
AcDbEntity
100
AcDbLine
8
PCL_Layer
5
1140
10
61.598100
20
117.867100
30
0.000000
11
75.183700
21
117.867100
31
0.000000
62
7
0
LINE
100
AcDbEntity
100
AcDbLine
8
PCL_Layer
5
1141
10
75.183700
20
117.867100
30
0.000000
11
75.183700
21
104.306500
31
0.000000
62
7
0
LINE
100
AcDbEntity
100
AcDbLine
8
PCL_Layer
5
1142
10
75.183700
20
104.306500
30
0.000000
11
61.598100
21
104.306500
31
0.000000
62
7
0
LINE
100
AcDbEntity
100
AcDbLine
8
PCL_Layer
5
1143
10
61.598100
20
104.306500
30
0.000000
11
61.598100
21
117.867100
31
0.000000
62
7
0
LINE
100
AcDbEntity
100
AcDbLine
8
PCL_Layer
5
1144
10
75.984400
20
112.863200
30
0.000000
11
76.785000
21
112.863200
31
0.000000
62
7
0
LINE
100
AcDbEntity
100
AcDbLine
8
PCL_Layer
5
1145
10
76.785000
20
112.863200
30
0.000000
11
76.785000
21
110.661500
31
0.000000
62
7
0
LINE
100
AcDbEntity
100
AcDbLine
8
PCL_Layer
5
1146
10
76.785000
20
110.661500
30
0.000000
11
75.984400
21
110.661500
31
0.000000
62
7
0
LINE
100
AcDbEntity
100
AcDbLine
8
PCL_Layer
5
1147
10
75.984400
20
110.661500
30
0.000000
11
75.984400
21
112.863200
31
0.000000
62
7
0
LINE
100
AcDbEntity
100
AcDbLine
8
PCL_Layer
5
1148
10
76.785000
20
116.566100
30
0.000000
11
83.089900
21
116.566100
31
0.000000
62
7
0
LINE
100
AcDbEntity
100
AcDbLine
8
PCL_Layer
5
1149
10
83.089900
20
116.566100
30
0.000000
11
83.089900
21
100.753700
31
0.000000
62
7
0
LINE
100
AcDbEntity
100
AcDbLine
8
PCL_Layer
5
114A
10
83.089900
20
100.753700
30
0.000000
11
76.785000
21
100.753700
31
0.000000
62
7
0
LINE
100
AcDbEntity
100
AcDbLine
8
PCL_Layer
5
114B
10
76.785000
20
100.753700
30
0.000000
11
76.785000
21
116.566100
31
0.000000
62
7
0
LINE
100
AcDbEntity
100
AcDbLine
8
PCL_Layer
5
114C
10
83.089900
20
112.863200
30
0.000000
11
83.890500
21
112.863200
31
0.000000
62
7
0
LINE
100
AcDbEntity
100
AcDbLine
8
PCL_Layer
5
114D
10
83.890500
20
112.863200
30
0.000000
11
83.890500
21
110.661500
31
0.000000
62
7
0
LINE
100
AcDbEntity
100
AcDbLine
8
PCL_Layer
5
114E
10
83.890500
20
110.661500
30
0.000000
11
83.089900
21
110.661500
31
0.000000
62
7
0
LINE
100
AcDbEntity
100
AcDbLine
8
PCL_Layer
5
114F
10
83.089900
20
110.661500
30
0.000000
11
83.089900
21
112.863200
31
0.000000
62
7
0
LINE
100
AcDbEntity
100
AcDbLine
8
PCL_Layer
5
1150
10
52.891300
20
93.798300
30
0.000000
11
53.691900
21
93.798300
31
0.000000
62
7
0
LINE
100
AcDbEntity
100
AcDbLine
8
PCL_Layer
5
1151
10
53.691900
20
93.798300
30
0.000000
11
53.691900
21
91.596600
31
0.000000
62
7
0
LINE
100
AcDbEntity
100
AcDbLine
8
PCL_Layer
5
1152
10
53.691900
20
91.596600
30
0.000000
11
52.891300
21
91.596600
31
0.000000
62
7
0
LINE
100
AcDbEntity
100
AcDbLine
8
PCL_Layer
5
1153
10
52.891300
20
91.596600
30
0.000000
11
52.891300
21
93.798300
31
0.000000
62
7
0
LINE
100
AcDbEntity
100
AcDbLine
8
PCL_Layer
5
1154
10
53.691900
20
97.501200
30
0.000000
11
59.996900
21
97.501200
31
0.000000
62
7
0
LINE
100
AcDbEntity
100
AcDbLine
8
PCL_Layer
5
1155
10
59.996900
20
97.501200
30
0.000000
11
59.996900
21
81.688800
31
0.000000
62
7
0
LINE
100
AcDbEntity
100
AcDbLine
8
PCL_Layer
5
1156
10
59.996900
20
81.688800
30
0.000000
11
53.691900
21
81.688800
31
0.000000
62
7
0
LINE
100
AcDbEntity
100
AcDbLine
8
PCL_Layer
5
1157
10
53.691900
20
81.688800
30
0.000000
11
53.691900
21
97.501200
31
0.000000
62
7
0
LINE
100
AcDbEntity
100
AcDbLine
8
PCL_Layer
5
1158
10
59.996900
20
93.798300
30
0.000000
11
60.797500
21
93.798300
31
0.000000
62
7
0
LINE
100
AcDbEntity
100
AcDbLine
8
PCL_Layer
5
1159
10
60.797500
20
93.798300
30
0.000000
11
60.797500
21
91.596600
31
0.000000
62
7
0
LINE
100
AcDbEntity
100
AcDbLine
8
PCL_Layer
5
115A
10
60.797500
20
91.596600
30
0.000000
11
59.996900
21
91.596600
31
0.000000
62
7
0
LINE
100
AcDbEntity
100
AcDbLine
8
PCL_Layer
5
115B
10
59.996900
20
91.596600
30
0.000000
11
59.996900
21
93.798300
31
0.000000
62
7
0
LINE
100
AcDbEntity
100
AcDbLine
8
PCL_Layer
5
115C
10
61.598100
20
98.802200
30
0.000000
11
75.183700
21
98.802200
31
0.000000
62
7
0
LINE
100
AcDbEntity
100
AcDbLine
8
PCL_Layer
5
115D
10
75.183700
20
98.802200
30
0.000000
11
75.183700
21
85.241600
31
0.000000
62
7
0
LINE
100
AcDbEntity
100
AcDbLine
8
PCL_Layer
5
115E
10
75.183700
20
85.241600
30
0.000000
11
61.598100
21
85.241600
31
0.000000
62
7
0
LINE
100
AcDbEntity
100
AcDbLine
8
PCL_Layer
5
115F
10
61.598100
20
85.241600
30
0.000000
11
61.598100
21
98.802200
31
0.000000
62
7
0
LINE
100
AcDbEntity
100
AcDbLine
8
PCL_Layer
5
1160
10
75.984400
20
93.798300
30
0.000000
11
76.785000
21
93.798300
31
0.000000
62
7
0
LINE
100
AcDbEntity
100
AcDbLine
8
PCL_Layer
5
1161
10
76.785000
20
93.798300
30
0.000000
11
76.785000
21
91.596600
31
0.000000
62
7
0
LINE
100
AcDbEntity
100
AcDbLine
8
PCL_Layer
5
1162
10
76.785000
20
91.596600
30
0.000000
11
75.984400
21
91.596600
31
0.000000
62
7
0
LINE
100
AcDbEntity
100
AcDbLine
8
PCL_Layer
5
1163
10
75.984400
20
91.596600
30
0.000000
11
75.984400
21
93.798300
31
0.000000
62
7
0
LINE
100
AcDbEntity
100
AcDbLine
8
PCL_Layer
5
1164
10
76.785000
20
97.501200
30
0.000000
11
83.089900
21
97.501200
31
0.000000
62
7
0
LINE
100
AcDbEntity
100
AcDbLine
8
PCL_Layer
5
1165
10
83.089900
20
97.501200
30
0.000000
11
83.089900
21
81.688800
31
0.000000
62
7
0
LINE
100
AcDbEntity
100
AcDbLine
8
PCL_Layer
5
1166
10
83.089900
20
81.688800
30
0.000000
11
76.785000
21
81.688800
31
0.000000
62
7
0
LINE
100
AcDbEntity
100
AcDbLine
8
PCL_Layer
5
1167
10
76.785000
20
81.688800
30
0.000000
11
76.785000
21
97.501200
31
0.000000
62
7
0
LINE
100
AcDbEntity
100
AcDbLine
8
PCL_Layer
5
1168
10
83.089900
20
93.798300
30
0.000000
11
83.890500
21
93.798300
31
0.000000
62
7
0
LINE
100
AcDbEntity
100
AcDbLine
8
PCL_Layer
5
1169
10
83.890500
20
93.798300
30
0.000000
11
83.890500
21
91.596600
31
0.000000
62
7
0
LINE
100
AcDbEntity
100
AcDbLine
8
PCL_Layer
5
116A
10
83.890500
20
91.596600
30
0.000000
11
83.089900
21
91.596600
31
0.000000
62
7
0
LINE
100
AcDbEntity
100
AcDbLine
8
PCL_Layer
5
116B
10
83.089900
20
91.596600
30
0.000000
11
83.089900
21
93.798300
31
0.000000
62
7
0
LINE
100
AcDbEntity
100
AcDbLine
8
PCL_Layer
5
116C
10
396.059400
20
55.668500
30
0.000000
11
396.860000
21
55.668500
31
0.000000
62
7
0
LINE
100
AcDbEntity
100
AcDbLine
8
PCL_Layer
5
116D
10
396.860000
20
55.668500
30
0.000000
11
396.860000
21
53.466800
31
0.000000
62
7
0
LINE
100
AcDbEntity
100
AcDbLine
8
PCL_Layer
5
116E
10
396.860000
20
53.466800
30
0.000000
11
396.059400
21
53.466800
31
0.000000
62
7
0
LINE
100
AcDbEntity
100
AcDbLine
8
PCL_Layer
5
116F
10
396.059400
20
53.466800
30
0.000000
11
396.059400
21
55.668500
31
0.000000
62
7
0
LINE
100
AcDbEntity
100
AcDbLine
8
PCL_Layer
5
1170
10
396.860000
20
59.371400
30
0.000000
11
403.165000
21
59.371400
31
0.000000
62
7
0
LINE
100
AcDbEntity
100
AcDbLine
8
PCL_Layer
5
1171
10
403.165000
20
59.371400
30
0.000000
11
403.165000
21
43.559000
31
0.000000
62
7
0
LINE
100
AcDbEntity
100
AcDbLine
8
PCL_Layer
5
1172
10
403.165000
20
43.559000
30
0.000000
11
396.860000
21
43.559000
31
0.000000
62
7
0
LINE
100
AcDbEntity
100
AcDbLine
8
PCL_Layer
5
1173
10
396.860000
20
43.559000
30
0.000000
11
396.860000
21
59.371400
31
0.000000
62
7
0
LINE
100
AcDbEntity
100
AcDbLine
8
PCL_Layer
5
1174
10
403.165000
20
55.668500
30
0.000000
11
403.965600
21
55.668500
31
0.000000
62
7
0
LINE
100
AcDbEntity
100
AcDbLine
8
PCL_Layer
5
1175
10
403.965600
20
55.668500
30
0.000000
11
403.965600
21
53.466800
31
0.000000
62
7
0
LINE
100
AcDbEntity
100
AcDbLine
8
PCL_Layer
5
1176
10
403.965600
20
53.466800
30
0.000000
11
403.165000
21
53.466800
31
0.000000
62
7
0
LINE
100
AcDbEntity
100
AcDbLine
8
PCL_Layer
5
1177
10
403.165000
20
53.466800
30
0.000000
11
403.165000
21
55.668500
31
0.000000
62
7
0
LINE
100
AcDbEntity
100
AcDbLine
8
PCL_Layer
5
1178
10
404.766200
20
60.672400
30
0.000000
11
418.351900
21
60.672400
31
0.000000
62
7
0
LINE
100
AcDbEntity
100
AcDbLine
8
PCL_Layer
5
1179
10
418.351900
20
60.672400
30
0.000000
11
418.351900
21
47.111800
31
0.000000
62
7
0
LINE
100
AcDbEntity
100
AcDbLine
8
PCL_Layer
5
117A
10
418.351900
20
47.111800
30
0.000000
11
404.766200
21
47.111800
31
0.000000
62
7
0
LINE
100
AcDbEntity
100
AcDbLine
8
PCL_Layer
5
117B
10
404.766200
20
47.111800
30
0.000000
11
404.766200
21
60.672400
31
0.000000
62
7
0
LINE
100
AcDbEntity
100
AcDbLine
8
PCL_Layer
5
117C
10
419.152500
20
55.668500
30
0.000000
11
419.953100
21
55.668500
31
0.000000
62
7
0
LINE
100
AcDbEntity
100
AcDbLine
8
PCL_Layer
5
117D
10
419.953100
20
55.668500
30
0.000000
11
419.953100
21
53.466800
31
0.000000
62
7
0
LINE
100
AcDbEntity
100
AcDbLine
8
PCL_Layer
5
117E
10
419.953100
20
53.466800
30
0.000000
11
419.152500
21
53.466800
31
0.000000
62
7
0
LINE
100
AcDbEntity
100
AcDbLine
8
PCL_Layer
5
117F
10
419.152500
20
53.466800
30
0.000000
11
419.152500
21
55.668500
31
0.000000
62
7
0
LINE
100
AcDbEntity
100
AcDbLine
8
PCL_Layer
5
1180
10
419.953100
20
59.371400
30
0.000000
11
426.258000
21
59.371400
31
0.000000
62
7
0
LINE
100
AcDbEntity
100
AcDbLine
8
PCL_Layer
5
1181
10
426.258000
20
59.371400
30
0.000000
11
426.258000
21
43.559000
31
0.000000
62
7
0
LINE
100
AcDbEntity
100
AcDbLine
8
PCL_Layer
5
1182
10
426.258000
20
43.559000
30
0.000000
11
419.953100
21
43.559000
31
0.000000
62
7
0
LINE
100
AcDbEntity
100
AcDbLine
8
PCL_Layer
5
1183
10
419.953100
20
43.559000
30
0.000000
11
419.953100
21
59.371400
31
0.000000
62
7
0
LINE
100
AcDbEntity
100
AcDbLine
8
PCL_Layer
5
1184
10
426.258000
20
55.668500
30
0.000000
11
427.058600
21
55.668500
31
0.000000
62
7
0
LINE
100
AcDbEntity
100
AcDbLine
8
PCL_Layer
5
1185
10
427.058600
20
55.668500
30
0.000000
11
427.058600
21
53.466800
31
0.000000
62
7
0
LINE
100
AcDbEntity
100
AcDbLine
8
PCL_Layer
5
1186
10
427.058600
20
53.466800
30
0.000000
11
426.258000
21
53.466800
31
0.000000
62
7
0
LINE
100
AcDbEntity
100
AcDbLine
8
PCL_Layer
5
1187
10
426.258000
20
53.466800
30
0.000000
11
426.258000
21
55.668500
31
0.000000
62
7
0
LINE
100
AcDbEntity
100
AcDbLine
8
PCL_Layer
5
1188
10
357.929700
20
112.863200
30
0.000000
11
358.730300
21
112.863200
31
0.000000
62
7
0
LINE
100
AcDbEntity
100
AcDbLine
8
PCL_Layer
5
1189
10
358.730300
20
112.863200
30
0.000000
11
358.730300
21
110.661500
31
0.000000
62
7
0
LINE
100
AcDbEntity
100
AcDbLine
8
PCL_Layer
5
118A
10
358.730300
20
110.661500
30
0.000000
11
357.929700
21
110.661500
31
0.000000
62
7
0
LINE
100
AcDbEntity
100
AcDbLine
8
PCL_Layer
5
118B
10
357.929700
20
110.661500
30
0.000000
11
357.929700
21
112.863200
31
0.000000
62
7
0
LINE
100
AcDbEntity
100
AcDbLine
8
PCL_Layer
5
118C
10
358.730300
20
116.566100
30
0.000000
11
365.035200
21
116.566100
31
0.000000
62
7
0
LINE
100
AcDbEntity
100
AcDbLine
8
PCL_Layer
5
118D
10
365.035200
20
116.566100
30
0.000000
11
365.035200
21
100.753700
31
0.000000
62
7
0
LINE
100
AcDbEntity
100
AcDbLine
8
PCL_Layer
5
118E
10
365.035200
20
100.753700
30
0.000000
11
358.730300
21
100.753700
31
0.000000
62
7
0
LINE
100
AcDbEntity
100
AcDbLine
8
PCL_Layer
5
118F
10
358.730300
20
100.753700
30
0.000000
11
358.730300
21
116.566100
31
0.000000
62
7
0
LINE
100
AcDbEntity
100
AcDbLine
8
PCL_Layer
5
1190
10
365.035200
20
112.863200
30
0.000000
11
365.835800
21
112.863200
31
0.000000
62
7
0
LINE
100
AcDbEntity
100
AcDbLine
8
PCL_Layer
5
1191
10
365.835800
20
112.863200
30
0.000000
11
365.835800
21
110.661500
31
0.000000
62
7
0
LINE
100
AcDbEntity
100
AcDbLine
8
PCL_Layer
5
1192
10
365.835800
20
110.661500
30
0.000000
11
365.035200
21
110.661500
31
0.000000
62
7
0
LINE
100
AcDbEntity
100
AcDbLine
8
PCL_Layer
5
1193
10
365.035200
20
110.661500
30
0.000000
11
365.035200
21
112.863200
31
0.000000
62
7
0
LINE
100
AcDbEntity
100
AcDbLine
8
PCL_Layer
5
1194
10
366.636400
20
117.867100
30
0.000000
11
380.222000
21
117.867100
31
0.000000
62
7
0
LINE
100
AcDbEntity
100
AcDbLine
8
PCL_Layer
5
1195
10
380.222000
20
117.867100
30
0.000000
11
380.222000
21
104.306500
31
0.000000
62
7
0
LINE
100
AcDbEntity
100
AcDbLine
8
PCL_Layer
5
1196
10
380.222000
20
104.306500
30
0.000000
11
366.636400
21
104.306500
31
0.000000
62
7
0
LINE
100
AcDbEntity
100
AcDbLine
8
PCL_Layer
5
1197
10
366.636400
20
104.306500
30
0.000000
11
366.636400
21
117.867100
31
0.000000
62
7
0
LINE
100
AcDbEntity
100
AcDbLine
8
PCL_Layer
5
1198
10
381.022700
20
112.863200
30
0.000000
11
381.823300
21
112.863200
31
0.000000
62
7
0
LINE
100
AcDbEntity
100
AcDbLine
8
PCL_Layer
5
1199
10
381.823300
20
112.863200
30
0.000000
11
381.823300
21
110.661500
31
0.000000
62
7
0
LINE
100
AcDbEntity
100
AcDbLine
8
PCL_Layer
5
119A
10
381.823300
20
110.661500
30
0.000000
11
381.022700
21
110.661500
31
0.000000
62
7
0
LINE
100
AcDbEntity
100
AcDbLine
8
PCL_Layer
5
119B
10
381.022700
20
110.661500
30
0.000000
11
381.022700
21
112.863200
31
0.000000
62
7
0
LINE
100
AcDbEntity
100
AcDbLine
8
PCL_Layer
5
119C
10
381.823300
20
116.566100
30
0.000000
11
388.128200
21
116.566100
31
0.000000
62
7
0
LINE
100
AcDbEntity
100
AcDbLine
8
PCL_Layer
5
119D
10
388.128200
20
116.566100
30
0.000000
11
388.128200
21
100.753700
31
0.000000
62
7
0
LINE
100
AcDbEntity
100
AcDbLine
8
PCL_Layer
5
119E
10
388.128200
20
100.753700
30
0.000000
11
381.823300
21
100.753700
31
0.000000
62
7
0
LINE
100
AcDbEntity
100
AcDbLine
8
PCL_Layer
5
119F
10
381.823300
20
100.753700
30
0.000000
11
381.823300
21
116.566100
31
0.000000
62
7
0
LINE
100
AcDbEntity
100
AcDbLine
8
PCL_Layer
5
11A0
10
388.128200
20
112.863200
30
0.000000
11
388.928900
21
112.863200
31
0.000000
62
7
0
LINE
100
AcDbEntity
100
AcDbLine
8
PCL_Layer
5
11A1
10
388.928900
20
112.863200
30
0.000000
11
388.928900
21
110.661500
31
0.000000
62
7
0
LINE
100
AcDbEntity
100
AcDbLine
8
PCL_Layer
5
11A2
10
388.928900
20
110.661500
30
0.000000
11
388.128200
21
110.661500
31
0.000000
62
7
0
LINE
100
AcDbEntity
100
AcDbLine
8
PCL_Layer
5
11A3
10
388.128200
20
110.661500
30
0.000000
11
388.128200
21
112.863200
31
0.000000
62
7
0
LINE
100
AcDbEntity
100
AcDbLine
8
PCL_Layer
5
11A4
10
243.540300
20
112.863200
30
0.000000
11
244.340900
21
112.863200
31
0.000000
62
7
0
LINE
100
AcDbEntity
100
AcDbLine
8
PCL_Layer
5
11A5
10
244.340900
20
112.863200
30
0.000000
11
244.340900
21
110.661500
31
0.000000
62
7
0
LINE
100
AcDbEntity
100
AcDbLine
8
PCL_Layer
5
11A6
10
244.340900
20
110.661500
30
0.000000
11
243.540300
21
110.661500
31
0.000000
62
7
0
LINE
100
AcDbEntity
100
AcDbLine
8
PCL_Layer
5
11A7
10
243.540300
20
110.661500
30
0.000000
11
243.540300
21
112.863200
31
0.000000
62
7
0
LINE
100
AcDbEntity
100
AcDbLine
8
PCL_Layer
5
11A8
10
244.340900
20
116.566100
30
0.000000
11
250.645800
21
116.566100
31
0.000000
62
7
0
LINE
100
AcDbEntity
100
AcDbLine
8
PCL_Layer
5
11A9
10
250.645800
20
116.566100
30
0.000000
11
250.645800
21
100.753700
31
0.000000
62
7
0
LINE
100
AcDbEntity
100
AcDbLine
8
PCL_Layer
5
11AA
10
250.645800
20
100.753700
30
0.000000
11
244.340900
21
100.753700
31
0.000000
62
7
0
LINE
100
AcDbEntity
100
AcDbLine
8
PCL_Layer
5
11AB
10
244.340900
20
100.753700
30
0.000000
11
244.340900
21
116.566100
31
0.000000
62
7
0
LINE
100
AcDbEntity
100
AcDbLine
8
PCL_Layer
5
11AC
10
250.645800
20
112.863200
30
0.000000
11
251.446500
21
112.863200
31
0.000000
62
7
0
LINE
100
AcDbEntity
100
AcDbLine
8
PCL_Layer
5
11AD
10
251.446500
20
112.863200
30
0.000000
11
251.446500
21
110.661500
31
0.000000
62
7
0
LINE
100
AcDbEntity
100
AcDbLine
8
PCL_Layer
5
11AE
10
251.446500
20
110.661500
30
0.000000
11
250.645800
21
110.661500
31
0.000000
62
7
0
LINE
100
AcDbEntity
100
AcDbLine
8
PCL_Layer
5
11AF
10
250.645800
20
110.661500
30
0.000000
11
250.645800
21
112.863200
31
0.000000
62
7
0
LINE
100
AcDbEntity
100
AcDbLine
8
PCL_Layer
5
11B0
10
252.247100
20
117.867100
30
0.000000
11
265.832700
21
117.867100
31
0.000000
62
7
0
LINE
100
AcDbEntity
100
AcDbLine
8
PCL_Layer
5
11B1
10
265.832700
20
117.867100
30
0.000000
11
265.832700
21
104.306500
31
0.000000
62
7
0
LINE
100
AcDbEntity
100
AcDbLine
8
PCL_Layer
5
11B2
10
265.832700
20
104.306500
30
0.000000
11
252.247100
21
104.306500
31
0.000000
62
7
0
LINE
100
AcDbEntity
100
AcDbLine
8
PCL_Layer
5
11B3
10
252.247100
20
104.306500
30
0.000000
11
252.247100
21
117.867100
31
0.000000
62
7
0
LINE
100
AcDbEntity
100
AcDbLine
8
PCL_Layer
5
11B4
10
266.633300
20
112.863200
30
0.000000
11
267.433900
21
112.863200
31
0.000000
62
7
0
LINE
100
AcDbEntity
100
AcDbLine
8
PCL_Layer
5
11B5
10
267.433900
20
112.863200
30
0.000000
11
267.433900
21
110.661500
31
0.000000
62
7
0
LINE
100
AcDbEntity
100
AcDbLine
8
PCL_Layer
5
11B6
10
267.433900
20
110.661500
30
0.000000
11
266.633300
21
110.661500
31
0.000000
62
7
0
LINE
100
AcDbEntity
100
AcDbLine
8
PCL_Layer
5
11B7
10
266.633300
20
110.661500
30
0.000000
11
266.633300
21
112.863200
31
0.000000
62
7
0
LINE
100
AcDbEntity
100
AcDbLine
8
PCL_Layer
5
11B8
10
267.433900
20
116.566100
30
0.000000
11
273.738900
21
116.566100
31
0.000000
62
7
0
LINE
100
AcDbEntity
100
AcDbLine
8
PCL_Layer
5
11B9
10
273.738900
20
116.566100
30
0.000000
11
273.738900
21
100.753700
31
0.000000
62
7
0
LINE
100
AcDbEntity
100
AcDbLine
8
PCL_Layer
5
11BA
10
273.738900
20
100.753700
30
0.000000
11
267.433900
21
100.753700
31
0.000000
62
7
0
LINE
100
AcDbEntity
100
AcDbLine
8
PCL_Layer
5
11BB
10
267.433900
20
100.753700
30
0.000000
11
267.433900
21
116.566100
31
0.000000
62
7
0
LINE
100
AcDbEntity
100
AcDbLine
8
PCL_Layer
5
11BC
10
273.738900
20
112.863200
30
0.000000
11
274.539500
21
112.863200
31
0.000000
62
7
0
LINE
100
AcDbEntity
100
AcDbLine
8
PCL_Layer
5
11BD
10
274.539500
20
112.863200
30
0.000000
11
274.539500
21
110.661500
31
0.000000
62
7
0
LINE
100
AcDbEntity
100
AcDbLine
8
PCL_Layer
5
11BE
10
274.539500
20
110.661500
30
0.000000
11
273.738900
21
110.661500
31
0.000000
62
7
0
LINE
100
AcDbEntity
100
AcDbLine
8
PCL_Layer
5
11BF
10
273.738900
20
110.661500
30
0.000000
11
273.738900
21
112.863200
31
0.000000
62
7
0
LINE
100
AcDbEntity
100
AcDbLine
8
PCL_Layer
5
11C0
10
334.086000
20
55.668500
30
0.000000
11
334.886600
21
55.668500
31
0.000000
62
7
0
LINE
100
AcDbEntity
100
AcDbLine
8
PCL_Layer
5
11C1
10
334.886600
20
55.668500
30
0.000000
11
334.886600
21
53.466800
31
0.000000
62
7
0
LINE
100
AcDbEntity
100
AcDbLine
8
PCL_Layer
5
11C2
10
334.886600
20
53.466800
30
0.000000
11
334.086000
21
53.466800
31
0.000000
62
7
0
LINE
100
AcDbEntity
100
AcDbLine
8
PCL_Layer
5
11C3
10
334.086000
20
53.466800
30
0.000000
11
334.086000
21
55.668500
31
0.000000
62
7
0
LINE
100
AcDbEntity
100
AcDbLine
8
PCL_Layer
5
11C4
10
334.886600
20
59.371400
30
0.000000
11
341.191600
21
59.371400
31
0.000000
62
7
0
LINE
100
AcDbEntity
100
AcDbLine
8
PCL_Layer
5
11C5
10
341.191600
20
59.371400
30
0.000000
11
341.191600
21
43.559000
31
0.000000
62
7
0
LINE
100
AcDbEntity
100
AcDbLine
8
PCL_Layer
5
11C6
10
341.191600
20
43.559000
30
0.000000
11
334.886600
21
43.559000
31
0.000000
62
7
0
LINE
100
AcDbEntity
100
AcDbLine
8
PCL_Layer
5
11C7
10
334.886600
20
43.559000
30
0.000000
11
334.886600
21
59.371400
31
0.000000
62
7
0
LINE
100
AcDbEntity
100
AcDbLine
8
PCL_Layer
5
11C8
10
341.191600
20
55.668500
30
0.000000
11
341.992200
21
55.668500
31
0.000000
62
7
0
LINE
100
AcDbEntity
100
AcDbLine
8
PCL_Layer
5
11C9
10
341.992200
20
55.668500
30
0.000000
11
341.992200
21
53.466800
31
0.000000
62
7
0
LINE
100
AcDbEntity
100
AcDbLine
8
PCL_Layer
5
11CA
10
341.992200
20
53.466800
30
0.000000
11
341.191600
21
53.466800
31
0.000000
62
7
0
LINE
100
AcDbEntity
100
AcDbLine
8
PCL_Layer
5
11CB
10
341.191600
20
53.466800
30
0.000000
11
341.191600
21
55.668500
31
0.000000
62
7
0
LINE
100
AcDbEntity
100
AcDbLine
8
PCL_Layer
5
11CC
10
342.792800
20
60.672400
30
0.000000
11
356.378400
21
60.672400
31
0.000000
62
7
0
LINE
100
AcDbEntity
100
AcDbLine
8
PCL_Layer
5
11CD
10
356.378400
20
60.672400
30
0.000000
11
356.378400
21
47.111800
31
0.000000
62
7
0
LINE
100
AcDbEntity
100
AcDbLine
8
PCL_Layer
5
11CE
10
356.378400
20
47.111800
30
0.000000
11
342.792800
21
47.111800
31
0.000000
62
7
0
LINE
100
AcDbEntity
100
AcDbLine
8
PCL_Layer
5
11CF
10
342.792800
20
47.111800
30
0.000000
11
342.792800
21
60.672400
31
0.000000
62
7
0
LINE
100
AcDbEntity
100
AcDbLine
8
PCL_Layer
5
11D0
10
357.179000
20
55.668500
30
0.000000
11
357.979700
21
55.668500
31
0.000000
62
7
0
LINE
100
AcDbEntity
100
AcDbLine
8
PCL_Layer
5
11D1
10
357.979700
20
55.668500
30
0.000000
11
357.979700
21
53.466800
31
0.000000
62
7
0
LINE
100
AcDbEntity
100
AcDbLine
8
PCL_Layer
5
11D2
10
357.979700
20
53.466800
30
0.000000
11
357.179000
21
53.466800
31
0.000000
62
7
0
LINE
100
AcDbEntity
100
AcDbLine
8
PCL_Layer
5
11D3
10
357.179000
20
53.466800
30
0.000000
11
357.179000
21
55.668500
31
0.000000
62
7
0
LINE
100
AcDbEntity
100
AcDbLine
8
PCL_Layer
5
11D4
10
357.979700
20
59.371400
30
0.000000
11
364.284600
21
59.371400
31
0.000000
62
7
0
LINE
100
AcDbEntity
100
AcDbLine
8
PCL_Layer
5
11D5
10
364.284600
20
59.371400
30
0.000000
11
364.284600
21
43.559000
31
0.000000
62
7
0
LINE
100
AcDbEntity
100
AcDbLine
8
PCL_Layer
5
11D6
10
364.284600
20
43.559000
30
0.000000
11
357.979700
21
43.559000
31
0.000000
62
7
0
LINE
100
AcDbEntity
100
AcDbLine
8
PCL_Layer
5
11D7
10
357.979700
20
43.559000
30
0.000000
11
357.979700
21
59.371400
31
0.000000
62
7
0
LINE
100
AcDbEntity
100
AcDbLine
8
PCL_Layer
5
11D8
10
364.284600
20
55.668500
30
0.000000
11
365.085200
21
55.668500
31
0.000000
62
7
0
LINE
100
AcDbEntity
100
AcDbLine
8
PCL_Layer
5
11D9
10
365.085200
20
55.668500
30
0.000000
11
365.085200
21
53.466800
31
0.000000
62
7
0
LINE
100
AcDbEntity
100
AcDbLine
8
PCL_Layer
5
11DA
10
365.085200
20
53.466800
30
0.000000
11
364.284600
21
53.466800
31
0.000000
62
7
0
LINE
100
AcDbEntity
100
AcDbLine
8
PCL_Layer
5
11DB
10
364.284600
20
53.466800
30
0.000000
11
364.284600
21
55.668500
31
0.000000
62
7
0
LINE
100
AcDbEntity
100
AcDbLine
8
PCL_Layer
5
11DC
10
396.059400
20
93.798300
30
0.000000
11
396.860000
21
93.798300
31
0.000000
62
7
0
LINE
100
AcDbEntity
100
AcDbLine
8
PCL_Layer
5
11DD
10
396.860000
20
93.798300
30
0.000000
11
396.860000
21
91.596600
31
0.000000
62
7
0
LINE
100
AcDbEntity
100
AcDbLine
8
PCL_Layer
5
11DE
10
396.860000
20
91.596600
30
0.000000
11
396.059400
21
91.596600
31
0.000000
62
7
0
LINE
100
AcDbEntity
100
AcDbLine
8
PCL_Layer
5
11DF
10
396.059400
20
91.596600
30
0.000000
11
396.059400
21
93.798300
31
0.000000
62
7
0
LINE
100
AcDbEntity
100
AcDbLine
8
PCL_Layer
5
11E0
10
396.860000
20
97.501200
30
0.000000
11
403.165000
21
97.501200
31
0.000000
62
7
0
LINE
100
AcDbEntity
100
AcDbLine
8
PCL_Layer
5
11E1
10
403.165000
20
97.501200
30
0.000000
11
403.165000
21
81.688800
31
0.000000
62
7
0
LINE
100
AcDbEntity
100
AcDbLine
8
PCL_Layer
5
11E2
10
403.165000
20
81.688800
30
0.000000
11
396.860000
21
81.688800
31
0.000000
62
7
0
LINE
100
AcDbEntity
100
AcDbLine
8
PCL_Layer
5
11E3
10
396.860000
20
81.688800
30
0.000000
11
396.860000
21
97.501200
31
0.000000
62
7
0
LINE
100
AcDbEntity
100
AcDbLine
8
PCL_Layer
5
11E4
10
403.165000
20
93.798300
30
0.000000
11
403.965600
21
93.798300
31
0.000000
62
7
0
LINE
100
AcDbEntity
100
AcDbLine
8
PCL_Layer
5
11E5
10
403.965600
20
93.798300
30
0.000000
11
403.965600
21
91.596600
31
0.000000
62
7
0
LINE
100
AcDbEntity
100
AcDbLine
8
PCL_Layer
5
11E6
10
403.965600
20
91.596600
30
0.000000
11
403.165000
21
91.596600
31
0.000000
62
7
0
LINE
100
AcDbEntity
100
AcDbLine
8
PCL_Layer
5
11E7
10
403.165000
20
91.596600
30
0.000000
11
403.165000
21
93.798300
31
0.000000
62
7
0
LINE
100
AcDbEntity
100
AcDbLine
8
PCL_Layer
5
11E8
10
404.766200
20
98.802200
30
0.000000
11
418.351900
21
98.802200
31
0.000000
62
7
0
LINE
100
AcDbEntity
100
AcDbLine
8
PCL_Layer
5
11E9
10
418.351900
20
98.802200
30
0.000000
11
418.351900
21
85.241600
31
0.000000
62
7
0
LINE
100
AcDbEntity
100
AcDbLine
8
PCL_Layer
5
11EA
10
418.351900
20
85.241600
30
0.000000
11
404.766200
21
85.241600
31
0.000000
62
7
0
LINE
100
AcDbEntity
100
AcDbLine
8
PCL_Layer
5
11EB
10
404.766200
20
85.241600
30
0.000000
11
404.766200
21
98.802200
31
0.000000
62
7
0
LINE
100
AcDbEntity
100
AcDbLine
8
PCL_Layer
5
11EC
10
419.152500
20
93.798300
30
0.000000
11
419.953100
21
93.798300
31
0.000000
62
7
0
LINE
100
AcDbEntity
100
AcDbLine
8
PCL_Layer
5
11ED
10
419.953100
20
93.798300
30
0.000000
11
419.953100
21
91.596600
31
0.000000
62
7
0
LINE
100
AcDbEntity
100
AcDbLine
8
PCL_Layer
5
11EE
10
419.953100
20
91.596600
30
0.000000
11
419.152500
21
91.596600
31
0.000000
62
7
0
LINE
100
AcDbEntity
100
AcDbLine
8
PCL_Layer
5
11EF
10
419.152500
20
91.596600
30
0.000000
11
419.152500
21
93.798300
31
0.000000
62
7
0
LINE
100
AcDbEntity
100
AcDbLine
8
PCL_Layer
5
11F0
10
419.953100
20
97.501200
30
0.000000
11
426.258000
21
97.501200
31
0.000000
62
7
0
LINE
100
AcDbEntity
100
AcDbLine
8
PCL_Layer
5
11F1
10
426.258000
20
97.501200
30
0.000000
11
426.258000
21
81.688800
31
0.000000
62
7
0
LINE
100
AcDbEntity
100
AcDbLine
8
PCL_Layer
5
11F2
10
426.258000
20
81.688800
30
0.000000
11
419.953100
21
81.688800
31
0.000000
62
7
0
LINE
100
AcDbEntity
100
AcDbLine
8
PCL_Layer
5
11F3
10
419.953100
20
81.688800
30
0.000000
11
419.953100
21
97.501200
31
0.000000
62
7
0
LINE
100
AcDbEntity
100
AcDbLine
8
PCL_Layer
5
11F4
10
426.258000
20
93.798300
30
0.000000
11
427.058600
21
93.798300
31
0.000000
62
7
0
LINE
100
AcDbEntity
100
AcDbLine
8
PCL_Layer
5
11F5
10
427.058600
20
93.798300
30
0.000000
11
427.058600
21
91.596600
31
0.000000
62
7
0
LINE
100
AcDbEntity
100
AcDbLine
8
PCL_Layer
5
11F6
10
427.058600
20
91.596600
30
0.000000
11
426.258000
21
91.596600
31
0.000000
62
7
0
LINE
100
AcDbEntity
100
AcDbLine
8
PCL_Layer
5
11F7
10
426.258000
20
91.596600
30
0.000000
11
426.258000
21
93.798300
31
0.000000
62
7
0
LINE
100
AcDbEntity
100
AcDbLine
8
PCL_Layer
5
11F8
10
52.891300
20
74.733400
30
0.000000
11
53.691900
21
74.733400
31
0.000000
62
7
0
LINE
100
AcDbEntity
100
AcDbLine
8
PCL_Layer
5
11F9
10
53.691900
20
74.733400
30
0.000000
11
53.691900
21
72.531700
31
0.000000
62
7
0
LINE
100
AcDbEntity
100
AcDbLine
8
PCL_Layer
5
11FA
10
53.691900
20
72.531700
30
0.000000
11
52.891300
21
72.531700
31
0.000000
62
7
0
LINE
100
AcDbEntity
100
AcDbLine
8
PCL_Layer
5
11FB
10
52.891300
20
72.531700
30
0.000000
11
52.891300
21
74.733400
31
0.000000
62
7
0
LINE
100
AcDbEntity
100
AcDbLine
8
PCL_Layer
5
11FC
10
53.691900
20
78.436300
30
0.000000
11
59.996900
21
78.436300
31
0.000000
62
7
0
LINE
100
AcDbEntity
100
AcDbLine
8
PCL_Layer
5
11FD
10
59.996900
20
78.436300
30
0.000000
11
59.996900
21
62.623900
31
0.000000
62
7
0
LINE
100
AcDbEntity
100
AcDbLine
8
PCL_Layer
5
11FE
10
59.996900
20
62.623900
30
0.000000
11
53.691900
21
62.623900
31
0.000000
62
7
0
LINE
100
AcDbEntity
100
AcDbLine
8
PCL_Layer
5
11FF
10
53.691900
20
62.623900
30
0.000000
11
53.691900
21
78.436300
31
0.000000
62
7
0
LINE
100
AcDbEntity
100
AcDbLine
8
PCL_Layer
5
1200
10
59.996900
20
74.733400
30
0.000000
11
60.797500
21
74.733400
31
0.000000
62
7
0
LINE
100
AcDbEntity
100
AcDbLine
8
PCL_Layer
5
1201
10
60.797500
20
74.733400
30
0.000000
11
60.797500
21
72.531700
31
0.000000
62
7
0
LINE
100
AcDbEntity
100
AcDbLine
8
PCL_Layer
5
1202
10
60.797500
20
72.531700
30
0.000000
11
59.996900
21
72.531700
31
0.000000
62
7
0
LINE
100
AcDbEntity
100
AcDbLine
8
PCL_Layer
5
1203
10
59.996900
20
72.531700
30
0.000000
11
59.996900
21
74.733400
31
0.000000
62
7
0
LINE
100
AcDbEntity
100
AcDbLine
8
PCL_Layer
5
1204
10
61.598100
20
79.737300
30
0.000000
11
75.183700
21
79.737300
31
0.000000
62
7
0
LINE
100
AcDbEntity
100
AcDbLine
8
PCL_Layer
5
1205
10
75.183700
20
79.737300
30
0.000000
11
75.183700
21
66.151700
31
0.000000
62
7
0
LINE
100
AcDbEntity
100
AcDbLine
8
PCL_Layer
5
1206
10
75.183700
20
66.151700
30
0.000000
11
61.598100
21
66.151700
31
0.000000
62
7
0
LINE
100
AcDbEntity
100
AcDbLine
8
PCL_Layer
5
1207
10
61.598100
20
66.151700
30
0.000000
11
61.598100
21
79.737300
31
0.000000
62
7
0
LINE
100
AcDbEntity
100
AcDbLine
8
PCL_Layer
5
1208
10
75.984400
20
74.733400
30
0.000000
11
76.785000
21
74.733400
31
0.000000
62
7
0
LINE
100
AcDbEntity
100
AcDbLine
8
PCL_Layer
5
1209
10
76.785000
20
74.733400
30
0.000000
11
76.785000
21
72.531700
31
0.000000
62
7
0
LINE
100
AcDbEntity
100
AcDbLine
8
PCL_Layer
5
120A
10
76.785000
20
72.531700
30
0.000000
11
75.984400
21
72.531700
31
0.000000
62
7
0
LINE
100
AcDbEntity
100
AcDbLine
8
PCL_Layer
5
120B
10
75.984400
20
72.531700
30
0.000000
11
75.984400
21
74.733400
31
0.000000
62
7
0
LINE
100
AcDbEntity
100
AcDbLine
8
PCL_Layer
5
120C
10
76.785000
20
78.436300
30
0.000000
11
83.089900
21
78.436300
31
0.000000
62
7
0
LINE
100
AcDbEntity
100
AcDbLine
8
PCL_Layer
5
120D
10
83.089900
20
78.436300
30
0.000000
11
83.089900
21
62.623900
31
0.000000
62
7
0
LINE
100
AcDbEntity
100
AcDbLine
8
PCL_Layer
5
120E
10
83.089900
20
62.623900
30
0.000000
11
76.785000
21
62.623900
31
0.000000
62
7
0
LINE
100
AcDbEntity
100
AcDbLine
8
PCL_Layer
5
120F
10
76.785000
20
62.623900
30
0.000000
11
76.785000
21
78.436300
31
0.000000
62
7
0
LINE
100
AcDbEntity
100
AcDbLine
8
PCL_Layer
5
1210
10
83.089900
20
74.733400
30
0.000000
11
83.890500
21
74.733400
31
0.000000
62
7
0
LINE
100
AcDbEntity
100
AcDbLine
8
PCL_Layer
5
1211
10
83.890500
20
74.733400
30
0.000000
11
83.890500
21
72.531700
31
0.000000
62
7
0
LINE
100
AcDbEntity
100
AcDbLine
8
PCL_Layer
5
1212
10
83.890500
20
72.531700
30
0.000000
11
83.089900
21
72.531700
31
0.000000
62
7
0
LINE
100
AcDbEntity
100
AcDbLine
8
PCL_Layer
5
1213
10
83.089900
20
72.531700
30
0.000000
11
83.089900
21
74.733400
31
0.000000
62
7
0
LINE
100
AcDbEntity
100
AcDbLine
8
PCL_Layer
5
1214
10
396.059400
20
74.733400
30
0.000000
11
396.860000
21
74.733400
31
0.000000
62
7
0
LINE
100
AcDbEntity
100
AcDbLine
8
PCL_Layer
5
1215
10
396.860000
20
74.733400
30
0.000000
11
396.860000
21
72.531700
31
0.000000
62
7
0
LINE
100
AcDbEntity
100
AcDbLine
8
PCL_Layer
5
1216
10
396.860000
20
72.531700
30
0.000000
11
396.059400
21
72.531700
31
0.000000
62
7
0
LINE
100
AcDbEntity
100
AcDbLine
8
PCL_Layer
5
1217
10
396.059400
20
72.531700
30
0.000000
11
396.059400
21
74.733400
31
0.000000
62
7
0
LINE
100
AcDbEntity
100
AcDbLine
8
PCL_Layer
5
1218
10
396.860000
20
78.436300
30
0.000000
11
403.165000
21
78.436300
31
0.000000
62
7
0
LINE
100
AcDbEntity
100
AcDbLine
8
PCL_Layer
5
1219
10
403.165000
20
78.436300
30
0.000000
11
403.165000
21
62.623900
31
0.000000
62
7
0
LINE
100
AcDbEntity
100
AcDbLine
8
PCL_Layer
5
121A
10
403.165000
20
62.623900
30
0.000000
11
396.860000
21
62.623900
31
0.000000
62
7
0
LINE
100
AcDbEntity
100
AcDbLine
8
PCL_Layer
5
121B
10
396.860000
20
62.623900
30
0.000000
11
396.860000
21
78.436300
31
0.000000
62
7
0
LINE
100
AcDbEntity
100
AcDbLine
8
PCL_Layer
5
121C
10
403.165000
20
74.733400
30
0.000000
11
403.965600
21
74.733400
31
0.000000
62
7
0
LINE
100
AcDbEntity
100
AcDbLine
8
PCL_Layer
5
121D
10
403.965600
20
74.733400
30
0.000000
11
403.965600
21
72.531700
31
0.000000
62
7
0
LINE
100
AcDbEntity
100
AcDbLine
8
PCL_Layer
5
121E
10
403.965600
20
72.531700
30
0.000000
11
403.165000
21
72.531700
31
0.000000
62
7
0
LINE
100
AcDbEntity
100
AcDbLine
8
PCL_Layer
5
121F
10
403.165000
20
72.531700
30
0.000000
11
403.165000
21
74.733400
31
0.000000
62
7
0
LINE
100
AcDbEntity
100
AcDbLine
8
PCL_Layer
5
1220
10
404.766200
20
79.737300
30
0.000000
11
418.351900
21
79.737300
31
0.000000
62
7
0
LINE
100
AcDbEntity
100
AcDbLine
8
PCL_Layer
5
1221
10
418.351900
20
79.737300
30
0.000000
11
418.351900
21
66.151700
31
0.000000
62
7
0
LINE
100
AcDbEntity
100
AcDbLine
8
PCL_Layer
5
1222
10
418.351900
20
66.151700
30
0.000000
11
404.766200
21
66.151700
31
0.000000
62
7
0
LINE
100
AcDbEntity
100
AcDbLine
8
PCL_Layer
5
1223
10
404.766200
20
66.151700
30
0.000000
11
404.766200
21
79.737300
31
0.000000
62
7
0
LINE
100
AcDbEntity
100
AcDbLine
8
PCL_Layer
5
1224
10
419.152500
20
74.733400
30
0.000000
11
419.953100
21
74.733400
31
0.000000
62
7
0
LINE
100
AcDbEntity
100
AcDbLine
8
PCL_Layer
5
1225
10
419.953100
20
74.733400
30
0.000000
11
419.953100
21
72.531700
31
0.000000
62
7
0
LINE
100
AcDbEntity
100
AcDbLine
8
PCL_Layer
5
1226
10
419.953100
20
72.531700
30
0.000000
11
419.152500
21
72.531700
31
0.000000
62
7
0
LINE
100
AcDbEntity
100
AcDbLine
8
PCL_Layer
5
1227
10
419.152500
20
72.531700
30
0.000000
11
419.152500
21
74.733400
31
0.000000
62
7
0
LINE
100
AcDbEntity
100
AcDbLine
8
PCL_Layer
5
1228
10
419.953100
20
78.436300
30
0.000000
11
426.258000
21
78.436300
31
0.000000
62
7
0
LINE
100
AcDbEntity
100
AcDbLine
8
PCL_Layer
5
1229
10
426.258000
20
78.436300
30
0.000000
11
426.258000
21
62.623900
31
0.000000
62
7
0
LINE
100
AcDbEntity
100
AcDbLine
8
PCL_Layer
5
122A
10
426.258000
20
62.623900
30
0.000000
11
419.953100
21
62.623900
31
0.000000
62
7
0
LINE
100
AcDbEntity
100
AcDbLine
8
PCL_Layer
5
122B
10
419.953100
20
62.623900
30
0.000000
11
419.953100
21
78.436300
31
0.000000
62
7
0
LINE
100
AcDbEntity
100
AcDbLine
8
PCL_Layer
5
122C
10
426.258000
20
74.733400
30
0.000000
11
427.058600
21
74.733400
31
0.000000
62
7
0
LINE
100
AcDbEntity
100
AcDbLine
8
PCL_Layer
5
122D
10
427.058600
20
74.733400
30
0.000000
11
427.058600
21
72.531700
31
0.000000
62
7
0
LINE
100
AcDbEntity
100
AcDbLine
8
PCL_Layer
5
122E
10
427.058600
20
72.531700
30
0.000000
11
426.258000
21
72.531700
31
0.000000
62
7
0
LINE
100
AcDbEntity
100
AcDbLine
8
PCL_Layer
5
122F
10
426.258000
20
72.531700
30
0.000000
11
426.258000
21
74.733400
31
0.000000
62
7
0
LINE
100
AcDbEntity
100
AcDbLine
8
PCL_Layer
5
1230
10
91.021100
20
112.863200
30
0.000000
11
91.821700
21
112.863200
31
0.000000
62
7
0
LINE
100
AcDbEntity
100
AcDbLine
8
PCL_Layer
5
1231
10
91.821700
20
112.863200
30
0.000000
11
91.821700
21
110.661500
31
0.000000
62
7
0
LINE
100
AcDbEntity
100
AcDbLine
8
PCL_Layer
5
1232
10
91.821700
20
110.661500
30
0.000000
11
91.021100
21
110.661500
31
0.000000
62
7
0
LINE
100
AcDbEntity
100
AcDbLine
8
PCL_Layer
5
1233
10
91.021100
20
110.661500
30
0.000000
11
91.021100
21
112.863200
31
0.000000
62
7
0
LINE
100
AcDbEntity
100
AcDbLine
8
PCL_Layer
5
1234
10
91.821700
20
116.566100
30
0.000000
11
98.126700
21
116.566100
31
0.000000
62
7
0
LINE
100
AcDbEntity
100
AcDbLine
8
PCL_Layer
5
1235
10
98.126700
20
116.566100
30
0.000000
11
98.126700
21
100.753700
31
0.000000
62
7
0
LINE
100
AcDbEntity
100
AcDbLine
8
PCL_Layer
5
1236
10
98.126700
20
100.753700
30
0.000000
11
91.821700
21
100.753700
31
0.000000
62
7
0
LINE
100
AcDbEntity
100
AcDbLine
8
PCL_Layer
5
1237
10
91.821700
20
100.753700
30
0.000000
11
91.821700
21
116.566100
31
0.000000
62
7
0
LINE
100
AcDbEntity
100
AcDbLine
8
PCL_Layer
5
1238
10
98.126700
20
112.863200
30
0.000000
11
98.927300
21
112.863200
31
0.000000
62
7
0
LINE
100
AcDbEntity
100
AcDbLine
8
PCL_Layer
5
1239
10
98.927300
20
112.863200
30
0.000000
11
98.927300
21
110.661500
31
0.000000
62
7
0
LINE
100
AcDbEntity
100
AcDbLine
8
PCL_Layer
5
123A
10
98.927300
20
110.661500
30
0.000000
11
98.126700
21
110.661500
31
0.000000
62
7
0
LINE
100
AcDbEntity
100
AcDbLine
8
PCL_Layer
5
123B
10
98.126700
20
110.661500
30
0.000000
11
98.126700
21
112.863200
31
0.000000
62
7
0
LINE
100
AcDbEntity
100
AcDbLine
8
PCL_Layer
5
123C
10
99.727900
20
117.867100
30
0.000000
11
113.313500
21
117.867100
31
0.000000
62
7
0
LINE
100
AcDbEntity
100
AcDbLine
8
PCL_Layer
5
123D
10
113.313500
20
117.867100
30
0.000000
11
113.313500
21
104.306500
31
0.000000
62
7
0
LINE
100
AcDbEntity
100
AcDbLine
8
PCL_Layer
5
123E
10
113.313500
20
104.306500
30
0.000000
11
99.727900
21
104.306500
31
0.000000
62
7
0
LINE
100
AcDbEntity
100
AcDbLine
8
PCL_Layer
5
123F
10
99.727900
20
104.306500
30
0.000000
11
99.727900
21
117.867100
31
0.000000
62
7
0
LINE
100
AcDbEntity
100
AcDbLine
8
PCL_Layer
5
1240
10
114.114200
20
112.863200
30
0.000000
11
114.914800
21
112.863200
31
0.000000
62
7
0
LINE
100
AcDbEntity
100
AcDbLine
8
PCL_Layer
5
1241
10
114.914800
20
112.863200
30
0.000000
11
114.914800
21
110.661500
31
0.000000
62
7
0
LINE
100
AcDbEntity
100
AcDbLine
8
PCL_Layer
5
1242
10
114.914800
20
110.661500
30
0.000000
11
114.114200
21
110.661500
31
0.000000
62
7
0
LINE
100
AcDbEntity
100
AcDbLine
8
PCL_Layer
5
1243
10
114.114200
20
110.661500
30
0.000000
11
114.114200
21
112.863200
31
0.000000
62
7
0
LINE
100
AcDbEntity
100
AcDbLine
8
PCL_Layer
5
1244
10
114.914800
20
116.566100
30
0.000000
11
121.219700
21
116.566100
31
0.000000
62
7
0
LINE
100
AcDbEntity
100
AcDbLine
8
PCL_Layer
5
1245
10
121.219700
20
116.566100
30
0.000000
11
121.219700
21
100.753700
31
0.000000
62
7
0
LINE
100
AcDbEntity
100
AcDbLine
8
PCL_Layer
5
1246
10
121.219700
20
100.753700
30
0.000000
11
114.914800
21
100.753700
31
0.000000
62
7
0
LINE
100
AcDbEntity
100
AcDbLine
8
PCL_Layer
5
1247
10
114.914800
20
100.753700
30
0.000000
11
114.914800
21
116.566100
31
0.000000
62
7
0
LINE
100
AcDbEntity
100
AcDbLine
8
PCL_Layer
5
1248
10
121.219700
20
112.863200
30
0.000000
11
122.020300
21
112.863200
31
0.000000
62
7
0
LINE
100
AcDbEntity
100
AcDbLine
8
PCL_Layer
5
1249
10
122.020300
20
112.863200
30
0.000000
11
122.020300
21
110.661500
31
0.000000
62
7
0
LINE
100
AcDbEntity
100
AcDbLine
8
PCL_Layer
5
124A
10
122.020300
20
110.661500
30
0.000000
11
121.219700
21
110.661500
31
0.000000
62
7
0
LINE
100
AcDbEntity
100
AcDbLine
8
PCL_Layer
5
124B
10
121.219700
20
110.661500
30
0.000000
11
121.219700
21
112.863200
31
0.000000
62
7
0
LINE
100
AcDbEntity
100
AcDbLine
8
PCL_Layer
5
124C
10
18.689600
20
22.542600
30
0.000000
11
32.275200
21
22.542600
31
0.000000
62
7
0
LINE
100
AcDbEntity
100
AcDbLine
8
PCL_Layer
5
124D
10
32.275200
20
22.542600
30
0.000000
11
32.275200
21
8.957000
31
0.000000
62
7
0
LINE
100
AcDbEntity
100
AcDbLine
8
PCL_Layer
5
124E
10
32.275200
20
8.957000
30
0.000000
11
18.689600
21
8.957000
31
0.000000
62
7
0
LINE
100
AcDbEntity
100
AcDbLine
8
PCL_Layer
5
124F
10
18.689600
20
8.957000
30
0.000000
11
18.689600
21
22.542600
31
0.000000
62
7
0
LINE
100
AcDbEntity
100
AcDbLine
8
PCL_Layer
5
1250
10
128.325300
20
98.802200
30
0.000000
11
141.910900
21
98.802200
31
0.000000
62
7
0
LINE
100
AcDbEntity
100
AcDbLine
8
PCL_Layer
5
1251
10
141.910900
20
98.802200
30
0.000000
11
141.910900
21
85.241600
31
0.000000
62
7
0
LINE
100
AcDbEntity
100
AcDbLine
8
PCL_Layer
5
1252
10
141.910900
20
85.241600
30
0.000000
11
128.325300
21
85.241600
31
0.000000
62
7
0
LINE
100
AcDbEntity
100
AcDbLine
8
PCL_Layer
5
1253
10
128.325300
20
85.241600
30
0.000000
11
128.325300
21
98.802200
31
0.000000
62
7
0
LINE
100
AcDbEntity
100
AcDbLine
8
PCL_Layer
5
1254
10
285.598100
20
41.607500
30
0.000000
11
299.183700
21
41.607500
31
0.000000
62
7
0
LINE
100
AcDbEntity
100
AcDbLine
8
PCL_Layer
5
1255
10
299.183700
20
41.607500
30
0.000000
11
299.183700
21
28.046900
31
0.000000
62
7
0
LINE
100
AcDbEntity
100
AcDbLine
8
PCL_Layer
5
1256
10
299.183700
20
28.046900
30
0.000000
11
285.598100
21
28.046900
31
0.000000
62
7
0
LINE
100
AcDbEntity
100
AcDbLine
8
PCL_Layer
5
1257
10
285.598100
20
28.046900
30
0.000000
11
285.598100
21
41.607500
31
0.000000
62
7
0
LINE
100
AcDbEntity
100
AcDbLine
8
PCL_Layer
5
1258
10
135.480800
20
22.542600
30
0.000000
11
149.041400
21
22.542600
31
0.000000
62
7
0
LINE
100
AcDbEntity
100
AcDbLine
8
PCL_Layer
5
1259
10
149.041400
20
22.542600
30
0.000000
11
149.041400
21
8.957000
31
0.000000
62
7
0
LINE
100
AcDbEntity
100
AcDbLine
8
PCL_Layer
5
125A
10
149.041400
20
8.957000
30
0.000000
11
135.480800
21
8.957000
31
0.000000
62
7
0
LINE
100
AcDbEntity
100
AcDbLine
8
PCL_Layer
5
125B
10
135.480800
20
8.957000
30
0.000000
11
135.480800
21
22.542600
31
0.000000
62
7
0
LINE
100
AcDbEntity
100
AcDbLine
8
PCL_Layer
5
125C
10
447.649700
20
22.542600
30
0.000000
11
461.235300
21
22.542600
31
0.000000
62
7
0
LINE
100
AcDbEntity
100
AcDbLine
8
PCL_Layer
5
125D
10
461.235300
20
22.542600
30
0.000000
11
461.235300
21
8.957000
31
0.000000
62
7
0
LINE
100
AcDbEntity
100
AcDbLine
8
PCL_Layer
5
125E
10
461.235300
20
8.957000
30
0.000000
11
447.649700
21
8.957000
31
0.000000
62
7
0
LINE
100
AcDbEntity
100
AcDbLine
8
PCL_Layer
5
125F
10
447.649700
20
8.957000
30
0.000000
11
447.649700
21
22.542600
31
0.000000
62
7
0
LINE
100
AcDbEntity
100
AcDbLine
8
PCL_Layer
5
1260
10
328.506700
20
79.737300
30
0.000000
11
342.092300
21
79.737300
31
0.000000
62
7
0
LINE
100
AcDbEntity
100
AcDbLine
8
PCL_Layer
5
1261
10
342.092300
20
79.737300
30
0.000000
11
342.092300
21
66.151700
31
0.000000
62
7
0
LINE
100
AcDbEntity
100
AcDbLine
8
PCL_Layer
5
1262
10
342.092300
20
66.151700
30
0.000000
11
328.506700
21
66.151700
31
0.000000
62
7
0
LINE
100
AcDbEntity
100
AcDbLine
8
PCL_Layer
5
1263
10
328.506700
20
66.151700
30
0.000000
11
328.506700
21
79.737300
31
0.000000
62
7
0
LINE
100
AcDbEntity
100
AcDbLine
8
PCL_Layer
5
1264
10
185.519900
20
98.802200
30
0.000000
11
199.105600
21
98.802200
31
0.000000
62
7
0
LINE
100
AcDbEntity
100
AcDbLine
8
PCL_Layer
5
1265
10
199.105600
20
98.802200
30
0.000000
11
199.105600
21
85.241600
31
0.000000
62
7
0
LINE
100
AcDbEntity
100
AcDbLine
8
PCL_Layer
5
1266
10
199.105600
20
85.241600
30
0.000000
11
185.519900
21
85.241600
31
0.000000
62
7
0
LINE
100
AcDbEntity
100
AcDbLine
8
PCL_Layer
5
1267
10
185.519900
20
85.241600
30
0.000000
11
185.519900
21
98.802200
31
0.000000
62
7
0
LINE
100
AcDbEntity
100
AcDbLine
8
PCL_Layer
5
1268
10
156.922600
20
79.737300
30
0.000000
11
170.508200
21
79.737300
31
0.000000
62
7
0
LINE
100
AcDbEntity
100
AcDbLine
8
PCL_Layer
5
1269
10
170.508200
20
79.737300
30
0.000000
11
170.508200
21
66.151700
31
0.000000
62
7
0
LINE
100
AcDbEntity
100
AcDbLine
8
PCL_Layer
5
126A
10
170.508200
20
66.151700
30
0.000000
11
156.922600
21
66.151700
31
0.000000
62
7
0
LINE
100
AcDbEntity
100
AcDbLine
8
PCL_Layer
5
126B
10
156.922600
20
66.151700
30
0.000000
11
156.922600
21
79.737300
31
0.000000
62
7
0
LINE
100
AcDbEntity
100
AcDbLine
8
PCL_Layer
5
126C
10
333.260400
20
98.802200
30
0.000000
11
346.846000
21
98.802200
31
0.000000
62
7
0
LINE
100
AcDbEntity
100
AcDbLine
8
PCL_Layer
5
126D
10
346.846000
20
98.802200
30
0.000000
11
346.846000
21
85.241600
31
0.000000
62
7
0
LINE
100
AcDbEntity
100
AcDbLine
8
PCL_Layer
5
126E
10
346.846000
20
85.241600
30
0.000000
11
333.260400
21
85.241600
31
0.000000
62
7
0
LINE
100
AcDbEntity
100
AcDbLine
8
PCL_Layer
5
126F
10
333.260400
20
85.241600
30
0.000000
11
333.260400
21
98.802200
31
0.000000
62
7
0
LINE
100
AcDbEntity
100
AcDbLine
8
PCL_Layer
5
1270
10
204.584800
20
98.802200
30
0.000000
11
218.170400
21
98.802200
31
0.000000
62
7
0
LINE
100
AcDbEntity
100
AcDbLine
8
PCL_Layer
5
1271
10
218.170400
20
98.802200
30
0.000000
11
218.170400
21
85.241600
31
0.000000
62
7
0
LINE
100
AcDbEntity
100
AcDbLine
8
PCL_Layer
5
1272
10
218.170400
20
85.241600
30
0.000000
11
204.584800
21
85.241600
31
0.000000
62
7
0
LINE
100
AcDbEntity
100
AcDbLine
8
PCL_Layer
5
1273
10
204.584800
20
85.241600
30
0.000000
11
204.584800
21
98.802200
31
0.000000
62
7
0
LINE
100
AcDbEntity
100
AcDbLine
8
PCL_Layer
5
1274
10
428.584800
20
41.607500
30
0.000000
11
442.170500
21
41.607500
31
0.000000
62
7
0
LINE
100
AcDbEntity
100
AcDbLine
8
PCL_Layer
5
1275
10
442.170500
20
41.607500
30
0.000000
11
442.170500
21
28.046900
31
0.000000
62
7
0
LINE
100
AcDbEntity
100
AcDbLine
8
PCL_Layer
5
1276
10
442.170500
20
28.046900
30
0.000000
11
428.584800
21
28.046900
31
0.000000
62
7
0
LINE
100
AcDbEntity
100
AcDbLine
8
PCL_Layer
5
1277
10
428.584800
20
28.046900
30
0.000000
11
428.584800
21
41.607500
31
0.000000
62
7
0
LINE
100
AcDbEntity
100
AcDbLine
8
PCL_Layer
5
1278
10
33.000800
20
98.802200
30
0.000000
11
46.586400
21
98.802200
31
0.000000
62
7
0
LINE
100
AcDbEntity
100
AcDbLine
8
PCL_Layer
5
1279
10
46.586400
20
98.802200
30
0.000000
11
46.586400
21
85.241600
31
0.000000
62
7
0
LINE
100
AcDbEntity
100
AcDbLine
8
PCL_Layer
5
127A
10
46.586400
20
85.241600
30
0.000000
11
33.000800
21
85.241600
31
0.000000
62
7
0
LINE
100
AcDbEntity
100
AcDbLine
8
PCL_Layer
5
127B
10
33.000800
20
85.241600
30
0.000000
11
33.000800
21
98.802200
31
0.000000
62
7
0
LINE
100
AcDbEntity
100
AcDbLine
8
PCL_Layer
5
127C
10
47.286900
20
22.542600
30
0.000000
11
60.872600
21
22.542600
31
0.000000
62
7
0
LINE
100
AcDbEntity
100
AcDbLine
8
PCL_Layer
5
127D
10
60.872600
20
22.542600
30
0.000000
11
60.872600
21
8.957000
31
0.000000
62
7
0
LINE
100
AcDbEntity
100
AcDbLine
8
PCL_Layer
5
127E
10
60.872600
20
8.957000
30
0.000000
11
47.286900
21
8.957000
31
0.000000
62
7
0
LINE
100
AcDbEntity
100
AcDbLine
8
PCL_Layer
5
127F
10
47.286900
20
8.957000
30
0.000000
11
47.286900
21
22.542600
31
0.000000
62
7
0
LINE
100
AcDbEntity
100
AcDbLine
8
PCL_Layer
5
1280
10
142.611400
20
60.672400
30
0.000000
11
156.197000
21
60.672400
31
0.000000
62
7
0
LINE
100
AcDbEntity
100
AcDbLine
8
PCL_Layer
5
1281
10
156.197000
20
60.672400
30
0.000000
11
156.197000
21
47.111800
31
0.000000
62
7
0
LINE
100
AcDbEntity
100
AcDbLine
8
PCL_Layer
5
1282
10
156.197000
20
47.111800
30
0.000000
11
142.611400
21
47.111800
31
0.000000
62
7
0
LINE
100
AcDbEntity
100
AcDbLine
8
PCL_Layer
5
1283
10
142.611400
20
47.111800
30
0.000000
11
142.611400
21
60.672400
31
0.000000
62
7
0
LINE
100
AcDbEntity
100
AcDbLine
8
PCL_Layer
5
1284
10
290.376900
20
79.737300
30
0.000000
11
303.962500
21
79.737300
31
0.000000
62
7
0
LINE
100
AcDbEntity
100
AcDbLine
8
PCL_Layer
5
1285
10
303.962500
20
79.737300
30
0.000000
11
303.962500
21
66.151700
31
0.000000
62
7
0
LINE
100
AcDbEntity
100
AcDbLine
8
PCL_Layer
5
1286
10
303.962500
20
66.151700
30
0.000000
11
290.376900
21
66.151700
31
0.000000
62
7
0
LINE
100
AcDbEntity
100
AcDbLine
8
PCL_Layer
5
1287
10
290.376900
20
66.151700
30
0.000000
11
290.376900
21
79.737300
31
0.000000
62
7
0
LINE
100
AcDbEntity
100
AcDbLine
8
PCL_Layer
5
1288
10
314.195500
20
60.672400
30
0.000000
11
327.781100
21
60.672400
31
0.000000
62
7
0
LINE
100
AcDbEntity
100
AcDbLine
8
PCL_Layer
5
1289
10
327.781100
20
60.672400
30
0.000000
11
327.781100
21
47.111800
31
0.000000
62
7
0
LINE
100
AcDbEntity
100
AcDbLine
8
PCL_Layer
5
128A
10
327.781100
20
47.111800
30
0.000000
11
314.195500
21
47.111800
31
0.000000
62
7
0
LINE
100
AcDbEntity
100
AcDbLine
8
PCL_Layer
5
128B
10
314.195500
20
47.111800
30
0.000000
11
314.195500
21
60.672400
31
0.000000
62
7
0
LINE
100
AcDbEntity
100
AcDbLine
8
PCL_Layer
5
128C
10
123.546500
20
60.672400
30
0.000000
11
137.132100
21
60.672400
31
0.000000
62
7
0
LINE
100
AcDbEntity
100
AcDbLine
8
PCL_Layer
5
128D
10
137.132100
20
60.672400
30
0.000000
11
137.132100
21
47.111800
31
0.000000
62
7
0
LINE
100
AcDbEntity
100
AcDbLine
8
PCL_Layer
5
128E
10
137.132100
20
47.111800
30
0.000000
11
123.546500
21
47.111800
31
0.000000
62
7
0
LINE
100
AcDbEntity
100
AcDbLine
8
PCL_Layer
5
128F
10
123.546500
20
47.111800
30
0.000000
11
123.546500
21
60.672400
31
0.000000
62
7
0
LINE
100
AcDbEntity
100
AcDbLine
8
PCL_Layer
5
1290
10
278.467600
20
22.542600
30
0.000000
11
292.028100
21
22.542600
31
0.000000
62
7
0
LINE
100
AcDbEntity
100
AcDbLine
8
PCL_Layer
5
1291
10
292.028100
20
22.542600
30
0.000000
11
292.028100
21
8.957000
31
0.000000
62
7
0
LINE
100
AcDbEntity
100
AcDbLine
8
PCL_Layer
5
1292
10
292.028100
20
8.957000
30
0.000000
11
278.467600
21
8.957000
31
0.000000
62
7
0
LINE
100
AcDbEntity
100
AcDbLine
8
PCL_Layer
5
1293
10
278.467600
20
8.957000
30
0.000000
11
278.467600
21
22.542600
31
0.000000
62
7
0
LINE
100
AcDbEntity
100
AcDbLine
8
PCL_Layer
5
1294
10
166.455000
20
98.802200
30
0.000000
11
180.040600
21
98.802200
31
0.000000
62
7
0
LINE
100
AcDbEntity
100
AcDbLine
8
PCL_Layer
5
1295
10
180.040600
20
98.802200
30
0.000000
11
180.040600
21
85.241600
31
0.000000
62
7
0
LINE
100
AcDbEntity
100
AcDbLine
8
PCL_Layer
5
1296
10
180.040600
20
85.241600
30
0.000000
11
166.455000
21
85.241600
31
0.000000
62
7
0
LINE
100
AcDbEntity
100
AcDbLine
8
PCL_Layer
5
1297
10
166.455000
20
85.241600
30
0.000000
11
166.455000
21
98.802200
31
0.000000
62
7
0
LINE
100
AcDbEntity
100
AcDbLine
8
PCL_Layer
5
1298
10
399.987500
20
41.607500
30
0.000000
11
413.573100
21
41.607500
31
0.000000
62
7
0
LINE
100
AcDbEntity
100
AcDbLine
8
PCL_Layer
5
1299
10
413.573100
20
41.607500
30
0.000000
11
413.573100
21
28.046900
31
0.000000
62
7
0
LINE
100
AcDbEntity
100
AcDbLine
8
PCL_Layer
5
129A
10
413.573100
20
28.046900
30
0.000000
11
399.987500
21
28.046900
31
0.000000
62
7
0
LINE
100
AcDbEntity
100
AcDbLine
8
PCL_Layer
5
129B
10
399.987500
20
28.046900
30
0.000000
11
399.987500
21
41.607500
31
0.000000
62
7
0
LINE
100
AcDbEntity
100
AcDbLine
8
PCL_Layer
5
129C
10
175.987500
20
79.737300
30
0.000000
11
189.573100
21
79.737300
31
0.000000
62
7
0
LINE
100
AcDbEntity
100
AcDbLine
8
PCL_Layer
5
129D
10
189.573100
20
79.737300
30
0.000000
11
189.573100
21
66.151700
31
0.000000
62
7
0
LINE
100
AcDbEntity
100
AcDbLine
8
PCL_Layer
5
129E
10
189.573100
20
66.151700
30
0.000000
11
175.987500
21
66.151700
31
0.000000
62
7
0
LINE
100
AcDbEntity
100
AcDbLine
8
PCL_Layer
5
129F
10
175.987500
20
66.151700
30
0.000000
11
175.987500
21
79.737300
31
0.000000
62
7
0
LINE
100
AcDbEntity
100
AcDbLine
8
PCL_Layer
5
12A0
10
237.935900
20
60.672400
30
0.000000
11
251.521500
21
60.672400
31
0.000000
62
7
0
LINE
100
AcDbEntity
100
AcDbLine
8
PCL_Layer
5
12A1
10
251.521500
20
60.672400
30
0.000000
11
251.521500
21
47.111800
31
0.000000
62
7
0
LINE
100
AcDbEntity
100
AcDbLine
8
PCL_Layer
5
12A2
10
251.521500
20
47.111800
30
0.000000
11
237.935900
21
47.111800
31
0.000000
62
7
0
LINE
100
AcDbEntity
100
AcDbLine
8
PCL_Layer
5
12A3
10
237.935900
20
47.111800
30
0.000000
11
237.935900
21
60.672400
31
0.000000
62
7
0
LINE
100
AcDbEntity
100
AcDbLine
8
PCL_Layer
5
12A4
10
218.871000
20
60.672400
30
0.000000
11
232.456600
21
60.672400
31
0.000000
62
7
0
LINE
100
AcDbEntity
100
AcDbLine
8
PCL_Layer
5
12A5
10
232.456600
20
60.672400
30
0.000000
11
232.456600
21
47.111800
31
0.000000
62
7
0
LINE
100
AcDbEntity
100
AcDbLine
8
PCL_Layer
5
12A6
10
232.456600
20
47.111800
30
0.000000
11
218.871000
21
47.111800
31
0.000000
62
7
0
LINE
100
AcDbEntity
100
AcDbLine
8
PCL_Layer
5
12A7
10
218.871000
20
47.111800
30
0.000000
11
218.871000
21
60.672400
31
0.000000
62
7
0
LINE
100
AcDbEntity
100
AcDbLine
8
PCL_Layer
5
12A8
10
242.714600
20
98.802200
30
0.000000
11
256.300200
21
98.802200
31
0.000000
62
7
0
LINE
100
AcDbEntity
100
AcDbLine
8
PCL_Layer
5
12A9
10
256.300200
20
98.802200
30
0.000000
11
256.300200
21
85.241600
31
0.000000
62
7
0
LINE
100
AcDbEntity
100
AcDbLine
8
PCL_Layer
5
12AA
10
256.300200
20
85.241600
30
0.000000
11
242.714600
21
85.241600
31
0.000000
62
7
0
LINE
100
AcDbEntity
100
AcDbLine
8
PCL_Layer
5
12AB
10
242.714600
20
85.241600
30
0.000000
11
242.714600
21
98.802200
31
0.000000
62
7
0
LINE
100
AcDbEntity
100
AcDbLine
8
PCL_Layer
5
12AC
10
75.884300
20
22.542600
30
0.000000
11
89.469900
21
22.542600
31
0.000000
62
7
0
LINE
100
AcDbEntity
100
AcDbLine
8
PCL_Layer
5
12AD
10
89.469900
20
22.542600
30
0.000000
11
89.469900
21
8.957000
31
0.000000
62
7
0
LINE
100
AcDbEntity
100
AcDbLine
8
PCL_Layer
5
12AE
10
89.469900
20
8.957000
30
0.000000
11
75.884300
21
8.957000
31
0.000000
62
7
0
LINE
100
AcDbEntity
100
AcDbLine
8
PCL_Layer
5
12AF
10
75.884300
20
8.957000
30
0.000000
11
75.884300
21
22.542600
31
0.000000
62
7
0
LINE
100
AcDbEntity
100
AcDbLine
8
PCL_Layer
5
12B0
10
376.168900
20
98.802200
30
0.000000
11
389.754500
21
98.802200
31
0.000000
62
7
0
LINE
100
AcDbEntity
100
AcDbLine
8
PCL_Layer
5
12B1
10
389.754500
20
98.802200
30
0.000000
11
389.754500
21
85.241600
31
0.000000
62
7
0
LINE
100
AcDbEntity
100
AcDbLine
8
PCL_Layer
5
12B2
10
389.754500
20
85.241600
30
0.000000
11
376.168900
21
85.241600
31
0.000000
62
7
0
LINE
100
AcDbEntity
100
AcDbLine
8
PCL_Layer
5
12B3
10
376.168900
20
85.241600
30
0.000000
11
376.168900
21
98.802200
31
0.000000
62
7
0
LINE
100
AcDbEntity
100
AcDbLine
8
PCL_Layer
5
12B4
10
185.519900
20
22.567600
30
0.000000
11
199.105600
21
22.567600
31
0.000000
62
7
0
LINE
100
AcDbEntity
100
AcDbLine
8
PCL_Layer
5
12B5
10
199.105600
20
22.567600
30
0.000000
11
199.105600
21
8.957000
31
0.000000
62
7
0
LINE
100
AcDbEntity
100
AcDbLine
8
PCL_Layer
5
12B6
10
199.105600
20
8.957000
30
0.000000
11
185.519900
21
8.957000
31
0.000000
62
7
0
LINE
100
AcDbEntity
100
AcDbLine
8
PCL_Layer
5
12B7
10
185.519900
20
8.957000
30
0.000000
11
185.519900
21
22.567600
31
0.000000
62
7
0
LINE
100
AcDbEntity
100
AcDbLine
8
PCL_Layer
5
12B8
10
209.363600
20
22.567600
30
0.000000
11
222.924200
21
22.567600
31
0.000000
62
7
0
LINE
100
AcDbEntity
100
AcDbLine
8
PCL_Layer
5
12B9
10
222.924200
20
22.567600
30
0.000000
11
222.924200
21
8.957000
31
0.000000
62
7
0
LINE
100
AcDbEntity
100
AcDbLine
8
PCL_Layer
5
12BA
10
222.924200
20
8.957000
30
0.000000
11
209.363600
21
8.957000
31
0.000000
62
7
0
LINE
100
AcDbEntity
100
AcDbLine
8
PCL_Layer
5
12BB
10
209.363600
20
8.957000
30
0.000000
11
209.363600
21
22.567600
31
0.000000
62
7
0
LINE
100
AcDbEntity
100
AcDbLine
8
PCL_Layer
5
12BC
10
233.182200
20
22.542600
30
0.000000
11
246.767800
21
22.542600
31
0.000000
62
7
0
LINE
100
AcDbEntity
100
AcDbLine
8
PCL_Layer
5
12BD
10
246.767800
20
22.542600
30
0.000000
11
246.767800
21
8.957000
31
0.000000
62
7
0
LINE
100
AcDbEntity
100
AcDbLine
8
PCL_Layer
5
12BE
10
246.767800
20
8.957000
30
0.000000
11
233.182200
21
8.957000
31
0.000000
62
7
0
LINE
100
AcDbEntity
100
AcDbLine
8
PCL_Layer
5
12BF
10
233.182200
20
8.957000
30
0.000000
11
233.182200
21
22.542600
31
0.000000
62
7
0
LINE
100
AcDbEntity
100
AcDbLine
8
PCL_Layer
5
12C0
10
256.975800
20
22.542600
30
0.000000
11
270.561400
21
22.542600
31
0.000000
62
7
0
LINE
100
AcDbEntity
100
AcDbLine
8
PCL_Layer
5
12C1
10
270.561400
20
22.542600
30
0.000000
11
270.561400
21
8.957000
31
0.000000
62
7
0
LINE
100
AcDbEntity
100
AcDbLine
8
PCL_Layer
5
12C2
10
270.561400
20
8.957000
30
0.000000
11
256.975800
21
8.957000
31
0.000000
62
7
0
LINE
100
AcDbEntity
100
AcDbLine
8
PCL_Layer
5
12C3
10
256.975800
20
8.957000
30
0.000000
11
256.975800
21
22.542600
31
0.000000
62
7
0
LINE
100
AcDbEntity
100
AcDbLine
8
PCL_Layer
5
12C4
10
247.468400
20
41.607500
30
0.000000
11
261.054000
21
41.607500
31
0.000000
62
7
0
LINE
100
AcDbEntity
100
AcDbLine
8
PCL_Layer
5
12C5
10
261.054000
20
41.607500
30
0.000000
11
261.054000
21
28.046900
31
0.000000
62
7
0
LINE
100
AcDbEntity
100
AcDbLine
8
PCL_Layer
5
12C6
10
261.054000
20
28.046900
30
0.000000
11
247.468400
21
28.046900
31
0.000000
62
7
0
LINE
100
AcDbEntity
100
AcDbLine
8
PCL_Layer
5
12C7
10
247.468400
20
28.046900
30
0.000000
11
247.468400
21
41.607500
31
0.000000
62
7
0
LINE
100
AcDbEntity
100
AcDbLine
8
PCL_Layer
5
12C8
10
94.949200
20
79.737300
30
0.000000
11
108.534800
21
79.737300
31
0.000000
62
7
0
LINE
100
AcDbEntity
100
AcDbLine
8
PCL_Layer
5
12C9
10
108.534800
20
79.737300
30
0.000000
11
108.534800
21
66.151700
31
0.000000
62
7
0
LINE
100
AcDbEntity
100
AcDbLine
8
PCL_Layer
5
12CA
10
108.534800
20
66.151700
30
0.000000
11
94.949200
21
66.151700
31
0.000000
62
7
0
LINE
100
AcDbEntity
100
AcDbLine
8
PCL_Layer
5
12CB
10
94.949200
20
66.151700
30
0.000000
11
94.949200
21
79.737300
31
0.000000
62
7
0
LINE
100
AcDbEntity
100
AcDbLine
8
PCL_Layer
5
12CC
10
257.000800
20
60.672400
30
0.000000
11
270.586400
21
60.672400
31
0.000000
62
7
0
LINE
100
AcDbEntity
100
AcDbLine
8
PCL_Layer
5
12CD
10
270.586400
20
60.672400
30
0.000000
11
270.586400
21
47.111800
31
0.000000
62
7
0
LINE
100
AcDbEntity
100
AcDbLine
8
PCL_Layer
5
12CE
10
270.586400
20
47.111800
30
0.000000
11
257.000800
21
47.111800
31
0.000000
62
7
0
LINE
100
AcDbEntity
100
AcDbLine
8
PCL_Layer
5
12CF
10
257.000800
20
47.111800
30
0.000000
11
257.000800
21
60.672400
31
0.000000
62
7
0
LINE
100
AcDbEntity
100
AcDbLine
8
PCL_Layer
5
12D0
10
433.363600
20
98.802200
30
0.000000
11
446.949200
21
98.802200
31
0.000000
62
7
0
LINE
100
AcDbEntity
100
AcDbLine
8
PCL_Layer
5
12D1
10
446.949200
20
98.802200
30
0.000000
11
446.949200
21
85.241600
31
0.000000
62
7
0
LINE
100
AcDbEntity
100
AcDbLine
8
PCL_Layer
5
12D2
10
446.949200
20
85.241600
30
0.000000
11
433.363600
21
85.241600
31
0.000000
62
7
0
LINE
100
AcDbEntity
100
AcDbLine
8
PCL_Layer
5
12D3
10
433.363600
20
85.241600
30
0.000000
11
433.363600
21
98.802200
31
0.000000
62
7
0
LINE
100
AcDbEntity
100
AcDbLine
8
PCL_Layer
5
12D4
10
209.338600
20
41.607500
30
0.000000
11
222.924200
21
41.607500
31
0.000000
62
7
0
LINE
100
AcDbEntity
100
AcDbLine
8
PCL_Layer
5
12D5
10
222.924200
20
41.607500
30
0.000000
11
222.924200
21
28.046900
31
0.000000
62
7
0
LINE
100
AcDbEntity
100
AcDbLine
8
PCL_Layer
5
12D6
10
222.924200
20
28.046900
30
0.000000
11
209.338600
21
28.046900
31
0.000000
62
7
0
LINE
100
AcDbEntity
100
AcDbLine
8
PCL_Layer
5
12D7
10
209.338600
20
28.046900
30
0.000000
11
209.338600
21
41.607500
31
0.000000
62
7
0
LINE
100
AcDbEntity
100
AcDbLine
8
PCL_Layer
5
12D8
10
90.195500
20
98.802200
30
0.000000
11
103.781100
21
98.802200
31
0.000000
62
7
0
LINE
100
AcDbEntity
100
AcDbLine
8
PCL_Layer
5
12D9
10
103.781100
20
98.802200
30
0.000000
11
103.781100
21
85.241600
31
0.000000
62
7
0
LINE
100
AcDbEntity
100
AcDbLine
8
PCL_Layer
5
12DA
10
103.781100
20
85.241600
30
0.000000
11
90.195500
21
85.241600
31
0.000000
62
7
0
LINE
100
AcDbEntity
100
AcDbLine
8
PCL_Layer
5
12DB
10
90.195500
20
85.241600
30
0.000000
11
90.195500
21
98.802200
31
0.000000
62
7
0
LINE
100
AcDbEntity
100
AcDbLine
8
PCL_Layer
5
12DC
10
152.143900
20
41.607500
30
0.000000
11
165.729500
21
41.607500
31
0.000000
62
7
0
LINE
100
AcDbEntity
100
AcDbLine
8
PCL_Layer
5
12DD
10
165.729500
20
41.607500
30
0.000000
11
165.729500
21
28.046900
31
0.000000
62
7
0
LINE
100
AcDbEntity
100
AcDbLine
8
PCL_Layer
5
12DE
10
165.729500
20
28.046900
30
0.000000
11
152.143900
21
28.046900
31
0.000000
62
7
0
LINE
100
AcDbEntity
100
AcDbLine
8
PCL_Layer
5
12DF
10
152.143900
20
28.046900
30
0.000000
11
152.143900
21
41.607500
31
0.000000
62
7
0
LINE
100
AcDbEntity
100
AcDbLine
8
PCL_Layer
5
12E0
10
199.806100
20
60.672400
30
0.000000
11
213.391700
21
60.672400
31
0.000000
62
7
0
LINE
100
AcDbEntity
100
AcDbLine
8
PCL_Layer
5
12E1
10
213.391700
20
60.672400
30
0.000000
11
213.391700
21
47.111800
31
0.000000
62
7
0
LINE
100
AcDbEntity
100
AcDbLine
8
PCL_Layer
5
12E2
10
213.391700
20
47.111800
30
0.000000
11
199.806100
21
47.111800
31
0.000000
62
7
0
LINE
100
AcDbEntity
100
AcDbLine
8
PCL_Layer
5
12E3
10
199.806100
20
47.111800
30
0.000000
11
199.806100
21
60.672400
31
0.000000
62
7
0
LINE
100
AcDbEntity
100
AcDbLine
8
PCL_Layer
5
12E4
10
13.935900
20
98.802200
30
0.000000
11
27.521500
21
98.802200
31
0.000000
62
7
0
LINE
100
AcDbEntity
100
AcDbLine
8
PCL_Layer
5
12E5
10
27.521500
20
98.802200
30
0.000000
11
27.521500
21
85.241600
31
0.000000
62
7
0
LINE
100
AcDbEntity
100
AcDbLine
8
PCL_Layer
5
12E6
10
27.521500
20
85.241600
30
0.000000
11
13.935900
21
85.241600
31
0.000000
62
7
0
LINE
100
AcDbEntity
100
AcDbLine
8
PCL_Layer
5
12E7
10
13.935900
20
85.241600
30
0.000000
11
13.935900
21
98.802200
31
0.000000
62
7
0
LINE
100
AcDbEntity
100
AcDbLine
8
PCL_Layer
5
12E8
10
323.727900
20
41.607500
30
0.000000
11
337.313500
21
41.607500
31
0.000000
62
7
0
LINE
100
AcDbEntity
100
AcDbLine
8
PCL_Layer
5
12E9
10
337.313500
20
41.607500
30
0.000000
11
337.313500
21
28.046900
31
0.000000
62
7
0
LINE
100
AcDbEntity
100
AcDbLine
8
PCL_Layer
5
12EA
10
337.313500
20
28.046900
30
0.000000
11
323.727900
21
28.046900
31
0.000000
62
7
0
LINE
100
AcDbEntity
100
AcDbLine
8
PCL_Layer
5
12EB
10
323.727900
20
28.046900
30
0.000000
11
323.727900
21
41.607500
31
0.000000
62
7
0
LINE
100
AcDbEntity
100
AcDbLine
8
PCL_Layer
5
12EC
10
347.546500
20
41.607500
30
0.000000
11
361.132100
21
41.607500
31
0.000000
62
7
0
LINE
100
AcDbEntity
100
AcDbLine
8
PCL_Layer
5
12ED
10
361.132100
20
41.607500
30
0.000000
11
361.132100
21
28.046900
31
0.000000
62
7
0
LINE
100
AcDbEntity
100
AcDbLine
8
PCL_Layer
5
12EE
10
361.132100
20
28.046900
30
0.000000
11
347.546500
21
28.046900
31
0.000000
62
7
0
LINE
100
AcDbEntity
100
AcDbLine
8
PCL_Layer
5
12EF
10
347.546500
20
28.046900
30
0.000000
11
347.546500
21
41.607500
31
0.000000
62
7
0
LINE
100
AcDbEntity
100
AcDbLine
8
PCL_Layer
5
12F0
10
233.182200
20
79.737300
30
0.000000
11
246.767800
21
79.737300
31
0.000000
62
7
0
LINE
100
AcDbEntity
100
AcDbLine
8
PCL_Layer
5
12F1
10
246.767800
20
79.737300
30
0.000000
11
246.767800
21
66.151700
31
0.000000
62
7
0
LINE
100
AcDbEntity
100
AcDbLine
8
PCL_Layer
5
12F2
10
246.767800
20
66.151700
30
0.000000
11
233.182200
21
66.151700
31
0.000000
62
7
0
LINE
100
AcDbEntity
100
AcDbLine
8
PCL_Layer
5
12F3
10
233.182200
20
66.151700
30
0.000000
11
233.182200
21
79.737300
31
0.000000
62
7
0
LINE
100
AcDbEntity
100
AcDbLine
8
PCL_Layer
5
12F4
10
214.117300
20
79.737300
30
0.000000
11
227.702900
21
79.737300
31
0.000000
62
7
0
LINE
100
AcDbEntity
100
AcDbLine
8
PCL_Layer
5
12F5
10
227.702900
20
79.737300
30
0.000000
11
227.702900
21
66.151700
31
0.000000
62
7
0
LINE
100
AcDbEntity
100
AcDbLine
8
PCL_Layer
5
12F6
10
227.702900
20
66.151700
30
0.000000
11
214.117300
21
66.151700
31
0.000000
62
7
0
LINE
100
AcDbEntity
100
AcDbLine
8
PCL_Layer
5
12F7
10
214.117300
20
66.151700
30
0.000000
11
214.117300
21
79.737300
31
0.000000
62
7
0
LINE
100
AcDbEntity
100
AcDbLine
8
PCL_Layer
5
12F8
10
137.857700
20
79.737300
30
0.000000
11
151.443300
21
79.737300
31
0.000000
62
7
0
LINE
100
AcDbEntity
100
AcDbLine
8
PCL_Layer
5
12F9
10
151.443300
20
79.737300
30
0.000000
11
151.443300
21
66.151700
31
0.000000
62
7
0
LINE
100
AcDbEntity
100
AcDbLine
8
PCL_Layer
5
12FA
10
151.443300
20
66.151700
30
0.000000
11
137.857700
21
66.151700
31
0.000000
62
7
0
LINE
100
AcDbEntity
100
AcDbLine
8
PCL_Layer
5
12FB
10
137.857700
20
66.151700
30
0.000000
11
137.857700
21
79.737300
31
0.000000
62
7
0
LINE
100
AcDbEntity
100
AcDbLine
8
PCL_Layer
5
12FC
10
161.676300
20
60.672400
30
0.000000
11
175.261900
21
60.672400
31
0.000000
62
7
0
LINE
100
AcDbEntity
100
AcDbLine
8
PCL_Layer
5
12FD
10
175.261900
20
60.672400
30
0.000000
11
175.261900
21
47.111800
31
0.000000
62
7
0
LINE
100
AcDbEntity
100
AcDbLine
8
PCL_Layer
5
12FE
10
175.261900
20
47.111800
30
0.000000
11
161.676300
21
47.111800
31
0.000000
62
7
0
LINE
100
AcDbEntity
100
AcDbLine
8
PCL_Layer
5
12FF
10
161.676300
20
47.111800
30
0.000000
11
161.676300
21
60.672400
31
0.000000
62
7
0
LINE
100
AcDbEntity
100
AcDbLine
8
PCL_Layer
5
1300
10
361.857700
20
22.542600
30
0.000000
11
375.443300
21
22.542600
31
0.000000
62
7
0
LINE
100
AcDbEntity
100
AcDbLine
8
PCL_Layer
5
1301
10
375.443300
20
22.542600
30
0.000000
11
375.443300
21
8.957000
31
0.000000
62
7
0
LINE
100
AcDbEntity
100
AcDbLine
8
PCL_Layer
5
1302
10
375.443300
20
8.957000
30
0.000000
11
361.857700
21
8.957000
31
0.000000
62
7
0
LINE
100
AcDbEntity
100
AcDbLine
8
PCL_Layer
5
1303
10
361.857700
20
8.957000
30
0.000000
11
361.857700
21
22.542600
31
0.000000
62
7
0
LINE
100
AcDbEntity
100
AcDbLine
8
PCL_Layer
5
1304
10
309.441700
20
79.737300
30
0.000000
11
323.027400
21
79.737300
31
0.000000
62
7
0
LINE
100
AcDbEntity
100
AcDbLine
8
PCL_Layer
5
1305
10
323.027400
20
79.737300
30
0.000000
11
323.027400
21
66.151700
31
0.000000
62
7
0
LINE
100
AcDbEntity
100
AcDbLine
8
PCL_Layer
5
1306
10
323.027400
20
66.151700
30
0.000000
11
309.441700
21
66.151700
31
0.000000
62
7
0
LINE
100
AcDbEntity
100
AcDbLine
8
PCL_Layer
5
1307
10
309.441700
20
66.151700
30
0.000000
11
309.441700
21
79.737300
31
0.000000
62
7
0
LINE
100
AcDbEntity
100
AcDbLine
8
PCL_Layer
5
1308
10
371.390200
20
79.737300
30
0.000000
11
384.975800
21
79.737300
31
0.000000
62
7
0
LINE
100
AcDbEntity
100
AcDbLine
8
PCL_Layer
5
1309
10
384.975800
20
79.737300
30
0.000000
11
384.975800
21
66.151700
31
0.000000
62
7
0
LINE
100
AcDbEntity
100
AcDbLine
8
PCL_Layer
5
130A
10
384.975800
20
66.151700
30
0.000000
11
371.390200
21
66.151700
31
0.000000
62
7
0
LINE
100
AcDbEntity
100
AcDbLine
8
PCL_Layer
5
130B
10
371.390200
20
66.151700
30
0.000000
11
371.390200
21
79.737300
31
0.000000
62
7
0
LINE
100
AcDbEntity
100
AcDbLine
8
PCL_Layer
5
130C
10
452.428500
20
41.607500
30
0.000000
11
466.014100
21
41.607500
31
0.000000
62
7
0
LINE
100
AcDbEntity
100
AcDbLine
8
PCL_Layer
5
130D
10
466.014100
20
41.607500
30
0.000000
11
466.014100
21
28.046900
31
0.000000
62
7
0
LINE
100
AcDbEntity
100
AcDbLine
8
PCL_Layer
5
130E
10
466.014100
20
28.046900
30
0.000000
11
452.428500
21
28.046900
31
0.000000
62
7
0
LINE
100
AcDbEntity
100
AcDbLine
8
PCL_Layer
5
130F
10
452.428500
20
28.046900
30
0.000000
11
452.428500
21
41.607500
31
0.000000
62
7
0
LINE
100
AcDbEntity
100
AcDbLine
8
PCL_Layer
5
1310
10
195.052400
20
79.737300
30
0.000000
11
208.638000
21
79.737300
31
0.000000
62
7
0
LINE
100
AcDbEntity
100
AcDbLine
8
PCL_Layer
5
1311
10
208.638000
20
79.737300
30
0.000000
11
208.638000
21
66.151700
31
0.000000
62
7
0
LINE
100
AcDbEntity
100
AcDbLine
8
PCL_Layer
5
1312
10
208.638000
20
66.151700
30
0.000000
11
195.052400
21
66.151700
31
0.000000
62
7
0
LINE
100
AcDbEntity
100
AcDbLine
8
PCL_Layer
5
1313
10
195.052400
20
66.151700
30
0.000000
11
195.052400
21
79.737300
31
0.000000
62
7
0
LINE
100
AcDbEntity
100
AcDbLine
8
PCL_Layer
5
1314
10
373.792000
20
60.672400
30
0.000000
11
387.352600
21
60.672400
31
0.000000
62
7
0
LINE
100
AcDbEntity
100
AcDbLine
8
PCL_Layer
5
1315
10
387.352600
20
60.672400
30
0.000000
11
387.352600
21
47.111800
31
0.000000
62
7
0
LINE
100
AcDbEntity
100
AcDbLine
8
PCL_Layer
5
1316
10
387.352600
20
47.111800
30
0.000000
11
373.792000
21
47.111800
31
0.000000
62
7
0
LINE
100
AcDbEntity
100
AcDbLine
8
PCL_Layer
5
1317
10
373.792000
20
47.111800
30
0.000000
11
373.792000
21
60.672400
31
0.000000
62
7
0
LINE
100
AcDbEntity
100
AcDbLine
8
PCL_Layer
5
1318
10
133.079000
20
41.607500
30
0.000000
11
146.664600
21
41.607500
31
0.000000
62
7
0
LINE
100
AcDbEntity
100
AcDbLine
8
PCL_Layer
5
1319
10
146.664600
20
41.607500
30
0.000000
11
146.664600
21
28.046900
31
0.000000
62
7
0
LINE
100
AcDbEntity
100
AcDbLine
8
PCL_Layer
5
131A
10
146.664600
20
28.046900
30
0.000000
11
133.079000
21
28.046900
31
0.000000
62
7
0
LINE
100
AcDbEntity
100
AcDbLine
8
PCL_Layer
5
131B
10
133.079000
20
28.046900
30
0.000000
11
133.079000
21
41.607500
31
0.000000
62
7
0
LINE
100
AcDbEntity
100
AcDbLine
8
PCL_Layer
5
131C
10
159.299500
20
22.542600
30
0.000000
11
172.885100
21
22.542600
31
0.000000
62
7
0
LINE
100
AcDbEntity
100
AcDbLine
8
PCL_Layer
5
131D
10
172.885100
20
22.542600
30
0.000000
11
172.885100
21
8.957000
31
0.000000
62
7
0
LINE
100
AcDbEntity
100
AcDbLine
8
PCL_Layer
5
131E
10
172.885100
20
8.957000
30
0.000000
11
159.299500
21
8.957000
31
0.000000
62
7
0
LINE
100
AcDbEntity
100
AcDbLine
8
PCL_Layer
5
131F
10
159.299500
20
8.957000
30
0.000000
11
159.299500
21
22.542600
31
0.000000
62
7
0
LINE
100
AcDbEntity
100
AcDbLine
8
PCL_Layer
5
1320
10
228.403400
20
41.607500
30
0.000000
11
241.989100
21
41.607500
31
0.000000
62
7
0
LINE
100
AcDbEntity
100
AcDbLine
8
PCL_Layer
5
1321
10
241.989100
20
41.607500
30
0.000000
11
241.989100
21
28.046900
31
0.000000
62
7
0
LINE
100
AcDbEntity
100
AcDbLine
8
PCL_Layer
5
1322
10
241.989100
20
28.046900
30
0.000000
11
228.403400
21
28.046900
31
0.000000
62
7
0
LINE
100
AcDbEntity
100
AcDbLine
8
PCL_Layer
5
1323
10
228.403400
20
28.046900
30
0.000000
11
228.403400
21
41.607500
31
0.000000
62
7
0
LINE
100
AcDbEntity
100
AcDbLine
8
PCL_Layer
5
1324
10
347.571600
20
79.737300
30
0.000000
11
361.157200
21
79.737300
31
0.000000
62
7
0
LINE
100
AcDbEntity
100
AcDbLine
8
PCL_Layer
5
1325
10
361.157200
20
79.737300
30
0.000000
11
361.157200
21
66.151700
31
0.000000
62
7
0
LINE
100
AcDbEntity
100
AcDbLine
8
PCL_Layer
5
1326
10
361.157200
20
66.151700
30
0.000000
11
347.571600
21
66.151700
31
0.000000
62
7
0
LINE
100
AcDbEntity
100
AcDbLine
8
PCL_Layer
5
1327
10
347.571600
20
66.151700
30
0.000000
11
347.571600
21
79.737300
31
0.000000
62
7
0
LINE
100
AcDbEntity
100
AcDbLine
8
PCL_Layer
5
1328
10
261.779500
20
98.802200
30
0.000000
11
275.365100
21
98.802200
31
0.000000
62
7
0
LINE
100
AcDbEntity
100
AcDbLine
8
PCL_Layer
5
1329
10
275.365100
20
98.802200
30
0.000000
11
275.365100
21
85.241600
31
0.000000
62
7
0
LINE
100
AcDbEntity
100
AcDbLine
8
PCL_Layer
5
132A
10
275.365100
20
85.241600
30
0.000000
11
261.779500
21
85.241600
31
0.000000
62
7
0
LINE
100
AcDbEntity
100
AcDbLine
8
PCL_Layer
5
132B
10
261.779500
20
85.241600
30
0.000000
11
261.779500
21
98.802200
31
0.000000
62
7
0
LINE
100
AcDbEntity
100
AcDbLine
8
PCL_Layer
5
132C
10
276.065700
20
60.672400
30
0.000000
11
289.651300
21
60.672400
31
0.000000
62
7
0
LINE
100
AcDbEntity
100
AcDbLine
8
PCL_Layer
5
132D
10
289.651300
20
60.672400
30
0.000000
11
289.651300
21
47.111800
31
0.000000
62
7
0
LINE
100
AcDbEntity
100
AcDbLine
8
PCL_Layer
5
132E
10
289.651300
20
47.111800
30
0.000000
11
276.065700
21
47.111800
31
0.000000
62
7
0
LINE
100
AcDbEntity
100
AcDbLine
8
PCL_Layer
5
132F
10
276.065700
20
47.111800
30
0.000000
11
276.065700
21
60.672400
31
0.000000
62
7
0
LINE
100
AcDbEntity
100
AcDbLine
8
PCL_Layer
5
1330
10
304.663000
20
98.802200
30
0.000000
11
318.248600
21
98.802200
31
0.000000
62
7
0
LINE
100
AcDbEntity
100
AcDbLine
8
PCL_Layer
5
1331
10
318.248600
20
98.802200
30
0.000000
11
318.248600
21
85.241600
31
0.000000
62
7
0
LINE
100
AcDbEntity
100
AcDbLine
8
PCL_Layer
5
1332
10
318.248600
20
85.241600
30
0.000000
11
304.663000
21
85.241600
31
0.000000
62
7
0
LINE
100
AcDbEntity
100
AcDbLine
8
PCL_Layer
5
1333
10
304.663000
20
85.241600
30
0.000000
11
304.663000
21
98.802200
31
0.000000
62
7
0
LINE
100
AcDbEntity
100
AcDbLine
8
PCL_Layer
5
1334
10
106.883500
20
22.542600
30
0.000000
11
120.444100
21
22.542600
31
0.000000
62
7
0
LINE
100
AcDbEntity
100
AcDbLine
8
PCL_Layer
5
1335
10
120.444100
20
22.542600
30
0.000000
11
120.444100
21
8.957000
31
0.000000
62
7
0
LINE
100
AcDbEntity
100
AcDbLine
8
PCL_Layer
5
1336
10
120.444100
20
8.957000
30
0.000000
11
106.883500
21
8.957000
31
0.000000
62
7
0
LINE
100
AcDbEntity
100
AcDbLine
8
PCL_Layer
5
1337
10
106.883500
20
8.957000
30
0.000000
11
106.883500
21
22.542600
31
0.000000
62
7
0
LINE
100
AcDbEntity
100
AcDbLine
8
PCL_Layer
5
1338
10
13.935900
20
41.607500
30
0.000000
11
27.521500
21
41.607500
31
0.000000
62
7
0
LINE
100
AcDbEntity
100
AcDbLine
8
PCL_Layer
5
1339
10
27.521500
20
41.607500
30
0.000000
11
27.521500
21
28.046900
31
0.000000
62
7
0
LINE
100
AcDbEntity
100
AcDbLine
8
PCL_Layer
5
133A
10
27.521500
20
28.046900
30
0.000000
11
13.935900
21
28.046900
31
0.000000
62
7
0
LINE
100
AcDbEntity
100
AcDbLine
8
PCL_Layer
5
133B
10
13.935900
20
28.046900
30
0.000000
11
13.935900
21
41.607500
31
0.000000
62
7
0
LINE
100
AcDbEntity
100
AcDbLine
8
PCL_Layer
5
133C
10
147.390200
20
98.802200
30
0.000000
11
160.975800
21
98.802200
31
0.000000
62
7
0
LINE
100
AcDbEntity
100
AcDbLine
8
PCL_Layer
5
133D
10
160.975800
20
98.802200
30
0.000000
11
160.975800
21
85.241600
31
0.000000
62
7
0
LINE
100
AcDbEntity
100
AcDbLine
8
PCL_Layer
5
133E
10
160.975800
20
85.241600
30
0.000000
11
147.390200
21
85.241600
31
0.000000
62
7
0
LINE
100
AcDbEntity
100
AcDbLine
8
PCL_Layer
5
133F
10
147.390200
20
85.241600
30
0.000000
11
147.390200
21
98.802200
31
0.000000
62
7
0
LINE
100
AcDbEntity
100
AcDbLine
8
PCL_Layer
5
1340
10
295.130600
20
60.672400
30
0.000000
11
308.716200
21
60.672400
31
0.000000
62
7
0
LINE
100
AcDbEntity
100
AcDbLine
8
PCL_Layer
5
1341
10
308.716200
20
60.672400
30
0.000000
11
308.716200
21
47.111800
31
0.000000
62
7
0
LINE
100
AcDbEntity
100
AcDbLine
8
PCL_Layer
5
1342
10
308.716200
20
47.111800
30
0.000000
11
295.130600
21
47.111800
31
0.000000
62
7
0
LINE
100
AcDbEntity
100
AcDbLine
8
PCL_Layer
5
1343
10
295.130600
20
47.111800
30
0.000000
11
295.130600
21
60.672400
31
0.000000
62
7
0
LINE
100
AcDbEntity
100
AcDbLine
8
PCL_Layer
5
1344
10
90.195500
20
41.607500
30
0.000000
11
103.781100
21
41.607500
31
0.000000
62
7
0
LINE
100
AcDbEntity
100
AcDbLine
8
PCL_Layer
5
1345
10
103.781100
20
41.607500
30
0.000000
11
103.781100
21
28.046900
31
0.000000
62
7
0
LINE
100
AcDbEntity
100
AcDbLine
8
PCL_Layer
5
1346
10
103.781100
20
28.046900
30
0.000000
11
90.195500
21
28.046900
31
0.000000
62
7
0
LINE
100
AcDbEntity
100
AcDbLine
8
PCL_Layer
5
1347
10
90.195500
20
28.046900
30
0.000000
11
90.195500
21
41.607500
31
0.000000
62
7
0
LINE
100
AcDbEntity
100
AcDbLine
8
PCL_Layer
5
1348
10
113.989100
20
41.607500
30
0.000000
11
127.574700
21
41.607500
31
0.000000
62
7
0
LINE
100
AcDbEntity
100
AcDbLine
8
PCL_Layer
5
1349
10
127.574700
20
41.607500
30
0.000000
11
127.574700
21
28.046900
31
0.000000
62
7
0
LINE
100
AcDbEntity
100
AcDbLine
8
PCL_Layer
5
134A
10
127.574700
20
28.046900
30
0.000000
11
113.989100
21
28.046900
31
0.000000
62
7
0
LINE
100
AcDbEntity
100
AcDbLine
8
PCL_Layer
5
134B
10
113.989100
20
28.046900
30
0.000000
11
113.989100
21
41.607500
31
0.000000
62
7
0
LINE
100
AcDbEntity
100
AcDbLine
8
PCL_Layer
5
134C
10
97.351100
20
60.672400
30
0.000000
11
110.911600
21
60.672400
31
0.000000
62
7
0
LINE
100
AcDbEntity
100
AcDbLine
8
PCL_Layer
5
134D
10
110.911600
20
60.672400
30
0.000000
11
110.911600
21
47.111800
31
0.000000
62
7
0
LINE
100
AcDbEntity
100
AcDbLine
8
PCL_Layer
5
134E
10
110.911600
20
47.111800
30
0.000000
11
97.351100
21
47.111800
31
0.000000
62
7
0
LINE
100
AcDbEntity
100
AcDbLine
8
PCL_Layer
5
134F
10
97.351100
20
47.111800
30
0.000000
11
97.351100
21
60.672400
31
0.000000
62
7
0
LINE
100
AcDbEntity
100
AcDbLine
8
PCL_Layer
5
1350
10
304.663000
20
41.607500
30
0.000000
11
318.248600
21
41.607500
31
0.000000
62
7
0
LINE
100
AcDbEntity
100
AcDbLine
8
PCL_Layer
5
1351
10
318.248600
20
41.607500
30
0.000000
11
318.248600
21
28.046900
31
0.000000
62
7
0
LINE
100
AcDbEntity
100
AcDbLine
8
PCL_Layer
5
1352
10
318.248600
20
28.046900
30
0.000000
11
304.663000
21
28.046900
31
0.000000
62
7
0
LINE
100
AcDbEntity
100
AcDbLine
8
PCL_Layer
5
1353
10
304.663000
20
28.046900
30
0.000000
11
304.663000
21
41.607500
31
0.000000
62
7
0
LINE
100
AcDbEntity
100
AcDbLine
8
PCL_Layer
5
1354
10
223.649700
20
98.802200
30
0.000000
11
237.235400
21
98.802200
31
0.000000
62
7
0
LINE
100
AcDbEntity
100
AcDbLine
8
PCL_Layer
5
1355
10
237.235400
20
98.802200
30
0.000000
11
237.235400
21
85.241600
31
0.000000
62
7
0
LINE
100
AcDbEntity
100
AcDbLine
8
PCL_Layer
5
1356
10
237.235400
20
85.241600
30
0.000000
11
223.649700
21
85.241600
31
0.000000
62
7
0
LINE
100
AcDbEntity
100
AcDbLine
8
PCL_Layer
5
1357
10
223.649700
20
85.241600
30
0.000000
11
223.649700
21
98.802200
31
0.000000
62
7
0
LINE
100
AcDbEntity
100
AcDbLine
8
PCL_Layer
5
1358
10
190.273700
20
41.607500
30
0.000000
11
203.859300
21
41.607500
31
0.000000
62
7
0
LINE
100
AcDbEntity
100
AcDbLine
8
PCL_Layer
5
1359
10
203.859300
20
41.607500
30
0.000000
11
203.859300
21
28.046900
31
0.000000
62
7
0
LINE
100
AcDbEntity
100
AcDbLine
8
PCL_Layer
5
135A
10
203.859300
20
28.046900
30
0.000000
11
190.273700
21
28.046900
31
0.000000
62
7
0
LINE
100
AcDbEntity
100
AcDbLine
8
PCL_Layer
5
135B
10
190.273700
20
28.046900
30
0.000000
11
190.273700
21
41.607500
31
0.000000
62
7
0
LINE
100
AcDbEntity
100
AcDbLine
8
PCL_Layer
5
135C
10
452.428500
20
98.802200
30
0.000000
11
466.014100
21
98.802200
31
0.000000
62
7
0
LINE
100
AcDbEntity
100
AcDbLine
8
PCL_Layer
5
135D
10
466.014100
20
98.802200
30
0.000000
11
466.014100
21
85.241600
31
0.000000
62
7
0
LINE
100
AcDbEntity
100
AcDbLine
8
PCL_Layer
5
135E
10
466.014100
20
85.241600
30
0.000000
11
452.428500
21
85.241600
31
0.000000
62
7
0
LINE
100
AcDbEntity
100
AcDbLine
8
PCL_Layer
5
135F
10
452.428500
20
85.241600
30
0.000000
11
452.428500
21
98.802200
31
0.000000
62
7
0
LINE
100
AcDbEntity
100
AcDbLine
8
PCL_Layer
5
1360
10
452.428500
20
79.737300
30
0.000000
11
466.014100
21
79.737300
31
0.000000
62
7
0
LINE
100
AcDbEntity
100
AcDbLine
8
PCL_Layer
5
1361
10
466.014100
20
79.737300
30
0.000000
11
466.014100
21
66.151700
31
0.000000
62
7
0
LINE
100
AcDbEntity
100
AcDbLine
8
PCL_Layer
5
1362
10
466.014100
20
66.151700
30
0.000000
11
452.428500
21
66.151700
31
0.000000
62
7
0
LINE
100
AcDbEntity
100
AcDbLine
8
PCL_Layer
5
1363
10
452.428500
20
66.151700
30
0.000000
11
452.428500
21
79.737300
31
0.000000
62
7
0
LINE
100
AcDbEntity
100
AcDbLine
8
PCL_Layer
5
1364
10
37.754500
20
41.607500
30
0.000000
11
51.340100
21
41.607500
31
0.000000
62
7
0
LINE
100
AcDbEntity
100
AcDbLine
8
PCL_Layer
5
1365
10
51.340100
20
41.607500
30
0.000000
11
51.340100
21
28.046900
31
0.000000
62
7
0
LINE
100
AcDbEntity
100
AcDbLine
8
PCL_Layer
5
1366
10
51.340100
20
28.046900
30
0.000000
11
37.754500
21
28.046900
31
0.000000
62
7
0
LINE
100
AcDbEntity
100
AcDbLine
8
PCL_Layer
5
1367
10
37.754500
20
28.046900
30
0.000000
11
37.754500
21
41.607500
31
0.000000
62
7
0
LINE
100
AcDbEntity
100
AcDbLine
8
PCL_Layer
5
1368
10
252.247100
20
79.737300
30
0.000000
11
265.832700
21
79.737300
31
0.000000
62
7
0
LINE
100
AcDbEntity
100
AcDbLine
8
PCL_Layer
5
1369
10
265.832700
20
79.737300
30
0.000000
11
265.832700
21
66.151700
31
0.000000
62
7
0
LINE
100
AcDbEntity
100
AcDbLine
8
PCL_Layer
5
136A
10
265.832700
20
66.151700
30
0.000000
11
252.247100
21
66.151700
31
0.000000
62
7
0
LINE
100
AcDbEntity
100
AcDbLine
8
PCL_Layer
5
136B
10
252.247100
20
66.151700
30
0.000000
11
252.247100
21
79.737300
31
0.000000
62
7
0
LINE
100
AcDbEntity
100
AcDbLine
8
PCL_Layer
5
136C
10
271.312000
20
79.737300
30
0.000000
11
284.897600
21
79.737300
31
0.000000
62
7
0
LINE
100
AcDbEntity
100
AcDbLine
8
PCL_Layer
5
136D
10
284.897600
20
79.737300
30
0.000000
11
284.897600
21
66.151700
31
0.000000
62
7
0
LINE
100
AcDbEntity
100
AcDbLine
8
PCL_Layer
5
136E
10
284.897600
20
66.151700
30
0.000000
11
271.312000
21
66.151700
31
0.000000
62
7
0
LINE
100
AcDbEntity
100
AcDbLine
8
PCL_Layer
5
136F
10
271.312000
20
66.151700
30
0.000000
11
271.312000
21
79.737300
31
0.000000
62
7
0
LINE
100
AcDbEntity
100
AcDbLine
8
PCL_Layer
5
1370
10
33.000800
20
79.737300
30
0.000000
11
46.586400
21
79.737300
31
0.000000
62
7
0
LINE
100
AcDbEntity
100
AcDbLine
8
PCL_Layer
5
1371
10
46.586400
20
79.737300
30
0.000000
11
46.586400
21
66.151700
31
0.000000
62
7
0
LINE
100
AcDbEntity
100
AcDbLine
8
PCL_Layer
5
1372
10
46.586400
20
66.151700
30
0.000000
11
33.000800
21
66.151700
31
0.000000
62
7
0
LINE
100
AcDbEntity
100
AcDbLine
8
PCL_Layer
5
1373
10
33.000800
20
66.151700
30
0.000000
11
33.000800
21
79.737300
31
0.000000
62
7
0
LINE
100
AcDbEntity
100
AcDbLine
8
PCL_Layer
5
1374
10
280.844400
20
98.802200
30
0.000000
11
294.430000
21
98.802200
31
0.000000
62
7
0
LINE
100
AcDbEntity
100
AcDbLine
8
PCL_Layer
5
1375
10
294.430000
20
98.802200
30
0.000000
11
294.430000
21
85.241600
31
0.000000
62
7
0
LINE
100
AcDbEntity
100
AcDbLine
8
PCL_Layer
5
1376
10
294.430000
20
85.241600
30
0.000000
11
280.844400
21
85.241600
31
0.000000
62
7
0
LINE
100
AcDbEntity
100
AcDbLine
8
PCL_Layer
5
1377
10
280.844400
20
85.241600
30
0.000000
11
280.844400
21
98.802200
31
0.000000
62
7
0
LINE
100
AcDbEntity
100
AcDbLine
8
PCL_Layer
5
1378
10
66.351800
20
41.607500
30
0.000000
11
79.937500
21
41.607500
31
0.000000
62
7
0
LINE
100
AcDbEntity
100
AcDbLine
8
PCL_Layer
5
1379
10
79.937500
20
41.607500
30
0.000000
11
79.937500
21
28.046900
31
0.000000
62
7
0
LINE
100
AcDbEntity
100
AcDbLine
8
PCL_Layer
5
137A
10
79.937500
20
28.046900
30
0.000000
11
66.351800
21
28.046900
31
0.000000
62
7
0
LINE
100
AcDbEntity
100
AcDbLine
8
PCL_Layer
5
137B
10
66.351800
20
28.046900
30
0.000000
11
66.351800
21
41.607500
31
0.000000
62
7
0
LINE
100
AcDbEntity
100
AcDbLine
8
PCL_Layer
5
137C
10
419.052400
20
22.542600
30
0.000000
11
432.638000
21
22.542600
31
0.000000
62
7
0
LINE
100
AcDbEntity
100
AcDbLine
8
PCL_Layer
5
137D
10
432.638000
20
22.542600
30
0.000000
11
432.638000
21
8.957000
31
0.000000
62
7
0
LINE
100
AcDbEntity
100
AcDbLine
8
PCL_Layer
5
137E
10
432.638000
20
8.957000
30
0.000000
11
419.052400
21
8.957000
31
0.000000
62
7
0
LINE
100
AcDbEntity
100
AcDbLine
8
PCL_Layer
5
137F
10
419.052400
20
8.957000
30
0.000000
11
419.052400
21
22.542600
31
0.000000
62
7
0
LINE
100
AcDbEntity
100
AcDbLine
8
PCL_Layer
5
1380
10
13.935900
20
79.737300
30
0.000000
11
27.521500
21
79.737300
31
0.000000
62
7
0
LINE
100
AcDbEntity
100
AcDbLine
8
PCL_Layer
5
1381
10
27.521500
20
79.737300
30
0.000000
11
27.521500
21
66.151700
31
0.000000
62
7
0
LINE
100
AcDbEntity
100
AcDbLine
8
PCL_Layer
5
1382
10
27.521500
20
66.151700
30
0.000000
11
13.935900
21
66.151700
31
0.000000
62
7
0
LINE
100
AcDbEntity
100
AcDbLine
8
PCL_Layer
5
1383
10
13.935900
20
66.151700
30
0.000000
11
13.935900
21
79.737300
31
0.000000
62
7
0
LINE
100
AcDbEntity
100
AcDbLine
8
PCL_Layer
5
1384
10
330.883500
20
22.542600
30
0.000000
11
344.469100
21
22.542600
31
0.000000
62
7
0
LINE
100
AcDbEntity
100
AcDbLine
8
PCL_Layer
5
1385
10
344.469100
20
22.542600
30
0.000000
11
344.469100
21
8.957000
31
0.000000
62
7
0
LINE
100
AcDbEntity
100
AcDbLine
8
PCL_Layer
5
1386
10
344.469100
20
8.957000
30
0.000000
11
330.883500
21
8.957000
31
0.000000
62
7
0
LINE
100
AcDbEntity
100
AcDbLine
8
PCL_Layer
5
1387
10
330.883500
20
8.957000
30
0.000000
11
330.883500
21
22.542600
31
0.000000
62
7
0
LINE
100
AcDbEntity
100
AcDbLine
8
PCL_Layer
5
1388
10
390.455000
20
22.542600
30
0.000000
11
404.040600
21
22.542600
31
0.000000
62
7
0
LINE
100
AcDbEntity
100
AcDbLine
8
PCL_Layer
5
1389
10
404.040600
20
22.542600
30
0.000000
11
404.040600
21
8.957000
31
0.000000
62
7
0
LINE
100
AcDbEntity
100
AcDbLine
8
PCL_Layer
5
138A
10
404.040600
20
8.957000
30
0.000000
11
390.455000
21
8.957000
31
0.000000
62
7
0
LINE
100
AcDbEntity
100
AcDbLine
8
PCL_Layer
5
138B
10
390.455000
20
8.957000
30
0.000000
11
390.455000
21
22.542600
31
0.000000
62
7
0
LINE
100
AcDbEntity
100
AcDbLine
8
PCL_Layer
5
138C
10
109.260400
20
98.802200
30
0.000000
11
122.846000
21
98.802200
31
0.000000
62
7
0
LINE
100
AcDbEntity
100
AcDbLine
8
PCL_Layer
5
138D
10
122.846000
20
98.802200
30
0.000000
11
122.846000
21
85.241600
31
0.000000
62
7
0
LINE
100
AcDbEntity
100
AcDbLine
8
PCL_Layer
5
138E
10
122.846000
20
85.241600
30
0.000000
11
109.260400
21
85.241600
31
0.000000
62
7
0
LINE
100
AcDbEntity
100
AcDbLine
8
PCL_Layer
5
138F
10
109.260400
20
85.241600
30
0.000000
11
109.260400
21
98.802200
31
0.000000
62
7
0
LINE
100
AcDbEntity
100
AcDbLine
8
PCL_Layer
5
1390
10
302.286200
20
22.542600
30
0.000000
11
315.871800
21
22.542600
31
0.000000
62
7
0
LINE
100
AcDbEntity
100
AcDbLine
8
PCL_Layer
5
1391
10
315.871800
20
22.542600
30
0.000000
11
315.871800
21
8.957000
31
0.000000
62
7
0
LINE
100
AcDbEntity
100
AcDbLine
8
PCL_Layer
5
1392
10
315.871800
20
8.957000
30
0.000000
11
302.286200
21
8.957000
31
0.000000
62
7
0
LINE
100
AcDbEntity
100
AcDbLine
8
PCL_Layer
5
1393
10
302.286200
20
8.957000
30
0.000000
11
302.286200
21
22.542600
31
0.000000
62
7
0
LINE
100
AcDbEntity
100
AcDbLine
8
PCL_Layer
5
1394
10
371.390200
20
41.607500
30
0.000000
11
384.975800
21
41.607500
31
0.000000
62
7
0
LINE
100
AcDbEntity
100
AcDbLine
8
PCL_Layer
5
1395
10
384.975800
20
41.607500
30
0.000000
11
384.975800
21
28.046900
31
0.000000
62
7
0
LINE
100
AcDbEntity
100
AcDbLine
8
PCL_Layer
5
1396
10
384.975800
20
28.046900
30
0.000000
11
371.390200
21
28.046900
31
0.000000
62
7
0
LINE
100
AcDbEntity
100
AcDbLine
8
PCL_Layer
5
1397
10
371.390200
20
28.046900
30
0.000000
11
371.390200
21
41.607500
31
0.000000
62
7
0
LINE
100
AcDbEntity
100
AcDbLine
8
PCL_Layer
5
1398
10
180.741200
20
60.672400
30
0.000000
11
194.326800
21
60.672400
31
0.000000
62
7
0
LINE
100
AcDbEntity
100
AcDbLine
8
PCL_Layer
5
1399
10
194.326800
20
60.672400
30
0.000000
11
194.326800
21
47.111800
31
0.000000
62
7
0
LINE
100
AcDbEntity
100
AcDbLine
8
PCL_Layer
5
139A
10
194.326800
20
47.111800
30
0.000000
11
180.741200
21
47.111800
31
0.000000
62
7
0
LINE
100
AcDbEntity
100
AcDbLine
8
PCL_Layer
5
139B
10
180.741200
20
47.111800
30
0.000000
11
180.741200
21
60.672400
31
0.000000
62
7
0
LINE
100
AcDbEntity
100
AcDbLine
8
PCL_Layer
5
139C
10
118.792800
20
79.737300
30
0.000000
11
132.378400
21
79.737300
31
0.000000
62
7
0
LINE
100
AcDbEntity
100
AcDbLine
8
PCL_Layer
5
139D
10
132.378400
20
79.737300
30
0.000000
11
132.378400
21
66.151700
31
0.000000
62
7
0
LINE
100
AcDbEntity
100
AcDbLine
8
PCL_Layer
5
139E
10
132.378400
20
66.151700
30
0.000000
11
118.792800
21
66.151700
31
0.000000
62
7
0
LINE
100
AcDbEntity
100
AcDbLine
8
PCL_Layer
5
139F
10
118.792800
20
66.151700
30
0.000000
11
118.792800
21
79.737300
31
0.000000
62
7
0
LINE
100
AcDbEntity
100
AcDbLine
8
PCL_Layer
5
13A0
10
171.208800
20
41.607500
30
0.000000
11
184.794400
21
41.607500
31
0.000000
62
7
0
LINE
100
AcDbEntity
100
AcDbLine
8
PCL_Layer
5
13A1
10
184.794400
20
41.607500
30
0.000000
11
184.794400
21
28.046900
31
0.000000
62
7
0
LINE
100
AcDbEntity
100
AcDbLine
8
PCL_Layer
5
13A2
10
184.794400
20
28.046900
30
0.000000
11
171.208800
21
28.046900
31
0.000000
62
7
0
LINE
100
AcDbEntity
100
AcDbLine
8
PCL_Layer
5
13A3
10
171.208800
20
28.046900
30
0.000000
11
171.208800
21
41.607500
31
0.000000
62
7
0
LINE
100
AcDbEntity
100
AcDbLine
8
PCL_Layer
5
13A4
10
433.363600
20
79.737300
30
0.000000
11
446.949200
21
79.737300
31
0.000000
62
7
0
LINE
100
AcDbEntity
100
AcDbLine
8
PCL_Layer
5
13A5
10
446.949200
20
79.737300
30
0.000000
11
446.949200
21
66.151700
31
0.000000
62
7
0
LINE
100
AcDbEntity
100
AcDbLine
8
PCL_Layer
5
13A6
10
446.949200
20
66.151700
30
0.000000
11
433.363600
21
66.151700
31
0.000000
62
7
0
LINE
100
AcDbEntity
100
AcDbLine
8
PCL_Layer
5
13A7
10
433.363600
20
66.151700
30
0.000000
11
433.363600
21
79.737300
31
0.000000
62
7
0
LINE
100
AcDbEntity
100
AcDbLine
8
PCL_Layer
5
13A8
10
357.104000
20
98.802200
30
0.000000
11
370.689600
21
98.802200
31
0.000000
62
7
0
LINE
100
AcDbEntity
100
AcDbLine
8
PCL_Layer
5
13A9
10
370.689600
20
98.802200
30
0.000000
11
370.689600
21
85.241600
31
0.000000
62
7
0
LINE
100
AcDbEntity
100
AcDbLine
8
PCL_Layer
5
13AA
10
370.689600
20
85.241600
30
0.000000
11
357.104000
21
85.241600
31
0.000000
62
7
0
LINE
100
AcDbEntity
100
AcDbLine
8
PCL_Layer
5
13AB
10
357.104000
20
85.241600
30
0.000000
11
357.104000
21
98.802200
31
0.000000
62
7
0
LINE
100
AcDbEntity
100
AcDbLine
8
PCL_Layer
5
13AC
10
266.533200
20
41.607500
30
0.000000
11
280.118800
21
41.607500
31
0.000000
62
7
0
LINE
100
AcDbEntity
100
AcDbLine
8
PCL_Layer
5
13AD
10
280.118800
20
41.607500
30
0.000000
11
280.118800
21
28.046900
31
0.000000
62
7
0
LINE
100
AcDbEntity
100
AcDbLine
8
PCL_Layer
5
13AE
10
280.118800
20
28.046900
30
0.000000
11
266.533200
21
28.046900
31
0.000000
62
7
0
LINE
100
AcDbEntity
100
AcDbLine
8
PCL_Layer
5
13AF
10
266.533200
20
28.046900
30
0.000000
11
266.533200
21
41.607500
31
0.000000
62
7
0
LINE
100
AcDbEntity
100
AcDbLine
8
PCL_Layer
5
13B0
10
0.000000
20
128.100100
30
0.000000
11
480.000000
21
128.100100
31
0.000000
62
7
0
LINE
100
AcDbEntity
100
AcDbLine
8
PCL_Layer
5
13B1
10
480.000000
20
128.100100
30
0.000000
11
480.000000
21
0.000000
31
0.000000
62
7
0
LINE
100
AcDbEntity
100
AcDbLine
8
PCL_Layer
5
13B2
10
480.000000
20
0.000000
30
0.000000
11
0.000000
21
0.000000
31
0.000000
62
7
0
LINE
100
AcDbEntity
100
AcDbLine
8
PCL_Layer
5
13B3
10
0.000000
20
0.000000
30
0.000000
11
0.000000
21
128.100100
31
0.000000
62
7
0
ENDSEC
0
EOF
